<?xml version="1.0" encoding="utf-8"?>
<!-- Generator: Adobe Illustrator 27.3.1, SVG Export Plug-In . SVG Version: 6.00 Build 0)  -->
<svg version="1.1" id="Layer_1" xmlns="http://www.w3.org/2000/svg" xmlns:xlink="http://www.w3.org/1999/xlink" x="0px" y="0px"
	 viewBox="0 0 40 40" style="enable-background:new 0 0 40 40;" xml:space="preserve">
<style type="text/css">
	.st0{fill:#FFFFFF;}
</style>
<g>
	<path class="st0" d="M20,3.3c4.8,0,9.6,0,14.4,0c1,0,1.7,0.5,2,1.4c0,0.2,0.1,0.4,0.1,0.6c0,7,0,13.9,0,20.9c0,1.2-0.7,1.9-1.9,1.9
		c-9.6,0-19.3,0-28.9,0c-1.2,0-2-0.7-2-2c0-6.9,0-13.9,0-20.8c0-1.3,0.7-2,2-2C10.4,3.3,15.2,3.3,20,3.3z M26.3,10.6
		c1.4,0,2.8,0,4.2,0c0.8,0,1.2-0.4,1.2-1.2c0-0.7,0-1.4,0-2.1c0-0.8-0.4-1.1-1.1-1.1c-2.8,0-5.6,0-8.4,0c-0.7,0-1.1,0.4-1.1,1.2
		c0,0.7,0,1.4,0,2.1c0,0.8,0.4,1.2,1.2,1.2C23.6,10.6,24.9,10.6,26.3,10.6z M15.6,12.5c0-0.1,0-0.1,0-0.2c-0.3-1.5-0.6-3-1-4.4
		c-0.2-0.8-0.9-1.3-1.8-1.1c-1.7,0.3-3.3,0.7-5,1.1C7,8,6.6,8.7,6.7,9.5C7,11,7.4,12.4,7.7,13.9c0.2,0.9,0.9,1.3,1.7,1.2
		c1.7-0.3,3.4-0.7,5.1-1.1C15.2,13.8,15.6,13.2,15.6,12.5z M8.1,22.8C8,24,8.5,24.6,9.5,24.7c1.7,0.2,3.3,0.3,5,0.5
		c0.8,0.1,1.4-0.4,1.6-1.2c0.1-0.3,0.1-0.6,0.1-0.9c0.1-1.3,0.3-2.5,0.4-3.8c0.1-0.8-0.4-1.5-1.2-1.6c-1.8-0.2-3.5-0.4-5.3-0.5
		c-0.8-0.1-1.4,0.5-1.5,1.3C8.3,20,8.2,21.5,8.1,22.8z M24.3,24.6c-1.5,0-3,0-4.5,0c-0.1,0-0.2,0-0.3,0c-0.3,0-0.5,0.1-0.5,0.4
		c0,0.3,0.2,0.4,0.4,0.4c0.1,0,0.2,0,0.3,0c3.1,0,6.1,0,9.2,0c0.1,0,0.3,0,0.4,0c0.1-0.1,0.3-0.2,0.3-0.4c0-0.1-0.2-0.3-0.3-0.4
		c-0.1-0.1-0.2,0-0.4,0C27.4,24.6,25.9,24.6,24.3,24.6z M28.8,13.4c-1.4,0-2.8,0-4.2,0c-0.1,0-0.3,0-0.4,0c-0.1,0.1-0.3,0.2-0.3,0.4
		c0,0.1,0.1,0.3,0.3,0.4c0.1,0.1,0.2,0,0.4,0c2.8,0,5.6,0,8.3,0c0.1,0,0.3,0,0.4,0c0.1-0.1,0.3-0.2,0.3-0.4c0-0.1-0.1-0.3-0.3-0.4
		c-0.1-0.1-0.3,0-0.4,0C31.6,13.4,30.2,13.4,28.8,13.4z M23.9,17.9c1.4,0,2.9,0,4.3,0c0.2,0,0.4-0.1,0.5-0.3
		c0.2-0.3-0.1-0.5-0.5-0.5c-2.9,0-5.7,0-8.6,0c-0.3,0-0.6,0-0.6,0.4c0,0.4,0.3,0.4,0.6,0.4C21.1,17.9,22.5,17.9,23.9,17.9z
		 M22.4,20.8c-0.9,0-1.9,0-2.8,0c-0.3,0-0.5,0.1-0.5,0.4c0,0.4,0.2,0.4,0.5,0.4c1.9,0,3.7,0,5.6,0c0.3,0,0.6-0.1,0.5-0.4
		c0-0.3-0.3-0.4-0.5-0.4C24.3,20.8,23.3,20.8,22.4,20.8z M30.5,20.8c-0.8,0-1.6,0-2.5,0c-0.3,0-0.5,0.1-0.5,0.4
		c0,0.3,0.2,0.4,0.5,0.4c1.7,0,3.4,0,5,0c0.3,0,0.5-0.1,0.5-0.4c0-0.4-0.3-0.4-0.6-0.4C32.2,20.8,31.4,20.8,30.5,20.8z M20.7,13.4
		c-0.4,0-0.7,0-1.1,0c-0.3,0-0.6,0-0.6,0.4c0,0.4,0.3,0.4,0.6,0.4c0.7,0,1.4,0,2.1,0c0.3,0,0.6,0,0.6-0.4c0-0.4-0.3-0.4-0.6-0.4
		C21.4,13.4,21.1,13.4,20.7,13.4z M32,17.9c0.4,0,0.8,0,1.2,0c0.3,0,0.4-0.1,0.5-0.4c0-0.3-0.2-0.4-0.5-0.4c-0.8,0-1.5,0-2.3,0
		c-0.3,0-0.5,0.1-0.5,0.4c0,0.3,0.2,0.4,0.5,0.4C31.2,17.9,31.6,17.9,32,17.9z"/>
	<path class="st0" d="M29,38.6c-2.3-3.2-4.6-6.4-7-9.7c0.2,0,0.4,0,0.5,0c1.5,0,3,0,4.5,0c0.3,0,0.5,0.1,0.6,0.4
		c1.1,2.9,2.2,5.9,3.4,8.8c0.1,0.4,0.3,0.5,0.7,0.5c0.7,0,1.4,0,2.1,0c0.3,0,0.6,0,0.6,0.4c0,0.4-0.3,0.4-0.6,0.4
		c-3.2,0-6.4,0-9.6,0c-5.9,0-11.8,0-17.8,0c-0.3,0-0.8,0.1-0.8-0.4c0-0.5,0.4-0.4,0.8-0.4c0.7,0,1.3,0,2,0c0.3,0,0.5-0.1,0.6-0.4
		c1.1-3,2.3-5.9,3.4-8.9c0.1-0.3,0.3-0.5,0.7-0.5c1.5,0,3,0,4.5,0c0.1,0,0.3,0,0.5,0c-2.4,3.3-4.7,6.4-7,9.7
		C17,38.6,23,38.6,29,38.6z"/>
	<path class="st0" d="M24.4,2.5c-3,0-5.9,0-8.8,0c-0.3-1.4,0.4-2,1.5-2c1.9,0,3.7,0,5.6,0c1.3,0,1.7,0.4,1.7,1.7
		C24.5,2.3,24.4,2.4,24.4,2.5z"/>
	<path class="st0" d="M26.3,7c1.3,0,2.7,0,4,0c0.3,0,0.5,0.1,0.5,0.4c0,0.7,0,1.3,0,2c0,0.3-0.1,0.4-0.4,0.4c-2.7,0-5.5,0-8.2,0
		c-0.3,0-0.4-0.1-0.4-0.4c0-0.7,0-1.4,0-2.1C21.8,7,22,7,22.2,7C23.6,7,25,7,26.3,7z"/>
	<path class="st0" d="M14.7,12.5c0,0.4-0.2,0.6-0.5,0.7c-1.7,0.4-3.3,0.7-5,1.1c-0.4,0.1-0.6-0.1-0.7-0.5c-0.3-1.5-0.6-3-0.9-4.4
		C7.5,8.9,7.7,8.7,8.1,8.6c1.6-0.4,3.3-0.7,4.9-1.1c0.4-0.1,0.7,0.1,0.8,0.4C14.1,9.5,14.4,11,14.7,12.5
		C14.7,12.5,14.7,12.5,14.7,12.5z M10,12.7c1-0.2,1.9-0.4,2.9-0.6c0.1,0,0.3-0.3,0.3-0.4c-0.1-0.1-0.3-0.3-0.4-0.3
		c-0.9,0.2-1.8,0.4-2.7,0.6c-0.1,0-0.3,0.3-0.3,0.4C9.7,12.4,9.9,12.6,10,12.7z M9.5,10.5c1-0.2,2-0.4,2.9-0.6
		c0.1,0,0.3-0.3,0.2-0.4c0-0.1-0.2-0.3-0.4-0.3c-0.2,0-0.4,0-0.6,0.1C11,9.4,10.3,9.5,9.6,9.7c-0.2,0-0.3,0.3-0.4,0.5
		C9.2,10.3,9.4,10.4,9.5,10.5z"/>
	<path class="st0" d="M15.6,19.8c-0.1,1.1-0.3,2.5-0.4,3.9c0,0.5-0.3,0.7-0.8,0.6c-1.7-0.2-3.4-0.3-5-0.5c-0.4,0-0.6-0.3-0.6-0.7
		c0.1-1.4,0.3-2.8,0.4-4.3c0.1-0.6,0.3-0.8,1-0.7c1.5,0.2,3,0.3,4.5,0.5C15.5,18.7,15.7,18.8,15.6,19.8z M13.4,20.7
		c0.4,0,0.7,0,0.7-0.3c0-0.4-0.3-0.4-0.5-0.5c-0.8-0.1-1.7-0.2-2.5-0.3c-0.3,0-0.5,0.1-0.5,0.4c0,0.3,0.1,0.4,0.4,0.4
		C11.8,20.5,12.7,20.6,13.4,20.7z M13.3,22.9c0.3,0,0.5,0,0.6-0.3c0-0.3-0.2-0.4-0.5-0.5c-0.9-0.1-1.7-0.2-2.6-0.3
		c-0.3,0-0.5,0.1-0.5,0.3c0,0.3,0.1,0.4,0.4,0.5C11.6,22.7,12.5,22.8,13.3,22.9z"/>
</g>
</svg>
