<?xml version="1.0" encoding="utf-8"?>
<!-- Generator: Adobe Illustrator 24.1.3, SVG Export Plug-In . SVG Version: 6.00 Build 0)  -->
<svg version="1.1" id="Layer_1" xmlns="http://www.w3.org/2000/svg" xmlns:xlink="http://www.w3.org/1999/xlink" x="0px" y="0px"
	 viewBox="0 0 512 512" style="enable-background:new 0 0 512 512;" xml:space="preserve">
<style type="text/css">
	.st0{fill:#FFFFFF;}
</style>
<g id="Layer_2_1_">
	<path class="st0" d="M256,21.3c-129.4-0.2-234.5,104.6-234.7,234c-0.1,39.7,10,78.8,29.2,113.6l-28.3,94.3
		c-3.4,11.3,3,23.2,14.3,26.6c2,0.6,4.1,0.9,6.1,0.9c2.1,0,4.1-0.3,6.1-0.9l94.3-28.3c113.5,62.6,256.2,21.3,318.8-92.1
		s21.3-256.2-92.1-318.8C334.9,31.3,295.8,21.3,256,21.3z M256,448c-35,0-69.3-9.7-99.2-27.9c-3.3-2-7.2-3.1-11.1-3.1
		c-2.1,0-4.1,0.3-6.1,0.9l-65.2,19.6L94,372.4c1.7-5.7,0.9-11.9-2.1-17.1C37.2,264.6,66.3,146.7,157,91.9s208.6-25.6,263.4,65.1
		c54.7,90.7,25.6,208.6-65.1,263.4C325.3,438.5,291,448,256,448L256,448z"/>
</g>
</svg>
