<?xml version="1.0" encoding="utf-8"?>
<!-- Generator: Adobe Illustrator 24.1.3, SVG Export Plug-In . SVG Version: 6.00 Build 0)  -->
<svg version="1.1" id="Layer_1" xmlns="http://www.w3.org/2000/svg" xmlns:xlink="http://www.w3.org/1999/xlink" x="0px" y="0px"
	 viewBox="0 0 1080 1080" style="enable-background:new 0 0 1080 1080;" xml:space="preserve">
<style type="text/css">
	.st0{fill:#DEE7F6;}
	.st1{fill:#C1D2EC;}
	.st2{fill:#98B2DD;}
	.st3{fill:#4756A5;}
	.st4{fill:#E75755;}
	.st5{fill:#FFFFFF;}
	.st6{fill:#4163AE;}
	.st7{fill:#7089C5;}
	.st8{fill:#F37269;}
	.st9{fill:#EC6966;}
	.st10{fill:#F59191;}
	.st11{fill:#101131;}
	.st12{fill:#1D1852;}
	.st13{fill:#EA8787;}
	.st14{fill:#151533;}
	.st15{display:none;fill:#101131;}
</style>
<g id="Layer_19">
	<g>
		<g>
			<path class="st0" d="M118.1,801.3c0,0-115.6-124.1-19.6-258.5C183.7,423.5,283.1,431.6,356,480c31.1,20.6,120.6,2.5,196.8-118.8
				c103.9-165.5,464.1-65.1,398.5,189.5c-31.8,123.2,96.7,127.7,31.2,250.8L118.1,801.3z"/>
			<path class="st1" d="M340.1,561.3c0,0-57.2-81.4-79.6-70.9C238.2,501,340.1,561.3,340.1,561.3z"/>
			<path class="st1" d="M336.5,539.4c0,0-8.7-61.2-22.5-58.8C300.2,483,336.5,539.4,336.5,539.4z"/>
			<g>
				<path class="st2" d="M288.1,730.2c0,0,5.5-27.2-15.9-30.7c0,0-14.5-0.5-23,5c0,0,24.2,14,21.3,18.3
					c-2.9,4.3-25.9-17.5-25.9-17.5s-26,11.4-31.8,19.6c0,0,30.7,5.5,26.8,9s-36-0.7-36-0.7s-20.7,16.7-11.7,30s19.3,13.2,22.6,10.9
					s19.2-21.4,21.3-18.8c2,2.6-5,18.7-13.3,23.9c0,0,26.1,8.8,34-2.3c7.9-11.1,4.2-19.8,9.2-26.6s10.7-10,9.7-5.3
					s-11.4,14.5-11.5,23.4c0,8.9-0.9,15.4,9.2,7.5c10.2-7.9,23.7-26.1,19.3-35.9C288.1,730.2,288.1,730.2,288.1,730.2z"/>
				<g>
					<path class="st3" d="M203.5,757.3c0,0,60.9-37.2,84.6-27.1c0,0,8.1,7.4,22.1,10.5l3.7,3.2c0,0-17.1-5.3-21.4-3.9
						C292.5,740,286.2,714.5,203.5,757.3z"/>
					<path class="st3" d="M310.2,740.7c0,0,18.9,2.4,29.7,19.6l-2.3,1.6c0,0-14.5-15.9-26.2-18.7
						C299.7,740.3,310.2,740.7,310.2,740.7z"/>
				</g>
			</g>
			<g>
				<path class="st1" d="M306.7,650.7c0,0,44.2-24.8,23.6-58.4c0,0-16.5-20.6-34.2-25.9c0,0,9.4,50.1,0,51.3s-6.5-56.6-6.5-56.6
					s-46.6-22.4-64.9-20.6c0,0,28.9,48.9,19.5,47.8c-9.4-1.2-41.9-50.7-41.9-50.7s-47.8-8.8-55.4,19.5c-7.7,28.3,4.7,42.5,11.8,44.2
					c7.1,1.8,52.5,1.2,51.3,7.1c-1.2,5.9-31.8,15.3-48.9,10c0,0,18.9,46.6,43.6,44.2c24.8-2.4,32.4-17.7,47.8-18.9
					c15.3-1.2,26.5,2.9,18.9,7.1c-7.7,4.1-33.6,1.4-46,11.9s-22.4,17,0.6,21.7s64.3,1.8,72.5-15.9
					C306.7,650.7,306.7,650.7,306.7,650.7z"/>
				<g>
					<path class="st3" d="M168.7,565.8c0,0,123.8,40.1,138,84.9c0,0-0.6,20.1,11.8,43.1v8.8c0,0-13-30.1-20.1-34.2
						C298.5,668.4,326.2,629.5,168.7,565.8z"/>
					<path class="st3" d="M318.5,693.8c0,0,19.1,29,8.2,64.3l-4.9-1.3c0,0,4.8-38.9-5.2-58.4C306.6,678.8,318.5,693.8,318.5,693.8z"
						/>
				</g>
			</g>
			<path class="st4" d="M351.7,443.5l-66.2,342.1c-1.3,7,4,13.4,11.1,13.4h34.9L351.7,443.5z"/>
			<g>
				<path class="st2" d="M791.6,541.4c0,0-29.8-19-14.1-41.5c0,0,12.3-13.7,24.8-16.7c0,0-8.6,34.5-2,35.7
					c6.5,1.2,6.8-39.1,6.8-39.1s33.3-13.7,45.9-11.8c0,0-22,32.9-15.4,32.4c6.6-0.4,31.1-33.6,31.1-33.6s33.6-4.2,37.8,15.7
					c4.2,20-5,29.3-10,30.3c-5,0.9-36.5-1.3-36,2.9c0.6,4.1,21.5,11.9,33.6,8.9c0,0-15,31.6-32.1,29s-21.8-13.6-32.5-15
					c-10.6-1.4-18.6,1-13.4,4.2c5.2,3.2,23.3,2.3,31.5,10.1s14.9,12.7-1.3,15.1c-16.2,2.4-44.8-1.3-49.8-14
					C791.6,541.4,791.6,541.4,791.6,541.4z"/>
				<g>
					<path class="st2" d="M890.9,487.9c0,0-87.7,22.9-99.3,53.5c0,0-0.4,14-9.9,29.5l-0.4,6.2c0,0,10.2-20.4,15.3-23
						C796.6,554.1,778.9,525.9,890.9,487.9z"/>
					<path class="st2" d="M781.7,570.9c0,0-14.4,19.4-8.3,44.4l3.5-0.7c0,0-1.8-27.2,6-40.4C790.6,560.9,781.7,570.9,781.7,570.9z"
						/>
				</g>
			</g>
			<g>
				<path class="st5" d="M711.5,459c0,0-45.7-10-36.5-45.3c0,0,9.1-22.7,23.3-32.1c0,0,5.1,46.8,13.7,45.4
					c8.7-1.5-9.4-51.8-9.4-51.8s35.2-32.3,51.8-35.6c0,0-12.4,51-4.4,47.4s23.4-56.1,23.4-56.1s39.9-20.6,54.2,2.3
					c14.4,23,7.2,38.8,1.4,42.3s-46.1,15.1-43.5,20s32.3,5,46-4.3c0,0-4.2,46.2-26.7,50.8c-22.5,4.6-33.4-6.9-47.3-3.9
					c-13.9,3.1-22.7,9.7-14.8,11.3c7.9,1.6,30.1-7.8,43.8-1.8c13.8,6,24.4,9,5.3,19.4c-19.1,10.3-56.3,18.8-68.4,5.4
					C711.5,459,711.5,459,711.5,459z"/>
				<g>
					<path class="st5" d="M810.7,347c0,0-98.7,68.6-99.2,112c0,0,5.9,17.6,1.1,41.2l2.4,7.8c0,0,3.4-30.1,8.6-35.6
						C723.5,472.4,688.6,445.5,810.7,347z"/>
					<path class="st5" d="M712.6,500.2c0,0-9.1,30.8,10,59l4-2.5c0,0-14.6-33.1-11-53.1C719.1,483.8,712.6,500.2,712.6,500.2z"/>
				</g>
			</g>
			<path class="st6" d="M352.5,442.1L308.6,778c-1.5,11.1,7.2,21,18.4,21h64.3L355,440.9L352.5,442.1z"/>
			<path class="st7" d="M352.5,442.1l-19.6,333.8c-0.7,12.6,9.3,23.2,21.8,23.2h96L352.5,442.1z"/>
			<path class="st3" d="M351.8,444.8l9.5,331.1c-0.7,12.6,9.3,23.2,21.8,23.2h96L351.8,444.8z"/>
			<path class="st5" d="M811.2,799H432.8c-9.4,0-17.5-6.8-19.2-16L356,468.1c-2.6-14.3,8.4-27.5,22.9-27.5h373.9
				c9.4,0,17.5,6.8,19.2,16L830.5,776C832.7,788,823.5,799,811.2,799z"/>
			<path class="st8" d="M363.5,509h418.4l-10.7-59.5c-0.9-5.2-5.4-8.9-10.7-8.9H355.2c-2.2,0-3.9,2-3.5,4.2L363.5,509z"/>
			<g>
				<g>
					<g>
						<path class="st6" d="M373.3,422.8c-10,0-18.1,8.1-18.1,18.1h3.5c0-8.1,6.6-14.7,14.7-14.7s14.7,6.6,14.7,14.7
							c0,1.6-0.3,3.2-0.8,4.6c-1.4,4.3-4.8,7.7-9.1,9.2c-1.3,0.4-2.6,0.7-4,0.8v3.5c1.6-0.1,3.2-0.4,4.6-0.8
							c5.9-1.9,10.5-6.7,12.1-12.7c0.4-1.5,0.6-3,0.6-4.6C391.4,430.9,383.3,422.8,373.3,422.8z"/>
					</g>
					<path class="st6" d="M378.9,457.1c0,0.4-0.1,0.7-0.1,1c-0.5,1.7-2,2.9-3.8,2.9c-2.2,0-3.9-1.8-3.9-3.9c0-2.2,1.8-3.9,3.9-3.9
						c1.3,0,2.4,0.6,3.1,1.5C378.6,455.4,378.9,456.2,378.9,457.1z"/>
				</g>
				<g>
					<g>
						<path class="st6" d="M438.3,422.8c-10,0-18.1,8.1-18.1,18.1h3.5c0-8.1,6.6-14.7,14.7-14.7s14.7,6.6,14.7,14.7
							c0,1.6-0.3,3.2-0.8,4.6c-1.4,4.3-4.8,7.7-9.1,9.2c-1.3,0.4-2.6,0.7-4,0.8v3.5c1.6-0.1,3.2-0.4,4.6-0.8
							c5.9-1.9,10.5-6.7,12.1-12.7c0.4-1.5,0.6-3,0.6-4.6C456.5,430.9,448.3,422.8,438.3,422.8z"/>
					</g>
					<path class="st6" d="M443.9,457.1c0,0.4-0.1,0.7-0.1,1c-0.5,1.7-2,2.9-3.8,2.9c-2.2,0-3.9-1.8-3.9-3.9c0-2.2,1.8-3.9,3.9-3.9
						c1.3,0,2.4,0.6,3.1,1.5C443.6,455.4,443.9,456.2,443.9,457.1z"/>
				</g>
				<g>
					<g>
						<path class="st6" d="M503.4,422.8c-10,0-18.1,8.1-18.1,18.1h3.5c0-8.1,6.6-14.7,14.7-14.7s14.7,6.6,14.7,14.7
							c0,1.6-0.3,3.2-0.8,4.6c-1.4,4.3-4.8,7.7-9.1,9.2c-1.3,0.4-2.6,0.7-4,0.8v3.5c1.6-0.1,3.2-0.4,4.6-0.8
							c5.9-1.9,10.5-6.7,12.1-12.7c0.4-1.5,0.6-3,0.6-4.6C521.5,430.9,513.4,422.8,503.4,422.8z"/>
					</g>
					<path class="st6" d="M509,457.1c0,0.4-0.1,0.7-0.1,1c-0.5,1.7-2,2.9-3.8,2.9c-2.2,0-3.9-1.8-3.9-3.9c0-2.2,1.8-3.9,3.9-3.9
						c1.3,0,2.4,0.6,3.1,1.5C508.7,455.4,509,456.2,509,457.1z"/>
				</g>
				<g>
					<g>
						<path class="st6" d="M568.4,422.8c-10,0-18.1,8.1-18.1,18.1h3.5c0-8.1,6.6-14.7,14.7-14.7c8.1,0,14.7,6.6,14.7,14.7
							c0,1.6-0.3,3.2-0.8,4.6c-1.4,4.3-4.8,7.7-9.1,9.2c-1.3,0.4-2.6,0.7-4,0.8v3.5c1.6-0.1,3.2-0.4,4.6-0.8
							c5.9-1.9,10.5-6.7,12.1-12.7c0.4-1.5,0.6-3,0.6-4.6C586.6,430.9,578.4,422.8,568.4,422.8z"/>
					</g>
					<path class="st6" d="M574,457.1c0,0.4-0.1,0.7-0.1,1c-0.5,1.7-2,2.9-3.8,2.9c-2.2,0-3.9-1.8-3.9-3.9c0-2.2,1.8-3.9,3.9-3.9
						c1.3,0,2.4,0.6,3.1,1.5C573.7,455.4,574,456.2,574,457.1z"/>
				</g>
				<g>
					<g>
						<path class="st6" d="M633.5,422.8c-10,0-18.1,8.1-18.1,18.1h3.5c0-8.1,6.6-14.7,14.7-14.7c8.1,0,14.7,6.6,14.7,14.7
							c0,1.6-0.3,3.2-0.8,4.6c-1.4,4.3-4.8,7.7-9.1,9.2c-1.2,0.4-2.6,0.7-4,0.8v3.5c1.6-0.1,3.2-0.4,4.6-0.8
							c5.9-1.9,10.5-6.7,12.1-12.7c0.4-1.5,0.6-3,0.6-4.6C651.6,430.9,643.5,422.8,633.5,422.8z"/>
					</g>
					<path class="st6" d="M639.1,457.1c0,0.4-0.1,0.7-0.1,1c-0.5,1.7-2,2.9-3.8,2.9c-2.2,0-3.9-1.8-3.9-3.9c0-2.2,1.8-3.9,3.9-3.9
						c1.3,0,2.4,0.6,3.1,1.5C638.8,455.4,639.1,456.2,639.1,457.1z"/>
				</g>
				<g>
					<g>
						<path class="st6" d="M698.5,422.8c-10,0-18.1,8.1-18.1,18.1h3.5c0-8.1,6.6-14.7,14.7-14.7c8.1,0,14.7,6.6,14.7,14.7
							c0,1.6-0.3,3.2-0.8,4.6c-1.4,4.3-4.8,7.7-9.1,9.2c-1.2,0.4-2.6,0.7-4,0.8v3.5c1.6-0.1,3.2-0.4,4.6-0.8
							c5.9-1.9,10.5-6.7,12.1-12.7c0.4-1.5,0.6-3,0.6-4.6C716.6,430.9,708.5,422.8,698.5,422.8z"/>
					</g>
					<path class="st6" d="M704.1,457.1c0,0.4-0.1,0.7-0.1,1c-0.5,1.7-2,2.9-3.8,2.9c-2.2,0-3.9-1.8-3.9-3.9c0-2.2,1.8-3.9,3.9-3.9
						c1.3,0,2.4,0.6,3.1,1.5C703.8,455.4,704.1,456.2,704.1,457.1z"/>
				</g>
				<g>
					<g>
						<path class="st6" d="M763.5,422.8c-10,0-18.1,8.1-18.1,18.1h3.5c0-8.1,6.6-14.7,14.7-14.7c8.1,0,14.7,6.6,14.7,14.7
							c0,1.6-0.3,3.2-0.8,4.6c-1.4,4.3-4.8,7.7-9.1,9.2c-1.3,0.4-2.6,0.7-4,0.8v3.5c1.6-0.1,3.2-0.4,4.6-0.8
							c5.9-1.9,10.5-6.7,12.1-12.7c0.4-1.5,0.6-3,0.6-4.6C781.7,430.9,773.5,422.8,763.5,422.8z"/>
					</g>
					<path class="st6" d="M769.1,457.1c0,0.4-0.1,0.7-0.1,1c-0.5,1.7-2,2.9-3.8,2.9c-2.2,0-3.9-1.8-3.9-3.9c0-2.2,1.8-3.9,3.9-3.9
						c1.3,0,2.4,0.6,3.1,1.5C768.8,455.4,769.1,456.2,769.1,457.1z"/>
				</g>
			</g>
			<g>
				<path class="st7" d="M605.5,620.7h-21.2c-2.4,0-4.8-2-5.3-4.4l-4.1-21.2c-0.5-2.4,1.1-4.4,3.6-4.4h21.2c2.4,0,4.8,2,5.3,4.4
					l4.1,21.2C609.5,618.7,607.9,620.7,605.5,620.7z"/>
				<path class="st7" d="M658.9,620.7h-21.2c-2.4,0-4.8-2-5.3-4.4l-4.1-21.2c-0.5-2.4,1.1-4.4,3.6-4.4h21.2c2.4,0,4.8,2,5.3,4.4
					l4.1,21.2C662.9,618.7,661.3,620.7,658.9,620.7z"/>
				<path class="st6" d="M712.2,620.7H691c-2.4,0-4.8-2-5.3-4.4l-4.1-21.2c-0.5-2.4,1.1-4.4,3.6-4.4h21.2c2.4,0,4.8,2,5.3,4.4
					l4.1,21.2C716.3,618.7,714.7,620.7,712.2,620.7z"/>
				<path class="st7" d="M445.4,620.7h-21.2c-2.4,0-4.8-2-5.3-4.4l-4.1-21.2c-0.5-2.4,1.1-4.4,3.6-4.4h21.2c2.4,0,4.8,2,5.3,4.4
					l4.1,21.2C449.4,618.7,447.8,620.7,445.4,620.7z"/>
				<path class="st8" d="M422.2,557.2h-9.1c-1.1,0-2.1-0.9-2.3-1.9l-1.8-9.1c-0.2-1.1,0.5-1.9,1.5-1.9h9.1c1.1,0,2.1,0.9,2.3,1.9
					l1.8,9.1C423.9,556.3,423.2,557.2,422.2,557.2z"/>
				<path class="st7" d="M498.7,620.7h-21.2c-2.4,0-4.8-2-5.3-4.4l-4.1-21.2c-0.5-2.4,1.1-4.4,3.6-4.4h21.2c2.4,0,4.8,2,5.3,4.4
					l4.1,21.2C502.8,618.7,501.2,620.7,498.7,620.7z"/>
				<path class="st7" d="M552.1,620.7H531c-2.4,0-4.8-2-5.3-4.4l-4.1-21.2c-0.5-2.4,1.1-4.4,3.6-4.4h21.2c2.4,0,4.8,2,5.3,4.4
					l4.1,21.2C556.2,618.7,554.6,620.7,552.1,620.7z"/>
				<path class="st6" d="M765.6,620.7h-21.2c-2.4,0-4.8-2-5.3-4.4l-4.1-21.2c-0.5-2.4,1.1-4.4,3.6-4.4h21.2c2.4,0,4.8,2,5.3,4.4
					l4.1,21.2C769.7,618.7,768.1,620.7,765.6,620.7z"/>
				<path class="st7" d="M596.6,574.8h-21.2c-2.4,0-4.8-2-5.3-4.4l-4.1-21.2c-0.5-2.4,1.1-4.4,3.6-4.4h21.2c2.4,0,4.8,2,5.3,4.4
					l4.1,21.2C600.7,572.8,599.1,574.8,596.6,574.8z"/>
				<path class="st7" d="M650,574.8h-21.2c-2.4,0-4.8-2-5.3-4.4l-4.1-21.2c-0.5-2.4,1.1-4.4,3.6-4.4h21.2c2.4,0,4.8,2,5.3,4.4
					l4.1,21.2C654.1,572.8,652.4,574.8,650,574.8z"/>
				<path class="st6" d="M703.4,574.8h-21.2c-2.4,0-4.8-2-5.3-4.4l-4.1-21.2c-0.5-2.4,1.1-4.4,3.6-4.4h21.2c2.4,0,4.8,2,5.3,4.4
					l4.1,21.2C707.4,572.8,705.8,574.8,703.4,574.8z"/>
				<path class="st6" d="M756.7,574.8h-21.2c-2.4,0-4.8-2-5.3-4.4l-4.1-21.2c-0.5-2.4,1.1-4.4,3.6-4.4H751c2.4,0,4.8,2,5.3,4.4
					l4.1,21.2C760.8,572.8,759.2,574.8,756.7,574.8z"/>
				<path class="st7" d="M614.9,669.4h-21.2c-2.4,0-4.8-2-5.3-4.4l-4.1-21.2c-0.5-2.4,1.1-4.4,3.6-4.4h21.2c2.4,0,4.8,2,5.3,4.4
					l4.1,21.2C618.9,667.4,617.3,669.4,614.9,669.4z"/>
				<path class="st7" d="M668.2,669.4H647c-2.4,0-4.8-2-5.3-4.4l-4.1-21.2c-0.5-2.4,1.1-4.4,3.6-4.4h21.2c2.4,0,4.8,2,5.3,4.4
					l4.1,21.2C672.3,667.4,670.7,669.4,668.2,669.4z"/>
				<path class="st6" d="M721.6,669.4h-21.2c-2.4,0-4.8-2-5.3-4.4l-4.1-21.2c-0.5-2.4,1.1-4.4,3.6-4.4h21.2c2.4,0,4.8,2,5.3,4.4
					l4.1,21.2C725.7,667.4,724.1,669.4,721.6,669.4z"/>
				<path class="st7" d="M454.7,669.4h-21.2c-2.4,0-4.8-2-5.3-4.4l-4.1-21.2c-0.5-2.4,1.1-4.4,3.6-4.4H449c2.4,0,4.8,2,5.3,4.4
					l4.1,21.2C458.8,667.4,457.2,669.4,454.7,669.4z"/>
				<path class="st7" d="M508.1,669.4H487c-2.4,0-4.8-2-5.3-4.4l-4.1-21.2c-0.5-2.4,1.1-4.4,3.6-4.4h21.2c2.4,0,4.8,2,5.3,4.4
					l4.1,21.2C512.2,667.4,510.6,669.4,508.1,669.4z"/>
				<path class="st7" d="M561.5,669.4h-21.2c-2.4,0-4.8-2-5.3-4.4l-4.1-21.2c-0.5-2.4,1.1-4.4,3.6-4.4h21.2c2.4,0,4.8,2,5.3,4.4
					l4.1,21.2C565.6,667.4,563.9,669.4,561.5,669.4z"/>
				<path class="st6" d="M775,669.4h-21.2c-2.4,0-4.8-2-5.3-4.4l-4.1-21.2c-0.5-2.4,1.1-4.4,3.6-4.4h21.2c2.4,0,4.8,2,5.3,4.4
					l4.1,21.2C779.1,667.4,777.4,669.4,775,669.4z"/>
				<path class="st7" d="M624.3,718.1h-21.2c-2.4,0-4.8-2-5.3-4.4l-4.1-21.2c-0.5-2.4,1.1-4.4,3.6-4.4h21.2c2.4,0,4.8,2,5.3,4.4
					l4.1,21.2C628.3,716.1,626.7,718.1,624.3,718.1z"/>
				<path class="st7" d="M677.6,718.1h-21.2c-2.4,0-4.8-2-5.3-4.4l-4.1-21.2c-0.5-2.4,1.1-4.4,3.6-4.4h21.2c2.4,0,4.8,2,5.3,4.4
					l4.1,21.2C681.7,716.1,680.1,718.1,677.6,718.1z"/>
				<path class="st6" d="M731,718.1h-21.2c-2.4,0-4.8-2-5.3-4.4l-4.1-21.2c-0.5-2.4,1.1-4.4,3.6-4.4h21.2c2.4,0,4.8,2,5.3,4.4
					l4.1,21.2C735.1,716.1,733.5,718.1,731,718.1z"/>
				<path class="st7" d="M464.1,718.1H443c-2.4,0-4.8-2-5.3-4.4l-4.1-21.2c-0.5-2.4,1.1-4.4,3.6-4.4h21.2c2.4,0,4.8,2,5.3,4.4
					l4.1,21.2C468.2,716.1,466.6,718.1,464.1,718.1z"/>
				<path class="st8" d="M517.5,718.1h-21.2c-2.4,0-4.8-2-5.3-4.4l-4.1-21.2c-0.5-2.4,1.1-4.4,3.6-4.4h21.2c2.4,0,4.8,2,5.3,4.4
					l4.1,21.2C521.6,716.1,520,718.1,517.5,718.1z"/>
				<path class="st7" d="M570.9,718.1h-21.2c-2.4,0-4.8-2-5.3-4.4l-4.1-21.2c-0.5-2.4,1.1-4.4,3.6-4.4h21.2c2.4,0,4.8,2,5.3,4.4
					l4.1,21.2C575,716.1,573.3,718.1,570.9,718.1z"/>
				<path class="st6" d="M784.4,718.1h-21.2c-2.4,0-4.8-2-5.3-4.4l-4.1-21.2c-0.5-2.4,1.1-4.4,3.6-4.4h21.2c2.4,0,4.8,2,5.3,4.4
					l4.1,21.2C788.5,716.1,786.8,718.1,784.4,718.1z"/>
				<path class="st7" d="M633.1,764H612c-2.4,0-4.8-2-5.3-4.4l-4.1-21.2c-0.5-2.4,1.1-4.4,3.6-4.4h21.2c2.4,0,4.8,2,5.3,4.4
					l4.1,21.2C637.2,762,635.6,764,633.1,764z"/>
				<path class="st7" d="M686.5,764h-21.2c-2.4,0-4.8-2-5.3-4.4l-4.1-21.2c-0.5-2.4,1.1-4.4,3.6-4.4h21.2c2.4,0,4.8,2,5.3,4.4
					l4.1,21.2C690.6,762,688.9,764,686.5,764z"/>
				<path class="st6" d="M739.9,764h-21.2c-2.4,0-4.8-2-5.3-4.4l-4.1-21.2c-0.5-2.4,1.1-4.4,3.6-4.4h21.2c2.4,0,4.8,2,5.3,4.4
					l4.1,21.2C743.9,762,742.3,764,739.9,764z"/>
				<path class="st7" d="M473,764h-21.2c-2.4,0-4.8-2-5.3-4.4l-4.1-21.2c-0.5-2.4,1.1-4.4,3.6-4.4h21.2c2.4,0,4.8,2,5.3,4.4
					l4.1,21.2C477.1,762,475.4,764,473,764z"/>
				<path class="st7" d="M526.4,764h-21.2c-2.4,0-4.8-2-5.3-4.4l-4.1-21.2c-0.5-2.4,1.1-4.4,3.6-4.4h21.2c2.4,0,4.8,2,5.3,4.4
					l4.1,21.2C530.4,762,528.8,764,526.4,764z"/>
				<path class="st7" d="M579.8,764h-21.2c-2.4,0-4.8-2-5.3-4.4l-4.1-21.2c-0.5-2.4,1.1-4.4,3.6-4.4H574c2.4,0,4.8,2,5.3,4.4
					l4.1,21.2C583.8,762,582.2,764,579.8,764z"/>
				<path class="st7" d="M486.3,548.8h-56c-0.8,0-1.5-0.7-1.5-1.5l0,0c0-0.8,0.7-1.5,1.5-1.5h56c0.8,0,1.5,0.7,1.5,1.5l0,0
					C487.8,548.2,487.1,548.8,486.3,548.8z"/>
				<path class="st7" d="M488,555.6h-56c-0.8,0-1.5-0.7-1.5-1.5l0,0c0-0.8,0.7-1.5,1.5-1.5h56c0.8,0,1.5,0.7,1.5,1.5l0,0
					C489.5,555,488.8,555.6,488,555.6z"/>
			</g>
			<g>
				<path class="st5" d="M426.2,498.3H407c-1.6,0-2.9-1.3-2.9-2.9l0,0c0-1.6,1.3-2.9,2.9-2.9h19.2c1.6,0,2.9,1.3,2.9,2.9l0,0
					C429,497,427.8,498.3,426.2,498.3z"/>
				<path class="st5" d="M478.9,498.3h-19.2c-1.6,0-2.9-1.3-2.9-2.9l0,0c0-1.6,1.3-2.9,2.9-2.9h19.2c1.6,0,2.9,1.3,2.9,2.9l0,0
					C481.8,497,480.5,498.3,478.9,498.3z"/>
				<path class="st5" d="M531.7,498.3h-19.2c-1.6,0-2.9-1.3-2.9-2.9l0,0c0-1.6,1.3-2.9,2.9-2.9h19.2c1.6,0,2.9,1.3,2.9,2.9l0,0
					C534.6,497,533.3,498.3,531.7,498.3z"/>
				<path class="st5" d="M584.5,498.3h-19.2c-1.6,0-2.9-1.3-2.9-2.9l0,0c0-1.6,1.3-2.9,2.9-2.9h19.2c1.6,0,2.9,1.3,2.9,2.9l0,0
					C587.3,497,586.1,498.3,584.5,498.3z"/>
				<path class="st5" d="M637.2,498.3H618c-1.6,0-2.9-1.3-2.9-2.9l0,0c0-1.6,1.3-2.9,2.9-2.9h19.2c1.6,0,2.9,1.3,2.9,2.9l0,0
					C640.1,497,638.8,498.3,637.2,498.3z"/>
				<path class="st5" d="M690,498.3h-19.2c-1.6,0-2.9-1.3-2.9-2.9l0,0c0-1.6,1.3-2.9,2.9-2.9H690c1.6,0,2.9,1.3,2.9,2.9l0,0
					C692.9,497,691.6,498.3,690,498.3z"/>
				<path class="st5" d="M742.8,498.3h-19.2c-1.6,0-2.9-1.3-2.9-2.9l0,0c0-1.6,1.3-2.9,2.9-2.9h19.2c1.6,0,2.9,1.3,2.9,2.9l0,0
					C745.6,497,744.3,498.3,742.8,498.3z"/>
			</g>
			<g>
				<path class="st9" d="M621.2,575.2c-4.2,0-7.3-1.3-9-4c-3.2-5-0.7-12,7.4-20.9c6-6.5,12.9-11.6,13-11.6c0.3-0.2,0.7-0.1,0.9,0.1
					c0.2,0.3,0.1,0.7-0.1,0.9c-0.3,0.2-27.1,20-20.1,30.9c2.2,3.4,6.9,3.7,10.5,3.2c6.6-0.8,15.3-4.3,23.2-9.6
					c8.1-5.4,13.9-11.5,15.7-16.7c1.2-3.4,0.8-5.8-1.1-7.2c-2.5-1.8-7.8-1.8-14.2,0c-6.1,1.7-12.2,4.7-15.9,7.9
					c-0.3,0.2-0.6,0.2-0.9-0.1c-0.2-0.3-0.2-0.6,0.1-0.9c3.9-3.3,10.2-6.4,16.4-8.1c6.8-1.9,12.3-1.8,15.2,0.2
					c1.7,1.2,3.4,3.6,1.6,8.6c-1.9,5.5-7.8,11.8-16.2,17.3c-8,5.3-16.9,9-23.7,9.8C622.9,575.1,622,575.2,621.2,575.2z"/>
			</g>
			<g>
				<path class="st10" d="M732.2,540.3l-2.2-4.1c0,0,1.1-7.3-8.1-12c0,0-3.4-1.4-5.3,1.4c-1.7,2.5,3.3,2.1,3.1,6.4
					c-0.3,4.3,1.8,6.9,4.6,8.3l2.4,2.7L732.2,540.3z"/>
				<path class="st11" d="M819.1,530.5c0,0-7.9,38.8-51.4,51.4c-13.6,4-44.4-40.7-44.4-40.7s1.1-4.1,7.9-3.2c0,0,30,19.9,33.8,22
					c3.4,1.9,25.4-24.6,35.4-28.9C810.5,526.8,819.1,530.5,819.1,530.5z"/>
				<g>
					
						<rect x="692.5" y="525.2" transform="matrix(0.9833 -0.1821 0.1821 0.9833 -84.5352 139.3382)" class="st9" width="48.1" height="9.6"/>
					<polygon class="st10" points="681.9,536.5 693.8,539.2 692,529.8 					"/>
					<path class="st10" d="M745.4,523.1l0.6,3c0.3,1.8-0.9,3.6-2.7,3.9l-2.2,0.4l-1.7-9.4l2.4-0.4
						C743.4,520.2,745.1,521.4,745.4,523.1z"/>
				</g>
				<g>
					<path class="st11" d="M871,774.1c0,0,5.4,4.9,4.3,8.4c-1.1,3.5-5.9,5.8-6.6,10.1c-0.7,4.3-3.3,6.6-5.7,6.6s-11.3,0-11.3,0
						s-1.7-3,2.5-3.9s5.8-5.9,5.5-10.6c-0.3-4.7,0.4-10.9,0.4-10.9l8.9-2.1L871,774.1z"/>
					<path class="st11" d="M804.8,786.8c0,0,1,11.2-1.4,12.4l-30.3-0.1c0,0,0-3.5,4.9-4.3s13.4-3.6,14.9-10
						C794.3,778.5,804.8,786.8,804.8,786.8z"/>
					<path class="st8" d="M779.3,628.7c0,0,1.6,19.6,3.5,43.2c2.6,32,5.6,71.4,5.9,78.9c0.5,12.9,2.6,33.7,2.6,33.7s5,4.9,15,2.8
						c0,0,8.9-29.6,11.5-60.9c0-0.5,0.1-1,0.1-1.5c2.4-31.8,6-98.9,6-98.9L779.3,628.7z"/>
					<path class="st4" d="M779.3,628.7c0,0,1.6,19.6,3.5,43.2l35,54.5c0-0.5,0.1-1,0.1-1.5c2.4-31.8,6-98.9,6-98.9L779.3,628.7z"/>
					<path class="st8" d="M786.6,631c0,0,28.8,71.1,47.7,104.5s24.9,42.7,24.9,42.7s10.8-4.3,11.8-7.2c0,0-7.2-64.5-19.9-80.2
						c-7.2-8.9-15.6-35.5-16-44.9c-0.4-9.3-2.6-27.8-2.6-27.8L786.6,631z"/>
				</g>
				<path class="st10" d="M824.4,521.5c0,0-19.5,9.4-30.7,5.9c0,0,2.8-3.5,7.6-6.1c-0.4-2.3-0.7-4.2-0.9-5.9c-0.5-3.8-0.5-6-0.5-6
					l7.5-5.9l7.1-5.7C814.1,513.8,824.4,521.5,824.4,521.5z"/>
				<path class="st12" d="M778,630.3c0.3,0.3,0.7,0.5,1.2,0.5c4.2-0.1,16.5,2.3,27,1.2c8.8-0.9,16.6-3.4,24.9-7.1
					c1.1-0.5,3.7-1.9,3.6-3.1c0-1.4-0.2-3.3-0.3-5.7c-0.3-4.9-0.8-11.8-1-19.9c-0.1-6.1-0.1-12.8,0.4-20c0-0.5,0.1-1,0.1-1.5
					c0.1-2.6,0.2-5.3,0.2-7.9c0-8.3-0.6-16.3-1.8-23.4c-2.1-12.3-6.1-22-12-26.3c-0.8-0.6-5.6,1.7-10.1,3.9c-4.1,2-8.2,2.2-12.1,1.4
					l-3.9,3.4c-4.7,4.3-9.9,10.2-12.2,19.1c-1.9,7.6-3,21.3-3.6,35.5c-0.3,6.5-0.5,12.9-0.6,19.1v0.2c0,0.6,0,1.3,0,1.9
					C777.5,617.5,777.7,630.1,778,630.3z"/>
				<path class="st13" d="M814.8,503.9c0,0-4.9,9-14.3,11.5c-0.5-3.8-0.5-6-0.5-6l7.5-5.9L814.8,503.9z"/>
				<path class="st10" d="M796.6,509.2c0,0,18.6,3,20.3-8.4s5.3-18.7-6.5-21.2c-11.8-2.4-14.8,1.6-16.3,5.3
					C792.6,488.6,791.8,508.1,796.6,509.2z"/>
				<path class="st14" d="M823.6,478.3c0.2-0.2,0.6-0.3,1.4-0.4c0,0-0.7-0.4-1.6-0.5c-0.2-1.2-0.8-3.3-2.9-3.9c0,0,1.1,0.6,1.3,1.9
					c-2.4-2.5-7.5-4.3-21.8-3.1c-18.8,1.5-12.6,13.5-10.2,14.9c2.4,1.4,8.5-2.5,13.1-2.1c4.5,0.4,5.4,6.9,6.9,7.8s0.9-0.7,3-1.6
					s2.3,2.5,1.7,4.7s2.3,5.2,2.3,5.2s0,0,2.9-3.1s5.6-16.3,4.3-19.1C823.9,478.8,823.8,478.5,823.6,478.3z"/>
				<path class="st10" d="M730,536c0,0,0.6-2.5-1.1-3.7c-1.8-1.1-3.4-4.2-4.1-3.8c-1.5,0.9,0.8,3.6,0.4,6.9
					C725,536.6,727.7,539.7,730,536z"/>
				<path class="st11" d="M833.4,596.1c-0.1-6.1-0.1-12.8,0.4-20c0-0.5,0.1-1,0.1-1.5c-1.8-8.8-4.4-16.5-8.4-16.8
					C825.5,557.9,813.7,576.3,833.4,596.1z"/>
				<path class="st10" d="M848.9,627.9c0,0-1,9.5-2,11.3c-1.1,1.8-5.6,7.5-7.6,8.7c-1.9,1.1,1.2-7.6,0.8-9.3s-1.6,3.1-2.5,3.2
					c-0.9,0.1-0.6-4.2-0.7-5.8c0-1.6,4.2-5.4,5.6-8.8S848.9,627.9,848.9,627.9z"/>
				<path class="st12" d="M820.3,517c0,0,11.8,5.6,17.4,14.1c8.7,13.3,18.9,61.7,19.1,66.2c0.2,4.5-7.4,36.1-7.4,36.1
					s-7.7-0.5-9.7-4.4c0,0,1.5-32.5,0.6-34.6c-1-2.1-32.1-43.6-28.6-52.5C815.1,533.1,820.3,517,820.3,517z"/>
				<polygon class="st9" points="688,532.5 688.6,538 681.9,536.5 				"/>
			</g>
			<path class="st3" d="M942.5,799h-33.9c-1.8-1.5,1.3-5,4.5-5.3c1.4-0.1,3.2,0.2,5.2,0.6c0.5-6.2,3.1-34,13.2-32.9
				c11.3,1.3,0,12.3-3.2,18.8c-2.4,4.8-4.9,11.8-6,15c0.9,0.2,1.9,0.4,2.8,0.6c1.5-4.6,7.1-20,14.1-19.1c8.3,1.1,5,7.2-0.9,10.9
				c-4.3,2.7-9.6,6.5-12.1,8.4c2.1,0.3,4.4,0.6,6.6,0.5C938.5,796.4,941.4,798.1,942.5,799z"/>
			<path class="st3" d="M168.8,797.4c-1.8-2.8-7.2-10.1-14.4-9.2c-7.8,1.1,8.7,6.2,13.7,9.2c-1.1,0-2.1-0.1-2.8-0.3
				c-3.4-1.2-9.2,1.1-11,1.9h32.2c-0.2-0.8-0.8-2-2.3-2.9c-0.5-0.3-1.6-0.4-3-0.3c1.9-2.3,3.2-9.5-2.1-7.6c-3.9,1.4-3.9,5.8-3.5,8.4
				c-0.8,0.1-1.7,0.3-2.5,0.4c-1.6-8.2-7.3-32.1-18.7-32.7c-11.6-0.6,9.9,24.8,17,32.9C170.5,797.3,169.6,797.4,168.8,797.4z"/>
			<path class="st15" d="M1048.9,801.4H42.5c-0.7,0-1.3-0.6-1.3-1.3l0,0c0-0.7,0.6-1.3,1.3-1.3h1006.4c0.7,0,1.3,0.6,1.3,1.3l0,0
				C1050.3,800.8,1049.7,801.4,1048.9,801.4z"/>
		</g>
	</g>
</g>
</svg>
