<?xml version="1.0" encoding="utf-8"?>
<!-- Generator: Adobe Illustrator 24.1.3, SVG Export Plug-In . SVG Version: 6.00 Build 0)  -->
<svg version="1.1" id="Layer_1" xmlns="http://www.w3.org/2000/svg" xmlns:xlink="http://www.w3.org/1999/xlink" x="0px" y="0px"
	 viewBox="0 0 1080 1080" style="enable-background:new 0 0 1080 1080;" xml:space="preserve">
<style type="text/css">
	.st0{fill:#FAFBFB;}
	.st1{fill:#EBEBEB;}
	.st2{fill:#58C2B1;}
	.st3{opacity:0.15;enable-background:new    ;}
	.st4{fill:#FFFFFF;}
	.st5{fill:#F1F0F0;}
	.st6{fill:#F5F5F5;}
	.st7{fill:#E0E0E0;}
	.st8{fill:#E6E6E6;}
	.st9{fill:#263238;}
	.st10{fill:#455B64;}
	.st11{fill:#37474F;}
	.st12{fill:#F7A7A8;}
	.st13{opacity:0.1;enable-background:new    ;}
	.st14{fill:#F3908F;}
	.st15{opacity:5.000000e-02;}
</style>
<g id="galary2">
	<ellipse id="floor" class="st0" cx="540" cy="727.4" rx="366.8" ry="160.4"/>
	<ellipse id="Shadow_2_" class="st1" cx="779.7" cy="727.4" rx="78.6" ry="37.5"/>
	<g id="Plants_12_">
		<g id="XMLID_16097_">
			<g id="XMLID_16039_">
				<path id="XMLID_16041_" class="st2" d="M291.7,686.3c0,0,1.5-30.6-13.7-52.3c-15.2-21.6-34.4-22.1-42.1-19
					c-7.7,3.1-13.6,13.3-1.6,22.1c11.9,8.8,37.4,26.5,40.6,40.6L291.7,686.3z"/>
				<path id="XMLID_65_" class="st3" d="M291.7,686.3c0,0,1.5-30.6-13.7-52.3c-15.2-21.6-34.4-22.1-42.1-19
					c-7.7,3.1-13.6,13.3-1.6,22.1c11.9,8.8,37.4,26.5,40.6,40.6L291.7,686.3z"/>
				<g id="XMLID_16040_">
					<path class="st4" d="M286.1,680.2c-0.4,0-0.7-0.3-0.8-0.6c-8.5-41.8-33.2-53.5-43.5-56.6c-0.4-0.1-0.7-0.6-0.5-1
						c0.1-0.4,0.6-0.7,1-0.5c10.5,3.2,35.9,15.2,44.6,57.8c0.1,0.4-0.2,0.9-0.6,0.9C286.2,680.2,286.2,680.2,286.1,680.2z"/>
				</g>
			</g>
			<g id="XMLID_16035_">
				<path id="XMLID_16038_" class="st2" d="M277.4,668.6c-3.4-10.1-7.8-14.9-21.9-13.9c-14.1,1.1-12,0.9-28.7-5s-29.1,0-30.9,6.5
					c-2,7,11.6,11.4,21.6,17s16.5,12.1,13.2,21.2c-2.8,7.8-2.1,14.7,10,18.7c10.7,3.6,23-1.7,26.6,9.2c2,6.2,11.7,13.7,21.6,9
					c17.8-14.9,15-35.3,5.7-49.4C290.6,675.7,279.5,674.7,277.4,668.6z"/>
				<g id="XMLID_16037_">
					<path class="st4" d="M287.3,713.8c-0.3,0-0.6-0.2-0.8-0.5c-10.5-29.9-59.9-55.8-77.9-58.7c-0.4-0.1-0.7-0.5-0.7-0.9
						c0.1-0.4,0.5-0.7,0.9-0.7c18.3,3,68.5,29.3,79.1,59.8c0.1,0.4-0.1,0.9-0.5,1C287.5,713.8,287.4,713.8,287.3,713.8z"/>
				</g>
				<g id="XMLID_16036_">
					<path class="st4" d="M243.1,697.5c-0.2,0-0.5-0.1-0.6-0.3c-0.3-0.3-0.2-0.9,0.1-1.1c0.4-0.3,11.1-8.4,27.2-8.8
						c0.4,0,0.8,0.3,0.8,0.8c0,0.4-0.3,0.8-0.8,0.8c-15.6,0.4-26.2,8.4-26.3,8.5C243.4,697.5,243.2,697.5,243.1,697.5z"/>
				</g>
			</g>
		</g>
	</g>
	<g id="Photo_3_">
		<g id="XMLID_45_">
			<g id="XMLID_49_">
				<polygon id="XMLID_64_" class="st5" points="595.5,254.9 595.5,545.9 299.9,716.5 306.6,730.2 595.5,563.4 608.4,564.6 
					608.4,256.2 				"/>
				<g id="XMLID_60_">
					<path id="XMLID_63_" class="st5" d="M536.1,415.1l2.4-3.4l-15.3-8.8l0,0l-0.1-0.1l0,0c-2.3-1.3-5.3-0.7-6.8,1.7l-42.1,64.8
						l-43.6-37.8l1.8-2.7l-15.1-8.7l0,0c-2.3-1.4-5.4-0.8-6.9,1.5L300,587.5v118.7l15.2,8.8L588,548.7V465L536.1,415.1z"/>
					<path id="XMLID_62_" class="st0" d="M315.1,714.9V596.2l110.5-165.8c1.7-2.6,5.3-3,7.6-1l56.2,48.7l42.1-64.8
						c1.7-2.7,5.5-3.1,7.8-0.9l63.7,61.3v70c0,3.1-1.7,6-4.3,7.5L315.1,714.9z"/>
					<polygon id="XMLID_61_" class="st5" points="489.4,478.1 512.2,497.8 492.3,473.7 					"/>
				</g>
				<g id="XMLID_50_">
					<path id="XMLID_56_" class="st4" d="M618.2,250.2c0-0.2-0.1-0.4-0.1-0.5c-0.4-2.3-2-4.7-3.9-5.8l-7.1-4.1
						c-2.2-1.3-5.8-1.3-8.1,0L288.8,418.9c-1.1,0.7-2.1,1.8-2.9,3c-0.7,1.3-1.2,2.7-1.2,4v305.7c0,2.6,1.8,5.7,4,7l7.1,4.1
						c1.9,1.1,4.9,1.3,7.1,0.4c0.1,0,0.2-0.1,0.3-0.1c0.2-0.1,0.4-0.2,0.7-0.3l89.8-51.8l220.5-127.3c2.2-1.3,4-4.4,4-7V250.8
						C618.2,250.6,618.2,250.4,618.2,250.2z M608.4,551.2c0,2.6-1.8,5.7-4,7l-213,122.4l-79.8,46.7c-2.2,1.3-4,0.2-4-2.3V439
						c0-1.3,0.4-2.7,1.2-4s1.7-2.4,2.9-3l292.8-169.1c2.2-1.3,4-0.3,4,2.3L608.4,551.2L608.4,551.2z"/>
					<path id="XMLID_55_" class="st5" d="M304,742.7c-0.2,0.1-0.4,0.2-0.7,0.3c-0.1,0-0.2,0.1-0.3,0.1c-2.2,0.8-5.2,0.7-7.1-0.4
						l-7.1-4.1c-2.2-1.3-4-4.4-4-7V425.9c0-1.3,0.4-2.7,1.2-4c4.4,2.6,9.6,5.5,15.1,8.8c2.5,1.4,5,2.9,7.6,4.4
						c-0.7,1.3-1.2,2.7-1.2,4v286c0,2.6,1.8,3.6,4,2.3L304,742.7z"/>
					<path id="XMLID_51_" class="st0" d="M618.2,250.2c0-0.2-0.1-0.4-0.1-0.5c-0.5-1.7-2.1-2.3-3.9-1.2L304,427.6
						c-1.1,0.6-2.1,1.8-2.9,3c-0.7,1.3-1.2,2.7-1.2,4v305.7c0,2.2,1.3,3.3,3.1,2.8c0.1,0,0.2-0.1,0.3-0.1c0.2-0.1,0.4-0.2,0.7-0.3
						l310.2-179.1c2.2-1.3,4-4.4,4-7V250.8C618.2,250.6,618.2,250.4,618.2,250.2z M608.4,551.2c0,2.6-1.8,5.7-4,7L311.6,727.3
						c-2.2,1.3-4,0.2-4-2.3V439c0-1.3,0.4-2.7,1.2-4s1.7-2.4,2.9-3l292.8-169.1c2.2-1.3,4-0.3,4,2.3L608.4,551.2L608.4,551.2z"/>
				</g>
			</g>
			<g id="XMLID_46_">
				<path id="XMLID_48_" class="st5" d="M564.1,341.2l7.7-13l-13.1-7.6l0,0l0,0l0,0c-3.8-2.2-9.1-1.9-15,1.5
					c-11.7,6.8-21.2,23.2-21.2,36.8c0,6.7,2.3,11.4,6.1,13.6l0,0l0.1,0.1h0.1l12.6,7.3l7.3-12.4C556.1,361.1,562.1,351,564.1,341.2z
					"/>
				
					<ellipse id="XMLID_47_" transform="matrix(0.5 -0.866 0.866 0.5 -28.4126 658.9763)" class="st0" cx="556.5" cy="354.1" rx="30" ry="17.3"/>
			</g>
		</g>
	</g>
	<g id="Photo_2_">
		<g id="XMLID_9_">
			<g id="XMLID_29_">
				<polygon id="XMLID_44_" class="st1" points="632.3,275.7 632.3,566.7 336.7,737.3 343.4,751 632.3,584.2 645.2,585.4 645.2,277 
									"/>
				<g id="XMLID_40_">
					<path id="XMLID_43_" class="st1" d="M572.9,435.9l2.4-3.4l-15.3-8.8l0,0l-0.1-0.1l0,0c-2.3-1.3-5.3-0.7-6.8,1.7L511,490.1
						l-43.6-37.8l1.8-2.7l-15.1-8.7l0,0c-2.3-1.4-5.4-0.8-6.9,1.5L336.7,608.3V727l15.2,8.8l272.8-166.3v-83.7L572.9,435.9z"/>
					<path id="XMLID_42_" class="st6" d="M351.9,735.7V617l110.5-165.8c1.7-2.6,5.3-3,7.6-1l56.2,48.7l42.1-64.8
						c1.7-2.7,5.5-3.1,7.8-0.9l63.7,61.3v70c0,3.1-1.7,6-4.3,7.5L351.9,735.7z"/>
					<polygon id="XMLID_41_" class="st1" points="526.2,498.9 548.9,518.6 529,494.5 					"/>
				</g>
				<g id="XMLID_30_">
					<path id="XMLID_36_" class="st0" d="M655,271c0-0.2-0.1-0.4-0.1-0.5c-0.4-2.3-2-4.7-3.9-5.8l-7.1-4.1c-2.2-1.3-5.8-1.3-8.1,0
						l-310.2,179c-1.1,0.7-2.1,1.8-2.9,3c-0.7,1.3-1.2,2.7-1.2,4v305.7c0,2.6,1.8,5.7,4,7l7.1,4.1c1.9,1.1,4.9,1.3,7.1,0.4
						c0.1,0,0.2-0.1,0.3-0.1c0.2-0.1,0.4-0.2,0.7-0.3l89.8-51.8L651,584.3c2.2-1.3,4-4.4,4-7V271.6C655,271.4,655,271.2,655,271z
						 M645.2,572c0,2.6-1.8,5.7-4,7l-213,122.4l-79.8,46.7c-2.2,1.3-4,0.2-4-2.3v-286c0-1.3,0.4-2.7,1.2-4s1.7-2.4,2.9-3
						l292.8-169.1c2.2-1.3,4-0.3,4,2.3v286H645.2z"/>
					<path id="XMLID_35_" class="st5" d="M340.8,763.4c-0.2,0.1-0.4,0.2-0.7,0.3c-0.1,0-0.2,0.1-0.3,0.1c-2.2,0.8-5.2,0.7-7.1-0.4
						l-7.1-4.1c-2.2-1.3-4-4.4-4-7V446.6c0-1.3,0.4-2.7,1.2-4c4.4,2.6,9.6,5.5,15.1,8.8c2.5,1.4,5,2.9,7.6,4.4
						c-0.7,1.3-1.2,2.7-1.2,4v286c0,2.6,1.8,3.6,4,2.3L340.8,763.4z"/>
					<path id="XMLID_31_" class="st6" d="M655,271c0-0.2-0.1-0.4-0.1-0.5c-0.5-1.7-2.1-2.3-3.9-1.2L340.8,448.4
						c-1.1,0.6-2.1,1.8-2.9,3c-0.7,1.3-1.2,2.7-1.2,4v305.7c0,2.2,1.3,3.3,3.1,2.8c0.1,0,0.2-0.1,0.3-0.1c0.2-0.1,0.4-0.2,0.7-0.3
						L651,584.3c2.2-1.3,4-4.4,4-7V271.6C655,271.4,655,271.2,655,271z M645.2,572c0,2.6-1.8,5.7-4,7L348.3,748.1
						c-2.2,1.3-4,0.2-4-2.3v-286c0-1.3,0.4-2.7,1.2-4s1.7-2.4,2.9-3l292.8-169.1c2.2-1.3,4-0.3,4,2.3L645.2,572L645.2,572z"/>
				</g>
			</g>
			<g id="XMLID_24_">
				<path id="XMLID_28_" class="st1" d="M600.8,362l7.7-13l-13.1-7.6l0,0l0,0l0,0c-3.8-2.2-9.1-1.9-15,1.5
					c-11.7,6.8-21.2,23.2-21.2,36.8c0,6.7,2.3,11.4,6.1,13.6l0,0l0.1,0.1h0.1l12.6,7.3l7.3-12.4C592.9,381.9,598.8,371.8,600.8,362z
					"/>
				
					<ellipse id="XMLID_27_" transform="matrix(0.5 -0.866 0.866 0.5 -28.0902 701.2239)" class="st6" cx="593.2" cy="374.9" rx="30" ry="17.3"/>
			</g>
		</g>
	</g>
	<g id="Photo_1_">
		<g id="XMLID_4_">
			<g id="XMLID_7_">
				<polygon id="XMLID_26_" class="st7" points="669,296.5 669,587.5 373.5,758.1 380.1,771.8 669,605 682,606.2 682,297.7 				"/>
				<g id="XMLID_21_">
					<path id="XMLID_25_" class="st8" d="M609.6,456.7l2.4-3.4l-15.3-8.8l0,0l-0.1-0.1l0,0c-2.3-1.3-5.3-0.7-6.8,1.7l-42.1,64.8
						l-43.6-37.8l1.8-2.7l-15.1-8.7l0,0c-2.3-1.4-5.4-0.8-6.9,1.5L373.5,629v118.7l15.2,8.8l272.8-166.3v-83.7L609.6,456.7z"/>
					<path id="XMLID_23_" class="st1" d="M388.6,756.5V637.8L499.1,472c1.7-2.6,5.3-3,7.6-1l56.2,48.7l42.1-64.8
						c1.7-2.7,5.5-3.1,7.8-0.9l63.7,61.3v70c0,3.1-1.7,6-4.3,7.5L388.6,756.5z"/>
					<polygon id="XMLID_22_" class="st8" points="562.9,519.6 585.7,539.3 565.8,515.3 					"/>
				</g>
				<g id="XMLID_11_">
					<path id="XMLID_17_" class="st5" d="M691.7,291.8c0-0.2-0.1-0.4-0.1-0.5c-0.4-2.3-2-4.7-3.9-5.8l-7.1-4.1
						c-2.2-1.3-5.8-1.3-8.1,0l-310.1,179c-1.1,0.7-2.1,1.8-2.9,3c-0.7,1.3-1.2,2.7-1.2,4v305.7c0,2.6,1.8,5.7,4,7l7.1,4.1
						c1.9,1.1,4.9,1.3,7.1,0.4c0.1,0,0.2-0.1,0.3-0.1c0.2-0.1,0.4-0.2,0.7-0.3l89.8-51.8l220.5-127.3c2.2-1.3,4-4.4,4-7V292.4
						C691.8,292.2,691.8,292,691.7,291.8z M682,592.7c0,2.6-1.8,5.7-4,7L465,722.1l-79.8,46.7c-2.2,1.3-4,0.2-4-2.3v-286
						c0-1.3,0.4-2.7,1.2-4c0.7-1.3,1.7-2.4,2.9-3l292.8-169.1c2.2-1.3,4-0.3,4,2.3L682,592.7L682,592.7z"/>
					<path id="XMLID_16_" class="st7" d="M377.5,784.2c-0.2,0.1-0.4,0.2-0.7,0.3c-0.1,0-0.2,0.1-0.3,0.1c-2.2,0.8-5.2,0.7-7.1-0.4
						l-7.1-4.1c-2.2-1.3-4-4.4-4-7V467.4c0-1.3,0.4-2.7,1.2-4c4.4,2.6,9.6,5.5,15.1,8.8c2.5,1.4,5,2.9,7.6,4.4
						c-0.7,1.3-1.2,2.7-1.2,4v286c0,2.6,1.8,3.6,4,2.3L377.5,784.2z"/>
					<path id="XMLID_12_" class="st1" d="M691.7,291.8c0-0.2-0.1-0.4-0.1-0.5c-0.5-1.7-2.1-2.3-3.9-1.2L377.5,469.2
						c-1.1,0.6-2.1,1.8-2.9,3c-0.7,1.3-1.2,2.7-1.2,4v305.7c0,2.2,1.3,3.3,3.1,2.8c0.1,0,0.2-0.1,0.3-0.1c0.2-0.1,0.4-0.2,0.7-0.3
						l310.2-179.1c2.2-1.3,4-4.4,4-7V292.4C691.8,292.2,691.8,292,691.7,291.8z M682,592.7c0,2.6-1.8,5.7-4,7L385.1,768.8
						c-2.2,1.3-4,0.2-4-2.3v-286c0-1.3,0.4-2.7,1.2-4c0.7-1.3,1.7-2.4,2.9-3L678,304.4c2.2-1.3,4-0.3,4,2.3V592.7z"/>
				</g>
			</g>
			<g id="XMLID_5_">
				<path id="XMLID_8_" class="st8" d="M637.6,382.8l7.7-13l-13.1-7.6l0,0l0,0l0,0c-3.8-2.2-9.1-1.9-15,1.5
					c-11.7,6.8-21.2,23.2-21.2,36.8c0,6.7,2.3,11.4,6.1,13.6l0,0l0.1,0.1h0.1l12.6,7.3l7.3-12.4
					C629.6,402.7,635.6,392.6,637.6,382.8z"/>
				
					<ellipse id="XMLID_6_" transform="matrix(0.5 -0.866 0.866 0.5 -27.6679 743.3715)" class="st1" cx="630" cy="395.6" rx="30" ry="17.3"/>
			</g>
		</g>
	</g>
	<g>
		<g id="Photo">
			<g id="XMLID_766_">
				<g id="XMLID_16066_">
					<polygon id="XMLID_3097_" class="st9" points="707.4,318.9 707.4,609.8 411.8,780.5 418.5,794.1 707.4,627.3 720.3,628.5 
						720.3,320.1 					"/>
					<g id="XMLID_3197_">
						<path id="XMLID_3201_" class="st2" d="M648,479l2.4-3.4l-15.3-8.8l0,0l-0.1-0.1l0,0c-2.3-1.3-5.3-0.7-6.8,1.7l-42.1,64.8
							l-43.6-37.8l1.8-2.7l-15.1-8.7l0,0c-2.3-1.4-5.4-0.8-6.9,1.5L411.8,651.4v118.7l15.2,8.8l272.8-166.3v-83.7L648,479z"/>
						<path id="XMLID_3198_" class="st3" d="M648,479l2.4-3.4l-15.3-8.8l0,0l-0.1-0.1l0,0c-2.3-1.3-5.3-0.7-6.8,1.7l-42.1,64.8
							l-43.6-37.8l1.8-2.7l-15.1-8.7l0,0c-2.3-1.4-5.4-0.8-6.9,1.5L411.8,651.4v118.7l15.2,8.8l272.8-166.3v-83.7L648,479z"/>
						<path id="XMLID_3095_" class="st2" d="M427,778.9V660.2l110.5-165.8c1.7-2.6,5.3-3,7.6-1l56.2,48.7l42.1-64.8
							c1.7-2.7,5.5-3.1,7.8-0.9l63.7,61.3v70c0,3.1-1.7,6-4.3,7.5L427,778.9z"/>
						<polygon id="XMLID_3200_" class="st3" points="601.3,542 624,561.7 604.1,537.7 						"/>
					</g>
					<g id="XMLID_16068_">
						<path id="XMLID_16098_" class="st10" d="M730.1,314.1c0-0.2-0.1-0.4-0.1-0.5c-0.4-2.3-2-4.7-3.9-5.8l-7.1-4.1
							c-2.2-1.3-5.8-1.3-8.1,0L400.7,482.8c-1.1,0.7-2.1,1.8-2.9,3c-0.7,1.3-1.2,2.7-1.2,4v305.7c0,2.6,1.8,5.7,4,7l7.1,4.1
							c1.9,1.1,4.9,1.3,7.1,0.4c0.1,0,0.2-0.1,0.3-0.1c0.2-0.1,0.4-0.2,0.7-0.3l89.8-51.8l220.5-127.3c2.2-1.3,4-4.4,4-7V314.8
							C730.1,314.6,730.1,314.3,730.1,314.1z M720.3,615.1c0,2.6-1.8,5.7-4,7l-213,122.4l-79.8,46.7c-2.2,1.3-4,0.2-4-2.3v-286
							c0-1.3,0.4-2.7,1.2-4s1.7-2.4,2.9-3l292.8-169.1c2.2-1.3,4-0.3,4,2.3v286H720.3z"/>
						<path id="XMLID_16083_" class="st9" d="M415.9,806.6c-0.2,0.1-0.4,0.2-0.7,0.3c-0.1,0-0.2,0.1-0.3,0.1
							c-2.2,0.8-5.2,0.7-7.1-0.4l-7.1-4.1c-2.2-1.3-4-4.4-4-7V489.8c0-1.3,0.4-2.7,1.2-4c4.4,2.6,9.6,5.5,15.1,8.8
							c2.5,1.4,5,2.9,7.6,4.4c-0.7,1.3-1.2,2.7-1.2,4v286c0,2.6,1.8,3.6,4,2.3L415.9,806.6z"/>
						<path id="XMLID_16091_" class="st11" d="M730.1,314.1c0-0.2-0.1-0.4-0.1-0.5c-0.5-1.7-2.1-2.3-3.9-1.2L415.9,491.6
							c-1.1,0.6-2.1,1.8-2.9,3c-0.7,1.3-1.2,2.7-1.2,4v305.7c0,2.2,1.3,3.3,3.1,2.8c0.1,0,0.2-0.1,0.3-0.1c0.2-0.1,0.4-0.2,0.7-0.3
							l310.2-179.1c2.2-1.3,4-4.4,4-7V314.8C730.1,314.6,730.1,314.3,730.1,314.1z M720.3,615.1c0,2.6-1.8,5.7-4,7L423.5,791.2
							c-2.2,1.3-4,0.2-4-2.3v-286c0-1.3,0.4-2.7,1.2-4s1.7-2.4,2.9-3l292.8-169.1c2.2-1.3,4-0.3,4,2.3v286H720.3z"/>
					</g>
				</g>
				<g id="XMLID_924_">
					<g id="XMLID_909_">
						<path id="XMLID_3_" class="st2" d="M676,405.2l7.7-13l-13.1-7.6l0,0l0,0l0,0c-3.8-2.2-9.1-1.9-15,1.5
							c-11.7,6.8-21.2,23.2-21.2,36.8c0,6.7,2.3,11.4,6.1,13.6l0,0l0.1,0.1h0.1l12.6,7.3l7.3-12.4C668,425.1,673.9,414.9,676,405.2z
							"/>
						<path id="XMLID_1_" class="st3" d="M676,405.2l7.7-13l-13.1-7.6l0,0l0,0l0,0c-3.8-2.2-9.1-1.9-15,1.5
							c-11.7,6.8-21.2,23.2-21.2,36.8c0,6.7,2.3,11.4,6.1,13.6l0,0l0.1,0.1h0.1l12.6,7.3l7.3-12.4C668,425.1,673.9,414.9,676,405.2z
							"/>
					</g>
					
						<ellipse id="XMLID_3199_" transform="matrix(0.5 -0.866 0.866 0.5 -27.8289 787.8041)" class="st2" cx="668.4" cy="418" rx="30" ry="17.3"/>
				</g>
			</g>
		</g>
		<g id="Character_9_">
			<g id="XMLID_3105_">
				<g id="XMLID_3278_">
					<path id="XMLID_3280_" class="st12" d="M744.2,451.7l-1.4,4.5l-12.7-27.7v36.3c0,0,9.1,18.2,13.5,18.2c1,0,5.2,2.3,14.7-23.5
						L744.2,451.7z"/>
					<path id="XMLID_3277_" class="st2" d="M761,458.7c-10,0.8-18.1-5.2-18.1-5.2s3.6-15.7,8.6-28.7c5.7-14.7,12.2-17,22.4-16.8
						L761,458.7z"/>
					<path id="XMLID_3276_" class="st13" d="M761.6,458.6c-10,0.8-18.8-5.2-18.8-5.2s3.6-15.7,8.6-28.7c5.7-14.7,12.2-17,22.4-16.8
						L761.6,458.6z"/>
				</g>
				<rect id="XMLID_3214_" x="805.5" y="701" class="st12" width="14" height="24"/>
				<polygon id="XMLID_3213_" class="st12" points="770.9,699.7 756.8,700.2 756.1,674.8 770.9,674.3 				"/>
				<path id="XMLID_3212_" class="st11" d="M819.4,514.4c0,13.4-2.4,91.3-2.4,91.3c0.3,3.9,4,10.7,4.3,24.6
					c0.4,20.1-1.3,82.7-1.3,82.7s-6.8,4-15.6,0.3c0,0-12.4-82.3-14.9-102.2c-2.2-17.4-5.9-64.6-5.9-64.6l-7.6,56.8
					c0,0,2.6,10.4,1.7,22.3c-0.7,9.2-6.1,66.3-6.1,66.3s-6.6,4.5-16.2,1.2c0,0-7.1-81.4-7.3-89.8c-0.2-9.6,4.7-108.1,4.7-108.1
					L819.4,514.4z"/>
				<path id="XMLID_3211_" class="st2" d="M813.7,417.4c0,0,5.4,4.9,5.4,17.6v27.5l0.4,51.9c-20.1,10.6-45.7,11.3-67.2-4.4
					c0,0,1.2-66.8,1.2-77.7c0-0.5,0-0.9,0-1.4c0.7-15.7,16.1-26.5,31.3-22.5l12.7,3.3l12.8,4.2L813.7,417.4z"/>
				<g id="XMLID_3110_">
					<g id="XMLID_3203_">
						<circle id="XMLID_3210_" class="st9" cx="774.2" cy="364.7" r="19.3"/>
						<path id="XMLID_3209_" class="st9" d="M807.5,378.4c0,0-3.1,14.7-4.4,17.1c-1.3,2.4-3.8,3.1-3.8,3.1l0.2-10.3L807.5,378.4z"/>
						<path id="XMLID_3208_" class="st9" d="M803.6,357.4c0,0,3.4-0.6,6,2.1c2.6,2.6,1.1,10.9-2.1,18.9l-5.9,0.7L803.6,357.4z"/>
						<path id="XMLID_3207_" class="st12" d="M799.9,379.1c1.2,0.7,2.9-1.6,4.3-3.1c1.5-1.5,6.2-3.6,8.6,1.4
							c2.4,5.1-2.1,11.8-5.8,13c-6.4,2-7.4-2.1-7.4-2.1l-0.5,24l0,0c-8,10.3-30.2,9.4-21-1.3v-7.1c0,0-5.8,0.9-8.7,0.4
							c-4.7-0.7-7.7-4.5-9.2-9.6c-2.3-8.2-3.2-14.9-1.2-31.1c2.1-17.8,22.8-17.9,34-10.9C804.1,359.7,799.9,379.1,799.9,379.1z"/>
						<path id="XMLID_3206_" class="st9" d="M799.9,381.1c0.6,0,2.8-3.7,4.3-5.1c2-1.9-0.6-18.6-0.6-18.6s2-4.2-2-8.5
							c-2.8-3.1-7.4-3.4-15.4-4.7c-4.2-0.7-10.5-1.8-14.7-2.6c-5-0.9-9.1-1.9-12.6,1.1c-2.7,2.4-3.9,6.6-2.4,9.9
							c0.3,0.8,0.8,1.5,1.4,2.1c1,1.1,2.1,2,3.6,2.5c0,0,2.2,1.9,9.7,2.8s19.3-0.2,20.9-0.4c2.2-0.3,2.7,1.8,3.8,7.6
							C797,372.4,797.9,381,799.9,381.1z"/>
						<path id="XMLID_3205_" class="st9" d="M803.6,358.7l7.1-3.8c-1-2-3.4-2.8-5.4-1.8C803.4,354.1,802.6,356.7,803.6,358.7z"/>
						<path id="XMLID_3204_" class="st14" d="M778.1,403.8c0,0,10.6-2.1,14.3-4.1c2.5-1.3,4.5-3.6,5.1-5.1c0,0-0.7,3.1-2.9,6
							c-2.7,3.5-16.5,6-16.5,6L778.1,403.8z"/>
					</g>
					<g id="XMLID_3116_">
						<path id="XMLID_3202_" class="st9" d="M780.6,376.5c0,1.2,0.9,2.2,2.1,2.2c1.2,0,2.1-1,2.1-2.2s-0.9-2.2-2.1-2.2
							C781.6,374.3,780.6,375.2,780.6,376.5z"/>
						<path id="XMLID_3181_" class="st9" d="M782.9,368.5l4.5,2.5c0.7-1.3,0.2-2.9-1.1-3.6C785.1,366.7,783.6,367.1,782.9,368.5z"/>
						<path id="XMLID_3120_" class="st14" d="M779.1,391.1l-4.8,1.8c0.5,1.4,2,2.1,3.3,1.6C778.8,394,779.5,392.5,779.1,391.1z"/>
						<path id="XMLID_3119_" class="st9" d="M761.7,370.2l4.1-3.2c-0.8-1.2-2.5-1.4-3.6-0.6C761.1,367.4,760.9,369,761.7,370.2z"/>
						<path id="XMLID_3118_" class="st9" d="M763,375.9c0,1.2,0.9,2.2,2.1,2.2c1.2,0,2.1-1,2.1-2.2s-0.9-2.2-2.1-2.2
							C764,373.6,763,374.6,763,375.9z"/>
						<polygon id="XMLID_3117_" class="st14" points="773.8,373.8 773.1,386.6 766.5,384.3 						"/>
					</g>
				</g>
				<path id="XMLID_3108_" class="st9" d="M805.5,718.1v-2c-1.3,0.6-4.5,12.5-10,17.6c-4.4,4-10.5,8.7-12,13.2
					c-1.6,4.7,8.4,7.3,12.5,6.5c4.8-0.9,13.1-4.2,15.2-7.4c2.1-3.1,3.1-7.8,4.8-10.1s5.6-4.9,6.5-7.5c0.5-1.5-0.1-4.7-0.8-7.4
					c-0.7-2.5-1.4-5.2-2.2-5c0,0.3,0,1.5,0,1.5c-1,1.1-3.8,2.2-7,2.4C810.4,720,805.4,719.6,805.5,718.1z"/>
				<path id="XMLID_3107_" class="st9" d="M756.7,695.8c-0.7,0-1.3,1.1-2.9,2.8c-1.9,2.1-5.1,4.4-8.3,5.9
					c-5.3,2.6-15.5,6.7-20.1,8.8c-2.9,1.3-2.8,4.8,0.2,6.8s10.2,3.4,18.8,1.5c4.7-1.1,10.8-5.4,14.7-5.2s11.1,0.2,14-1.8
					s1.7-6.2,0.9-9.8c-0.9-4-2-10.1-3.3-9.9v1.4c-1.7,2.6-10.4,3.6-14.1,1.7L756.7,695.8z"/>
				<path id="XMLID_3106_" class="st9" d="M783.7,546.5c0,0-11.2-3.2-19.5-11.2c0,0,3.8,7.1,15,13.6l-2.4,49.5L783.7,546.5z"/>
			</g>
			<g id="XMLID_3096_">
				<g id="XMLID_3102_">
					<g id="XMLID_3103_">
						<path id="XMLID_3104_" class="st12" d="M794.4,503.1c6.4-3.3,8.6-4.5,11.5-12.8c20.8-59.8,13.9-67.7,3.6-71.4l-7.8,15.9
							l-13.9,49.7c-9.2,7.9-28.4,17-38.9,19.3c-1.9,0.4-5.5-0.1-7.3-0.8c-4.6-1.6-6.9-1.3-11.5-2.5v5.3c0,0-5.3-0.1-12.3-1.4
							c-9.5-1.8-12.8,1.4-5.1,10.9c4.4,5.4,13,7.5,25.6,6.1c5.1-0.5,12.8-2.9,19-5C773.5,511,786,507.5,794.4,503.1z"/>
					</g>
				</g>
				<g id="XMLID_3100_">
					<path id="XMLID_3101_" class="st2" d="M810.2,415.8c7.2,2,12.1,8.2,11.2,19.7c-0.7,10.3-4.9,25-7.2,35.4c0,0-13.3,0.2-22.1-6.8
						c2.2-9.2,4.3-18.9,6-27.2C801.3,425.8,806,415.5,810.2,415.8z"/>
				</g>
				<g id="XMLID_3098_" class="st15">
					<path id="XMLID_3099_" d="M810.2,415.8c7.2,2,12.1,8.2,11.2,19.7c-0.7,10.3-4.9,25-7.2,35.4c0,0-13.3,0.2-22.1-6.8
						c2.2-9.2,4.3-18.9,6-27.2C801.3,425.8,806,415.5,810.2,415.8z"/>
				</g>
			</g>
		</g>
	</g>
	<g id="Clouds_2_">
		<path id="XMLID_3290_" class="st6" d="M395.6,262.3l-19.1,11c0.1-0.9,0.2-1.7,0.2-2.5v-5.5c0-9.9-6.9-13.8-15.5-8.9
			c-3.5,2-6.6,5.2-9.2,8.9c-1.4-12.4-11.1-17-22.9-10.2c-12.8,7.4-23.1,25.3-23.1,40v8.3c0,3.8,0.7,7,2,9.6l-15.9,9.2
			c-4.7,2.7-8.6,9.4-8.6,14.8c0,5.5,3.8,7.7,8.6,4.9l103.6-59.8c4.7-2.7,8.6-9.4,8.6-14.8C404.2,261.8,400.4,259.6,395.6,262.3z"/>
	</g>
</g>
</svg>
