<svg xmlns="http://www.w3.org/2000/svg" fill="none" viewBox="0 0 30 30" id="Newsmode--Streamline-Rounded-Material" height="30" width="30">
  <desc>
    Newsmode Streamline Icon: https://streamlinehq.com
  </desc>
  <path fill="#000000" d="M4.375 26.25c-0.5 0 -0.9375 -0.1875 -1.3125 -0.5625 -0.375 -0.375 -0.5625 -0.8125 -0.5625 -1.3125V5.625c0 -0.5 0.1875 -0.9375 0.5625 -1.3125C3.4375 3.9375 3.875 3.75 4.375 3.75h21.25c0.5 0 0.9375 0.1875 1.3125 0.5625 0.375 0.375 0.5625 0.8125 0.5625 1.3125v18.75c0 0.5 -0.1875 0.9375 -0.5625 1.3125 -0.375 0.375 -0.8125 0.5625 -1.3125 0.5625H4.375Zm0 -1.875h21.25V5.625H4.375v18.75Zm4.34375 -3.3125h12.5625c0.265625 0 0.4883125 -0.0904375 0.668125 -0.27125 0.1795625 -0.18062499999999998 0.269375 -0.4045625 0.269375 -0.671875 0 -0.2670625 -0.08981249999999999 -0.4891875 -0.269375 -0.66625 -0.17981250000000001 -0.1770625 -0.4025 -0.265625 -0.668125 -0.265625h-12.5625c-0.265625 0 -0.48825 0.0904375 -0.6678125 0.27125 -0.17981250000000001 0.18062499999999998 -0.26968749999999997 0.4045625 -0.26968749999999997 0.671875 0 0.2670625 0.08987500000000001 0.4891875 0.26968749999999997 0.66625 0.1795625 0.1770625 0.4021875 0.265625 0.6678125 0.265625Zm0 -5.1875h2.96875c0.265625 0 0.4883125 -0.08987500000000001 0.668125 -0.26968749999999997 0.1795625 -0.1795625 0.269375 -0.4021875 0.269375 -0.6678125v-5.0625c0 -0.265625 -0.08981249999999999 -0.4883125 -0.269375 -0.668125 -0.17981250000000001 -0.1795625 -0.4025 -0.269375 -0.668125 -0.269375h-2.96875c-0.265625 0 -0.48825 0.08981249999999999 -0.6678125 0.269375 -0.17981250000000001 0.17981250000000001 -0.26968749999999997 0.4025 -0.26968749999999997 0.668125v5.0625c0 0.265625 0.08987500000000001 0.48825 0.26968749999999997 0.6678125 0.1795625 0.17981250000000001 0.4021875 0.26968749999999997 0.6678125 0.26968749999999997Zm8.09375 0h4.46875c0.265625 0 0.4883125 -0.0904375 0.668125 -0.27125 0.1795625 -0.18062499999999998 0.269375 -0.4045625 0.269375 -0.671875 0 -0.2670625 -0.08981249999999999 -0.4891875 -0.269375 -0.66625 -0.17981250000000001 -0.1770625 -0.4025 -0.265625 -0.668125 -0.265625H16.8125c-0.265625 0 -0.48825 0.0904375 -0.6678125 0.27125 -0.17981250000000001 0.18062499999999998 -0.26968749999999997 0.4045625 -0.26968749999999997 0.671875 0 0.2670625 0.08987500000000001 0.4891875 0.26968749999999997 0.66625 0.1795625 0.1770625 0.4021875 0.265625 0.6678125 0.265625Zm0 -5.0625h4.46875c0.265625 0 0.4883125 -0.0904375 0.668125 -0.27125 0.1795625 -0.18062499999999998 0.269375 -0.4045625 0.269375 -0.671875 0 -0.2670625 -0.08981249999999999 -0.4891875 -0.269375 -0.66625 -0.17981250000000001 -0.1770625 -0.4025 -0.265625 -0.668125 -0.265625H16.8125c-0.265625 0 -0.48825 0.0904375 -0.6678125 0.27125 -0.17981250000000001 0.18062499999999998 -0.26968749999999997 0.4045625 -0.26968749999999997 0.671875 0 0.2670625 0.08987500000000001 0.4891875 0.26968749999999997 0.66625 0.1795625 0.1770625 0.4021875 0.265625 0.6678125 0.265625Z" stroke-width="0.625"></path>
</svg>