<?xml version="1.0" encoding="UTF-8"?>
<svg xmlns="http://www.w3.org/2000/svg" xmlns:xlink="http://www.w3.org/1999/xlink" width="100px" height="32px" viewBox="0 0 99 32" version="1.1">
<g id="surface1">
<path style=" stroke:none;fill-rule:nonzero;fill:rgb(1.176471%,1.568628%,21.568628%);fill-opacity:1;" d="M 92.496094 32 L 6.503906 32 C 2.898438 32 0 29.085938 0 25.457031 L 0 6.542969 C 0 2.914062 2.898438 0 6.503906 0 L 92.496094 0 C 96.101562 0 99 2.914062 99 6.542969 L 99 25.457031 C 99 29.085938 96.101562 32 92.496094 32 Z M 92.496094 32 "/>
<path style=" stroke:none;fill-rule:nonzero;fill:rgb(61.56863%,85.490197%,90.980393%);fill-opacity:1;" d="M 10.253906 20.550781 C 10.75 18.84375 11.242188 17.136719 11.738281 15.429688 C 12.09375 14.292969 12.375 13.226562 12.730469 12.089844 C 12.730469 12.019531 12.800781 11.945312 12.871094 11.875 C 12.871094 11.945312 12.871094 12.019531 12.871094 12.160156 C 12.871094 14.363281 12.871094 16.570312 12.871094 18.773438 C 12.871094 20.335938 13.578125 21.617188 14.992188 22.398438 C 15.558594 22.753906 16.265625 22.898438 16.902344 22.898438 C 19.800781 22.898438 22.628906 22.898438 25.527344 22.898438 C 27.578125 22.898438 29.628906 22.898438 31.679688 22.898438 C 31.75 22.898438 31.890625 22.898438 31.960938 22.898438 C 31.820312 23.464844 31.609375 23.964844 31.46875 24.535156 C 31.328125 25.03125 31.183594 25.457031 31.042969 25.957031 C 30.761719 26.878906 30.125 27.449219 29.203125 27.664062 C 29.132812 27.664062 29.132812 27.664062 29.0625 27.734375 C 28.851562 27.734375 28.640625 27.734375 28.425781 27.734375 C 28.285156 27.664062 28.144531 27.664062 28.003906 27.589844 C 24.183594 26.59375 20.367188 25.527344 16.617188 24.535156 C 15.0625 24.105469 13.4375 23.679688 11.878906 23.253906 C 11.3125 23.109375 10.820312 22.683594 10.535156 22.117188 C 10.394531 21.832031 10.324219 21.546875 10.253906 21.332031 C 10.253906 20.976562 10.253906 20.765625 10.253906 20.550781 Z M 10.253906 20.550781 "/>
<path style=" stroke:none;fill-rule:nonzero;fill:rgb(61.56863%,85.490197%,90.980393%);fill-opacity:1;" d="M 24.890625 4.410156 C 27.507812 4.410156 30.054688 4.410156 32.671875 4.410156 C 34.011719 4.410156 35.003906 5.191406 35.285156 6.472656 C 35.355469 6.683594 35.355469 6.898438 35.355469 7.183594 C 35.355469 11.023438 35.355469 14.792969 35.355469 18.632812 C 35.355469 20.195312 34.226562 21.332031 32.671875 21.332031 C 27.507812 21.332031 22.347656 21.332031 17.113281 21.332031 C 15.558594 21.332031 14.425781 20.195312 14.425781 18.632812 C 14.425781 14.792969 14.425781 10.949219 14.425781 7.183594 C 14.425781 5.617188 15.558594 4.480469 17.113281 4.480469 C 19.730469 4.410156 22.347656 4.410156 24.890625 4.410156 Z M 23.265625 15.359375 C 23.335938 15.289062 23.40625 15.21875 23.476562 15.148438 C 24.679688 13.652344 25.882812 12.230469 27.082031 10.738281 C 27.933594 9.742188 29.203125 9.742188 30.054688 10.738281 C 31.042969 11.875 32.035156 13.011719 33.023438 14.222656 C 33.09375 14.292969 33.164062 14.4375 33.304688 14.507812 C 33.304688 14.363281 33.304688 14.292969 33.304688 14.222656 C 33.304688 11.875 33.304688 9.527344 33.304688 7.183594 C 33.304688 6.683594 33.09375 6.542969 32.671875 6.542969 C 27.507812 6.542969 22.417969 6.542969 17.253906 6.542969 C 16.757812 6.542969 16.617188 6.753906 16.617188 7.183594 C 16.617188 10.382812 16.617188 13.582031 16.617188 16.78125 C 16.617188 16.851562 16.617188 16.925781 16.617188 16.996094 C 16.617188 16.996094 16.6875 16.996094 16.6875 17.066406 C 16.757812 16.996094 16.757812 16.925781 16.828125 16.851562 C 17.679688 16 18.527344 15.148438 19.375 14.292969 C 20.222656 13.441406 21.285156 13.441406 22.203125 14.292969 C 22.558594 14.578125 22.910156 14.933594 23.265625 15.359375 Z M 23.265625 15.359375 "/>
<path style=" stroke:none;fill-rule:nonzero;fill:rgb(61.56863%,85.490197%,90.980393%);fill-opacity:1;" d="M 19.730469 7.539062 C 20.859375 7.539062 21.851562 8.460938 21.851562 9.671875 C 21.851562 10.808594 20.929688 11.804688 19.730469 11.804688 C 18.597656 11.804688 17.609375 10.808594 17.679688 9.671875 C 17.609375 8.535156 18.527344 7.539062 19.730469 7.539062 Z M 19.730469 7.539062 "/>
<path style=" stroke:none;fill-rule:nonzero;fill:rgb(100%,100%,100%);fill-opacity:1;" d="M 41.863281 12.871094 L 39.671875 4.691406 L 40.730469 4.691406 L 42.570312 11.589844 L 42.640625 11.589844 L 44.550781 4.691406 L 45.609375 4.691406 L 47.589844 11.589844 L 47.660156 11.589844 L 49.5 4.691406 L 50.488281 4.691406 L 48.296875 12.871094 L 47.097656 12.871094 L 45.117188 6.257812 L 45.046875 6.257812 L 43.066406 12.871094 Z M 41.863281 12.871094 "/>
<path style=" stroke:none;fill-rule:nonzero;fill:rgb(100%,100%,100%);fill-opacity:1;" d="M 50.703125 12.871094 L 53.742188 4.691406 L 55.015625 4.691406 L 58.054688 12.871094 L 56.996094 12.871094 L 56.21875 10.667969 L 52.539062 10.667969 L 51.691406 12.941406 L 50.703125 12.941406 Z M 52.824219 9.742188 L 55.863281 9.742188 L 54.378906 5.761719 L 54.308594 5.761719 Z M 52.824219 9.742188 "/>
<path style=" stroke:none;fill-rule:nonzero;fill:rgb(100%,100%,100%);fill-opacity:1;" d="M 59.613281 12.871094 L 59.613281 4.691406 L 60.601562 4.691406 L 60.601562 12.019531 L 64.421875 12.019531 L 64.421875 12.941406 L 59.613281 12.941406 Z M 59.613281 12.871094 "/>
<path style=" stroke:none;fill-rule:nonzero;fill:rgb(100%,100%,100%);fill-opacity:1;" d="M 65.976562 12.871094 L 65.976562 4.691406 L 66.964844 4.691406 L 66.964844 12.019531 L 70.785156 12.019531 L 70.785156 12.941406 L 65.976562 12.941406 Z M 65.976562 12.871094 "/>
<path style=" stroke:none;fill-rule:nonzero;fill:rgb(100%,100%,100%);fill-opacity:1;" d="M 78.210938 12.941406 C 77.574219 12.941406 77.078125 12.941406 76.652344 12.871094 C 76.230469 12.800781 75.875 12.65625 75.664062 12.515625 C 75.453125 12.375 75.238281 12.089844 75.167969 11.804688 C 75.027344 11.519531 74.957031 11.09375 74.957031 10.59375 C 74.957031 10.097656 74.886719 9.527344 74.886719 8.816406 C 74.886719 8.105469 74.886719 7.539062 74.957031 7.039062 C 74.957031 6.542969 75.027344 6.117188 75.167969 5.832031 C 75.3125 5.546875 75.453125 5.261719 75.664062 5.121094 C 75.875 4.976562 76.230469 4.835938 76.652344 4.765625 C 77.078125 4.691406 77.574219 4.691406 78.210938 4.691406 C 78.847656 4.691406 79.339844 4.691406 79.765625 4.765625 C 80.191406 4.835938 80.542969 4.976562 80.753906 5.121094 C 80.96875 5.261719 81.179688 5.546875 81.25 5.832031 C 81.390625 6.117188 81.460938 6.542969 81.460938 7.039062 C 81.460938 7.539062 81.535156 8.105469 81.535156 8.816406 C 81.535156 9.527344 81.535156 10.097656 81.460938 10.59375 C 81.460938 11.09375 81.390625 11.519531 81.25 11.804688 C 81.109375 12.089844 80.96875 12.375 80.753906 12.515625 C 80.542969 12.65625 80.191406 12.800781 79.765625 12.871094 C 79.339844 12.941406 78.847656 12.941406 78.210938 12.941406 Z M 78.210938 12.089844 C 78.632812 12.089844 78.988281 12.089844 79.269531 12.019531 C 79.554688 12.019531 79.765625 11.945312 79.976562 11.804688 C 80.121094 11.734375 80.261719 11.519531 80.332031 11.308594 C 80.402344 11.09375 80.472656 10.738281 80.472656 10.3125 C 80.472656 9.882812 80.472656 9.386719 80.472656 8.746094 C 80.472656 8.105469 80.472656 7.539062 80.472656 7.183594 C 80.472656 6.753906 80.402344 6.472656 80.332031 6.1875 C 80.261719 5.972656 80.121094 5.761719 79.976562 5.6875 C 79.835938 5.617188 79.554688 5.546875 79.269531 5.476562 C 78.988281 5.476562 78.632812 5.40625 78.210938 5.40625 C 77.785156 5.40625 77.433594 5.40625 77.148438 5.476562 C 76.867188 5.476562 76.652344 5.546875 76.441406 5.6875 C 76.300781 5.761719 76.160156 5.972656 76.089844 6.1875 C 76.019531 6.398438 75.945312 6.753906 75.945312 7.183594 C 75.945312 7.609375 75.875 8.105469 75.875 8.746094 C 75.875 9.386719 75.875 9.957031 75.945312 10.3125 C 75.945312 10.738281 76.019531 11.023438 76.089844 11.308594 C 76.160156 11.519531 76.300781 11.734375 76.441406 11.804688 C 76.582031 11.875 76.867188 11.945312 77.148438 12.019531 C 77.433594 12.089844 77.785156 12.089844 78.210938 12.089844 Z M 78.210938 12.089844 "/>
<path style=" stroke:none;fill-rule:nonzero;fill:rgb(100%,100%,100%);fill-opacity:1;" d="M 83.65625 12.871094 L 83.65625 4.691406 L 88.746094 4.691406 L 88.746094 5.546875 L 84.714844 5.546875 L 84.714844 8.460938 L 88.320312 8.460938 L 88.320312 9.316406 L 84.714844 9.316406 L 84.714844 12.800781 L 83.65625 12.800781 Z M 83.65625 12.871094 "/>
<path style=" stroke:none;fill-rule:nonzero;fill:rgb(61.56863%,85.490197%,90.980393%);fill-opacity:1;" d="M 39.882812 27.449219 L 39.882812 14.292969 L 48.4375 14.292969 L 48.4375 16.496094 L 42.640625 16.496094 L 42.640625 20.054688 L 47.804688 20.054688 L 47.804688 22.257812 L 42.640625 22.257812 L 42.640625 27.378906 L 39.882812 27.378906 Z M 39.882812 27.449219 "/>
<path style=" stroke:none;fill-rule:nonzero;fill:rgb(61.56863%,85.490197%,90.980393%);fill-opacity:1;" d="M 48.511719 27.449219 L 52.894531 14.363281 L 56.570312 14.363281 L 60.957031 27.449219 L 58.199219 27.449219 L 57.277344 24.535156 L 52.1875 24.535156 L 51.269531 27.449219 Z M 52.824219 22.328125 L 56.570312 22.328125 L 54.804688 16.78125 L 54.664062 16.78125 Z M 52.824219 22.328125 "/>
<path style=" stroke:none;fill-rule:nonzero;fill:rgb(61.56863%,85.490197%,90.980393%);fill-opacity:1;" d="M 62.792969 27.449219 L 62.792969 14.292969 L 66.472656 14.292969 L 69.722656 22.96875 L 69.867188 22.96875 L 73.046875 14.292969 L 76.726562 14.292969 L 76.726562 27.378906 L 74.109375 27.378906 L 74.109375 18.277344 L 74.039062 18.277344 L 70.644531 27.378906 L 68.804688 27.378906 L 65.410156 18.277344 L 65.339844 18.277344 L 65.339844 27.378906 L 62.792969 27.378906 Z M 62.792969 27.449219 "/>
<path style=" stroke:none;fill-rule:nonzero;fill:rgb(61.56863%,85.490197%,90.980393%);fill-opacity:1;" d="M 79.835938 27.449219 L 79.835938 14.292969 L 88.746094 14.292969 L 88.746094 16.496094 L 82.523438 16.496094 L 82.523438 19.699219 L 87.828125 19.699219 L 87.828125 21.902344 L 82.523438 21.902344 L 82.523438 25.171875 L 88.746094 25.171875 L 88.746094 27.378906 L 79.835938 27.378906 Z M 79.835938 27.449219 "/>
</g>
</svg>
