<?xml version="1.0" encoding="utf-8"?>
<!-- Generator: Adobe Illustrator 27.3.1, SVG Export Plug-In . SVG Version: 6.00 Build 0)  -->
<svg version="1.1" id="Layer_1" xmlns="http://www.w3.org/2000/svg" xmlns:xlink="http://www.w3.org/1999/xlink" x="0px" y="0px"
	 viewBox="0 0 40 40" style="enable-background:new 0 0 40 40;" xml:space="preserve">
<g>
	<g>
		<path d="M37.9,0.5H2.1c-0.9,0-1.6,0.7-1.6,1.6v14.6v14.6v6.5c0,0.9,0.7,1.6,1.6,1.6h14.6h0.2h6.3h14.6c0.9,0,1.6-0.7,1.6-1.6v-6.5
			V16.8V2.1C39.5,1.2,38.8,0.5,37.9,0.5z M21.6,36.2h-3.1V33h3.1V36.2z M20.5,23.2h10.7c0,0,0.2,0.3,0.2,0.8c0,0.5-0.2,0.8-0.2,0.8
			H20.5C20.6,24.3,20.6,23.8,20.5,23.2z M22.1,28.1h9h1.6c0,0,0.2,0.3,0.2,0.8c0,0.5-0.2,0.8-0.2,0.8H22.1
			C22.2,29.2,22.2,28.7,22.1,28.1z M34.4,25.4c0.1-0.4,0.2-0.8,0.2-1.3c0-2.2-1.4-4.1-3.5-4.1H18.4c-1.2,0-2,1.3-1.5,2.4
			c0.5,1,0.5,2.4,0,3.4c-0.5,1.1,0.2,2.4,1.5,2.4h0.5c0.1,0.5,0.1,1.1,0,1.6h-1.9h-0.2h-3.3v-8.1c0-0.9-0.7-1.6-1.6-1.6H7
			c-0.9,0-1.6,0.7-1.6,1.6v8.1H3.7V18.4H7h4.9h4.9h4.9h14.6v10.6v0.8h-0.1c0-0.3,0.1-0.5,0.1-0.8C36.2,27.4,35.6,26.1,34.4,25.4z
			 M10.2,29.8H8.6v-6.5h1.6C10.2,23.3,10.2,29.8,10.2,29.8z M18.4,8.6H20v6.5h-1.6V8.6z M23.2,9.2l2.8,5.9h-2.8V9.2z M26.6,8.7
			L28.1,8l2.8,5.9l-1.5,0.7L26.6,8.7z M15.1,15.1h-1.6v-4.9h1.6V15.1z M10.2,15.1H8.6V8.6h1.6C10.2,8.6,10.2,15.1,10.2,15.1z
			 M3.7,3.8h32.5v11.4h-1.7c0.1-0.4,0.1-0.8-0.1-1.1l-4.1-8.8C29.9,4.3,29,4,28.2,4.4l-4.4,2.1c-0.2,0.1-0.4,0.2-0.5,0.4
			c-0.1-0.8-0.8-1.5-1.6-1.5h-4.9c-0.9,0-1.6,0.7-1.6,1.6h-1.6c0-0.9-0.7-1.6-1.6-1.6H7C6.1,5.4,5.4,6.1,5.4,7v8.1H3.7V3.8z M3.7,33
			H7h4.9h3.2v3.2H3.7V33z M36.2,36.2H24.9V33h11.4V36.2z"/>
	</g>
</g>
</svg>
