<?xml version="1.0" encoding="utf-8"?>
<!-- Generator: Adobe Illustrator 24.1.3, SVG Export Plug-In . SVG Version: 6.00 Build 0)  -->
<svg version="1.1" id="Layer_1" xmlns="http://www.w3.org/2000/svg" xmlns:xlink="http://www.w3.org/1999/xlink" x="0px" y="0px"
	 viewBox="0 0 1080 1080" style="enable-background:new 0 0 1080 1080;" xml:space="preserve">
<style type="text/css">
	.st0{fill:#B3E2F3;}
	.st1{fill:#E0E1E0;}
	.st2{fill:#FFFFFF;}
	.st3{fill:#8AC5D9;}
	.st4{fill:#FFD48F;}
	.st5{fill:#EFBE6E;}
	.st6{fill:#484848;}
	.st7{fill:#F2622B;}
	.st8{fill:#C34E29;}
	.st9{fill:#EBEBEB;}
	.st10{fill:#D7D6D6;}
	.st11{fill:#76482C;}
	.st12{fill:#906236;}
	.st13{fill:#09728A;}
	.st14{fill:#FECA76;}
	.st15{fill:#29A9B1;}
	.st16{fill:#E6E6E5;}
	.st17{fill:#24ACB7;}
	.st18{fill:#ABC0C5;}
	.st19{fill:#FEC414;}
	.st20{fill:#573620;}
	.st21{fill:#168BA1;}
	.st22{opacity:0.85;}
	.st23{fill:#523B2E;}
	.st24{fill:#0B7389;}
	.st25{fill:#86533F;}
	.st26{opacity:0.8;}
</style>
<g id="digitalresourse2">
	<rect class="st0" width="1080" height="1080"/>
	<g>
		<g>
			<g>
				<path class="st1" d="M658.5,582.6c-2.6,0-4.6-2.1-4.6-4.6s2.1-4.6,4.6-4.6c2.6,0,4.6,2.1,4.6,4.6S661,582.6,658.5,582.6z"/>
			</g>
			<g>
				<g>
					<g>
						<g>
							<g>
								<path class="st2" d="M398.5,551.9l-5.6-4.1c0.3-0.4,6.5-8.8,17.5-8.8c11.5,0,17.4,8.6,17.6,8.9l-5.8,3.8
									c-0.2-0.2-4.1-5.9-11.8-5.9C403,545.9,398.6,551.6,398.5,551.9z"/>
							</g>
						</g>
						<g>
							<g>
								<path class="st2" d="M387.4,542.1l-5.6-4.1c0.4-0.6,10.7-14.4,28.7-14.4c18.8,0,28.3,13.9,28.7,14.5l-5.8,3.8
									c-0.3-0.5-7.9-11.4-23-11.4C395.9,530.5,387.5,541.9,387.4,542.1z"/>
							</g>
						</g>
						<g>
							<g>
								<path class="st2" d="M374.8,533.1l-5.6-4.1c0.6-0.8,15.4-20.7,41.3-20.7c27.1,0,40.8,20,41.3,20.9L446,533
									c-0.5-0.7-12.2-17.8-35.6-17.8C388.1,515.2,374.9,532.9,374.8,533.1z"/>
							</g>
						</g>
					</g>
					<g>
						<path class="st2" d="M415.6,559.6c0,3.3-2.6,5.9-5.9,5.9s-5.9-2.6-5.9-5.9c0-3.3,2.6-5.9,5.9-5.9
							C413,553.7,415.6,556.4,415.6,559.6z"/>
					</g>
				</g>
				<g>
					<g>
						<polygon class="st3" points="393.4,574.9 371.4,574.9 371.4,553.1 375.8,553.1 375.8,570.5 393.4,570.5 						"/>
					</g>
				</g>
				<g>
					<g>
						<polygon class="st3" points="429.8,494.6 451.8,494.6 451.8,516.5 447.4,516.5 447.4,499.1 429.8,499.1 						"/>
					</g>
				</g>
			</g>
			<g>
				<path class="st2" d="M749.2,819.1H734c-1.4,0-2.5-1.1-2.5-2.5s1.1-2.5,2.5-2.5h15.2c1.4,0,2.5,1.1,2.5,2.5
					S750.6,819.1,749.2,819.1z M718.9,819.1h-15.2c-1.4,0-2.5-1.1-2.5-2.5s1.1-2.5,2.5-2.5h15.2c1.4,0,2.5,1.1,2.5,2.5
					S720.3,819.1,718.9,819.1z M688.6,819.1h-15.2c-1.4,0-2.5-1.1-2.5-2.5s1.1-2.5,2.5-2.5h15.2c1.4,0,2.5,1.1,2.5,2.5
					S690,819.1,688.6,819.1z M658.2,819.1H643c-1.4,0-2.5-1.1-2.5-2.5s1.1-2.5,2.5-2.5h15.2c1.4,0,2.5,1.1,2.5,2.5
					S659.6,819.1,658.2,819.1z M627.9,819.1h-15.2c-1.4,0-2.5-1.1-2.5-2.5s1.1-2.5,2.5-2.5h15.2c1.4,0,2.5,1.1,2.5,2.5
					S629.3,819.1,627.9,819.1z M597.5,819.1h-15.2c-1.4,0-2.5-1.1-2.5-2.5s1.1-2.5,2.5-2.5h15.2c1.4,0,2.5,1.1,2.5,2.5
					S598.9,819.1,597.5,819.1z M567.2,819.1H552c-1.4,0-2.5-1.1-2.5-2.5s1.1-2.5,2.5-2.5h15.2c1.4,0,2.5,1.1,2.5,2.5
					S568.6,819.1,567.2,819.1z M536.9,819.1h-15.2c-1.4,0-2.5-1.1-2.5-2.5s1.1-2.5,2.5-2.5h15.2c1.4,0,2.5,1.1,2.5,2.5
					S538.3,819.1,536.9,819.1z M506.5,819.1h-13.4c-0.6,0-1.3,0-1.9-0.1c-1.4-0.1-2.5-1.3-2.4-2.7s1.3-2.5,2.7-2.4
					c0.5,0,1.1,0,1.6,0h13.4c1.4,0,2.5,1.1,2.5,2.5S507.9,819.1,506.5,819.1z M764.4,818.5c-1.2,0-2.2-0.8-2.5-2
					c-0.3-1.4,0.6-2.7,2-3c4.5-0.9,8.7-3.1,12.2-6.2c1-0.9,2.6-0.9,3.6,0.2c0.9,1,0.9,2.6-0.2,3.6c-4.1,3.7-9.1,6.3-14.5,7.4
					C764.7,818.4,764.5,818.5,764.4,818.5z M477.2,814.2c-0.5,0-1-0.1-1.4-0.4c-4.6-3.1-8.3-7.3-10.7-12.3c-0.6-1.3-0.1-2.8,1.2-3.4
					c1.3-0.6,2.8-0.1,3.4,1.2c2,4.2,5.1,7.7,9,10.3c1.2,0.8,1.5,2.3,0.7,3.5C478.8,813.8,478,814.2,477.2,814.2z M785.8,799
					c-0.3,0-0.5,0-0.8-0.1c-1.3-0.4-2.1-1.8-1.6-3.2c0.8-2.6,1.2-5.2,1.2-7.9v-6.3c0-1.4,1.1-2.5,2.5-2.5s2.5,1.1,2.5,2.5v6.3
					c0,3.2-0.5,6.4-1.5,9.5C787.9,798.4,786.9,799,785.8,799z M464.4,788.2c-1.4,0-2.5-1.1-2.5-2.5v-15.2c0-1.4,1.1-2.5,2.5-2.5
					s2.5,1.1,2.5,2.5v15.2C466.9,787.1,465.8,788.2,464.4,788.2z M787.2,768.9c-1.4,0-2.5-1.1-2.5-2.5v-15.2c0-1.4,1.1-2.5,2.5-2.5
					s2.5,1.1,2.5,2.5v15.2C789.7,767.7,788.6,768.9,787.2,768.9z M464.4,757.9c-1.4,0-2.5-1.1-2.5-2.5v-15.2c0-1.4,1.1-2.5,2.5-2.5
					s2.5,1.1,2.5,2.5v15.2C466.9,756.8,465.8,757.9,464.4,757.9z M787.2,738.5c-1.4,0-2.5-1.1-2.5-2.5v-15.2c0-1.4,1.1-2.5,2.5-2.5
					s2.5,1.1,2.5,2.5V736C789.7,737.4,788.6,738.5,787.2,738.5z M464.4,727.5c-1.4,0-2.5-1.1-2.5-2.5v-15.2c0-1.4,1.1-2.5,2.5-2.5
					s2.5,1.1,2.5,2.5V725C466.9,726.4,465.8,727.5,464.4,727.5z M787.2,708.2c-1.4,0-2.5-1.1-2.5-2.5v-15.2c0-1.4,1.1-2.5,2.5-2.5
					s2.5,1.1,2.5,2.5v15.2C789.7,707,788.6,708.2,787.2,708.2z M464.4,697.2c-1.4,0-2.5-1.1-2.5-2.5v-15.2c0-1.4,1.1-2.5,2.5-2.5
					s2.5,1.1,2.5,2.5v15.2C466.9,696.1,465.8,697.2,464.4,697.2z M787.2,677.8c-1.4,0-2.5-1.1-2.5-2.5v-15.2c0-1.4,1.1-2.5,2.5-2.5
					s2.5,1.1,2.5,2.5v15.2C789.7,676.7,788.6,677.8,787.2,677.8z M464.1,666.9c-1.2,0-2.3-0.9-2.5-2.2c-0.6-4.6-2.4-8.9-5.3-12.6
					c-0.9-1.1-0.7-2.7,0.4-3.5c1.1-0.9,2.7-0.7,3.5,0.4c3.4,4.4,5.6,9.6,6.3,15c0.2,1.4-0.8,2.7-2.2,2.8
					C464.4,666.9,464.2,666.9,464.1,666.9z M787.2,647.5c-1.4,0-2.5-1.1-2.5-2.5v-15.2c0-1.4,1.1-2.5,2.5-2.5s2.5,1.1,2.5,2.5V645
					C789.7,646.4,788.6,647.5,787.2,647.5z M446.4,644c-0.3,0-0.6-0.1-0.9-0.2c-3.1-1.3-6.4-1.9-9.8-1.9h-4.2
					c-1.4,0-2.5-1.1-2.5-2.5s1.1-2.5,2.5-2.5h4.2c4,0,8,0.8,11.7,2.2c1.3,0.5,1.9,2,1.4,3.3C448.3,643.4,447.4,644,446.4,644z
					 M352.6,642c-4.4,0-8.7-0.9-12.8-2.7c-1.3-0.6-1.8-2.1-1.3-3.3c0.6-1.3,2.1-1.8,3.3-1.3c3.4,1.5,7,2.3,10.7,2.3l0,0h3.1
					c1.4,0,2.5,1.1,2.5,2.5s-1.1,2.5-2.5,2.5H352.6L352.6,642z M416.3,642h-15.2c-1.4,0-2.5-1.1-2.5-2.5s1.1-2.5,2.5-2.5h15.2
					c1.4,0,2.5,1.1,2.5,2.5S417.7,642,416.3,642z M386,642h-15.2c-1.4,0-2.5-1.1-2.5-2.5s1.1-2.5,2.5-2.5H386c1.4,0,2.5,1.1,2.5,2.5
					S387.4,642,386,642z M329.2,630c-0.8,0-1.6-0.4-2.1-1.1c-3.2-4.5-5.2-9.8-5.7-15.3c-0.1-1.4,0.9-2.6,2.3-2.8
					c1.4-0.1,2.6,0.9,2.8,2.3c0.4,4.6,2.1,9,4.8,12.8c0.8,1.1,0.6,2.7-0.6,3.5C330.2,629.8,329.7,630,329.2,630z M787.2,617.2
					c-1.4,0-2.5-1.1-2.5-2.5v-15.2c0-1.4,1.1-2.5,2.5-2.5s2.5,1.1,2.5,2.5v15.2C789.7,616,788.6,617.2,787.2,617.2z M323.8,600.8
					c-1.4,0-2.5-1.1-2.5-2.5v-15.2c0-1.4,1.1-2.5,2.5-2.5s2.5,1.1,2.5,2.5v15.2C326.4,599.6,325.2,600.8,323.8,600.8z M787.2,586.8
					c-1.4,0-2.5-1.1-2.5-2.5v-15.2c0-1.4,1.1-2.5,2.5-2.5s2.5,1.1,2.5,2.5v15.2C789.7,585.7,788.6,586.8,787.2,586.8z M323.8,570.4
					c-1.4,0-2.5-1.1-2.5-2.5v-15.2c0-1.4,1.1-2.5,2.5-2.5s2.5,1.1,2.5,2.5v15.2C326.4,569.3,325.2,570.4,323.8,570.4z M785.6,556.7
					c-1,0-2-0.7-2.4-1.7c-1.5-4.4-4.2-8.3-7.7-11.3c-1.1-0.9-1.2-2.5-0.3-3.6s2.5-1.2,3.6-0.3c4.2,3.6,7.4,8.3,9.2,13.5
					c0.5,1.3-0.2,2.8-1.6,3.2C786.2,556.6,785.9,556.7,785.6,556.7z M323.8,540.1c-1.4,0-2.5-1.1-2.5-2.5v-15.2
					c0-1.4,1.1-2.5,2.5-2.5s2.5,1.1,2.5,2.5v15.2C326.4,539,325.2,540.1,323.8,540.1z M763.6,537.8c-0.2,0-0.3,0-0.5,0
					c-1.5-0.3-3.1-0.4-4.7-0.4h-10c-1.4,0-2.5-1.1-2.5-2.5s1.1-2.5,2.5-2.5h10c1.9,0,3.8,0.2,5.6,0.5c1.4,0.3,2.3,1.6,2,2.9
					C765.9,537,764.8,537.8,763.6,537.8z M733.3,537.4h-15.2c-1.4,0-2.5-1.1-2.5-2.5s1.1-2.5,2.5-2.5h15.2c1.4,0,2.5,1.1,2.5,2.5
					C735.9,536.2,734.7,537.4,733.3,537.4z M703,537.4h-10.4c-1.7,0-3.5-0.1-5.2-0.4c-1.4-0.2-2.3-1.5-2.1-2.9s1.5-2.3,2.9-2.1
					s2.9,0.4,4.3,0.4H703c1.4,0,2.5,1.1,2.5,2.5C705.5,536.2,704.4,537.4,703,537.4z M674.2,530.7c-0.6,0-1.1-0.2-1.6-0.6
					c-4.3-3.5-7.5-8.2-9.4-13.3c-0.5-1.3,0.2-2.8,1.5-3.2c1.3-0.5,2.8,0.2,3.2,1.5c1.6,4.3,4.3,8.2,7.9,11.2
					c1.1,0.9,1.2,2.5,0.3,3.6C675.7,530.4,674.9,530.7,674.2,530.7z M323.8,509.7c-1.4,0-2.5-1.1-2.5-2.5V492c0-1.4,1.1-2.5,2.5-2.5
					s2.5,1.1,2.5,2.5v15.2C326.4,508.6,325.2,509.7,323.8,509.7z M663.9,503.5c-1.4,0-2.5-1.1-2.5-2.5v-15.2c0-1.4,1.1-2.5,2.5-2.5
					s2.5,1.1,2.5,2.5V501C666.4,502.4,665.3,503.5,663.9,503.5z M323.8,479.4c-1.4,0-2.5-1.1-2.5-2.5v-15.2c0-1.4,1.1-2.5,2.5-2.5
					s2.5,1.1,2.5,2.5v15.2C326.4,478.3,325.2,479.4,323.8,479.4z M663.9,473.2c-1.4,0-2.5-1.1-2.5-2.5v-15.2c0-1.4,1.1-2.5,2.5-2.5
					s2.5,1.1,2.5,2.5v15.2C666.4,472,665.3,473.2,663.9,473.2z M323.8,449.1c-1.4,0-2.5-1.1-2.5-2.5v-15.2c0-1.4,1.1-2.5,2.5-2.5
					s2.5,1.1,2.5,2.5v15.2C326.4,447.9,325.2,449.1,323.8,449.1z M666.4,443.2c-0.3,0-0.7-0.1-1-0.2c-1.3-0.6-1.8-2.1-1.3-3.3
					c2.3-5,5.8-9.4,10.3-12.6c1.1-0.8,2.7-0.6,3.5,0.6c0.8,1.1,0.6,2.7-0.6,3.5c-3.8,2.7-6.8,6.4-8.7,10.6
					C668.2,442.6,667.3,443.2,666.4,443.2z M689.9,426.3c-1.3,0-2.4-1-2.5-2.3c-0.1-1.4,0.9-2.6,2.3-2.8c1-0.1,2-0.1,2.9-0.1H705
					c1.4,0,2.5,1.1,2.5,2.5s-1.1,2.5-2.5,2.5h-12.5C691.7,426.1,690.8,426.1,689.9,426.3C690,426.3,690,426.3,689.9,426.3z
					 M725.8,426.2h-5.5c-1.4,0-2.5-1.1-2.5-2.5s1.1-2.5,2.5-2.5h5.5c2.8,0,5.5-0.6,8.3-1.9c1.3-0.6,2.8,0,3.3,1.3
					c0.6,1.3,0,2.8-1.3,3.3C732.7,425.4,729.2,426.2,725.8,426.2z M323.8,418.7c-1.4,0-2.5-1.1-2.5-2.5V401c0-1.4,1.1-2.5,2.5-2.5
					s2.5,1.1,2.5,2.5v15.2C326.4,417.6,325.2,418.7,323.8,418.7z M746.8,414.7c-0.6,0-1.1-0.2-1.6-0.6c-1.1-0.9-1.3-2.5-0.4-3.6
					c3-3.7,5.2-8,6.6-12.5c0.4-1.3,1.8-2.1,3.1-1.7s2.1,1.8,1.7,3.1c-1.5,5.1-4.1,10-7.4,14.2C748.2,414.3,747.5,414.7,746.8,414.7z
					 M324.8,388.5c-0.2,0-0.4,0-0.7-0.1c-1.3-0.4-2.2-1.7-1.8-3.1c1.4-5.3,4.2-10.2,8.2-14.1c1-1,2.6-1,3.6,0s1,2.6,0,3.6
					c-3.3,3.3-5.7,7.4-6.9,11.8C327,387.7,325.9,388.5,324.8,388.5z M345.3,368.1c-1.1,0-2.1-0.8-2.4-1.9c-0.4-1.4,0.5-2.7,1.8-3.1
					c2.6-0.7,5.2-1,7.9-1h7.9c1.4,0,2.5,1.1,2.5,2.5s-1.1,2.5-2.5,2.5h-7.9c-2.2,0-4.5,0.3-6.6,0.8
					C345.8,368.1,345.6,368.1,345.3,368.1z M498,367.2h-1c-1.4,0-2.5-1.1-2.5-2.5s1.1-2.5,2.5-2.5h1c4.3,0,8.6-1.1,12.4-3.1
					c1.2-0.7,2.8-0.2,3.4,1c0.7,1.2,0.2,2.8-1,3.4C508.2,365.9,503.1,367.2,498,367.2z M481.8,367.2h-15.2c-1.4,0-2.5-1.1-2.5-2.5
					s1.1-2.5,2.5-2.5h15.2c1.4,0,2.5,1.1,2.5,2.5C484.3,366,483.2,367.2,481.8,367.2z M451.4,367.2h-15.2c-1.4,0-2.5-1.1-2.5-2.5
					s1.1-2.5,2.5-2.5h15.2c1.4,0,2.5,1.1,2.5,2.5C454,366,452.8,367.2,451.4,367.2z M421.1,367.2h-15.2c-1.4,0-2.5-1.1-2.5-2.5
					s1.1-2.5,2.5-2.5h15.2c1.4,0,2.5,1.1,2.5,2.5C423.6,366,422.5,367.2,421.1,367.2z M390.8,367.2h-15.2c-1.4,0-2.5-1.1-2.5-2.5
					s1.1-2.5,2.5-2.5h15.2c1.4,0,2.5,1.1,2.5,2.5C393.3,366,392.2,367.2,390.8,367.2z M522.5,353.5c-0.5,0-0.9-0.1-1.3-0.4
					c-1.2-0.7-1.6-2.3-0.8-3.5c2.4-3.9,3.8-8.5,3.9-13.1c0-1.4,1.2-2.5,2.5-2.5c0,0,0,0,0.1,0c1.4,0,2.5,1.2,2.5,2.6
					c-0.1,5.5-1.7,10.9-4.6,15.6C524.1,353.1,523.3,353.5,522.5,353.5z M754.5,326.7c-1.4,0-2.5-1.1-2.5-2.5c0-4.6-1.2-9.2-3.6-13.2
					c-0.7-1.2-0.3-2.8,0.9-3.5s2.8-0.3,3.5,0.9c2.8,4.8,4.3,10.2,4.3,15.7C757,325.5,755.9,326.7,754.5,326.7z M526.8,323.9
					c-0.1,0-0.2,0-0.2,0c-1.4-0.1-2.4-1.4-2.3-2.8c0.5-5.5,2.5-10.8,5.7-15.3c0.8-1.1,2.4-1.4,3.5-0.6s1.4,2.4,0.6,3.5
					c-2.7,3.8-4.4,8.2-4.8,12.8C529.2,323,528.1,323.9,526.8,323.9z M739.9,301.7c-0.4,0-0.9-0.1-1.2-0.3c-3.9-2.2-8.4-3.4-12.9-3.4
					l0,0h-0.4c-1.4,0-2.5-1.1-2.5-2.5s1.1-2.5,2.5-2.5h0.4l0,0c5.4,0,10.7,1.4,15.4,4.1c1.2,0.7,1.6,2.2,1,3.4
					C741.6,301.2,740.8,301.7,739.9,301.7z M543.7,300.4c-1,0-1.9-0.6-2.3-1.5c-0.6-1.3,0-2.8,1.3-3.3c4-1.8,8.3-2.7,12.8-2.7h3.1
					c1.4,0,2.5,1.1,2.5,2.5s-1.1,2.5-2.5,2.5h-3.1c-3.7,0-7.3,0.8-10.7,2.3C544.4,300.4,544.1,300.4,543.7,300.4z M710.2,297.9H695
					c-1.4,0-2.5-1.1-2.5-2.5s1.1-2.5,2.5-2.5h15.2c1.4,0,2.5,1.1,2.5,2.5S711.6,297.9,710.2,297.9z M679.9,297.9h-15.2
					c-1.4,0-2.5-1.1-2.5-2.5s1.1-2.5,2.5-2.5h15.2c1.4,0,2.5,1.1,2.5,2.5S681.3,297.9,679.9,297.9z M649.6,297.9h-15.2
					c-1.4,0-2.5-1.1-2.5-2.5s1.1-2.5,2.5-2.5h15.2c1.4,0,2.5,1.1,2.5,2.5S650.9,297.9,649.6,297.9z M619.2,297.9H604
					c-1.4,0-2.5-1.1-2.5-2.5s1.1-2.5,2.5-2.5h15.2c1.4,0,2.5,1.1,2.5,2.5S620.6,297.9,619.2,297.9z M588.9,297.9h-15.2
					c-1.4,0-2.5-1.1-2.5-2.5s1.1-2.5,2.5-2.5h15.2c1.4,0,2.5,1.1,2.5,2.5S590.3,297.9,588.9,297.9z"/>
			</g>
			<g>
				<g>
					<g>
						<path class="st4" d="M675,791.4c0-3.4,0-22,0-22h-16.8h-16.8c0,0,0,18.6,0,22c0,5.1-1.3,5.8-3.5,6.6
							c3.6,6.3,9.1,33.4,20.9,33.5c11.8-0.1,16.2-27.2,19.8-33.5C676.3,797.2,675,796.5,675,791.4z"/>
					</g>
					<g>
						<g>
							<g>
								<path class="st4" d="M690.4,766.5c5,1,9.3-5.8,9.3-13c0-4.1-2.6-8.7-6.7-7.8c-5.2,1.2-6,6.1-6,6.1V763
									C686.9,763,687.7,765.9,690.4,766.5z"/>
							</g>
							<g>
								<path class="st5" d="M689.2,764.9c3.4,0.8,6.2-4.4,6.2-9.9c0-3.1-1.7-6.6-4.5-5.9c-3.5,0.9-4,4.6-4,4.6v8.5
									C686.9,762.2,687.4,764.4,689.2,764.9z"/>
							</g>
						</g>
						<g>
							<g>
								<path class="st4" d="M627.6,766.5c-5,1-9.3-5.8-9.3-13c0-4.1,2.6-8.7,6.7-7.8c5.2,1.2,6,6.1,6,6.1V763
									C631.1,763,630.3,765.9,627.6,766.5z"/>
							</g>
							<g>
								<path class="st5" d="M628.7,764.9c-3.4,0.8-6.2-4.4-6.2-9.9c0-3.1,1.7-6.6,4.5-5.9c3.5,0.9,4,4.6,4,4.6v8.5
									C631.1,762.2,630.5,764.4,628.7,764.9z"/>
							</g>
						</g>
					</g>
					<g>
						<path class="st5" d="M658.1,769.6h-16.8c0,0,0,9.5,0,16.2c5.1,5.8,11.7,9.3,20.5,9.4c5.1-0.1,9.4-1.3,13.2-3.4
							c0-0.1,0-0.1,0-0.2c0-3.4,0-22,0-22H658.1z"/>
					</g>
					<g>
						<path class="st4" d="M683.3,722.8c-9.6-6.8-39-6.8-48.6,0c-7.6,5.4-11,24.5-6.5,39.5c5.4,18,14.2,29.8,30.8,30.2
							c16.6-0.4,25.4-12.1,30.8-30.2C694.2,747.3,690.9,728.2,683.3,722.8z"/>
					</g>
					<g>
						<path class="st6" d="M626.3,751.6c0.1,1.5,0.6,5.3,0.6,5.3s6.7-4.3,6.4-19.8c12.7,1.5,37.5,2.5,49.7-10.3
							c2.5,22.2,7.7,31.4,7.7,31.4s0.8-4.6,0.9-6.9c0.1-2.4,3.3-5.1,3.3-5.1s1.3-10.6,0-17.9c-1.2-6.7-5.6-22.8-18.5-21.7
							c-2.5,0.2-5.9-8-28.7-3.3c-8.1,1.7-16.6,6.4-21.6,17.1c-2.6,5.5-2.7,25.4-2.7,25.4S626.2,750.1,626.3,751.6z"/>
					</g>
					<g>
						<g>
							<path class="st2" d="M678.8,797.8l-20.6,25.3l-20.6-25.3c-21.4,0-43.4,5.4-43.4,48.5c0,0.3,3.1,34.6,3.1,34.6h60.9h60.9
								c0,0,3.1-34.2,3.1-34.6C722.2,803.2,700.2,797.8,678.8,797.8z"/>
						</g>
						<g>
							<polygon class="st7" points="672,880.9 644.3,880.9 650.5,827.1 665.8,827.1 							"/>
						</g>
						<g>
							<path class="st8" d="M655.2,815.2h6.1l5.7,14.5c0.6,1.6-0.6,3.3-2.3,3.3l-13-0.2c-1.7,0-2.9-1.7-2.2-3.3L655.2,815.2z"/>
						</g>
						<g>
							<path class="st9" d="M646,805.5c6.5,6.5,9.4,9.6,9.4,9.6s-4.2,16.3-7,13.6s-17.3-23.2-13.7-30.8c0.7-1.5,6.4-3.1,6.4-3.1
								S641.3,800.9,646,805.5z"/>
						</g>
						<g>
							<path class="st9" d="M670.3,805.5c-6.5,6.5-9.4,9.6-9.4,9.6s4.2,16.3,7,13.6c2.8-2.8,17.3-23.2,13.7-30.8
								c-0.7-1.5-6.4-3.1-6.4-3.1S675,800.9,670.3,805.5z"/>
						</g>
						<g>
							<g>
								<path class="st10" d="M615.3,880.9c0,0-1.5-19.9-1.5-25.9c0-4.1,1.3-18.4,1.3-18.4l3.8,44.3L615.3,880.9L615.3,880.9z"/>
							</g>
							<g>
								<path class="st10" d="M701,880.9c0,0,1.5-19.9,1.5-25.9c0-4.1-1.3-18.4-1.3-18.4l-3.8,44.3L701,880.9L701,880.9z"/>
							</g>
						</g>
					</g>
				</g>
				<g>
					<g>
						<g>
							<rect x="394" y="818.1" class="st4" width="22.3" height="62.8"/>
						</g>
					</g>
					<g>
						<g>
							<rect x="494.6" y="818.1" class="st4" width="22.3" height="62.8"/>
						</g>
					</g>
					<g>
						<polygon class="st5" points="516.9,841.2 516.9,845.6 495.6,854.5 495.6,847.2 						"/>
					</g>
					<g>
						<polygon class="st5" points="393.9,841.2 393.9,845.6 415.3,854.5 415.3,847.2 						"/>
					</g>
					<g>
						<g>
							<g>
								<path class="st4" d="M486.8,750.3c5,1,9.3-5.8,9.3-13c0-4-2.6-8.7-6.7-7.7c-5.2,1.2-6,6-6,6v11.3
									C483.4,746.8,484.2,749.7,486.8,750.3z"/>
							</g>
							<g>
								<path class="st5" d="M485.7,748.6c3.3,0.8,6.2-4.4,6.2-9.8c0-3.1-1.7-6.6-4.5-5.9c-3.5,0.9-4,4.6-4,4.6v8.5
									C483.4,746,483.9,748.2,485.7,748.6z"/>
							</g>
						</g>
						<g>
							<g>
								<path class="st4" d="M424.2,750.3c-5,1-9.3-5.8-9.3-13c0-4,2.6-8.7,6.7-7.7c5.2,1.2,6,6,6,6v11.3
									C427.7,746.8,426.9,749.7,424.2,750.3z"/>
							</g>
							<g>
								<path class="st5" d="M425.3,748.6c-3.3,0.8-6.2-4.4-6.2-9.8c0-3.1,1.7-6.6,4.5-5.9c3.5,0.9,4,4.6,4,4.6v8.5
									C427.7,746,427.1,748.2,425.3,748.6z"/>
							</g>
						</g>
					</g>
					<g>
						<path class="st4" d="M471.5,775.1c0-3.4,0-22,0-22h-16.8h-16.8c0,0,0,18.6,0,22c0,5.1-1.3,5.8-3.5,6.6
							c3.6,6.3,9.1,33.4,20.9,33.5c11.8-0.1,16.1-27.2,19.8-33.5C472.8,780.9,471.5,780.2,471.5,775.1z"/>
					</g>
					<g>
						<path class="st7" d="M476.5,781.7l-21.3,30.5l-20.9-30.5c-22,0-44.7,6.4-44.7,57.9c0,0.4,0,1.5,0,1.5c0,0.7,0.6,1,1.3,1.2
							c5.6,2,22.7,7.2,22.7,7.2v31.4h83.7v-31.4c0,0,17.1-5.1,22.7-7.2c0.6-0.2,1.3-0.5,1.3-1.2c0,0,0-1.1,0-1.5
							C521.2,788.1,498.6,781.7,476.5,781.7z"/>
					</g>
					<g>
						<path class="st5" d="M454.7,753.3h-16.8c0,0,0,9.5,0,16.1c5.1,5.8,11.7,9.2,20.4,9.4c5.1-0.1,9.4-1.3,13.2-3.4
							c0-0.1,0-0.1,0-0.2c0-3.4,0-22,0-22h-16.8V753.3z"/>
					</g>
					<g>
						<path class="st4" d="M479.8,706.6c-9.6-6.8-38.9-6.8-48.5,0c-7.6,5.4-10.9,24.5-6.5,39.4c5.4,18,14.2,29.7,30.7,30.1
							c16.6-0.4,25.4-12.1,30.7-30.1C490.7,731.1,487.3,712,479.8,706.6z"/>
					</g>
					<g>
						<path class="st8" d="M442.5,790c6.5,7,9.4,10.3,9.4,10.3s-4.2,17.5-7,14.6c-2.8-3-17.3-24.9-13.7-33.1
							c0.7-1.7,6.4-3.3,6.4-3.3S437.9,785,442.5,790z"/>
					</g>
					<g>
						<path class="st8" d="M466.8,790c-6.5,7-9.4,10.3-9.4,10.3s4.2,17.5,7,14.6c2.8-3,17.3-24.9,13.7-33.1
							c-0.7-1.7-6.4-3.3-6.4-3.3S471.5,785,466.8,790z"/>
					</g>
					<path class="st11" d="M488.2,704.2c-5-10.6-13.5-15.4-21.6-17.1c-4.4-0.9-8-1.3-11.1-1.4c-3.1,0.1-6.7,0.5-11.1,1.4
						c-8.1,1.7-16.6,6.4-21.6,17.1c-2.6,5.5-2.7,25.3-2.7,25.3s0.9,0.2,1.6,0.6c0.6,0.3,1.1,1.1,1.1,1.1s0,2.8,0.1,4.2
						c0.1,1.5,0.6,5.3,0.6,5.3s3.6-5.7,5.6-19.3c0.6-4.4,4.7-7.5,9-6.8c6.1,1,13.4,4.8,17.4,4.8c4.3,0,11.6-4.6,17.9-5.2
						c4.2-0.4,7.9,2.8,8.5,7c1.9,13.7,5.6,19.5,5.6,19.5s0.5-3.9,0.6-5.3s0.1-4.2,0.1-4.2s0.6-0.8,1.1-1.1c0.7-0.4,1.6-0.6,1.6-0.6
						S490.8,709.7,488.2,704.2z"/>
				</g>
				<g>
					<g>
						<g>
							<rect x="593.1" y="771.4" class="st4" width="22.3" height="40"/>
						</g>
						<g>
							<polygon class="st5" points="615.4,776.5 615.4,777.6 591.4,788.3 591.4,768.7 							"/>
						</g>
					</g>
					<g>
						<g>
							<rect x="492.4" y="771.5" class="st4" width="22.3" height="40"/>
						</g>
						<g>
							<polygon class="st5" points="492.4,776.5 492.4,777.6 516.4,788.3 516.4,768.7 							"/>
						</g>
					</g>
					<g>
						<path class="st12" d="M589.8,667.4c0,0,6.1,48.7,1.9,73.4c-1.4,8.1-4.2,14.7-4.2,14.7l-22.6-15.6l3.7-17.6L589.8,667.4z"/>
					</g>
					<g>
						<path class="st12" d="M518.1,667.4c0,0-6.1,48.7-1.9,73.4c1.4,8.1,4.2,14.7,4.2,14.7l22.6-15.6l-3.7-17.6L518.1,667.4z"/>
					</g>
					<g>
						<path class="st13" d="M580,735.2h-52c-22,0-39.9,17-39.9,37.9c0,0.4,0,1.5,0,1.5c0,0.7,0.6,1.1,1.3,1.2
							c5.9,1,22.7,7.5,22.7,7.5v28.2l83.5-0.2v-28.2c0,0,17.4-6.1,23-7.5c0.7-0.2,1.3-0.5,1.3-1.2c0,0,0.1-1,0.2-1.3
							C621.2,752.2,602.1,735.2,580,735.2z"/>
					</g>
					<g>
						<path class="st4" d="M569.9,728.6c0-3.4,0-22,0-22h-16.8h-16.8c0,0,0,18.6,0,22c0,5.1-1.3,5.8-3.5,6.6
							c3.6,6.3,9.1,18.8,20.9,18.9c11.8-0.1,16.1-12.6,19.8-18.9C571.2,734.4,569.9,733.7,569.9,728.6z"/>
					</g>
					<g>
						<path class="st5" d="M553.1,706.6h-16.8c0,0,0,9.5,0,16.1c5.1,5.8,11.7,9.2,20.4,9.4c5.1-0.1,9.4-1.3,13.2-3.4
							c0-0.1,0-0.1,0-0.2c0-3.4,0-22,0-22h-16.8V706.6z"/>
					</g>
					<g>
						<g>
							<path class="st4" d="M584.6,705.1c5,1,9.3-5.8,9.3-13c0-4-2.6-8.7-6.7-7.7c-5.2,1.2-6,6-6,6v11.3
								C581.2,701.6,582,704.5,584.6,705.1z"/>
						</g>
						<g>
							<path class="st5" d="M583.5,703.4c3.3,0.8,6.2-4.4,6.2-9.8c0-3.1-1.7-6.6-4.5-5.9c-3.5,0.9-4,4.6-4,4.6v8.5
								C581.2,700.8,581.7,703,583.5,703.4z"/>
						</g>
					</g>
					<g>
						<g>
							<path class="st4" d="M522,705.1c-5,1-9.3-5.8-9.3-13c0-4,2.6-8.7,6.7-7.7c5.2,1.2,6,6,6,6v11.3
								C525.5,701.6,524.7,704.5,522,705.1z"/>
						</g>
						<g>
							<path class="st5" d="M523.2,703.4c-3.3,0.8-6.2-4.4-6.2-9.8c0-3.1,1.7-6.6,4.5-5.9c3.5,0.9,4,4.6,4,4.6v8.5
								C525.5,700.8,524.9,703,523.2,703.4z"/>
						</g>
					</g>
					<g>
						<path class="st14" d="M578.2,659.9c-9.6-6.8-38.9-6.8-48.5,0c-7.6,5.4-10.9,24.5-6.5,39.4c5.4,18,14.2,29.7,30.7,30.1
							c16.6-0.4,25.4-12.1,30.7-30.1C589.2,684.4,585.8,665.3,578.2,659.9z"/>
					</g>
					<g>
						<path class="st4" d="M578.2,659.9c-9.6-6.8-38.9-6.8-48.5,0c-7.6,5.4-10.9,24.5-6.5,39.4c5.4,18,14.2,29.7,30.7,30.1
							c16.6-0.4,25.4-12.1,30.7-30.1C589.2,684.4,585.8,665.3,578.2,659.9z"/>
					</g>
					<g>
						<path class="st12" d="M534.3,663.5c0,0,19.9,8.7,31.1,11.7c7.2,1.9,11.7,2.1,14.9,5.6c2.6,2.9,3,38.4,3,38.4l6.1-35
							c0,0,1.7-8.3,0.4-16.8c-6.9-46.9-70.3-39.8-72.6,0.1c-0.3,5.9,0.5,16.8,0.5,16.8l8.3,34.4c0,0-3.4-38.8,1.4-44.2
							C532.7,668.5,534.3,663.5,534.3,663.5z"/>
					</g>
					<g>
						<g>
							<path class="st15" d="M532.8,735.2c0,0,0.6,20.4,8.3,26s12.6-7.1,12.6-7.1C541.9,754.1,536.4,741.5,532.8,735.2z"/>
						</g>
						<g>
							<path class="st15" d="M573.5,735.2c0,0-0.6,20.4-8.3,26s-12.6-7.1-12.6-7.1C564.4,754.1,569.8,741.5,573.5,735.2z"/>
						</g>
					</g>
				</g>
				<g>
					<g>
						<path class="st16" d="M627.7,873.1H480.4c-5.6,0-10.2-4.6-10.2-10.2v-87.3c0-5.6,4.6-10.2,10.2-10.2h147.3
							c5.6,0,10.2,4.6,10.2,10.2v87.3C637.9,868.5,633.4,873.1,627.7,873.1z"/>
					</g>
				</g>
				<g>
					<g>
						<rect x="362.8" y="880.9" class="st17" width="370.6" height="11.3"/>
					</g>
				</g>
				<path class="st18" d="M638.1,873.1H469.3c-1.4,0-2.6,1.2-2.6,2.6v2.6c0,1.4,1.2,2.6,2.6,2.6h168.8c1.4,0,2.6-1.2,2.6-2.6v-2.6
					C640.7,874.3,639.5,873.1,638.1,873.1z"/>
				<g>
					<circle class="st2" cx="554.1" cy="818.1" r="18.5"/>
				</g>
			</g>
			<g>
				<g>
					<g>
						<g>
							<path class="st7" d="M235.3,773.6v-185c0-4.8,3.9-8.7,8.7-8.7h113.4c4.8,0,8.7,3.9,8.7,8.7v185c0,4.8-3.9,8.7-8.7,8.7H244
								C239.2,782.3,235.3,778.4,235.3,773.6z"/>
						</g>
						<g>
							<g>
								<path class="st2" d="M250,750.8V601.2c0-3.8,3.1-6.9,6.9-6.9h87.7c3.8,0,6.9,3.1,6.9,6.9v149.6c0,3.8-3.1,6.9-6.9,6.9h-87.7
									C253.1,757.7,250,754.6,250,750.8z"/>
							</g>
						</g>
					</g>
					<g>
						<path class="st2" d="M309.5,770.3H292c-1.5,0-2.7-1.2-2.7-2.7v-0.5c0-1.5,1.2-2.7,2.7-2.7h17.5c1.5,0,2.7,1.2,2.7,2.7v0.5
							C312.1,769.1,310.9,770.3,309.5,770.3z"/>
					</g>
					<g>
						<path class="st19" d="M326.7,769.1h-10.4c-0.9,0-1.6-0.7-1.6-1.6v-0.3c0-0.9,0.7-1.6,1.6-1.6h10.4c0.9,0,1.6,0.7,1.6,1.6v0.3
							C328.3,768.4,327.6,769.1,326.7,769.1z"/>
					</g>
					<g>
						<path class="st19" d="M285.1,769.1h-10.4c-0.9,0-1.6-0.7-1.6-1.6v-0.3c0-0.9,0.7-1.6,1.6-1.6h10.4c0.9,0,1.6,0.7,1.6,1.6v0.3
							C286.7,768.4,286,769.1,285.1,769.1z"/>
					</g>
				</g>
				<g>
					<g>
						<path class="st4" d="M312.3,696.6c0-2.3,0-15.2,0-15.2h-11.6H289c0,0,0,12.9,0,15.2c0,3.5-0.9,4-2.4,4.6
							c2.5,4.4,6.3,23.1,14.4,23.1c8.1-0.1,11.1-18.8,13.7-23.1C313.1,700.6,312.3,700.1,312.3,696.6z"/>
					</g>
					<g>
						<g>
							<g>
								<path class="st4" d="M322.9,679.4c3.5,0.7,6.4-4,6.4-9c0-2.8-1.8-6-4.6-5.4c-3.6,0.8-4.2,4.2-4.2,4.2v7.8
									C320.5,677,321,679,322.9,679.4z"/>
							</g>
							<g>
								<path class="st5" d="M322.1,678.3c2.3,0.5,4.3-3,4.3-6.8c0-2.1-1.2-4.5-3.1-4c-2.4,0.6-2.8,3.2-2.8,3.2v5.9
									C320.5,676.5,320.8,678,322.1,678.3z"/>
							</g>
						</g>
						<g>
							<g>
								<path class="st4" d="M279.6,679.4c-3.5,0.7-6.4-4-6.4-9c0-2.8,1.8-6,4.6-5.4c3.6,0.8,4.2,4.2,4.2,4.2v7.8
									C282,677,281.4,679,279.6,679.4z"/>
							</g>
							<g>
								<path class="st5" d="M280.4,678.3c-2.3,0.5-4.3-3-4.3-6.8c0-2.1,1.2-4.5,3.1-4c2.4,0.6,2.8,3.2,2.8,3.2v5.9
									C282,676.5,281.6,678,280.4,678.3z"/>
							</g>
						</g>
					</g>
					<g>
						<path class="st5" d="M300.7,681.5H289c0,0,0,6.5,0,11.1c3.5,4,8.1,6.4,14.1,6.5c3.5-0.1,6.5-0.9,9.1-2.4v-0.1
							c0-2.3,0-15.2,0-15.2h-11.5V681.5z"/>
					</g>
					<g>
						<path class="st4" d="M318,649.3c-6.6-4.7-26.9-4.7-33.5,0c-5.2,3.7-7.6,16.9-4.5,27.2c3.7,12.4,9.8,20.5,21.2,20.8
							c11.4-0.2,17.5-8.4,21.2-20.8C325.5,666.2,323.2,653,318,649.3z"/>
					</g>
					<g>
						<g>
							<path class="st11" d="M314.9,701l-14.2,17.4L286.6,701c-14.8,0-29.9,3.7-29.9,33.5c0,0.2,2.1,23.8,2.1,23.8h42h42
								c0,0,2.1-23.6,2.1-23.8C344.8,704.7,329.7,701,314.9,701z"/>
						</g>
						<g>
							<path class="st20" d="M292.3,706.3c4.5,4.5,6.5,6.6,6.5,6.6s-2.9,11.2-4.8,9.3s-11.9-16-9.5-21.3c0.5-1.1,4.4-2.1,4.4-2.1
								S289,703.1,292.3,706.3z"/>
						</g>
						<g>
							<path class="st20" d="M309,706.3c-4.5,4.5-6.5,6.6-6.5,6.6s2.9,11.2,4.8,9.3s11.9-16,9.5-21.3c-0.5-1.1-4.4-2.1-4.4-2.1
								S312.3,703.1,309,706.3z"/>
						</g>
						<g>
							<g>
								<path class="st20" d="M271.1,758.3c0,0-1-13.7-1-17.8c0-2.8,0.9-12.7,0.9-12.7l2.6,30.5H271.1z"/>
							</g>
							<g>
								<path class="st20" d="M330.2,758.3c0,0,1-13.7,1-17.8c0-2.8-0.9-12.7-0.9-12.7l-2.6,30.5H330.2z"/>
							</g>
						</g>
					</g>
					<path class="st19" d="M322.5,644.9c-3.7-7.2-20.1-6.6-21.3-6.5c-1.2-0.1-17.6-0.6-21.3,6.5c-4.1,5.3-3.8,20.3-3.8,20.3l0,0
						c0.5-0.2,1.1-0.3,1.7-0.1c1.8,0.4,2.8,1.4,3.4,2.3l0,0c3-5.1,2.7-13,2.7-13l17.2,1.5l17.2-1.5c0,0-0.3,7.9,2.7,13l0,0
						c0.6-0.9,1.7-1.9,3.4-2.3c0.6-0.1,1.2-0.1,1.7,0.1l0,0C326.1,665.2,326.6,650.2,322.5,644.9z"/>
					<path class="st19" d="M279.9,644.9c0,0-0.5-7.2,6.4-10.2c-1.2,2.4-0.7,3.7-0.7,3.7s3.1-6,13.3-4.3c6.4-1.1,11.1-0.6,16.3,1.8
						c5.6,0.6,10.2,6.5,10,16c-1.3,2.8-24.5,1.4-24.5,1.4L279.9,644.9z"/>
				</g>
			</g>
			<g>
				<g>
					<path class="st13" d="M207.6,552.1h55.5c6.2,0,11.1,5,11.1,11.1v30.9c0,6.2-5,11.1-11.1,11.1l11.1,19.5l-30.5-19.5h-36.1
						c-6.2,0-11.1-5-11.1-11.1v-30.9C196.4,557,201.4,552.1,207.6,552.1z"/>
				</g>
				<g>
					<g>
						<g>
							<g>
								<rect x="208.5" y="562.1" class="st2" width="53.6" height="2.3"/>
							</g>
						</g>
						<g>
							<g>
								<rect x="208.5" y="572.7" class="st2" width="53.6" height="2.3"/>
							</g>
						</g>
					</g>
					<g>
						<g>
							<g>
								<rect x="208.5" y="581.8" class="st2" width="53.6" height="2.3"/>
							</g>
						</g>
						<g>
							<g>
								<rect x="208.5" y="592.4" class="st2" width="53.6" height="2.3"/>
							</g>
						</g>
					</g>
				</g>
			</g>
			<g>
				<g>
					<g>
						<g>
							<g>
								<path class="st21" d="M856.5,374.6h-206c-5.7,0-10.3-4.6-10.3-10.3V220.1c0-5.7,4.6-10.3,10.3-10.3h206
									c5.7,0,10.3,4.6,10.3,10.3v144.1C866.8,369.9,862.2,374.6,856.5,374.6z"/>
							</g>
						</g>
						<g>
							<path class="st2" d="M844.5,361.9h-182c-4.9,0-8.9-4-8.9-8.9V231.3c0-4.9,4-8.9,8.9-8.9h181.9c4.9,0,8.9,4,8.9,8.9V353
								C853.4,357.9,849.4,361.9,844.5,361.9z"/>
						</g>
					</g>
					<g>
						<g>
							<path class="st13" d="M875.3,393.3H631.7c-1.1,0-2.1-0.6-2.6-1.6l-6.2-12.9c-0.9-1.9,0.5-4.2,2.6-4.2h256.1
								c2.1,0,3.5,2.2,2.6,4.2l-6.2,12.9C877.5,392.7,876.5,393.3,875.3,393.3z"/>
						</g>
					</g>
				</g>
				<g class="st22">
					<path class="st0" d="M811,231.6H697.2c-8.3,0-15,6.7-15,15v91.2c0,8.3,6.7,15,15,15H811c8.3,0,15-6.7,15-15v-91.2
						C826,238.3,819.3,231.6,811,231.6z"/>
					<g>
						<g>
							<path class="st7" d="M812.5,231.6H695.7c-7.5,0-13.5,6.1-13.5,13.5v10.4H826v-10.4C826,237.6,820,231.6,812.5,231.6z"/>
						</g>
					</g>
					<g>
						<path class="st2" d="M806.9,345H700.7c-5.4,0-9.8-4.4-9.8-9.8v-65.5c0-5.4,4.4-9.8,9.8-9.8h106.2c5.4,0,9.8,4.4,9.8,9.8v65.5
							C816.7,340.6,812.3,345,806.9,345z"/>
					</g>
					<g>
						<g>
							<g>
								<rect x="698.5" y="269.9" class="st13" width="28.4" height="4.5"/>
							</g>
							<g>
								<rect x="733.2" y="269.9" class="st13" width="28.4" height="4.5"/>
							</g>
						</g>
						<g>
							<g>
								<rect x="698.5" y="279.8" class="st13" width="28.4" height="4.5"/>
							</g>
							<g>
								<rect x="733.2" y="279.8" class="st13" width="28.4" height="4.5"/>
							</g>
						</g>
						<g>
							<g>
								<rect x="698.5" y="289.7" class="st13" width="28.4" height="4.5"/>
							</g>
							<g>
								<rect x="733.2" y="289.7" class="st13" width="28.4" height="4.5"/>
							</g>
						</g>
						<g>
							<g>
								<rect x="698.5" y="299.6" class="st13" width="28.4" height="4.5"/>
							</g>
							<g>
								<rect x="733.2" y="299.6" class="st13" width="28.4" height="4.5"/>
							</g>
						</g>
						<g>
							<rect x="698.5" y="310.9" class="st13" width="108.3" height="4.5"/>
						</g>
						<g>
							<rect x="698.5" y="320.5" class="st13" width="108.3" height="4.5"/>
						</g>
					</g>
					<g>
						<path class="st19" d="M714.4,247.8h-13.1c-1.5,0-2.8-1.3-2.8-2.8v-0.5c0-1.5,1.3-2.8,2.8-2.8h13.1c1.5,0,2.8,1.3,2.8,2.8v0.5
							C717.2,246.6,715.9,247.8,714.4,247.8z"/>
					</g>
					<g>
						<path class="st2" d="M736.2,247.8h-13.1c-1.5,0-2.8-1.3-2.8-2.8v-0.5c0-1.5,1.3-2.8,2.8-2.8h13.1c1.5,0,2.8,1.3,2.8,2.8v0.5
							C739,246.6,737.7,247.8,736.2,247.8z"/>
					</g>
				</g>
			</g>
			<g>
				<path class="st2" d="M659.7,534.2h-13.3c-1.4,0-2.5-1.1-2.5-2.5s1.1-2.5,2.5-2.5h13.3c1.4,0,2.5,1.1,2.5,2.5
					S661.1,534.2,659.7,534.2z M631.2,534.2H616c-1.4,0-2.5-1.1-2.5-2.5s1.1-2.5,2.5-2.5h15.2c1.4,0,2.5,1.1,2.5,2.5
					S632.6,534.2,631.2,534.2z M600.9,534.2h-15.2c-1.4,0-2.5-1.1-2.5-2.5s1.1-2.5,2.5-2.5h15.2c1.4,0,2.5,1.1,2.5,2.5
					S602.3,534.2,600.9,534.2z M570.6,534.2h-15.2c-1.4,0-2.5-1.1-2.5-2.5s1.1-2.5,2.5-2.5h15.2c1.4,0,2.5,1.1,2.5,2.5
					S572,534.2,570.6,534.2z M540.2,534.2H525c-1.4,0-2.5-1.1-2.5-2.5s1.1-2.5,2.5-2.5h15.2c1.4,0,2.5,1.1,2.5,2.5
					S541.6,534.2,540.2,534.2z M509.9,534.2h-15.2c-1.4,0-2.5-1.1-2.5-2.5s1.1-2.5,2.5-2.5h15.2c1.4,0,2.5,1.1,2.5,2.5
					S511.3,534.2,509.9,534.2z M479.6,534.2h-15.2c-1.4,0-2.5-1.1-2.5-2.5s1.1-2.5,2.5-2.5h15.2c1.4,0,2.5,1.1,2.5,2.5
					S481,534.2,479.6,534.2z"/>
			</g>
			<g>
				<path class="st2" d="M408.6,487.6c-1.4,0-2.5-1.1-2.5-2.5v-12.7c0-1.4,1.1-2.5,2.5-2.5s2.5,1.1,2.5,2.5v12.7
					C411.1,486.5,410,487.6,408.6,487.6z M408.6,459.7c-1.4,0-2.5-1.1-2.5-2.5V442c0-1.4,1.1-2.5,2.5-2.5s2.5,1.1,2.5,2.5v15.2
					C411.1,458.6,410,459.7,408.6,459.7z M408.6,429.4c-1.4,0-2.5-1.1-2.5-2.5v-15.2c0-1.4,1.1-2.5,2.5-2.5s2.5,1.1,2.5,2.5v15.2
					C411.1,428.2,410,429.4,408.6,429.4z"/>
			</g>
			<g>
				<g>
					<g>
						<rect x="217.3" y="389.6" class="st23" width="224.1" height="37.8"/>
					</g>
					<g>
						<g>
							<rect x="210.3" y="385.8" class="st19" width="233.5" height="7.5"/>
						</g>
						<g>
							<rect x="210.3" y="423.7" class="st19" width="233.5" height="7.5"/>
						</g>
						<g>
							<g>
								<rect x="217.3" y="393.3" class="st2" width="219.4" height="30.4"/>
							</g>
						</g>
					</g>
					<g>
						<g>
							<ellipse class="st2" cx="347" cy="364.6" rx="142.6" ry="20.5"/>
						</g>
						<g>
							<g>
								<rect x="237.6" y="343.4" class="st24" width="218.8" height="7"/>
							</g>
						</g>
						<g>
							<g>
								<rect x="237.6" y="378.9" class="st24" width="218.8" height="7"/>
							</g>
						</g>
					</g>
					<g>
						<g>
							<g>
								<path class="st19" d="M435.9,343.4H269.4c-3,0-5.4-2.4-5.4-5.4v-23.6c0-3,2.4-5.4,5.4-5.4H436c3,0,5.4,2.4,5.4,5.4V338
									C441.4,341,439,343.4,435.9,343.4z"/>
							</g>
						</g>
						<g>
							<rect x="273.8" y="309" class="st2" width="4.2" height="34.5"/>
						</g>
						<g>
							<rect x="282" y="309" class="st2" width="4.2" height="34.5"/>
						</g>
						<g>
							<g>
								<rect x="420.2" y="309" class="st2" width="4.2" height="34.5"/>
							</g>
							<g>
								<rect x="428.4" y="309" class="st2" width="4.2" height="34.5"/>
							</g>
						</g>
					</g>
				</g>
				<g>
					<g>
						<g>
							<polygon class="st15" points="353.9,278.9 342.7,289.6 350.8,289.7 356.9,283.7 353.9,420.2 468.9,420.2 468.9,278.9 							
								"/>
						</g>
					</g>
					<g>
						<polygon class="st2" points="457.7,426.3 464.4,420.2 464.4,283.7 356.9,283.7 350.8,289.7 457.7,289.7 						"/>
					</g>
					<g>
						<g>
							<rect x="342.7" y="289.6" class="st15" width="115" height="141.6"/>
						</g>
					</g>
					<g>
						<path class="st2" d="M433.2,344h-66c-2.9,0-5.3-2.4-5.3-5.3v-17c0-2.9,2.4-5.3,5.3-5.3h66c2.9,0,5.3,2.4,5.3,5.3v17
							C438.5,341.7,436.1,344,433.2,344z"/>
					</g>
				</g>
			</g>
			<g>
				<g>
					<path class="st15" d="M877,690.9H696.3c-4.7,0-8.5-3.8-8.5-8.5V571.6c0-4.7,3.8-8.5,8.5-8.5H877c4.7,0,8.5,3.8,8.5,8.5v110.8
						C885.5,687.1,881.7,690.9,877,690.9z"/>
				</g>
				<g>
					<path class="st2" d="M866.4,681.1H706.9c-4.1,0-7.3-3.3-7.3-7.3v-93.5c0-4.1,3.3-7.3,7.3-7.3h159.5c4.1,0,7.3,3.3,7.3,7.3v93.5
						C873.8,677.8,870.5,681.1,866.4,681.1z"/>
				</g>
				<g>
					<path class="st13" d="M797.6,633.7c0,0-3.3-1.2-10.7-0.5c-6.6,3.6,8.1,10.7,8.1,10.7l4-6.2C799.1,637.7,798.9,634,797.6,633.7z
						"/>
					<g>
						<path class="st4" d="M795.8,634c0-1.9,0-12.5,0-12.5h-9.5h-9.5c0,0,0,10.6,0,12.5c0,2.9-0.7,3.3-2,3.8
							c2.1,3.6,5.2,10.7,11.9,10.8c6.7-0.1,9.2-7.2,11.2-10.8C796.5,637.3,795.8,636.9,795.8,634z"/>
					</g>
					<g>
						<g>
							<rect x="808.5" y="658.4" class="st4" width="12.7" height="22.7"/>
						</g>
						<g>
							<polygon class="st5" points="821.2,660.9 821.2,662.4 807.6,674.9 807.6,660.3 							"/>
						</g>
					</g>
					<g>
						<g>
							<rect x="751.5" y="658.4" class="st4" width="12.7" height="22.7"/>
						</g>
						<g>
							<polygon class="st5" points="751.5,660.9 751.5,662.4 765.1,673.7 765.1,660.3 							"/>
						</g>
					</g>
					<g>
						<path class="st19" d="M801.6,637.7c0,0-10.4,10.8-15,10.8c-4.5,0-14.6-10.8-14.6-10.8c-12.5,0-22.7,9.6-22.7,21.5
							c0,0.2,0,0.9,0,0.9c0,0.4,0.3,0.6,0.7,0.7c3.4,0.6,12.9,7.2,12.9,7.2v13.1h47.5v-13.2c0,0,9.9-6.4,13.1-7.2
							c0.4-0.1,0.7-0.3,0.7-0.7c0,0,0.1-0.6,0.1-0.8C825,647.4,814.1,637.7,801.6,637.7z"/>
					</g>
					<g>
						<path class="st15" d="M779.1,640.5c4.1,4.1,5.9,6,5.9,6s-2.7,10.3-4.4,8.6c-1.8-1.7-10.9-14.6-8.7-19.5c0.5-1,4-2,4-2
							S776.2,637.6,779.1,640.5z"/>
					</g>
					<g>
						<path class="st15" d="M794.5,640.5c-4.1,4.1-5.9,6-5.9,6s2.7,10.3,4.4,8.6c1.8-1.7,10.9-14.6,8.7-19.5c-0.5-1-4-2-4-2
							S797.4,637.6,794.5,640.5z"/>
					</g>
					<g>
						<path class="st5" d="M786.3,621.5h-9.5c0,0,0,5.4,0,9.2c2.9,3.3,6.6,5.3,11.6,5.4c2.9-0.1,5.4-0.7,7.5-1.9v-0.1
							c0-1.9,0-12.5,0-12.5h-9.6V621.5z"/>
					</g>
					<g>
						<path class="st25" d="M765.8,599.2c0,0-3.5,27.7-1.1,41.7c0.3,1.6,2.9,5.2,4.1,7c4.7-0.6,9.8-8.7,10.4-10.7
							C782,627.1,765.8,599.2,765.8,599.2z"/>
						<circle class="st25" cx="764" cy="625.5" r="7.3"/>
						<path class="st25" d="M765.8,637.7c0,4.2-3.4,7.6-7.6,7.6c-4.2,0-7.6-3.4-7.6-7.6c0-4.2,3.4-7.6,7.6-7.6
							C762.4,630.1,765.8,633.5,765.8,637.7z"/>
						<path class="st25" d="M775,640.3c0,4.3-3.5,7.8-7.8,7.8s-7.8-3.5-7.8-7.8s3.5-7.8,7.8-7.8S775,636,775,640.3z"/>
					</g>
					<g>
						<g>
							<path class="st4" d="M804.2,620.6c2.8,0.6,5.3-3.3,5.3-7.4c0-2.3-1.5-4.9-3.8-4.4c-2.9,0.7-3.4,3.4-3.4,3.4v6.4
								C802.2,618.6,802.7,620.3,804.2,620.6z"/>
						</g>
						<g>
							<path class="st5" d="M803.5,619.7c1.9,0.4,3.5-2.5,3.5-5.6c0-1.7-1-3.7-2.5-3.3c-2,0.5-2.3,2.6-2.3,2.6v4.8
								C802.2,618.2,802.5,619.4,803.5,619.7z"/>
						</g>
					</g>
					<g>
						<g>
							<path class="st4" d="M768.6,620.6c-2.8,0.6-5.3-3.3-5.3-7.4c0-2.3,1.5-4.9,3.8-4.4c2.9,0.7,3.4,3.4,3.4,3.4v6.4
								C770.5,618.6,770.1,620.3,768.6,620.6z"/>
						</g>
						<g>
							<path class="st5" d="M769.2,619.7c-1.9,0.4-3.5-2.5-3.5-5.6c0-1.7,1-3.7,2.5-3.3c2,0.5,2.3,2.6,2.3,2.6v4.8
								C770.5,618.2,770.2,619.4,769.2,619.7z"/>
						</g>
					</g>
					<g>
						<path class="st14" d="M800.5,594.9c-5.5-3.9-22.1-3.9-27.6,0c-4.3,3-6.2,13.9-3.7,22.4c3,10.2,8.1,16.9,17.5,17.1
							c9.4-0.2,14.4-6.9,17.5-17.1C806.7,608.8,804.8,598,800.5,594.9z"/>
					</g>
					<g>
						<path class="st4" d="M800.5,594.9c-5.5-3.9-22.1-3.9-27.6,0c-4.3,3-6.2,13.9-3.7,22.4c3,10.2,8.1,16.9,17.5,17.1
							c9.4-0.2,14.4-6.9,17.5-17.1C806.7,608.8,804.8,598,800.5,594.9z"/>
					</g>
					<g>
						<path class="st16" d="M807.6,591.1c-4.5-10-17.6-10.4-21.2-10.4c-3.7,0-16.7,0.5-21.2,10.4c-3.4,7.4-1.8,20.7-1.8,21.3
							l2.4-0.3c0-0.1-1.5-13.2,1.6-20c3.6-8,16.8-8.7,19-8.7c2.9,0,15.4,0.7,19.1,8.7c3.1,6.8,1.6,19.9,1.6,20l2.4,0.3
							C809.4,611.8,810.9,598.5,807.6,591.1z"/>
					</g>
					<g>
						<g>
							<g>
								<path class="st0" d="M803.6,619.9c-0.2,0.9,0.4,1.7,1.3,1.9l0,0c3.3,0.8,6.5-1.3,7-4.7l0.4-2.2c0.5-3.3-1.7-6.5-5.1-7h-0.4
									c-1-0.1-1.8,0.6-1.8,1.6c-0.1,1.6-0.2,3.9-0.4,5C804.4,615.6,803.9,618.2,803.6,619.9z"/>
							</g>
							<g>
								<path class="st0" d="M770,619.9c0.2,0.9-0.4,1.7-1.3,1.9l0,0c-3.3,0.8-6.5-1.3-7-4.7l-0.4-2.2c-0.5-3.3,1.7-6.5,5.1-7h0.4
									c1-0.1,1.8,0.6,1.8,1.6c0.1,1.6,0.2,3.9,0.4,5S769.7,618.2,770,619.9z"/>
							</g>
						</g>
					</g>
					<g>
						<path class="st25" d="M798.5,597l5.8,20.3l2.7-8.6c0,0,0.9-4.7,0.2-9.5c-3.9-26.6-40-22.6-41.3,0c-0.2,3.4,0.3,9.5,0.3,9.5
							l4.7,19.6c0,0-2-20.3,0.7-23.3c1.5-1.7,8.2-1.2,14.7-1.8C792.8,602.4,798.5,597,798.5,597z"/>
					</g>
					<g>
						<path class="st3" d="M807,614.2c-0.5-0.1-1.1,0.2-1.2,0.7l-0.5,2.8c-0.1,0.3,0,0.6,0.2,0.9c-0.7,1.7-1.8,4-3.8,6
							c-3.3,3.4-8.4,2.7-10.7,2.2c-0.1-0.3-0.3-0.5-0.6-0.6l-2.4-0.6c-0.5-0.1-1,0.2-1.1,0.7s0.2,1,0.7,1.1l2.4,0.6
							c0.3,0.1,0.6,0,0.8-0.2c0.3,0.1,0.6,0.1,0.9,0.2c2.7,0.5,7.5,0.8,10.8-2.7c2.1-2.2,3.3-4.5,4-6.4c0.4-0.1,0.7-0.3,0.8-0.7
							l0.5-2.8C807.9,614.9,807.6,614.3,807,614.2z"/>
					</g>
				</g>
				<g>
					<g>
						<path class="st19" d="M880.7,505.8h-60.2c-6.7,0-12.1,5.4-12.1,12.1v33.4c0,6.7,5.4,12.1,12.1,12.1l-12.1,21.1l33.1-21.1h39.1
							c6.7,0,12.1-5.4,12.1-12.1v-33.4C892.8,511.2,887.4,505.8,880.7,505.8z"/>
					</g>
					<g>
						<g>
							<g>
								<g>
									<rect x="821.6" y="516.7" class="st2" width="58.1" height="2.5"/>
								</g>
							</g>
							<g>
								<g>
									<rect x="821.6" y="528.1" class="st2" width="58.1" height="2.5"/>
								</g>
							</g>
						</g>
						<g>
							<g>
								<g>
									<rect x="821.6" y="538.1" class="st2" width="58.1" height="2.5"/>
								</g>
							</g>
							<g>
								<g>
									<rect x="821.6" y="549.5" class="st2" width="58.1" height="2.5"/>
								</g>
							</g>
						</g>
					</g>
				</g>
			</g>
			<g>
				<g>
					<g>
						<path class="st13" d="M606.8,626.2V443.4c0-4.8,3.9-8.6,8.6-8.6h112.1c4.8,0,8.6,3.9,8.6,8.6v182.8c0,4.8-3.9,8.6-8.6,8.6
							H615.4C610.6,634.9,606.8,631,606.8,626.2z"/>
					</g>
					<g>
						<g>
							<path class="st2" d="M621.3,603.7V455.8c0-3.8,3-6.8,6.8-6.8h86.7c3.8,0,6.8,3,6.8,6.8v147.9c0,3.8-3,6.8-6.8,6.8h-86.7
								C624.3,610.5,621.3,607.4,621.3,603.7z"/>
						</g>
					</g>
				</g>
				<g class="st26">
					<g>
						<path class="st7" d="M688.5,545.7h-32.6c-2.3,0-4.3-1.9-4.3-4.3v-25.1c0-2.3,1.9-4.3,4.3-4.3h32.6c2.3,0,4.3,1.9,4.3,4.3v25.1
							C692.7,543.8,690.8,545.7,688.5,545.7z"/>
					</g>
					<g>
						<path class="st2" d="M683,527.7l-15.1-8.7c-1-0.6-2.2,0.1-2.2,1.2v17.5c0,1.1,1.2,1.8,2.2,1.2l15.1-8.7
							C684,529.6,684,528.2,683,527.7z"/>
					</g>
				</g>
				<path class="st15" d="M687.7,617h-32.6c-2.8,0-5,2.3-5,5s2.3,5,5,5h32.6c2.8,0,5-2.3,5-5S690.5,617,687.7,617z"/>
			</g>
		</g>
		<g>
			<path class="st2" d="M584.4,227.7h-85.1c-10.2,0-18.5,8.3-18.5,18.5s8.3,18.5,18.5,18.5h85.1c10.2,0,18.5-8.3,18.5-18.5
				S594.6,227.7,584.4,227.7z"/>
			
				<ellipse transform="matrix(0.2298 -0.9732 0.9732 0.2298 172.8462 679.8901)" class="st2" cx="516" cy="230.7" rx="17.7" ry="17.7"/>
			
				<ellipse transform="matrix(0.7071 -0.7071 0.7071 0.7071 1.2237 460.5243)" class="st2" cx="556.5" cy="228.8" rx="30.4" ry="30.4"/>
		</g>
		<g>
			<g>
				<g>
					<path class="st3" d="M195.9,471.3h81.6c9.8,0,17.7,7.9,17.7,17.7c0,9.8-7.9,17.7-17.7,17.7h-81.6c-9.8,0-17.7-7.9-17.7-17.7
						C178.2,479.2,186.1,471.3,195.9,471.3z"/>
					<ellipse class="st3" cx="261.6" cy="474.1" rx="17" ry="17"/>
					<circle class="st3" cx="222.7" cy="472.3" r="29.1"/>
				</g>
			</g>
			<g>
				<path class="st2" d="M294.9,513.4h-70.6c-8.5,0-15.3,6.9-15.3,15.3c0,8.5,6.9,15.3,15.3,15.3h70.6c8.5,0,15.3-6.9,15.3-15.3
					C310.2,520.2,303.4,513.4,294.9,513.4z"/>
				
					<ellipse transform="matrix(0.2298 -0.9732 0.9732 0.2298 -318.6602 629.0074)" class="st2" cx="238.1" cy="515.8" rx="14.7" ry="14.7"/>
				<ellipse class="st2" cx="271.7" cy="514.2" rx="25.2" ry="25.2"/>
			</g>
		</g>
		<g>
			<g>
				<g>
					<path class="st3" d="M859,429.1h-72.9c-8.8,0-15.8,7.1-15.8,15.8c0,8.8,7.1,15.8,15.8,15.8H859c8.8,0,15.8-7.1,15.8-15.8
						C874.9,436.2,867.8,429.1,859,429.1z"/>
					<ellipse class="st3" cx="800.3" cy="431.6" rx="15.2" ry="15.2"/>
					<ellipse class="st3" cx="835.1" cy="430" rx="26" ry="26"/>
				</g>
			</g>
			<g>
				<path class="st2" d="M770.6,466.7h63.1c7.6,0,13.7,6.1,13.7,13.7s-6.1,13.7-13.7,13.7h-63.1c-7.6,0-13.7-6.1-13.7-13.7
					C756.9,472.8,763,466.7,770.6,466.7z"/>
				<circle class="st2" cx="821.3" cy="468.9" r="13.1"/>
				<ellipse class="st2" cx="791.3" cy="467.5" rx="22.5" ry="22.5"/>
			</g>
		</g>
		<g>
			<path class="st3" d="M397.9,234.9h-2c-1.3,0-2.3-1-2.3-2.3v-2c0-1.3-1-2.3-2.3-2.3l0,0c-1.3,0-2.3,1-2.3,2.3v2
				c0,1.3-1,2.3-2.3,2.3h-2c-1.3,0-2.3,1-2.3,2.3l0,0c0,1.3,1,2.3,2.3,2.3h2c1.3,0,2.3,1,2.3,2.3v2c0,1.3,1,2.3,2.3,2.3l0,0
				c1.3,0,2.3-1,2.3-2.3v-2c0-1.3,1-2.3,2.3-2.3h2c1.3,0,2.3-1,2.3-2.3l0,0C400.2,235.9,399.2,234.9,397.9,234.9z"/>
			<path class="st3" d="M504.9,328h-2c-1.3,0-2.3-1-2.3-2.3v-2c0-1.3-1-2.3-2.3-2.3l0,0c-1.3,0-2.3,1-2.3,2.3v2c0,1.3-1,2.3-2.3,2.3
				h-2c-1.3,0-2.3,1-2.3,2.3l0,0c0,1.3,1,2.3,2.3,2.3h2c1.3,0,2.3,1,2.3,2.3v2c0,1.3,1,2.3,2.3,2.3l0,0c1.3,0,2.3-1,2.3-2.3v-2
				c0-1.3,1-2.3,2.3-2.3h2c1.3,0,2.3-1,2.3-2.3l0,0C507.2,329,506.2,328,504.9,328z"/>
			<path class="st3" d="M293.8,264.3h-2c-1.3,0-2.3-1-2.3-2.3v-2c0-1.3-1-2.3-2.3-2.3l0,0c-1.3,0-2.3,1-2.3,2.3v2
				c0,1.3-1,2.3-2.3,2.3h-2c-1.3,0-2.3,1-2.3,2.3l0,0c0,1.3,1,2.3,2.3,2.3h2c1.3,0,2.3,1,2.3,2.3v2c0,1.3,1,2.3,2.3,2.3l0,0
				c1.3,0,2.3-1,2.3-2.3v-2c0-1.3,1-2.3,2.3-2.3h2c1.3,0,2.3-1,2.3-2.3l0,0C296.1,265.3,295.1,264.3,293.8,264.3z"/>
			<path class="st3" d="M899.5,480.7h-2c-1.3,0-2.3-1-2.3-2.3v-2c0-1.3-1-2.3-2.3-2.3l0,0c-1.3,0-2.3,1-2.3,2.3v2
				c0,1.3-1,2.3-2.3,2.3h-2c-1.3,0-2.3,1-2.3,2.3l0,0c0,1.3,1,2.3,2.3,2.3h2c1.3,0,2.3,1,2.3,2.3v2c0,1.3,1,2.3,2.3,2.3l0,0
				c1.3,0,2.3-1,2.3-2.3v-2c0-1.3,1-2.3,2.3-2.3h2c1.3,0,2.3-1,2.3-2.3l0,0C901.8,481.8,900.8,480.7,899.5,480.7z"/>
			<path class="st3" d="M730.3,777.2h-2.9c-1.8,0-3.3-1.5-3.3-3.3V771c0-1.8-1.5-3.3-3.3-3.3l0,0c-1.8,0-3.3,1.5-3.3,3.3v2.9
				c0,1.8-1.5,3.3-3.3,3.3h-2.9c-1.8,0-3.3,1.5-3.3,3.3l0,0c0,1.8,1.5,3.3,3.3,3.3h2.9c1.8,0,3.3,1.5,3.3,3.3v2.9
				c0,1.8,1.5,3.3,3.3,3.3l0,0c1.8,0,3.3-1.5,3.3-3.3v-3c0-1.8,1.5-3.3,3.3-3.3h2.9c1.8,0,3.3-1.5,3.3-3.3l0,0
				C733.5,778.7,732.1,777.2,730.3,777.2z"/>
			<path class="st3" d="M397.8,766.1h-2c-1.3,0-2.3-1-2.3-2.3v-2c0-1.3-1-2.3-2.3-2.3l0,0c-1.3,0-2.3,1-2.3,2.3v2
				c0,1.3-1,2.3-2.3,2.3h-2c-1.3,0-2.3,1-2.3,2.3l0,0c0,1.3,1,2.3,2.3,2.3h2c1.3,0,2.3,1,2.3,2.3v2c0,1.3,1,2.3,2.3,2.3l0,0
				c1.3,0,2.3-1,2.3-2.3v-2c0-1.3,1-2.3,2.3-2.3h2c1.3,0,2.3-1,2.3-2.3l0,0C400.1,767.1,399.1,766.1,397.8,766.1z"/>
			<path class="st3" d="M456.7,192.4H453c-2.3,0-4.2-1.9-4.2-4.2v-3.7c0-2.3-1.9-4.2-4.2-4.2l0,0c-2.3,0-4.2,1.9-4.2,4.2v3.7
				c0,2.3-1.9,4.2-4.2,4.2h-3.7c-2.3,0-4.2,1.9-4.2,4.2l0,0c0,2.3,1.9,4.2,4.2,4.2h3.7c2.3,0,4.2,1.9,4.2,4.2v3.7
				c0,2.3,1.9,4.2,4.2,4.2l0,0c2.3,0,4.2-1.9,4.2-4.2V205c0-2.3,1.9-4.2,4.2-4.2h3.7c2.3,0,4.2-1.9,4.2-4.2l0,0
				C460.9,194.3,459,192.4,456.7,192.4z"/>
			<path class="st3" d="M504.5,628.9h-5.2c-3.3,0-5.9-2.6-5.9-5.9v-5.2c0-3.3-2.6-5.9-5.9-5.9l0,0c-3.3,0-5.9,2.6-5.9,5.9v5.2
				c0,3.3-2.6,5.9-5.9,5.9h-5.2c-3.3,0-5.9,2.6-5.9,5.9l0,0c0,3.3,2.6,5.9,5.9,5.9h5.2c3.3,0,5.9,2.6,5.9,5.9v5.2
				c0,3.3,2.6,5.9,5.9,5.9l0,0c3.3,0,5.9-2.6,5.9-5.9v-5.2c0-3.3,2.6-5.9,5.9-5.9h5.2c3.3,0,5.9-2.6,5.9-5.9l0,0
				C510.4,631.6,507.7,628.9,504.5,628.9z"/>
		</g>
	</g>
</g>
</svg>
