<?xml version="1.0" encoding="utf-8"?>
<!-- Generator: Adobe Illustrator 27.3.1, SVG Export Plug-In . SVG Version: 6.00 Build 0)  -->
<svg version="1.1" id="Layer_1" xmlns="http://www.w3.org/2000/svg" xmlns:xlink="http://www.w3.org/1999/xlink" x="0px" y="0px"
	 viewBox="0 0 40 40" style="enable-background:new 0 0 40 40;" xml:space="preserve">
<style type="text/css">
	.st0{fill:#FFFFFF;}
</style>
<g>
	<path class="st0" d="M39.5,26.4c-1.7,0-3.3,0-5,0c0.5-1.1-0.6-1.3-1-2c0.5,0,1,0,1.5,0c0.6,0,0.7-0.1,0.7-0.7c0-5.7,0-11.4,0-17.1
		c0-0.6-0.1-0.7-0.8-0.7c-0.9,0-1.8,0-2.7,0c0-0.6,0-1.2,0-1.8c0-0.4-0.2-0.6-0.6-0.6c-3.6,0-7.2,0.4-10.5,2c-0.8,0.4-1.5,0.4-2.3,0
		c-2.2-1.1-4.5-1.6-6.9-1.8c-1.2-0.1-2.3-0.1-3.5-0.2c-0.5,0-0.7,0.2-0.7,0.7c0,0.6,0,1.1,0,1.7c-0.8,0-1.6,0-2.4,0
		c-1.1,0-1.1,0-1.1,1.1c0,5.5,0,11,0,16.5c0,0.9,0.1,0.9,0.9,0.9c6.2,0,12.4,0,18.5,0c0.2,0,0.3,0,0.6,0c-0.1,0.7-0.2,1.3-0.2,2
		c-7.8,0-15.7,0-23.5,0c0-0.2,0-0.3,0-0.5c0-7.4,0-14.8,0-22.2c0-1.5,0.8-2.3,2.3-2.3c11.5,0,22.9,0,34.4,0c1.5,0,2.3,0.8,2.3,2.3
		c0,7.4,0,14.9,0,22.3C39.5,26.1,39.5,26.2,39.5,26.4z"/>
	<path class="st0" d="M8.8,20.8c0-5.5,0-10.9,0-16.3c0,0,0.1-0.1,0.1-0.1c3.4,0,6.7,0.5,9.8,1.9c0.7,0.3,0.9,0.7,0.9,1.4
		c0,5,0,10,0,15c0,0.2,0,0.4,0,0.6c-0.2-0.1-0.4-0.1-0.5-0.1c-2.6-1.4-5.5-2-8.5-2.3C9.9,20.9,9.4,20.8,8.8,20.8z M11.6,10.8
		c-0.1,0-0.3,0-0.4,0c-0.3,0-0.5,0.2-0.5,0.5c0,0.3,0.2,0.5,0.4,0.5c0.1,0,0.2,0,0.3,0c1.8,0.1,3.5,0.3,5.2,1.1
		c0.3,0.1,0.6,0.1,0.8-0.2c0.2-0.3,0-0.5-0.3-0.7c-0.1-0.1-0.2-0.1-0.3-0.1C15.2,11.2,13.4,10.9,11.6,10.8z M11.7,7.6
		c-0.2,0-0.4-0.1-0.5,0C11,7.7,10.8,7.9,10.7,8c0,0.1,0.2,0.4,0.3,0.5c0.1,0.1,0.2,0,0.4,0.1c1.8,0.1,3.6,0.3,5.3,1.1
		c0.3,0.2,0.6,0.1,0.7-0.2c0.1-0.3,0-0.6-0.3-0.7c-0.2-0.1-0.4-0.2-0.7-0.3C15,7.9,13.3,7.7,11.7,7.6z M12,17.3c-0.2,0-0.5,0-0.7,0
		c-0.3,0-0.6,0.2-0.6,0.5c0,0.3,0.2,0.5,0.5,0.5c0.1,0,0.2,0,0.3,0c1.5,0.1,3,0.3,4.5,0.8c0.3,0.1,0.5,0.2,0.7,0.3
		c0.3,0.1,0.5,0.1,0.7-0.2c0.1-0.3,0-0.5-0.2-0.7c-0.2-0.1-0.4-0.2-0.6-0.3C15.1,17.7,13.6,17.4,12,17.3z M11.5,14c0,0,0,0-0.1,0
		c-0.5,0-0.7,0.2-0.7,0.5c0,0.3,0.2,0.5,0.7,0.5c1.9,0.1,3.7,0.3,5.4,1.1c0.3,0.1,0.6,0.1,0.7-0.2c0.1-0.3,0-0.6-0.3-0.7
		c-0.2-0.1-0.5-0.2-0.7-0.3C14.9,14.4,13.3,14.1,11.5,14z"/>
	<path class="st0" d="M31.3,4.4c0,5.5,0,11,0,16.4c-0.5,0-1,0.1-1.5,0.1c-0.1,0-0.2-0.1-0.3-0.2c-1-0.9-1.9-1.7-2.8-2.6
		c-0.3-0.2-0.5-0.4-0.9-0.3c-0.4,0.1-0.5,0.4-0.6,0.8c-0.1,1-0.3,1.9-0.4,2.9c0,0.2-0.1,0.3-0.3,0.4c-1.1,0.5-2.3,0.9-3.4,1.4
		c-0.1,0-0.3,0.1-0.5,0.1c0-0.2,0-0.4,0-0.5c0-5.2,0-10.4,0-15.6c0-0.4,0.1-0.5,0.4-0.7c2-1.1,4.2-1.6,6.5-1.9
		C28.7,4.5,29.9,4.5,31.3,4.4z M22.9,13.1c0.2,0,0.3-0.1,0.3-0.1c1.7-0.8,3.5-1.1,5.4-1.2c0.4,0,0.7-0.2,0.7-0.5
		c-0.1-0.4-0.3-0.5-0.7-0.5c-1.3,0.2-2.6,0.3-3.9,0.6c-0.7,0.1-1.3,0.4-1.9,0.7c-0.1,0.1-0.3,0.4-0.2,0.6
		C22.6,12.8,22.8,13,22.9,13.1z M28.3,7.6c-0.3,0-0.7,0.1-1.1,0.1c-1.5,0.2-2.9,0.5-4.2,1.1c-0.4,0.2-0.5,0.5-0.4,0.8
		c0.2,0.3,0.5,0.3,0.8,0.2c1.3-0.6,2.6-0.9,4-1c0.5,0,1-0.1,1.4-0.1c0.3,0,0.5-0.2,0.5-0.5c0-0.3-0.2-0.5-0.5-0.5
		C28.6,7.6,28.5,7.6,28.3,7.6z M24.7,14.4c-0.5,0-0.7,0.3-0.6,0.7c0.1,0.4,0.3,0.9,0.5,1.3c0.1,0.3,0.3,0.4,0.6,0.3
		c0.3-0.1,0.4-0.4,0.3-0.7c-0.1-0.4-0.3-0.9-0.5-1.3C24.9,14.6,24.7,14.5,24.7,14.4z M28.4,14.9c-0.2-0.2-0.3-0.4-0.4-0.4
		c-0.2,0-0.5,0-0.5,0.2c-0.3,0.5-0.5,1-0.6,1.5c0,0.1,0.1,0.4,0.2,0.5c0.1,0.1,0.5,0,0.6-0.1C27.9,16.1,28.1,15.5,28.4,14.9z
		 M22.1,16.5c-0.2,0.2-0.4,0.3-0.4,0.4c0,0.2,0,0.5,0.2,0.6c0.4,0.3,0.9,0.5,1.4,0.7c0.1,0.1,0.4-0.1,0.5-0.2c0.1-0.1,0.1-0.5,0-0.6
		C23.2,17.1,22.6,16.8,22.1,16.5z M22.4,20.9c0.5-0.2,1-0.4,1.4-0.6c0.1-0.1,0.2-0.4,0.1-0.6c-0.1-0.1-0.4-0.3-0.5-0.3
		c-0.4,0.1-0.8,0.2-1.2,0.4c-0.1,0.1-0.3,0.4-0.3,0.5C22,20.6,22.2,20.7,22.4,20.9z M28.5,18.6c0.5-0.2,1-0.4,1.4-0.6
		c0.1-0.1,0.2-0.4,0.1-0.5c-0.1-0.2-0.4-0.3-0.5-0.3c-0.4,0.1-0.9,0.3-1.3,0.5c-0.1,0.1-0.2,0.4-0.2,0.6
		C28.1,18.4,28.3,18.5,28.5,18.6z"/>
	<path class="st0" d="M27.7,28.6c0.2,0.6,0.4,1.1,0.6,1.7c-0.2,0-0.4,0-0.5,0c-8.3,0-16.6,0-25,0c-1.3,0-2.5-0.8-2.3-2.7
		c0-0.1,0.1-0.2,0.2-0.2c0.1,0,0.2,0,0.3,0c7.4,0,14.9,0,22.3,0c0.2,0,0.3,0,0.5,0c-0.1,0.5-0.1,1-0.2,1.4c-0.1,0.4-0.1,0.8,0.3,1.1
		c0.4,0.3,0.8,0.2,1.2,0C26,29.5,26.8,29.1,27.7,28.6z"/>
	<path class="st0" d="M31.9,38.6c-7.9,0-15.8,0-23.7,0c0-0.5,0-0.9,0-1.4c0.1-0.5,0.4-0.8,0.8-0.9c0.2-0.1,0.4-0.1,0.7-0.1
		c6.9,0,13.8,0,20.6,0c1.2,0,1.6,0.4,1.6,1.6C31.9,38.1,31.9,38.3,31.9,38.6z"/>
	<path class="st0" d="M5.3,6.9c0.8,0,1.6,0,2.4,0c0,0.2,0,0.3,0,0.5c0,4.4,0,8.7,0,13.1c0,1.3-0.1,1.3,1.3,1.4
		c2.5,0.1,4.9,0.4,7.2,1.2c0.1,0,0.2,0.1,0.3,0.2c-3.7,0-7.5,0-11.2,0C5.3,17.8,5.3,12.4,5.3,6.9z"/>
	<path class="st0" d="M31.3,31.3c-0.5,0.2-0.9,0.3-1.4,0.5c-0.1-0.1-0.1-0.3-0.2-0.4c-0.4-1.2-0.8-2.3-1.3-3.5
		c-0.2-0.5-0.4-0.6-0.9-0.4c-0.8,0.4-1.6,0.8-2.3,1.2c-0.1,0.1-0.2,0.1-0.4,0.2c0.4-3.3,0.8-6.6,1.3-10c2.5,2.3,4.9,4.5,7.4,6.8
		c-0.8,0.2-1.6,0.4-2.4,0.6c-0.2,0.1-0.5,0.1-0.7,0.2c-0.5,0.1-0.6,0.4-0.4,0.8c0.4,1.2,0.9,2.4,1.3,3.7
		C31.3,31.1,31.3,31.2,31.3,31.3z"/>
	<path class="st0" d="M34.7,23.3c-0.8,0-1.5,0-2.3,0c-0.1,0-0.2-0.1-0.3-0.1c-0.5-0.4-0.9-0.8-1.5-1.3c0.4,0,0.6,0,0.9,0
		c0.6,0,0.8-0.2,0.8-0.8c0-4.6,0-9.1,0-13.7c0-0.2,0-0.3,0-0.5c0.8,0,1.6,0,2.4,0C34.7,12.4,34.7,17.8,34.7,23.3z"/>
	<path class="st0" d="M25.5,35.2c-3.7,0-7.3,0-11,0c0.4-1.2,0.8-2.4,1.1-3.6c0-0.1,0.2-0.2,0.3-0.2c2.8,0,5.6,0,8.4,0
		C24.7,32.7,25.1,33.9,25.5,35.2z"/>
	<path class="st0" d="M31,27.4c2.8,0,5.6,0,8.4,0c0.3,1.4-0.3,2.6-1.5,2.9c-0.2,0-0.4,0.1-0.5,0.1c-1.6,0-3.3,0-4.9,0
		c-0.3,0-0.4-0.1-0.5-0.3C31.7,29.2,31.3,28.4,31,27.4z"/>
	<path class="st0" d="M24.4,22.9c0,0.5-0.2,0.6-1.1,0.4C23.8,23.1,24.1,23,24.4,22.9z"/>
</g>
</svg>
