<?xml version="1.0" encoding="utf-8"?>
<!-- Generator: Adobe Illustrator 24.1.3, SVG Export Plug-In . SVG Version: 6.00 Build 0)  -->
<svg version="1.1" id="Layer_1" xmlns="http://www.w3.org/2000/svg" xmlns:xlink="http://www.w3.org/1999/xlink" x="0px" y="0px"
	 viewBox="0 0 720 1600" style="enable-background:new 0 0 720 1600;" xml:space="preserve">
<style type="text/css">
	.st0{fill:#FF6666;}
	.st1{fill:#FFFFFF;}
</style>
<image style="display:none;overflow:visible;" width="127" height="118" xlink:href="images/mobilapp2_37.png"  transform="matrix(1 0 0 1 297 741)">
</image>
<circle class="st0" cx="356.3" cy="795.9" r="48"/>
<g>
	<g>
		<path class="st1" d="M372.6,795.3h-14.1v-14.1c0-0.7-0.6-1.3-1.3-1.3c-0.7,0-1.3,0.6-1.3,1.3v14.1h-14.1c-0.7,0-1.3,0.6-1.3,1.3
			s0.6,1.3,1.3,1.3h14.1v14.1c0,0.7,0.6,1.3,1.3,1.3c0.7,0,1.3-0.6,1.3-1.3V798h14.1c0.7,0,1.3-0.6,1.3-1.3S373.4,795.3,372.6,795.3
			z"/>
	</g>
</g>
</svg>
