<svg id="Layer_1" data-name="Layer 1" xmlns="http://www.w3.org/2000/svg" viewBox="0 0 57 38"><g id="_1" data-name="1"><path d="M154.63077,624.97669H126.7437a5.20586,5.20586,0,0,0-5.19972,5.20006V646.1884a5.20586,5.20586,0,0,0,5.19972,5.20006h27.88707a5.20608,5.20608,0,0,0,5.19973-5.20006V630.17675A5.20608,5.20608,0,0,0,154.63077,624.97669Zm-27.88707,2.66093h27.88707a2.54227,2.54227,0,0,1,2.53947,2.53913v1.66741l-16.79959,5.32455-16.16675-5.31344v-1.67852A2.54234,2.54234,0,0,1,126.7437,627.63762Zm27.88707,21.09025H126.7437a2.54262,2.54262,0,0,1-2.5398-2.53947V634.65514l16.15194,5.30806,16.8144-5.32791V646.1884A2.54255,2.54255,0,0,1,154.63077,648.72787Z" transform="translate(-113 -618)" style="fill:#ccc;opacity:0.5"/></g><rect id="_Slice_" data-name="&lt;Slice&gt;" width="57" height="38" style="fill:none"/></svg>