<?xml version="1.0" encoding="utf-8"?>
<!-- Generator: Adobe Illustrator 24.1.3, SVG Export Plug-In . SVG Version: 6.00 Build 0)  -->
<svg version="1.1" id="Layer_1" xmlns="http://www.w3.org/2000/svg" xmlns:xlink="http://www.w3.org/1999/xlink" x="0px" y="0px"
	 viewBox="0 0 1080 1080" style="enable-background:new 0 0 1080 1080;" xml:space="preserve">
<style type="text/css">
	.st0{fill:#7ABAB9;}
	.st1{fill:#0E1A2C;}
	.st2{fill:#A76444;}
	.st3{fill:#B66F4D;}
	.st4{fill:#CF855C;}
	.st5{opacity:0.2;fill:#962F2A;enable-background:new    ;}
	.st6{fill:#66A8C0;}
	.st7{fill:#4890A2;}
	.st8{fill:#234D6B;}
	.st9{fill:#51372C;}
	.st10{fill:#193E52;}
	.st11{fill:#DAE9F1;}
	.st12{fill:#3D5A6D;}
	.st13{fill:#365263;}
	.st14{fill:#477E9D;}
	.st15{fill:#F2B17E;}
	.st16{opacity:0.4;fill:#962F2A;enable-background:new    ;}
	.st17{fill:#80BFDB;}
	.st18{fill:#FFFFFF;}
	.st19{fill:#C2D7E4;}
	.st20{opacity:0.7;fill:#58A4B9;enable-background:new    ;}
	.st21{fill:#98C9DC;}
	.st22{fill:#704C3C;}
	.st23{opacity:0.6;fill:#5B3C30;enable-background:new    ;}
	.st24{fill:#5B3C30;}
	.st25{fill:#7F3F26;}
	.st26{fill:#213B55;}
	.st27{fill:#442B24;}
	.st28{fill:#E09C6F;}
	.st29{fill:#B0C7DA;}
	.st30{fill:#90ACBD;}
	.st31{fill:#2D4A57;}
	.st32{fill:#A0612C;}
	.st33{fill:#26414C;}
	.st34{fill:#D6E4F4;}
	.st35{fill:#AEC6DA;}
	.st36{fill:#8AA8B9;}
	.st37{fill:#406C3A;}
	.st38{fill:#CCE7EE;}
	.st39{fill:#558B50;}
	.st40{opacity:0.4;fill:#3E6A3A;enable-background:new    ;}
	.st41{fill:#53ADD3;}
	.st42{fill:#481316;}
	.st43{fill:#342F35;}
	.st44{fill:#1C191E;}
	.st45{fill:#AF2624;}
	.st46{opacity:0.4;fill:#6D1313;enable-background:new    ;}
	.st47{fill:#6D1313;}
	.st48{fill:#97B3C5;}
	.st49{fill:#94342C;}
	.st50{fill:#E6847A;}
	.st51{fill:#BF7939;}
	.st52{fill:#412922;}
	.st53{fill:#188A87;}
	.st54{fill:#14726D;}
	.st55{fill:#0E4C47;}
	.st56{fill:#A0BACF;}
	.st57{fill:#AB9688;}
	.st58{fill:#8C796E;}
	.st59{fill:#705B50;}
	.st60{fill:#18A1A2;}
	.st61{opacity:0.6;fill:#15807D;enable-background:new    ;}
	.st62{fill:none;stroke:#1B181C;stroke-width:1.1346;stroke-miterlimit:10;}
	.st63{fill:#A1BDD1;}
	.st64{fill:#88A9BC;}
	.st65{fill:#1B181C;}
	.st66{fill:#131113;}
	.st67{fill:#0C0B0D;}
	.st68{fill:#35AFAA;}
	.st69{opacity:0.3;fill:#15807D;enable-background:new    ;}
	.st70{fill:#1F3859;}
	.st71{opacity:0.4;fill:#336396;enable-background:new    ;}
	.st72{fill:#172B43;}
	.st73{fill:#0D1A28;}
	.st74{fill:#CF2E29;}
</style>
<g id="communicate3">
	<g>
		<rect x="-32.3" y="-13.9" class="st0" width="1172.4" height="1121.4"/>
	</g>
	<g>
		<g>
			<g>
				<g>
					<path class="st1" d="M415.3,623.1c0,0-11.4-0.3-15,6.5s-2.7,69.9-2.7,69.9s-12.1,64.8-10.2,75.4c1.9,10.5,12.3,25.8,32.7,32.7
						c20.4,6.9,37.7-37.5,37.7-37.5l-22.7-129.4L415.3,623.1z"/>
					<g>
						<path class="st2" d="M526.9,867.2h4l-3-20.3l-3.4,4.5c0,0,1.5,5.3,2.2,8.1C527.1,861.1,527,864.5,526.9,867.2z"/>
						<path class="st3" d="M527.9,859.5c0.4,1.3,0.4,4.8,0.4,7.7h4l-2.7-22.4l-6.3,3l2.9,5.9C526.3,853.7,527.2,857.2,527.9,859.5z"
							/>
						<g>
							<path class="st4" d="M533.8,643.5c0,0,2.8,32.5,1,62.8c0,0-1.7,13-1.1,19.6c0,0,1.8,44.1,0,70.5l-1.6,34
								c0,0-1.2,10.6-9.7,1.4c0,0-8.9-76.6-4.8-103.5c0,0,1.4-6-2.8-19.5c-4.2-13.4-3.4-66.1-3.4-69.6
								C511.4,635.6,533.8,643.5,533.8,643.5z"/>
							<path class="st5" d="M512.7,695.8l5.9,11.8l16.4-4.9c0.3-7.1,0.5-14.3,0.4-21.1l-23.3,6.4
								C512.3,690.7,512.5,693.3,512.7,695.8z"/>
							<path class="st6" d="M526.1,612.9c0,0,4.4,0.1,6.8,7.5c2.4,7.4,15,68.1,15,68.1s-18.9,14.8-33.4,10.1
								C502.6,694.7,526.1,612.9,526.1,612.9z"/>
							<path class="st7" d="M534.2,671.8c0-2.5-4.2-3.3-5-3.3s2-12.2,2-12.2c1.1-5.4-6.3-30.7-6.3-30.7l-2.3,0.3
								c-6.1,23.2-17.1,69.9-8.1,72.8c5.1,1.7,10.6,0.9,15.8-0.7C529.3,689.2,534.2,673.9,534.2,671.8z"/>
							<path class="st8" d="M512.2,696.1c0.5,1.3,1.3,2.2,2.3,2.5c14.5,4.8,33.4-10.1,33.4-10.1s-0.4-2.1-1.2-5.7
								C530.6,695.5,517.7,696.5,512.2,696.1z"/>
							<path class="st4" d="M397.1,649.2c0,0-11.4,55.7-16.6,78.8c0,0,13.8,2.6,25-6.5l13-65.2L397.1,649.2z"/>
							<path class="st5" d="M387.4,695.9c6.6-0.7,18.5-2.5,23.8-3.1l2-10.2l-22.3-3.6C389.8,684.5,388.6,690.2,387.4,695.9z"/>
							<path class="st9" d="M452.9,542.9c0,0,2.6,13.3,5.6,15.4c3,2.1,4.3-12.3,4.3-12.3L452.9,542.9z"/>
							<path class="st10" d="M451.5,594c0,0,12.6-8.4,31-2.7L474,603l-14.3,2.5L451.5,594z"/>
							<g>
								<path class="st11" d="M518.8,720.6l-0.7,57.8C475.6,799.2,423,768,423,768c1.7-14.3,3-26.1,3-26.1l-16.7-85
									c-8.9-43.5-0.7-46.2-0.7-46.2c17.7-6.3,57.9-11,57.9-11h20.2c0,0,31.7,9.1,41.5,14.3C528.1,613.9,531.2,644.4,518.8,720.6z"
									/>
								<path class="st12" d="M417.7,867.2h97.4c2.4-33.1,4.5-62.7,4.5-63.7c0-0.3,0-0.6,0.1-0.9c0-0.4,0-0.6,0-0.6l0,0
									c1-15.5-1.7-25.6-1.7-25.6l-95-9.8c-1.2,4.6-2.2,8.8-3,12.8c-8.3,23.6-3.4,44-3.4,44C416.8,831.6,416.7,837.2,417.7,867.2z"
									/>
								<path class="st13" d="M417.7,867.2h5.3c1-12.2,3.3-26.6,3.3-27.2c0-1-4-7.8-4.1-10.7c0-2.9,7.4-1.6,7.3-7.1
									s-7.5,1.2-7.5,1.2c-7.8-11.9,0-44.2,2.8-56.6l-1.7-0.2c-1.2,4.6-2.2,8.8-3,12.8c-8.3,23.6-3.4,44-3.4,44
									C416.8,831.6,416.7,837.2,417.7,867.2z"/>
								<path class="st13" d="M513.6,867.2c0.3-3.7,0.5-7.4,0.8-10.8c-0.6,2.9-1.2,6.6-1.8,10.8H513.6z"/>
								<path class="st13" d="M466.7,867.2H483c9.1-7.1,24.7-17.8,24.7-17.8c-6.9-5-28.7,10.7-28.7,10.7s15.1-11.4,12.1-12.7
									c-2.9-1.3-14.2,7.5-14.2,7.5c5.4-8.1,11.6-24.7,10.8-34.7c-0.8-10.1,2.1-37,2.1-37h-13.6c0,0-1.7,21.7-0.9,32.4
									c0.8,10.7-6.9,36.7-6.9,36.7s-15.7-26.6-16.6-23.7c-0.9,2.9,14.4,31.4,14.4,31.4s-16.5-15.5-17.4-11.6
									C448.4,851.1,459.7,861.2,466.7,867.2z"/>
								<path class="st14" d="M454.7,769.8l-1.8-0.2c-1.4,8.8-8,28-37.5,40.1c0,0.7,0.1,1.3,0.1,2
									C446.5,799.3,453.3,778.9,454.7,769.8z"/>
								<path class="st14" d="M428.1,867.2h3.9c-0.1-7.2-0.3-12.7-0.6-15.3c-1.8-13.5-0.9-33.4-0.7-39.4
									c26.6-20.8,29.3-35.5,29.4-42.1l-3.9-0.4c-0.1,5.5-2.3,19.7-28.6,40l-0.7,0.6v0.9c-0.1,1.6-1.2,25.8,0.7,40.9
									C427.8,854.9,428,860.2,428.1,867.2z"/>
								<path class="st14" d="M473.3,867.2c1.2-5.3,2.7-13.5,2.9-15.3c11.7-21.7,9.7-62,9.6-64.6l-3.9,0.1c0,0.6,2.1,42.4-9.3,62.9
									l-0.2,0.3v0.4c-0.1,0.6-0.3,10.3-0.4,16.2L473.3,867.2L473.3,867.2z"/>
								<path class="st4" d="M456.7,540.2c0,0,2.3,37.6-1.3,64c0,0,28,14.1,40,0.9c0,0-9.7-14.7-4.8-49.3L456.7,540.2z"/>
								<path class="st5" d="M489.8,585.3c-0.9-7.5-1-17.3,0.7-29.6l-27.9-12.8l-5.8,0.3c0.4,9.3,1.5,38.3-1.3,60l13,5.1
									c0,0,0,0-3.8-6.6s-2.8-28.6-2.8-28.6C475.1,582.3,485.4,584.7,489.8,585.3z"/>
								<path class="st15" d="M515.3,488.1c0,0,5,4.8,8.1,12.3c0,0,4.2,11.1,2.9,30.8c0,0,2.9,27.1-16.1,54.7c0,0-7.7,2-15.4,0
									c0,0-35.2-11.7-37.2-38.3c0,0-8.4-56.7,15.9-68.3C473.5,479.4,491.9,466.6,515.3,488.1z"/>
								<path class="st5" d="M456.2,524.4c0.8,1.5,1.7,2.4,2.7,2.4c6.5,0,8.1-12.5,8.3-16.8c0.2-4.3,4.7-3.6,4.7-3.6
									c36.3,15.1,49.5,0,49.5,0l4.6,6.6c-0.9-8.2-2.6-12.6-2.6-12.6c-3.1-7.6-8.1-12.3-8.1-12.3c-0.2-0.2-0.4-0.3-0.5-0.5l-51,1
									C458,498.2,456.3,512.3,456.2,524.4z"/>
								<path class="st15" d="M458,547.4c0,0-7.4,4.1-10.4-6.5c-3-10.5,0.4-16.9,4-16.9s6.2,10.3,6.2,10.3S460.7,542.6,458,547.4z"
									/>
								<path class="st16" d="M448.6,530.4c0,0,1.7-2.1,2.6-1.6c0,0-2.5,3.2-1.2,10.9c0,0,0.3-6.7,2.6-7.5c0,0,1.9,3.2,1.1,4.6
									c-0.8,1.4-2.3,3.6-1.6,4.5c0.7,0.9,2.2,2.5,2.2,2.5s-0.8,1.6-2.2,1c0,0,3.7,2.9,4.1-1.8l-1.9-2c0,0,0.6-1.8,1.8-2.4
									c0,0-0.5-7.8-4.1-10.8C452.3,527.7,450.3,525.7,448.6,530.4z"/>
							</g>
							<path class="st17" d="M528.1,613.9c-6.9-3.6-24.4-9.1-34.3-12.1c0.9,2.2,1.6,3.3,1.6,3.3c-11.9,13.2-40-0.9-40-0.9
								c0.1-1,0.3-2.1,0.4-3.2c-13.2,1.9-35.4,5.4-47.3,9.7c0,0-8.2,2.8,0.7,46.2l13.6,84.7c0,0-6.3,27.4-8.1,41.6
								c0,0,71.6,34.2,110.6,10.3l-5.2-81.6C532.6,635.7,528.1,613.9,528.1,613.9z"/>
							<path class="st18" d="M464.8,607.9l7.4,9.3l11.6,21.4l8.4-30.8C484.3,612.6,472.8,610.5,464.8,607.9z"/>
							<path class="st19" d="M492,607.8c-7.8,4.8-19.2,2.6-27.2,0.1l7.4,9.3l11.6,21.4l1.5-5.6l-0.7-11.6l-5.9-7.5
								c2,0,13.3-5.2,13.3-5.2L492,607.8z"/>
							<g>
								<path class="st20" d="M513.1,785.5c-7.6,5.5-68.3,6.6-83.5-19s6.2-18,7.6-16.2c0,0,42,25.7,48.5,19.3
									c6.4-6.4-39.4-27.3-51.6-36.1c0,0,34.9,6.9,41.4,7.4s-1.8-2.8-9.1-5.6c-7.3-2.8-44.5-21.3-43.1-29.2s-6.3-28.3,2.1-48.7
									c8.5-20.4-0.7-38-5.1-43.6c-1.5-1.9-3.4-3.7-5.3-5.3c-2.4,0.7-4.7,1.3-6.7,2c0,0-8.2,2.8,0.7,46.2l13.6,84.7
									c0,0-6.3,27.4-8.1,41.6c0,0,71.6,34.2,110.6,10.3l-5.2-81.6C520.1,711.9,520.7,780,513.1,785.5z"/>
								<path class="st20" d="M528.1,613.9c-2.5-1.3-6.3-2.8-10.7-4.4c1,2.7,1.2,5.4,1.2,8.2c0,5.4,2.1,47,5.2,69.5
									C531.6,630.9,528.1,613.9,528.1,613.9z"/>
							</g>
							<path class="st7" d="M409.2,656.9l13.6,84.7c0,0-6.3,27.4-8.1,41.6c0,0,71.6,34.2,110.6,10.3l-0.6-9.2
								c-26.2,23.2-102.8-4.8-102.8-4.8c-6.3-15.3,5-35.7,5-35.7c42.5,17.6,46.2,18.5,46.2,18.5c-51.9-26.4-48.3-35.7-48.3-35.7
								c12.6,3.2,32.7,7.4,32.7,7.4l-33.3-15.3c-5.1-8.9-13.6-55.7-18.7-86.2C406,638.7,407.1,646.7,409.2,656.9z"/>
							<path class="st21" d="M427.7,709.2c0,0,44.3,32.2,75.3,30.4C503.1,739.6,435,715.7,427.7,709.2z"/>
							<path class="st21" d="M444.9,737.2c0,0,40.8,26,53,25.5L444.9,737.2z"/>
							<path class="st8" d="M454.8,594.8c0,0,22.1,15.6,27.2,30.2l2,15.8l-8.1-15.6c0,0-5.9-7.4-13.7,0c0,0-1.6,6.2-5,6.2
								c0,0-3.1-21.3-11.1-29.1c0,0,2.7-1.5,3.8-4.9C451,593.9,451.8,592.3,454.8,594.8z"/>
							<path class="st8" d="M483.2,639.6c0,0,8-17.3,9.1-17.3c0,0,4.6-1.2,5.5,7.4c0,0,2.7,5.3,5,2.8c0,0-2.3-1.1-2.7-5.4
								c-0.4-4.3,1.9-17.3,0.4-21.5c0,0-1.9-7.4-9.3-12c0,0-1.6,10.8-0.3,15C490.9,608.6,486,625.1,483.2,639.6z"/>
							<g>
								<path class="st18" d="M493.8,601.7L493.8,601.7L493.8,601.7z"/>
							</g>
							<path class="st22" d="M522.4,475.6c0,0-1.4-2.9-6.5-6.2c0,0,4-9-4.1-17.8c0,0-8.6,10.3-19.3,11.1c0,0,4.9-2.4,5.5-6.1
								c0,0-12.3,6.5-19.4,6.7c-7.2,0.2-27.5,3.7-29.8,8.2c0,0-16.8,19.7-1.7,56.9c0.9-2.8,2.7-4.4,4.4-4.4c2.5,0,4.5,4.9,5.5,8l0,0
								c0,0,4.4,0.5,4.3-8s0.1-22.4,4.2-24.1s13.9,2.4,24.2,4.4c0,0,21.5,4.6,31.5-3.7c0,0,4.2,7.8,4.5,10.8l0.8,11.7
								C526.6,523.1,533,488.1,522.4,475.6z"/>
							<path class="st23" d="M520.7,473.3c0.3,9.6-14.5,18.5-23.6,20.4c-9.9,2.1-14.1-9.7-29.8-6.5c-15.7,3.2-10.9,27.8-10.9,27.8
								c-8.9-5.8-5.7-38.5-5.8-41.7c0-1.8,9.9-5.7,19-9c-8.6,1.4-19.1,4-20.7,7.2c0,0-16.8,19.7-1.7,56.9c0.9-2.8,2.7-4.4,4.4-4.4
								c2.5,0,4.5,4.9,5.5,8l0,0c0,0,4.4,0.5,4.3-8s0.1-22.4,4.2-24.1s13.9,2.4,24.2,4.4c0,0,21.5,4.6,31.5-3.7
								c0,0,4.2,7.8,4.5,10.8l0.8,11.7c0,0,6.5-35-4.1-47.6C522.4,475.6,522,474.7,520.7,473.3z"/>
							<path class="st24" d="M521.3,500.6c0,0,4.2,7.8,4.5,10.8l0.8,11.7c0,0,3.5-19.3,1.1-34.3c-7.6,7.1-19.3,9.3-25.4,11.8
								c-7.4,3-33.2-4.4-33.2-4.4c-10.5-1.9-11.6,26-11.6,26c-9.1-3.5-13.9-17.1-16.3-28.9c-0.9,9,0.2,20.8,6,35.2
								c0.9-2.8,2.7-4.4,4.4-4.4c2.5,0,4.5,4.9,5.5,8l0,0c0,0,4.4,0.5,4.3-8s0.1-22.4,4.2-24.1s13.9,2.4,24.2,4.4
								C489.7,504.3,511.2,509,521.3,500.6z"/>
							<g>
								<path class="st24" d="M495.3,521.9c-8.2-2.1-13.2,1.3-13.6,1.5l1.3,2.4c0.1,0,8.6-4.1,16.9,0
									C499.9,525.8,499.5,523,495.3,521.9z"/>
							</g>
							<g>
								<path class="st24" d="M514,525.8c0,0,2-2.9,5.7-2.6c1.5,0.1,2.9,1.1,4.1,2.5l1.6-1.5c-1.7-1.9-3.7-2.9-5.9-3
									c-1.6,0-2.5,0.1-3.7,0.7C515.9,522,513.7,523.7,514,525.8z"/>
							</g>
							<g>
								<path class="st24" d="M496.2,534.6c0,2.9-1.3,5.3-3.1,5.3c-1.8,0-3.2-2.4-3.3-5.3c0-2.9,1.3-5.3,3.1-5.3
									C494.7,529.3,496.2,531.7,496.2,534.6z"/>
								<path class="st18" d="M493.3,532.2c0,0.7-0.5,1.2-1.2,1.2c-0.6,0-1.2-0.5-1.2-1.2c0-0.6,0.5-1.2,1.2-1.2
									C492.7,531.1,493.3,531.6,493.3,532.2z"/>
							</g>
							<g>
								<path class="st24" d="M521.5,534.8c0,2.9-1.2,5.3-2.7,5.3s-2.8-2.4-2.9-5.3c0-2.9,1.2-5.3,2.7-5.3S521.4,531.8,521.5,534.8z
									"/>
								<path class="st18" d="M519,532.4c0,0.7-0.5,1.2-1.2,1.2s-1.2-0.5-1.2-1.2c0-0.6,0.5-1.2,1.2-1.2
									C518.4,531.2,519,531.7,519,532.4z"/>
							</g>
							<g>
								<g>
									<path class="st25" d="M512.4,536.9c0.9,2.2,1.7,4.5,2.4,6.7c0.2,0.6,0.4,1.1,0.6,1.6c0.2,0.5,0.4,1.1,0.6,1.6
										c0.2,0.5,0.4,1,0.6,1.6l0.7,1.4l-0.1-0.1c0.3,0.4,0.5,0.7,0.6,1c0.2,0.3,0.3,0.7,0.4,1.1c0.2,0.8,0.2,1.7-0.1,2.5
										c-0.2,0.4-0.4,0.8-0.7,1.1s-0.6,0.6-0.9,0.8c-0.3,0.2-0.6,0.4-1,0.6c-0.3,0.1-0.7,0.3-1,0.4c-0.7,0.2-1.4,0.3-2,0.4
										c-0.7,0.1-1.4,0.1-2,0c-0.7-0.1-1.3-0.2-2-0.4c-0.3-0.1-0.6-0.2-0.9-0.4l-0.8-0.5c0.7,0.1,1.3,0.2,1.9,0.2
										c0.3,0,0.6,0,0.9,0l0.9-0.1c0.6-0.1,1.2-0.2,1.8-0.4s1.1-0.4,1.6-0.6c0.5-0.3,1-0.5,1.4-0.9c0.2-0.2,0.3-0.3,0.5-0.5
										c0.1-0.2,0.2-0.4,0.3-0.5c0.1-0.4,0.1-0.8,0-1.2c-0.1-0.2-0.2-0.4-0.3-0.7c-0.1-0.2-0.3-0.5-0.4-0.6l-0.1-0.1l-0.9-1.8
										c-0.2-0.6-0.4-1.2-0.6-1.7c-0.2-0.6-0.3-1.2-0.5-1.8s-0.3-1.2-0.4-1.8C512.7,541.7,512.4,539.3,512.4,536.9z"/>
								</g>
							</g>
							<g>
								<g>
									<path class="st25" d="M513,562c0,0-1.2,1-3.4,1.7c-0.5,0.2-1.1,0.3-1.8,0.5c-0.6,0.1-1.3,0.3-2.1,0.3
										c-0.7,0-1.5,0.1-2.2,0.1c-0.8,0-1.5-0.1-2.3-0.2c-0.8-0.1-1.5-0.3-2.3-0.5c-0.7-0.2-1.4-0.5-2.1-0.8
										c-0.7-0.2-1.3-0.6-1.9-0.9c-0.6-0.3-1.1-0.7-1.6-1s-0.9-0.6-1.2-1c-0.3-0.3-0.6-0.6-0.9-0.8c-0.5-0.5-0.7-0.8-0.7-0.8
										s0.4,0.1,1,0.4c0.3,0.1,0.7,0.3,1.1,0.5s0.9,0.3,1.4,0.5s1,0.4,1.6,0.6c0.6,0.2,1.2,0.4,1.8,0.6c0.6,0.2,1.3,0.4,2,0.5
										s1.4,0.3,2.1,0.4c1.4,0.2,2.8,0.4,4.1,0.4c1.3,0,2.6,0,3.7,0C511.5,562.3,513,562,513,562z"/>
								</g>
							</g>
							<path class="st16" d="M507.2,568c0,0-4.9,1.5-9.9,0C497.3,568,503.1,574.7,507.2,568z"/>
							<path class="st5" d="M510.2,585.9c0.3-0.4,0.6-0.9,0.9-1.3c-33.3-0.6-53-34.1-53.2-34.4c4,24.7,36.9,35.7,36.9,35.7
								C502.5,587.9,510.2,585.9,510.2,585.9z"/>
							<g>
								<g>
									<path class="st25" d="M448.4,531.1c0.1-0.7,0.4-1.5,0.7-2.2c0.2-0.4,0.3-0.7,0.6-1c0.2-0.3,0.5-0.6,0.9-0.8s1-0.2,1.4,0
										c0.1,0.1,0.2,0.1,0.3,0.2l0.2,0.2c0.1,0.1,0.3,0.2,0.4,0.4c0.3,0.3,0.5,0.6,0.8,0.9c0.2,0.3,0.4,0.6,0.6,1
										c0.8,1.3,1.4,2.8,1.8,4.2c0.2,0.7,0.4,1.5,0.6,2.2c0.1,0.8,0.3,1.5,0.1,2.5v0.2l-0.1,0.1c-0.3,0.3-0.7,0.6-1,1
										c-0.2,0.2-0.3,0.3-0.4,0.5c-0.1,0.1-0.3,0.4-0.3,0.4s0-0.1-0.1-0.2c-0.1-0.1,0,0.1,0.1,0.1l0.2,0.3l0.5,0.5l1,1.1l0.1,0.1
										v0.2c-0.1,0.6-0.2,1.2-0.6,1.8c-0.2,0.3-0.4,0.5-0.7,0.7c-0.2,0.1-0.3,0.2-0.5,0.2s-0.3,0.1-0.5,0.1
										c-0.3,0-0.6-0.1-0.9-0.1c-0.3-0.1-0.6-0.2-0.8-0.4c-0.2-0.2-0.5-0.3-0.7-0.5l-0.7-0.6c0.5,0.3,1,0.6,1.5,0.8
										c0.3,0.1,0.5,0.2,0.8,0.3c0.3,0,0.5,0.1,0.8,0c0.1,0,0.2-0.1,0.3-0.1c0.1,0,0.2-0.1,0.3-0.2c0.2-0.2,0.3-0.4,0.4-0.6
										c0.2-0.5,0.3-1,0.3-1.5l0.1,0.3l-1.1-1l-0.5-0.5l-0.3-0.3c-0.1-0.1,0,0-0.2-0.2c-0.1-0.2-0.1-0.4-0.1-0.5
										c0.1-0.5,0.3-0.6,0.4-0.9c0.2-0.2,0.3-0.4,0.5-0.6c0.3-0.4,0.7-0.7,1.1-1.1l-0.2,0.3c0.1-0.6,0-1.3-0.1-2s-0.3-1.4-0.5-2.1
										c-0.4-1.4-0.9-2.8-1.6-4.1c-0.2-0.3-0.3-0.6-0.5-1c-0.2-0.3-0.4-0.6-0.6-0.9c-0.2-0.2-0.6-0.6-0.7-0.7
										c-0.3-0.2-0.5-0.2-0.8-0.1c-0.6,0.2-1.1,0.8-1.5,1.4C449,529.7,448.7,530.4,448.4,531.1z"/>
								</g>
							</g>
							<g>
								<g>
									<path class="st25" d="M449.7,537.3c0,0,0-0.7,0-1.8s0-2.5,0.3-4c0.1-0.7,0.3-1.4,0.6-2.1c0.2-0.3,0.4-0.6,0.7-0.9
										c0.3-0.2,0.7-0.4,1-0.3c0.7,0.1,1.1,0.4,1.3,0.6c0.3,0.2,0.4,0.3,0.4,0.3l-0.5,0.5c0,0-0.1-0.1-0.3-0.3
										c-0.2-0.2-0.6-0.5-1-0.5c-0.4-0.1-0.9,0.2-1.2,0.8c-0.3,0.6-0.5,1.2-0.7,1.9c-0.3,1.4-0.4,2.8-0.5,3.9
										C449.7,536.6,449.7,537.3,449.7,537.3z"/>
								</g>
							</g>
							<path class="st17" d="M407.2,612c0,0-19.6,25.2-31.4,65.9c0,0,26.5,17.6,43.2,11.1C418.9,689,433.5,597.5,407.2,612z"/>
							<path class="st20" d="M418.9,689c0,0,0.5-3.3,1.2-8.4c-10.7,3.8-30.2-11.6-27.9-15c2.5-3.5,1.7-7,1.8-19.5
								c0-12.5,20.1-35.5,20.1-35.5l0,0c-1.9-0.6-4.2-0.2-6.9,1.3c0,0-19.6,25.2-31.4,65.9C375.8,677.9,402.3,695.5,418.9,689z"/>
							<path class="st8" d="M419.5,685.5c-18.9,3-36.1-9.2-41.8-13.8c-0.6,2-1.3,4.1-1.9,6.2c0,0,26.5,17.6,43.2,11.1
								C418.9,689,419.2,687.8,419.5,685.5z"/>
							<path class="st15" d="M382.3,723.1c0,0,8.5-6.4,41.8-10.6l34.6-10.2l0.2,11.1c0,0-42.1,20.9-51.4,23.3
								c-6.7,1.7-18.3,6.9-25.7,1.2C381.7,737.9,377.8,731.2,382.3,723.1z"/>
							<path class="st4" d="M521.1,867.2c0.6-1.1,1-3.1,1.1-4.6c0.3-2.3,1.9-8.5,2.9-9.1c1.1-0.6,2.9-2.6,2.9-2.6
								c0.6,1.4,0.1,6.3,1.4,7.7c0.9,1,0.9,6,0.8,8.6h4.3c0.3-2.1,0.6-3.8,0.6-3.8c1.7-4.3,2-7.7,2-7.7c-0.6-7.7-4.9-28.1-4.9-28.1
								l-10.2,1.3c-2.5,7-2.9,16.1-2.3,18c0.5,1.9-0.2,9.7-0.9,15c-0.4,3-0.3,4.5,0,5.4h2.3V867.2z"/>
						</g>
					</g>
					<path class="st26" d="M465.4,714.7c0,0-21.8,18.8-42.6,28c0,0-3.8,0.5-2,5.1c0,0-2.5,3.8-0.7,6c0,0,31.6-9.9,56.9-40.7
						L465.4,714.7z"/>
					<path class="st15" d="M455.5,701.7c0,0,4.7-8.9,6.6-9.6l5.4-2.1l1.1,1.9c0,0,5.3-0.7,6-1.9l-0.6-2.8c0,0,4.8,2.4,6,2.6
						c1.2,0.2,2.6,4.4,1.5,6.3c0,0,1.4,1.8,0.5,5.7c0,0,1.8,1.6,0.4,4.6c0,0,1.5,2.5,0.6,3.7l-7.1,6.3c0,0-6.6,3.9-18-1.9
						C457.8,714.4,451.2,708.8,455.5,701.7z"/>
					<path class="st26" d="M427.9,605.5c0,0,29.2,66.5,36.1,87.1c0,0,4.2,1.5,10.8-2.6c0,0-16.7-56.6-33.4-86.8c0,0-1.2-1.1-3-1.4
						C435.2,601.2,430.2,601.7,427.9,605.5z"/>
				</g>
				<g>
					<g>
						<path class="st27" d="M626.8,634.5c0,0-16.6,1.6-26.1-4.7c0,0,0.4-8.8,0-20.3c0,0-0.7,14.4-6,20.4c0,0,0.6,1.3-4.5-0.6
							c0,0,3.6-15.3,4.7-38.4c1.2-23.1,44.6-8.4,44.6-8.4L626.8,634.5z"/>
						<g>
							<path class="st28" d="M563,758.1c0,0,29-96.5,33.1-104.4l6.7,24.8c0,0-11.5,49.5-19,65.2L563,758.1z"/>
							<path class="st29" d="M588.2,744.8c0,0-15.5,20.4-25.8,11.8c0,0,26.2-104.8,30-108.6c0,0,5.1-3.7,6.7-3.8
								c0.8,0,1.5,24.5-1.4,49.4C594.8,719,588.2,744.8,588.2,744.8z"/>
							<path class="st30" d="M567.8,746.7c0,0,4.2-6.7,15.1-8.7c0,0-6.4-2.3-13.4,1.9c0,0-0.5-5.1,15.2-6.3c0,0,1.8-5.7,0-12.9
								s5.3-48.6,9.8-53.7c1.1-1.3,2.9-0.5,5,1.3c-0.3,7.7-0.8,16.5-1.9,25.3c-2.9,25.4-9.5,51.2-9.5,51.2s-2.2,2.8-5.4,5.9
								l-16.5,6.4L567.8,746.7z"/>
							<path class="st31" d="M588.9,741.6c0,0-21.3-2.8-26.5,13.3c0,0-0.9,2.2,0,4.4C563.3,761.5,588.9,741.6,588.9,741.6z"/>
							<path class="st27" d="M588.3,567.7c0,0-8.5-16.4-2.1-31.5s12.6,0.6,12.6,0.6L588.3,567.7z"/>
							<g>
								<path class="st32" d="M699.1,695.5c-3.7,1.6-9.5,0.5-14.8-4.5c4,2.2,11.1-0.1,17.9,3.3C701.2,694.7,700.2,695.1,699.1,695.5
									z"/>
							</g>
							<g>
								<g>
									<g>
										<g>
											<g>
												<path class="st28" d="M586.4,695.4c0-31.4,12-50.8,12-50.8c7.3-3.9,10.9-5.1,21.6-10c4-4.4,9.8-14.7,6.9-35.9l28.6-26.3
													c0,0-2.1,35.6,1,61.8c0.9-0.1,24.2,4.5,36.9,9c0,0,10.5,14,1.1,60.2c0,0-10.7,38.4-8.5,51.2c0,0,8.5,34.8,10.3,50
													c0,0-56.8,31-98.2,5.6l-0.4-69.7C593.3,713.9,586.4,711,586.4,695.4z"/>
												<path class="st5" d="M627.4,614.2c0.3-4.3,0.2-9.4-0.6-15.3l4.4-4.3l18.2-16.7l5.7,0.4c-0.2,5.6-0.5,14.6-0.4,24.7
													C645.3,611.3,633.2,613.6,627.4,614.2z"/>
												<g>
													<path class="st18" d="M618.3,634.1L618.3,634.1L618.3,634.1z"/>
												</g>
											</g>
										</g>
									</g>
									<path class="st15" d="M598.6,522.1c0,0-5,4.8-8.1,12.4c0,0-4.2,11.2-2.9,30.8c0,0,0.3,29.3,18.8,52.2c0,0,3,1.7,10.7-0.3
										c0,0,37.6-10.9,39.6-37.5c0,0,8.1-54.8-16.2-66.4C640.5,513.4,622,500.7,598.6,522.1z"/>
									<path class="st15" d="M656,581.6c0,0,7.4,4.1,10.5-6.5c3-10.5-0.4-16.9-4-16.9c-3.7,0-6.2,10.3-6.2,10.3
										S653.3,576.8,656,581.6z"/>
									<path class="st16" d="M665.4,564.6c0,0-1.7-2.1-2.7-1.6c0,0,2.5,3.2,1.2,10.9c0,0-0.3-6.7-2.6-7.5c0,0-1.9,3.2-1.1,4.6
										c0.8,1.4,2.3,3.6,1.6,4.5s-2.2,2.5-2.2,2.5s0.8,1.6,2.2,1c0,0-3.7,2.9-4.2-1.8l1.9-2c0,0-0.7-1.8-1.8-2.4
										c0,0,0.5-7.9,4.1-10.8C661.7,561.9,663.7,559.9,665.4,564.6z"/>
									<g>
										<path class="st24" d="M617.1,568.8c0,2.9,1.3,5.3,3.1,5.3s3.2-2.4,3.3-5.3c0-2.9-1.3-5.3-3.1-5.3S617.1,565.9,617.1,568.8
											z"/>
										<path class="st18" d="M620.1,566.4c0,0.6,0.5,1.2,1.2,1.2c0.6,0,1.2-0.5,1.2-1.2s-0.5-1.2-1.2-1.2
											S620.1,565.7,620.1,566.4z"/>
									</g>
									<g>
										<path class="st24" d="M592.4,568.9c0,2.9,1.2,5.3,2.7,5.3s2.8-2.4,2.9-5.3c0-2.9-1.2-5.3-2.7-5.3
											C593.8,563.6,592.5,566,592.4,568.9z"/>
										<path class="st18" d="M594.9,566.5c0,0.7,0.5,1.2,1.2,1.2c0.6,0,1.2-0.5,1.2-1.2c0-0.6-0.5-1.2-1.2-1.2
											C595.5,565.4,595,565.9,594.9,566.5z"/>
									</g>
									<g>
										<g>
											<path class="st25" d="M600.3,576.4c0.3,1.2,0.3,2.5-0.1,3.6c-0.3,1.2-1,2.3-2,3.3l0.2-0.2l-0.2,0.3
												c-0.1,0.1-0.1,0.2-0.2,0.4c-0.1,0.2-0.2,0.5-0.2,0.7c-0.1,0.5,0,0.9,0.1,1.4c0.2,0.5,0.6,0.9,1.1,1.4s1.1,0.8,1.6,1.3
												c-0.7,0.1-1.5,0-2.2-0.3s-1.5-0.6-2-1.4c-0.6-0.7-0.8-1.7-0.8-2.6c0-0.5,0.1-0.9,0.3-1.3c0.1-0.2,0.2-0.4,0.2-0.6
												c0.1-0.2,0.2-0.4,0.3-0.6l0.1-0.1l0.1-0.1C598,580.2,599.1,578.5,600.3,576.4z"/>
										</g>
									</g>
									<path class="st16" d="M605.3,601.2c0,0,4.9,1.5,9.9,0C615.2,601.2,609.4,608,605.3,601.2z"/>
									<g>
										<g>
											<path class="st25" d="M665.6,565.2c-0.3-0.7-0.6-1.4-1-2s-0.9-1.2-1.5-1.4c-0.3-0.1-0.5-0.1-0.8,0.1c0,0-0.2,0.1-0.1,0.1
												l-0.2,0.2l-0.4,0.4c-0.3,0.3-0.4,0.6-0.6,0.9c-0.2,0.3-0.4,0.6-0.5,0.9c-0.7,1.3-1.2,2.7-1.6,4.1
												c-0.1,0.3-0.2,0.7-0.3,1.1c-0.1,0.4-0.2,0.7-0.2,1.1l-0.2,1.1c0,0.3,0,0.6,0,1l-0.2-0.3c0.4,0.3,0.7,0.7,1.1,1.1
												c0.2,0.2,0.3,0.4,0.5,0.6c0.2,0.2,0.3,0.4,0.4,0.9c0,0.1,0,0.3-0.1,0.5s-0.1,0.1-0.2,0.2l-0.3,0.3l-0.5,0.5l-1.1,1
												l0.1-0.3c0,0.5,0.1,1.1,0.3,1.5c0.1,0.2,0.3,0.4,0.4,0.6c0.1,0.1,0.2,0.2,0.3,0.2s0.2,0.1,0.3,0.1c0.2,0.1,0.5,0,0.8,0
												c0.3-0.1,0.5-0.1,0.8-0.3c0.5-0.2,1-0.5,1.5-0.8l-0.7,0.6c-0.2,0.2-0.5,0.3-0.7,0.5c-0.3,0.2-0.5,0.3-0.8,0.4
												c-0.3,0.1-0.6,0.2-0.9,0.1c-0.2,0-0.3-0.1-0.5-0.1s-0.3-0.2-0.5-0.2c-0.3-0.2-0.5-0.5-0.7-0.7c-0.3-0.6-0.5-1.2-0.6-1.8
												v-0.2l0.1-0.1l1-1.1l0.5-0.5l0.3-0.3c0,0,0.2-0.2,0.1-0.1c-0.1,0.1,0,0.2-0.1,0.2c0,0-0.1-0.2-0.3-0.4
												c-0.1-0.2-0.3-0.3-0.5-0.5c-0.3-0.3-0.7-0.7-1-1l-0.2-0.1v-0.2c0-0.4-0.1-0.9-0.1-1.3l0.2-1.2c0-0.4,0.2-0.8,0.3-1.1
												c0.1-0.4,0.2-0.8,0.3-1.1c0.3-0.7,0.5-1.5,0.8-2.2s0.7-1.4,1-2.1c0.2-0.3,0.4-0.7,0.7-1s0.5-0.7,0.8-0.9l0.4-0.4l0.2-0.2
												c0.2-0.1,0.2-0.1,0.3-0.2c0.4-0.2,1-0.2,1.4,0s0.7,0.5,0.9,0.8s0.4,0.7,0.6,1C665.3,563.8,665.5,564.5,665.6,565.2z"/>
										</g>
									</g>
									<g>
										<g>
											<path class="st25" d="M664.3,571.5c0,0,0-0.7-0.1-1.8s-0.2-2.5-0.5-3.9c-0.2-0.7-0.4-1.4-0.7-1.9
												c-0.3-0.6-0.8-0.9-1.2-0.8c-0.4,0.1-0.8,0.4-1,0.5c-0.2,0.2-0.3,0.3-0.3,0.3l-0.5-0.5c0,0,0.1-0.1,0.4-0.3
												c0.3-0.2,0.7-0.5,1.3-0.6c0.3-0.1,0.7,0.1,1,0.3s0.5,0.5,0.7,0.9c0.3,0.6,0.5,1.4,0.6,2.1c0.2,1.4,0.3,2.9,0.3,4
												C664.4,570.8,664.3,571.5,664.3,571.5z"/>
										</g>
									</g>
									<g>
										<path class="st27" d="M613.7,559.7c0,0,0.1-0.3,0.4-0.8c0.3-0.5,0.8-1.2,1.6-1.8c0.4-0.3,0.8-0.6,1.3-0.9
											c0.5-0.3,1.1-0.6,1.7-0.7c1.2-0.4,2.6-0.5,4-0.4c0.7,0.1,1.4,0.1,2,0.4c0.6,0.2,1.3,0.4,1.8,0.7c0.6,0.3,1.1,0.5,1.6,0.9
											c0.5,0.3,0.9,0.6,1.3,0.9c0.8,0.6,1.3,1.3,1.7,1.7s0.5,0.7,0.5,0.7s-0.3-0.1-0.9-0.2c-0.5-0.1-1.3-0.5-2.1-0.7
											c-0.4-0.1-0.9-0.3-1.4-0.4c-0.5-0.1-1-0.3-1.5-0.4c-0.5-0.2-1.1-0.2-1.6-0.3s-1.1-0.1-1.6-0.2c-0.5-0.1-1.1,0-1.6-0.1
											c-0.5,0.1-1.1,0-1.6,0.1s-1,0.1-1.5,0.2c-0.5,0.1-0.9,0.2-1.3,0.4C614.9,559,613.7,559.7,613.7,559.7z"/>
									</g>
									<g>
										<path class="st27" d="M598,561c0,0-0.8-0.6-1.7-1.4c-0.5-0.4-1-0.8-1.6-1.1c-0.3-0.2-0.6-0.3-0.8-0.4
											c-0.3-0.1-0.5-0.2-0.8-0.1c-0.2-0.1-0.5,0-0.7,0c-0.3,0.1-0.6,0.1-0.8,0.3c-0.3,0.2-0.6,0.2-0.9,0.4
											c-0.3,0.2-0.6,0.3-0.8,0.5c-0.5,0.3-1,0.6-1.3,0.8c-0.4,0.2-0.6,0.3-0.6,0.3s0-0.2,0.1-0.6c0.1-0.4,0.2-1,0.6-1.6
											c0.2-0.3,0.4-0.6,0.6-1c0.2-0.3,0.6-0.6,1-1c0.3-0.3,0.9-0.5,1.4-0.8c0.6-0.1,1.2-0.3,1.8-0.2c0.6,0,1.2,0.2,1.7,0.5
											s0.9,0.6,1.2,1c0.4,0.3,0.6,0.7,0.8,1.1c0.2,0.4,0.4,0.7,0.5,1C598.1,560,598,561,598,561z"/>
									</g>
									<path class="st15" d="M602,867.2h89c2.1-16.6,3.7-29.8,4-37.1c2.3-16.5-6-29.2-9.3-37.4l-89.6,4.5c0,0-0.9,20.3,2.1,39.4
										C599,843.7,600.4,854.5,602,867.2z"/>
									<path class="st31" d="M591.4,867.2h106.4c-1.5-57.1-6.1-67.9-6.1-67.9l-95.9,5.5C597,824.1,594.5,847.4,591.4,867.2z"/>
									<path class="st33" d="M595.9,825.1c17.7,3.1,61.4,9.1,82.4-1.4c15.9-8,7.8,19-2.6,43.5h22.1c-1.5-57.1-6.1-67.9-6.1-67.9
										l-95.9,5.5C596.3,811.2,596.2,818,595.9,825.1z"/>
								</g>
							</g>
							<path class="st18" d="M617.1,590.8c0,0-8.8,4.7-17.6,0C599.5,590.8,608.2,606.8,617.1,590.8z"/>
							<path class="st34" d="M586.4,695.4c0-8.3,0.6-16.5,1.8-23c1.9-8.3,5.8-21.4,9.6-28.1c1.5-0.8,16.9-7.3,18.5-8
								c-2.4,14.1,7.6,16.4,7.6,16.4c23.4,5.2,31.3-10.2,34.4-18.1c0.7,0.1,5,0.2,7.2,0.7l0,0l0,0c1.8,0.4,3.5,0.7,4.1,0.9
								c0,0,0,0,0,0.1c7.7,1.9,17.5,4.9,23.5,7c0,0,9.8,13.1,1.9,55.9c0.1,0-11.5,42.7-9.3,55.5c0,0,8.5,34.8,10.3,50
								c0,0-59.8,35.1-101.3,9.7l2.6-73.9C593.3,713.9,586.4,711,586.4,695.4z"/>
							<path class="st35" d="M696.2,804.7c0,0-52.7,30.9-93.4,13.8c41-11.6,75-51.7,76.8-58.5c1.9-7-13.9-36.7-22.1-39.4
								c-8.1-2.7-15.5-10.1-6-12.8c9.4-2.7,20.7-5,19.6-29.3c-1.1-24.2,13.1-38.2,13.1-38.2c3.3,1,6.5,2.1,9,2.9
								c0,0,9.8,13.1,1.9,55.9c0.1,0-11.5,42.7-9.3,55.5C685.8,754.7,694.4,789.5,696.2,804.7z"/>
							<path class="st36" d="M682.8,727.1c-13.6-23.9-4.3-62.5-4.3-62.5l7-23.9c2.9,0.9,5.6,1.8,7.8,2.6c0,0,9.8,13.1,1.9,55.9
								c0.1,0-11.5,42.7-9.3,55.5c0,0,8.5,34.8,10.3,50c0,0-9.1,5.3-22.7,10.4C687.3,782.1,682.8,727.1,682.8,727.1z"/>
							<g>
								<g>
									<polygon class="st37" points="727.6,789.7 728.7,852.3 646.8,857.5 645,853.9 643.9,791.3 									"/>
									<polygon class="st38" points="647.4,856.9 645.5,853.6 644.4,792.7 725.7,791.1 728.4,794 									"/>
									
										<rect x="646.2" y="794.1" transform="matrix(0.9998 -1.825906e-02 1.825906e-02 0.9998 -14.9558 12.7003)" class="st39" width="83.7" height="62.6"/>
									
										<rect x="663.1" y="802.9" transform="matrix(0.9998 -1.814201e-02 1.814201e-02 0.9998 -14.8735 12.3015)" class="st18" width="15" height="46.1"/>
								</g>
								<path class="st40" d="M716.3,793.6c12.3,58.4-52.7,62-69.5,61.9v2l83.7-1.5l-1.1-62.6L716.3,793.6z"/>
							</g>
							<path class="st35" d="M607.2,716.9c18.4-0.9,28.5-1.8,31.9,2.4c3.5,4.2-14.9,1.8-21.7,5.4c-6.8,3.6-13.5,15.6-14.7,19.8
								c-0.8,2.8-4,18.6-6.1,23.7l1-27.7c-0.2-1-0.3-2-0.5-2.9c-0.1-0.3-0.1-0.6-0.2-0.8c-0.1-0.7-0.3-1.4-0.4-2
								c-0.1-0.3-0.1-0.5-0.2-0.8c-0.2-0.8-0.4-1.7-0.5-2.5c0-0.2-0.1-0.3-0.1-0.5c-0.1-0.6-0.3-1.3-0.4-1.9
								c-0.1-0.3-0.1-0.5-0.2-0.8c-0.1-0.5-0.3-1-0.4-1.5c-0.1-0.2-0.1-0.5-0.2-0.7c-0.2-0.6-0.4-1.3-0.5-1.9
								c-0.1-0.2-0.1-0.4-0.2-0.7c-0.1-0.4-0.2-0.8-0.4-1.2c-0.1-0.3-0.2-0.5-0.2-0.8c-0.1-0.3-0.2-0.7-0.3-1
								c-0.1-0.2-0.2-0.5-0.2-0.7c-0.2-0.5-0.3-0.9-0.5-1.4c-0.1-0.3-0.2-0.7-0.4-1c0-0.1-0.1-0.3-0.1-0.4c-1.1-3-2.1-5.5-2.9-8
								c0,0,0,0,0-0.1c-0.1-0.4-0.3-0.9-0.4-1.3v-0.1C590.6,712,595.8,717.5,607.2,716.9z"/>
							<path class="st15" d="M684.3,857.8c1.2-4.2,4-9.5,5.1-12.5c0,0-2.5,4.6-6,4.5c0,0-1.1-0.1-0.6-1.5s3.5-3.9,4.5-7
								c0.8-2.6,2.8-7.1,5-9.4c2.3-2.3,5.8-8.5,5.8-8.5l9,4.7c0,0,2.7,8.9-2,19.6c0,0-2,3.9-4.5,9c0,0-2.4,4.4-4.5,2.3
								c0,0-1.8,1.8-4.2,0.3c0,0-2.9,1-3.9-0.2C688.2,859.4,683.6,860.4,684.3,857.8z"/>
							<path class="st15" d="M708.2,691.7c0,0,12.4,46.5,13.8,59.5c0,0-1.2,27.3-9,57.2l-7.1,27.3c0,0-4.6,5.1-9.2-5.3
								c0,0,3.7-42.9,9.8-75.4l-22.2-64L708.2,691.7z"/>
							<path class="st31" d="M721.6,759.9c0,0,0.7,3.6,0,4.7c0,0-16.2,1-18-0.7c0,0,0.8-3.7,1.3-4.7L721.6,759.9z"/>
							<path class="st34" d="M721.8,760.6l-17-0.5c-0.8-1.9-1.2-3.8-1-4.7c0,0-2.1-1-1.5-5c0,0-2.7-0.6-2.7-3.9
								c0,0-8.2-16.1-11.6-28.8c0,0-24.8-81.8,5.3-74.5c0,0,11.5,2.9,23.3,66.2c0,0,9.4,42.3,6,48.6
								C722.6,758,722.9,760.6,721.8,760.6z"/>
							<path class="st15" d="M632,719.3c0,0-4.4-5.5-6.4-8.7l-2.3,3.7l-0.4,7.8c0,0-2.2,10.8-9,12.2c0,0-2,2.2-5.6,7.5
								s-35.8,34.9-46.8,22.1c0,0-4.4-6.3,11-17.7c0,0,23.9-11.1,34.1-17.2c0,0,6.2-9.8,7.3-15.9c1.4-8.6,6.3-10,8-10.6
								c2.3-0.9,6.1,3.3,6.1,3.3S639.3,722.3,632,719.3z"/>
							<path class="st5" d="M562.4,764.8c13.3-0.8,47.6-29.4,48.1-30.8c0.6-1.6,3.3-3,3.3-3c3.1-0.1,8.8-18.3,8.8-18.3
								s1.7-4.6,2.9-4.9c1.2-0.3,6.5,9.8,6.5,9.8c1,0.3,1.5-0.2,1.9-0.9c0.9,2.3,0.7,3.8-2,2.7c0,0-4.4-5.5-6.4-8.7l-2.3,3.7
								l-0.4,7.8c0,0-2.2,10.8-9,12.2c0,0-2,2.2-5.6,7.5C604.8,746.9,574.2,775.2,562.4,764.8z"/>
						</g>
						<path class="st27" d="M587.9,523.5c0,0-18.2,20.8,33.3,37.5c0,0-13.3-7.7-18.4-19.7c0,0,13.7,13.1,38.1,18.2
							c0,0,6.3,3.4,6.3,8.1c0,0,5-4.5-1.1-13.3c-9.1-13.3-13.9-14.9-14.7-24.6c0,0,9.4,16.2,19,23c0,0,4.3,10,4.6,14.8
							s-0.5,15.7-1.5,18.6c-1,2.9,7.7-6.4,4.3-22.2c0,0,4.7-5.6,8.2-3c0,0,4.8,24.7-10.2,20.7l-1.2,6.6c0,0-0.6,39.2,1.5,44.6
							c0,0,13.5,3.6,27.8-2.8c0,0-8.5-19.5-8.5-33.1c0,0,4.3,24.9,13.2,32.9c0,0-15.7-56.9-14.7-94c0,0,0.6-28.8-23.4-32.9
							c0,0-4.8-7.3-23.8-5.9C610.1,498.4,599.6,498.8,587.9,523.5z"/>
						<path class="st35" d="M693.3,643.2c0,0,11.5,2.9,23.3,66.2c0,0,9.4,42.3,6,48.6c0,0,0.3,2.6-0.8,2.6l-17-0.5
							c-0.1-0.3-0.2-0.6-0.3-0.8c3.9-0.4,13.2,0.4,14.3,0.2c1.3-0.1,2.2-0.3,1.7-1.6s-10.2-1-12.6-1.3c-2.3-0.3-4.1-1.2-2.2-2.8
							c1.9-1.5,8.8,1.2,11.2,1.4c2.3,0.3,3.9,0.4,3.5-0.9c-0.4-1.3-10.4-4.1-12.6-4.5c-2.2-0.4-0.4-1.5-0.4-1.5
							c5.7,0,11.2,3.5,11.2,3.5c1.2-5.9-11.3-82.2-21.5-98.4c-5.8-9.1-12.5-5.9-17.3-1.3C681.5,645.4,685.5,641.3,693.3,643.2z"/>
					</g>
					<path class="st31" d="M626.8,658.2c0,0-16.6-0.1-13.5-20.6c1.5-0.7,2.7-1.2,3.1-1.3c-2.4,14.1,7.6,16.4,7.6,16.4
						c23.4,5.2,31.3-10.2,34.4-18.1c0.4,0.1,2,0.2,3.7,0.3C660.9,639,653.4,660.8,626.8,658.2z"/>
					<path class="st41" d="M661.2,561c0,0-3.9-71-66.3-49.7c0,0-2.3-3.7,7.9-8.1c0,0,69.5-16.7,61.5,57.2L661.2,561z"/>
				</g>
			</g>
			<g>
				<path class="st4" d="M402,528.4c0,0-4.3-5.9-7.2-9.4c-2.9-3.5-10.1-15.8-16.4-19.9s-14.8-5.5-14.8-5.5l-3.3,21.7l9.1,11.1
					c0,0,12.7,5.1,14.9,8.1c2.2,3,5,4.5,5,4.5L402,528.4z"/>
				<path class="st5" d="M369.7,501.7c0,0,9.5,5.5,9.8,5.5s3.2,17.4,4.9,16.9c1.7-0.5-1,4.2-1,4.2l-8-4.2L369.7,501.7z"/>
				<path class="st34" d="M374,636.1c0,0,17.2-8.9,53.9-23.6c0,0-1.9-1.8,2.6-5c0,0-30.3-45.1-38-61.3c0,0-1.8-22.1,13.6-16.4
					c15.4,5.7,55.3,57,61.1,82.8c5.8,25.8-71.5,61.5-94.2,67.2L374,636.1z"/>
				<path class="st35" d="M373,677.7c0.2,0.6,0.5,1.2,0.7,1.8c19.8-5.2,75.7-30.7,90.2-53.8c-12,7.7-51.3,32.2-61.1,29.8
					c-11.6-2.9-13.5-23.5-17.4-22.5c-2.5,0.6-8.2,15.4-12,26L373,677.7z"/>
				<path class="st42" d="M306.4,605.7c0,0,15.4-4.5,29.1,0s5.8,18.3,5.8,18.3l-28.6,4.2L306.4,605.7z"/>
				<path class="st32" d="M306.4,569.5c0,0,7.2,10.5,1.1,16.7c0,0,3.3,2.5,8.7-1.9c5.4-4.3,4.2-17.1,4.2-17.1l-6.3-3.8L306.4,569.5z
					"/>
				<path class="st32" d="M377.4,542.4c0,0,8.2-32-7.7-44.6c-9.3-7.3-16.6,6.3-16.6,6.3L377.4,542.4z"/>
				<g>
					<g>
						<g>
							<path class="st4" d="M252.1,665.9c0,0-11.9,57.9-17.3,82c0,0,14.3,2.7,26-6.8l13.5-67.8L252.1,665.9z"/>
							<path class="st5" d="M242,714.5c6.9-0.7,19.2-2.6,24.7-3.2l2.1-10.6l-23.2-3.7C244.5,702.6,243.2,708.6,242,714.5z"/>
							<g>
								<path class="st11" d="M378.6,740.2l-0.7,60.1c-44.2,21.6-99-10.8-99-10.8c1.8-14.8,3.1-27.1,3.1-27.1L264.6,674
									c-9.3-45.2-0.8-48.1-0.8-48.1c18.4-6.6,60.2-11.5,60.2-11.5h21c0,0,33,9.4,43.2,14.8C388.4,629.2,391.6,660.9,378.6,740.2z"
									/>
								<path class="st43" d="M272.7,867.2h103.9c1.6-22.8,2.8-40,2.9-40.7c0-0.3,0-0.6,0.1-0.9c0-0.4,0.1-0.6,0.1-0.6l0,0
									c1.1-16.1-1.8-26.7-1.8-26.7L279.1,788c-1.2,4.8-2.2,9.2-3.1,13.3c-8.7,24.6-3.5,45.8-3.5,45.8
									C272.5,852.5,272.5,856.8,272.7,867.2z"/>
								<path class="st44" d="M272.7,867.2h9.2c0.2-1.6,0.4-2.6,0.4-2.8c0-1-4.2-8.1-4.2-11.1s7.7-1.7,7.6-7.4s-7.8,1.2-7.8,1.2
									c-8.1-12.4,0-46,2.9-58.9L279,788c-1.2,4.8-2.2,9.2-3.1,13.3c-8.7,24.6-3.5,45.8-3.5,45.8
									C272.5,852.5,272.5,856.8,272.7,867.2z"/>
								<path class="st44" d="M329.1,867.2h12.5c3.1-7.9,5.4-16.9,4.9-23.4c-0.8-10.5,2.2-38.5,2.2-38.5h-14.2
									c0,0-1.8,22.6-0.9,33.7C334.1,845.8,331.3,858.3,329.1,867.2z"/>
								<path class="st44" d="M320.3,867.2c-4.7-7.6-10.6-16.4-11.2-14.6c-0.4,1.3,2.4,7.8,5.7,14.6H320.3z"/>
								<path class="st4" d="M314.1,552.4c0,0,2.4,39.1-1.3,66.6c0,0,29.1,14.6,41.6,0.9c0,0-10.1-15.3-5-51.3L314.1,552.4z"/>
								<path class="st5" d="M348.5,599.4c-0.9-7.8-1-18,0.8-30.8l-29-13.3l-6.1,0.3c0.5,9.7,1.5,39.8-1.4,62.5l13.5,5.3
									c0,0,0,0-4-6.9s-2.9-29.7-2.9-29.7C333.2,596.2,343.9,598.8,348.5,599.4z"/>
								<path class="st15" d="M356.1,495.9c0,0,6.2,3.6,11.2,10.6c0,0,6.9,10.3,10.3,30.4c0,0,9.4,26.8-3.2,59.3
									c0,0-7.3,3.9-15.6,3.7c0,0-38.4-3.4-46.9-29.8c0,0-22.1-55.4-0.3-72.9C311.7,497.2,327.3,479.9,356.1,495.9z"/>
								<path class="st5" d="M305,546.9c1.2,1.4,2.3,2.1,3.3,1.8c6.6-1.6,5.2-14.6,4.3-19c-0.9-4.4,3.9-4.8,3.9-4.8
									c40.3,6.5,50.1-11.9,50.1-11.9l6.3,5.5c-2.9-8.1-5.6-12.1-5.6-12.1c-4.9-6.9-11.2-10.6-11.2-10.6c-0.2-0.1-0.4-0.2-0.6-0.3
									l-51.4,13.2C300.5,520,302.2,534.7,305,546.9z"/>
								<path class="st15" d="M312.4,569.8c0,0-6.5,5.9-12.1-4.1c-5.6-9.9-3.7-17.1,0-18s8.8,9,8.8,9S313.9,564.3,312.4,569.8z"/>
								<path class="st16" d="M298.8,554.9c0,0,1.2-2.6,2.3-2.2c0,0-1.8,3.8,1.4,11.3c0,0-1.3-6.9,0.8-8.3c0,0,2.7,2.8,2.2,4.4
									c-0.5,1.6-1.5,4.2-0.5,4.9c0.9,0.7,2.9,2,2.9,2s-0.4,1.8-2,1.5c0,0,4.4,2,3.8-2.9l-2.4-1.5c0,0,0.2-2,1.3-2.9
									c0,0-2.4-7.8-6.7-10C301.9,551.2,299.4,549.7,298.8,554.9z"/>
							</g>
							<path class="st45" d="M358.9,824.4c9.6-1,18.7-3.5,26.6-8.3l-5.4-84.9c12.9-79.3,8.3-102,8.3-102
								c-7.1-3.8-25.4-9.5-35.7-12.6c1,2.3,1.7,3.4,1.7,3.4c-12.4,13.7-41.6-0.9-41.6-0.9c0.1-1.1,0.3-2.2,0.4-3.3
								c-13.7,1.9-36.8,5.6-49.2,10.1c0,0-8.5,2.9,0.8,48.1l14.2,88.1c0,0-6.6,28.5-8.4,43.3c0,0,33.8,16.1,68.2,19.1
								c0,0,2.1-18.6,2.6-27.4c0.5-8.8,0,0,0,0l17.6-0.7l0,0v28H358.9z"/>
							<path class="st46" d="M340.8,636l-10.7-11.2c-9.4-1.9-17.3-5.8-17.3-5.8c0.1-1.1,0.3-2.2,0.4-3.3c-3.3,0.5-7,1-11.1,1.7
								c0,0,6.2,42,10.6,41.8c4.5-0.2,4.7,1.2,6.8-9.5c2.1-10.7,12.8-7.5,12.8-7.5l9.2,1.3L340.8,636z"/>
							<path class="st46" d="M385.5,816l-0.9-14.7c-6.8,6.8-16.1,13.8-16.1,13.8c0-15.9-6.4-165.4-6.4-165.4l9.8,7.4
								c0.8-5.5-4.8-19.3-4.8-19.3l-12.4-13.3l-6.7,5.1l-1.2,167l12-0.5v28.1C368.5,823.4,377.6,820.8,385.5,816z"/>
							<path class="st46" d="M260.4,642.4c0.2,7.1,1.3,17.2,4.3,31.5l14.2,88.1c0,0-6.6,28.5-8.4,43.3c0,0,33.8,16.1,68.2,19.1
								c0,0,0.8-6.9,1.5-14.3c-19.5,6.3-63.1-8.4-63.8-9.3c-0.7-1,2.2-23.6,3.6-25.6c1.4-1.9,11.3-1.4,11.6-3.4
								c0.2-1.9-8.9-1.9-9.5-3.9c-0.6-1.9,13.9-5.3,14.8-8.2c1-2.9-7.7,2.4-11.7,0s-7.6-31.3-8.3-34.5c-0.7-3.2,10.6-10.7,10.6-10.7
								c8.9-16.8-12.2-82.8-12.2-82.8l-14.6,6.3C260.7,638,260.6,639.5,260.4,642.4z"/>
							<path class="st47" d="M363.7,823.7c3.9-31.8-5.1-188.8-5.1-188.8l-14-1.9l4.7,163.6l9.6-0.4v28.1
								C360.5,824.2,362.1,824,363.7,823.7z"/>
							<path class="st47" d="M348,744.2L338.9,632l-5.3,9.3c0,0,11.9,89.2,0.7,182.6c1.5,0.2,2.9,0.3,4.4,0.5c0,0,2.1-18.6,2.6-27.4
								c0-0.1,0-0.2,0-0.2c0,0.1,0,0.2,0,0.2l2.8-0.1L348,744.2z M341.5,793.6c0,0.2,0,0.4,0,0.6
								C341.4,793.9,341.5,793.7,341.5,793.6z"/>
							<g>
								<path class="st34" d="M354.3,638.1c0,0,1-11.6,0-18.2c-12.3,13.6-40.9-0.5-41.5-0.9l24.7,20.7c0,0,10.5,77.2,2.6,173.3
									c0,0,7.9,4.2,18.8,0C358.9,813.1,359.5,672.3,354.3,638.1z"/>
							</g>
							<path class="st48" d="M354.3,619.9c-9.6,10.6-29.2,4.3-37.6,0.9l1.4,2.7l6.1,5.1c7.5,0.9,23.9,3.2,25.1,5c0,0-3.7,8.7-1,12.1
								c2.6,3.4,4,6.8,4,6.8s1.4,125.1-3.4,162.5c2.8,0,6.2-0.4,10-1.8c0,0,0.6-140.8-4.5-175C354.3,638.1,355.3,626.5,354.3,619.9z
								"/>
							<g>
								<path class="st18" d="M352.6,616.5L352.6,616.5L352.6,616.5z"/>
							</g>
							<g>
								<path class="st32" d="M344,535c-8.8-0.2-13.1,4.5-13.4,4.7l1.9,2.1c0.1-0.1,7.7-6.3,17.1-4.1
									C349.6,537.9,348.5,535.2,344,535z"/>
							</g>
							<g>
								<path class="st32" d="M363.8,534.4c0,0,1.4-3.4,5.1-4c1.6-0.2,3.2,0.4,4.8,1.6l1.3-1.9c-2.2-1.5-4.4-2-6.7-1.6
									c-1.6,0.3-2.5,0.7-3.5,1.6C364.9,530.1,363,532.4,363.8,534.4z"/>
							</g>
							<g>
								<path class="st24" d="M348,547.7c0.7,2.9-0.1,5.7-1.9,6.1c-1.8,0.4-3.8-1.6-4.6-4.6c-0.7-2.9,0.1-5.7,1.9-6.1
									C345.2,542.7,347.2,544.7,348,547.7z"/>
								<path class="st18" d="M344.4,546c0.2,0.7-0.2,1.3-0.9,1.5c-0.7,0.2-1.3-0.2-1.5-0.9s0.2-1.3,0.9-1.5
									C343.6,544.9,344.2,545.3,344.4,546z"/>
							</g>
							<g>
								<path class="st24" d="M373.6,541.7c0.7,2.9,0.1,5.6-1.5,6s-3.4-1.7-4.2-4.7c-0.7-2.9-0.1-5.6,1.5-6
									C370.9,536.7,372.8,538.8,373.6,541.7z"/>
								<path class="st18" d="M370.4,539.9c0.2,0.7-0.2,1.3-0.9,1.5c-0.7,0.2-1.3-0.2-1.5-0.9s0.2-1.3,0.9-1.5
									C369.6,538.9,370.3,539.3,370.4,539.9z"/>
							</g>
							<g>
								<g>
									<path class="st25" d="M364.9,546.1c0.7,1,1.3,2.1,2,3.1l1.9,3.1c0.3,0.5,0.6,1,1,1.5c0.3,0.5,0.6,1,1,1.5s0.7,1,1,1.5
										l1.1,1.3l-0.1-0.1c0.4,0.3,0.6,0.5,0.8,0.8c0.2,0.3,0.5,0.6,0.6,1c0.4,0.7,0.6,1.6,0.5,2.4c-0.1,0.4-0.2,0.9-0.4,1.2
										c-0.2,0.4-0.4,0.7-0.7,1c-0.2,0.3-0.5,0.5-0.8,0.8c-0.3,0.2-0.6,0.4-0.9,0.6c-0.6,0.4-1.3,0.7-1.9,0.9s-1.3,0.4-2,0.5
										l-1,0.1c-0.3,0-0.7,0-1,0s-0.7,0-1-0.1l-1-0.2c0.7-0.1,1.3,0,2-0.2c0.3-0.1,0.6-0.1,0.9-0.2l0.9-0.3
										c0.6-0.2,1.2-0.5,1.7-0.8c0.6-0.3,1.1-0.6,1.6-1s0.9-0.8,1.2-1.2c0.2-0.2,0.3-0.4,0.4-0.7c0.1-0.2,0.1-0.5,0.2-0.7
										c0-0.5-0.1-0.9-0.3-1.4c-0.1-0.2-0.3-0.5-0.5-0.7s-0.4-0.4-0.5-0.6l-0.1-0.1l0,0l-1.3-1.5c-0.4-0.5-0.7-1.1-1-1.6
										s-0.6-1.1-0.9-1.6s-0.6-1.1-0.8-1.7c-0.5-1.1-1-2.3-1.5-3.4C365.7,548.5,365.2,547.3,364.9,546.1z"/>
								</g>
							</g>
							<path class="st49" d="M371.5,569.5c0,0-10.2,7.6-23.5,1.8C348,571.4,363.3,593.2,371.5,569.5z"/>
							<path class="st50" d="M365,579.5c-0.6-2.1-3-5.5-12.7-3.3C355.6,579.2,360.5,582.2,365,579.5z"/>
							<path class="st16" d="M367.1,581.5c0,0-4.6,2.7-10,2.4C357.1,583.9,364.5,589.3,367.1,581.5z"/>
							<path class="st5" d="M374.4,596.2c0.2-0.5,0.4-1,0.6-1.5c-33.8,7.4-61.9-21.8-62.1-22c10,24,45.9,27.2,45.9,27.2
								C367.2,600.1,374.4,596.2,374.4,596.2z"/>
							<g>
								<g>
									<path class="st25" d="M298.7,555.5c0-0.8,0.1-1.6,0.2-2.3c0.1-0.4,0.2-0.8,0.4-1.2c0.2-0.4,0.4-0.8,0.8-1
										c0.3-0.3,0.9-0.4,1.3-0.3c0.1,0,0.2,0,0.4,0.1l0.3,0.1c0.2,0.1,0.4,0.2,0.5,0.3c0.4,0.2,0.7,0.5,1,0.7
										c0.3,0.3,0.6,0.5,0.9,0.8c1.1,1.2,2,2.5,2.8,3.8c0.4,0.7,0.8,1.4,1.1,2.1c0.3,0.7,0.6,1.5,0.7,2.4v0.1l-0.1,0.1
										c-0.3,0.4-0.6,0.8-0.8,1.2c-0.1,0.2-0.2,0.4-0.3,0.6c-0.1,0.2-0.2,0.5-0.2,0.5s0,0-0.1-0.1c-0.1,0,0.1,0,0.1,0.1l0.3,0.2
										l0.6,0.4l1.3,0.9l0.1,0.1v0.1c0.1,0.7,0.1,1.3-0.1,1.9c-0.1,0.3-0.3,0.6-0.5,0.9c-0.1,0.1-0.2,0.3-0.4,0.3
										c-0.2,0.1-0.3,0.2-0.5,0.2c-0.3,0.1-0.6,0.1-1,0.1c-0.3,0-0.6-0.1-0.9-0.2c-0.3-0.1-0.6-0.2-0.9-0.3l-0.8-0.4
										c0.6,0.2,1.1,0.4,1.7,0.5c0.3,0.1,0.6,0.1,0.9,0.1s0.6-0.1,0.8-0.2c0.1,0,0.2-0.1,0.3-0.2c0.1-0.1,0.2-0.2,0.3-0.3
										c0.2-0.2,0.3-0.5,0.3-0.7c0.1-0.5,0.1-1.1,0-1.7l0.1,0.2l-1.3-0.8l-0.7-0.4L307,564c-0.1-0.1-0.1,0-0.2-0.2
										c-0.2-0.2-0.2-0.3-0.2-0.4c0-0.5,0.1-0.7,0.2-0.9c0.1-0.3,0.2-0.5,0.4-0.7c0.3-0.5,0.5-0.9,0.8-1.3l-0.1,0.3
										c0-0.6-0.3-1.4-0.6-2.1c-0.3-0.7-0.7-1.4-1-2c-0.8-1.3-1.6-2.6-2.7-3.7c-0.2-0.3-0.5-0.6-0.8-0.8c-0.3-0.3-0.6-0.5-0.8-0.7
										c-0.2-0.2-0.7-0.5-0.9-0.5c-0.3-0.1-0.6-0.1-0.9,0.1c-0.6,0.4-0.9,1.1-1.1,1.8C299,554,298.8,554.8,298.7,555.5z"/>
								</g>
							</g>
							<g>
								<g>
									<path class="st25" d="M301.5,561.6c0,0-0.2-0.7-0.5-1.8s-0.6-2.6-0.7-4.1c0-0.8,0-1.5,0.1-2.2c0.1-0.4,0.2-0.7,0.5-1
										c0.2-0.3,0.6-0.5,0.9-0.5c0.7-0.1,1.1,0.2,1.5,0.3c0.3,0.2,0.5,0.2,0.5,0.2l-0.3,0.5c0,0-0.2-0.1-0.4-0.2
										c-0.3-0.1-0.7-0.3-1.2-0.3s-0.9,0.5-1,1.1c-0.2,0.6-0.2,1.4-0.2,2.1c0,1.5,0.3,3,0.5,4.1
										C301.4,560.9,301.5,561.6,301.5,561.6z"/>
								</g>
							</g>
						</g>
					</g>
				</g>
				<path class="st18" d="M369.1,573.7l0.7-3c-3.5,1.9-11.7,5.1-21.7,0.7c0,0,1.1,1.5,2.8,3.3C359.5,577.3,369.1,573.7,369.1,573.7z
					"/>
				<path class="st51" d="M365.9,467.1c0,0,0.8,4.8-0.6,7.6c0,0-0.2-7.7-7.9-13.5c0,0-7.3,12.5-12.9,13.2c0,0,5.6-5,4.8-10.1
					c0,0-4.2,7.6-14.9,9.6c-10.8,2.1-46.1,12.1-44.2,31.8c0,0-19.4,11.3,7.1,45.3l0,0c0.6-1.8,1.7-3,3-3.3c1.9-0.4,4.1,1.8,5.8,4.2
					l0,0c0,0,2.7,3.5,4.3,3.4c0,0,3.7-7.7-0.7-22c0,0-2.6-12.2,0-15.9c0,0,34.5,3.5,46.2,0c0,0,9.7-4,10.5-7.8c0,0,3.7,2.7,5.1,5.4
					C371.5,515,381.1,488.5,365.9,467.1z"/>
				<path class="st32" d="M368.1,470.6c5,30.7-15.6,32.5-17.3,34.7c-1.9,2.4-28.2,4.8-35.2,5c-7.1,0.2-19.6-2.1-19.6-2.1l7,3.6
					c-2.9,4-0.8,13,1.2,17.8s0,8.9,0,8.9c-5.7-6.4-9-25.3-9-25.3c-4.5,14.8,3.4,27,3.4,27c-2.9-1.6-10.6-10-14.9-14.8
					c1.3,6.5,5.1,14.9,13.4,25.6l0,0c0.6-1.8,1.7-3,3-3.3c1.9-0.4,4.1,1.8,5.8,4.2c0,0,2.7,3.5,4.3,3.4c0,0,3.7-7.7-0.7-22
					c0,0-2.6-12.2,0-15.9c0,0,34.5,3.5,46.2,0c0,0,9.7-4,10.5-7.8c0,0,3.5,2.9,5.1,5.4l0.4-1.3C373.5,508.5,378.4,488.4,368.1,470.6
					z"/>
				<path class="st47" d="M309.7,606.3c0,0,17.5,21,27.7,33.4c0,0,2.8,2.9,0.4,3.5c-6.5,1.7-21.8-13.9-24.5-1.9c0,0-1.3,8.4-5.1,8.4
					c0,0-3.8-20.7-7.8-32c0,0-1.4-1.1,1.6-3.4c3-2.2,1.4-2.6,1.6-5.8C303.8,605.3,307.7,603.5,309.7,606.3z"/>
				<path class="st47" d="M354.3,639.9c0,0-1.2,0.2,0-5.1c0,0,0.7-13.2-2.5-20.4l-1.4-4.6c0,0,3.3-0.5,5.8,1.1
					c2.6,1.6,16.4,32.1,19,36c0,0,1.3,2-1.7,2.9C373.5,649.7,360.3,631.1,354.3,639.9z"/>
				<g>
					<path class="st35" d="M282.1,727.2c1.1-0.1,2.1-0.4,3.1-0.8C284.1,726.7,283.1,727,282.1,727.2z"/>
				</g>
				<path class="st47" d="M313.1,752.1c0,0-18.6,28.1-33,36l2.1,3.5c0,0,21.3-11.9,34.2-37L313.1,752.1z"/>
				<g>
					<g>
						<polygon class="st37" points="332,773.7 269.9,762.6 280.8,680.8 284.7,679.7 346.8,690.8 						"/>
						<polygon class="st38" points="281.3,681.4 284.9,680.2 345.3,691 331,771.5 327.6,773.6 						"/>
						
							<rect x="262.3" y="696.2" transform="matrix(0.1759 -0.9844 0.9844 0.1759 -465.5031 899.4286)" class="st39" width="84.3" height="63"/>
						
							<rect x="299.7" y="687.2" transform="matrix(0.1759 -0.9844 0.9844 0.1759 -446.1049 887.9189)" class="st18" width="15.1" height="46.4"/>
					</g>
					<path class="st40" d="M330.4,761.8c-60.1,0.7-50.9-64.1-47.6-80.7l-2-0.4l-14.8,83l62,11.1L330.4,761.8z"/>
				</g>
				<path class="st47" d="M375.5,754.8l-3.6,4.8c0,0,7.3,21.5,11.6,25.7c0,0,2-5.5-0.7-10.6L375.5,754.8z"/>
				<path class="st35" d="M434.3,599.9c-4.5-1.3-34.1-52.1-36-56.8c-1.1-2.6,0-8.9,1.2-14.1c-8.4,2-7.1,17.1-7.1,17.1
					c7.7,16.3,38,61.3,38,61.3c-4.5,3.3-2.6,5-2.6,5c-6.2,2.5-11.9,4.8-17,7c9.5-0.3,18.3-0.4,18.3-0.4l11.6,4.6l-6.4-9.4
					c22.5,11.9,18.6,4.2,17.4,0c-1.3-4.2-15.4-6.7-15.4-9.4c0-2.6,16.7,4.6,18,0C455.6,600.4,438.8,601.2,434.3,599.9z"/>
				<path class="st47" d="M392.5,546.1c0,0-8.3-5.5-3.3-11.1c6.6-7.3,11.6-10.4,16.7-10.9l7.7,10.3
					C413.6,534.4,397.4,531.9,392.5,546.1z"/>
				<path class="st15" d="M315.5,733.1c0,0,7.9,1,9.9,0.8s13.1-1.9,15.3-3.5c0,0,4.3-1.8,3.8-4.8l-0.9-1.1c0,0,2.3-0.6,2.4-4.4
					l-1.4-2.1c0,0,2.5-2.1,2.2-4.3l-1.5-2.7c0,0,5.4-3.6,4.9-5.3s-1.6-1.6-2.3-1.6l-19.1,3.7c0,0,2.7-4,2.4-4.8
					c-0.3-0.8-1.4-1.1-3.2,0c0,0-4.5,4-6.9,6.1s-6.1,7.8-7.3,12.7L315.5,733.1z"/>
				<path class="st15" d="M236.7,742.8c0,0,8.8-6.6,43.5-11.1l36-10.6l0.2,11.5c0,0-43.8,21.8-53.5,24.3c-7,1.8-19,7.2-26.8,1.2
					C236,758.2,232,751.2,236.7,742.8z"/>
				<path class="st34" d="M274.8,707.3c0,0,15.1-95.3-12.2-80.2c0,0-9.6,7-21.9,67.8c0,0-11.3,49.7-9.8,53.3c0,0-5.3,15.2,7.7,15.6
					c0,0,3.8,6.1,74.2-26.8c0,0,1.6-12.9-3-16.9c0,0-37.1,9.2-44.7,12.4C265.1,732.4,274.3,711,274.8,707.3z"/>
				<path class="st35" d="M309.7,733.2c-4.3-0.7-54.5,23.6-67.7,27.5c-6,1.7-9.7-0.6-12-3.8c0.6,3.5,2.7,6.7,8.6,6.9
					c0,0,3.7,6,72.4-26C311.2,735.3,310.9,733.4,309.7,733.2z"/>
				<path class="st35" d="M271,730.4C271,730.4,270.9,730.4,271,730.4c-0.5,0.2-1,0.3-1.4,0.4c-0.1,0-0.2,0-0.2,0.1
					c-0.4,0.1-0.7,0.2-1,0.3c-0.1,0-0.2,0.1-0.3,0.1c-0.3,0.1-0.5,0.2-0.8,0.3c-0.1,0-0.3,0.1-0.4,0.1c-0.2,0.1-0.5,0.2-0.7,0.2
					c-0.1,0-0.2,0.1-0.3,0.1c-0.3,0.1-0.6,0.2-0.8,0.3c0,0,9.2-21.4,9.7-25.1c0,0,15.1-95.3-12.2-80.2c0,0-1,0.8-2.8,3.9
					c3.8,10.5,5.5-0.4,10.7,14.5c2.8,8.1,0.6,53,0.6,53c-4.6,4.1-13.3,15.1-13.3,18.5s2.2,11.9,0,13.8c-2.2,1.9-19-2.2-18.8,1
					c0.2,3.1,9.4,1.4,12.3,2.7c2.9,1.2-18.3,4.3-18.1,8.7c0.2,4.3,20.6-6.9,22.1-6.1c1.5,0.8-23,13.8-20.6,15
					c2,1,27.2-17.3,41.2-23.1C274.2,729.4,272.5,729.9,271,730.4z"/>
				<path class="st47" d="M312.8,737c0,0,1.6-12.9-3-16.9c0,0-1.3,0.3-3.4,0.8c0.8,2.5,3,10.5,2,18.1
					C309.8,738.4,311.2,737.7,312.8,737z"/>
			</g>
			<g>
				<path class="st52" d="M725.1,559.7c0,0-19.7-25.1-4.1-34.3L725.1,559.7z"/>
				<g>
					<g>
						<path class="st53" d="M727.2,629.7c0,0-10.6,4-10.6,24.9l1.9,52.1c0,0-2.2,0-1.9,5.1c0,0-0.6,0.5-1.6,2.6
							c0,0-31.8,17-32.9,24.1c0,0-6.6,21.1,12.6,20.5c0,0,37.3-15.6,49.6-27.5C756.6,719.6,727.2,629.7,727.2,629.7z"/>
						<path class="st54" d="M682,752.2c11.3-0.1,45.6-18.1,45.6-18.1c0.2-3.2-13.7-13.7-11.6-14c2.2-0.4,15.3,10.5,15.3,10.5
							c-0.4-6-13.1-14.7-11.9-16.2c1.2-1.4,8.7,3.6,8.7,3.6s-4.8-52.6-4.8-62.7c0-10.1,3.1-19.3,3.1-19.3l2.3-1.3
							c6,19.2,26,86.6,15.5,96.8C732,743.4,694.7,759,694.7,759C687.1,759.3,683.5,756.1,682,752.2z"/>
						<path class="st55" d="M684.9,754c2.4,3.4,6.6,4.6,9.5,2.6c2.8-2,3.2-6.4,0.8-9.8c-2.4-3.4-6.6-4.6-9.5-2.6
							S682.5,750.6,684.9,754z"/>
						<path class="st4" d="M708,762.7c0,0-7.5,3.1-18.4-7.4l-7.1-4.8c0,0-3.3-4.9,1.5-10.1l9,0.4c0,0,18.2,5.7,17.6,13
							C709.9,761.1,708,762.7,708,762.7z"/>
						<g>
							<path class="st56" d="M807.8,605.7c0,0-15.4-4.5-29.1,0c-13.7,4.5-5.8,18.3-5.8,18.3l28.6,4.2L807.8,605.7z"/>
							<g>
								<g>
									<g>
										<g>
											<path class="st57" d="M841.5,867.2H737.6c-1.6-22.8-2.8-40-2.9-40.7c0-0.3,0-0.6-0.1-0.9c0-0.4,0-0.7,0-0.7l0,0
												c-1.1-16.1,1.8-26.7,1.8-26.7l98.8-10.2c1.2,4.8,2.2,9.2,3.1,13.3c8.7,24.6,3.5,45.8,3.5,45.8
												C841.7,852.5,841.7,856.8,841.5,867.2z"/>
											<path class="st58" d="M841.5,867.2h-9.2c-0.2-1.6-0.4-2.6-0.4-2.8c0-1,4.2-8.1,4.2-11.1s-7.7-1.7-7.6-7.4
												c0.1-5.7,7.8,1.2,7.8,1.2c8.1-12.4,0-46-2.9-58.9l1.8-0.2c1.2,4.8,2.2,9.2,3.1,13.3c8.7,24.6,3.5,45.8,3.5,45.8
												C841.7,852.5,841.7,856.8,841.5,867.2z"/>
											<path class="st59" d="M844.7,835.4c-0.1,1.7,0.1,3.9,0,5.3c-25.2-0.5-36.6-21.9-36.6-21.9h3.2
												C820.1,830,843.2,835,844.7,835.4z"/>
											<path class="st58" d="M785.1,867.2h-12.5c-3.1-7.9-5.4-16.9-4.9-23.4c0.8-10.5-2.2-38.5-2.2-38.5h14.2
												c0,0,1.8,22.6,0.9,33.7C780.2,845.8,782.9,858.3,785.1,867.2z"/>
											<path class="st58" d="M793.9,867.2c4.7-7.6,10.6-16.4,11.2-14.6c0.4,1.3-2.4,7.8-5.7,14.6H793.9z"/>
											<path class="st4" d="M800.2,552.4c0,0-2.4,39.1,1.3,66.6c0,0-29.2,14.6-41.6,0.9c0,0,10.1-15.3,5-51.3L800.2,552.4z"/>
											<path class="st5" d="M765.7,599.4c0.9-7.8,1-18-0.8-30.8l29-13.3l6.1,0.3c-0.5,9.7-1.5,39.8,1.4,62.5l-13.5,5.3
												c0,0,0,0,4-6.9s2.9-29.7,2.9-29.7C781,596.2,770.3,598.7,765.7,599.4z"/>
										</g>
										<path class="st60" d="M755.3,824.4c-9.6-1-14.7-1.3-22.5-6.1l1.4-87.1c-12.9-79.3-8.3-102-8.3-102
											c7.1-3.8,25.4-9.5,35.7-12.6c-1,2.3-1.7,3.4-1.7,3.4c12.4,13.7,41.6-0.9,41.6-0.9c-0.1-1.1-0.3-2.2-0.4-3.3
											c13.7,1.9,36.8,5.6,49.2,10.1c0,0,8.5,2.9-0.8,48.1l-14.1,88c0,0,13.8,57.3,7.9,52.9c0,0-22.9,6.5-57.3,9.5H755.3z"/>
										<path class="st61" d="M747.3,638.4v-0.6l13.3-22l1.3,0.1c-1.1,2.7-2,4.1-2,4.1c11.5,12.7,37.1,1.2,41.1-0.6l7.7,0.7
											c0,0-2.7,37.1-5,37c-2.3-0.2-4.3-2.4-5.2-8.2s-8.4-6.6-11.2-5.6c-2.7,1-15.3,1.9-17.7,2.3c-2.4,0.5-5.6-2.7-11.1-3.9
											c-5.5-1.1-10.6,9.3-13.2,11.6c-2.6,2.3-3.6,1-3.6,1C740.5,651.9,747.3,638.4,747.3,638.4z"/>
										<path class="st61" d="M813.7,719.2c-3.1-10.4,4.1-16.9,4.1-16.9c3.3-33.2,17.2-69.9,21.1-79.8c4.3,1,8.2,2.1,11.4,3.3
											c0,0,8.5,2.9-0.8,48.1l-0.9,5.6l-12,31.5C836.6,711,816.9,729.6,813.7,719.2z"/>
										<path class="st61" d="M843.3,814.9c0,0-22.9,6.5-57.3,9.5h-30.6c-9.6-1-14.7-1.3-22.5-6.1l0.1-6.7
											c29,11.9,86.1-3.4,92.9-6.2c7.1-2.9,0-33.5,0-33.5c-11.3,2.4-67.4-2.2-74.5-1.7s-11.3,0-11.3,0h-6.5l0.3-17.6l60.9-9.2
											l46.4-16.9l-5.7,35.7C835.4,762,849.2,819.3,843.3,814.9z"/>
										<path class="st62" d="M818.8,861c2.4-12.5,0.7-31.2,12.6-36.3c1.7-1.7,1.7,3.4,0.3,7.2"/>
										<path class="st62" d="M776.8,683.4c1.9,40.9,7,81.7,12.1,124.2c3.4,18.7,6.8,35.7,17.5,53.5"/>
										<path class="st63" d="M752.8,628.2c2-2.6,3.8-5.4,5.1-8.4c0.3-0.7,0.5-1.5,0.3-2.3c1.1-0.3,2.2-0.7,3.4-1
											c-1,2.3-1.7,3.4-1.7,3.4c12.4,13.7,41.6-0.9,41.6-0.9c-0.1-1.1-0.3-2.2-0.4-3.3c2,0.3,4.3,0.6,6.6,1
											c-2.3,3.6-36,48.6-56.4,12.6C751.9,629,752.4,628.7,752.8,628.2z"/>
										<path class="st64" d="M753.1,632.2l1.7-7c1.1-1.7,2.2-3.5,3.1-5.4c0.3-0.7,0.5-1.5,0.3-2.3c0.6-0.2,1.2-0.4,1.8-0.5l1,0.8
											c-0.7,1.4-1.1,2.1-1.1,2.1c0.8,0.9,1.7,1.6,2.6,2.3c0.3,4.8,1.4,13.4,6.4,15.6c0,0,15.6-6.2,23.7-10.5
											c2.4-1.3,4.1-0.6,5.4,0.9C786.4,639.8,767.1,653.1,753.1,632.2z"/>
										<polygon class="st65" points="708.6,726.1 731.4,752.3 711,760.3 683.2,741.9 683.2,736.8 										"/>
										<path class="st66" d="M715.5,734.1l15.9,18.2l-20.4,8l-16.3-10.8C710.5,743.6,714.5,737.5,715.5,734.1z"/>
										<g>
											<path class="st18" d="M761.6,616.5L761.6,616.5L761.6,616.5z"/>
										</g>
									</g>
								</g>
							</g>
							<path class="st34" d="M804.5,606.3c0,0-17.5,21-27.7,33.4c0,0-2.8,2.9-0.4,3.5c6.5,1.7,21.8-13.9,24.5-1.9
								c0,0,1.3,8.4,5.1,8.4c0,0,3.8-20.7,7.8-32c0,0,1.4-1.1-1.6-3.4c-3-2.2-1.4-2.6-1.6-5.8S806.6,603.5,804.5,606.3z"/>
							<path class="st34" d="M759.9,639.9c0,0,1.3,0.2,0-5.1c0,0-0.7-13.2,2.5-20.4l1.4-4.6c0,0-3.3-0.5-5.8,1.1
								c-2.6,1.6-16.4,32.1-19,36c0,0-1.3,2,1.7,2.9C740.7,649.7,753.9,631.1,759.9,639.9z"/>
							<path class="st15" d="M832.4,714.4c0,0-11.6,0-43.8,15.6l-55.9,21.9l6.7,9.4c0,0,71.5-15.7,80.8-19.4
								c6.7-2.7,16.9-7.3,19.7-16.6C839.9,725.3,841.2,718.4,832.4,714.4z"/>
						</g>
						<path class="st15" d="M740.1,761.4c0,0-6.6,4.4-8.5,5.2s-12.6,4.1-15.3,3.7c0,0-4.6,0.3-5.6-2.6l0.3-1.4c0,0-2.3,0.5-4.1-2.9
							l0.4-2.5c0,0-3.2-0.7-3.9-2.9l0.2-3.1c0,0-6.5-0.8-6.8-2.5c-0.3-1.8,0.8-2.1,1.3-2.4l23.8-9.1c0,0-4.5-3.8-4.6-4.7
							s1.1-0.2,3.2,0c0,0,4.3,1.7,7.4,2.5c3.1,0.8,5.4,8,8.7,11.8L740.1,761.4z"/>
						<path class="st4" d="M825.9,718.1c0,0,13.8-83.3,25.9-90.8c0,0,17.9,12,6.9,41L840,725.2L825.9,718.1z"/>
						<path class="st15" d="M728.6,512.6c0,0-4.4,5.7-6.3,14c0,0-2.5,12.1,2.1,32.1c0,0,1.5,28.3,25.6,53.6c0,0,8.2,0.8,15.8-2.5
							c0,0,34.2-17.8,32-45.4c0,0-0.7-59.6-27.6-67.5C770.1,496.8,749.1,486.7,728.6,512.6z"/>
						<path class="st5" d="M795.3,540.2c-0.6,1.7-1.4,2.8-2.4,3c-6.7,1.1-10.4-11.5-11.3-15.9c-0.9-4.4-5.4-2.9-5.4-2.9
							c-34.8,21.4-50.8,8.1-50.8,8.1l-3.7,7.5c-0.4-8.5,0.6-13.4,0.6-13.4c1.9-8.3,6.3-14,6.3-14c0.2-0.2,0.3-0.4,0.5-0.6l52.5-7.4
							C789.2,513.6,793.2,527.8,795.3,540.2z"/>
						<path class="st15" d="M797.2,564.2c0,0,8.2,3,9.7-8.4c1.4-11.3-3.1-17.2-6.9-16.7c-3.7,0.6-4.7,11.6-4.7,11.6
							S793.7,559.6,797.2,564.2z"/>
						<path class="st16" d="M804.1,545.2c0,0-2.1-1.9-3-1.2c0,0,3.1,2.8,3,11c0,0-1.4-6.9-3.9-7.3c0,0-1.4,3.6-0.4,4.9
							c1,1.3,2.9,3.3,2.4,4.3c-0.6,1-1.9,3-1.9,3s1.1,1.5,2.4,0.6c0,0-3.3,3.6-4.6-1.2l1.6-2.3c0,0-1-1.7-2.3-2.2
							c0,0-0.8-8.1,2.4-11.8C799.8,543,801.6,540.6,804.1,545.2z"/>
						<g>
							<path class="st24" d="M754.7,544.1c8-3.5,13.8-0.9,14.2-0.7l-0.9,2.7c-0.1,0-9.5-2.8-17.3,2.8
								C750.7,548.8,750.6,545.9,754.7,544.1z"/>
						</g>
						<g>
							<path class="st24" d="M736.2,551.1c0,0-2.6-2.6-6.3-1.7c-1.6,0.4-2.8,1.6-3.8,3.3l-1.9-1.3c1.5-2.2,3.3-3.6,5.5-4
								c1.6-0.3,2.6-0.3,3.9,0.1C733.5,547.5,736.2,548.9,736.2,551.1z"/>
						</g>
						<g>
							<path class="st24" d="M755.8,557.3c0.4,3,2.2,5.2,4,4.9s2.9-3,2.5-6s-2.2-5.2-4-4.9S755.4,554.3,755.8,557.3z"/>
							<path class="st18" d="M758.5,554.3c0.1,0.7,0.7,1.1,1.4,1s1.1-0.7,1-1.4s-0.7-1.1-1.4-1C758.9,553,758.4,553.7,758.5,554.3z"
								/>
						</g>
						<g>
							<path class="st24" d="M730,561.6c0.4,3,2.1,5.2,3.6,5c1.6-0.3,2.5-2.9,2.1-5.9s-2.1-5.2-3.6-5
								C730.4,555.9,729.5,558.6,730,561.6z"/>
							<path class="st18" d="M732.1,558.7c0.1,0.7,0.7,1.1,1.4,1s1.1-0.7,1-1.4s-0.7-1.1-1.4-1C732.5,557.4,732,558,732.1,558.7z"/>
						</g>
						<g>
							<g>
								<path class="st25" d="M739.6,562.3c0.2,1.2,0.2,2.5,0.3,3.7c0,1.2,0,2.5,0,3.7c0,0.6,0,1.2-0.1,1.9
									c-0.1,0.6-0.1,1.2-0.2,1.9c-0.1,0.6-0.2,1.3-0.3,1.9l-0.6,1.9l0,0v0.1c-0.1,0.2-0.2,0.5-0.3,0.7c-0.1,0.3-0.1,0.5-0.2,0.8
									c-0.1,0.5,0,1,0.2,1.4c0.1,0.2,0.2,0.4,0.4,0.6c0.2,0.2,0.4,0.3,0.6,0.5c0.5,0.3,1,0.5,1.6,0.7c0.6,0.1,1.2,0.3,1.8,0.3
									c0.6,0.1,1.3,0.1,1.9,0.1l1-0.1c0.3,0,0.6-0.1,0.9-0.2c0.7-0.1,1.2-0.4,1.9-0.6l-0.8,0.6c-0.3,0.2-0.6,0.4-0.9,0.5
									c-0.3,0.1-0.6,0.3-1,0.4l-1,0.3c-0.7,0.1-1.4,0.2-2.1,0.3c-0.7,0-1.4,0-2.1-0.1c-0.4-0.1-0.7-0.1-1.1-0.2
									c-0.3-0.1-0.7-0.2-1-0.4s-0.7-0.4-1-0.7s-0.6-0.6-0.8-1c-0.4-0.8-0.5-1.7-0.5-2.4c0-0.4,0.1-0.8,0.2-1.2
									c0.1-0.4,0.2-0.7,0.5-1.1v0.1l0.5-1.6c0.1-0.6,0.2-1.2,0.4-1.7c0.1-0.6,0.2-1.2,0.3-1.8s0.2-1.2,0.3-1.8l0.6-3.6
									C739.2,564.7,739.3,563.5,739.6,562.3z"/>
							</g>
						</g>
						<path class="st49" d="M742.4,586.5c0,0,12.3,3.2,22.4-7.3C764.9,579.2,759,605.2,742.4,586.5z"/>
						<path class="st50" d="M752.3,593.2c-0.3-2.1,0.7-6.2,10.5-7.9C760.8,589.4,757.5,594,752.3,593.2z"/>
						<path class="st16" d="M751.1,595.9c0,0,5.3,0.7,10.2-1.6C761.3,594.3,756.5,602.1,751.1,595.9z"/>
						<path class="st5" d="M749.9,612.2c-0.4-0.4-0.7-0.8-1.1-1.2c34.1-6.1,48.9-43.7,49-44c-0.1,26.1-32.1,42.7-32.1,42.7
							C758.1,613.1,749.9,612.2,749.9,612.2z"/>
						<g>
							<g>
								<path class="st25" d="M804.4,545.8c-0.4-0.7-0.8-1.3-1.3-1.9c-0.5-0.6-1.1-1.1-1.7-1.3c-0.3-0.1-0.6,0-0.9,0.2
									c-0.2,0.1-0.5,0.6-0.7,0.8c-0.2,0.3-0.3,0.7-0.5,1c-0.1,0.4-0.3,0.7-0.4,1.1c-0.5,1.4-0.8,3-1,4.5c-0.1,0.8-0.2,1.5-0.2,2.3
									c0,0.7,0,1.5,0.2,2.1l-0.2-0.2c0.4,0.3,0.9,0.6,1.3,0.9c0.2,0.2,0.4,0.3,0.6,0.5c0.2,0.2,0.4,0.4,0.6,0.8
									c0,0.1,0.1,0.3,0,0.5s-0.1,0.1-0.1,0.2l-0.2,0.3l-0.5,0.6l-0.9,1.2l0.1-0.3c0.1,0.5,0.3,1.1,0.6,1.5
									c0.2,0.2,0.4,0.4,0.6,0.5c0.1,0,0.2,0.1,0.4,0.1c0.1,0,0.3,0.1,0.4,0.1c0.3,0,0.5-0.1,0.8-0.2c0.3-0.1,0.5-0.2,0.8-0.4
									c0.5-0.3,0.9-0.7,1.4-1.1l-0.6,0.7c-0.2,0.2-0.4,0.4-0.7,0.6c-0.2,0.2-0.5,0.4-0.8,0.5s-0.6,0.3-0.9,0.3c-0.2,0-0.3,0-0.5,0
									s-0.3-0.1-0.5-0.2c-0.3-0.2-0.6-0.4-0.8-0.6c-0.4-0.5-0.7-1.1-0.8-1.7v-0.1l0.1-0.1l0.8-1.3l0.4-0.6l0.2-0.3
									c0,0,0.1-0.2,0.1-0.1c0,0.1,0,0.1,0,0.1c0-0.1-0.2-0.3-0.4-0.4c-0.2-0.2-0.4-0.3-0.5-0.5c-0.4-0.3-0.8-0.6-1.2-0.8l-0.1-0.1
									v-0.1c-0.3-0.9-0.3-1.7-0.3-2.5s0.1-1.6,0.2-2.4c0.2-1.6,0.6-3.1,1.2-4.6c0.1-0.4,0.3-0.7,0.5-1.1c0.2-0.4,0.4-0.7,0.6-1.1
									c0.1-0.2,0.2-0.4,0.4-0.5l0.2-0.2c0.1-0.1,0.2-0.1,0.3-0.2c0.4-0.3,0.9-0.4,1.3-0.2c0.5,0.1,0.8,0.4,1.1,0.7
									s0.5,0.6,0.8,0.9C803.7,544.3,804.1,545,804.4,545.8z"/>
							</g>
						</g>
						<g>
							<g>
								<path class="st25" d="M804.1,552.4c0,0-0.1-0.7-0.3-1.8s-0.6-2.6-1.1-4c-0.3-0.7-0.6-1.4-1-1.9s-1-0.8-1.4-0.7
									s-0.7,0.5-1,0.7c-0.2,0.2-0.3,0.4-0.3,0.4l-0.5-0.3c0,0,0.1-0.1,0.4-0.4c0.3-0.2,0.6-0.6,1.2-0.8c0.3-0.1,0.7,0,1,0.1
									c0.3,0.2,0.6,0.5,0.8,0.8c0.4,0.6,0.7,1.3,1,2c0.5,1.4,0.8,2.9,1,4C804,551.7,804.1,552.4,804.1,552.4z"/>
							</g>
						</g>
						<path class="st18" d="M746.3,589.4l-1.8-2.5c3.9,0.4,12.8,0.2,20.3-7.6c0,0-0.4,1.8-1.3,4.2
							C756.5,589.1,746.3,589.4,746.3,589.4z"/>
						<polygon class="st67" points="708.6,726.1 712.3,730.4 683.2,741.9 683.2,736.8 						"/>
						<path class="st68" d="M850.3,625.8c0,0,20.2,11.2,14.1,35.3c0,0-19.3,62.2-20.4,68.5c-1.1,6.3-7.4,16.4-15.1,17.6
							c0,0-59.6,14.4-86.2,16c0,0-5.4-7.1-5.6-16c0,0,57.1-22.4,79.3-32.8c0,0-1.7-1.2,4.8-4c0,0-2.5-2,2.4-4.6
							C823.6,705.7,832.3,623.4,850.3,625.8z"/>
						<path class="st69" d="M741.8,761.8c18.4-4.5,84.3-14.7,86.2-21.3c2.1-7.4-11.1-16.7-7.4-18.6c3.7-1.9,12.9,10.5,12.9,10.5
							c-1.7-11.8-4.5-17.9-4.5-17.9c3.4-0.6,9,15.1,9,15.1c0.4-2.4,15.1-49.2,18.9-60.7c2.7-8,3.6-23.9,3.9-32.8
							c3.7,5.8,6.4,14.1,3.7,25.1c0,0-19.3,62.2-20.4,68.5c-1.1,6.3-7.4,16.4-15.1,17.6c0,0-59.6,14.4-86.2,16
							C742.7,763.2,742.3,762.7,741.8,761.8z"/>
						<path class="st24" d="M797.2,543.8c0,0-1.6,8.8-3.8,8.6c0,0-7.7-28.1-12.7-31c0,0-1.5-1-5.3,0s-18.4,9-21.7,9.6
							s11.4,9.3,15.3,8c0,0-27.7,12-47.3-3.9c0,0-3.8-8.5-1.2-14.1c2.6-5.7,21.8-37.8,48.5-31.4s31.1,49.5,31.1,49.5L797.2,543.8z"
							/>
						<path class="st52" d="M795.6,522.2l1.8,3.5c2,7.6,2.6,13.4,2.6,13.4l-2.8,4.7c0,0-0.8,4.5-2.1,7l-2.4-17.1l-7-4.1
							c-1.7-4.1-3.5-7.3-5-8.2c0,0-0.8-0.5-2.8-0.4l0,0c0,0-34.5-2.2-47.8,4.4c0,0-9.2-2.1-8.5,9.7c0,0-3.8-8.5-1.2-14.1
							c0.7-1.5,2.6-5,5.5-9.1l59.2-5.7L795.6,522.2z"/>
						<path class="st70" d="M719.5,514v-5.8c0,0,28.8-64.1,88.2-17.4c0,0,18.1,19,14,37.9c0,0,14.7,19.1,8.4,23.6c0,0-3,5.6-11,4.3
							c0,0-2,5.5-6.1,4.3c0,0-1.9,20-14.3,15.2l0.4-11.8c2.5,0.1,6.8-0.9,7.7-8.8c1.4-11.3-3.1-17.2-6.9-16.7
							c0,0-29.5-41.5-80.5-16.7C719.5,522.5,714.1,517.4,719.5,514z"/>
						<path class="st71" d="M719.5,508.2c0,0,16.1-35.8,49.1-34.4c-14.6,4.8-38,15.5-44.8,36.5c0,0-2.2,2.6-4.3,3.4V508.2z"/>
						<path class="st72" d="M738.7,515.8c41-17.5,83.2,34.1,83.2,34.1c3.1-2.2-18.3-32.5-15.9-30.9c2.4,1.6,8.1,6.5,8.1,6.5
							c1.6-6.7-19.6-35.6-29-48c7,2.7,14.6,7,22.7,13.4c0,0,18.1,19,14,37.9c0,0,14.7,19.1,8.4,23.6c0,0-3,5.6-11,4.3
							c0,0-2,5.5-6.1,4.3c0,0-1.9,20-14.3,15.2l0.4-11.8c2.5,0.1,6.8-0.9,7.7-8.8c1.4-11.3-3.1-17.2-6.9-16.7
							C800,539.1,777.8,507.9,738.7,515.8L738.7,515.8z"/>
						<path class="st73" d="M785.3,477.6l15.4,17.9l10.6,44.4c0,0-4.4,11.2-5.7-1.6s-10.3-36.5-10.3-36.5v-2.7
							c-1.4-6.7-16.1-22-18.1-24C779.8,475.6,782.5,476.5,785.3,477.6z"/>
						<path class="st66" d="M806,502.6c0,0-7.7-25.5-25.2-29.4c0,0-10.8-2.6-17,0.6c0,0,12,0.4,17.3,2.6c0,0,11,8.6,18.9,27.6
							L806,502.6z"/>
						<path class="st71" d="M797.2,519c0,0-43-24.4-73.4-3.9C723.8,515.1,745.4,482.8,797.2,519z"/>
						<path class="st65" d="M795.9,539.1c0,0-2.5,19.2,5.9,26c0,0,2.6,1.3,4.7-2.4c0,0,12.7-1.5,3.8-22.6c0,0-3.1-6.1-7.4-4.3
							C802.8,535.8,796.8,531.5,795.9,539.1z"/>
						<path class="st65" d="M807.1,540.6c0,0-1.8-24.6-10.7-39.9l0.8-2.3c0,0,1.7-1.9,7.3-1.4c0,0,9.3,18.3,10.3,45.7
							c0,0-1.1,4.8-5.9,5.3L807.1,540.6z"/>
						<path class="st66" d="M808.4,546.3l-1.3-5.8c0,0-1.8-24.6-10.7-39.9l0.8-2.3c0,0,0.1-0.1,0.4-0.3c3.8,6.5,9.2,14.8,12,46.1
							L808.4,546.3z"/>
						<path class="st62" d="M807.1,559.9c0,0,12.6,77.8-30.5,118.7"/>
						<path class="st65" d="M748.8,611c1.6,14.3,7.7,50.1,29,66l-1.2,1.5c-23.8-17.8-29-57.9-30.1-70.1
							C747.3,609.4,748,610.2,748.8,611z"/>
						<path class="st65" d="M775.1,683.4c0,0.9,0.7,1.6,1.6,1.6l0,0c0.9,0,1.6-0.7,1.6-1.6v-5.9c0-0.9-0.7-1.6-1.6-1.6l0,0
							c-0.9,0-1.6,0.7-1.6,1.6V683.4z"/>
					</g>
					<path class="st74" d="M803.6,535.5c-0.5,2-3.3,13.8,3.3,27c-0.3,0.1-0.4,0.1-0.4,0.1c-0.2,0.4-0.4,0.7-0.6,1
						c-6.9-13.6-4.4-25.5-3.7-28.2c0.4,0.2,0.7,0.4,0.7,0.4C803.1,535.7,803.3,535.6,803.6,535.5z"/>
				</g>
			</g>
		</g>
		<path class="st18" d="M807.9,340.9H690.3c-7.9,0-14.4,6.4-14.4,14.4V420c0,8,6.4,14.4,14.4,14.4h32.8v21.9l30.2-21.9h54.6
			c7.9,0,14.4-6.4,14.4-14.4v-64.7C822.3,347.4,815.8,340.9,807.9,340.9z"/>
		<path class="st18" d="M332.1,334.3h131.1c8.9,0,16.1,7.2,16.1,16v72.1c0,8.9-7.2,16.1-16.1,16.1h-36.6V463L393,438.5h-60.9
			c-8.9,0-16-7.2-16-16.1v-72.1C316,341.5,323.2,334.3,332.1,334.3z"/>
	</g>
</g>
</svg>
