<?xml version="1.0" encoding="utf-8"?>
<!-- Generator: Adobe Illustrator 24.1.3, SVG Export Plug-In . SVG Version: 6.00 Build 0)  -->
<svg version="1.1" id="Layer_1" xmlns="http://www.w3.org/2000/svg" xmlns:xlink="http://www.w3.org/1999/xlink" x="0px" y="0px"
	 viewBox="0 0 1080 1080" style="enable-background:new 0 0 1080 1080;" xml:space="preserve">
<style type="text/css">
	.st0{fill:url(#SVGID_1_);}
	.st1{fill:url(#SVGID_2_);}
	.st2{fill:#1666B1;}
	.st3{opacity:0.4;fill:#FFFFFF;enable-background:new    ;}
	.st4{fill:#FFFFFF;}
	.st5{fill:#0664AD;}
	.st6{opacity:0.2;fill:#21255C;enable-background:new    ;}
	.st7{fill:#F3A957;}
	.st8{fill:#FCCC6D;}
	.st9{fill:url(#SVGID_3_);}
	.st10{fill:url(#SVGID_4_);}
	.st11{fill:#FCE586;}
	.st12{fill:url(#SVGID_5_);}
	.st13{opacity:0.2;fill:#FFFFFF;enable-background:new    ;}
	.st14{fill:url(#SVGID_6_);}
	.st15{fill:url(#SVGID_7_);}
	.st16{fill:url(#SVGID_8_);}
	.st17{fill:url(#SVGID_9_);}
	.st18{fill:url(#SVGID_10_);}
	.st19{fill:url(#SVGID_11_);}
	.st20{fill:url(#SVGID_12_);}
	.st21{fill:url(#SVGID_13_);}
	.st22{fill:url(#SVGID_14_);}
	.st23{fill:url(#SVGID_15_);}
	.st24{fill:url(#SVGID_16_);}
	.st25{fill:url(#SVGID_17_);}
	.st26{fill:url(#SVGID_18_);}
	.st27{fill:url(#SVGID_19_);}
	.st28{fill:url(#SVGID_20_);}
	.st29{fill:url(#SVGID_21_);}
	.st30{fill:url(#SVGID_22_);}
	.st31{fill:url(#SVGID_23_);}
	.st32{fill:url(#SVGID_24_);}
	.st33{fill:url(#SVGID_25_);}
	.st34{fill:url(#SVGID_26_);}
	.st35{fill:url(#SVGID_27_);}
	.st36{fill:url(#SVGID_28_);}
</style>
<g id="payment3">
	<g>
		
			<linearGradient id="SVGID_1_" gradientUnits="userSpaceOnUse" x1="454.9" y1="532.0513" x2="1106.7504" y2="532.0513" gradientTransform="matrix(1 0 0 -1 0 1080)">
			<stop  offset="0" style="stop-color:#3A9BD6"/>
			<stop  offset="6.547332e-02" style="stop-color:#3998D4"/>
			<stop  offset="0.671" style="stop-color:#2E83C5"/>
			<stop  offset="1" style="stop-color:#2A7CBF"/>
		</linearGradient>
		<path class="st0" d="M691.9,335.7L478.4,212.3c-3.4-2-6.6-2.2-9-0.8l-14.5,8.5l9.5,5.7v500.1c0,10.4,6.3,22.4,14.1,26.9l211,121.9
			l-3,10.7l14.6-8.5l0,0c3-1.7,5-5.7,5-11.4V362.6C705.9,352.2,699.6,340.2,691.9,335.7z"/>
		
			<linearGradient id="SVGID_2_" gradientUnits="userSpaceOnUse" x1="267.8244" y1="88.163" x2="655.5965" y2="-116.1547" gradientTransform="matrix(0.866 0.5 0 -1.1547 169.6926 304.7391)">
			<stop  offset="0" style="stop-color:#5FBDEB"/>
			<stop  offset="1" style="stop-color:#82D4F7"/>
		</linearGradient>
		<path class="st1" d="M677.1,884.7L463.6,761.3c-7.8-4.5-14.1-16.5-14.1-26.9V231.6c0-10.4,6.3-15.1,14.1-10.6l213.5,123.3
			c7.8,4.5,14.1,16.5,14.1,26.9V874C691.1,884.4,684.8,889.2,677.1,884.7z"/>
		<polygon class="st2" points="691.1,874.4 449.5,734.8 449.5,231.2 691.1,370.8 		"/>
		<g>
			<path class="st3" d="M652.5,884.1L436.9,759.5c-8.1-4.7-13.1-13.3-13.1-22.6V263.3c0-6.6,7.2-10.8,12.9-7.4l215.6,124.6
				c8.1,4.7,13.1,13.3,13.1,22.6v473.6C665.4,883.2,658.3,887.4,652.5,884.1z"/>
			<path class="st4" d="M656.8,886.2c-1.6,0-3.3-0.4-4.8-1.3L436.4,760.3c-8.4-4.8-13.5-13.8-13.5-23.5V263.3c0-3.5,1.8-6.5,4.8-8.3
				c3-1.7,6.6-1.7,9.5,0l215.6,124.6c8.4,4.8,13.5,13.8,13.5,23.5v473.6c0,3.5-1.8,6.5-4.8,8.3C660.1,885.8,658.5,886.2,656.8,886.2
				z M653,883.2c2.4,1.4,5.3,1.4,7.6,0c2.4-1.4,3.8-3.9,3.8-6.6V403c0-9-4.8-17.3-12.6-21.8L436.3,256.7c-2.4-1.4-5.3-1.4-7.6,0
				c-2.4,1.4-3.8,3.9-3.8,6.6v473.6c0,9,4.8,17.3,12.6,21.8L653,883.2z"/>
		</g>
		<path class="st5" d="M586.3,303.8l-31.9-18.4c-1.1-0.6-2-2.3-2-3.7l0,0c0-1.4,0.9-2.1,2-1.5l31.9,18.4c1.1,0.6,2,2.3,2,3.7l0,0
			C588.2,303.7,587.4,304.4,586.3,303.8z"/>
	</g>
	<path class="st6" d="M599.4,589.6c4.4,2.5,7.9-0.2,7.9-6V408.7c0-5.8-3.5-12.6-7.9-15.1l-174.9-101c-0.4,2-0.7,4.1-0.7,6.3v189.3
		L599.4,589.6z"/>
	<g>
		<path class="st7" d="M468,524.8v4.3c-3.7-1.7-8.5-2.5-14.1-2.1c-19.8,1.4-42.8,17.1-51.5,35c-2.4,4.9-3.4,9.5-3.3,13.6l-4-1.3
			l4.3,6.4l0,0c3.6,5.6,10.9,8.7,21,7.9c19.8-1.4,42.8-17.1,51.5-35c4.3-8.9,4.2-16.7,0.6-22.1l0,0L468,524.8z"/>
		
			<ellipse transform="matrix(0.8273 -0.5618 0.5618 0.8273 -234.1734 337.3849)" class="st8" cx="431.6" cy="549.5" rx="44" ry="25.4"/>
		
			<radialGradient id="SVGID_3_" cx="1978.6655" cy="1392.3682" r="62.8412" gradientTransform="matrix(0.6223 -0.7828 -0.7828 -0.6223 260.9946 2967.2876)" gradientUnits="userSpaceOnUse">
			<stop  offset="0" style="stop-color:#FCE586"/>
			<stop  offset="0.321" style="stop-color:#FCD778"/>
			<stop  offset="0.6627" style="stop-color:#FCCF70"/>
			<stop  offset="1" style="stop-color:#FCCC6D"/>
		</radialGradient>
		<path class="st9" d="M467.4,546.9c-8.6,17.9-31.7,33.5-51.5,35c-19.8,1.4-28.8-11.9-20.2-29.7c8.6-17.9,31.7-33.5,51.5-35
			C467,515.7,476.1,529,467.4,546.9z"/>
		<path class="st7" d="M444,567.3c-7.9,5.4-17.1,9.1-25.5,9.7c-8.2,0.6-14.5-1.7-17.8-6.6c-3.3-4.8-3.1-11.6,0.5-18.9
			c7.3-15.1,26.8-28.3,43.5-29.6c8.2-0.6,14.5,1.7,17.8,6.6c3.3,4.8,3.1,11.6-0.5,18.9C458.4,554.9,451.8,561.9,444,567.3z
			 M419.6,532.3c-7.7,5.3-14.2,12.2-17.7,19.5c-3.4,7.1-3.6,13.6-0.5,18.2c3.1,4.6,9.2,6.8,17.1,6.2c16.5-1.2,35.7-14.3,42.9-29.1
			c3.4-7.1,3.6-13.6,0.5-18.2c-3.1-4.6-9.2-6.8-17.1-6.2C436.4,523.3,427.4,527,419.6,532.3z"/>
		
			<radialGradient id="SVGID_4_" cx="2009.1388" cy="1336.1199" r="149.4884" gradientTransform="matrix(0.6223 -0.7828 -0.7828 -0.6223 260.9946 2967.2876)" gradientUnits="userSpaceOnUse">
			<stop  offset="0" style="stop-color:#FCE586"/>
			<stop  offset="0.321" style="stop-color:#FCD778"/>
			<stop  offset="0.6627" style="stop-color:#FCCF70"/>
			<stop  offset="1" style="stop-color:#FCCC6D"/>
		</radialGradient>
		<path class="st10" d="M461.7,547.3c-7.3,15-26.6,28.1-43.2,29.4c-16.6,1.2-24.2-10-16.9-25c7.3-15,26.6-28.1,43.2-29.4
			C461.3,521.1,468.9,532.3,461.7,547.3z"/>
		<path class="st7" d="M402.5,553.2c7.3-15,26.6-28.1,43.2-29.4c7.9-0.6,13.7,1.6,16.9,5.7c-2.9-5-9.1-7.8-17.9-7.1
			c-16.6,1.2-36,14.4-43.2,29.4c-3.8,7.9-3.5,14.7,0,19.3C399,566.5,399.1,560.2,402.5,553.2z"/>
		<path class="st11" d="M466.5,545.5c-8.6,17.9-31.7,33.5-51.5,35c-9.5,0.7-16.5-2-20.3-6.9c3.5,5.8,10.9,9.1,21.2,8.3
			c19.8-1.4,42.8-17.1,51.5-35c4.5-9.3,4.2-17.4,0.1-22.8C470.7,529.4,470.6,536.9,466.5,545.5z"/>
	</g>
	<path class="st7" d="M461.4,568c4.4-4.5,8.1-9.4,10.5-14.5c4.3-8.9,4.2-16.7,0.6-22.1l-4.5-6.7c-0.1-0.1-0.1-0.2-0.2-0.3
		s-0.2-0.3-0.3-0.4c0,0,0,0.1,0.1,0.1c-3.8-5-10.8-7.8-20.3-7.1c-11.2,0.8-23.4,6.2-33.5,13.9l35.6,36.9h12V568z"/>
	<g>
		<path class="st4" d="M576.8,408L323,261.5c-2-1.1-3.8-1.2-5.2-0.4l0,0l-3.8,2.2c0,0,0.9,0.1,1.7,0.2c-0.5,1.1-0.7,2.4-0.7,4v174.9
			c0,5.8,3.5,12.6,7.9,15.1L576.8,604c0.5,0.3,0.9,0.5,1.4,0.6v2l3.8-2.2l0,0c1.7-1,2.7-3.2,2.7-6.4V423.2
			C584.7,417.3,581.1,410.6,576.8,408z"/>
		
			<linearGradient id="SVGID_5_" gradientUnits="userSpaceOnUse" x1="311.4" y1="645.1008" x2="581" y2="645.1008" gradientTransform="matrix(1 0 0 -1 0 1080)">
			<stop  offset="0" style="stop-color:#82D4F7"/>
			<stop  offset="1" style="stop-color:#5FBDEB"/>
		</linearGradient>
		<path class="st12" d="M573.1,606.2L319.3,459.6c-4.4-2.5-7.9-9.3-7.9-15.1V269.6c0-5.8,3.5-8.5,7.9-6l253.8,146.5
			c4.4,2.5,7.9,9.3,7.9,15.1v174.9C581,606,577.5,608.7,573.1,606.2z"/>
		<g>
			<path class="st4" d="M497.3,419.3v-25l5.3,3.1c1,0.6,1.9,1.2,2.6,1.8c0.7,0.6,1.4,1.4,2,2.2c0.6,0.8,1,1.7,1.3,2.7
				s0.4,2.1,0.4,3.3c0,3.1-1.1,4.2-3.2,3.3c1.3,1,2.2,2.2,2.9,3.6c0.6,1.4,0.9,3,1,4.8c0,2.4-0.5,3.9-1.5,4.5s-2.5,0.4-4.5-0.8
				L497.3,419.3z M501.3,406.7l1.2,0.7c1.2,0.7,2,0.8,2.4,0.5s0.7-1.2,0.7-2.5c0-0.7-0.1-1.3-0.2-1.8s-0.4-1-0.7-1.4
				c-0.3-0.4-0.7-0.8-1.1-1.1c-0.4-0.3-1-0.7-1.7-1.1l-0.5-0.3L501.3,406.7L501.3,406.7z M501.3,418.3l1.4,0.8
				c1.2,0.7,2,0.8,2.4,0.5c0.5-0.4,0.7-1.3,0.7-2.7c0-1.5-0.3-2.7-0.8-3.7s-1.4-1.8-2.6-2.5l-1.2-0.7v8.3H501.3z"/>
			<path class="st4" d="M511,427.1l4.4-22.4l4.1,2.4l4.4,27.5l-3.7-2.1l-0.9-6.3l-3.7-2.2l-0.9,5.3L511,427.1z M516,421.3l2.9,1.7
				l-1.4-11.1L516,421.3z"/>
			<path class="st4" d="M526,435.8v-25l2.7,1.6l5.3,17.2v-14.1l3.3,1.9v25l-2.6-1.5l-5.3-17.9v14.9L526,435.8z"/>
			<path class="st4" d="M540.5,444.2v-25l3.9,2.3v10.8l4.2-8.4l3.8,2.2l-4.1,8.8l4.6,16.4L549,449l-3.7-13.9l-0.8,1.2v10.1
				L540.5,444.2z"/>
		</g>
		<g>
			<polygon class="st4" points="381.4,459.2 333.3,431.4 333.3,425 381.4,452.8 			"/>
			<polygon class="st4" points="440.7,493.4 392.5,465.6 392.5,459.2 440.7,487 			"/>
			<polygon class="st4" points="499.9,527.6 451.7,499.8 451.7,493.4 499.9,521.2 			"/>
			<polygon class="st4" points="559.1,561.8 510.9,534 510.9,527.6 559.1,555.4 			"/>
		</g>
		<path class="st13" d="M573.1,410.2L319.3,263.6c-4.4-2.5-7.9,0.2-7.9,6v174.9c0,1.1,0.2,2.2,0.4,3.3c13.5-9.8,68.4-40,173.3,17.9
			c38.2,21.1,70.1,18.3,96,4.5v-44.9C581,419.5,577.5,412.7,573.1,410.2z"/>
		<path class="st13" d="M416.6,401.3c35.6-4.6,65.4-15.5,90.2-29.4L319.3,263.6c-4.4-2.5-7.9,0.2-7.9,6V437
			C330.1,422.2,362.1,408.3,416.6,401.3z"/>
	</g>
	<g>
		<path class="st7" d="M474.2,824.5l-2.4,3.6c-2.1-3.5-5.6-6.9-10.4-9.7c-17.1-10-45-10.1-62.2-0.3c-4.8,2.7-8.2,5.9-10.4,9.4
			l-2.6-3.4v7.7l0,0c-0.2,6.6,4.1,13.3,12.8,18.4c17.1,10,45,10.1,62.2,0.3c8.6-4.9,12.9-11.4,13-17.9l0,0V824.5z"/>
		
			<ellipse transform="matrix(4.489144e-03 -1 1 4.489144e-03 -395.9482 1250.7614)" class="st8" cx="430.2" cy="824.2" rx="25.4" ry="44"/>
		
			<radialGradient id="SVGID_6_" cx="921.589" cy="1261.0637" r="62.8437" gradientTransform="matrix(0.9559 -0.2936 -0.2936 -0.9559 -105.983 2285.7749)" gradientUnits="userSpaceOnUse">
			<stop  offset="0" style="stop-color:#FCE586"/>
			<stop  offset="0.321" style="stop-color:#FCD778"/>
			<stop  offset="0.6627" style="stop-color:#FCCF70"/>
			<stop  offset="1" style="stop-color:#FCCC6D"/>
		</radialGradient>
		<path class="st14" d="M461.2,842.4c-17.2,9.8-45.1,9.7-62.2-0.3s-17.1-26.1,0.2-35.9c17.2-9.8,45.1-9.7,62.2,0.3
			C478.5,816.4,478.4,832.5,461.2,842.4z"/>
		<path class="st7" d="M430.4,846c-9.6,0-19.3-2.1-26.6-6.4c-7.1-4.1-11-9.6-10.9-15.5c0-5.8,4-11.3,11.1-15.4
			c14.5-8.3,38.1-8.2,52.6,0.2c7.1,4.1,11,9.6,10.9,15.5c0,5.8-4,11.3-11.1,15.4C449.2,843.9,439.8,846,430.4,846z M430,803.3
			c-9.3,0-18.6,2-25.7,6.1c-6.9,3.9-10.7,9.2-10.7,14.7c0,5.6,3.7,10.8,10.6,14.8c14.3,8.3,37.5,8.4,51.9,0.2
			c6.9-3.9,10.7-9.2,10.7-14.7c0-5.6-3.7-10.8-10.6-14.8C449,805.4,439.5,803.3,430,803.3z"/>
		
			<radialGradient id="SVGID_7_" cx="952.0639" cy="1204.814" r="149.4954" gradientTransform="matrix(0.9559 -0.2936 -0.2936 -0.9559 -105.983 2285.7749)" gradientUnits="userSpaceOnUse">
			<stop  offset="0" style="stop-color:#FCE586"/>
			<stop  offset="0.321" style="stop-color:#FCD778"/>
			<stop  offset="0.6627" style="stop-color:#FCCF70"/>
			<stop  offset="1" style="stop-color:#FCCC6D"/>
		</radialGradient>
		<path class="st15" d="M456.2,839.5c-14.5,8.3-37.9,8.2-52.2-0.2c-14.4-8.4-14.3-21.9,0.1-30.2c14.5-8.3,37.9-8.2,52.2,0.2
			C470.8,817.7,470.7,831.2,456.2,839.5z"/>
		<path class="st7" d="M404.1,810.8c14.5-8.3,37.9-8.2,52.2,0.2c6.8,4,10.4,9.1,10.7,14.2c0.4-5.7-3.1-11.6-10.7-16
			c-14.4-8.4-37.8-8.5-52.2-0.2c-7.6,4.4-11.2,10.2-10.9,15.9C393.7,819.8,397.3,814.7,404.1,810.8z"/>
		<path class="st11" d="M461.2,840.7c-17.2,9.8-45.1,9.7-62.2-0.3c-8.2-4.8-12.5-11-12.8-17.2c-0.4,6.8,3.8,13.6,12.8,18.9
			c17.1,10,45,10.1,62.2,0.3c9-5.1,13.3-12,12.9-18.7C473.8,829.8,469.5,836,461.2,840.7z"/>
	</g>
	<g>
		<path class="st7" d="M481.7,813.7l-2.4,3.6c-2.1-3.5-5.6-6.9-10.4-9.7c-17.1-10-45-10.1-62.2-0.3c-4.8,2.7-8.2,5.9-10.4,9.4
			l-2.6-3.4v7.7l0,0c-0.2,6.6,4.1,13.3,12.8,18.4c17.1,10,45,10.1,62.2,0.3c8.6-4.9,12.9-11.4,13-17.9l0,0V813.7z"/>
		
			<ellipse transform="matrix(4.489144e-03 -1 1 4.489144e-03 -377.7184 1247.6168)" class="st8" cx="437.8" cy="813.5" rx="25.4" ry="44"/>
		
			<radialGradient id="SVGID_8_" cx="931.976" cy="1269.1528" r="62.8437" gradientTransform="matrix(0.9559 -0.2936 -0.2936 -0.9559 -105.983 2285.7749)" gradientUnits="userSpaceOnUse">
			<stop  offset="0" style="stop-color:#FCE586"/>
			<stop  offset="0.321" style="stop-color:#FCD778"/>
			<stop  offset="0.6627" style="stop-color:#FCCF70"/>
			<stop  offset="1" style="stop-color:#FCCC6D"/>
		</radialGradient>
		<path class="st16" d="M468.8,831.6c-17.2,9.8-45.1,9.7-62.2-0.3s-17.1-26.1,0.2-35.9c17.2-9.8,45.1-9.7,62.2,0.3
			S486,821.7,468.8,831.6z"/>
		<path class="st7" d="M437.9,835.2c-9.6,0-19.3-2.1-26.6-6.4c-7.1-4.1-11-9.6-10.9-15.5c0-5.8,4-11.3,11.1-15.4
			c14.5-8.3,38.1-8.2,52.6,0.2c7.1,4.1,11,9.6,10.9,15.5c0,5.8-4,11.3-11.1,15.4C456.8,833.1,447.4,835.2,437.9,835.2z M437.5,792.5
			c-9.3,0-18.6,2-25.7,6.1c-6.9,3.9-10.7,9.2-10.7,14.7c0,5.6,3.7,10.8,10.6,14.8c14.3,8.3,37.5,8.4,51.9,0.2
			c6.9-3.9,10.7-9.2,10.7-14.7c0-5.6-3.7-10.8-10.6-14.8C456.5,794.6,447,792.5,437.5,792.5z"/>
		
			<radialGradient id="SVGID_9_" cx="962.4507" cy="1212.9032" r="149.4954" gradientTransform="matrix(0.9559 -0.2936 -0.2936 -0.9559 -105.983 2285.7749)" gradientUnits="userSpaceOnUse">
			<stop  offset="0" style="stop-color:#FCE586"/>
			<stop  offset="0.321" style="stop-color:#FCD778"/>
			<stop  offset="0.6627" style="stop-color:#FCCF70"/>
			<stop  offset="1" style="stop-color:#FCCC6D"/>
		</radialGradient>
		<path class="st17" d="M463.8,828.7c-14.5,8.3-37.9,8.2-52.2-0.2c-14.4-8.4-14.3-21.9,0.1-30.2c14.5-8.3,37.9-8.2,52.2,0.2
			C478.3,806.9,478.3,820.4,463.8,828.7z"/>
		<path class="st7" d="M411.7,800.1c14.5-8.3,37.9-8.2,52.2,0.2c6.8,4,10.4,9.1,10.7,14.2c0.4-5.7-3.1-11.6-10.7-16
			c-14.4-8.4-37.8-8.5-52.2-0.2c-7.6,4.4-11.2,10.2-10.9,15.9C401.2,809,404.8,804,411.7,800.1z"/>
		<path class="st11" d="M468.8,829.9c-17.2,9.8-45.1,9.7-62.2-0.3c-8.2-4.8-12.5-11-12.8-17.2c-0.4,6.8,3.8,13.6,12.8,18.9
			c17.1,10,45,10.1,62.2,0.3c9-5.1,13.3-12,12.9-18.7C481.3,819.1,477,825.2,468.8,829.9z"/>
	</g>
	<g>
		<path class="st7" d="M539.7,867.3l-2.4,3.6c-2.1-3.5-5.6-6.9-10.4-9.7c-17.1-10-45-10.1-62.2-0.3c-4.8,2.7-8.2,5.9-10.4,9.4
			l-2.6-3.4v7.7l0,0c-0.2,6.6,4.1,13.3,12.8,18.4c17.1,10,45,10.1,62.2,0.3c8.6-4.9,12.9-11.4,13-17.9l0,0L539.7,867.3z"/>
		
			<ellipse transform="matrix(4.486249e-03 -1 1 4.486249e-03 -373.5483 1358.9551)" class="st8" cx="495.8" cy="867.1" rx="25.4" ry="44"/>
		
			<radialGradient id="SVGID_10_" cx="971.6763" cy="1200.9006" r="62.8438" gradientTransform="matrix(0.9559 -0.2936 -0.2936 -0.9559 -105.983 2285.7749)" gradientUnits="userSpaceOnUse">
			<stop  offset="0" style="stop-color:#FCE586"/>
			<stop  offset="0.321" style="stop-color:#FCD778"/>
			<stop  offset="0.6627" style="stop-color:#FCCF70"/>
			<stop  offset="1" style="stop-color:#FCCC6D"/>
		</radialGradient>
		<path class="st18" d="M526.8,885.2c-17.2,9.8-45.1,9.7-62.2-0.3s-17.1-26.1,0.2-35.9c17.2-9.8,45.1-9.7,62.2,0.3
			C544.1,859.2,544,875.3,526.8,885.2z"/>
		<path class="st7" d="M495.9,888.8c-9.6,0-19.3-2.1-26.6-6.4c-7.1-4.1-11-9.6-10.9-15.5c0-5.8,4-11.3,11.1-15.4
			c14.5-8.3,38.1-8.2,52.6,0.2c7.1,4.1,11,9.6,10.9,15.5c0,5.8-4,11.3-11.1,15.4C514.8,886.7,505.3,888.8,495.9,888.8z M495.5,846.1
			c-9.3,0-18.6,2-25.7,6.1c-6.9,3.9-10.7,9.2-10.7,14.7c0,5.6,3.7,10.8,10.6,14.8c14.3,8.3,37.5,8.4,51.9,0.2
			c6.9-3.9,10.7-9.2,10.7-14.7c0-5.6-3.7-10.8-10.6-14.8C514.5,848.2,505,846.1,495.5,846.1z"/>
		
			<radialGradient id="SVGID_11_" cx="1002.1512" cy="1144.6511" r="149.4955" gradientTransform="matrix(0.9559 -0.2936 -0.2936 -0.9559 -105.983 2285.7749)" gradientUnits="userSpaceOnUse">
			<stop  offset="0" style="stop-color:#FCE586"/>
			<stop  offset="0.321" style="stop-color:#FCD778"/>
			<stop  offset="0.6627" style="stop-color:#FCCF70"/>
			<stop  offset="1" style="stop-color:#FCCC6D"/>
		</radialGradient>
		<path class="st19" d="M521.8,882.3c-14.5,8.3-37.9,8.2-52.2-0.2c-14.4-8.4-14.3-21.9,0.1-30.2c14.5-8.3,37.9-8.2,52.2,0.2
			C536.3,860.5,536.2,874,521.8,882.3z"/>
		<path class="st7" d="M469.7,853.6c14.5-8.3,37.9-8.2,52.2,0.2c6.8,4,10.4,9.1,10.7,14.2c0.4-5.7-3.1-11.6-10.7-16
			c-14.4-8.4-37.8-8.5-52.2-0.2c-7.6,4.4-11.2,10.2-10.9,15.9C459.2,862.6,462.8,857.6,469.7,853.6z"/>
		<path class="st11" d="M526.8,883.5c-17.2,9.8-45.1,9.7-62.2-0.3c-8.2-4.8-12.5-11-12.8-17.2c-0.4,6.8,3.8,13.6,12.8,18.9
			c17.1,10,45,10.1,62.2,0.3c9-5.1,13.3-12,12.9-18.7C539.3,872.7,535,878.8,526.8,883.5z"/>
	</g>
	<g>
		<path class="st7" d="M451.7,882.5l-2.4,3.6c-2.1-3.5-5.6-6.9-10.4-9.7c-17.1-10-45-10.1-62.2-0.3c-4.8,2.7-8.2,5.9-10.4,9.4
			l-2.6-3.4v7.7l0,0c-0.2,6.6,4.1,13.3,12.8,18.4c17.1,10,45,10.1,62.2,0.3c8.6-4.9,12.9-11.4,13-17.9l0,0V882.5z"/>
		<path class="st8" d="M438.8,900.4c-17.2,9.8-45.1,9.7-62.2-0.3s-17.1-26.1,0.2-35.9c17.2-9.8,45.1-9.7,62.2,0.3
			S456,890.6,438.8,900.4z"/>
		
			<radialGradient id="SVGID_12_" cx="883.0729" cy="1212.1482" r="62.8438" gradientTransform="matrix(0.9559 -0.2936 -0.2936 -0.9559 -105.983 2285.7749)" gradientUnits="userSpaceOnUse">
			<stop  offset="0" style="stop-color:#FCE586"/>
			<stop  offset="0.321" style="stop-color:#FCD778"/>
			<stop  offset="0.6627" style="stop-color:#FCCF70"/>
			<stop  offset="1" style="stop-color:#FCCC6D"/>
		</radialGradient>
		<path class="st20" d="M438.8,900.4c-17.2,9.8-45.1,9.7-62.2-0.3s-17.1-26.1,0.2-35.9c17.2-9.8,45.1-9.7,62.2,0.3
			S456,890.6,438.8,900.4z"/>
		<path class="st7" d="M407.9,904c-9.6,0-19.3-2.1-26.6-6.4c-7.1-4.1-11-9.6-10.9-15.5c0-5.8,4-11.3,11.1-15.4
			c14.5-8.3,38.1-8.2,52.6,0.2c7.1,4.1,11,9.6,10.9,15.5c0,5.8-4,11.3-11.1,15.4C426.8,902,417.3,904,407.9,904z M407.5,861.4
			c-9.3,0-18.6,2-25.7,6.1c-6.9,3.9-10.7,9.2-10.7,14.7c0,5.6,3.7,10.8,10.6,14.8c14.3,8.3,37.5,8.4,51.9,0.2
			c6.9-3.9,10.7-9.2,10.7-14.7c0-5.6-3.7-10.8-10.6-14.8C426.5,863.5,417,861.4,407.5,861.4z"/>
		
			<radialGradient id="SVGID_13_" cx="913.5477" cy="1155.8987" r="149.4954" gradientTransform="matrix(0.9559 -0.2936 -0.2936 -0.9559 -105.983 2285.7749)" gradientUnits="userSpaceOnUse">
			<stop  offset="0" style="stop-color:#FCE586"/>
			<stop  offset="0.321" style="stop-color:#FCD778"/>
			<stop  offset="0.6627" style="stop-color:#FCCF70"/>
			<stop  offset="1" style="stop-color:#FCCC6D"/>
		</radialGradient>
		<path class="st21" d="M433.8,897.5c-14.5,8.3-37.9,8.2-52.2-0.2c-14.4-8.4-14.3-21.9,0.1-30.2c14.5-8.3,37.9-8.2,52.2,0.2
			C448.3,875.8,448.2,889.3,433.8,897.5z"/>
		<path class="st7" d="M381.7,868.9c14.5-8.3,37.9-8.2,52.2,0.2c6.8,4,10.4,9.1,10.7,14.2c0.4-5.7-3.1-11.6-10.7-16
			c-14.4-8.4-37.8-8.5-52.2-0.2c-7.6,4.4-11.2,10.2-10.9,15.9C371.2,877.9,374.8,872.8,381.7,868.9z"/>
		<path class="st11" d="M438.8,898.8c-17.2,9.8-45.1,9.7-62.2-0.3c-8.2-4.8-12.5-11-12.8-17.2c-0.4,6.8,3.8,13.6,12.8,18.9
			c17.1,10,45,10.1,62.2,0.3c9-5.1,13.3-12,12.9-18.7C451.3,887.9,447,894.1,438.8,898.8z"/>
	</g>
	<g>
		<path class="st7" d="M493.4,866.4L491,870c-2.1-3.5-5.6-6.9-10.4-9.7c-17.1-10-45-10.1-62.2-0.3c-4.8,2.7-8.2,5.9-10.4,9.4
			l-2.6-3.4v7.7l0,0c-0.2,6.6,4.1,13.3,12.8,18.4c17.1,10,45,10.1,62.2,0.3c8.6-4.9,12.9-11.4,13-17.9l0,0V866.4z"/>
		
			<ellipse transform="matrix(4.489132e-03 -1 1 4.489132e-03 -418.7044 1311.6288)" class="st8" cx="449.4" cy="866.1" rx="25.4" ry="44"/>
		
			<radialGradient id="SVGID_14_" cx="927.6235" cy="1215.3923" r="62.8438" gradientTransform="matrix(0.9559 -0.2936 -0.2936 -0.9559 -105.983 2285.7749)" gradientUnits="userSpaceOnUse">
			<stop  offset="0" style="stop-color:#FCE586"/>
			<stop  offset="0.321" style="stop-color:#FCD778"/>
			<stop  offset="0.6627" style="stop-color:#FCCF70"/>
			<stop  offset="1" style="stop-color:#FCCC6D"/>
		</radialGradient>
		<path class="st22" d="M480.4,884.3c-17.2,9.8-45.1,9.7-62.2-0.3s-17.1-26.1,0.2-35.9c17.2-9.8,45.1-9.7,62.2,0.3
			C497.7,858.3,497.6,874.4,480.4,884.3z"/>
		<path class="st7" d="M449.6,887.8c-9.6,0-19.3-2.1-26.6-6.4c-7.1-4.1-11-9.6-10.9-15.5c0-5.8,4-11.3,11.1-15.4
			c14.5-8.3,38.1-8.2,52.6,0.2c7.1,4.1,11,9.6,10.9,15.5c0,5.8-4,11.3-11.1,15.4C468.4,885.8,459,887.8,449.6,887.8z M449.2,845.2
			c-9.3,0-18.6,2-25.7,6.1c-6.9,3.9-10.7,9.2-10.7,14.7c0,5.6,3.7,10.8,10.6,14.8c14.3,8.3,37.5,8.4,51.9,0.2
			c6.9-3.9,10.7-9.2,10.7-14.7c0-5.6-3.7-10.8-10.6-14.8C468.2,847.3,458.7,845.2,449.2,845.2z"/>
		
			<radialGradient id="SVGID_15_" cx="958.0984" cy="1159.1427" r="149.4956" gradientTransform="matrix(0.9559 -0.2936 -0.2936 -0.9559 -105.983 2285.7749)" gradientUnits="userSpaceOnUse">
			<stop  offset="0" style="stop-color:#FCE586"/>
			<stop  offset="0.321" style="stop-color:#FCD778"/>
			<stop  offset="0.6627" style="stop-color:#FCCF70"/>
			<stop  offset="1" style="stop-color:#FCCC6D"/>
		</radialGradient>
		<path class="st23" d="M475.4,881.4c-14.5,8.3-37.9,8.2-52.2-0.2c-14.4-8.4-14.3-21.9,0.1-30.2c14.5-8.3,37.9-8.2,52.2,0.2
			C489.9,859.6,489.9,873.1,475.4,881.4z"/>
		<path class="st7" d="M423.3,852.7c14.5-8.3,37.9-8.2,52.2,0.2c6.8,4,10.4,9.1,10.7,14.2c0.4-5.7-3.1-11.6-10.7-16
			c-14.4-8.4-37.8-8.5-52.2-0.2c-7.6,4.4-11.2,10.2-10.9,15.9C412.8,861.7,416.5,856.6,423.3,852.7z"/>
		<path class="st11" d="M480.4,882.6c-17.2,9.8-45.1,9.7-62.2-0.3c-8.2-4.8-12.5-11-12.8-17.2c-0.4,6.8,3.8,13.6,12.8,18.9
			c17.1,10,45,10.1,62.2,0.3c9-5.1,13.3-12,12.9-18.7C493,871.7,488.6,877.9,480.4,882.6z"/>
	</g>
	<g>
		<path class="st7" d="M504.7,857.6l-2.4,3.6c-2.1-3.5-5.6-6.9-10.4-9.7c-17.1-10-45-10.1-62.2-0.3c-4.8,2.7-8.2,5.9-10.4,9.4
			l-2.6-3.4v7.7l0,0c-0.2,6.6,4.1,13.3,12.8,18.4c17.1,10,45,10.1,62.2,0.3c8.6-4.9,12.9-11.4,13-17.9l0,0V857.6z"/>
		
			<ellipse transform="matrix(4.489144e-03 -1 1 4.489144e-03 -398.6662 1314.3281)" class="st8" cx="460.8" cy="857.4" rx="25.4" ry="44"/>
		
			<radialGradient id="SVGID_16_" cx="941.085" cy="1220.4583" r="62.8437" gradientTransform="matrix(0.9559 -0.2936 -0.2936 -0.9559 -105.983 2285.7749)" gradientUnits="userSpaceOnUse">
			<stop  offset="0" style="stop-color:#FCE586"/>
			<stop  offset="0.321" style="stop-color:#FCD778"/>
			<stop  offset="0.6627" style="stop-color:#FCCF70"/>
			<stop  offset="1" style="stop-color:#FCCC6D"/>
		</radialGradient>
		<path class="st24" d="M491.8,875.5c-17.2,9.8-45.1,9.7-62.2-0.3s-17.1-26.1,0.2-35.9c17.2-9.8,45.1-9.7,62.2,0.3
			S509,865.6,491.8,875.5z"/>
		<path class="st7" d="M460.9,879c-9.6,0-19.3-2.1-26.6-6.4c-7.1-4.1-11-9.6-10.9-15.5c0-5.8,4-11.3,11.1-15.4
			c14.5-8.3,38.1-8.2,52.6,0.2c7.1,4.1,11,9.6,10.9,15.5c0,5.8-4,11.3-11.1,15.4C479.8,877,470.4,879,460.9,879z M460.5,836.4
			c-9.3,0-18.6,2-25.7,6.1c-6.9,3.9-10.7,9.2-10.7,14.7c0,5.6,3.7,10.8,10.6,14.8c14.3,8.3,37.5,8.4,51.9,0.2
			c6.9-3.9,10.7-9.2,10.7-14.7c0-5.6-3.7-10.8-10.6-14.8C479.5,838.5,470,836.4,460.5,836.4z"/>
		
			<radialGradient id="SVGID_17_" cx="971.5599" cy="1164.2086" r="149.4955" gradientTransform="matrix(0.9559 -0.2936 -0.2936 -0.9559 -105.983 2285.7749)" gradientUnits="userSpaceOnUse">
			<stop  offset="0" style="stop-color:#FCE586"/>
			<stop  offset="0.321" style="stop-color:#FCD778"/>
			<stop  offset="0.6627" style="stop-color:#FCCF70"/>
			<stop  offset="1" style="stop-color:#FCCC6D"/>
		</radialGradient>
		<path class="st25" d="M486.8,872.6c-14.5,8.3-37.9,8.2-52.2-0.2c-14.4-8.4-14.3-21.9,0.1-30.2c14.5-8.3,37.9-8.2,52.2,0.2
			C501.3,850.8,501.3,864.3,486.8,872.6z"/>
		<path class="st7" d="M434.7,843.9c14.5-8.3,37.9-8.2,52.2,0.2c6.8,4,10.4,9.1,10.7,14.2c0.4-5.7-3.1-11.6-10.7-16
			c-14.4-8.4-37.8-8.5-52.2-0.2c-7.6,4.4-11.2,10.2-10.9,15.9C424.2,852.9,427.8,847.8,434.7,843.9z"/>
		<path class="st11" d="M491.8,873.8c-17.2,9.8-45.1,9.7-62.2-0.3c-8.2-4.8-12.5-11-12.8-17.2c-0.4,6.8,3.8,13.6,12.8,18.9
			c17.1,10,45,10.1,62.2,0.3c9-5.1,13.3-12,12.9-18.7C504.3,862.9,500,869.1,491.8,873.8z"/>
	</g>
	<g>
		<path class="st7" d="M510.8,840.6l-2.4,3.6c-2.1-3.5-5.6-6.9-10.4-9.7c-17.1-10-45-10.1-62.2-0.3c-4.8,2.7-8.2,5.9-10.4,9.4
			l-2.6-3.4v7.7l0,0c-0.2,6.6,4.1,13.3,12.8,18.4c17.1,10,45,10.1,62.2,0.3c8.6-4.9,12.9-11.4,13-17.9l0,0V840.6z"/>
		<path class="st8" d="M497.8,858.5c-17.2,9.8-45.1,9.7-62.2-0.3s-17.1-26.1,0.2-35.9c17.2-9.8,45.1-9.7,62.2,0.3
			C515.1,832.6,515,848.7,497.8,858.5z"/>
		
			<radialGradient id="SVGID_18_" cx="951.8151" cy="1234.8585" r="62.8438" gradientTransform="matrix(0.9559 -0.2936 -0.2936 -0.9559 -105.983 2285.7749)" gradientUnits="userSpaceOnUse">
			<stop  offset="0" style="stop-color:#FCE586"/>
			<stop  offset="0.321" style="stop-color:#FCD778"/>
			<stop  offset="0.6627" style="stop-color:#FCCF70"/>
			<stop  offset="1" style="stop-color:#FCCC6D"/>
		</radialGradient>
		<path class="st26" d="M497.8,858.5c-17.2,9.8-45.1,9.7-62.2-0.3s-17.1-26.1,0.2-35.9c17.2-9.8,45.1-9.7,62.2,0.3
			C515.1,832.6,515,848.7,497.8,858.5z"/>
		<path class="st7" d="M467,862.1c-9.6,0-19.3-2.1-26.6-6.4c-7.1-4.1-11-9.6-10.9-15.5c0-5.8,4-11.3,11.1-15.4
			c14.5-8.3,38.1-8.2,52.6,0.2c7.1,4.1,11,9.6,10.9,15.5c0,5.8-4,11.3-11.1,15.4C485.8,860.1,476.4,862.1,467,862.1z M466.6,819.5
			c-9.3,0-18.6,2-25.7,6.1c-6.9,3.9-10.7,9.2-10.7,14.7c0,5.6,3.7,10.8,10.6,14.8c14.3,8.3,37.5,8.4,51.9,0.2
			c6.9-3.9,10.7-9.2,10.7-14.7c0-5.6-3.7-10.8-10.6-14.8C485.6,821.6,476.1,819.5,466.6,819.5z"/>
		
			<radialGradient id="SVGID_19_" cx="982.29" cy="1178.609" r="149.4955" gradientTransform="matrix(0.9559 -0.2936 -0.2936 -0.9559 -105.983 2285.7749)" gradientUnits="userSpaceOnUse">
			<stop  offset="0" style="stop-color:#FCE586"/>
			<stop  offset="0.321" style="stop-color:#FCD778"/>
			<stop  offset="0.6627" style="stop-color:#FCCF70"/>
			<stop  offset="1" style="stop-color:#FCCC6D"/>
		</radialGradient>
		<path class="st27" d="M492.8,855.6c-14.5,8.3-37.9,8.2-52.2-0.2c-14.4-8.4-14.3-21.9,0.1-30.2c14.5-8.3,37.9-8.2,52.2,0.2
			C507.3,833.9,507.3,847.4,492.8,855.6z"/>
		<path class="st7" d="M440.7,827c14.5-8.3,37.9-8.2,52.2,0.2c6.8,4,10.4,9.1,10.7,14.2c0.4-5.7-3.1-11.6-10.7-16
			c-14.4-8.4-37.8-8.5-52.2-0.2c-7.6,4.4-11.2,10.2-10.9,15.9C430.2,836,433.9,830.9,440.7,827z"/>
		<path class="st11" d="M497.8,856.9c-17.2,9.8-45.1,9.7-62.2-0.3c-8.2-4.8-12.5-11-12.8-17.2c-0.4,6.8,3.8,13.6,12.8,18.9
			c17.1,10,45,10.1,62.2,0.3c9-5.1,13.3-12,12.9-18.7C510.4,846,506.1,852.2,497.8,856.9z"/>
	</g>
	<g>
		<path class="st7" d="M541.2,847.6l-3.1,3c-1.3-3.9-4-7.9-8.2-11.6c-14.7-13.3-42-19.1-60.9-13c-5.2,1.7-9.3,4.1-12.1,7l-1.8-3.8
			l-1.6,7.5l0,0c-1.5,6.4,1.2,13.8,8.8,20.6c14.7,13.3,42,19.1,60.9,13c9.4-3.1,15-8.5,16.4-14.9l0,0L541.2,847.6z"/>
		
			<ellipse transform="matrix(0.2091 -0.9779 0.9779 0.2091 -426.0031 1150.2589)" class="st8" cx="498.1" cy="838.5" rx="25.4" ry="44"/>
		
			<radialGradient id="SVGID_20_" cx="700.9712" cy="1131.58" r="62.8411" gradientTransform="matrix(0.9958 -9.170000e-02 -9.170000e-02 -0.9958 -118.0689 2010.1189)" gradientUnits="userSpaceOnUse">
			<stop  offset="0" style="stop-color:#FCE586"/>
			<stop  offset="0.321" style="stop-color:#FCD778"/>
			<stop  offset="0.6627" style="stop-color:#FCCF70"/>
			<stop  offset="1" style="stop-color:#FCCC6D"/>
		</radialGradient>
		<path class="st28" d="M524.8,862.5c-18.9,6.1-46.1,0.3-60.9-13c-14.7-13.3-11.4-29,7.5-35.1s46.1-0.3,60.9,13
			S543.7,856.4,524.8,862.5z"/>
		<path class="st7" d="M493.9,859.7c-9.4-2-18.4-6-24.7-11.7c-6.1-5.5-8.8-11.7-7.5-17.4c1.2-5.7,6.2-10.2,14-12.8
			c15.9-5.2,39-0.2,51.5,11c6.1,5.5,8.8,11.7,7.5,17.4c-1.2,5.7-6.2,10.2-14,12.8C512.8,861.6,503.1,861.6,493.9,859.7z
			 M502.2,817.9c-9.1-1.9-18.6-1.8-26.4,0.7c-7.5,2.4-12.3,6.8-13.5,12.2s1.4,11.4,7.3,16.7c12.3,11.1,35,15.9,50.7,10.8
			c7.5-2.4,12.3-6.8,13.5-12.2s-1.4-11.4-7.3-16.7C520.4,823.8,511.5,819.8,502.2,817.9z"/>
		
			<radialGradient id="SVGID_21_" cx="731.4449" cy="1075.3333" r="149.4896" gradientTransform="matrix(0.9958 -9.170000e-02 -9.170000e-02 -0.9958 -118.0689 2010.1189)" gradientUnits="userSpaceOnUse">
			<stop  offset="0" style="stop-color:#FCE586"/>
			<stop  offset="0.321" style="stop-color:#FCD778"/>
			<stop  offset="0.6627" style="stop-color:#FCCF70"/>
			<stop  offset="1" style="stop-color:#FCCC6D"/>
		</radialGradient>
		<path class="st29" d="M520.5,858.7c-15.8,5.1-38.7,0.2-51.1-10.9c-12.4-11.2-9.5-24.4,6.3-29.5s38.7-0.2,51.1,10.9
			C539.2,840.3,536.4,853.5,520.5,858.7z"/>
		<path class="st7" d="M475.4,820c15.8-5.1,38.7-0.2,51.1,10.9c5.8,5.3,8.3,11,7.6,16.1c1.6-5.5-0.7-12-7.2-17.9
			c-12.4-11.2-35.2-16.1-51.1-10.9c-8.4,2.7-13.1,7.7-13.9,13.4C463.3,826.6,467.9,822.4,475.4,820z"/>
		<path class="st11" d="M525.2,860.9c-18.9,6.1-46.1,0.3-60.9-13c-7-6.4-9.9-13.3-9-19.4c-1.8,6.5,1,14.1,8.6,21.1
			c14.7,13.3,42,19.1,60.9,13c9.8-3.2,15.5-9,16.5-15.7C539.7,852.8,534.2,858,525.2,860.9z"/>
	</g>
	<g>
		<path class="st7" d="M474.1,662.4l-3.9,1.9c-0.1-4.1-1.5-8.7-4.3-13.6c-10-17.1-34.2-31-54-30.9c-5.5,0-10.1,1.1-13.6,3l-0.6-4.2
			l-3.8,6.7l0,0c-3.4,5.7-3,13.6,2.1,22.3c10,17.1,34.2,31,54,30.9c9.9,0,16.9-3.6,20.1-9.2l0,0L474.1,662.4z"/>
		<path class="st8" d="M454,671.6c-19.8,0.1-44-13.7-54-30.9c-10-17.1-2-31.1,17.8-31.2c19.8-0.1,44,13.7,54,30.9
			S473.8,671.6,454,671.6z"/>
		
			<radialGradient id="SVGID_22_" cx="257.4226" cy="1063.9449" r="62.8417" gradientTransform="matrix(0.9766 0.2151 0.2151 -0.9766 -59.3824 1599.101)" gradientUnits="userSpaceOnUse">
			<stop  offset="0" style="stop-color:#FCE586"/>
			<stop  offset="0.321" style="stop-color:#FCD778"/>
			<stop  offset="0.6627" style="stop-color:#FCCF70"/>
			<stop  offset="1" style="stop-color:#FCCC6D"/>
		</radialGradient>
		<path class="st30" d="M454,671.6c-19.8,0.1-44-13.7-54-30.9c-10-17.1-2-31.1,17.8-31.2c19.8-0.1,44,13.7,54,30.9
			S473.8,671.6,454,671.6z"/>
		<path class="st7" d="M425.4,659.6c-8.4-4.7-15.7-11.3-20-18.7c-4.1-7.1-4.8-13.8-1.9-18.8c2.9-5.1,9-7.9,17.2-7.9
			c16.7-0.1,37.2,11.6,45.7,26.1c4.1,7.1,4.8,13.8,1.9,18.8c-2.9,5.1-9,7.9-17.2,7.9C442.8,667.1,433.6,664.2,425.4,659.6z
			 M446,622.3c-8.1-4.6-17.2-7.4-25.3-7.4c-7.9,0-13.8,2.7-16.6,7.5c-2.8,4.8-2.1,11.3,1.9,18.1c8.3,14.3,28.5,25.8,45,25.7
			c7.9,0,13.8-2.7,16.6-7.5c2.8-4.8,2.1-11.2-1.9-18.1C461.5,633.5,454.3,626.9,446,622.3z"/>
		
			<radialGradient id="SVGID_23_" cx="287.8962" cy="1007.6963" r="149.49" gradientTransform="matrix(0.9766 0.2151 0.2151 -0.9766 -59.3824 1599.101)" gradientUnits="userSpaceOnUse">
			<stop  offset="0" style="stop-color:#FCE586"/>
			<stop  offset="0.321" style="stop-color:#FCD778"/>
			<stop  offset="0.6627" style="stop-color:#FCCF70"/>
			<stop  offset="1" style="stop-color:#FCCC6D"/>
		</radialGradient>
		<path class="st31" d="M451.1,666.7c-16.7,0.1-37-11.5-45.4-25.9s-1.7-26.1,15-26.2s37,11.5,45.4,25.9
			C474.4,654.9,467.7,666.6,451.1,666.7z"/>
		<path class="st7" d="M419.8,616.1c16.7-0.1,37,11.5,45.4,25.9c4,6.8,4.6,13,2.3,17.7c3.2-4.8,3-11.6-1.4-19.2
			c-8.4-14.4-28.7-26-45.4-25.9c-8.8,0-14.8,3.3-17.3,8.5C406.3,618.8,411.9,616.1,419.8,616.1z"/>
		<path class="st11" d="M454.8,670.2c-19.8,0.1-44-13.7-54-30.9c-4.8-8.2-5.4-15.7-2.7-21.2c-3.7,5.7-3.4,13.8,1.8,22.7
			c10,17.1,34.2,31,54,30.9c10.3,0,17.5-3.9,20.5-9.9C471.1,666.9,464.3,670.1,454.8,670.2z"/>
	</g>
	<g>
		<path class="st7" d="M465.6,739.4l-0.3,4.3c-3.6-2-8.2-3.2-13.9-3.3c-19.8-0.2-44.1,13.4-54.3,30.4c-2.8,4.7-4.2,9.2-4.4,13.2
			l-3.9-1.7l3.8,6.7l0,0c3.1,5.9,10.1,9.6,20.2,9.7c19.8,0.2,44.1-13.4,54.3-30.4c5.1-8.5,5.6-16.3,2.5-22l0,0L465.6,739.4z"/>
		
			<ellipse transform="matrix(0.8722 -0.4891 0.4891 0.8722 -317.6288 306.1876)" class="st8" cx="427.2" cy="761" rx="44" ry="25.4"/>
		
			<radialGradient id="SVGID_24_" cx="1723.2633" cy="1297.2703" r="62.84" gradientTransform="matrix(0.6869 -0.7268 -0.7268 -0.6869 157.0399 2904.4336)" gradientUnits="userSpaceOnUse">
			<stop  offset="0" style="stop-color:#FCE586"/>
			<stop  offset="0.321" style="stop-color:#FCD778"/>
			<stop  offset="0.6627" style="stop-color:#FCCF70"/>
			<stop  offset="1" style="stop-color:#FCCC6D"/>
		</radialGradient>
		<path class="st32" d="M463.1,761.4c-10.1,17.1-34.4,30.7-54.3,30.4c-19.8-0.2-27.7-14.3-17.6-31.3c10.1-17.1,34.4-30.7,54.3-30.4
			C465.4,730.3,473.3,744.3,463.1,761.4z"/>
		<path class="st7" d="M438.1,779.7c-8.4,4.7-17.8,7.6-26.3,7.5c-8.2-0.1-14.3-3-17.1-8.1c-2.9-5.1-2.1-11.8,2.1-18.8
			c8.6-14.4,29.1-25.9,45.9-25.7c8.2,0.1,14.3,3,17.1,8.1c2.9,5.1,2.1,11.8-2.1,18.8C453.5,768.6,446.3,775.1,438.1,779.7z
			 M416.7,742.8c-8.1,4.6-15.2,10.9-19.3,17.9c-4,6.8-4.8,13.2-2.1,18.1c2.7,4.8,8.6,7.6,16.5,7.7c16.5,0.2,36.8-11.2,45.2-25.4
			c4-6.8,4.8-13.2,2.1-18.1c-2.7-4.8-8.6-7.6-16.5-7.7C434.3,735.3,425,738.1,416.7,742.8z"/>
		
			<radialGradient id="SVGID_25_" cx="1753.7361" cy="1241.0234" r="149.4859" gradientTransform="matrix(0.6869 -0.7268 -0.7268 -0.6869 157.0399 2904.4336)" gradientUnits="userSpaceOnUse">
			<stop  offset="0" style="stop-color:#FCE586"/>
			<stop  offset="0.321" style="stop-color:#FCD778"/>
			<stop  offset="0.6627" style="stop-color:#FCCF70"/>
			<stop  offset="1" style="stop-color:#FCCC6D"/>
		</radialGradient>
		<path class="st33" d="M457.4,761.3c-8.5,14.3-28.9,25.8-45.6,25.6s-23.3-12-14.8-26.3s28.9-25.8,45.6-25.6
			C459.3,735.2,465.9,747,457.4,761.3z"/>
		<path class="st7" d="M397.9,762.1c8.5-14.3,28.9-25.8,45.6-25.6c7.9,0.1,13.5,2.8,16.4,7.1c-2.5-5.2-8.4-8.5-17.2-8.7
			c-16.7-0.2-37.1,11.2-45.6,25.6c-4.5,7.5-4.8,14.4-1.6,19.2C393.2,775.1,393.9,768.9,397.9,762.1z"/>
		<path class="st11" d="M462.3,759.9c-10.1,17.1-34.4,30.7-54.3,30.4c-9.5-0.1-16.2-3.4-19.6-8.7c3,6.1,10.1,10,20.4,10.1
			c19.8,0.2,44.1-13.4,54.3-30.4c5.3-8.9,5.7-17,2-22.7C467.9,744.3,467.2,751.8,462.3,759.9z"/>
	</g>
	<g>
		<g>
			
				<linearGradient id="SVGID_26_" gradientUnits="userSpaceOnUse" x1="-382.3544" y1="326.582" x2="-77.0119" y2="220.4519" gradientTransform="matrix(0.866 0.5 0 -1.1547 908.5503 1209.011)">
				<stop  offset="0" style="stop-color:#2874BB"/>
				<stop  offset="0.907" style="stop-color:#0B65AE"/>
				<stop  offset="1" style="stop-color:#0664AD"/>
			</linearGradient>
			<path class="st34" d="M714.2,642.7L608.1,528.8L502,520.2c0,0-17,143.8,106.1,296.3C731.2,806.1,714.2,642.7,714.2,642.7z"/>
			
				<linearGradient id="SVGID_27_" gradientUnits="userSpaceOnUse" x1="-617.3087" y1="548.6" x2="-487.4087" y2="548.6" gradientTransform="matrix(-1 0 0 -1 -9.2087 1080)">
				<stop  offset="0" style="stop-color:#0664AD"/>
				<stop  offset="1" style="stop-color:#2874BB"/>
			</linearGradient>
			<polygon class="st35" points="502.1,520.2 478.2,534 584.3,542.6 608.1,528.8 			"/>
			
				<linearGradient id="SVGID_28_" gradientUnits="userSpaceOnUse" x1="-497.7443" y1="290.4464" x2="-251.0865" y2="290.4464" gradientTransform="matrix(0.866 0.5 0 -1.1547 908.5503 1209.011)">
				<stop  offset="0" style="stop-color:#82D4F7"/>
				<stop  offset="1" style="stop-color:#5FBDEB"/>
			</linearGradient>
			<path class="st36" d="M690.3,656.4l-106-113.8l-43.6-4.4l-62.4-4.2c0,0-17,143.8,106.1,296.3
				C707.4,819.9,690.3,656.4,690.3,656.4z"/>
			<path class="st4" d="M690.3,656.4l-106-113.8L478.2,534c3-1.7,3-1.7,3-1.7l107.5,8.7l106.1,113.9c0,0,14.2,136.6-77.4,168
				C704.1,788.7,690.3,656.4,690.3,656.4z"/>
		</g>
		<path class="st13" d="M677.4,658.2L582,555.8l-39.2-4l-56.1-3.8c0,0-15.3,129.3,95.4,266.4C692.8,805.2,677.4,658.2,677.4,658.2z"
			/>
	</g>
</g>
</svg>
