<?xml version="1.0" encoding="utf-8"?>
<!-- Generator: Adobe Illustrator 24.1.3, SVG Export Plug-In . SVG Version: 6.00 Build 0)  -->
<svg version="1.1" id="Layer_1" xmlns="http://www.w3.org/2000/svg" xmlns:xlink="http://www.w3.org/1999/xlink" x="0px" y="0px"
	 viewBox="0 0 1080 1080" style="enable-background:new 0 0 1080 1080;" xml:space="preserve">
<style type="text/css">
	.st0{fill:url(#SVGID_1_);}
	.st1{fill:#007282;fill-opacity:0;}
	.st2{opacity:1.692308e-02;fill:#007282;enable-background:new    ;}
	.st3{opacity:3.384615e-02;fill:#007282;enable-background:new    ;}
	.st4{opacity:5.076923e-02;fill:#007282;enable-background:new    ;}
	.st5{opacity:6.769231e-02;fill:#007282;enable-background:new    ;}
	.st6{opacity:8.461539e-02;fill:#007282;enable-background:new    ;}
	.st7{opacity:0.1015;fill:#007282;enable-background:new    ;}
	.st8{opacity:0.1185;fill:#007282;enable-background:new    ;}
	.st9{opacity:0.1354;fill:#007282;enable-background:new    ;}
	.st10{opacity:0.1523;fill:#007282;enable-background:new    ;}
	.st11{opacity:0.1692;fill:#007282;enable-background:new    ;}
	.st12{opacity:0.1862;fill:#007282;enable-background:new    ;}
	.st13{opacity:0.2031;fill:#007282;enable-background:new    ;}
	.st14{opacity:0.22;fill:#007282;enable-background:new    ;}
	.st15{opacity:0.2369;fill:#007282;enable-background:new    ;}
	.st16{opacity:0.2538;fill:#007282;enable-background:new    ;}
	.st17{opacity:0.2708;fill:#007282;enable-background:new    ;}
	.st18{opacity:0.2877;fill:#007282;enable-background:new    ;}
	.st19{opacity:0.3046;fill:#007282;enable-background:new    ;}
	.st20{opacity:0.3215;fill:#007282;enable-background:new    ;}
	.st21{opacity:0.3385;fill:#007282;enable-background:new    ;}
	.st22{opacity:0.3554;fill:#007282;enable-background:new    ;}
	.st23{opacity:0.3723;fill:#007282;enable-background:new    ;}
	.st24{opacity:0.3892;fill:#007282;enable-background:new    ;}
	.st25{opacity:0.4062;fill:#007282;enable-background:new    ;}
	.st26{opacity:0.4231;fill:#007282;enable-background:new    ;}
	.st27{opacity:0.44;fill:#007282;enable-background:new    ;}
	.st28{fill:#D4D4D4;}
	.st29{fill:#123551;}
	.st30{fill:#F6F6F6;}
	.st31{fill:url(#SVGID_2_);}
	.st32{fill:#00759C;}
	.st33{fill:#E21E26;}
	.st34{fill:none;stroke:#007E87;stroke-miterlimit:10;}
	.st35{font-family:'ArialMT';}
	.st36{font-size:30.084px;}
	.st37{fill:#08183B;}
	.st38{fill:#9F9E9E;}
	.st39{fill:#7C7C7C;}
	.st40{fill:#DCDCDC;}
	.st41{fill:#A4A4A4;}
	.st42{opacity:0.45;fill:#7D7E7E;enable-background:new    ;}
	.st43{fill:#B0B0B1;}
	.st44{fill:#7D7E7E;}
	.st45{fill:#FDEC06;}
	.st46{fill:#F6C826;}
	.st47{fill:#FEF496;}
	.st48{fill:none;stroke:#007E87;stroke-linecap:round;stroke-miterlimit:10;}
	.st49{fill:#83BC41;}
	.st50{fill:#5F893C;}
	.st51{fill:#DEDC1F;}
</style>
<g id="Layer_20">
	
		<radialGradient id="SVGID_1_" cx="543.7128" cy="534.8997" r="499.886" gradientTransform="matrix(1.0914 0 0 -1.1032 -47.8582 1131.8014)" gradientUnits="userSpaceOnUse">
		<stop  offset="0" style="stop-color:#52C1B2"/>
		<stop  offset="1" style="stop-color:#3EAEB8"/>
	</radialGradient>
	<rect y="-9.8" class="st0" width="1091.1" height="1103"/>
	<g>
		<g>
			<rect x="350.1" y="411" class="st1" width="469.9" height="392.9"/>
			<rect x="348.8" y="409.6" class="st2" width="469.9" height="392.9"/>
			<rect x="347.5" y="408.3" class="st3" width="469.9" height="392.9"/>
			<rect x="346.2" y="407" class="st4" width="469.9" height="392.9"/>
			<rect x="344.8" y="405.7" class="st5" width="469.9" height="392.9"/>
			<rect x="343.5" y="404.4" class="st6" width="469.9" height="392.9"/>
			<rect x="342.2" y="403.1" class="st7" width="469.9" height="392.9"/>
			<rect x="340.9" y="401.8" class="st8" width="469.9" height="392.9"/>
			<rect x="339.6" y="400.4" class="st9" width="469.9" height="392.9"/>
			<rect x="338.3" y="399.1" class="st10" width="469.9" height="392.9"/>
			<rect x="336.9" y="397.8" class="st11" width="469.9" height="392.9"/>
			<rect x="335.6" y="396.5" class="st12" width="469.9" height="392.9"/>
			<rect x="334.3" y="395.2" class="st13" width="469.9" height="392.9"/>
			<rect x="333" y="393.9" class="st14" width="469.9" height="392.9"/>
			<rect x="331.7" y="392.5" class="st15" width="469.9" height="392.9"/>
			<rect x="330.4" y="391.2" class="st16" width="469.9" height="392.9"/>
			<rect x="329.1" y="389.9" class="st17" width="469.9" height="392.9"/>
			<rect x="327.7" y="388.6" class="st18" width="469.9" height="392.9"/>
			<rect x="326.4" y="387.3" class="st19" width="469.9" height="392.9"/>
			<rect x="325.1" y="386" class="st20" width="469.9" height="392.9"/>
			<rect x="323.8" y="384.7" class="st21" width="469.9" height="392.9"/>
			<rect x="322.5" y="383.3" class="st22" width="469.9" height="392.9"/>
			<rect x="321.2" y="382" class="st23" width="469.9" height="392.9"/>
			<rect x="319.8" y="380.7" class="st24" width="469.9" height="392.9"/>
			<rect x="318.5" y="379.4" class="st25" width="469.9" height="392.9"/>
			<rect x="317.2" y="378.1" class="st26" width="469.9" height="392.9"/>
			<rect x="315.9" y="376.8" class="st27" width="469.9" height="392.9"/>
		</g>
		<polygon class="st28" points="782,766.4 312.1,766.4 299.8,754.3 312.1,373.5 782,373.5 		"/>
		<polygon class="st29" points="782,478.4 769.7,466.2 312.1,478.4 312.1,373.5 769.7,361.2 782,373.5 		"/>
		<rect x="299.8" y="361.2" class="st30" width="469.9" height="392.9"/>
		
			<linearGradient id="SVGID_2_" gradientUnits="userSpaceOnUse" x1="299.8" y1="666.3" x2="769.7" y2="666.3" gradientTransform="matrix(1 0 0 -1 0 1080)">
			<stop  offset="0" style="stop-color:#026BAB"/>
			<stop  offset="1" style="stop-color:#0094AA"/>
		</linearGradient>
		<rect x="299.8" y="361.2" class="st31" width="469.9" height="105"/>
		<rect x="348.4" y="489.5" class="st32" width="33.4" height="5.4"/>
		<rect x="405" y="489.5" class="st32" width="33.4" height="5.4"/>
		<rect x="464" y="489.5" class="st32" width="33.4" height="5.4"/>
		<rect x="519.4" y="489.5" class="st32" width="33.4" height="5.4"/>
		<rect x="577.2" y="489.5" class="st32" width="33.4" height="5.4"/>
		<rect x="634.9" y="489.5" class="st33" width="33.4" height="5.4"/>
		<rect x="692.1" y="489.5" class="st33" width="33.4" height="5.4"/>
		<line class="st34" x1="350.3" y1="554.5" x2="727.2" y2="554.5"/>
		<line class="st34" x1="350.3" y1="601.8" x2="727.2" y2="601.8"/>
		<line class="st34" x1="350.3" y1="647.4" x2="727.2" y2="647.4"/>
		<line class="st34" x1="350.3" y1="692.1" x2="727.2" y2="692.1"/>
		<g>
			<text transform="matrix(1 0 0 1 528.9686 538.1299)" class="st32 st35 st36">1</text>
			<text transform="matrix(1 0 0 1 367.0232 590.1192)" class="st32 st35 st36">5</text>
			<text transform="matrix(1 0 0 1 421.0125 590.1192)" class="st32 st35 st36">6</text>
			<text transform="matrix(1 0 0 1 475.0017 590.1192)" class="st32 st35 st36">7</text>
			<text transform="matrix(1 0 0 1 528.9686 590.1192)" class="st32 st35 st36">8</text>
			<text transform="matrix(1 0 0 1 586.407 590.1192)" class="st32 st35 st36">9</text>
			<text transform="matrix(1 0 0 1 357.9978 636.3458)" class="st32 st35 st36">12</text>
			<text transform="matrix(1 0 0 1 411.9881 636.3458)" class="st32 st35 st36">13</text>
			<text transform="matrix(1 0 0 1 465.9763 636.3458)" class="st32 st35 st36">14</text>
			<text transform="matrix(1 0 0 1 519.9461 636.3458)" class="st32 st35 st36">15</text>
			<text transform="matrix(1 0 0 1 577.3836 636.3458)" class="st32 st35 st36">16</text>
			<text transform="matrix(1 0 0 1 357.9978 682.5714)" class="st32 st35 st36">19</text>
			<text transform="matrix(1 0 0 1 411.9881 682.5714)" class="st32 st35 st36">20</text>
			<text transform="matrix(1 0 0 1 465.9763 682.5714)" class="st32 st35 st36">21</text>
			<text transform="matrix(1 0 0 1 519.9461 682.5714)" class="st32 st35 st36">22</text>
			<text transform="matrix(1 0 0 1 577.3836 682.5714)" class="st32 st35 st36">23</text>
			<text transform="matrix(1 0 0 1 357.9978 728.7969)" class="st32 st35 st36">26</text>
			<text transform="matrix(1 0 0 1 411.9881 728.7969)" class="st32 st35 st36">27</text>
			<text transform="matrix(1 0 0 1 465.9763 728.7969)" class="st32 st35 st36">28</text>
			<text transform="matrix(1 0 0 1 519.9461 728.7969)" class="st32 st35 st36">29</text>
			<text transform="matrix(1 0 0 1 577.3836 728.7969)" class="st32 st35 st36">30</text>
			<text transform="matrix(1 0 0 1 586.407 538.1299)" class="st32 st35 st36">2</text>
		</g>
		<g>
			<text transform="matrix(1 0 0 1 636.7879 590.1182)" class="st33 st35 st36">10</text>
			<text transform="matrix(1 0 0 1 689.0399 590.1182)" class="st33 st35 st36">11</text>
			<text transform="matrix(1 0 0 1 636.7879 636.3458)" class="st33 st35 st36">17</text>
			<text transform="matrix(1 0 0 1 689.0399 636.3458)" class="st33 st35 st36">18</text>
			<text transform="matrix(1 0 0 1 636.7879 682.5704)" class="st33 st35 st36">24</text>
			<text transform="matrix(1 0 0 1 689.0399 682.5714)" class="st33 st35 st36">25</text>
			<text transform="matrix(1 0 0 1 645.8104 538.1299)" class="st33 st35 st36">3</text>
		</g>
		<text transform="matrix(1 0 0 1 698.0652 538.1299)" class="st33 st35 st36">4</text>
		<g>
			<path class="st37" d="M340.8,386.1c0,5.8-4.7,10.5-10.5,10.5s-10.5-4.7-10.5-10.5s4.7-10.5,10.5-10.5
				C336.1,375.6,340.8,380.3,340.8,386.1z"/>
			<path class="st38" d="M360.4,361.1c0.3-2.2,0.5-4.4,0.5-6.7c0-16.2-8.7-30-18.9-30c-10.3,0-18.9,13.7-18.9,30
				c0,15.5,7.9,28.8,17.6,29.9c0.4,1.7,0.3,5.9-2.8,9.1c-13.9-2.7-24.2-18.9-24.2-39c0-22.1,12.5-39.4,28.4-39.4
				s28.4,17.3,28.4,39.4c0,2.3-0.1,4.6-0.4,6.8L360.4,361.1z"/>
			<g>
				<path class="st39" d="M316.4,371.5c3.9,11.7,11.9,20.1,21.5,22c3.2-3.2,3.2-7.5,2.8-9.1c-5.2-0.6-9.9-4.7-13.1-10.8
					C323.8,374,319.8,373.5,316.4,371.5z"/>
				<path class="st39" d="M360.9,352.4c0,0.7,0.1,1.4,0.1,2.1c0,2.3-0.2,4.6-0.5,6.7h9.6c0.3-2.2,0.4-4.4,0.4-6.8
					c0-1-0.1-1.9-0.1-2.9C367.3,352.6,364.1,352.8,360.9,352.4z"/>
			</g>
			<path class="st40" d="M321.5,329.2c3.8-5.7,11.9-13.3,20.9-13.1c8.9,0.2,18.5,4.7,25.3,24.5c-3.8-8.1-10.7-24-29.1-21.8
				C332.7,319.8,325.4,324.3,321.5,329.2z"/>
		</g>
		<g>
			<path class="st37" d="M416.1,386.1c0,5.8-4.7,10.5-10.5,10.5S395,392,395,386.1c0-5.8,4.7-10.5,10.5-10.5
				S416.1,380.3,416.1,386.1z"/>
			<path class="st38" d="M435.7,361.1c0.3-2.2,0.5-4.4,0.5-6.7c0-16.2-8.7-30-18.9-30c-10.3,0-18.9,13.7-18.9,30
				c0,15.5,7.9,28.8,17.6,29.9c0.4,1.7,0.3,5.9-2.8,9.1c-13.9-2.7-24.2-18.9-24.2-39c0-22.1,12.5-39.4,28.4-39.4
				s28.4,17.3,28.4,39.4c0,2.3-0.1,4.6-0.4,6.8L435.7,361.1z"/>
			<g>
				<path class="st39" d="M391.7,371.5c3.9,11.7,11.9,20.1,21.5,22c3.2-3.2,3.2-7.5,2.8-9.1c-5.2-0.6-9.9-4.7-13.1-10.8
					C399.1,374,395.1,373.5,391.7,371.5z"/>
				<path class="st39" d="M436.2,352.4c0,0.7,0.1,1.4,0.1,2.1c0,2.3-0.2,4.6-0.5,6.7h9.6c0.3-2.2,0.4-4.4,0.4-6.8
					c0-1-0.1-1.9-0.1-2.9C442.6,352.6,439.4,352.8,436.2,352.4z"/>
			</g>
			<path class="st40" d="M396.8,329.2c3.8-5.7,11.9-13.3,20.9-13.1c8.9,0.2,18.5,4.7,25.3,24.5c-3.8-8.1-10.7-24-29.1-21.8
				C408,319.8,400.7,324.3,396.8,329.2z"/>
		</g>
		<g>
			<path class="st37" d="M491.4,386.1c0,5.8-4.7,10.5-10.5,10.5s-10.5-4.7-10.5-10.5s4.7-10.5,10.5-10.5
				C486.7,375.6,491.4,380.3,491.4,386.1z"/>
			<path class="st38" d="M511,361.1c0.3-2.2,0.5-4.4,0.5-6.7c0-16.2-8.7-30-18.9-30c-10.3,0-18.9,13.7-18.9,30
				c0,15.5,7.9,28.8,17.6,29.9c0.4,1.7,0.3,5.9-2.8,9.1c-13.9-2.7-24.2-18.9-24.2-39c0-22.1,12.5-39.4,28.4-39.4
				s28.4,17.3,28.4,39.4c0,2.3-0.1,4.6-0.4,6.8L511,361.1z"/>
			<g>
				<path class="st39" d="M466.9,371.5c3.9,11.7,11.9,20.1,21.5,22c3.2-3.2,3.2-7.5,2.8-9.1c-5.2-0.6-9.9-4.7-13.1-10.8
					C474.4,374,470.3,373.5,466.9,371.5z"/>
				<path class="st39" d="M511.5,352.4c0,0.7,0.1,1.4,0.1,2.1c0,2.3-0.2,4.6-0.5,6.7h9.6c0.3-2.2,0.4-4.4,0.4-6.8
					c0-1-0.1-1.9-0.1-2.9C517.9,352.6,514.7,352.8,511.5,352.4z"/>
			</g>
			<path class="st40" d="M472.1,329.2c3.8-5.7,11.9-13.3,20.9-13.1c8.9,0.2,18.5,4.7,25.3,24.5c-3.8-8.1-10.7-24-29.1-21.8
				C483.3,319.8,476,324.3,472.1,329.2z"/>
		</g>
		<g>
			<path class="st37" d="M566.7,386.1c0,5.8-4.7,10.5-10.5,10.5s-10.5-4.7-10.5-10.5s4.7-10.5,10.5-10.5
				C561.9,375.6,566.7,380.3,566.7,386.1z"/>
			<path class="st38" d="M586.2,361.1c0.3-2.2,0.5-4.4,0.5-6.7c0-16.2-8.7-30-18.9-30c-10.3,0-18.9,13.7-18.9,30
				c0,15.5,7.9,28.8,17.6,29.9c0.4,1.7,0.3,5.9-2.8,9.1c-13.9-2.7-24.2-18.9-24.2-39c0-22.1,12.5-39.4,28.4-39.4
				s28.4,17.3,28.4,39.4c0,2.3-0.1,4.6-0.4,6.8L586.2,361.1z"/>
			<g>
				<path class="st39" d="M542.2,371.5c3.9,11.7,11.9,20.1,21.5,22c3.2-3.2,3.2-7.5,2.8-9.1c-5.2-0.6-9.9-4.7-13.1-10.8
					C549.6,374,545.6,373.5,542.2,371.5z"/>
				<path class="st39" d="M586.7,352.4c0,0.7,0.1,1.4,0.1,2.1c0,2.3-0.2,4.6-0.5,6.7h9.6c0.3-2.2,0.4-4.4,0.4-6.8
					c0-1-0.1-1.9-0.1-2.9C593.2,352.6,589.9,352.8,586.7,352.4z"/>
			</g>
			<path class="st40" d="M547.3,329.2c3.8-5.7,11.9-13.3,20.9-13.1c8.9,0.2,18.5,4.7,25.3,24.5c-3.8-8.1-10.7-24-29.1-21.8
				C558.6,319.8,551.2,324.3,547.3,329.2z"/>
		</g>
		<g>
			<path class="st37" d="M641.9,386.1c0,5.8-4.7,10.5-10.5,10.5s-10.5-4.7-10.5-10.5s4.7-10.5,10.5-10.5S641.9,380.3,641.9,386.1z"
				/>
			<path class="st38" d="M661.5,361.1c0.3-2.2,0.5-4.4,0.5-6.7c0-16.2-8.7-30-18.9-30c-10.3,0-18.9,13.7-18.9,30
				c0,15.5,7.9,28.8,17.6,29.9c0.4,1.7,0.3,5.9-2.8,9.1c-13.9-2.7-24.2-18.9-24.2-39c0-22.1,12.5-39.4,28.4-39.4
				s28.4,17.3,28.4,39.4c0,2.3-0.1,4.6-0.4,6.8L661.5,361.1z"/>
			<g>
				<path class="st39" d="M617.5,371.5c3.9,11.7,11.9,20.1,21.5,22c3.2-3.2,3.2-7.5,2.8-9.1c-5.2-0.6-9.9-4.7-13.1-10.8
					C624.9,374,620.9,373.5,617.5,371.5z"/>
				<path class="st39" d="M662,352.4c0,0.7,0.1,1.4,0.1,2.1c0,2.3-0.2,4.6-0.5,6.7h9.6c0.3-2.2,0.4-4.4,0.4-6.8c0-1-0.1-1.9-0.1-2.9
					C668.4,352.6,665.2,352.8,662,352.4z"/>
			</g>
			<path class="st40" d="M622.6,329.2c3.8-5.7,11.9-13.3,20.9-13.1c8.9,0.2,18.5,4.7,25.3,24.5c-3.8-8.1-10.7-24-29.1-21.8
				C633.8,319.8,626.5,324.3,622.6,329.2z"/>
		</g>
		<g>
			<path class="st37" d="M717.2,386.1c0,5.8-4.7,10.5-10.5,10.5s-10.5-4.7-10.5-10.5s4.7-10.5,10.5-10.5S717.2,380.3,717.2,386.1z"
				/>
			<path class="st38" d="M736.8,361.1c0.3-2.2,0.5-4.4,0.5-6.7c0-16.2-8.7-30-18.9-30s-18.9,13.7-18.9,30c0,15.5,7.9,28.8,17.6,29.9
				c0.4,1.7,0.3,5.9-2.8,9.1c-13.9-2.7-24.2-18.9-24.2-39c0-22.1,12.5-39.4,28.4-39.4s28.4,17.3,28.4,39.4c0,2.3-0.1,4.6-0.4,6.8
				L736.8,361.1z"/>
			<g>
				<path class="st39" d="M692.8,371.5c3.9,11.7,11.9,20.1,21.5,22c3.2-3.2,3.2-7.5,2.8-9.1c-5.2-0.6-9.9-4.7-13.1-10.8
					C700.2,374,696.2,373.5,692.8,371.5z"/>
				<path class="st39" d="M737.3,352.4c0,0.7,0.1,1.4,0.1,2.1c0,2.3-0.2,4.6-0.5,6.7h9.6c0.3-2.2,0.4-4.4,0.4-6.8
					c0-1-0.1-1.9-0.1-2.9C743.7,352.6,740.5,352.8,737.3,352.4z"/>
			</g>
			<path class="st40" d="M697.9,329.2c3.8-5.7,11.9-13.3,20.9-13.1c8.9,0.2,18.5,4.7,25.3,24.5c-3.8-8.1-10.7-24-29.1-21.8
				C709.1,319.8,701.8,324.3,697.9,329.2z"/>
		</g>
		<polygon class="st41" points="782,766.4 312.1,766.4 299.8,754.1 769.7,754.1 		"/>
		<g>
			<path class="st42" d="M599.5,673.5c1.8,1.9-6.5,10.7-10.7,12.8s-8.6,2-9.7-0.4c-1.2-2.3,1.3-5.9,5.5-8S597.7,671.6,599.5,673.5z"
				/>
			<g>
				<path class="st43" d="M595.1,669.1l4.8,3.9c0,0-0.2,0.9-0.5,1.2c-1.5-0.7-5.6-3.1-5.6-3.1L595.1,669.1z"/>
				<path class="st44" d="M595.1,669.1l-1.3,2.1c0,0,0.9,0.5,2,1.2c0.4-0.6,0.7-1.3,0.8-2L595.1,669.1z"/>
				<path class="st45" d="M596.3,665.6c0,6.3-5.1,11.4-11.4,11.4c-6.3,0-11.4-5.1-11.4-11.4s5.1-11.4,11.4-11.4
					C591.2,654.1,596.3,659.3,596.3,665.6z"/>
				<path class="st46" d="M586.9,673.7c-5.7,0-10.3-4.6-10.3-10.3c0-3.8,2-7,5.1-8.8c-4.7,1.4-8.2,5.8-8.2,11
					c0,6.3,5.1,11.4,11.4,11.4c5.4,0,10-3.8,11.1-8.9C594.3,671.4,590.9,673.7,586.9,673.7z"/>
				<circle class="st47" cx="587.1" cy="662" r="5"/>
			</g>
		</g>
		<path class="st48" d="M470,573.2c-3.9,3.2-5.3,8.6-5,13.7c0.2,3.1,0.9,6.3,2.9,8.7c3.2,3.7,9,4.3,13.5,2.4c4.5-2,7.8-6,10-10.4
			c1.7-3.3,2.9-7,3-10.7s-1.1-7.6-3.7-10.3s-6.7-4-10.3-2.9c-3.6,1.1-6.1,4.3-8.3,7.4"/>
		<path class="st48" d="M669.4,561.8c-7.8-1.6-16-2-23.7,0.1s-14.9,6.8-18.8,13.8c-3.9,6.9-4.1,16.1,0.4,22.7
			c1.8,2.6,4.3,4.7,7.3,5.7c2.6,0.9,5.4,0.9,8.1,0.6c10-1,19.7-5.3,27.1-12c3-2.7,5.7-5.9,7.1-9.7c1.4-3.8,1.4-8.2-0.8-11.7
			c-2.4-3.7-6.8-5.7-11.1-6.5c-8.1-1.6-16.8-0.4-24.1,3.5"/>
		<g>
			<path class="st42" d="M484.6,582.8c1.8,1.9-6.5,10.7-10.7,12.8s-8.6,2-9.7-0.4c-1.2-2.3,1.3-5.9,5.5-8S482.8,580.8,484.6,582.8z"
				/>
			<g>
				<path class="st43" d="M480.2,578.4l4.8,3.9c0,0-0.2,0.9-0.5,1.2c-1.5-0.7-5.6-3.1-5.6-3.1L480.2,578.4z"/>
				<path class="st44" d="M480.2,578.4l-1.3,2.1c0,0,0.9,0.5,2,1.2c0.4-0.6,0.7-1.3,0.8-2L480.2,578.4z"/>
				<path class="st49" d="M481.4,574.9c0,6.3-5.1,11.4-11.4,11.4s-11.4-5.1-11.4-11.4s5.1-11.4,11.4-11.4
					C476.3,563.4,481.4,568.5,481.4,574.9z"/>
				<path class="st50" d="M472,583c-5.7,0-10.3-4.6-10.3-10.3c0-3.8,2-7,5.1-8.8c-4.7,1.4-8.2,5.8-8.2,11c0,6.3,5.1,11.4,11.4,11.4
					c5.4,0,10-3.8,11.1-8.9C479.4,580.7,476,583,472,583z"/>
				<circle class="st51" cx="472.1" cy="571.3" r="5"/>
			</g>
		</g>
	</g>
</g>
</svg>
