<?xml version="1.0" encoding="utf-8"?>
<!-- Generator: Adobe Illustrator 24.1.3, SVG Export Plug-In . SVG Version: 6.00 Build 0)  -->
<svg version="1.1" id="Capa_1" xmlns="http://www.w3.org/2000/svg" xmlns:xlink="http://www.w3.org/1999/xlink" x="0px" y="0px"
	 viewBox="0 0 512 512" style="enable-background:new 0 0 512 512;" xml:space="preserve">
<style type="text/css">
	.st0{fill:#FFFFFF;}
</style>
<g>
	<g>
		<path class="st0" d="M510.2,221.8L441.7,84.4c-2.9-5.9-8.9-9.6-15.5-9.6H85.7c-6.5,0-12.5,3.7-15.5,9.6L1.8,221.8
			c-1.2,2.4-1.8,5-1.8,7.7V420c0,9.5,7.7,17.3,17.3,17.3h477.5c9.5,0,17.3-7.7,17.3-17.3V229.5C512,226.9,511.4,224.2,510.2,221.8z
			 M96.4,109.3h319.2l51.6,103.6H355.5c-8.2,0-15.2,5.8-16.9,13.8c-0.6,2.9-15.9,71.4-85.5,71.4s-84.9-68.5-85.5-71.3
			c-1.6-8-8.7-13.8-16.9-13.8H44.8L96.4,109.3z M477.5,402.7h-443V247.4h103.1c12.1,35.3,46.6,85.1,115.5,85.1
			c68.9,0,103.4-49.8,115.5-85.1h108.9L477.5,402.7L477.5,402.7z"/>
	</g>
</g>
</svg>
