<?xml version="1.0" encoding="utf-8"?>
<!-- Generator: Adobe Illustrator 24.1.3, SVG Export Plug-In . SVG Version: 6.00 Build 0)  -->
<svg version="1.1" id="Layer_1" xmlns="http://www.w3.org/2000/svg" xmlns:xlink="http://www.w3.org/1999/xlink" x="0px" y="0px"
	 viewBox="0 0 1080 1080" style="enable-background:new 0 0 1080 1080;" xml:space="preserve">
<style type="text/css">
	.st0{fill:#D1EAF4;}
	.st1{fill:#E2F2F7;}
	.st2{fill:#83A8B5;}
	.st3{opacity:0.5;}
	.st4{fill:#2D4750;}
	.st5{fill:#FFF9E4;}
	.st6{fill:#FCF3D5;}
	.st7{fill:#8954A2;}
	.st8{fill:#F2E8CA;}
	.st9{fill:#E2D8BB;}
	.st10{fill:#FCB855;}
	.st11{fill:#D34B6F;}
	.st12{fill:#7FC99C;}
	.st13{opacity:0.4;fill:#644F44;enable-background:new    ;}
	.st14{fill:#5DA8D0;}
	.st15{fill:#644F44;}
	.st16{opacity:0.2;fill:#644F44;enable-background:new    ;}
	.st17{fill:#FEDFBF;}
	.st18{fill:#EEB991;}
	.st19{fill:#2F383C;}
	.st20{opacity:0.2;}
	.st21{fill:none;stroke:#2F383C;stroke-miterlimit:10;}
	.st22{fill:#14191B;}
</style>
<g id="awarnessand_policy2">
	<g>
		<rect x="-41" y="-40.7" class="st0" width="1150.3" height="1150.3"/>
		<g>
			<g>
				<path class="st1" d="M678.1,473.4c-25.1-42.1-148.6-232.7-346-126.9C166.9,435.1,170,694.6,281.9,806.3
					c143.7,143.4,595.3,105.6,595.3-118.4C877.3,545.3,727.3,555.8,678.1,473.4z"/>
				<g>
					<path class="st1" d="M682.4,528.8c1.4,1.1,4.4,3.7,9,7.1c1.2,0.9,2.4,1.8,3.8,2.8c1.4,0.9,2.8,1.9,4.3,3c1.5,1,3.2,2.2,4.9,3.3
						s3.6,2.2,5.5,3.5c7.6,4.8,16.7,10,26.8,15.3c10.1,5.4,21.2,11.1,32.6,17.4c2.9,1.6,5.7,3.2,8.6,4.9c2.9,1.7,5.7,3.4,8.6,5.1
						c5.6,3.6,11.4,7.3,16.6,11.4c10.8,8.2,20.1,17.7,27.1,29c0.8,1.5,1.6,2.9,2.5,4.4l0.6,1.1l0.5,1.2l1.1,2.4
						c1.6,3,2.5,6.5,3.8,9.9c0.5,1.7,0.9,3.6,1.4,5.4c0.2,0.9,0.5,1.8,0.7,2.7s0.3,1.9,0.5,2.9c0.4,1.9,0.7,3.8,1.1,5.8
						c0.2,2,0.4,4.1,0.6,6.1c0.6,4,0.5,8.4,0.7,12.8l0.1,1.6l-0.1,1.6c0,1.1-0.1,2.1-0.1,3.2c0,1.1-0.1,2.1-0.1,3.2
						c-0.1,1.1-0.2,2.1-0.3,3.2l-0.3,3.2c-0.1,1.1-0.2,2.1-0.4,3.2c-0.3,2.1-0.7,4.2-1,6.3c-0.5,2.1-1,4.2-1.5,6.3s-1.2,4.1-1.8,6.2
						c-5.3,16.6-14.6,32.7-28.1,47.3s-30.8,27.6-50.6,38.6c-19.8,11.1-42.1,20-65.7,27.2c-23.7,7.1-48.7,12.3-74.5,15.7
						c-25.8,3.3-52.4,4.9-79.2,4.5s-53.8-2.7-80.5-7.3c-26.6-4.6-52.9-11.3-77.6-20.9c-24.6-9.6-47.8-22-66.5-37.8
						c-2.3-2-4.7-3.9-6.8-6l-3.3-3.1l-3.1-3.4l-3.2-3.4c-1-1.1-2.2-2.2-3.1-3.5l-5.9-7.3c-0.5-0.6-1-1.2-1.5-1.8l-1.4-1.9l-2.7-3.9
						l-2.7-3.8c-0.9-1.3-1.7-2.7-2.6-4l-5-8.1l-4.6-8.4c-0.8-1.4-1.6-2.8-2.3-4.2l-2.1-4.4c-1.4-2.9-2.8-5.8-4.1-8.7l-3.7-9
						c-0.6-1.5-1.3-3-1.8-4.5l-1.6-4.6c-1.1-3.1-2.2-6.1-3.2-9.2c-0.9-3.1-1.8-6.2-2.8-9.3c-0.4-1.6-1-3.1-1.3-4.7l-1.2-4.7
						c-0.8-3.2-1.6-6.3-2.3-9.5c-5.3-25.4-7.9-51.4-7.3-76.8c0.7-25.4,4.2-50.4,10.8-73.9c6.7-23.4,16.2-45.2,28.2-64.5
						c12.1-19.2,27-35.6,43.5-48.9l3.1-2.5c1-0.9,2-1.7,3.1-2.4c2.2-1.5,4.3-3,6.5-4.5c4.2-3.2,8.8-5.5,13.2-8.2l3.3-2
						c1.2-0.6,2.4-1.2,3.6-1.8c2.4-1.2,4.8-2.4,7.2-3.6l3.6-1.8c1.2-0.6,2.4-1.2,3.6-1.7c2.4-1,4.8-2,7.2-3
						c19.1-7.9,38.1-12.8,56.2-14.7c18.2-2,35.6-0.9,51.7,2.4c16.2,3.3,31.1,8.9,44.6,15.6c13.5,6.8,25.7,14.7,36.4,22.9
						c10.8,8.1,20.1,16.7,28.3,24.7c4.1,4,7.8,8,11.3,11.7c3.4,3.9,6.7,7.4,9.5,10.9c5.9,6.8,10.5,13,14.3,18
						c3.7,5,6.5,8.9,8.3,11.6c1.9,2.6,2.8,4,2.8,4c-15.2-18.8-32.1-36.1-50-51c-2.3-1.8-4.4-3.8-6.8-5.5l-6.9-5.2
						c-4.7-3.3-9.3-6.7-14-9.6c-4.7-3.1-9.5-5.8-14.3-8.6l-7.3-3.7c-1.2-0.6-2.4-1.3-3.6-1.8l-3.7-1.6c-12.7-7.5-26-13.4-39.5-17.4
						s-27.3-6.2-41.3-6.6c-14-0.3-28.2,1.5-42.4,4.8l-5.3,1.3l-2.7,0.6c-0.9,0.2-1.8,0.6-2.7,0.8l-10.7,3.5c-1.8,0.5-3.5,1.4-5.3,2
						l-5.3,2.1l-5.3,2.1c-1.8,0.8-3.5,1.7-5.2,2.5l-10.5,5.1c-3.3,1.8-6.3,3.6-9.5,5.4c-3.3,1.7-6.1,3.9-9.1,5.9l-4.5,3
						c-1.5,1-2.8,2.2-4.3,3.3l-4.3,3.4c-1.4,1.1-2.9,2.2-4.2,3.5l-8,7.4c-2.5,2.6-5,5.4-7.5,8l-1.9,2c-0.6,0.7-1.2,1.4-1.7,2.1
						l-3.5,4.3c-9.1,11.6-17.3,24.2-23.9,37.9c-6.6,13.7-12,28.2-16.2,43.2l-2.9,11.4l-2.3,11.6l-0.6,2.9l-0.4,2.9l-0.9,5.9
						l-0.9,5.9l-0.6,5.9l-0.6,5.9l-0.3,3l-0.1,3l-0.6,11.9v12c0,2,0,4,0.1,6l0.3,6c0.9,16,2.7,31.9,6,47.5s7.7,30.9,13.3,45.6
						c5.5,14.7,12.5,28.7,20.5,41.6c8,12.9,17.4,24.7,27.6,34.9c4.9,5,10.6,9.6,16.5,14c3,2.2,6,4.4,9.2,6.4c3.1,2.1,6.4,4.1,9.7,6
						c13.3,7.8,27.9,14.4,43,20.1c30.4,11.3,63.3,18.5,96.6,22.7c33.4,4,67.5,4.9,101.3,2.6c33.8-2.2,67.3-7.6,99.3-16.6
						s62.5-21.7,88.3-39.1c25.8-17.3,46.1-39.4,56.4-64.8l1.9-4.8c0.5-1.6,1-3.3,1.5-4.9l0.8-2.5l0.6-2.5c0.4-1.7,0.8-3.3,1.2-5
						c0.5-3.4,1.3-6.8,1.6-10.3c0.2-1.7,0.4-3.5,0.5-5.2l0.2-5.3c0-0.9,0.1-1.8,0.1-2.7l-0.1-2.8l-0.1-5.5c0-1.9-0.3-3.6-0.4-5.4
						l-0.5-5.3c-0.2-1.7-0.6-3.4-0.9-5.1l-0.4-2.5c-0.1-0.9-0.3-1.7-0.5-2.5c-0.9-3.2-1.5-6.6-2.7-9.6c-0.6-1.5-1-3.1-1.6-4.6
						l-2-4.4c-0.6-1.5-1.4-2.9-2.2-4.3l-1.1-2.1c-0.4-0.7-0.7-1.4-1.2-2.1c-3.3-5.5-7.5-10.6-12.1-15.6c-4.8-4.9-10.2-9.6-16.2-14.2
						c-6.2-4.5-12.7-8.9-19.8-13.1c-14.2-8.5-30-16.6-46.6-25.8c-4.1-2.2-8.4-4.7-12.6-7.1c-4.3-2.6-8.5-5-12.8-7.9
						c-4.3-2.7-8.6-5.8-12.9-8.7C690.9,535.6,686.6,532.5,682.4,528.8z"/>
					<path class="st1" d="M580.2,872.1c-1.8,0.1-8,0.5-18,0.8c-10,0.2-23.9,0.4-40.9-0.4c-17.1-0.8-37.4-2.6-60.1-6.2
						c-22.6-3.8-47.8-9.2-73.7-18.4c-13-4.5-26.1-10-39.1-16.5s-25.6-14.3-37.5-23.5c-6-4.5-11.5-9.6-16.9-14.9
						c-2.6-2.8-5.2-5.6-7.9-8.5c-2.6-2.9-5-6-7.5-9.1c-9.7-12.4-18.4-26.3-25.9-41.1c-29.5-59.5-40.1-134.4-26.8-204
						c6.4-34.8,19.3-68.2,37.8-96.8c2.4-3.5,4.8-7,7.2-10.5c2.6-3.3,5.2-6.6,7.9-9.9c0.7-0.8,1.3-1.7,2-2.4l2.1-2.3l4.2-4.6
						c1.4-1.5,2.8-3.1,4.3-4.6l4.5-4.3c3-2.8,5.9-5.8,9.2-8.3c3.2-2.6,6.3-5.2,9.6-7.7c3.4-2.3,6.7-4.6,10-6.9
						c1.6-1.2,3.4-2.2,5.1-3.2s3.5-2,5.2-3s3.5-2,5.2-3.1c1.8-0.9,3.7-1.8,5.5-2.7c3.7-1.8,7.3-3.6,10.9-5.4c3.7-1.7,7.4-3.1,11-4.7
						c1.8-0.8,3.7-1.5,5.5-2.3s3.7-1.3,5.5-2c3.7-1.2,7.4-2.5,11-3.7c3.7-1.1,7.4-1.9,11.1-2.9c1.8-0.5,3.7-0.9,5.5-1.4
						c1.8-0.3,3.7-0.6,5.5-1c1.8-0.3,3.7-0.6,5.5-1l2.7-0.5l1.4-0.2l1.4-0.1c3.6-0.4,7.2-0.7,10.8-1.1c0.9-0.1,1.8-0.2,2.7-0.3
						l2.7-0.1c1.8,0,3.6-0.1,5.3-0.1c1.8,0,3.5-0.1,5.3-0.1s3.5,0.2,5.2,0.2c3.5,0.2,6.9,0.3,10.3,0.6c13.6,1.4,26.5,4.3,38.7,8.1
						c12.1,4,23.3,9,33.8,14.4c2.6,1.5,5.1,2.9,7.6,4.3c1.2,0.7,2.5,1.4,3.7,2.1c1.2,0.8,2.4,1.5,3.6,2.3c2.4,1.5,4.7,3,7,4.5
						c2.2,1.6,4.4,3.1,6.6,4.7c17.2,12.3,30.8,25.3,41.5,36.4s18.5,20.5,23.6,27.1c2.6,3.2,4.5,5.8,5.8,7.5s2,2.6,2,2.6
						c-21.3-24-45.1-45.5-70.9-62l-3.1-2.5l-3.2-2.3l-6.4-4.6l-6.6-4.3l-3.3-2.1c-1.1-0.7-2.2-1.3-3.4-2l-6.7-3.9
						c-2.3-1.3-4.6-2.4-6.9-3.6c-4.6-2.5-9.3-4.4-14-6.5c-2.3-1.1-4.8-1.8-7.2-2.7c-2.4-0.8-4.8-1.8-7.2-2.6l-7.3-2.1l-3.7-1.1
						c-1.2-0.3-2.5-0.5-3.7-0.8l-7.4-1.6c-1.2-0.3-2.5-0.5-3.7-0.6l-3.8-0.5c-2.5-0.3-5-0.8-7.5-1l-7.6-0.5
						c-20.2-1.1-40.8,1.4-60.8,7l-1.9,0.5l-1.9,0.6l-3.7,1.2l-7.5,2.4c-2.5,0.7-4.9,1.8-7.4,2.8l-7.4,3l-3.7,1.5
						c-1.2,0.5-2.4,1.2-3.6,1.7l-7.2,3.5c-2.4,1.2-4.9,2.3-7.2,3.5l-6.7,3.9c-17.9,10.4-34.2,23.5-48.1,38.9
						c-14,15.4-25.7,33-35.1,52.1c-9.4,19-16.3,39.5-21,60.5c-4.7,21.1-7.1,42.7-7.5,64.5c-0.6,43.5,7,87.5,23.3,127.5
						c8.2,20,18.5,39,31.2,55.9l5,6.2c1.7,2.1,3.2,4.2,5.1,6c3.6,3.8,7,7.9,10.8,11.3c7.5,7.1,15.7,13.7,24.5,19.7
						s18.2,11.3,27.8,16.2c9.7,4.9,19.7,9.3,30,13.1c10.3,3.9,20.8,7.4,31.5,10.3c10.7,3,21.5,5.7,32.4,7.8c5.4,1.2,11,2.1,16.5,3.1
						c5.5,0.8,11,1.8,16.6,2.5c11.1,1.5,22.3,2.6,33.5,3.4c11.2,0.8,22.4,1.2,33.7,1.4C557.8,872.8,569,872.7,580.2,872.1z"/>
					<path class="st1" d="M682,471.1c0.8,1.2,2.5,3.8,5.1,7.6c1.5,1.8,3.1,4,5.1,6.4c1.1,1.2,2.2,2.4,3.4,3.7c1.2,1.3,2.4,2.7,3.9,4
						c1.4,1.3,2.9,2.7,4.4,4.2c1.6,1.4,3.3,2.8,5.1,4.3c1.7,1.5,3.8,2.9,5.7,4.5c1,0.8,2,1.5,3.1,2.3c1.1,0.7,2.2,1.5,3.3,2.3
						c8.9,6.1,19.5,12.4,31.5,18.9c12,6.6,25.5,13.3,39.8,21.4c7.2,4,14.5,8.5,21.9,13.3c7.4,5,14.8,10.4,22,16.8
						c7.1,6.4,14,13.6,20.1,21.8c6,8.3,11.2,17.5,15.3,27.4c3.9,10,6.6,20.7,8.4,31.7c0.4,2.8,0.6,5.5,0.9,8.3
						c0.1,1.4,0.3,2.8,0.4,4.2c0.1,1.4,0.1,2.8,0.2,4.2c0.1,2.8,0.2,5.7,0.3,8.5c0,2.9-0.1,5.7-0.2,8.6c-1,23.1-7.2,47.2-19.5,68.9
						c-12.2,21.8-29.8,41-50.4,56.9c-20.6,16-44.2,28.9-69.2,39.1c-25,10.3-51.6,18.2-78.9,23.8c-13.7,2.8-27.6,5.1-41.6,6.9
						c-14,1.8-28.2,3-42.5,3.8c-28.6,1.6-57.6,0.9-86.7-1.8c-29-2.7-58.1-7.8-86.6-15.7c-28.4-7.9-56.4-18.6-82.1-33.6
						c-12.9-7.5-25.2-16.1-36.4-25.9l-2.1-1.8l-2-1.9l-4.1-3.9c-2.7-2.6-5.1-5.4-7.7-8.1c-1.3-1.4-2.6-2.7-3.8-4.1l-3.5-4.3
						l-3.5-4.3c-1.2-1.5-2.4-2.8-3.4-4.4l-6.4-9.1l-1.6-2.3l-1.5-2.4l-2.9-4.7c-4.1-6.2-7.4-12.8-11-19.2c-1.7-3.3-3.2-6.6-4.8-9.9
						l-2.4-5c-0.8-1.7-1.4-3.4-2.1-5.1c-1.4-3.4-2.8-6.8-4.2-10.1c-1.3-3.4-2.4-6.9-3.7-10.3l-1.8-5.2c-0.6-1.7-1.1-3.5-1.6-5.2
						c-1-3.5-2.1-7-3.1-10.4c-1-3.5-1.8-7-2.6-10.5c-0.9-3.5-1.8-7-2.4-10.6c-0.7-3.5-1.4-7.1-2.1-10.6c-0.7-3.5-1.1-7.1-1.7-10.6
						l-0.8-5.3c-0.3-1.8-0.5-3.5-0.7-5.3c-0.4-3.6-0.7-7.1-1.1-10.6c-0.4-3.5-0.6-7.1-0.7-10.6c-0.2-3.5-0.4-7.1-0.5-10.6
						c0-3.5,0-7.1-0.1-10.6v-5.3c0-1.8,0.1-3.5,0.2-5.3c0.1-3.5,0.3-7,0.4-10.5c0-1.7,0.2-3.5,0.4-5.2l0.5-5.2
						c0.3-3.5,0.6-6.9,1-10.4c0.5-3.4,1-6.9,1.4-10.3c4-27.4,11.6-53.8,22.2-78.2c10.7-24.4,24.5-47,41.4-66
						c16.8-19.1,36.2-35,56.9-47c20.7-11.9,41.9-21.1,63.1-27.4c21.3-6.3,42.6-9.1,62.8-9c20.3,0.1,39.4,3.2,56.7,8.3
						c17.3,5.1,32.8,11.9,46.4,19.4c13.7,7.4,25.3,15.7,35.5,23.5c20.3,15.7,34.3,30.4,43.6,40.4c2.3,2.6,4.3,4.8,6,6.8
						s3.1,3.7,4.3,5c2.3,2.7,3.5,4.1,3.5,4.1c-9.2-9.5-18.8-18.6-28.9-27c-5-4.3-10.2-8.3-15.3-12.3c-5.3-3.8-10.5-7.7-16-11.2
						c-5.4-3.7-11-6.9-16.6-10.2c-5.7-3-11.3-6.2-17.2-8.8l-4.4-2l-2.2-1l-2.2-0.9l-8.9-3.5c-3-1.1-6-2-9-3.1l-4.5-1.5
						c-1.5-0.4-3.1-0.8-4.6-1.2c-16.3-6.1-33.4-10.1-50.7-11.8c-17.3-1.7-34.9-0.7-52.1,2.3l-6.5,1.1c-2.2,0.4-4.3,1-6.4,1.5
						l-6.4,1.6c-2.1,0.6-4.3,0.9-6.4,1.7l-12.6,4.1c-1,0.4-2.1,0.7-3.1,1.1l-3.1,1.2l-6.1,2.5c-8.3,3.1-16.1,7.3-24.1,11.1
						c-2,0.9-3.9,2.1-5.8,3.2l-5.7,3.3c-1.9,1.1-3.9,2.1-5.7,3.4l-5.4,3.7c-7.4,4.7-14.1,10.4-20.9,16l-9.7,9
						c-1.7,1.4-3.1,3.2-4.6,4.7l-4.5,4.8c-11.8,13.1-22,27.6-30.8,43c-8.6,15.5-15.6,31.9-21.1,48.8c-1.3,4.3-2.8,8.5-3.9,12.8
						l-3.3,12.9c-1.8,8.7-3.7,17.4-4.9,26.3c-5.3,35.3-4.6,71.5,1,106.9c3,17.7,7.2,35.1,12.8,52.1l2.2,6.3c0.7,2.1,1.4,4.3,2.3,6.3
						l5,12.5l5.7,12.2c0.9,2.1,2,4,3,6l3.2,5.9c8.6,15.7,18.8,30.5,30.7,43.9c6,6.6,12.1,13.1,19,18.8l2.5,2.2l2.6,2.1
						c1.8,1.4,3.5,2.8,5.3,4.1c3.7,2.6,7.2,5.3,11,7.7c7.4,5,15.3,9.4,23.2,13.7c8,4.1,16.1,8,24.5,11.4c16.6,7,33.8,12.7,51.2,17.2
						c34.9,9.2,70.9,14.4,107.1,16.2s72.5,0.3,108.4-4.6c35.9-4.9,71.4-13.5,105.3-26.5c16.9-6.6,33.4-14.5,49-23.7
						c2-1.1,3.9-2.4,5.8-3.6c1.9-1.2,3.9-2.4,5.7-3.7c3.7-2.6,7.5-5.1,11.1-7.9c7.3-5.4,14.2-11.4,20.8-17.7
						c3.2-3.3,6.5-6.4,9.4-9.9c3.1-3.3,5.9-7,8.8-10.6c1.4-1.8,2.7-3.7,4-5.6c1.3-1.9,2.7-3.7,3.8-5.7l3.6-5.8l3.3-6.1
						c1.1-2,2.1-4.1,3-6.2c0.9-2.1,2-4.1,2.8-6.3l2.5-6.4c0.9-2.1,1.4-4.4,2.1-6.5c1.5-4.4,2.4-8.9,3.5-13.3
						c0.5-2.2,0.8-4.5,1.2-6.8l0.6-3.4c0.2-1.1,0.3-2.3,0.4-3.4l0.7-6.9c0.1-2.3,0.2-4.6,0.3-6.9l0.1-3.4c0-1.1,0-2.3-0.1-3.4
						l-0.2-6.9l-0.1-3.4l-0.3-3.4l-0.7-6.9l-0.2-1.7l-0.3-1.7l-0.6-3.4c-0.4-2.3-0.8-4.5-1.2-6.8l-1.7-6.7l-0.9-3.4
						c-0.3-1.1-0.7-2.2-1.1-3.3l-2.3-6.6c-0.9-2.1-1.9-4.2-2.8-6.4l-1.4-3.2c-0.5-1-1.1-2-1.7-3.1l-3.4-6.1c-2.6-3.8-5-7.9-7.9-11.4
						l-2.1-2.7l-1.1-1.4l-1.2-1.3l-4.6-5.2c-1.6-1.7-3.3-3.3-4.9-4.9l-2.5-2.4l-2.6-2.3c-6.9-6.2-14.4-11.6-22-16.7
						c-15.3-10.2-31.5-18.7-47.4-27.3c-8-4.3-15.9-8.6-23.7-13.1c-7.7-4.6-15.3-9.3-22.5-14.5c-7.2-5.3-14-10.9-20.1-17.1
						C691.9,485.4,686.5,478.5,682,471.1z"/>
					<path class="st1" d="M588.9,912c-1.9,0.2-8.6,0.6-19.3,1s-25.5,0.6-43.8,0c-18.3-0.7-40.1-2.2-64.6-5.9
						c-24.5-3.6-51.8-9.4-80.8-19c-14.4-4.8-29.3-10.6-44.2-17.8c-14.9-7.2-29.9-15.8-44.5-26.4c-1.8-1.3-3.6-2.7-5.4-4.1
						c-1.8-1.4-3.6-2.7-5.4-4.3c-3.5-3-7.1-5.9-10.4-9.2c-1.7-1.6-3.5-3.2-5.1-4.9s-3.2-3.4-4.8-5.1c-1.6-1.7-3.2-3.4-4.8-5.1
						c-1.6-1.7-3-3.6-4.5-5.4c-1.5-1.8-3-3.6-4.5-5.5l-2.2-2.8c-0.7-0.9-1.4-1.9-2.1-2.9c-2.7-3.8-5.5-7.7-8.2-11.6
						c-2.5-4-5-8-7.5-12.1s-4.6-8.3-6.9-12.5c-8.9-16.9-16.3-34.8-22.3-53.3c-5.9-18.5-10.2-37.6-13.2-57.1
						c-6-38.9-5.7-79.2,0.8-118.6c3.3-19.7,8.5-39.2,15.3-58s15.3-37.2,26-54.1c10.6-17,23-32.8,36.8-46.8
						c13.9-14.1,29.6-26,45.9-36.1c4.1-2.4,8.3-4.8,12.4-7.2c4.2-2.1,8.3-4.1,12.4-6.2c2.1-1,4.1-2,6.2-3c2-1,4.2-1.8,6.3-2.7
						c4.2-1.8,8.4-3.5,12.6-5.2c4.2-1.6,8.6-3,12.9-4.4c2.1-0.7,4.3-1.4,6.4-2.1s4.3-1.2,6.5-1.8c4.3-1.1,8.7-2.2,13-3.3
						c4.4-0.8,8.7-1.6,13.1-2.3c17.4-2.7,34.7-3.8,51.4-2.5c16.6,1.2,32.7,3.9,47.4,8.4c1.9,0.5,3.7,1,5.5,1.6
						c1.8,0.6,3.6,1.3,5.3,1.9c3.5,1.3,7.1,2.4,10.5,3.8s6.7,2.9,10,4.3l2.5,1.1l2.4,1.2c1.6,0.8,3.1,1.6,4.7,2.3
						c6.3,3,12,6.4,17.7,9.7c2.8,1.6,5.5,3.4,8.2,5.1c2.6,1.7,5.3,3.3,7.8,5.1c20,13.9,35.7,28.1,47.8,40.3
						c12.1,12.2,20.8,22.5,26.6,29.5c2.9,3.6,5,6.3,6.5,8.1c1.4,1.9,2.2,2.8,2.2,2.8c-11.7-13.1-24.2-25.6-37.6-37.1
						c-13.3-11.5-27.4-22.1-42.3-31.5c-5-3.5-9.8-7.2-15-10.5c-2.6-1.6-5.1-3.4-7.7-4.9l-8-4.6c-1.3-0.8-2.6-1.6-4-2.3l-4.1-2.1
						l-8.2-4.2l-8.5-3.7l-4.2-1.8c-1.4-0.6-2.9-1.1-4.3-1.6c-23.1-8.7-47.9-13.8-72.9-14.3c-24.9-0.4-49.8,3.5-73.3,10.7l-8.8,2.9
						c-2.9,1-5.9,1.9-8.7,3.1c-5.7,2.3-11.4,4.5-17,7l-16.4,8c-1.4,0.6-2.7,1.4-4.1,2.2l-4,2.3l-8.1,4.7
						c-21.1,13.1-40.3,29.5-56.4,48.4s-29.4,40.1-39.6,62.5c-10.3,22.4-17.7,46-22.6,69.9c-4.8,24-7.1,48.4-7.1,72.8
						c0.1,24.4,2.5,48.7,7.2,72.7c4.8,24,11.9,47.6,21.7,70.2c9.8,22.6,22.4,44.3,38.2,64c2,2.4,3.9,4.9,6,7.3l6.4,7
						c2.2,2.3,4.2,4.7,6.6,6.9c2.3,2.2,4.6,4.5,7,6.6s4.8,4.2,7.3,6.2l7.5,5.9l7.7,5.5c2.6,1.8,5.2,3.5,7.9,5.2
						c10.6,6.7,21.5,12.7,32.7,18.1c11.2,5.3,22.6,9.9,34.1,14.1c23,8.2,46.6,14.4,70.4,18.9c11.9,2.2,23.8,4,35.8,5.5
						c12,1.4,24,2.6,36,3.2c12,0.7,24.1,1.1,36.1,1.1C564.8,913.1,576.9,912.7,588.9,912z"/>
					<path class="st1" d="M749.2,478.6c2.1,1.3,8.8,5.7,22.1,12.8c6.5,3.6,14.9,7.9,24.9,13.3s21.9,11.7,35.4,20.3
						c3.4,2.2,6.8,4.4,10.4,6.9c1.8,1.2,3.6,2.5,5.4,3.8c1.8,1.4,3.7,2.8,5.5,4.2c3.7,2.7,7.5,6.1,11.3,9.3c1.9,1.6,3.8,3.5,5.7,5.3
						c1.9,1.9,3.8,3.6,5.7,5.6c3.7,4.1,7.5,8.1,11.1,12.7c0.9,1.1,1.8,2.3,2.7,3.4c0.9,1.1,1.8,2.3,2.6,3.6c1.7,2.5,3.3,5,5,7.5
						c6.4,10.3,12.2,21.7,16.3,33.8c2.3,6,3.8,12.2,5.4,18.4c0.4,1.6,0.7,3.1,1,4.7c0.3,1.6,0.6,3.1,0.9,4.7
						c0.3,1.6,0.6,3.2,0.8,4.7l0.4,2.4c0.1,0.8,0.2,1.6,0.3,2.4c0.3,3.1,0.7,6.3,1,9.5c0.1,1.6,0.4,3.2,0.4,4.8
						c0.1,1.6,0.1,3.1,0.2,4.7c0.1,3.1,0.2,6.3,0.3,9.5c0,3.2-0.1,6.6-0.2,9.9c-0.1,1.7-0.1,3.3-0.2,5c-0.2,1.7-0.3,3.4-0.5,5.1
						c-0.2,1.7-0.3,3.4-0.5,5.1l-0.3,2.6L922,717c-0.6,3.4-1.1,6.9-1.7,10.3c-0.8,3.4-1.6,6.9-2.4,10.3
						c-3.5,13.8-8.7,27.5-15.3,40.6c-6.7,13.1-14.8,25.6-24.2,37s-19.8,21.9-31,31.4s-23.1,18.1-35.4,25.7
						c-12.4,7.6-25.2,14.4-38.4,20.5c-26.4,12.2-54.1,21.3-82.6,28.3c-14.2,3.5-28.7,6.3-43.3,8.7s-29.4,4.2-44.3,5.5
						c-29.8,2.6-60.2,3.1-90.8,1.3c-30.7-1.7-61.7-5.8-92.7-12.7s-62.1-16.7-92.5-31.1c-15.2-7.2-30.2-15.7-44.6-25.7l-5.4-3.8
						c-1.8-1.3-3.5-2.7-5.3-4l-5.3-4.1l-5.2-4.4c-3.5-2.9-6.8-6.1-10.1-9.2l-2.5-2.4l-2.3-2.4l-4.6-4.9l-4.6-4.9
						c-1.5-1.6-2.8-3.4-4.3-5.1l-8.3-10.3c-5-7.1-10.3-14.1-14.7-21.5l-3.4-5.5c-1.1-1.8-2.3-3.7-3.3-5.5l-6.1-11.2
						c-1.1-1.9-2-3.8-2.9-5.7l-2.7-5.7c-1.8-3.8-3.7-7.6-5.2-11.5l-4.8-11.6c-1.6-3.9-2.8-7.8-4.2-11.7c-2.9-7.8-5.1-15.8-7.4-23.7
						c-4.2-15.9-7.8-31.9-10-48c-2.5-16.1-3.6-32.2-4.2-48.2c0-4-0.1-8-0.1-12v-6l0.2-6c0.2-4,0.3-8,0.5-12c0.3-4,0.7-8,1-11.9
						c0.6-8,1.8-15.9,2.9-23.7c0.5-3.9,1.4-7.8,2.1-11.8c0.8-3.9,1.5-7.8,2.3-11.7c1-3.9,1.9-7.7,2.9-11.6l1.4-5.8l1.7-5.7
						c1.2-3.8,2.3-7.6,3.5-11.4s2.7-7.5,4-11.2c5.3-14.9,12.2-29.3,19.6-43.2c2-3.4,4-6.8,6-10.2c2-3.4,4-6.8,6.3-10
						c4.5-6.5,8.8-13.1,13.8-19.1c19.3-24.7,42.7-46,68.1-62.2c3.2-1.9,6.5-3.8,9.7-5.7c1.6-0.9,3.2-1.9,4.8-2.8
						c1.6-0.9,3.2-1.9,4.8-2.7c6.3-3.1,12.6-6.2,18.9-9.3c6.4-2.8,13-5.4,19.4-8.1c0.8-0.3,1.6-0.7,2.4-1l2.5-0.8
						c1.7-0.6,3.3-1.1,5-1.7c3.3-1.1,6.6-2.2,9.9-3.3c26.6-8.2,54.3-12.4,81.1-12c26.8,0.3,52.5,5.2,75.3,12.9
						c22.9,7.7,43.1,17.9,60.7,29c17.6,11.1,32.6,22.9,45.6,34.5s23.9,23,33.3,33.6c18.8,21.2,31.4,39.2,39.7,51.7
						c4.2,6.2,7.2,11.1,9.2,14.5c2,3.3,3,5,3,5c-16.7-23.8-35.3-45.8-55.8-66c-10.3-10.1-21.1-19.7-32.5-28.7s-23.3-17.5-35.9-25
						c-16.5-11.8-34.4-22.2-53.7-30.3c-19.2-8.2-39.7-14-60.8-17c-21-3-42.5-3.1-63.4-0.4c-20.9,2.8-41.1,8.1-60.4,15.1
						c-9.4,3.9-19.1,7.4-28,12.1l-6.8,3.3c-2.3,1.2-4.5,2.1-6.8,3.5l-13.6,7.9c-17.8,11.2-34.4,24.4-49.1,39.3L240,375.1
						c-3.4,4-6.6,8.1-9.9,12.2l-2.4,3.1c-0.8,1-1.5,2.1-2.3,3.2l-4.5,6.4l-4.4,6.4l-4,6.6c-5.6,8.8-10.2,18-14.8,27.2l-6.2,14.1
						c-1.1,2.3-1.9,4.8-2.8,7.1l-2.7,7.2c-6.9,19.2-12.1,38.9-15.6,58.7c-3.4,19.9-5.2,39.9-5.6,60v15l0.7,15l0.2,3.8l0.3,3.7
						l0.7,7.5l0.7,7.5l1,7.5c1.2,10,3.2,19.8,5.1,29.7l3.5,14.7c0.5,2.5,1.3,4.9,2,7.3l2.1,7.3c5.9,19.4,13.3,38.4,22.5,56.9
						c9.3,18.4,20.6,36.1,34,52.6c1.7,2.1,3.3,4.2,5.1,6.2l5.4,5.9l5.5,5.9c1.9,1.9,3.9,3.8,5.9,5.7l3,2.8l3.1,2.7
						c2.1,1.8,4.1,3.6,6.2,5.3c4.2,3.3,8.4,6.8,12.8,9.8c8.6,6.3,17.6,11.8,26.6,17c4.5,2.4,9.1,5.1,13.7,7.3l6.9,3.4l6.9,3.2
						c18.6,8.4,37.5,15.1,56.5,20.6c19.1,5.5,38.3,9.7,57.6,13c38.6,6.4,77.5,8.9,116.3,7.9s77.6-5.5,116.1-14.2
						c19.2-4.4,38.4-9.8,57.3-16.6c18.9-6.9,37.6-15.1,55.8-25.1c18.2-10.1,35.9-22.1,52.3-36.6c4.1-3.7,8.1-7.4,12-11.4
						c4-3.9,7.7-8.1,11.4-12.4c1.9-2.1,3.6-4.4,5.4-6.6c1.8-2.2,3.5-4.4,5.2-6.8l5-7.1c1.6-2.4,3.1-4.9,4.6-7.4
						c0.8-1.2,1.5-2.5,2.3-3.7l2.1-3.9c1.4-2.6,2.8-5.1,4.1-7.8c2.5-5.3,5-10.6,7-16.2c2.2-5.5,3.8-11.2,5.6-16.8
						c0.8-2.8,1.4-5.7,2.1-8.6l1-4.3c0.3-1.4,0.5-2.9,0.8-4.3l1.4-8.7l0.9-8.7l0.4-4.4l0.2-4.3l0.3-8.7c-0.1-5.6-0.2-11.2-0.5-16.8
						l-0.8-8.6c-0.3-2.9-0.5-5.7-1.1-8.7c-1.1-5.8-1.8-11.6-3.5-17.5c-0.8-2.9-1.5-5.9-2.3-8.8l-3-8.8l-1.6-4.4l-1.9-4.3
						c-1.3-2.9-2.5-5.7-3.9-8.5l-4.5-8.3c-0.8-1.4-1.5-2.8-2.3-4.1l-2.6-3.9c-1.8-2.6-3.4-5.3-5.3-7.7l-5.7-7.3
						c-1.9-2.4-4-4.6-6-6.9l-3.1-3.4c-1-1.1-2.1-2.1-3.2-3.1c-8.4-8.5-17.4-15.6-26.2-22.1l-6.7-4.7l-6.6-4.4
						c-2.2-1.5-4.4-2.8-6.6-4.2c-2.2-1.3-4.4-2.7-6.6-4c-8.7-5.1-17.1-9.7-25.3-14.1c-8.1-4.4-15.9-8.6-23.3-12.7
						c-1.9-1-3.6-2-5.4-3.1c-1.8-1-3.6-2-5.2-3.1l-5-3.1L749.2,478.6z"/>
				</g>
			</g>
		</g>
		<path class="st2" d="M1080,764.9c0,0-505.4-126.7-1080,0V1080h1080V764.9z"/>
	</g>
	<g>
		<g class="st3">
			<path class="st4" d="M381.3,932.9c0,8.9-32,16.2-71.6,16.2s-71.6-7.3-71.6-16.2c0-9,32-16.2,71.6-16.2S381.3,924,381.3,932.9z"/>
			<path class="st4" d="M834.4,857.1c0,8.9-32,16.2-71.6,16.2c-17.7,0-33.8-1.4-46.3-3.9c-47.8,16.3-97.6,32.8-109.1,37.5
				c-22.1,9-252-4.4-279.3-8c-27.3-3.7-35.1-16.5-27.4-33.7c0,0,171.1-66.7,281.6-63.9c110.5,2.7,252,17.7,233.9,27.7
				c-2.9,1.6-13.5,10-22.8,13.4C817.7,845,834.4,850.6,834.4,857.1z"/>
		</g>
		<g>
			<g>
				<path class="st5" d="M587.5,873.6H293.3c0,0-23.2-28.5,0-62.2h294.2C564.3,845.1,587.5,873.6,587.5,873.6z"/>
				<path class="st6" d="M781.7,758.1c-7.1,29.1,0,53.2,0,53.2l-194.2,62.2c0,0-23.2-28.5,0-62.2L781.7,758.1z"/>
				<path class="st7" d="M293.3,811.3c-23.2,33.7,0,62.2,0,62.2h294.2l203.9-65.2v4.7l-203.9,67.5H286.6c-25.5-41.4,0-73.6,0-73.6
					l68.8-15.2l96.8-21.4l77.8-17.2h261.4v5l-46.7,12.2l-81.5,21.3l-0.4,0.1l-75.4,19.7L293.3,811.3L293.3,811.3z"/>
				<polygon class="st8" points="286.6,821.1 472.1,822 286.6,822.9 				"/>
				<polygon class="st8" points="284.4,829 512.6,829.9 284.4,830.8 				"/>
				<polygon class="st8" points="283,841.5 525.5,842.4 283,843.4 				"/>
				<polygon class="st8" points="283.9,850.9 500.2,851.8 283.9,852.7 				"/>
				<polygon class="st8" points="286.1,857.1 512.6,858 286.1,858.9 				"/>
				<polygon class="st8" points="288.3,864.2 460.8,865.2 288.3,866.1 				"/>
				<polygon class="st9" points="780.1,768.4 642.2,806.8 779.6,766.7 				"/>
				<polygon class="st9" points="779.1,777.4 670,806.8 778.6,775.6 				"/>
				<polygon class="st9" points="778.7,786 621.6,827.8 778.3,784.2 				"/>
				<polygon class="st9" points="779.1,794.1 655,827.8 778.6,792.3 				"/>
				<polygon class="st9" points="779.1,802.1 640.4,842.4 778.5,800.3 				"/>
				<polygon class="st9" points="780.9,807.7 670,840.9 780.3,806 				"/>
				<polygon class="st10" points="744.7,770.3 663.2,791.6 662.9,791.7 355.4,791.7 452.2,770.3 				"/>
			</g>
			<g>
				<path class="st5" d="M590.8,794.6H384.1c16.3-16.1,0-29.8,0-29.8h206.7C590.8,764.8,607.1,778.5,590.8,794.6z"/>
				<path class="st11" d="M755.3,754.5l-38.4,10.6l-38.8,10.7l-82.3,22.7H378.4v-3.9h212.4c16.3-16.1,0-29.8,0-29.8H378.4v-3.5
					l68.2-17.4l40.7-10.4l36.4-9.3h231.6C766.3,739.4,755.3,754.5,755.3,754.5z"/>
				<polygon class="st8" points="597,784 419.4,783.1 597,782.1 				"/>
				<polygon class="st8" points="597.8,778.2 437.3,777.2 597.8,776.3 				"/>
				<polygon class="st8" points="595.9,772.3 406.3,771.4 595.9,770.5 				"/>
				<polygon class="st8" points="595.2,789.8 407.2,788.9 595.2,788 				"/>
				<path class="st12" d="M716.9,765.1l-38.8,10.7c6.7-15.3-2.7-31.8-2.7-31.8H446.6l40.7-10.4L712,735
					C721.9,745.9,716.9,765.1,716.9,765.1z"/>
				<path class="st13" d="M595.2,764.8c13.1-3.7,26.2-7.3,39.4-10.8l39.5-10.4l39.6-9.9l19.8-4.8l19.9-4.6l-19.7,5.5l-19.7,5.3
					l-39.5,10.4l-39.6,9.9C621.7,758.6,608.5,761.8,595.2,764.8z"/>
			</g>
			<g>
				<path class="st6" d="M735.1,668.2c-6.2,22.6-0.1,41.4-0.1,41.4l-173,39.6c0,0-19.9-22.2,0.2-48.4L735.1,668.2z"/>
				<path class="st14" d="M562.2,700.8c-20.1,26.2-0.2,48.4-0.2,48.4l181.3-41.9v3.6L562,754.6l-65.7-0.2l-41.7-0.1l-83.3-0.3
					l-41.7-0.1l-26.6-0.1c-21.8-32.3,0.2-57.3,0.2-57.3L463,665.1l22.7-0.1l0,0l35-0.1l0,0l91.3-0.2l34.9-0.1l96.6-0.3v3.9
					L562.2,700.8z"/>
				<polygon class="st9" points="733.5,676.8 614.8,699.5 733.1,675 				"/>
				<polygon class="st9" points="732.6,683.8 638.6,699.6 732.2,682 				"/>
				<polygon class="st9" points="732.3,690.5 597,715.7 731.9,688.7 				"/>
				<polygon class="st9" points="732.5,696.8 625.7,715.8 732.2,695 				"/>
				<polygon class="st9" points="733.3,701.9 613.1,727.2 732.9,700.1 				"/>
				<polygon class="st9" points="734.1,707.4 638.6,726.1 733.7,705.6 				"/>
				<path class="st12" d="M374.6,700.8c0,0-10.1,26.6,0.2,53.2l-41.7-0.1c-9.7-28.9-1.9-54.4-1.9-54.4l154.5-34.4l0,0l35-0.1
					L374.6,700.8z"/>
				<path class="st12" d="M499.4,700.8c0,0-13.7,26.9-3.1,53.6l-41.7-0.1c-9.9-29.1,1.4-54.8,1.4-54.8l156-34.7l34.9-0.1
					L499.4,700.8z"/>
				<path class="st13" d="M562.2,700.8c-21.6,0.3-43.2,0.4-64.8,0.5h-64.8l-64.8-0.4l-32.4-0.4l-32.4-0.6l32.4-0.3l32.4-0.1h64.8
					l64.8,0.4C519,700.1,540.6,700.4,562.2,700.8z"/>
			</g>
			<g>
				<path class="st6" d="M705.5,631.9c-5,18-0.2,33-0.2,33l-136.9,26.6c0,0-15.8-17.7,0.2-38.5L705.5,631.9z"/>
				<path class="st10" d="M568.6,652.9c-16,20.8-0.2,38.5-0.2,38.5L712,663v2.9l-143.6,29.8l-206.1-1c-17.3-25.7,0.2-45.6,0.2-45.6
					l170.6-21.2l179,0.9v3.1L568.6,652.9z"/>
				<polygon class="st9" points="704.7,638.4 608.7,654.4 704.3,636.5 				"/>
				<polygon class="st9" points="703.5,643.8 627.6,655.8 703.2,642 				"/>
				<polygon class="st9" points="702.9,649.1 593.6,666.2 702.6,647.3 				"/>
				<polygon class="st9" points="703.5,654 616.4,668 703.2,652.2 				"/>
				<polygon class="st9" points="703.5,658.9 605.7,676.2 703.1,657.1 				"/>
				<polygon class="st9" points="704.6,662.4 626,676.9 704.2,660.6 				"/>
				<path class="st13" d="M568.6,652.9c-17.2,0.3-34.4,0.4-51.5,0.4h-51.5l-51.5-0.5l-25.8-0.4l-25.8-0.6l25.8-0.3l25.8-0.1h51.5
					l51.5,0.5C534.2,652.2,551.4,652.5,568.6,652.9z"/>
				
					<rect x="409.2" y="634" transform="matrix(5.011082e-03 -1 1 5.011082e-03 -261.7249 1086.4774)" class="st7" width="11.9" height="81.6"/>
				
					<rect x="478.1" y="659.5" transform="matrix(5.008123e-03 -1 1 5.008123e-03 -193.5183 1155.827)" class="st7" width="11.9" height="31.3"/>
			</g>
			<g>
				<path class="st6" d="M671.3,605.6c-5,12-0.2,22.1-0.2,22.1l-136.9,17.8c0,0-15.8-11.9,0.2-25.8L671.3,605.6z"/>
				<path class="st11" d="M534.4,619.7c-16,13.9-0.2,25.8-0.2,25.8l143.6-19v1.9l-143.6,20l-206.1-0.7c-17.3-17.2,0.2-30.5,0.2-30.5
					L498.9,603l179,0.6v2.1L534.4,619.7z"/>
				<polygon class="st9" points="670.4,610.3 574.5,620.7 670.2,608.4 				"/>
				<polygon class="st9" points="669.3,613.9 593.4,621.7 669.1,612.1 				"/>
				<polygon class="st9" points="668.7,617.5 559.4,628.6 668.5,615.7 				"/>
				<polygon class="st9" points="669.2,620.7 582.2,629.8 669,618.9 				"/>
				<polygon class="st9" points="669.2,624 571.5,635.3 669,622.2 				"/>
				<polygon class="st9" points="670.3,626.4 591.8,635.8 670.1,624.6 				"/>
				<path class="st13" d="M534.4,619.7c-17.2,0.3-34.4,0.4-51.5,0.5h-51.5l-51.5-0.4l-25.8-0.3l-25.8-0.5l25.8-0.4l25.8-0.2h51.5
					l51.5,0.4C500,619,517.2,619.3,534.4,619.7z"/>
				<polygon class="st14" points="421.7,638.5 340.1,638.2 340.1,630.2 421.7,630.5 				"/>
				<polygon class="st14" points="465.5,638.6 434.2,638.5 434.2,630.5 465.5,630.6 				"/>
			</g>
			<g>
				<path class="st5" d="M559.2,608.9H379.9c0,0-14.2-26.4,0-57.6h179.2C545,582.5,559.2,608.9,559.2,608.9z"/>
				<path class="st6" d="M679.6,529.3c-4.3,26.9,0,49.3,0,49.3L559.2,609c0,0-14.2-26.4,0-57.6L679.6,529.3z"/>
				<path class="st12" d="M379.9,551.3c-14.2,31.2,0,57.6,0,57.6h179.2l126.3-33.1v4.3l-126.3,35.2H375.8c-15.5-38.3,0-68.2,0-68.2
					l121-22.4h188.7v4.6l-126.3,22L379.9,551.3L379.9,551.3z"/>
				<polygon class="st8" points="375.9,560.3 488.9,561.2 375.9,562.1 				"/>
				<polygon class="st8" points="374.5,567.6 513.5,568.5 374.5,569.4 				"/>
				<polygon class="st8" points="373.7,579.2 521.4,580.1 373.7,581 				"/>
				<polygon class="st8" points="374.2,587.8 506,588.7 374.2,589.7 				"/>
				<polygon class="st8" points="375.6,593.6 513.5,594.5 375.6,595.4 				"/>
				<polygon class="st8" points="376.9,600.2 482,601.1 376.9,602 				"/>
				<polygon class="st9" points="679.3,536.2 592,555.8 678.9,534.4 				"/>
				<polygon class="st9" points="678.7,544.5 605.6,559.1 678.3,542.7 				"/>
				<polygon class="st9" points="678.5,552.5 579.4,575.2 678.1,550.7 				"/>
				<polygon class="st9" points="678.7,560 597.9,577.6 678.3,558.2 				"/>
				<polygon class="st9" points="678.7,567.4 590.8,588.7 678.3,565.6 				"/>
				<polygon class="st9" points="679.8,572.6 607.3,588.7 679.4,570.8 				"/>
				<polygon class="st7" points="572.7,543.6 654.7,529.3 495.6,529.3 414.1,543.6 				"/>
			</g>
			<g>
				<path class="st5" d="M558.5,535.6H418.2c11.1-10.9,0-20.2,0-20.2h140.3C558.5,515.4,569.6,524.7,558.5,535.6z"/>
				<path class="st14" d="M677.9,519.9l-16.2,2.6l-48.3,7.7l-51.4,8.1H414.4v-2.6h144.1c11.1-10.9,0-20.2,0-20.2H414.4v-2.4
					l35.1-5.2l39.2-5.8l18-2.7l171.3-0.1C685.4,509.6,677.9,519.9,677.9,519.9z"/>
				<polygon class="st8" points="562.7,528.7 442.2,527.8 562.7,526.8 				"/>
				<polygon class="st8" points="563.3,524.7 454.4,523.8 563.3,522.9 				"/>
				<polygon class="st8" points="562,520.8 433.3,519.9 562,519 				"/>
				<polygon class="st8" points="561.5,532.6 433.9,531.7 561.5,530.8 				"/>
				<path class="st11" d="M661.7,522.4l-48.3,7.7c4.9-13.7-1.4-22.2-1.4-22.2H449.5l39.2-5.8h169.9
					C658.5,502.1,667,510.5,661.7,522.4z"/>
				<path class="st13" d="M561.5,515.4c9.6-1.6,19.2-3.1,28.8-4.5c9.6-1.4,19.3-2.6,28.9-4c9.7-1.2,19.3-2.4,29-3.6l14.5-1.6
					c4.8-0.5,9.7-1,14.5-1.4c-4.8,0.8-9.6,1.6-14.4,2.3l-14.4,2.1c-9.6,1.4-19.3,2.7-28.9,4c-9.7,1.2-19.3,2.5-29,3.6
					C580.9,513.4,571.2,514.5,561.5,515.4z"/>
			</g>
		</g>
		<g>
			<path class="st15" d="M674.1,636.5c15.8,66.2,31.7,132.4,47.5,198.6c2.2,9.4,4.5,18.7,6.7,28.1c1,4.3,7.7,2.5,6.6-1.8
				c-15.8-66.2-31.7-132.4-47.5-198.6c-2.2-9.4-4.5-18.7-6.7-28.1C679.7,630.4,673.1,632.2,674.1,636.5L674.1,636.5z"/>
			<path class="st15" d="M729.8,619.4c15.8,66.2,31.7,132.4,47.5,198.6c2.2,9.4,4.5,18.7,6.7,28.1c1,4.3,7.7,2.5,6.6-1.8
				C774.8,778,759,711.8,743.1,645.6c-2.2-9.4-4.5-18.7-6.7-28.1C735.4,613.2,728.8,615.1,729.8,619.4L729.8,619.4z"/>
			<path class="st15" d="M680.6,648.7c18.6-5.7,37.1-11.4,55.7-17.1c2.8-0.9,1.6-5.3-1.2-4.4c-18.6,5.7-37.1,11.4-55.7,17.1
				C676.6,645.1,677.8,649.5,680.6,648.7L680.6,648.7z"/>
			<path class="st15" d="M687.6,677.5c18.6-5.7,37.1-11.4,55.7-17.1c2.8-0.9,1.6-5.3-1.2-4.4c-18.6,5.7-37.1,11.4-55.7,17.1
				C683.6,674,684.8,678.4,687.6,677.5L687.6,677.5z"/>
			<path class="st15" d="M694.7,706.4c18.6-5.7,37.1-11.4,55.7-17.1c2.8-0.9,1.6-5.3-1.2-4.4c-18.6,5.7-37.1,11.4-55.7,17.1
				C690.6,702.9,691.8,707.3,694.7,706.4L694.7,706.4z"/>
			<path class="st15" d="M701.7,735.3c18.6-5.7,37.1-11.4,55.7-17.1c2.8-0.9,1.6-5.3-1.2-4.4c-18.6,5.7-37.1,11.4-55.7,17.1
				C697.7,731.7,698.9,736.2,701.7,735.3L701.7,735.3z"/>
			<path class="st15" d="M708.7,764.2c18.6-5.7,37.1-11.4,55.7-17.1c2.8-0.9,1.6-5.3-1.2-4.4c-18.6,5.7-37.1,11.4-55.7,17.1
				C704.7,760.6,705.9,765,708.7,764.2L708.7,764.2z"/>
			<path class="st15" d="M715.8,793.1c18.6-5.7,37.1-11.4,55.7-17.1c2.8-0.9,1.6-5.3-1.2-4.4c-18.6,5.7-37.1,11.4-55.7,17.1
				C711.7,789.5,712.9,793.9,715.8,793.1L715.8,793.1z"/>
			<path class="st15" d="M722.8,821.9c18.6-5.7,37.1-11.4,55.7-17.1c2.8-0.9,1.6-5.3-1.2-4.4c-18.6,5.7-37.1,11.4-55.7,17.1
				C718.8,818.4,720,822.8,722.8,821.9L722.8,821.9z"/>
			<path class="st15" d="M729.8,850.8c18.6-5.7,37.1-11.4,55.7-17.1c2.8-0.9,1.6-5.3-1.2-4.4c-18.6,5.7-37.1,11.4-55.7,17.1
				C725.8,847.3,727,851.7,729.8,850.8L729.8,850.8z"/>
		</g>
		<g>
			<path class="st15" d="M374.4,628.2c-9.9,90.8-19.9,181.7-29.8,272.5c-1.4,12.7-2.8,25.4-4.2,38.1c-0.5,4.4,6.4,4.4,6.9,0
				c9.9-90.8,19.9-181.7,29.8-272.5c1.4-12.7,2.8-25.4,4.2-38.1C381.7,623.8,374.9,623.9,374.4,628.2L374.4,628.2z"/>
			<path class="st15" d="M310.4,622.9c-9.9,90.8-19.9,181.7-29.8,272.5c-1.4,12.7-2.8,25.4-4.2,38.1c-0.5,4.4,6.4,4.4,6.9,0
				c9.9-90.8,19.9-181.7,29.8-272.5c1.4-12.7,2.8-25.4,4.2-38.1C317.7,618.5,310.9,618.6,310.4,622.9L310.4,622.9z"/>
			<path class="st15" d="M370.5,685.8c-21.3-1.7-42.7-3.5-64-5.2c-2.9-0.2-2.9,4.3,0,4.6c21.3,1.7,42.7,3.5,64,5.2
				C373.4,690.6,373.4,686,370.5,685.8L370.5,685.8z"/>
			<path class="st15" d="M375.3,651.6c-21.3-1.7-42.7-3.5-64-5.2c-2.9-0.2-2.9,4.3,0,4.6c21.3,1.7,42.7,3.5,64,5.2
				C378.2,656.4,378.2,651.8,375.3,651.6L375.3,651.6z"/>
			<path class="st15" d="M368.8,718.1c-21.3-1.7-42.7-3.5-64-5.2c-2.9-0.2-2.9,4.3,0,4.6c21.3,1.7,42.7,3.5,64,5.2
				C371.7,722.9,371.7,718.3,368.8,718.1L368.8,718.1z"/>
			<path class="st15" d="M364,750.4c-21.3-1.7-42.7-3.5-64-5.2c-2.9-0.2-2.9,4.3,0,4.6c21.3,1.7,42.7,3.5,64,5.2
				C366.9,755.2,366.9,750.7,364,750.4L364,750.4z"/>
			<path class="st15" d="M361.1,782.8c-21.3-1.7-42.7-3.5-64-5.2c-2.9-0.2-2.9,4.3,0,4.6c21.3,1.7,42.7,3.5,64,5.2
				C364,787.6,364,783,361.1,782.8L361.1,782.8z"/>
			<path class="st15" d="M357.1,815.1c-21.3-1.7-42.7-3.5-64-5.2c-2.9-0.2-2.9,4.3,0,4.6c21.3,1.7,42.7,3.5,64,5.2
				C360.1,820,360.1,815.4,357.1,815.1L357.1,815.1z"/>
			<path class="st15" d="M353.2,847.5c-21.3-1.7-42.7-3.5-64-5.2c-2.9-0.2-2.9,4.3,0,4.6c21.3,1.7,42.7,3.5,64,5.2
				C356.1,852.3,356.1,847.7,353.2,847.5L353.2,847.5z"/>
			<path class="st15" d="M349.5,879.8c-21.3-1.7-42.7-3.5-64-5.2c-2.9-0.2-2.9,4.3,0,4.6c21.3,1.7,42.7,3.5,64,5.2
				C352.4,884.6,352.4,880,349.5,879.8L349.5,879.8z"/>
			<path class="st15" d="M346.6,912.1c-21.3-1.7-42.7-3.5-64-5.2c-2.9-0.2-2.9,4.3,0,4.6c21.3,1.7,42.7,3.5,64,5.2
				C349.5,917,349.5,912.4,346.6,912.1L346.6,912.1z"/>
		</g>
		<g>
			<path class="st9" d="M772.6,781.2l6.8,0.8c0,0,3,4.8,2.1,6.3s-5.1,13-6.7,12.9c-1.7-0.1,0.6-15.6,0.6-15.6L772.6,781.2z"/>
			<path class="st9" d="M725.3,753c0,0,1.2,2.7,0.8,3.5c-0.5,0.8-19,5.5-19.7,4.6s10.8-8.2,10.8-8.2L725.3,753z"/>
			<g>
				<path class="st7" d="M757.6,642.4c11.1,2.5-6.5,33.1-20.9,35.6c-14.5,2.5-32.5-0.7-33.1-1.8c-1.2-2,0.4-9.1,2.7-9.1
					c3.3-0.1,17.6,1.4,24.2-0.5C742.4,663.1,746.6,639.9,757.6,642.4z"/>
				<path class="st16" d="M757.6,642.4c11.1,2.5-6.5,33.1-20.9,35.6c-14.5,2.5-32.5-0.7-33.1-1.8c-1.2-2,0.4-9.1,2.7-9.1
					c3.3-0.1,17.6,1.4,24.2-0.5C742.4,663.1,746.6,639.9,757.6,642.4z"/>
			</g>
			<g>
				<path class="st14" d="M757.1,705.7c0,0,2.4,33.6,3.4,40.7c1,7.1,10.4,36.2,11.9,37.6c1.5,1.4,7.3,1.4,9.2,0.3
					c1.9-1-5.5-34.4-4.7-40.7c0.8-6.4,1.8-44,1.8-44L757.1,705.7z"/>
				<path class="st16" d="M757.1,705.7c0,0,2.4,33.6,3.4,40.7c1,7.1,10.4,36.2,11.9,37.6c1.5,1.4,7.3,1.4,9.2,0.3
					c1.9-1-5.5-34.4-4.7-40.7c0.8-6.4,1.8-44,1.8-44L757.1,705.7z"/>
			</g>
			<path class="st14" d="M780.9,689.4c0,0,5.8,17-3.5,22.1s-42.7,6.1-49.4,12.9c-6.7,6.8-1.2,26.6-2.3,28.7
				c-1.1,2.1-10,2.6-11.2,1.9c-1.2-0.7-8.7-32.7-2.6-41.5c6.1-8.8,41.7-21.3,41.7-21.3L780.9,689.4z"/>
			<g>
				<path class="st17" d="M745.5,625.3c0.1,0.3,0.2,0.6,0.3,1c0.1,0.2,0.1,0.5,0.2,0.7c0.6,1.9,1.5,5.2,2,7.7
					c0.3,1.5,0.5,2.7,0.5,3.2c0,0.1-0.1,0.1-0.1,0.2c-0.6,1.1-1.5,3.1-1.5,3.1s3.4,1.9,6.2,1.3c2.8-0.6,5-3.9,5-3.9
					s-1.7-1.4-2.7-2.1c-0.1-0.1-0.1-0.2-0.2-0.3c-0.3-0.6-0.6-1.7-0.9-3c-0.9-3.8-1.8-9.4-1.8-9.4L745.5,625.3z"/>
				<path class="st18" d="M745.5,625.3c0.1,0.3,0.2,0.6,0.3,1c0.1,0.2,0.1,0.5,0.2,0.7c0.6,1.9,1.5,5.2,2,7.7
					c2.8,0.5,4.9-0.5,6.3-1.6c-0.9-3.8-1.8-9.4-1.8-9.4L745.5,625.3z"/>
			</g>
			<path class="st17" d="M729.3,606.1c-1.2,12.8,2.8,23.5,14.4,25c11.6,1.5,20.4-7.9,22.5-20.5c2.1-12.7-2.9-24.7-16.4-27.1
				C736.1,582.4,730.4,593.3,729.3,606.1z"/>
			<path class="st7" d="M782.3,690.8c-7.1,9.4-33.8,10.1-38.1,4.8c-0.7-0.8-1.2-7.4-1.3-15.6c0-2.9,0-6.1,0.1-9.3
				c0.1-5.5,0.3-11,0.8-15.9c0.7-7.8,1.9-13.6,3.7-14c5.4-1.2,8.5-4.7,8.5-4.7c5.7-1,13.9,13.4,19.7,27.7c1.2,3,2.3,6,3.3,8.8
				C782,681.6,783.6,689.1,782.3,690.8z"/>
			<path class="st7" d="M758.4,641.5c7.8,9.4-24.9,35.8-38.7,28.4c-13.8-7.4-27-21.8-26.8-23.2c0.3-2.5,6.3-7.4,8.3-5.9
				c2.8,2.1,13.9,12.7,20.8,15.4C734.3,661.1,750.7,632.3,758.4,641.5z"/>
			<path class="st17" d="M689.2,641.2l1.9-0.7c0,0-0.6,3.6,4.1,6c0,0,4.5-1.3,5.3-3.9c0,0-1-6.1-5.6-5.6
				C690.2,637.5,689.2,641.2,689.2,641.2z"/>
			<path class="st17" d="M696.7,670l2.1-0.4c0,0,2.8,6,6.3,4.9c0,0,3.7-3.2,2.3-6.2c0,0-1.6-4.2-6.8-2.2
				C696.2,667.7,696.7,670,696.7,670z"/>
			<path class="st17" d="M702.1,670.4c0,0-4.8,2.9-4.4,4c0.4,1.1,6.2-1.4,7.6-2.5C706.8,670.7,702.1,670.4,702.1,670.4z"/>
			<path class="st15" d="M763.4,618.1c-4.3,3.4-3.1-19.2-3.1-19.2s-1.1,6.9-7.8,3.2s-7.4-7.6-7.4-7.6s-0.6,6.4-5.1,4.2
				c-5-2.4-5.3-6.4-5.3-6.4s-4,5.3-6.5,3.9c-2.5-1.4,2.5-8.6,9.1-10.5c0,0-6.6,1-5.6-1.4s12.4-3.9,20.2-0.3c0,0-1.7-5,3.4-3.6
				c5.1,1.4,9,4.9,10,13C765.3,593.3,782.1,603.4,763.4,618.1z"/>
			<g>
				<path class="st17" d="M763.1,613.9c0,0,4-3.7,6.8-1c2.4,2.2-1.1,11.4-8.9,9.4L763.1,613.9z"/>
				<path class="st18" d="M769.5,614.8c-1.5,0.3-2.7,0.9-3.9,1.7c-1.1,0.8-2.1,1.9-3.2,3c0.1-0.4,0.2-0.8,0.3-1.1
					c0.2-0.3,0.3-0.7,0.5-1c0.4-0.7,1-1.3,1.6-1.8c0.7-0.5,1.4-0.8,2.2-1C767.9,614.4,768.8,614.5,769.5,614.8z"/>
			</g>
			<path class="st10" d="M779,672.6c-10.6,6.5-24.1,9.9-36.1,7.4c0-2.9,0-6.1,0.1-9.3c10.5,3.2,23.3-0.6,32.7-6.9
				C776.9,666.8,778,669.8,779,672.6z"/>
		</g>
		<g>
			<path class="st10" d="M327.5,570c-10.3-3.4-32.4,3.8-35.3,21.6c-2.5,15.2,1.8,20.2,0,24.6c-1.8,4.5-13.5,14-15.1,26.2
				c-1.8,13.8,8.8,27.2,34.2,23.2c25.4-4,16-35.2,18.5-40C332.3,620.9,358.9,580.3,327.5,570z"/>
			<g>
				<g>
					<path class="st12" d="M306.5,629.7c-6.6,9.3,27.1,20.1,39.5,12.2c12.3-7.9,23.5-22.4,23.2-23.7c-0.5-2.3-6.4-6.5-8.2-4.9
						c-2.5,2.2-12,12.9-18.2,16C331.6,634.7,313,620.5,306.5,629.7z"/>
					<path class="st16" d="M306.5,629.7c-6.6,9.3,27.1,20.1,39.5,12.2c12.3-7.9,23.5-22.4,23.2-23.7c-0.5-2.3-6.4-6.5-8.2-4.9
						c-2.5,2.2-12,12.9-18.2,16C331.6,634.7,313,620.5,306.5,629.7z"/>
				</g>
				<path class="st17" d="M373.7,611.6c1.6,1.6-4.2,6.7-7,7.2c0,0-4.4-0.5-5.3-3.7C361.3,615,370.9,608.9,373.7,611.6z"/>
				<path class="st17" d="M367.1,617.5c0.6-1.7,6.7-1.5,6.7-0.5C373.8,617.8,366.5,619.3,367.1,617.5z"/>
			</g>
			<path class="st17" d="M316,786.4c-1.4,1-10.7-6.8-12.4-7.7c-1-0.6-1.3-3.2-1.4-4.9c0-0.9,0-1.6,0-1.6l5.4-4.1l-0.1,5.2
				c0,0,4.3,5.3,6.8,9.2C315.6,784.5,316.5,786.1,316,786.4z"/>
			<path class="st11" d="M316,786.4c-1.4,1-10.7-6.8-12.4-7.7c-1-0.6-1.3-3.2-1.4-4.9c0,0,10.7,10,11.9,9.1c0.1-0.1,0.2-0.2,0.2-0.4
				C315.6,784.5,316.5,786.1,316,786.4z"/>
			<path class="st17" d="M359.4,750.3c-0.7,0.8-19.1-4.4-19.5-5.2c-0.3-0.5,0.1-1.8,0.5-2.7l0,0c0.2-0.5,0.3-0.8,0.3-0.8l8.1,0.3
				c0,0,3.7,2.5,6.7,4.8l0,0C357.9,748.4,359.7,750,359.4,750.3z"/>
			<path class="st11" d="M359.4,750.3c-0.7,0.8-19.1-4.4-19.5-5.2c-0.3-0.5,0.1-1.8,0.5-2.7l0,0c0,0,13.4,5.7,15.3,5.8
				s-0.1-1.5-0.1-1.5l0,0C357.9,748.4,359.7,750,359.4,750.3z"/>
			<g>
				<path class="st19" d="M312.2,695.3c0,0,3.1,33.6,3.3,40.7c0.1,7.1-4.4,37.4-5.6,39s-7,2.5-9,1.8s-0.1-34.8-2-41
					c-1.9-6.1-9-43.1-9-43.1L312.2,695.3z"/>
			</g>
			<g class="st20">
				<path class="st15" d="M312.2,695.3c0,0,3.1,33.6,3.3,40.7c0.1,7.1-4.4,37.4-5.6,39s-7,2.5-9,1.8s-0.1-34.8-2-41
					c-1.9-6.1-9-43.1-9-43.1L312.2,695.3z"/>
			</g>
			<path class="st19" d="M287.1,676.3c0,0-5.4,15.5,2.9,22.2c11.4,9.3,42.5,7.4,49,14.4c6.4,7,0.4,26.7,1.4,28.8s9.9,2.9,11.2,2.3
				c1.2-0.6,9.7-32.4,3.8-41.4s-41-22.6-41-22.6L287.1,676.3z"/>
			<g>
				<path class="st17" d="M324.4,613.3c-0.1,0.3-0.2,0.6-0.3,1c-0.1,0.2-0.1,0.5-0.2,0.7c-0.6,1.9-1.7,5.1-2.3,7.6
					c-0.4,1.5-0.6,2.7-0.6,3.2c0,0.1,0,0.1,0.1,0.2c0.5,1.1,1.4,3.1,1.4,3.1s-3.5,1.8-6.2,1.1c-2.8-0.7-4.9-4-4.9-4s1.8-1.3,2.8-2
					c0.1,0,0.1-0.1,0.2-0.3c0.3-0.5,0.6-1.7,1-3c1-3.7,2.1-9.4,2.1-9.4L324.4,613.3z"/>
				<path class="st18" d="M324.4,613.3c-0.1,0.3-0.2,0.6-0.3,1c-0.1,0.2-0.1,0.5-0.2,0.7c-0.6,1.9-1.7,5.1-2.3,7.6
					c-2.8,0.4-4.9-0.6-6.2-1.7c1-3.7,2.1-9.4,2.1-9.4L324.4,613.3z"/>
			</g>
			<path class="st17" d="M341.2,594.6c0.8,12.8-3.5,23.4-15.1,24.6c-11.6,1.1-20.2-8.5-21.9-21.2c-1.7-12.7,3.6-24.6,17.2-26.6
				C335.1,570.7,340.4,581.8,341.2,594.6z"/>
			<path class="st12" d="M285.6,677.7c6.8,9.6,33.4,11.1,38,6c0.7-0.8,1.4-7.3,1.7-15.6c0.1-2.9,0.2-6.1,0.2-9.3
				c0.1-5.5,0-11-0.3-15.9c-0.5-7.8-1.5-13.7-3.3-14.1c-5.3-1.4-8.4-4.9-8.4-4.9c-5.7-1.2-14.3,13-20.6,27.1c-1.3,3-2.5,5.9-3.5,8.7
				C286.2,668.5,284.4,675.9,285.6,677.7z"/>
			<path class="st12" d="M309.1,630.2c-8.1,9.1,17.2,32.7,32.3,28.5c16.4-4.5,32.2-10.6,32.1-12c-0.3-2.5-0.7-11-3.2-10.8
				c-7.2,0.7-23.8,6.5-30.7,9C327,649.4,317,621.2,309.1,630.2z"/>
			<path class="st17" d="M369.4,638.5c0,0-1.3,3.7,2,7.3c0,0,5.8,0.5,8-1.6c3.2-3,0.9-7.9,0.9-7.9s-4.6,3.8-7-1.2
				C373.4,635,370.8,636.1,369.4,638.5z"/>
			<path class="st10" d="M309.1,607c2.3,1.8,0-10.8,0-10.8s15.6-8.4,18.9-19.6c0,0,9.3,10.8,12.4,10.1c3.1-0.8-7-20.5-22.5-15.4
				C302.3,576.5,296.5,597.2,309.1,607z"/>
			<g>
				<path class="st17" d="M307.2,601.4c0,0-3.9-3.8-6.8-1.2c-2.4,2.2,0.7,11.4,8.7,9.6L307.2,601.4z"/>
				<path class="st18" d="M300.8,602.1c1.5,0.3,2.7,1,3.8,1.8c1.1,0.9,2,1.9,3.1,3.1c-0.1-0.4-0.2-0.8-0.3-1.1
					c-0.2-0.4-0.3-0.7-0.5-1.1c-0.4-0.7-0.9-1.3-1.6-1.8c-0.6-0.5-1.4-0.9-2.2-1C302.3,601.8,301.5,601.8,300.8,602.1z"/>
			</g>
			<g>
				<g>
					<path class="st21" d="M349.4,515.4"/>
				</g>
			</g>
			<g>
				<g>
					<path class="st21" d="M349.4,515.4"/>
				</g>
			</g>
		</g>
		<g>
			<path class="st14" d="M400.4,540.4c0,0-5.7,19.3,22.7,19.3c28.3,0,25.6-19.3,25.6-19.3S411.8,532.6,400.4,540.4z"/>
			<path class="st16" d="M400.4,540.4c0,0-5.7,19.3,22.7,19.3c28.3,0,25.6-19.3,25.6-19.3S411.8,532.6,400.4,540.4z"/>
			<path class="st19" d="M437.2,423c0,0-17.6-9.6-31.6,4.2c-12.5,12.3-9.7,51.3-4.1,55.7c5.7,4.4,35.5,6.9,44.9-0.9
				C454.8,475,452.3,421.9,437.2,423z"/>
			<path class="st11" d="M451.2,541.2c0.4,4.9-19.4,7.2-26.6,7.2c-7.3,0-27-2.2-26.6-7.2c2.3-27.8,9.1-51.6,16.4-60.9
				c3.3-4.2,8.2-4.8,10.2-4.9l0,0l0,0c2,0,6.9,0.7,10.2,4.9C442.1,489.6,448.9,513.4,451.2,541.2z"/>
			<g>
				<g>
					<path class="st10" d="M418.2,614.3c-0.4,0.3-3.8,2.9-7.4,5.3c-3.9,2.7-8.1,5.3-8.7,4.6c-0.5-0.5,0.9-3.1,2.7-5.9
						c2.4-3.8,5.4-7.9,5.4-7.9l6.5-2.1C416.7,608.4,419,613.7,418.2,614.3z"/>
					<path class="st5" d="M410.8,619.7c-3.9,2.7-8.1,5.3-8.7,4.6c-0.5-0.5,0.9-3.1,2.7-5.9C406.8,618,409,618,410.8,619.7z"/>
					<path class="st5" d="M409.1,616.1c-1.3-0.7-2.7-0.7-3.9-0.1c-0.9,0.4-0.1,1.7,0.7,1.3c0.8-0.4,1.7-0.4,2.4,0.1
						C409.2,617.9,410,616.6,409.1,616.1z"/>
					<path class="st5" d="M410.1,614c-1.3-0.7-2.7-0.7-3.9-0.1c-0.9,0.4-0.1,1.7,0.7,1.3c0.8-0.4,1.7-0.4,2.4,0.1
						C410.2,615.8,411,614.5,410.1,614z"/>
					<path class="st5" d="M417.9,614c-4.2,3.9-9.7,8-15.1,9.8c-1.1,0.4-0.7,2.1,0.4,1.8c5.8-1.9,11.5-6.1,16-10.3
						C420,614.5,418.7,613.2,417.9,614z"/>
				</g>
				<path class="st14" d="M412.9,534c-14.3-0.5-14.8,44.5-5.1,76.9c0.8,2.6,7.5,3.7,11.1,0.7C418.8,611.6,432.6,534.7,412.9,534z"/>
			</g>
			<g>
				<g>
					<path class="st10" d="M427.2,615.5c0.4,0.3,4.1,2.4,8,4.5c4.2,2.2,8.6,4.3,9.1,3.6c0.4-0.6-1.3-3-3.4-5.6
						c-2.8-3.5-6.2-7.2-6.2-7.2l-6.7-1.3C428,609.4,426.3,615.1,427.2,615.5z"/>
					<path class="st5" d="M435.1,620c4.2,2.2,8.6,4.3,9.1,3.6c0.4-0.6-1.3-3-3.4-5.6C439,617.9,436.8,618.2,435.1,620z"/>
					<path class="st5" d="M436.4,616.3c1.2-0.8,2.6-1,3.9-0.5c0.9,0.3,0.3,1.7-0.6,1.4c-0.8-0.3-1.7-0.2-2.4,0.3
						C436.5,618,435.6,616.9,436.4,616.3z"/>
					<path class="st5" d="M435.2,614.3c1.2-0.8,2.6-1,3.9-0.5c0.9,0.3,0.3,1.7-0.6,1.4c-0.8-0.3-1.7-0.2-2.4,0.3
						C435.3,616.1,434.4,614.9,435.2,614.3z"/>
					<path class="st5" d="M427.5,615.2c4.6,3.4,10.5,6.8,16.1,8c1.1,0.2,0.9,2-0.2,1.8c-6-1.3-12.1-4.8-17-8.4
						C425.5,616,426.6,614.5,427.5,615.2z"/>
				</g>
				<path class="st14" d="M435.2,534c14.3-0.5,11.7,44,2,76.3c-0.8,2.6-7.8,3.4-11.3,0.4C425.8,610.7,415.5,534.7,435.2,534z"/>
			</g>
			<path class="st11" d="M418.5,478.1c-6.4-4.7-37.2,27.3-38.8,37c-1,6.2,8.4,17.7,18.2,20.5c6.6,1.9,9.6-13,5.5-15.5
				c-5.6-3.4-6.6-4.7-6.8-5.7C396.5,513.5,423,481.3,418.5,478.1z"/>
			<path class="st11" d="M430.9,478.1c6.4-4.7,37.2,27.3,38.8,37c1,6.2-8.4,17.7-18.2,20.5c-6.6,1.9-9.6-13-5.5-15.5
				c5.6-3.4,6.6-4.7,6.8-5.7C452.9,513.5,426.4,481.3,430.9,478.1z"/>
			<g>
				<polygon class="st10" points="428.2,544.6 403.5,542.3 403.5,506.6 428.2,508.9 				"/>
				<polygon class="st10" points="446.8,542.3 422,544.6 422,508.9 446.8,506.6 				"/>
				<rect x="422" y="507.8" class="st10" width="5.6" height="36.4"/>
				<rect x="422" y="507.8" class="st16" width="5.6" height="36.4"/>
				<rect x="422" y="521" class="st12" width="5.6" height="12.7"/>
				<rect x="422" y="514.7" class="st12" width="5.6" height="3"/>
				<rect x="422" y="521" class="st16" width="5.6" height="12.7"/>
				<rect x="422" y="514.7" class="st16" width="5.6" height="3"/>
				<polygon class="st12" points="427.7,521 446.8,518.7 446.8,531.3 427.7,533.7 				"/>
				<polygon class="st12" points="422,521 403.5,518.7 403.5,531.3 422,533.7 				"/>
				<polygon class="st12" points="422,517.6 422,514.7 403.5,511.8 403.5,515.1 				"/>
				<polygon class="st12" points="427.7,517.6 427.7,514.7 446.8,511.7 446.8,515 				"/>
			</g>
			<path class="st17" d="M396,531.6c0,0-2.5-4.3,2.3-8.8c0,0,3.8-0.1,5.2,0v2.8c0,0,5.8,2.8,6.6,4.4C411,531.5,403,533.9,396,531.6z
				"/>
			<path class="st17" d="M454.3,531.6c0,0,2.5-4.3-2.3-8.8c0,0-3.8-0.1-5.2,0v2.8c0,0-5.8,2.8-6.6,4.4
				C439.4,531.5,447.4,533.9,454.3,531.6z"/>
			<path class="st10" d="M432.7,479.1c0.1,2.4-2.8,4.7-8.1,4.7h-0.1c-5.3,0-8.2-2.4-8.1-4.7c0.1-2.4,4.3-5.2,8.1-5.2h0.1
				C428.5,473.9,432.7,476.7,432.7,479.1z"/>
			<path class="st17" d="M430.4,477.5c0,0-2.9,2.7-5.8,2.7s-5.8-2.7-5.8-2.7s1.4-1.7,2.2-2.7c0-0.1,0.1-0.2,0.1-0.4
				c0.5-2.3-0.1-12.8-0.1-12.8h7.2c0,0-0.8,11.2-0.1,13c0,0.1,0.1,0.1,0.1,0.2C429,475.7,430.4,477.5,430.4,477.5z"/>
			<path class="st18" d="M428.1,474.6c-2.9,1.5-5.4,0.7-6.9-0.2c0.5-2.3-0.1-12.8-0.1-12.8h7.2C428.2,461.6,427.5,472.9,428.1,474.6
				z"/>
			<path class="st17" d="M444.3,448.8c-0.5,12.8-8,23.2-19.7,23.2s-19.3-10.4-19.7-23.2c-0.5-12.8,6-24.2,19.7-24.8
				C438.3,424.7,444.8,436,444.3,448.8z"/>
			<g>
				<path class="st17" d="M407.5,452.5c0,0-3.5-4.2-6.6-1.9c-2.6,1.9-0.4,11.4,7.7,10.4L407.5,452.5z"/>
				<path class="st18" d="M401.1,452.6c0.8-0.3,1.6-0.2,2.4,0s1.5,0.7,2.1,1.2c0.6,0.6,1,1.2,1.4,2c0.2,0.4,0.3,0.7,0.4,1.1
					s0.1,0.8,0.2,1.2c-1-1.2-1.8-2.4-2.8-3.4C403.7,453.8,402.6,453.1,401.1,452.6z"/>
			</g>
			<g>
				<path class="st17" d="M441.5,452.5c0,0,3.5-4.2,6.6-1.9c2.6,1.9,0.4,11.4-7.7,10.4L441.5,452.5z"/>
				<path class="st18" d="M448,452.6c-1.5,0.5-2.6,1.2-3.6,2.2s-1.8,2.1-2.8,3.4c0-0.4,0.1-0.8,0.2-1.2c0.1-0.4,0.2-0.7,0.4-1.1
					c0.3-0.7,0.8-1.4,1.4-2c0.6-0.5,1.3-1,2.1-1.2C446.4,452.4,447.3,452.3,448,452.6z"/>
			</g>
			<path class="st19" d="M404.9,452.6c1.1,0.5,2.6-11.1,2.6-11.1s15-8.6,34.8,0c0,0,0.1,11.1,1.7,11.1c1.5,0,5.7-29.6-19.6-29.6
				C399.2,423,404,452.2,404.9,452.6z"/>
		</g>
		<g>
			<polygon class="st22" points="729.8,442.8 690.9,457.6 687.8,458.8 605.6,490.1 481.5,443.4 609.9,390.1 657.6,411.1 
				669.3,416.2 676.2,419.2 682.2,421.9 			"/>
			<path class="st19" d="M677.7,440.1V496c0,0-76.5,19.8-144.2,0v-55.9C533.5,440.1,602.7,406.6,677.7,440.1z"/>
			<g>
				<path class="st10" d="M693.9,475.1c0.2,0.6,0.1,1.2-0.3,1.7c-0.5,0.7-1.4,0.9-2,0.1c-0.1-0.1-0.3-0.2-0.5-0.3
					c-0.6-0.3-1.5-0.2-2.1,0.1c-0.2,0.1-0.3,0.2-0.4,0.3c-0.7,1-1.8,0.5-2.2-0.4c-0.2-0.4-0.3-0.9-0.1-1.4c-0.5-0.5-0.9-1.4-0.4-2.1
					c0.7-0.9,1.6-1.6,2.6-2c0-0.1-0.1-0.2-0.1-0.3c0.1-3.3-0.1-7.5-0.6-12.1c-1.7-15.8-6.6-35.8-11.1-39.2c-0.2-0.1-0.4-0.3-0.6-0.4
					c-2-1.3-4.4-2.3-6.9-3l-11.7-5.1c6.6,0.8,13.6,2.4,19.7,5.3c1.7,0.8,3.4,2.8,4.9,5.5c4.3,7.9,7.5,22.4,8.7,35.7
					c0.4,4.7,0.6,9.3,0.4,13.3l0,0c1.1,0.2,2.1,0.8,2.9,1.7C694.9,473.5,694.6,474.6,693.9,475.1z"/>
				<g>
					<path class="st10" d="M691.1,476c0-1.6-1.5-2.2-2.4-1.6c-0.5,0-0.9,0.2-1.2,0.7c-0.2,0.1-0.3,0.3-0.5,0.5
						c-4.8,7.3-5.3,15.4-5.8,24.4c-0.1,2.2,2.8,2.6,2.9,0.3c0.4-6.2,0.7-11.8,2.6-17.2c-0.4,2.2-0.9,4.4-1.2,6.6
						c-0.7,4.5-0.9,9-1,13.6c0,2.2,2.9,2.6,2.9,0.3c0-4.2,0.3-8.3,0.8-12.3c-0.1,4.3-0.2,8.6-0.4,12.8c-0.1,2.2,2.8,2.6,2.9,0.3
						C691.2,495,691.3,485.5,691.1,476z"/>
					<path class="st10" d="M689.1,476c0.1-1.6,1.7-2.1,2.4-1.4c0.5,0.1,0.9,0.3,1.2,0.8c0.2,0.1,0.3,0.3,0.5,0.5
						c4.3,7.7,4.4,15.9,4.5,24.9c0,2.3-2.9,2.3-2.9,0c0-6.2,0-11.9-1.6-17.4c0.3,2.2,0.7,4.5,0.9,6.7c0.4,4.5,0.4,9.1,0.2,13.6
						c-0.1,2.2-3,2.3-2.9,0c0.2-4.2,0.2-8.3-0.2-12.4c-0.2,4.3-0.3,8.6-0.3,12.8c0,2.2-2.9,2.3-2.9,0
						C688,494.9,688.4,485.4,689.1,476z"/>
				</g>
			</g>
		</g>
		<g>
			<g>
				<path class="st5" d="M635.6,289.3L533,281.5v-0.3l-99.5,13.1c-18.7-26-2.5-52.9-2.5-52.9l102.6,7.8v0.3l99.5-13
					C651.9,262.4,635.6,289.3,635.6,289.3z"/>
				<path class="st11" d="M536.5,246.1c-1.3-2.1-4.5-0.7-4.2,1.3c-0.9-0.1-1.9,0.3-2.2,1.5c-2.6,10.5-5.8,22.7-1.3,33.2
					c0.4,0.8,1,1.2,1.7,1.1c0.4,1.1,1.8,1.4,2.9,1c0.8,1.2,2.8,1.7,3.8,0.1C543.9,274.2,542.9,256.1,536.5,246.1z M531.2,274.8
					c-0.8-4.9-0.2-10.3,0.9-15.4C532,264.6,531.7,269.7,531.2,274.8z M535.3,278.3c0.7-6.3,1.1-12.7,1.3-19.1
					C537.7,265.7,537.5,272.8,535.3,278.3z"/>
			</g>
			<g>
				<g>
					<path class="st14" d="M526,500.2c-0.4,0.2-4.5,1.9-8.7,3.5c-4.6,1.7-9.4,3.2-9.8,2.4c-0.3-0.6,1.7-2.9,4.2-5.2
						c3.3-3.2,7.4-6.5,7.4-6.5l7-0.5C526,493.9,526.9,499.8,526,500.2z"/>
					<path class="st5" d="M517.3,503.7c-4.6,1.7-9.4,3.2-9.8,2.4c-0.3-0.6,1.7-2.9,4.2-5.2C513.6,501,515.9,501.6,517.3,503.7z"/>
					<path class="st5" d="M516.5,499.7c-1.1-1-2.5-1.4-3.9-1.1c-1,0.2-0.6,1.7,0.4,1.5c0.9-0.2,1.8,0.1,2.4,0.7
						C516.1,501.5,517.2,500.4,516.5,499.7z"/>
					<path class="st5" d="M518,497.9c-1.1-1-2.5-1.4-3.9-1.1c-1,0.2-0.6,1.7,0.4,1.5c0.9-0.2,1.8,0.1,2.4,0.7
						C517.6,499.7,518.7,498.6,518,497.9z"/>
					<path class="st5" d="M525.7,499.9c-5.2,2.9-11.7,5.5-17.6,6c-1.2,0.1-1.2,2,0,1.9c6.3-0.5,13.1-3.2,18.5-6.2
						C527.7,500.9,526.8,499.3,525.7,499.9z"/>
				</g>
				<g>
					<path class="st14" d="M540.8,500.2c0.4,0.2,4.5,1.9,8.7,3.5c4.6,1.7,9.4,3.2,9.8,2.4c0.3-0.6-1.7-2.9-4.2-5.2
						c-3.3-3.2-7.4-6.5-7.4-6.5l-7-0.5C540.8,493.9,539.9,499.8,540.8,500.2z"/>
					<path class="st5" d="M549.6,503.7c4.6,1.7,9.4,3.2,9.8,2.4c0.3-0.6-1.7-2.9-4.2-5.2C553.2,501,551,501.6,549.6,503.7z"/>
					<path class="st5" d="M550.3,499.7c1.1-1,2.5-1.4,3.9-1.1c1,0.2,0.6,1.7-0.4,1.5c-0.9-0.2-1.8,0.1-2.4,0.7
						C550.7,501.5,549.6,500.4,550.3,499.7z"/>
					<path class="st5" d="M548.8,497.9c1.1-1,2.5-1.4,3.9-1.1c1,0.2,0.6,1.7-0.4,1.5c-0.9-0.2-1.8,0.1-2.4,0.7
						C549.2,499.7,548.1,498.6,548.8,497.9z"/>
					<path class="st5" d="M541.1,499.9c5.2,2.9,11.7,5.5,17.6,6c1.2,0.1,1.2,2,0,1.9c-6.3-0.5-13.1-3.2-18.5-6.2
						C539.1,500.9,540.1,499.3,541.1,499.9z"/>
				</g>
				<g>
					<path class="st9" d="M557.8,454.3c-0.1,7.2-6.7,40.2-8,41.8c-1.3,1.6-7.5,0.4-9.5-0.4s2.5-35.8,0.8-41.9
						c-1-3.9-3.8-19.6-5.8-30.9h-4.2c-2,11.4-4.7,27.1-5.8,30.9c-1.7,6.2,2.8,41.2,0.8,41.9c-2,0.8-8.2,2-9.4,0.4
						c-1.3-1.6-7.9-34.7-8-41.8c-0.1-7.2,2.2-44.1,2.2-44.1l22.2,0.3l22.2-0.3C555.6,410.3,557.8,447.2,557.8,454.3z"/>
				</g>
				<path class="st14" d="M556.3,409.4c0.4,4.9-15.7,7.2-22.9,7.2c-7.3,0-23.4-2.2-22.9-7.2c2.3-27.8,5.4-51.6,12.7-60.9
					c3.3-4.2,8.2-4.8,10.2-4.9l0,0l0,0c2,0,6.9,0.7,10.2,4.9C550.8,357.8,554,381.6,556.3,409.4z"/>
				<path class="st17" d="M539.2,345.7c0,0-2.9,2.7-5.8,2.7c-2.9,0-5.8-2.7-5.8-2.7s1.4-1.7,2.2-2.7c0-0.1,0.1-0.2,0.1-0.4
					c0.5-2.3-0.1-12.8-0.1-12.8h7.2c0,0-0.8,11.2-0.1,13c0,0.1,0.1,0.1,0.1,0.2C537.8,343.9,539.2,345.7,539.2,345.7z"/>
				<path class="st18" d="M536.9,342.8c-2.9,1.5-5.4,0.7-6.9-0.2c0.5-2.3-0.1-12.8-0.1-12.8h7.2C537,329.9,536.2,341.1,536.9,342.8z
					"/>
				<path class="st17" d="M553.1,317c-0.5,12.8-8,23.2-19.7,23.2s-19.3-10.4-19.7-23.2c-0.5-12.8,6-24.2,19.7-24.8
					C547.1,292.9,553.6,304.2,553.1,317z"/>
				<path class="st14" d="M526,352.4c-2.8,11.8-36.6-8.3-38.9-23.8c-2.4-15.5-1.7-35.2-0.6-36.1c2.7-2.4,9-1.5,9,1
					c0,3.5,2.3,22.3,4.3,29.4C503.2,335.6,528.8,340.7,526,352.4z"/>
				<path class="st14" d="M541,352.4c2.8,11.8,36.6-8.3,38.9-23.8c2.4-15.5,1.7-35.2,0.6-36.1c-2.7-2.4-9-1.5-9,1
					c0,3.5-2.3,22.3-4.3,29.4C563.8,335.6,538.2,340.7,541,352.4z"/>
				<path class="st17" d="M487.4,291.8l-3.1-4l8.5-1.1c0,0,0.7-3.9,1.9-3.5c1.1,0.4,1.3,6.7-0.7,8.4
					C491.9,293.3,487.4,291.8,487.4,291.8z"/>
				<path class="st17" d="M579.7,292.4c2.1-1.2,2.9-7,2.9-7l-7.5-0.6c0,0-1.6-3.5-3-2.8c-1.1,0.5-0.4,7.8,1.6,9.5
					S578.3,293.2,579.7,292.4z"/>
				<path class="st10" d="M515.1,324.8c1.2,2.7,2.9-20.1,2.9-20.1s9.2,6.1,20.1,4.7c4.4-0.6,3.5-6.6,3.5-6.6s4.2,6.3,7.4,7
					c0,0,1.6,15.4,3.6,15c1.1-0.2,8.6-25.2-3.3-29.7c0,0-1.3-9.2-18.7-7.6c-15.5,1.4-18.3,7.9-16.9,9c1.3,1.1,3.8,0.2,3.8,0.2
					S505.8,304.1,515.1,324.8z"/>
				<g>
					<path class="st17" d="M516.3,320.7c0,0-3.5-4.2-6.6-1.9c-2.6,1.9-0.4,11.4,7.7,10.4L516.3,320.7z"/>
					<path class="st18" d="M509.9,320.8c0.8-0.3,1.6-0.2,2.4,0s1.5,0.7,2.1,1.2c0.6,0.6,1,1.2,1.4,2c0.2,0.4,0.3,0.7,0.4,1.1
						c0.1,0.4,0.1,0.8,0.2,1.2c-1-1.2-1.8-2.4-2.8-3.4C512.5,322,511.4,321.3,509.9,320.8z"/>
				</g>
				<g>
					<path class="st17" d="M550.3,320.7c0,0,3.5-4.2,6.6-1.9c2.6,1.9,0.4,11.4-7.7,10.4L550.3,320.7z"/>
					<path class="st18" d="M556.8,320.8c-1.5,0.5-2.6,1.2-3.6,2.2s-1.8,2.1-2.8,3.4c0-0.4,0.1-0.8,0.2-1.2c0.1-0.4,0.2-0.7,0.4-1.1
						c0.3-0.7,0.8-1.4,1.4-2c0.6-0.5,1.3-1,2.1-1.2C555.2,320.6,556,320.5,556.8,320.8z"/>
				</g>
			</g>
		</g>
	</g>
</g>
</svg>
