<?xml version="1.0" encoding="utf-8"?>
<!-- Generator: Adobe Illustrator 24.1.3, SVG Export Plug-In . SVG Version: 6.00 Build 0)  -->
<svg version="1.1" id="Layer_1" xmlns="http://www.w3.org/2000/svg" xmlns:xlink="http://www.w3.org/1999/xlink" x="0px" y="0px"
	 viewBox="0 0 1080 1080" style="enable-background:new 0 0 1080 1080;" xml:space="preserve">
<style type="text/css">
	.st0{fill:#D7EFF6;}
	.st1{fill:url(#XMLID_2_);}
	.st2{fill:url(#XMLID_3_);}
	.st3{fill:url(#XMLID_4_);}
	.st4{fill:#CBE1E8;}
	.st5{fill:#FFFFFF;}
	.st6{fill:none;stroke:#231F20;stroke-miterlimit:10;}
</style>
<g id="galary3">
	<g>
		<path id="XMLID_122_" class="st0" d="M830.4,854.4H257.5c-15.4,0-28-12.5-28-28V253.6c0-15.4,12.5-28,28-28h572.9
			c15.4,0,28,12.5,28,28v572.9C858.3,841.9,845.8,854.4,830.4,854.4z"/>
		
			<linearGradient id="XMLID_2_" gradientUnits="userSpaceOnUse" x1="648.072" y1="582.5953" x2="482.8189" y2="128.9606" gradientTransform="matrix(1 0 0 -1 0 1080)">
			<stop  offset="0" style="stop-color:#3DC5E9"/>
			<stop  offset="0.1438" style="stop-color:#3EBDE4"/>
			<stop  offset="0.3784" style="stop-color:#39AEDA"/>
			<stop  offset="0.6744" style="stop-color:#3495CA"/>
			<stop  offset="1" style="stop-color:#2F78B7"/>
		</linearGradient>
		<path id="XMLID_181_" class="st1" d="M858.3,733.5c0-0.1,0-0.2-0.1-0.3c-56-90.1-220-315.9-314.3-315.9S285.6,643,229.6,733.1
			c-0.1,0.1-0.1,0.2-0.1,0.3v95.2c0,14.2,11.5,25.8,25.8,25.8h577.3c14.2,0,25.8-11.5,25.8-25.8L858.3,733.5L858.3,733.5z"/>
		
			<linearGradient id="XMLID_3_" gradientUnits="userSpaceOnUse" x1="636.566" y1="558.5847" x2="485.4049" y2="143.6339" gradientTransform="matrix(1 0 0 -1 0 1080)">
			<stop  offset="0" style="stop-color:#39B9DC"/>
			<stop  offset="0.1447" style="stop-color:#38B3D8"/>
			<stop  offset="0.3806" style="stop-color:#34A4CE"/>
			<stop  offset="0.6784" style="stop-color:#308CBE"/>
			<stop  offset="1" style="stop-color:#2B70AC"/>
		</linearGradient>
		<path id="XMLID_192_" class="st2" d="M665.6,489.2c-0.2-0.2-0.6-0.2-0.9,0C600.1,545.7,525.8,649.9,472.8,648
			c-34.4-1.2-60.3-63.3-85.5-121.8c-0.2-0.4-0.8-0.5-1.1-0.2c-65,70.8-126.5,158.6-156.7,207.1c-0.1,0.1-0.1,0.2-0.1,0.3V814
			c0,14.2,11.5,25.8,25.8,25.8h577.3c14.2,0,25.8-11.5,25.8-25.8v-80.6c0-0.1,0-0.2-0.1-0.3C822.5,675.7,743,563.3,665.6,489.2z"/>
		
			<linearGradient id="XMLID_4_" gradientUnits="userSpaceOnUse" x1="678.5662" y1="690.7542" x2="447.9284" y2="176.2534" gradientTransform="matrix(1 0 0 -1 0 1080)">
			<stop  offset="0" style="stop-color:#FEE700"/>
			<stop  offset="0.2381" style="stop-color:#FEE10D"/>
			<stop  offset="0.625" style="stop-color:#FDD121"/>
			<stop  offset="1" style="stop-color:#FCBD2D"/>
		</linearGradient>
		<path id="XMLID_177_" class="st3" d="M229.5,561.4c0-0.1,0-0.1,0-0.2c21.6-83.3,49.8-123.4,85.1-123.3
			c58.4,0.1,92.7,222.4,158.2,224.7c72.7,2.6,185.4-194.3,258.3-194.3c72.8,0,114.6,97.3,127.2,127.6c0,0.1,0,0.2,0,0.2v232.5
			c0,14.2-11.5,25.8-25.8,25.8H255.3c-14.2,0-25.8-11.5-25.8-25.8V561.4z"/>
		<path class="st4" d="M789.4,333.3c0,24.9-16.9,46-39.9,52.3c-0.8,0.2-1.2-0.9-0.4-1.2c18.2-8.7,30.9-27.4,30.9-49
			c0-30-24.3-54.3-54.3-54.3h-0.1c-0.8,0-0.9-1.1-0.1-1.3c3.1-0.6,6.3-0.9,9.6-0.9C765,279,789.4,303.3,789.4,333.3z"/>
		<circle id="XMLID_189_" class="st5" cx="725.6" cy="335.4" r="54.3"/>
		<line id="XMLID_89_" class="st6" x1="543.9" y1="540" x2="543.9" y2="540"/>
	</g>
</g>
</svg>
