<?xml version="1.0" encoding="utf-8"?>
<!-- Generator: Adobe Illustrator 27.3.1, SVG Export Plug-In . SVG Version: 6.00 Build 0)  -->
<svg version="1.1" id="Layer_1" xmlns="http://www.w3.org/2000/svg" xmlns:xlink="http://www.w3.org/1999/xlink" x="0px" y="0px"
	 viewBox="0 0 40 40" style="enable-background:new 0 0 40 40;" xml:space="preserve">
<style type="text/css">
	.st0{fill:#FFFFFF;}
</style>
<path class="st0" d="M21,0.5c0.8,0.1,1.6,0.2,2.3,0.4C29,2.2,33.5,7,34.4,12.7c0.6,3.4,0,6.6-1.3,9.7c-1.5,3.7-3.6,7-6.1,10.1
	c-1.8,2.3-3.8,4.5-6,6.5c-0.8,0.7-1.3,0.7-2.1,0c-4.1-3.9-7.7-8.1-10.4-13c-1.4-2.6-2.5-5.3-3-8.3C4.3,9.3,9.9,2,17.5,0.7
	c0.5-0.1,1-0.1,1.5-0.2C19.7,0.5,20.3,0.5,21,0.5z M20.2,23.2c4.5-0.2,8.1-4,7.9-8.4c-0.2-4.5-4-8.1-8.4-7.9c-4.5,0.2-8.1,4-7.9,8.4
	C12.1,19.9,15.9,23.4,20.2,23.2z"/>
</svg>
