<?xml version="1.0" encoding="utf-8"?>
<!-- Generator: Adobe Illustrator 27.3.1, SVG Export Plug-In . SVG Version: 6.00 Build 0)  -->
<svg version="1.1" id="Layer_1" xmlns="http://www.w3.org/2000/svg" xmlns:xlink="http://www.w3.org/1999/xlink" x="0px" y="0px"
	 viewBox="0 0 40 40" style="enable-background:new 0 0 40 40;" xml:space="preserve">
<style type="text/css">
	.st0{fill:#FFFFFF;}
</style>
<g>
	<path class="st0" d="M38.5,10.1c0,0.2,0,0.4,0,0.5c0,1.6,0,3.2,0,4.8c0,0.3,0.1,0.5,0.4,0.6c0.6,0.2,0.7,0.6,0.7,1.2
		c-0.1,1.2,0,2.3,0,3.6c-0.4-0.3-0.9-0.6-1.2-0.9c-0.3-0.3-0.6-0.3-1,0c-0.4,0.3-0.8,0.6-1.2,0.9c0-0.2,0-0.3,0-0.4
		c0-1.2,0-2.3,0-3.5c0-0.3,0.1-0.5,0.4-0.6c0.6-0.2,0.7-0.6,0.7-1.2c-0.1-1.5,0-2.9,0-4.4c-0.9,0.2-1.8,0.5-2.7,0.7
		C31,12.2,27.5,13.1,24,14c-0.2,0-0.4,0-0.6,0c-4.8-1.3-9.5-2.5-14.3-3.8c-0.1,0-0.1,0-0.3-0.1c0.8-0.2,1.5-0.4,2.2-0.6
		c4-1.1,8.1-2.2,12.1-3.2c0.3-0.1,0.6-0.1,0.9,0c4.7,1.2,9.3,2.5,14,3.7C38.3,10,38.4,10,38.5,10.1z"/>
	<path class="st0" d="M39,32.1c0,0.6,0,1.1,0,1.7c-0.2,0-0.3,0-0.5,0c-8.2,0-16.4,0-24.6,0c-1.3,0-2.1-0.8-2.2-2.1
		c0-0.9,0-1.8,0-2.7c0-1.2,0.8-2.1,2.1-2.1c8.3,0,16.6,0,24.9,0c0.1,0,0.2,0,0.3,0c0,0.6,0,1.1,0,1.7c-0.2,0-0.4,0-0.5,0
		c-4.9,0-9.9,0-14.8,0c-0.2,0-0.4,0-0.5,0c-0.3,0.1-0.5,0.3-0.5,0.7c0,0.3,0.2,0.5,0.6,0.6c0.2,0,0.3,0,0.5,0c4.9,0,9.9,0,14.8,0
		c0.2,0,0.3,0,0.5,0c0,0.3,0,0.5,0,0.9c-0.2,0-0.3,0-0.5,0c-6.6,0-13.2,0-19.9,0c-0.7,0-1,0.2-1,0.6c0,0.4,0.3,0.7,1,0.7
		c6.6,0,13.2,0,19.9,0C38.6,32.1,38.8,32.1,39,32.1z"/>
	<path class="st0" d="M13.6,12.7c1.1,0.3,2.1,0.6,3.2,0.8c2.2,0.6,4.3,1.2,6.5,1.7c0.3,0.1,0.6,0.1,0.9,0c3.2-0.8,6.3-1.7,9.5-2.5
		c0.1,0,0.2,0,0.3-0.1c0,2.3,0,4.5,0,6.8c-0.7,0.1-1.5,0.3-2.2,0.4c-2,0.4-4,0.7-6,1.1c-1.7,0.3-3.4,0.1-5.1-0.2
		c-2.2-0.4-4.5-0.8-6.7-1.3c-0.1,0-0.3-0.2-0.3-0.3c0-2.1,0-4.3,0-6.4C13.6,12.8,13.6,12.8,13.6,12.7z"/>
	<path class="st0" d="M3.6,19c2.9,0,5.8,0,8.6,0c0,0.5,0,1,0,1.6c1.6,0.3,3.2,0.6,4.7,0.9c1.6,0.3,3.2,0.6,4.9,0.8
		c1.9,0.3,3.8,0.1,5.7-0.3c0.9-0.2,1.8-0.4,2.7-0.5c0.2,0,0.4,0,0.5,0.1c2,1.3,4,2.5,5.9,3.8c0,0,0.1,0,0.1,0.1c-0.2,0-0.3,0-0.5,0
		c-7.4,0-14.9,0-22.3,0c-0.8,0-1.4-0.2-2.1-0.7c-2.6-1.9-5.3-3.7-7.9-5.6C4,19.3,3.8,19.2,3.6,19z"/>
	<path class="st0" d="M11.7,26.3c-1,0.8-1.3,1.9-1.3,3.1c0,0.8,0,1.6,0,2.5c-0.1-0.1-0.2-0.1-0.3-0.2c-3-2.2-6-4.3-9.1-6.5
		c-0.4-0.3-0.6-0.6-0.6-1.1c0-1.1,0-2.2,0-3.2c0-0.3,0.1-0.7,0.3-0.9c0.4-0.7,0.7-0.8,1.4-0.3c3,2.1,6.1,4.3,9.1,6.4
		C11.4,26.1,11.5,26.2,11.7,26.3z"/>
</g>
</svg>
