<?xml version="1.0" encoding="utf-8"?>
<!-- Generator: Adobe Illustrator 24.1.3, SVG Export Plug-In . SVG Version: 6.00 Build 0)  -->
<svg version="1.1" id="Layer_1" xmlns="http://www.w3.org/2000/svg" xmlns:xlink="http://www.w3.org/1999/xlink" x="0px" y="0px"
	 viewBox="0 0 1080 1080" style="enable-background:new 0 0 1080 1080;" xml:space="preserve">
<style type="text/css">
	.st0{fill:#D6E5F0;}
	.st1{fill:#84B1D5;}
	.st2{fill:#5A97C6;}
	.st3{fill:#327EB9;}
	.st4{fill:#A6CEA3;}
	.st5{fill:#90C28C;}
	.st6{fill:#FECA72;}
</style>
<g id="galary1">
	
		<ellipse transform="matrix(0.6015 -0.7989 0.7989 0.6015 -569.5746 536.2065)" class="st0" cx="252.7" cy="839" rx="23.9" ry="23.9"/>
	
		<ellipse transform="matrix(0.6599 -0.7513 0.7513 0.6599 -486.2227 536.0892)" class="st0" cx="349.1" cy="805.2" rx="13.4" ry="13.4"/>
	<circle class="st0" cx="305.3" cy="801" r="8.2"/>
	<circle class="st0" cx="263.7" cy="762.1" r="14.8"/>
	
		<ellipse transform="matrix(0.5038 -0.8638 0.8638 0.5038 184.4189 804.3829)" class="st0" cx="792.4" cy="241.7" rx="23.9" ry="23.9"/>
	
		<ellipse transform="matrix(0.9831 -0.1833 0.1833 0.9831 -46.0766 160.3954)" class="st0" cx="844.6" cy="329.5" rx="13.4" ry="13.4"/>
	<ellipse class="st0" cx="840" cy="285.7" rx="8.2" ry="8.2"/>
	
		<ellipse transform="matrix(0.3311 -0.9436 0.9436 0.3311 358.0807 979.4375)" class="st0" cx="869.9" cy="237.2" rx="14.8" ry="14.8"/>
	<path class="st1" d="M294.5,734l383.6,139.2c22.2,8,46.7-3.4,54.7-25.6l146.6-404c8-22.2-3.4-46.7-25.6-54.7L470.2,249.7
		c-22.2-8-46.7,3.4-54.7,25.6l-146.6,404C260.9,701.4,272.3,725.9,294.5,734z"/>
	<path class="st2" d="M290.2,736.5l403.6,60c23.3,3.5,45.1-12.6,48.5-36l63.2-425.1c3.5-23.3-12.6-45.1-36-48.5l-403.6-60
		c-23.3-3.5-45.1,12.6-48.5,36L254.2,688C250.8,711.3,266.9,733,290.2,736.5z"/>
	<path class="st3" d="M282.1,735.8l408.1-0.3c23.6,0,42.7-19.2,42.7-42.7L732.6,263c0-23.6-19.2-42.7-42.7-42.7l-408.1,0.3
		c-23.6,0-42.7,19.2-42.7,42.7l0.3,429.7C239.4,716.7,258.5,735.8,282.1,735.8z"/>
	<path class="st4" d="M479.4,641.3l94-163.3c7.3-12.7,25.6-12.7,32.9,0L698,636.3c1.2,2.1-0.3,4.8-2.8,4.8L479.4,641.3z"/>
	<path class="st5" d="M275.3,636.7l136.2-236.5c7.3-12.7,25.6-12.7,32.9,0l139.5,241l-305.7,0.3
		C275.6,641.6,274.1,638.9,275.3,636.7z"/>
	
		<ellipse transform="matrix(0.7071 -0.7071 0.7071 0.7071 -77.3498 520.6182)" class="st6" cx="589.8" cy="353.7" rx="53.4" ry="53.4"/>
</g>
</svg>
