<?xml version="1.0" encoding="utf-8"?>
<!-- Generator: Adobe Illustrator 27.3.1, SVG Export Plug-In . SVG Version: 6.00 Build 0)  -->
<svg version="1.1" id="Layer_1" xmlns="http://www.w3.org/2000/svg" xmlns:xlink="http://www.w3.org/1999/xlink" x="0px" y="0px"
	 viewBox="0 0 187.8 187.8" style="enable-background:new 0 0 187.8 187.8;" xml:space="preserve">
<style type="text/css">
	.st0{fill:url(#SVGID_1_);}
	.st1{fill:#FFFFFF;}
	.st2{fill:url(#SVGID_00000070111209933374605510000003234414785175840919_);}
</style>
<g>
	<radialGradient id="SVGID_1_" cx="90.0573" cy="50.6394" r="143.4856" gradientUnits="userSpaceOnUse">
		<stop  offset="0" style="stop-color:#3CA2FC"/>
		<stop  offset="1" style="stop-color:#1F56EC"/>
	</radialGradient>
	<circle class="st0" cx="94.6" cy="94.9" r="90.1"/>
	<g>
		
			<ellipse transform="matrix(4.620079e-02 -0.9989 0.9989 4.620079e-02 -51.4964 148.2037)" class="st1" cx="51.9" cy="101.1" rx="30.7" ry="13.6"/>
		<path class="st1" d="M150.7,109.1c-0.7,3.4-2.3,5.4-3.9,6.5c-0.2,0.1-0.4,0.3-0.6,0.4c-0.2,0.1-0.7,0.4-1.3,0.6
			c-0.1,0-0.1,0.1-0.1,0.1c-0.4,0.2-0.8,0.4-1.2,0.4c-0.3,0.1-0.6,0.1-0.7,0c2.2,1.7,2,5.3,0.9,7.6c-0.8,1.6-2.1,3-3.6,3.8
			c-1.5,0.8-3,1.2-4.7,1.1c0,2.2-1.2,4.3-3.2,5.4c-10.4,6-24.2,3.5-35.5,2.5c-0.8-0.1-1.6-0.1-2.3-0.2c-5.4-0.4-10.9-1-15.8-3.7
			c-11.3-6.1-9.7-19.4-9.1-30.2c0.3-4.6,0.5-9.3,0.9-13.9c0.6-8.3,2.1-16.1,9.9-20.5c5.7-3.2,14.8-5,17.6-11.7
			c4.1-9.9-2.6-24.5,7.9-26c10.5-1.5,24.4,13.4,17.3,26.6c-7.1,13.2-11.3,14.3-4.4,16.6c9.9,3.2,26.2-3.6,31,9.3
			c1.4,3.8,1.6,9.3-1.7,12.3c-0.8,0.7-1.7,1.1-1,2c0,0,0,0,0,0c0.5,0.6,1,1.1,1.7,1.5C150.3,101.4,151.7,104.4,150.7,109.1z"/>
	</g>
	
		<radialGradient id="SVGID_00000027599787664721147900000015872938686061435800_" cx="135.7491" cy="116.1367" r="0.7577" gradientUnits="userSpaceOnUse">
		<stop  offset="0" style="stop-color:#3CA2FC"/>
		<stop  offset="1" style="stop-color:#1F56EC"/>
	</radialGradient>
	<path style="fill:url(#SVGID_00000027599787664721147900000015872938686061435800_);" d="M136.6,116c-0.4,0.2-0.7,0.3-1,0.4
		c-0.4,0-0.6,0-0.6,0S135.7,116.4,136.6,116z"/>
</g>
</svg>
