<svg id="Layer_1" data-name="Layer 1" xmlns="http://www.w3.org/2000/svg" viewBox="0 0 685.25224 580.84968"><polygon points="0 578.807 685.252 580.85 685.252 330.695 0 328.652 0 578.807" style="fill:none"/><g style="opacity:0.54"><path d="M216.21161,1520.39268C142.56185,1495.562,78.68244,1433.853,65.60105,1357.23892s35.23886-162.97444,111.16613-179.5855c35.90024-7.85429,74.6496-.83914,108.95072-14.02831,64.68756-24.87384,86.67229-109.02514,146.435-144.11988,57.58136-33.81346,136.52721-9.4257,179.4232,41.74969,42.89559,51.17579,55.41187,121.79039,52.782,188.51445-3.86361,98.02881-45.51593,203.75042-134.4341,245.20087-74.93024,34.92968-233.35076,44.82918-313.71246,25.42244" transform="translate(-5.27968 -1003.89362)" style="fill:#e2d3e8"/></g><path d="M550.19533,1192.44826c-5.01194,4.96622-6.42224,13.12663-1.60584,18.80322,4.58466,5.40346,13.41121,6.54,18.98475,2.03264a14.13576,14.13576,0,0,0,3.43611-17.8261c-3.81975-6.5413-12.152-9.07527-19.293-8.00613-.84377.12633-.64789,1.54318.20187,1.49162,5.43608-.32978,11.36977.55332,15.49756,4.46221a12.25,12.25,0,1,1-16.80261,17.83027c-5.19919-4.854-4.6904-13.39246.10823-18.26072a.37287.37287,0,0,0-.527-.527Z" transform="translate(-5.27968 -1003.89362)" style="fill:#86a7d7"/><path d="M534.4427,1114.96872s19.39317,43.54744,24.80108,41.26557c5.40827-2.28187,55.49525-33.35363,55.49525-33.35363s-20.52882-38.991-24.80144-41.26557C585.66533,1079.34052,534.4427,1114.96872,534.4427,1114.96872Z" transform="translate(-5.27968 -1003.89362)" style="fill:#d9b2d4"/><path d="M589.93755,1081.61513a5.20852,5.20852,0,0,1-.25019.81384q-.302.85437-.81274,2.29871c-.74475,2.036-1.79254,4.90039-3.07983,8.41968-2.66315,7.13293-6.31311,16.909-10.34516,27.70862l-.29333.77929-.07526.20008-.21027-.03479c-11.1925-1.84925-21.28424-3.51661-28.63732-4.73145-3.61341-.62195-6.55085-1.12744-8.639-1.48682q-1.47126-.2699-2.34155-.42944a.41628.41628,0,1,1,.01666-.10229q.87688.12414,2.357.33386c2.09449.32019,5.041.77063,8.66535,1.32458,7.35949,1.17542,17.46,2.78858,28.66235,4.57764l-.28528.16516c.09253-.246.19275-.51221.29315-.77917,4.08777-10.77869,7.78809-20.53589,10.488-27.655,1.35211-3.49488,2.45258-6.33948,3.2348-8.36133q.56836-1.42328.90418-2.26416A5.20225,5.20225,0,0,1,589.93755,1081.61513Z" transform="translate(-5.27968 -1003.89362)" style="fill:#1f3265"/><path d="M552.87065,1151.12111a6.08549,6.08549,0,0,1,.19184-1.27063c.15576-.81091.40429-1.97912.72882-3.41882.64831-2.87927,1.61706-6.84094,2.80053-11.18616,1.18531-4.34643,2.36072-8.25207,3.26294-11.06225.45081-1.40528.82935-2.53785,1.10657-3.31556a6.08284,6.08284,0,0,1,.47937-1.19226,6.09642,6.09642,0,0,1-.28589,1.25269c-.25226.895-.5697,2.02112-.94763,3.36194-.81128,2.835-1.92914,6.75158-3.11291,11.0924-1.182,4.3396-2.20582,8.28138-2.94513,11.136-.35462,1.34717-.65253,2.47876-.88929,3.37805A6.0874,6.0874,0,0,1,552.87065,1151.12111Z" transform="translate(-5.27968 -1003.89362)" style="fill:#1f3265"/><path d="M611.43169,1114.21755c-.02252.14209-6.9635-.8396-15.5011-2.19214-8.54059-1.35315-15.4436-2.56482-15.42108-2.70691s6.962.83948,15.50256,2.1925C604.54973,1112.86367,611.45421,1114.07558,611.43169,1114.21755Z" transform="translate(-5.27968 -1003.89362)" style="fill:#1f3265"/><path d="M391.68255,1322.40427c-1.97637-10.5529,6.885-17.97659,16.69524-13.099,4.05487,2.01607,7.34792,4.09738,12.03375,2.76968,7.62268-2.15984,10.97882-11.52614,5.97633-17.81584-.66627-.83772-1.79086.22921-1.39143,1.0736,4.32546,9.144-3.2589,18.35776-12.89577,13.67895-4.05557-1.969-7.23648-4.11437-11.97927-3.28906a12.3639,12.3639,0,0,0-9.33845,17.06088c.23891.54148.99523.13137.8996-.37926Z" transform="translate(-5.27968 -1003.89362)" style="fill:#7f2f84"/><path d="M413.49293,1179.097a65.25321,65.25321,0,0,0,7.4121,11.59025c1.11242,1.43907,2.33378,3.53364,4.38515,3.61823,2.00658.08275,4.0055-1.98244,5.46948-3.01524q5.95441-4.20068,11.8824-8.43848a.98046.98046,0,0,0,.34558-1.318q-5.46972-8.41849-10.93949-16.837a.97371.97371,0,0,0-1.31795-.34558c-4.34586,3.07488-8.762,6.07172-13.00883,9.28208-.89868.67935-.08,2.20776.90849,1.55425,2.49747-1.65119,4.92345-3.40666,7.36737-5.13592.83627-.59174,3.00162-2.85894,4.07522-2.8835,1.55978-.03567,1.364.45294,2.30107,1.56224,1.89854,2.24743,3.36805,5.18374,4.97248,7.65309,1.34987,2.07757,3.82337,4.29053,2.09733,6.38972-1.52171,1.85069-4.73218,3.36372-6.6782,4.75626-2.32579,1.66431-4.84744,4.43054-7.661,3.84494-4.48-.93244-8.12317-9.1136-11.02592-12.729-.28128-.35034-.75515.09582-.58528.45159Z" transform="translate(-5.27968 -1003.89362)" style="fill:#fcc781"/><path d="M361.55079,1232.30239c-5.01217,4.96641-6.4223,13.12648-1.60584,18.80329,4.58451,5.40343,13.41134,6.54039,18.98475,2.0328a14.136,14.136,0,0,0,3.43611-17.82623c-3.81979-6.54119-12.152-9.07534-19.29306-8.00623-.84376.12633-.64788,1.54318.20188,1.49163,5.43611-.32977,11.36976.5535,15.49756,4.46236a12.25,12.25,0,1,1-16.80261,17.83023c-5.19929-4.85425-4.69061-13.39241.10823-18.26083a.37287.37287,0,0,0-.527-.527Z" transform="translate(-5.27968 -1003.89362)" style="fill:#86a7d7"/><path d="M494.14967,1282.90733q-2.32137,15.54022-4.45281,31.10541a.86323.86323,0,0,0,1.042,1.042c9.67861-1.50513,19.35717-2.98682,29.00487-4.68a.794.794,0,0,0,.47038-1.15619c-5.58129-9.9717-12.586-20.2971-21.91305-27.15522-.80926-.595-1.71372.67606-1.048,1.3583,6.96443,7.13781,13.77182,13.76817,19.11186,22.31179,1.60536,2.56845,2.27567,3.03417-.9269,3.67494-2.55056.51031-5.18184.77291-7.75256,1.183-5.80178.92547-11.59833,1.8845-17.39692,2.82976l1.07224.8168q2.00173-15.58525,3.85243-31.18667c.07042-.60022-.97333-.74744-1.06348-.14393Z" transform="translate(-5.27968 -1003.89362)" style="fill:#f27081"/><path d="M446.75372,1263.095c1.4663-10.22347,2.85793-20.51323,3.77593-30.80122.07867-.88164-1.43724-1.09994-1.56068-.21121-1.42154,10.2342-2.3925,20.576-3.26491,30.87037-.05024.59287.96392.73989,1.04966.14206Z" transform="translate(-5.27968 -1003.89362)" style="fill:#f69580"/><path d="M559.17045,1260.57612c10.25052.64489,20.56877,1.20814,30.84046,1.30168a.795.795,0,0,0,0-1.58906c-10.24879-.59911-20.5756-.73365-30.84046-.78137a.53471.53471,0,0,0,0,1.06875Z" transform="translate(-5.27968 -1003.89362)" style="fill:#fcc781"/><path d="M475.96321,1130.31392c9.4411,4.1844,18.96777,8.31284,28.62,11.98624.83312.31706,1.4375-1.09086.61224-1.45221-9.46211-4.143-19.15159-7.87969-28.82047-11.51073-.56114-.21074-.966.73107-.41176.9767Z" transform="translate(-5.27968 -1003.89362)" style="fill:#f27081"/><path d="M501.70332,1218.35394l-.102-.13635a2.36824,2.36824,0,0,0-.36583-.44317l-.28766-.23417a1.65108,1.65108,0,0,0-2.27048,0,1.61538,1.61538,0,0,0-.47023,1.13524l.05735.42679a1.60391,1.60391,0,0,0,.41288.70844l.23385.288a3.0799,3.0799,0,0,0,.57948.46785l.38631.163a1.22506,1.22506,0,0,0,.64487.02888.80476.80476,0,0,0,.40811-.1104,1.21221,1.21221,0,0,0,.52046-.33438l.25287-.3273.163-.38631a1.225,1.225,0,0,0,.02889-.64487,1.2036,1.2036,0,0,0-.19191-.60127Z" transform="translate(-5.27968 -1003.89362)" style="fill:#231b52"/></svg>