<?xml version="1.0" encoding="utf-8"?>
<!-- Generator: Adobe Illustrator 24.1.3, SVG Export Plug-In . SVG Version: 6.00 Build 0)  -->
<svg version="1.1" id="Layer_1" xmlns="http://www.w3.org/2000/svg" xmlns:xlink="http://www.w3.org/1999/xlink" x="0px" y="0px"
	 viewBox="0 0 1080 1080" style="enable-background:new 0 0 1080 1080;" xml:space="preserve">
<style type="text/css">
	.st0{opacity:0.85;}
	.st1{opacity:0.41;}
	.st2{fill:#C0DEE8;}
	.st3{opacity:0.31;}
	.st4{opacity:0.47;}
	.st5{opacity:0.81;}
	.st6{opacity:0.58;fill:#304871;enable-background:new    ;}
	.st7{opacity:0.58;fill:#557CBE;enable-background:new    ;}
	.st8{opacity:0.58;fill:#FCB351;enable-background:new    ;}
	.st9{opacity:0.47;fill:#C0DEE8;enable-background:new    ;}
	.st10{opacity:0.86;}
	.st11{opacity:0.44;}
	.st12{fill:#F3F9FD;}
	.st13{fill:none;stroke:#F3F9FD;stroke-width:3;stroke-linecap:round;stroke-linejoin:round;stroke-miterlimit:10;}
	.st14{fill:#233963;}
	.st15{fill:#304871;}
	.st16{fill:#FFFFFF;}
	.st17{fill:#FCB351;}
	.st18{fill:#5C708F;}
	.st19{fill:#3BAED4;}
	.st20{fill:#557CBE;}
	.st21{opacity:0.11;}
	.st22{fill:none;}
	.st23{fill:#233963;stroke:#FFFFFF;stroke-width:2;stroke-miterlimit:10;}
	.st24{fill:none;stroke:#233963;stroke-width:3;stroke-linecap:round;stroke-miterlimit:10;}
	.st25{opacity:0.36;fill:#233963;enable-background:new    ;}
</style>
<g id="payment1">
	<g class="st0">
		<g>
			<g class="st1">
				<g>
					<g>
						<path class="st2" d="M954.8,639.9c0.7-12.6,0.4-25.2-1-37.7c-6.7-58.8-36.8-114.2-81.2-153.3c-15.8-14-33.9-26.5-44.2-44.9
							c-17.4-31-16-66.7-37.6-97.3c-21.6-30.7-53-54.6-88.4-66.8c-105.7-36.6-253.6,23-240.3,150.3c0,0.5,0.1,1.1,0.2,2
							c1.8,26.4-19,48.7-45.4,49.3c-97.5,2.3-181.4,77.5-199.3,172.7c-11.5,61.2,7.4,128.3,52.1,171.6
							c33.4,32.3,78.3,50.1,123.2,62.3c90,24.5,184.7,29.6,277.4,20.2c86.8-8.8,178.5-33.7,234.6-100.5
							C934.9,732.1,952.1,686.4,954.8,639.9z"/>
					</g>
				</g>
			</g>
			<g class="st3">
				
					<ellipse transform="matrix(0.9239 -0.3827 0.3827 0.9239 -40.9346 210.3726)" class="st2" cx="508.3" cy="208.1" rx="22.7" ry="22.7"/>
			</g>
			<g class="st3">
				<circle class="st2" cx="814.7" cy="194.2" r="11.7"/>
			</g>
			<g class="st3">
				<ellipse class="st2" cx="401.6" cy="258.8" rx="15.7" ry="15.7"/>
			</g>
		</g>
	</g>
	<g class="st0">
		<g>
			<g>
				<g class="st4">
					<path class="st2" d="M176.6,273.5c-10.2-19.8-2.4-44.1,17.5-54.3c19.8-10.2,57.9-9.4,68.1,10.4s-20.3,36.8-32.8,55.3
						C212,310.7,186.7,293.3,176.6,273.5z"/>
				</g>
				<g class="st4">
					<path class="st2" d="M270.1,889.8c-16.5,10.6-38.4,5.9-49.1-10.6c-10.6-16.5-13.3-49.9,3.2-60.5s34,14.6,51.3,23.9
						C299.5,855.5,286.5,879.1,270.1,889.8z"/>
				</g>
			</g>
			<g>
				<g class="st4">
					<path class="st2" d="M935.7,352.8c14.1,30.5,17.9,65.7,11.2,98.7c-7.9,38.7-32,68.4-23.7,109.7c5.1,25.1,6.4,48.4,8.9,73.3
						c5.3,51.1-27.9,96.1-69,120.4c-33.4,19.7-72.6,27.1-111,26.6c-34.6-0.5-69.1-6.9-102.6-15.4c-32.3-8.3-63.9-19.2-97.7-15.7
						c-28.2,2.9-53.5,15-79.7,24.1c-62.6,21.7-138.4,24.7-195.6-8.3c-36.7-21.2-62.4-55.5-73.8-92.5c-9.1-29.5-10.3-57.2-3.4-87.3
						c7-31,18.9-62.2,15.2-94.4c-2.6-22.5-12.8-44.2-11-66.7c1.3-15,7.8-29,15.9-41.7c29.5-46.3,78.8-77.3,130.9-94.4
						c49.1-16.1,99.7-27.7,150.8-23.9c105.7,8,127.2-8.8,235.2-31.9c69.7-14.9,147.7,38.2,188.5,99.8
						C928.9,339.4,932.6,346,935.7,352.8z"/>
				</g>
				<g>
					<g class="st5">
						<path class="st2" d="M863,400.4c2.2,24.4-6.1,49.5,0.8,73.7c8.2,28.9,32.1,50.6,41.8,79c14.4,41.9,13.7,88.9-3.8,129.8
							c-8.4,19.7-20.7,38-37.4,50.7c-25.8,19.5-59.7,23.8-91.5,21.3c-47.4-3.7-97.4-24.2-145-18.6c-26.3,3.1-34.3,31.5-47.9,50.3
							c-15.4,21.2-36.3,37.9-59.4,49C478,856,426.9,858,383.4,839.4c-46.5-19.8-86.9-68.1-84.3-122.7c1.2-25.3,11.3-50.4,6.7-75.2
							c-5.9-31.2-29.4-59.6-46.4-85c-18.8-28-30.2-61.5-32.4-95.6c0-0.4,0-0.8-0.1-1.2c-3.5-58.9,33.6-112.6,89.7-131l119.2-39.2
							c120.9-39.8,241.8-38.5,353,19.9c24.1,12.6,63.2,50.3,71.3,76.2C861.7,390.5,862.6,395.4,863,400.4z"/>
					</g>
				</g>
			</g>
		</g>
	</g>
	<circle class="st6" cx="935.6" cy="796.6" r="7.7"/>
	<circle class="st7" cx="682.1" cy="190.6" r="8.1"/>
	<circle class="st6" cx="317.8" cy="886.2" r="7.7"/>
	<circle class="st8" cx="788.2" cy="887.8" r="6"/>
	<circle class="st8" cx="306.2" cy="243.1" r="6"/>
	<circle class="st7" cx="258.6" cy="309" r="2.6"/>
	<path class="st7" d="M370.6,186.1c-0.4,2-2.3,3.2-4.3,2.8s-3.2-2.3-2.8-4.3c0.4-2,2.3-3.2,4.3-2.8
		C369.8,182.3,371,184.2,370.6,186.1z"/>
	<path class="st8" d="M953.7,519.1c-0.4,2-2.3,3.2-4.3,2.8s-3.2-2.3-2.8-4.3s2.3-3.2,4.3-2.8C952.8,515.2,954.1,517.1,953.7,519.1z"
		/>
	<path class="st6" d="M918.8,298.9c-0.4,1.7-2,2.7-3.6,2.4c-1.7-0.4-2.7-2-2.4-3.6c0.4-1.7,2-2.7,3.6-2.4
		C918.1,295.6,919.1,297.3,918.8,298.9z"/>
	<path class="st8" d="M886,217.9c0,6.5-5.2,11.7-11.7,11.7s-11.7-5.2-11.7-11.7s5.2-11.7,11.7-11.7S886,211.5,886,217.9z"/>
	<path class="st9" d="M189.1,578.2c0,5.2-4.2,9.4-9.4,9.4s-9.4-4.2-9.4-9.4s4.2-9.4,9.4-9.4S189.1,573,189.1,578.2z"/>
	<g>
		<g class="st10">
			<g>
				<g class="st11">
					<path class="st12" d="M568.3,769.9L568.3,769.9c-117.4,0-212.6-95.2-212.6-212.6l0,0c0-117.4,95.2-212.6,212.6-212.6l0,0
						c117.4,0,212.6,95.2,212.6,212.6l0,0C780.9,674.7,685.7,769.9,568.3,769.9z"/>
				</g>
				<g class="st10">
					<path class="st12" d="M568.3,769.9L568.3,769.9c-117.4,0-212.6-95.2-212.6-212.6l0,0c0-117.4,95.2-212.6,212.6-212.6l0,0
						c117.4,0,212.6,95.2,212.6,212.6l0,0C780.9,674.7,685.7,769.9,568.3,769.9z"/>
				</g>
				<path class="st13" d="M367.1,442.2c0,0,21.9-50.1,84.6-84.6"/>
				<path class="st13" d="M636.4,775.7c0,0,93.9-25.1,128.4-101.8"/>
				<g class="st10">
					<path class="st13" d="M690.4,367.8c0,0,50.1,21.9,84.6,84.6"/>
				</g>
				<g class="st10">
					<path class="st13" d="M356.9,637.1c0,0,25.1,93.9,101.8,128.4"/>
				</g>
			</g>
		</g>
	</g>
	<g>
		<g>
			<path class="st14" d="M546.2,745.3l5.5,1.7c7.6,2.4,15.8-1.9,18.1-9.5L696.4,332c2.4-7.6-1.9-15.8-9.5-18.1l-5.5-1.7
				c-7.6-2.4-15.8,1.9-18.1,9.5L536.7,727.2C534.3,734.8,538.6,742.9,546.2,745.3z"/>
			<path class="st14" d="M556.1,750.3c-1.7,0-3.4-0.3-5.1-0.8l-5.5-1.7l0,0c-4.3-1.4-7.9-4.3-10-8.4c-2.1-4-2.5-8.6-1.2-13
				l126.6-405.5c1.3-4.3,4.3-7.9,8.4-10c4-2.1,8.6-2.5,13-1.2l5.5,1.7c9,2.8,14,12.4,11.2,21.3L572.3,738.3c-1.3,4.3-4.3,7.9-8.4,10
				C561.5,749.6,558.8,750.3,556.1,750.3z"/>
		</g>
		<g>
			<path class="st15" d="M764.1,840.1l-187.5-58.5c-20.2-6.3-31.5-27.8-25.2-48L677.1,331c6.3-20.2,27.8-31.5,48-25.2l187.5,58.5
				c20.2,6.3,31.5,27.8,25.2,48L812.2,814.9C805.9,835.1,784.4,846.4,764.1,840.1z"/>
			<path class="st14" d="M775.6,844.4c-4,0-8.1-0.6-12.2-1.9l0,0L575.9,784c-10.4-3.3-19-10.4-24-20.1c-5.1-9.7-6.1-20.8-2.8-31.2
				l125.6-402.5c6.7-21.5,29.7-33.6,51.2-26.9l187.5,58.5c21.5,6.7,33.6,29.7,26.9,51.2L814.6,815.7
				C809.2,833.2,793,844.4,775.6,844.4z M764.9,837.7c9.1,2.8,18.8,2,27.3-2.5c8.5-4.4,14.7-11.9,17.5-21l125.6-402.5
				c5.9-18.8-4.7-39-23.5-44.8l-187.5-58.5c-18.8-5.9-39,4.7-44.8,23.5L553.9,734.3c-2.8,9.1-2,18.8,2.5,27.3
				c4.4,8.5,11.9,14.7,21,17.5L764.9,837.7z"/>
		</g>
		<g>
			
				<rect x="696.6" y="343.4" transform="matrix(0.298 -0.9546 0.9546 0.298 110.7731 1066.7039)" class="st16" width="168" height="229.3"/>
			<path class="st14" d="M864.9,574.9c-0.3,0-0.5,0-0.8-0.1l-218.9-68.3c-0.6-0.2-1.2-0.7-1.5-1.3c-0.3-0.6-0.4-1.3-0.2-2
				l50.1-160.4c0.2-0.6,0.7-1.2,1.3-1.5s1.3-0.4,2-0.2l218.9,68.3c0.6,0.2,1.2,0.7,1.5,1.3c0.3,0.6,0.4,1.3,0.2,2l-50.1,160.4
				C867,574.2,866,574.9,864.9,574.9z M649.3,502.3l214,66.8l48.5-155.5l-214-66.8L649.3,502.3z"/>
		</g>
		<path class="st16" d="M888.6,382c-0.2,0-0.3,0-0.5-0.1l-152.8-47.7c-0.9-0.3-1.4-1.2-1.1-2.1c0.3-0.9,1.2-1.4,2.1-1.1l152.8,47.7
			c0.9,0.3,1.4,1.2,1.1,2.1C890,381.5,889.3,382,888.6,382z"/>
		<g>
			<path class="st17" d="M735.2,386.5l-34.1-10.6c-1.1-0.3-1.7-1.5-1.3-2.5l2-6.3c0.3-1.1,1.5-1.7,2.5-1.3l34.1,10.6
				c1.1,0.3,1.7,1.5,1.3,2.5l-2,6.3C737.4,386.3,736.3,386.9,735.2,386.5z"/>
			<path class="st14" d="M735.8,388.3c-0.4,0-0.7-0.1-1.1-0.2l0,0l-34.1-10.6c-2-0.6-3.1-2.7-2.4-4.7l2-6.3c0.3-0.9,0.9-1.7,1.8-2.2
				c0.9-0.5,1.9-0.6,2.8-0.3l34.1,10.6c0.9,0.3,1.7,0.9,2.2,1.8s0.6,1.9,0.3,2.8l-2,6.3c-0.3,0.9-0.9,1.7-1.8,2.2
				C737,388.2,736.4,388.3,735.8,388.3z M735.7,384.9c0.2,0,0.3,0,0.4-0.2l2-6.3c0-0.1-0.1-0.3-0.2-0.4l-34.1-10.6
				c-0.1,0-0.3,0.1-0.4,0.2l-2,6.3c0,0.2,0,0.3,0.2,0.4L735.7,384.9z"/>
		</g>
		<g>
			<path class="st17" d="M785.8,402.3l-34.1-10.6c-1.1-0.3-1.7-1.5-1.3-2.5l2-6.3c0.3-1.1,1.5-1.7,2.5-1.3l34.1,10.6
				c1.1,0.3,1.7,1.5,1.3,2.5l-2,6.3C788,402.1,786.9,402.7,785.8,402.3z"/>
			<path class="st14" d="M786.4,404.1c-0.4,0-0.7-0.1-1.1-0.2l0,0l-34.1-10.6c-2-0.6-3.1-2.7-2.4-4.7l2-6.3c0.6-2,2.7-3.1,4.7-2.4
				l34.1,10.6c0.9,0.3,1.7,0.9,2.2,1.8s0.6,1.9,0.3,2.8l-2,6.3c-0.3,0.9-0.9,1.7-1.8,2.2C787.6,404,787,404.1,786.4,404.1z
				 M786.3,400.7c0.1,0,0.3-0.1,0.4-0.2l2-6.3c0-0.1-0.1-0.3-0.2-0.4l-34.1-10.6c-0.1,0-0.3,0.1-0.4,0.2l-2,6.3
				c-0.1,0.2,0,0.3,0.2,0.4L786.3,400.7z"/>
		</g>
		<g>
			<path class="st17" d="M840.3,419.3l-34.1-10.6c-1.1-0.3-1.7-1.5-1.3-2.5l2-6.3c0.3-1.1,1.5-1.7,2.5-1.3l34.1,10.6
				c1.1,0.3,1.7,1.5,1.3,2.5l-2,6.3C842.5,419.1,841.3,419.7,840.3,419.3z"/>
			<path class="st14" d="M840.9,421.1c-0.4,0-0.7-0.1-1.1-0.2l0,0l-34.1-10.6c-2-0.6-3.1-2.7-2.4-4.7l2-6.3c0.3-0.9,0.9-1.7,1.8-2.2
				c0.9-0.5,1.9-0.6,2.8-0.3l34.1,10.6c2,0.6,3.1,2.7,2.4,4.7l-2,6.3C843.9,420.1,842.5,421.1,840.9,421.1z M840.8,417.7
				c0.2,0,0.3,0,0.4-0.2l2-6.3c0-0.2,0-0.3-0.2-0.4l-34.1-10.6c-0.1,0-0.3,0.1-0.4,0.2l-2,6.3c-0.1,0.2,0,0.3,0.2,0.4L840.8,417.7z"
				/>
		</g>
		<g>
			<path class="st17" d="M891.5,435.3l-34.1-10.6c-1.1-0.3-1.7-1.5-1.3-2.5l2-6.3c0.3-1.1,1.5-1.7,2.5-1.3l34.1,10.6
				c1.1,0.3,1.7,1.5,1.3,2.5l-2,6.3C893.7,435.1,892.6,435.7,891.5,435.3z"/>
			<path class="st14" d="M892.1,437.1c-0.4,0-0.7-0.1-1.1-0.2l0,0l-34-10.6c-0.9-0.3-1.7-0.9-2.2-1.8s-0.6-1.9-0.3-2.8l2-6.3
				c0.6-2,2.7-3.1,4.7-2.4l34.1,10.6c2,0.6,3.1,2.7,2.4,4.7l-2,6.3c-0.3,0.9-0.9,1.7-1.8,2.2C893.3,437,892.7,437.1,892.1,437.1z
				 M892,433.7c0.2,0,0.3,0,0.4-0.2l2-6.3c0-0.2,0-0.3-0.2-0.4l-34.1-10.6c-0.2-0.1-0.3,0-0.4,0.2l-2,6.3c0,0.1,0.1,0.3,0.2,0.4
				L892,433.7z"/>
		</g>
		<g>
			
				<rect x="725.6" y="456.6" transform="matrix(0.298 -0.9546 0.9546 0.298 -18.4343 1111.1392)" class="st14" width="41.3" height="223"/>
			<path class="st14" d="M846.5,623.6c-0.3,0-0.5,0-0.8-0.1L632.8,557c-1.3-0.4-2.1-1.9-1.7-3.2l12.3-39.4c0.2-0.6,0.7-1.2,1.3-1.5
				s1.3-0.4,2-0.2l212.9,66.5c1.3,0.4,2.1,1.9,1.7,3.2L849,621.8c-0.2,0.6-0.7,1.2-1.3,1.5C847.3,623.5,846.9,623.6,846.5,623.6z
				 M636.8,552.9l208,64.9l10.8-34.5l-208-64.9L636.8,552.9z"/>
		</g>
		<path class="st16" d="M705.2,564.8c-0.4,0-0.8-0.1-1.3-0.2l-37.8-11.8c-2.2-0.7-3.5-3.1-2.8-5.3l3.3-10.5c0.3-1.1,1.1-2,2.1-2.5
			s2.2-0.6,3.3-0.3l37.8,11.8c1.1,0.3,2,1.1,2.5,2.1s0.6,2.2,0.3,3.3l-3.3,10.5C708.7,563.6,707,564.8,705.2,564.8z M704.4,563
			c1.3,0.4,2.8-0.3,3.2-1.7l3.3-10.5c0.2-0.7,0.1-1.3-0.2-2c-0.3-0.6-0.9-1.1-1.5-1.3l-37.8-11.8c-0.6-0.2-1.3-0.1-1.9,0.2
			c-0.6,0.3-1.1,0.9-1.3,1.5L665,548c-0.4,1.3,0.3,2.8,1.7,3.2L704.4,563z"/>
		<path class="st16" d="M763.6,583c-0.4,0-0.9-0.1-1.3-0.2L724.5,571c-1.1-0.3-2-1.1-2.5-2.1s-0.6-2.2-0.3-3.3l3.3-10.5
			c0.3-1.1,1.1-2,2.1-2.5s2.2-0.6,3.3-0.3l37.8,11.8c1.1,0.3,2,1.1,2.5,2.1s0.6,2.2,0.3,3.3l-3.3,10.5c-0.3,1.1-1.1,2-2.1,2.5
			C764.9,582.9,764.3,583,763.6,583z M762.8,581.2c0.7,0.2,1.3,0.1,1.9-0.2c0.6-0.3,1.1-0.9,1.3-1.5l3.3-10.5
			c0.2-0.7,0.1-1.3-0.2-1.9c-0.3-0.6-0.9-1.1-1.5-1.3L729.9,554c-0.7-0.2-1.3-0.1-1.9,0.2c-0.6,0.3-1.1,0.9-1.3,1.5l-3.3,10.5
			c-0.2,0.7-0.1,1.3,0.2,2c0.3,0.6,0.9,1.1,1.5,1.3L762.8,581.2z"/>
		<path class="st16" d="M822.6,601.5c-0.4,0-0.9-0.1-1.3-0.2l-37.8-11.8c-2.2-0.7-3.5-3.1-2.8-5.3l3.3-10.5c0.3-1.1,1.1-2,2.1-2.5
			s2.2-0.6,3.3-0.3l37.8,11.8c1.1,0.3,2,1.1,2.5,2.1s0.6,2.2,0.3,3.3l-3.3,10.5c-0.3,1.1-1.1,2-2.1,2.5
			C824,601.3,823.3,601.5,822.6,601.5z M821.8,599.6c0.7,0.2,1.3,0.1,1.9-0.2c0.6-0.3,1.1-0.9,1.3-1.5l3.3-10.5
			c0.2-0.7,0.1-1.3-0.2-1.9c-0.3-0.6-0.9-1.1-1.5-1.3l-37.8-11.8c-0.7-0.2-1.3-0.1-1.9,0.2c-0.6,0.3-1.1,0.9-1.3,1.5l-3.3,10.5
			c-0.4,1.3,0.3,2.8,1.7,3.2L821.8,599.6z"/>
		<g>
			<path class="st18" d="M658.5,636.5l-27.1-8.5c-7.6-2.4-11.9-10.5-9.5-18.1l4.9-15.7c2.4-7.6,10.5-11.9,18.1-9.5l27.1,8.5
				c7.6,2.4,11.9,10.5,9.5,18.1l-4.9,15.7C674.2,634.6,666.1,638.8,658.5,636.5z"/>
			<path class="st14" d="M662.8,639.7c-1.7,0-3.4-0.3-5.1-0.8l-27.1-8.5c-9-2.8-14-12.4-11.2-21.3l4.9-15.7c2.8-9,12.4-14,21.3-11.2
				l27.1,8.5c9,2.8,14,12.4,11.2,21.3l-4.9,15.7c-1.4,4.3-4.3,7.9-8.4,10C668.2,639,665.5,639.7,662.8,639.7z M640.6,586.6
				c-5.1,0-9.8,3.3-11.4,8.4l-4.9,15.7c-2,6.3,1.6,13,7.8,14.9l27.1,8.5l0,0c3,0.9,6.2,0.6,9.1-0.8c2.8-1.5,4.9-4,5.9-7l4.9-15.7
				c2-6.3-1.6-13-7.8-14.9l-27.1-8.5C643,586.8,641.8,586.6,640.6,586.6z"/>
		</g>
		<g>
			<path class="st18" d="M732.5,659.6l-27.1-8.5c-7.6-2.4-11.9-10.5-9.5-18.1l4.9-15.7c2.4-7.6,10.5-11.9,18.1-9.5l27.1,8.5
				c7.6,2.4,11.9,10.5,9.5,18.1l-4.9,15.7C748.2,657.7,740.1,662,732.5,659.6z"/>
			<path class="st14" d="M736.8,662.8c-1.7,0-3.4-0.3-5.1-0.8l0,0l-27.1-8.5c-9-2.8-14-12.4-11.2-21.3l4.9-15.7
				c1.3-4.3,4.3-7.9,8.4-10c4-2.1,8.6-2.5,13-1.2l27.1,8.5c9,2.8,14,12.4,11.2,21.3l-4.9,15.7c-1.3,4.3-4.3,7.9-8.4,10
				C742.2,662.1,739.5,662.8,736.8,662.8z M733.2,657.1c3,0.9,6.2,0.6,9.1-0.8c2.8-1.5,4.9-4,5.8-7l4.9-15.7c0.9-3,0.6-6.2-0.8-9.1
				c-1.5-2.8-4-4.9-7-5.8l-27.1-8.5c-3-0.9-6.2-0.6-9.1,0.8c-2.8,1.5-4.9,4-5.8,7l-4.9,15.7c-0.9,3-0.6,6.2,0.8,9.1
				c1.5,2.8,4,4.9,7,5.8L733.2,657.1z"/>
		</g>
		<g>
			<path class="st18" d="M805.4,682.3l-27.1-8.5c-7.6-2.4-11.9-10.5-9.5-18.1l4.9-15.7c2.4-7.6,10.5-11.9,18.1-9.5l27.1,8.5
				c7.6,2.4,11.9,10.5,9.5,18.1l-4.9,15.7C821.1,680.4,813,684.7,805.4,682.3z"/>
			<path class="st14" d="M809.7,685.6c-1.7,0-3.4-0.2-5.1-0.8l-27.1-8.5c-9-2.8-14-12.4-11.2-21.3l4.9-15.7c1.4-4.3,4.3-7.9,8.4-10
				c4-2.1,8.6-2.5,13-1.2l27.1,8.5c9,2.8,14,12.4,11.2,21.3l-4.9,15.7C823.7,680.9,816.9,685.6,809.7,685.6z M787.5,632.5
				c-1.9,0-3.8,0.5-5.5,1.4c-2.8,1.5-4.9,4-5.9,7l-4.9,15.7c-2,6.3,1.6,13,7.8,14.9l27.1,8.5l0,0c6.3,2,13-1.5,14.9-7.8l4.9-15.7
				c2-6.3-1.6-13-7.8-14.9l-27.1-8.5C789.9,632.6,788.7,632.5,787.5,632.5z"/>
		</g>
		<g>
			<path class="st18" d="M640.4,694.4l-27.1-8.5c-7.6-2.4-11.9-10.5-9.5-18.1l4.9-15.7c2.4-7.6,10.5-11.9,18.1-9.5l27.1,8.5
				c7.6,2.4,11.9,10.5,9.5,18.1l-4.9,15.7C656.1,692.5,648,696.8,640.4,694.4z"/>
			<path class="st14" d="M644.7,697.7c-1.7,0-3.4-0.3-5.1-0.8l0,0l-27.1-8.5c-4.3-1.3-7.9-4.3-10-8.4c-2.1-4-2.5-8.6-1.2-13
				l4.9-15.7c2.8-9,12.4-14,21.3-11.2l27.1,8.5c4.3,1.3,7.9,4.3,10,8.4c2.1,4,2.5,8.6,1.2,13l-4.9,15.7
				C658.7,693,651.9,697.7,644.7,697.7z M641.1,692c6.3,2,13-1.6,14.9-7.8l4.9-15.7c0.9-3,0.6-6.2-0.8-9.1c-1.5-2.8-4-4.9-7-5.8
				l-27.1-8.5c-3-0.9-6.2-0.6-9.1,0.8c-2.8,1.5-4.9,4-5.8,7l-4.9,15.7c-0.9,3-0.6,6.2,0.8,9.1c1.5,2.8,4,4.9,7,5.8L641.1,692z"/>
		</g>
		<g>
			<path class="st18" d="M714.4,717.5l-27.1-8.5c-7.6-2.4-11.9-10.5-9.5-18.1l4.9-15.7c2.4-7.6,10.5-11.9,18.1-9.5l27.1,8.5
				c7.6,2.4,11.9,10.5,9.5,18.1l-4.9,15.7C730.1,715.6,722,719.9,714.4,717.5z"/>
			<path class="st14" d="M718.7,720.8c-1.7,0-3.4-0.2-5.1-0.8l0,0l-27.1-8.5c-4.3-1.3-7.9-4.3-10-8.4c-2.1-4-2.5-8.6-1.2-13
				l4.9-15.7c2.8-9,12.4-14,21.3-11.2l27.1,8.5c4.3,1.3,7.9,4.3,10,8.4c2.1,4,2.5,8.6,1.2,13l-4.9,15.7
				C732.7,716.1,725.9,720.8,718.7,720.8z M715.2,715.1c6.3,2,13-1.6,14.9-7.8l4.9-15.7c0.9-3,0.6-6.2-0.8-9.1c-1.5-2.8-4-4.9-7-5.8
				l-27.1-8.5c-6.3-1.9-13,1.6-14.9,7.8l-4.9,15.7c-0.9,3-0.6,6.2,0.8,9.1c1.5,2.8,4,4.9,7,5.8L715.2,715.1z"/>
		</g>
		<g>
			<path class="st18" d="M787.3,740.3l-27.1-8.5c-7.6-2.4-11.9-10.5-9.5-18.1l4.9-15.7c2.4-7.6,10.5-11.9,18.1-9.5l27.1,8.5
				c7.6,2.4,11.9,10.5,9.5,18.1l-4.9,15.7C803.1,738.4,794.9,742.7,787.3,740.3z"/>
			<path class="st14" d="M791.6,743.5c-1.7,0-3.4-0.2-5.1-0.8l0,0l-27.1-8.5c-9-2.8-14-12.4-11.2-21.3l4.9-15.7
				c2.8-9,12.4-14,21.3-11.2l27.1,8.5c4.3,1.3,7.9,4.3,10,8.4c2.1,4,2.5,8.6,1.2,13l-4.9,15.7C805.6,738.9,798.9,743.5,791.6,743.5z
				 M788.1,737.9c6.3,2,13-1.6,14.9-7.8l4.9-15.7c0.9-3,0.6-6.2-0.8-9.1c-1.5-2.8-4-4.9-7-5.8L773,691c-3-0.9-6.2-0.6-9.1,0.8
				c-2.8,1.5-4.9,4-5.8,7l-4.9,15.7c-2,6.3,1.6,13,7.8,14.9L788.1,737.9z"/>
		</g>
		<g>
			<path class="st19" d="M622.3,752.4l-27.1-8.5c-7.6-2.4-11.9-10.5-9.5-18.1l4.9-15.7c2.4-7.6,10.5-11.9,18.1-9.5l27.1,8.5
				c7.6,2.4,11.9,10.5,9.5,18.1l-4.9,15.7C638,750.5,629.9,754.8,622.3,752.4z"/>
			<path class="st14" d="M626.6,755.6c-1.7,0-3.4-0.3-5.1-0.8l0,0l-27.1-8.5c-4.3-1.3-7.9-4.3-10-8.4c-2.1-4-2.5-8.6-1.2-13
				l4.9-15.7c1.3-4.3,4.3-7.9,8.4-10c4-2.1,8.6-2.5,13-1.2l27.1,8.5c9,2.8,14,12.4,11.2,21.3l-4.9,15.7c-1.3,4.3-4.3,7.9-8.4,10
				C632,755,629.3,755.6,626.6,755.6z M623,750c3,0.9,6.2,0.6,9.1-0.8c2.8-1.5,4.9-4,5.8-7l4.9-15.7c0.9-3,0.6-6.2-0.8-9.1
				c-1.5-2.8-4-4.9-7-5.8l-27.1-8.5c-3-0.9-6.2-0.6-9.1,0.8c-2.8,1.5-4.9,4-5.8,7l-4.9,15.7c-0.9,3-0.6,6.2,0.8,9.1
				c1.5,2.8,4,4.9,7,5.8L623,750z"/>
		</g>
		<g>
			<path class="st17" d="M696.3,775.5l-27.1-8.5c-7.6-2.4-11.9-10.5-9.5-18.1l4.9-15.7c2.4-7.6,10.5-11.9,18.1-9.5l27.1,8.5
				c7.6,2.4,11.9,10.5,9.5,18.1l-4.9,15.7C712,773.6,703.9,777.9,696.3,775.5z"/>
			<path class="st14" d="M700.6,778.7c-1.7,0-3.4-0.3-5.1-0.8l-27.1-8.5c-4.3-1.3-7.9-4.3-10-8.4c-2.1-4-2.5-8.6-1.2-13l4.9-15.7
				c1.3-4.3,4.3-7.9,8.4-10c4-2.1,8.6-2.5,13-1.2l27.1,8.5c9,2.8,14,12.4,11.2,21.3l-4.9,15.7c-1.4,4.3-4.3,7.9-8.4,10
				C706,778.1,703.3,778.7,700.6,778.7z M678.4,725.6c-1.9,0-3.8,0.5-5.5,1.4c-2.8,1.5-4.9,4-5.8,7l-4.9,15.7
				c-0.9,3-0.6,6.2,0.8,9.1c1.5,2.8,4,4.9,7,5.8l27.1,8.5l0,0c3,0.9,6.2,0.6,9.1-0.8c2.8-1.5,4.9-4,5.8-7l4.9-15.7
				c2-6.3-1.6-13-7.8-14.9l-27.1-8.5C680.8,725.8,679.6,725.6,678.4,725.6z"/>
		</g>
		<g>
			<path class="st20" d="M769.2,798.3l-27.1-8.5c-7.6-2.4-11.9-10.5-9.5-18.1l4.9-15.7c2.4-7.6,10.5-11.9,18.1-9.5l27.1,8.5
				c7.6,2.4,11.9,10.5,9.5,18.1l-4.9,15.7C785,796.4,776.8,800.6,769.2,798.3z"/>
			<path class="st14" d="M773.5,801.5c-1.7,0-3.4-0.3-5.1-0.8l0,0l-27.1-8.5c-4.3-1.3-7.9-4.3-10-8.4c-2.1-4-2.5-8.6-1.2-13
				l4.9-15.7c1.3-4.3,4.3-7.9,8.4-10c4-2.1,8.6-2.5,13-1.2l27.1,8.5c4.3,1.3,7.9,4.3,10,8.4c2.1,4,2.5,8.6,1.2,13l-4.9,15.7
				c-1.3,4.3-4.3,7.9-8.4,10C778.9,800.8,776.2,801.5,773.5,801.5z M770,795.8c3,0.9,6.2,0.6,9.1-0.8c2.8-1.5,4.9-4,5.8-7l4.9-15.7
				c0.9-3,0.6-6.2-0.8-9.1c-1.5-2.8-4-4.9-7-5.8l-27.1-8.5c-3-0.9-6.2-0.6-9.1,0.8c-2.8,1.5-4.9,4-5.8,7l-4.9,15.7
				c-0.9,3-0.6,6.2,0.8,9.1c1.5,2.8,4,4.9,7,5.8L770,795.8z"/>
		</g>
		<g>
			<path class="st14" d="M761.2,849L574,790.6c-6-1.9-9.4-8.4-7.5-14.4l0,0c1.9-6,8.4-9.4,14.4-7.5L768,827c6,1.9,9.4,8.4,7.5,14.4
				l0,0C773.7,847.5,767.2,850.9,761.2,849z"/>
			<path class="st14" d="M764.6,852.1c-1.4,0-2.8-0.2-4.2-0.6l0,0L573.3,793c-7.4-2.3-11.5-10.2-9.2-17.6
				c2.3-7.4,10.2-11.5,17.6-9.2l187.1,58.4c3.6,1.1,6.5,3.6,8.2,6.9c1.7,3.3,2.1,7.1,1,10.7C776.1,848.2,770.6,852.1,764.6,852.1z
				 M761.9,846.5c4.7,1.5,9.7-1.2,11.2-5.9c0.7-2.3,0.5-4.7-0.6-6.8s-3-3.7-5.2-4.4L580.2,771c-4.7-1.5-9.7,1.2-11.2,5.9
				s1.2,9.7,5.9,11.2L761.9,846.5z"/>
		</g>
		<path class="st16" d="M758.2,759.2c0,2.2-1.8,4.1-4.1,4.1c-2.2,0-4.1-1.8-4.1-4.1c0-2.2,1.8-4.1,4.1-4.1
			C756.4,755.1,758.2,756.9,758.2,759.2z"/>
		<path class="st16" d="M685.3,736.9c0,2.2-1.8,4.1-4.1,4.1c-2.2,0-4.1-1.8-4.1-4.1c0-2.2,1.8-4.1,4.1-4.1
			C683.5,732.8,685.3,734.6,685.3,736.9z"/>
		<path class="st16" d="M608.9,712.5c0,2.2-1.8,4.1-4.1,4.1c-2.2,0-4.1-1.8-4.1-4.1c0-2.2,1.8-4.1,4.1-4.1
			C607,708.4,608.9,710.2,608.9,712.5z"/>
		<path class="st16" d="M777.8,788.8c0,1.2-0.9,2.1-2.1,2.1c-1.2,0-2.1-0.9-2.1-2.1c0-1.2,0.9-2.1,2.1-2.1
			C776.8,786.7,777.8,787.7,777.8,788.8z"/>
		<path class="st14" d="M790.3,639.9c0,1.5-1.2,2.7-2.7,2.7s-2.7-1.2-2.7-2.7s1.2-2.7,2.7-2.7C789.1,637.1,790.3,638.3,790.3,639.9z
			"/>
		<path class="st14" d="M770.9,700.7c0,1.5-1.2,2.7-2.7,2.7s-2.7-1.2-2.7-2.7s1.2-2.7,2.7-2.7S770.9,699.2,770.9,700.7z"/>
		<g>
			<path class="st15" d="M857.4,542.5c0,3.9-3.2,7.1-7.1,7.1c-3.9,0-7.1-3.2-7.1-7.1c0-3.9,3.2-7.1,7.1-7.1S857.4,538.6,857.4,542.5
				z"/>
			<path class="st14" d="M850.3,552.2c-5.3,0-9.7-4.3-9.7-9.7c0-5.3,4.3-9.7,9.7-9.7c5.3,0,9.7,4.3,9.7,9.7
				C860,547.8,855.6,552.2,850.3,552.2z M850.3,537.9c-2.5,0-4.6,2-4.6,4.6c0,2.5,2,4.6,4.6,4.6c2.5,0,4.6-2,4.6-4.6
				C854.8,540,852.8,537.9,850.3,537.9z"/>
		</g>
	</g>
	<g>
		<g>
			<g>
				<circle class="st14" cx="447.9" cy="770.1" r="85.7"/>
			</g>
			<g>
				<g>
					
						<ellipse transform="matrix(0.7071 -0.7071 0.7071 0.7071 -412.5423 535.0827)" class="st14" cx="439.6" cy="765.5" rx="85.7" ry="85.7"/>
					<g>
						
							<ellipse transform="matrix(0.7071 -0.7071 0.7071 0.7071 -412.5423 535.0827)" class="st17" cx="439.6" cy="765.5" rx="85.7" ry="85.7"/>
						<path class="st14" d="M439.6,853.7c-48.7,0-88.3-39.6-88.3-88.3s39.6-88.3,88.3-88.3s88.3,39.6,88.3,88.3
							C527.9,814.1,488.3,853.7,439.6,853.7z M439.6,682.3c-45.9,0-83.2,37.3-83.2,83.2s37.3,83.2,83.2,83.2s83.2-37.3,83.2-83.2
							C522.8,719.6,485.5,682.3,439.6,682.3z"/>
					</g>
					<path class="st16" d="M439.6,836.2c-39,0-70.8-31.7-70.8-70.8c0-39,31.7-70.8,70.8-70.8c39,0,70.8,31.7,70.8,70.8
						C510.4,804.5,478.6,836.2,439.6,836.2z M439.6,698.1c-37.1,0-67.3,30.2-67.3,67.3s30.2,67.3,67.3,67.3s67.3-30.2,67.3-67.3
						C506.9,728.3,476.7,698.1,439.6,698.1z"/>
					<path class="st16" d="M438.8,828.5c-34.8,0-63.1-28.3-63.1-63.1s28.3-63.1,63.1-63.1s63.1,28.3,63.1,63.1
						S473.6,828.5,438.8,828.5z M438.8,705.8c-32.9,0-59.7,26.8-59.7,59.7s26.8,59.7,59.7,59.7s59.7-26.8,59.7-59.7
						C498.5,732.5,471.7,705.8,438.8,705.8z"/>
					<g>
						<path class="st14" d="M462.5,775.3c0,5.6-2.2,11-6.1,14.9c-2.6,2.7-5.7,4.6-9.2,5.6v4.1c0,1.9-0.7,3.8-2,5.1
							c-1.3,1.4-3.1,2.1-5,2.1c-2.1,0-3.9-0.8-5.2-2.1c-1.4-1.4-2.2-3.2-2.2-5.1v-3.3h-6.7c-3.1,0-5.6-1-7.3-2.6
							c-1.7-1.6-2.6-3.9-2.6-6.5c0-5.3,3.5-8,9.9-8h16c0.6,0,1.5-0.2,2.1-0.8c0.8-0.6,1.2-1.5,1.2-2.4c0-1.4-0.5-2.3-1.6-2.9
							c-0.5-0.2-0.9-0.3-1.1-0.4c-0.3,0-0.5-0.1-0.5-0.1h-7.6c-5.3-0.1-10.2-2.2-13.7-5.7s-5.6-8.2-5.6-13.4
							c0-5.5,2.3-10.8,6.2-14.7c3.1-3.1,7.1-5.2,11.5-5.9v-2.7c0-2,0.7-3.7,2.2-5.1c1.4-1.4,3.2-2.1,5.2-2.1c1.9,0,3.7,0.8,5,2.1
							c1.4,1.5,2.1,3.2,2.1,5.1v2.4h2.6c6.4,0,10.1,3.1,10.1,8.3c0,5.8-3.7,8.9-10.1,8.9h-14.9c-1.7,0-2.8,1.1-2.8,2.7
							c0,1.6,0.9,2.9,2.3,2.9h7.3c5.7,0,10.9,2,14.8,5.5C460.3,764.8,462.5,769.7,462.5,775.3z"/>
					</g>
				</g>
				<path class="st14" d="M487.9,768.1c0,3.4-2.8,6.2-6.2,6.2c-3.4,0-6.2-2.8-6.2-6.2s2.8-6.2,6.2-6.2
					C485.1,761.9,487.9,764.7,487.9,768.1z"/>
				<path class="st14" d="M401,768.1c0,3.4-2.8,6.2-6.2,6.2c-3.4,0-6.2-2.8-6.2-6.2s2.8-6.2,6.2-6.2
					C398.2,761.9,401,764.7,401,768.1z"/>
			</g>
		</g>
		<g>
			<g>
				<path class="st14" d="M381.4,665c-3.7,16.7-20.3,27.2-37,23.5s-27.2-20.3-23.5-37s20.3-27.2,37-23.5
					C374.6,631.8,385.1,648.3,381.4,665z"/>
			</g>
			<g>
				<g>
					<ellipse class="st14" cx="348.6" cy="656" rx="31" ry="31"/>
					<g>
						<ellipse class="st17" cx="348.6" cy="656" rx="31" ry="31"/>
						<path class="st14" d="M348.6,688.7c-2.4,0-4.7-0.3-7.1-0.8c-8.5-1.9-15.8-7-20.5-14.4s-6.2-16.1-4.3-24.6
							c1.9-8.5,7-15.8,14.4-20.5s16.1-6.2,24.6-4.3s15.8,7,20.5,14.4s6.2,16.1,4.3,24.6l0,0C377.1,678.3,363.6,688.7,348.6,688.7z
							 M348.6,626.7c-5.5,0-10.9,1.6-15.6,4.6c-6.6,4.2-11.2,10.7-12.9,18.3c-1.7,7.6-0.3,15.5,3.8,22.1
							c4.2,6.6,10.7,11.2,18.3,12.9c15.7,3.5,31.4-6.4,34.9-22.2c1.7-7.6,0.3-15.5-3.8-22.1c-4.2-6.6-10.7-11.2-18.3-12.9
							C352.9,627,350.7,626.7,348.6,626.7z M378.8,662.8L378.8,662.8L378.8,662.8z"/>
					</g>
					<path class="st16" d="M348.7,681.6c-1.9,0-3.7-0.2-5.6-0.6l0,0c-13.8-3.1-22.5-16.8-19.4-30.5c1.5-6.7,5.5-12.3,11.3-16
						s12.6-4.9,19.3-3.4c13.8,3.1,22.5,16.8,19.4,30.5c-1.5,6.7-5.5,12.3-11.3,16C358.2,680.2,353.4,681.6,348.7,681.6z
						 M343.3,679.7c6.3,1.4,12.8,0.3,18.3-3.2s9.3-8.9,10.7-15.2c2.9-13.1-5.3-26.1-18.4-29c-6.3-1.4-12.8-0.3-18.3,3.2
						s-9.3,8.9-10.7,15.2C322,663.8,330.2,676.8,343.3,679.7L343.3,679.7z"/>
					<path class="st16" d="M348.3,678.8c-1.6,0-3.3-0.2-5-0.6c-12.3-2.7-20-15-17.3-27.2c1.3-5.9,4.9-11,10.1-14.3s11.3-4.3,17.2-3
						c12.3,2.7,20,15,17.3,27.2C368.2,671.5,358.8,678.8,348.3,678.8z M348.3,634.4c-4,0-8,1.1-11.5,3.4c-4.9,3.1-8.2,7.9-9.5,13.5
						c-2.6,11.6,4.7,23.1,16.3,25.7c5.6,1.3,11.4,0.2,16.2-2.8c4.9-3.1,8.2-7.9,9.5-13.5s0.2-11.4-2.8-16.2
						c-3.1-4.9-7.9-8.2-13.5-9.5l0,0C351.5,634.6,349.9,634.4,348.3,634.4z"/>
					<g>
						<path class="st14" d="M355.9,661.3c-0.4,2-1.7,3.7-3.3,4.8c-1.1,0.8-2.4,1.2-3.7,1.3l-0.3,1.4c-0.2,0.7-0.6,1.3-1.1,1.7
							c-0.6,0.4-1.3,0.5-1.9,0.4c-0.7-0.2-1.3-0.6-1.7-1.2c-0.4-0.6-0.5-1.3-0.4-2l0.3-1.2l-2.4-0.5c-1.1-0.2-1.9-0.8-2.4-1.5
							s-0.6-1.6-0.4-2.5c0.4-1.9,1.9-2.5,4.1-2l5.6,1.3c0.2,0,0.5,0,0.8-0.1c0.3-0.2,0.5-0.4,0.6-0.8c0.1-0.5,0-0.9-0.3-1.1
							c-0.2-0.1-0.3-0.2-0.4-0.2s-0.2-0.1-0.2-0.1l-2.7-0.6c-1.9-0.5-3.4-1.6-4.4-3.1s-1.3-3.3-0.9-5.2s1.7-3.6,3.3-4.7
							c1.3-0.8,2.9-1.3,4.5-1.2l0.2-1c0.2-0.7,0.5-1.2,1.2-1.6c0.6-0.4,1.3-0.5,2-0.3c0.7,0.1,1.2,0.6,1.6,1.2
							c0.4,0.6,0.5,1.3,0.3,2l-0.2,0.9l0.9,0.2c2.2,0.5,3.3,1.9,2.9,3.7c-0.5,2.1-2,2.9-4.3,2.4l-5.2-1.2c-0.6-0.1-1.1,0.2-1.2,0.7
							c-0.1,0.6,0.1,1.1,0.6,1.2l2.6,0.6c2,0.4,3.7,1.6,4.8,3.1C356,657.4,356.3,659.3,355.9,661.3z"/>
					</g>
				</g>
				<path class="st14" d="M365.4,660.7c-0.3,1.2-1.5,2-2.7,1.7s-2-1.5-1.7-2.7s1.5-2,2.7-1.7C365,658.3,365.7,659.5,365.4,660.7z"/>
				<path class="st14" d="M334.8,653.9c-0.3,1.2-1.5,2-2.7,1.7s-2-1.5-1.7-2.7s1.5-2,2.7-1.7S335.1,652.7,334.8,653.9z"/>
			</g>
		</g>
		<g>
			<g>
				<ellipse class="st14" cx="298" cy="737.6" rx="41.7" ry="41.7"/>
			</g>
		</g>
		<g>
			<ellipse class="st14" cx="293.5" cy="736.5" rx="41.7" ry="41.7"/>
			<g>
				<ellipse class="st17" cx="293.5" cy="736.5" rx="41.7" ry="41.7"/>
				<path class="st14" d="M293.5,780.8c-19.3,0-37.1-12.7-42.6-32.2c-6.6-23.5,7-48,30.5-54.6s48,7,54.6,30.5s-7,48-30.5,54.6
					C301.5,780.2,297.5,780.8,293.5,780.8z M293.6,697.4c-3.6,0-7.2,0.5-10.7,1.5c-20.8,5.9-32.9,27.6-27,48.3
					c5.9,20.8,27.6,32.9,48.3,27c10.1-2.8,18.4-9.4,23.5-18.6c5.1-9.1,6.3-19.7,3.5-29.8s-9.4-18.4-18.6-23.5
					C306.7,699,300.2,697.4,293.6,697.4z"/>
			</g>
			<path class="st16" d="M293.5,770.7c-14.9,0-28.7-9.8-32.9-24.9c-5.1-18.2,5.4-37.1,23.6-42.3c8.8-2.5,18-1.4,26,3.1
				s13.8,11.8,16.2,20.5c2.5,8.8,1.4,18-3.1,26s-11.8,13.8-20.5,16.2C299.7,770.3,296.6,770.7,293.5,770.7z M293.5,703.6
				c-3,0-6,0.4-9,1.3c-17.5,5-27.7,23.2-22.7,40.7s23.2,27.7,40.7,22.7l0,0c8.5-2.4,15.5-7.9,19.8-15.6c4.3-7.7,5.3-16.6,3-25
				c-2.4-8.5-7.9-15.5-15.6-19.8C304.6,705,299.1,703.6,293.5,703.6z"/>
			<path class="st16" d="M293.1,767.1c-5.1,0-10.2-1.3-14.8-3.9c-7.1-4-12.3-10.5-14.5-18.3s-1.2-16.1,2.7-23.2
				c4-7.1,10.5-12.3,18.3-14.5l0,0c7.8-2.2,16.1-1.2,23.2,2.7c7.1,4,12.3,10.5,14.5,18.3s1.2,16.1-2.7,23.2
				c-4,7.1-10.5,12.3-18.3,14.5C298.7,766.7,295.9,767.1,293.1,767.1z M293.1,707.4c-2.7,0-5.3,0.4-8,1.1l0,0
				c-7.5,2.1-13.7,7-17.5,13.9c-3.8,6.8-4.7,14.7-2.6,22.2s7.1,13.7,13.9,17.5s14.7,4.7,22.2,2.6c7.5-2.1,13.7-7.1,17.5-13.9
				c3.8-6.8,4.7-14.7,2.6-22.2s-7-13.7-13.9-17.5C302.9,708.7,298.1,707.4,293.1,707.4z"/>
			<g>
				<path class="st14" d="M305.5,738.1c0.7,2.6,0.4,5.4-0.9,7.8c-0.8,1.6-2,2.9-3.6,3.9l0.5,1.9c0.3,0.9,0.2,1.9-0.3,2.7
					c-0.4,0.8-1.2,1.4-2.1,1.7c-1,0.3-1.9,0.2-2.7-0.3c-0.8-0.5-1.4-1.2-1.7-2.1l-0.4-1.5l-3.2,0.9c-1.4,0.4-2.7,0.3-3.8-0.2
					c-1-0.5-1.7-1.5-2.1-2.7c-0.7-2.5,0.6-4.2,3.6-5l7.5-2.1c0.3-0.1,0.7-0.3,0.9-0.6c0.3-0.4,0.4-0.8,0.2-1.3
					c-0.2-0.7-0.6-1-1.1-1.1c-0.3,0-0.5,0-0.6,0c-0.2,0-0.3,0-0.3,0l-3.6,1c-2.5,0.6-5.1,0.3-7.2-0.8c-2.1-1.2-3.7-3.1-4.4-5.5
					c-0.7-2.6-0.3-5.4,1-7.7c1-1.9,2.7-3.4,4.6-4.3l-0.4-1.3c-0.3-0.9-0.1-1.8,0.3-2.7c0.5-0.8,1.2-1.4,2.1-1.7
					c0.9-0.2,1.8-0.1,2.6,0.3c0.9,0.5,1.4,1.2,1.7,2.1l0.3,1.1l1.2-0.3c3-0.8,5.1,0.1,5.8,2.6c0.8,2.7-0.6,4.7-3.5,5.5l-7,2
					c-0.8,0.2-1.2,0.9-1,1.6c0.2,0.8,0.8,1.2,1.5,1.1l3.4-1c2.7-0.8,5.4-0.5,7.6,0.6C303.1,733.5,304.8,735.5,305.5,738.1z"/>
			</g>
		</g>
		<path class="st14" d="M316.5,731.4c0.5,1.6-0.5,3.3-2.1,3.7c-1.6,0.5-3.3-0.5-3.7-2.1s0.5-3.3,2.1-3.7
			C314.3,728.8,316,729.8,316.5,731.4z"/>
		<ellipse class="st14" cx="272.9" cy="743.7" rx="3" ry="3"/>
	</g>
	<g>
		<g>
			<path class="st14" d="M602.8,573.4l-177.6-8.9c-8.3-0.4-14.7-7.5-14.3-15.8l13.3-267.1c1.3-25.2,22.7-44.6,47.9-43.4l117.9,5.9
				c25.2,1.3,44.6,22.7,43.4,47.9l-13.2,265.7C619.7,566.8,612,573.9,602.8,573.4z"/>
			<g>
				<path class="st16" d="M591.4,573.4l-177.6-8.9c-8.3-0.4-14.7-7.5-14.3-15.8l13.3-267.1c1.3-25.2,22.7-44.6,47.9-43.4l117.9,5.9
					c25.2,1.3,44.6,22.7,43.4,47.9l-13.2,265.7C608.3,566.8,600.5,573.9,591.4,573.4z"/>
				<path class="st14" d="M592.3,576c-0.3,0-0.6,0-1,0l0,0l-177.6-8.9c-9.7-0.5-17.2-8.8-16.8-18.5l13.3-267.1
					c0.6-12.9,6.3-24.7,15.8-33.4c9.6-8.7,21.9-13.1,34.8-12.4l117.9,5.9c26.6,1.3,47.1,24,45.8,50.6l-13.2,265.7
					C610.8,568,602.3,576,592.3,576z M591.5,570.9c7.8,0.4,14.3-5.6,14.6-13.3l13.2-265.7c1.2-23.8-17.2-44.1-40.9-45.2l-117.9-5.9
					c-11.5-0.6-22.6,3.4-31.1,11.1c-8.5,7.7-13.6,18.3-14.1,29.8L402,548.8c-0.3,6.9,5,12.8,11.9,13.2L591.5,570.9z"/>
			</g>
			<g>
				<g>
					<path class="st16" d="M576.5,244L576.5,244l-168-8.4c-19.3-1-35.8,14.6-36.8,34.8l-0.7,13.9l169.9,8.5l0.7-13.9
						C542.5,259.3,558,244.1,576.5,244z"/>
					<path class="st14" d="M540.9,295.3L540.9,295.3l-170-8.5c-1.4-0.1-2.5-1.3-2.4-2.7l0.7-13.9c0.5-10.4,4.9-20,12.3-27
						c7.5-7.1,17.1-10.7,27.2-10.2l168,8.4c0.7,0,1.3,0.3,1.8,0.8s0.7,1.2,0.6,1.9c-0.1,1.3-1.2,2.5-2.5,2.5
						c-17.3,0.1-31.5,14.3-32.4,32.4l-0.7,13.9c0,0.7-0.3,1.3-0.8,1.8C542.1,295.1,541.5,295.3,540.9,295.3z M373.7,281.8l164.8,8.2
						l0.6-11.3c0.7-14.5,9-26.8,20.7-33l-151.3-7.5c-8.7-0.4-17,2.7-23.4,8.8c-6.5,6.1-10.3,14.5-10.7,23.6L373.7,281.8z"/>
				</g>
			</g>
			<g class="st21">
				<path class="st14" d="M576.5,244L576.5,244l-168-8.4c-19.3-1-35.8,14.6-36.8,34.8l-0.7,13.9l169.9,8.5l0.7-13.9
					C542.5,259.3,558,244.1,576.5,244z"/>
			</g>
			<g>
				<line class="st22" x1="451.4" y1="313.1" x2="494.2" y2="315.2"/>
				<path class="st14" d="M494.2,317.8h-0.1l-42.8-2.1c-1.4-0.1-2.5-1.3-2.4-2.7c0.1-1.4,1.3-2.5,2.7-2.4l42.8,2.1
					c1.4,0.1,2.5,1.3,2.4,2.7C496.7,316.7,495.6,317.8,494.2,317.8z"/>
			</g>
			<g>
				<line class="st22" x1="548.5" y1="319.1" x2="591.3" y2="321.3"/>
				<path class="st14" d="M591.3,323.8L591.3,323.8l-42.9-2.1c-1.4-0.1-2.5-1.3-2.4-2.7c0.1-1.4,1.3-2.5,2.7-2.4l42.8,2.1
					c1.4,0.1,2.5,1.3,2.4,2.7C593.8,322.8,592.7,323.8,591.3,323.8z"/>
			</g>
			<g>
				<line class="st22" x1="448.9" y1="363.6" x2="533.9" y2="367.3"/>
				<path class="st14" d="M533.9,369.8L533.9,369.8l-85.2-3.7c-1.4-0.1-2.5-1.3-2.4-2.7c0.1-1.4,1.2-2.5,2.7-2.4l85.1,3.7
					c1.4,0.1,2.5,1.3,2.4,2.7C536.4,368.8,535.3,369.8,533.9,369.8z"/>
			</g>
			<g>
				<line class="st22" x1="446.5" y1="391.4" x2="482" y2="393.4"/>
				<path class="st14" d="M482,395.9h-0.1l-35.5-2c-1.4-0.1-2.5-1.3-2.4-2.7c0.1-1.4,1.3-2.5,2.7-2.4l35.5,2
					c1.4,0.1,2.5,1.3,2.4,2.7C484.5,394.9,483.3,395.9,482,395.9z"/>
			</g>
			<g>
				<line class="st22" x1="450.1" y1="338.3" x2="511.2" y2="341.4"/>
				<path class="st14" d="M511.2,343.9h-0.1l-61.1-3c-1.4-0.1-2.5-1.3-2.4-2.7c0.1-1.4,1.3-2.5,2.7-2.4l61.1,3
					c1.4,0.1,2.5,1.3,2.4,2.7C513.7,342.9,512.6,343.9,511.2,343.9z"/>
			</g>
			<g>
				<line class="st22" x1="526" y1="342.1" x2="533.9" y2="342.5"/>
				<path class="st14" d="M533.9,345.1L533.9,345.1l-8-0.4c-1.4-0.1-2.5-1.3-2.4-2.7c0.1-1.4,1.2-2.5,2.7-2.4l7.9,0.4
					c1.4,0.1,2.5,1.3,2.4,2.7C536.4,344,535.3,345.1,533.9,345.1z"/>
			</g>
			<g>
				<path class="st23" d="M592.3,385.9c-0.2,4.7-2.3,9.1-5.6,12.2c-2.2,2.2-4.9,3.6-7.9,4.4l-0.1,3.4c-0.1,1.6-0.7,3.1-1.9,4.2
					c-1.1,1.1-2.7,1.7-4.3,1.6c-1.7-0.1-3.2-0.8-4.3-2s-1.7-2.7-1.6-4.4l0.1-2.8l-5.6-0.2c-2.5-0.1-4.6-1-6-2.4s-2-3.3-2-5.6
					c0.2-4.4,3.2-6.5,8.6-6.3l13.3,0.6c0.5,0,1.3-0.1,1.8-0.6c0.7-0.5,1.1-1.2,1.1-2c0-1.2-0.4-2-1.2-2.4c-0.4-0.2-0.7-0.3-0.9-0.4
					c-0.3-0.1-0.4-0.1-0.4-0.1l-6.4-0.3c-4.4-0.3-8.4-2.2-11.2-5.2s-4.4-7-4.2-11.4c0.2-4.6,2.3-8.9,5.7-12c2.7-2.5,6.1-4.1,9.8-4.5
					l0.1-2.3c0.1-1.7,0.7-3,2-4.2c1.2-1.1,2.7-1.7,4.4-1.6c1.6,0.1,3,0.8,4.1,2c1.1,1.3,1.6,2.7,1.6,4.4l-0.1,2l2.1,0.1
					c5.3,0.2,8.3,2.9,8.1,7.3c-0.2,4.9-3.4,7.3-8.7,7.1l-12.4-0.5c-1.4-0.1-2.4,0.8-2.4,2.1c-0.1,1.3,0.6,2.5,1.8,2.5l6.1,0.3
					c4.7,0.2,9,2,12.1,5.1C590.9,377.1,592.5,381.2,592.3,385.9z"/>
			</g>
			<line class="st24" x1="374.2" y1="270.5" x2="410.6" y2="272"/>
		</g>
		<g>
			<g>
				<g>
					<polyline class="st19" points="255.5,412.5 394.2,598.8 513,510.3 371.8,320.5 370.6,341.6 351.1,337 349.9,357 331.4,352.6 
						330.3,371.9 312.2,367.6 311.1,386.6 293,382.3 292,399.5 272.1,394.7 270.9,415.5 255.5,412.5 					"/>
					<path class="st14" d="M394.2,601.3c-0.1,0-0.2,0-0.4,0c-0.7-0.1-1.3-0.5-1.7-1L253.5,414.1c-0.6-0.8-0.7-2-0.1-2.9
						c0.6-0.9,1.6-1.4,2.6-1.2l12.5,2.4l1-17.8c0-0.8,0.4-1.5,1-1.9c0.6-0.5,1.4-0.6,2.1-0.4l16.9,4l0.8-14.1c0-0.8,0.4-1.5,1-1.9
						c0.6-0.5,1.4-0.6,2.1-0.4l15.1,3.6l0.9-15.9c0-0.8,0.4-1.5,1-1.9c0.6-0.5,1.4-0.6,2.1-0.4l15.1,3.6l0.9-16.3
						c0-0.8,0.4-1.5,1-1.9c0.6-0.5,1.4-0.6,2.1-0.4l15.5,3.7l1-17c0-0.8,0.4-1.5,1-1.9c0.6-0.5,1.4-0.6,2.1-0.4l16.5,3.9l1-18
						c0.1-1.1,0.8-2,1.8-2.3s2.1,0.1,2.8,0.9l141.3,189.7c0.8,1.1,0.6,2.7-0.5,3.6L395.2,601C395.3,601.2,394.7,601.3,394.2,601.3z
						 M261.5,416.3l133.2,178.9l114.8-85.4L374,327.8l-0.8,14.1c0,0.8-0.4,1.5-1,1.9c-0.6,0.5-1.4,0.6-2.1,0.4l-16.5-3.9l-1,17
						c0,0.8-0.4,1.5-1,1.9c-0.6,0.5-1.4,0.6-2.1,0.4l-15.5-3.7l-0.9,16.3c0,0.8-0.4,1.5-1,1.9c-0.6,0.5-1.4,0.6-2.1,0.4l-15.1-3.6
						l-0.9,15.9c0,0.8-0.4,1.5-1,1.9c-0.6,0.5-1.4,0.6-2.1,0.4l-15.1-3.6l-0.8,14.1c0,0.8-0.4,1.5-1,1.9c-0.6,0.5-1.4,0.6-2.1,0.4
						l-16.9-4l-1,17.7c0,0.7-0.4,1.4-1,1.9s-1.3,0.6-2.1,0.5L261.5,416.3z"/>
				</g>
				<g>
					<line class="st22" x1="298" y1="436.4" x2="334.5" y2="409.2"/>
					<path class="st16" d="M298,439c-0.8,0-1.6-0.4-2.1-1c-0.8-1.1-0.6-2.7,0.5-3.6l36.5-27.2c1.1-0.8,2.7-0.6,3.6,0.5
						c0.8,1.1,0.6,2.7-0.5,3.6l-36.5,27.2C299,438.8,298.5,439,298,439z"/>
				</g>
				<g>
					<line class="st22" x1="308.8" y1="450.9" x2="376" y2="400.9"/>
					<path class="st14" d="M308.8,453.5c-0.8,0-1.6-0.4-2.1-1c-0.8-1.1-0.6-2.7,0.5-3.6l67.2-50c1.1-0.8,2.7-0.6,3.6,0.5
						c0.8,1.1,0.6,2.7-0.5,3.6l-67.2,50C309.9,453.3,309.3,453.5,308.8,453.5z"/>
				</g>
				<g>
					<line class="st22" x1="383.2" y1="395.5" x2="392.2" y2="388.8"/>
					<path class="st16" d="M383.2,398.1c-0.8,0-1.6-0.4-2.1-1c-0.8-1.1-0.6-2.7,0.5-3.6l9-6.7c1.1-0.8,2.7-0.6,3.6,0.5
						c0.8,1.1,0.6,2.7-0.5,3.6l-9,6.7C384.3,397.9,383.8,398.1,383.2,398.1z"/>
				</g>
				<g>
					<line class="st22" x1="324.4" y1="471.8" x2="349" y2="453.5"/>
					<path class="st14" d="M324.4,474.4c-0.8,0-1.6-0.4-2.1-1c-0.8-1.1-0.6-2.7,0.5-3.6l24.7-18.4c1.1-0.8,2.7-0.6,3.6,0.5
						c0.8,1.1,0.6,2.7-0.5,3.6l-24.7,18.4C325.4,474.2,324.9,474.4,324.4,474.4z"/>
				</g>
				<g>
					<line class="st22" x1="359.7" y1="445.5" x2="407.8" y2="409.7"/>
					<path class="st14" d="M359.7,448.1c-0.8,0-1.6-0.4-2.1-1c-0.8-1.1-0.6-2.7,0.5-3.6l48.1-35.8c1.1-0.8,2.7-0.6,3.6,0.5
						c0.8,1.1,0.6,2.7-0.5,3.6l-48.1,35.8C360.8,447.9,360.2,448.1,359.7,448.1z"/>
				</g>
				<g>
					<line class="st22" x1="347.2" y1="502.5" x2="401.4" y2="462.2"/>
					<path class="st16" d="M347.2,505.1c-0.8,0-1.6-0.4-2.1-1c-0.8-1.1-0.6-2.7,0.5-3.6l54.2-40.3c1.1-0.8,2.7-0.6,3.6,0.5
						c0.8,1.1,0.6,2.7-0.5,3.6l-54.2,40.3C348.3,504.9,347.7,505.1,347.2,505.1z"/>
				</g>
				<g>
					<line class="st22" x1="427.6" y1="488.4" x2="452.5" y2="469.8"/>
					<path class="st14" d="M427.6,491c-0.8,0-1.6-0.4-2.1-1c-0.8-1.1-0.6-2.7,0.5-3.6l25-18.6c1.1-0.8,2.7-0.6,3.6,0.5
						c0.8,1.1,0.6,2.7-0.5,3.6l-25,18.6C428.6,490.8,428.1,491,427.6,491z"/>
				</g>
			</g>
		</g>
		<g>
			<g>
				<g>
					<polyline class="st17" points="442.8,377.7 425.5,516.2 530.9,529.4 548.5,388.3 537.6,396.7 529.6,386.4 519.3,394.4 
						511.7,384.7 501.8,392.4 494.3,382.8 484.6,390.4 477.1,380.9 468.3,387.7 460.1,377.2 449.4,385.6 442.9,377.2 					"/>
					<path class="st14" d="M530.9,531.9c-0.1,0-0.2,0-0.3,0l-105.4-13.1c-1.4-0.2-2.4-1.5-2.2-2.9l17.3-138.5c0-0.2,0.1-0.4,0.1-0.6
						c0.1-0.7,0.4-1.3,1-1.7c1.1-0.9,2.7-0.7,3.6,0.4l5,6.4l8.7-6.7c0.5-0.4,1.2-0.6,1.9-0.5c0.7,0.1,1.3,0.4,1.7,1l6.6,8.5l6.8-5.3
						c1.1-0.9,2.7-0.7,3.6,0.4l5.9,7.6l7.7-6c1.1-0.9,2.7-0.7,3.6,0.4l5.9,7.6l7.9-6.2c1.1-0.9,2.7-0.7,3.6,0.4l6,7.7l8.3-6.5
						c1.1-0.9,2.7-0.7,3.6,0.4l6.5,8.3l8.8-6.9c0.8-0.6,1.9-0.7,2.8-0.2c0.9,0.5,1.4,1.5,1.3,2.5l-17.6,141.1
						c-0.1,0.7-0.4,1.3-1,1.7C532,531.7,531.5,531.9,530.9,531.9z M428.3,514l100.3,12.5l16.5-132.4l-6,4.7
						c-1.1,0.9-2.7,0.7-3.6-0.4l-6.5-8.3l-8.3,6.5c-1.1,0.9-2.7,0.7-3.6-0.4l-6-7.7l-7.9,6.2c-0.5,0.4-1.2,0.6-1.9,0.5
						c-0.7-0.1-1.3-0.4-1.7-1l-5.9-7.6l-7.7,6c-1.1,0.9-2.7,0.7-3.6-0.4l-5.9-7.6l-6.8,5.3c-0.5,0.4-1.2,0.6-1.9,0.5
						c-0.7-0.1-1.3-0.4-1.7-1l-6.6-8.5l-8.7,6.7c-1.1,0.9-2.7,0.7-3.6-0.4l-2.8-3.6L428.3,514z"/>
				</g>
				<path class="st16" d="M485.9,411.8c-0.1,0-0.1,0-0.2,0l-32.4-4c-0.9-0.1-1.6-1-1.5-1.9s1-1.6,1.9-1.5l32.4,4
					c0.9,0.1,1.6,1,1.5,1.9C487.5,411.1,486.8,411.8,485.9,411.8z"/>
				<g>
					<line class="st22" x1="452.2" y1="416.8" x2="511.8" y2="424.2"/>
					<path class="st14" d="M511.8,426c-0.1,0-0.1,0-0.2,0l-59.6-7.4c-0.9-0.1-1.6-1-1.5-1.9s1-1.6,1.9-1.5l59.6,7.4
						c0.9,0.1,1.6,1,1.5,1.9C513.4,425.3,512.6,426,511.8,426z"/>
				</g>
				<path class="st16" d="M526.2,427.8c-0.1,0-0.1,0-0.2,0l-8-1c-0.9-0.1-1.6-1-1.5-1.9s1-1.6,1.9-1.5l8,1c0.9,0.1,1.6,1,1.5,1.9
					C527.8,427.1,527,427.8,526.2,427.8z"/>
				<g>
					<line class="st22" x1="450.2" y1="432.4" x2="472.1" y2="435.1"/>
					<path class="st14" d="M472.1,436.8c-0.1,0-0.1,0-0.2,0l-21.9-2.7c-0.9-0.1-1.6-1-1.5-1.9s1-1.6,1.9-1.5l21.9,2.7
						c0.9,0.1,1.6,1,1.5,1.9C473.7,436.2,473,436.8,472.1,436.8z"/>
				</g>
				<g>
					<line class="st22" x1="481.6" y1="436.3" x2="524.3" y2="441.6"/>
					<path class="st14" d="M524.3,443.3c-0.1,0-0.1,0-0.2,0l-42.7-5.3c-0.9-0.1-1.6-1-1.5-1.9s1-1.6,1.9-1.5l42.7,5.3
						c0.9,0.1,1.6,1,1.5,1.9C525.8,442.7,525.1,443.3,524.3,443.3z"/>
				</g>
				<g>
					<line class="st22" x1="447.4" y1="455.2" x2="495.4" y2="461.2"/>
					<path class="st14" d="M495.4,462.9c-0.1,0-0.1,0-0.2,0l-48-6c-0.9-0.1-1.6-1-1.5-1.9s1-1.6,1.9-1.5l48,6c0.9,0.1,1.6,1,1.5,1.9
						C497,462.3,496.3,462.9,495.4,462.9z"/>
				</g>
				<g>
					<line class="st22" x1="496.5" y1="483.5" x2="518.7" y2="486.3"/>
					<path class="st14" d="M518.7,488.8c-0.1,0-0.2,0-0.3,0l-22.2-2.8c-1.4-0.2-2.4-1.5-2.2-2.9c0.2-1.4,1.4-2.4,2.9-2.2l22.2,2.8
						c1.4,0.2,2.4,1.5,2.2,2.9C521.1,487.9,520,488.8,518.7,488.8z"/>
				</g>
			</g>
		</g>
	</g>
	<g>
		<g>
			<g>
				<path class="st20" d="M727.6,633.9l-275.3,66.5c-8.7,2.1-17.4-3.2-19.5-11.9L389.1,507c-2.1-8.7,3.2-17.4,11.9-19.5L676.3,421
					c8.7-2.1,17.4,3.2,19.5,11.9l43.8,181.4C741.6,623.1,736.3,631.8,727.6,633.9z"/>
				<path class="st14" d="M448.5,703.4c-3.4,0-6.7-0.9-9.7-2.8c-4.3-2.6-7.3-6.7-8.4-11.6l-43.8-181.4c-2.4-10,3.8-20.2,13.8-22.6
					l275.3-66.5c10-2.4,20.2,3.8,22.6,13.8L742,613.8c2.4,10-3.8,20.2-13.8,22.6l0,0L453,702.8C451.5,703.2,450,703.4,448.5,703.4z
					 M680,423.2c-1.1,0-2.1,0.1-3.2,0.4L401.6,490c-7.3,1.8-11.8,9.1-10,16.4l43.8,181.4c0.9,3.5,3,6.5,6.1,8.4s6.8,2.5,10.3,1.6
					L727,631.4l0,0c7.3-1.8,11.8-9.1,10-16.4l-43.8-181.4C691.7,427.4,686.2,423.2,680,423.2z M727.6,633.9L727.6,633.9L727.6,633.9
					z"/>
			</g>
			<path class="st25" d="M643.3,426l-80.9,19.7l18.8,77.1c2.4,10-6.1,20.7-19.1,23.8l0,0c-24.7,6-40.9,26.3-36.3,45.3l0,0
				c2,8-4.9,16.6-15.3,19.2l0,0c-29.1,7.1-48.3,31-42.8,53.5l7.4,30.4l247.1-60.2c12.2-3,19.7-15.3,16.7-27.5l-41-168
				c-3.4-13.8-17.3-22.3-31.1-18.9L643.3,426z"/>
			<g>
				<path class="st14" d="M494.8,598.5l-37.4,9.1c-0.9,0.2-1.9-0.3-2.1-1.3l-1.9-7.8c-0.2-0.9,0.3-1.9,1.3-2.1l37.4-9.1
					c0.9-0.2,1.9,0.3,2.1,1.3l1.9,7.8C496.4,597.3,495.8,598.3,494.8,598.5z"/>
				<path class="st14" d="M542.7,586.8l-37.4,9.1c-0.9,0.2-1.9-0.3-2.1-1.3l-1.9-7.8c-0.2-0.9,0.3-1.9,1.3-2.1l37.4-9.1
					c0.9-0.2,1.9,0.3,2.1,1.3l1.9,7.8C544.3,585.6,543.7,586.6,542.7,586.8z"/>
				<path class="st14" d="M589.6,575.4l-37.4,9.1c-0.9,0.2-1.9-0.3-2.1-1.3l-1.9-7.8c-0.2-0.9,0.3-1.9,1.3-2.1l37.4-9.1
					c0.9-0.2,1.9,0.3,2.1,1.3l1.9,7.8C591.1,574.2,590.6,575.1,589.6,575.4z"/>
				<path class="st14" d="M636.5,563.9l-37.4,9.1c-0.9,0.2-1.9-0.3-2.1-1.3l-1.9-7.8c-0.2-0.9,0.3-1.9,1.3-2.1l37.4-9.1
					c0.9-0.2,1.9,0.3,2.1,1.3l1.9,7.8C638,562.8,637.5,563.7,636.5,563.9z"/>
				<path class="st16" d="M493.6,626.2l-30.8,7.5c-0.9,0.2-1.9-0.3-2.1-1.3l-0.9-3.9c-0.2-0.9,0.3-1.9,1.3-2.1l30.8-7.5
					c0.9-0.2,1.9,0.3,2.1,1.3l0.9,3.9C495.1,625.1,494.5,626,493.6,626.2z"/>
				<path class="st16" d="M671.7,454.9l-31.3,5.2c-0.9,0.2-1.8-0.5-2-1.4l-0.6-3.9c-0.2-0.9,0.5-1.8,1.4-2l31.3-5.2
					c0.9-0.2,1.8,0.5,2,1.4l0.6,3.9C673.3,453.9,672.6,454.8,671.7,454.9z"/>
				<path class="st16" d="M557.3,485.3l-123.6,30.1c-1.3,0.3-2.5-0.5-2.8-1.7l-1.3-5.2c-0.3-1.3,0.5-2.5,1.7-2.8l123.6-30.1
					c1.3-0.3,2.5,0.5,2.8,1.7l1.3,5.2C559.3,483.7,558.6,485,557.3,485.3z"/>
				<path class="st16" d="M537.2,615.4l-30.8,7.5c-0.9,0.2-1.9-0.3-2.1-1.3l-0.9-3.9c-0.2-0.9,0.3-1.9,1.3-2.1l30.8-7.5
					c0.9-0.2,1.9,0.3,2.1,1.3l0.9,3.9C538.7,614.2,538.2,615.2,537.2,615.4z"/>
				<path class="st16" d="M579.7,605.4l-30.8,7.5c-0.9,0.2-1.9-0.3-2.1-1.3l-0.9-3.9c-0.2-0.9,0.3-1.9,1.3-2.1l30.8-7.5
					c0.9-0.2,1.9,0.3,2.1,1.3l0.9,3.9C581.3,604.2,580.7,605.1,579.7,605.4z"/>
				<path class="st17" d="M498,648.7l-30.8,7.5c-0.9,0.2-1.9-0.3-2.1-1.3l-0.9-3.9c-0.2-0.9,0.3-1.9,1.3-2.1l30.8-7.5
					c0.9-0.2,1.9,0.3,2.1,1.3l0.9,3.9C499.5,647.6,499,648.5,498,648.7z"/>
			</g>
			<g>
				<g>
					<path class="st17" d="M497.8,564.7l-45,10.9c-2.5,0.6-5-0.9-5.6-3.4l-3.3-13.5l-3-12.4c-0.6-2.5,0.9-5,3.4-5.6l45-10.9
						c2.5-0.6,5,0.9,5.6,3.4l6.3,26C501.8,561.6,500.2,564.1,497.8,564.7z"/>
					<g>
						<g>
							<line class="st22" x1="441.1" y1="559.5" x2="497.8" y2="545.3"/>
							<path class="st20" d="M441.1,562.1c-1.1,0-2.2-0.8-2.5-1.9c-0.3-1.4,0.5-2.8,1.9-3.1l56.7-14.3c1.4-0.3,2.8,0.5,3.1,1.9
								c0.3,1.4-0.5,2.8-1.9,3.1L441.7,562C441.5,562.1,441.3,562.1,441.1,562.1z"/>
						</g>
					</g>
				</g>
				<g>
					<path class="st17" d="M479.1,551.4c0.5,4.8-3,9-7.8,9.4c-4.8,0.5-9-3-9.4-7.8c-0.5-4.8,3-9,7.8-9.4S478.6,546.6,479.1,551.4z"
						/>
					<path class="st20" d="M470.5,563.4c-5.7,0-10.6-4.3-11.1-10.1c-0.3-3,0.6-5.9,2.5-8.2s4.6-3.7,7.6-4
						c6.1-0.6,11.6,3.9,12.2,10.1c0.6,6.1-3.9,11.6-10.1,12.2C471.2,563.4,470.8,563.4,470.5,563.4z M470.5,546.1
						c-0.2,0-0.4,0-0.6,0c-1.6,0.2-3.1,0.9-4.1,2.2s-1.5,2.8-1.4,4.5c0.3,3.3,3.3,5.8,6.6,5.5c1.6-0.2,3.1-0.9,4.1-2.2
						s1.5-2.8,1.4-4.5c-0.2-1.6-0.9-3.1-2.2-4.1C473.2,546.6,471.9,546.1,470.5,546.1z"/>
				</g>
			</g>
			<g>
				<path class="st16" d="M670,604.2c-1.3-4.7-0.5-9.5,1.9-13.4c-3.6-1.8-7.9-2.4-12.1-1.2c-8.9,2.5-14.1,11.8-11.6,20.7
					s11.8,14.1,20.7,11.6c4.2-1.2,7.6-3.9,9.7-7.3C674.6,612.6,671.4,608.9,670,604.2z"/>
				<path class="st17" d="M687.3,581.9c-4.2,1.2-7.6,3.9-9.7,7.3c-2.4,3.9-3.2,8.7-1.9,13.4s4.6,8.4,8.6,10.4
					c3.6,1.8,7.9,2.4,12.1,1.2c8.9-2.5,14.1-11.8,11.6-20.7C705.5,584.6,696.2,579.4,687.3,581.9z"/>
			</g>
		</g>
	</g>
	<g>
		<g>
			<g>
				<path class="st14" d="M698.7,285.5c0.2-0.4,0.5-0.8,0.9-1l27.8-16.4c1.1-0.7,2.6-0.3,3.3,0.9c0.7,1.2,0.3,2.6-0.8,3.3
					l-27.8,16.4c-1.1,0.7-2.6,0.3-3.3-0.9C698.3,287.1,698.3,286.2,698.7,285.5z"/>
				<path class="st14" d="M679.8,281c0-0.3,0-0.7,0.1-1l13.4-42.9c0.4-1.3,1.8-2,3-1.6c1.3,0.4,2,1.8,1.6,3l-13.4,42.9
					c-0.4,1.3-1.8,2-3,1.6C680.5,282.8,679.9,282,679.8,281z"/>
				<path class="st14" d="M633.4,240.8c-0.5-1.2-0.1-2.5,1.1-3.1c1.2-0.6,2.6-0.2,3.3,1l22.9,43.3c0.6,1.2,0.2,2.6-1,3.3
					c-1.2,0.6-2.6,0.2-3.3-1L633.5,241C633.5,240.9,633.5,240.8,633.4,240.8z"/>
			</g>
			<g>
				<path class="st14" d="M565,812.6c-0.2,0.3-0.5,0.6-0.9,0.8L538.7,825c-1,0.5-2.3,0-2.8-1c-0.5-1.1,0-2.3,1-2.8l25.4-11.7
					c1-0.5,2.3,0,2.8,1C565.4,811.2,565.4,812,565,812.6z"/>
				<path class="st14" d="M580.9,818.1c0,0.3-0.1,0.6-0.2,0.8l-15.4,35.8c-0.5,1.1-1.7,1.6-2.7,1.1c-1.1-0.5-1.6-1.7-1.1-2.7
					l15.4-35.8c0.5-1.1,1.7-1.6,2.7-1.1C580.4,816.5,580.9,817.3,580.9,818.1z"/>
				<path class="st14" d="M617.2,856.9c0.4,1-0.2,2.2-1.2,2.6c-1.1,0.4-2.3-0.1-2.7-1.2L597.4,819c-0.4-1.1,0.1-2.3,1.2-2.7
					c1.1-0.4,2.3,0.1,2.7,1.2l15.8,39.3C617.1,856.8,617.1,856.8,617.2,856.9z"/>
			</g>
		</g>
		<g>
			<g>
				<path class="st17" d="M299.4,563.2l-1.2-29.4l50.6,47l-46.7,50.8l-1.2-29.4c0,0-43.6-8.8-71.2,42c0,0-8.9-37.6,23-66.3
					C252.8,578,267.2,563.5,299.4,563.2L299.4,563.2z"/>
				<path class="st14" d="M229.7,646.9c-0.1,0-0.2,0-0.3,0c-1.1-0.1-1.9-0.9-2.2-1.9c-0.1-0.4-8.8-39.4,23.8-68.8
					c0.5-0.5,14.6-14.4,45.7-15.4l-1-26.8c0-1,0.5-2,1.5-2.4c0.9-0.4,2.1-0.3,2.8,0.5l50.6,47c1,1,1.1,2.6,0.1,3.6L304,633.4
					c-0.7,0.8-1.8,1-2.8,0.7c-1-0.4-1.6-1.3-1.7-2.3l-1.1-27.2c-8.7-1-43.2-2-66.5,41C231.5,646.4,230.7,646.9,229.7,646.9z
					 M301,539.9l0.9,23.2c0,0.7-0.2,1.4-0.7,1.9s-1.1,0.8-1.8,0.8c-30.8,0.3-44.7,13.9-44.8,14.1c-22.2,20-24,44.7-23.3,56.7
					c28.2-44.5,69.7-36.8,70.1-36.7c1.2,0.2,2,1.2,2.1,2.4l0.9,23.2l40.8-44.4L301,539.9z"/>
			</g>
			<g>
				<path class="st17" d="M816.5,663.8l-0.8,29.4l-47.3-50.3l50-47.6l-0.8,29.4c0,0,43,11.7,73.9-37.1c0,0,6.3,38.1-27.4,64.6
					C864,652.1,848.7,665.6,816.5,663.8L816.5,663.8z"/>
				<path class="st14" d="M815.7,695.7c-0.7,0-1.4-0.3-1.9-0.8l-47.3-50.3c-1-1-0.9-2.6,0.1-3.6l50-47.6c0.8-0.7,1.9-0.9,2.8-0.5
					c0.9,0.4,1.5,1.4,1.5,2.4l-0.8,27.3c8.6,1.6,42.9,4.8,69.1-36.5c0.6-0.9,1.6-1.4,2.7-1.1c1,0.2,1.8,1,2,2.1
					c0.1,0.4,6.2,39.9-28.4,67c-0.5,0.5-15.5,13.4-46.6,12.3l-0.7,26.8c0,1-0.7,2-1.6,2.3C816.3,695.6,816,695.7,815.7,695.7z
					 M772,642.9l41.3,43.9l0.6-23.2c0-0.7,0.3-1.3,0.8-1.8s1.2-0.7,1.9-0.7c30.6,1.8,45.5-10.9,45.7-11.1c23.6-18.5,26.9-43,27-55
					c-31.1,42.5-72,32.1-72.4,32c-1.1-0.3-1.9-1.4-1.9-2.5l0.6-23.2L772,642.9z"/>
			</g>
		</g>
	</g>
</g>
</svg>
