<?xml version="1.0" encoding="utf-8"?>
<!-- Generator: Adobe Illustrator 27.3.1, SVG Export Plug-In . SVG Version: 6.00 Build 0)  -->
<svg version="1.1" id="Layer_1" xmlns="http://www.w3.org/2000/svg" xmlns:xlink="http://www.w3.org/1999/xlink" x="0px" y="0px"
	 viewBox="0 0 40 40" style="enable-background:new 0 0 40 40;" xml:space="preserve">
<style type="text/css">
	.st0{fill:#FFFFFF;}
</style>
<g id="XMLID_4983_">
	<circle id="XMLID_5241_" class="st0" cx="26.9" cy="16.6" r="1.1"/>
	<circle id="XMLID_5246_" class="st0" cx="13.1" cy="9.7" r="1.1"/>
	<path id="XMLID_5269_" class="st0" d="M0.5,1.6v29.8h39V1.6H0.5z M33.8,24.6H16.4c-0.5,1.3-1.7,2.3-3.2,2.3s-2.8-1-3.2-2.3H6.2
		v-2.3h3.6c0.5-1.3,1.7-2.3,3.2-2.3s2.8,1,3.2,2.3h17.4V24.6z M33.8,17.7h-3.6C29.7,19,28.4,20,26.9,20s-2.8-1-3.2-2.3H6.2v-2.3
		h17.4c0.5-1.3,1.7-2.3,3.2-2.3s2.8,1,3.2,2.3h3.6V17.7z M33.8,10.8H16.4c-0.5,1.3-1.7,2.3-3.2,2.3s-2.8-1-3.2-2.3H6.2V8.5h3.6
		c0.5-1.3,1.7-2.3,3.2-2.3s2.8,1,3.2,2.3h17.4V10.8z"/>
	<circle id="XMLID_5272_" class="st0" cx="13.1" cy="23.4" r="1.1"/>
	<path id="XMLID_5277_" class="st0" d="M25.8,33.8H14.2l-0.8,2.3h-2.6v2.3h1.8h14.7h1.8v-2.3h-2.6L25.8,33.8z"/>
</g>
</svg>
