<?xml version="1.0" encoding="utf-8"?>
<!-- Generator: Adobe Illustrator 24.1.3, SVG Export Plug-In . SVG Version: 6.00 Build 0)  -->
<svg version="1.1" id="Layer_1" xmlns="http://www.w3.org/2000/svg" xmlns:xlink="http://www.w3.org/1999/xlink" x="0px" y="0px"
	 viewBox="0 0 1080 1080" style="enable-background:new 0 0 1080 1080;" xml:space="preserve">
<style type="text/css">
	.st0{fill:url(#SVGID_1_);}
	.st1{fill:url(#SVGID_2_);}
	.st2{fill:#B4B4B4;}
	.st3{fill:url(#SVGID_3_);}
	.st4{fill:url(#SVGID_4_);}
	.st5{fill:url(#SVGID_5_);}
	.st6{fill:url(#SVGID_6_);}
	.st7{fill:url(#SVGID_7_);}
	.st8{fill:url(#SVGID_8_);}
	.st9{fill:url(#SVGID_9_);}
</style>
<g id="noticeboard3">
	
		<image style="display:none;overflow:visible;opacity:0.8;enable-background:new    ;" width="418" height="676" xlink:href="E44DD746.png"  transform="matrix(1 0 0 1 331 202)">
	</image>
	<g>
		
			<linearGradient id="SVGID_1_" gradientUnits="userSpaceOnUse" x1="248.194" y1="253.2744" x2="907.7144" y2="812.7111" gradientTransform="matrix(1 0 0 -1 0 1080)">
			<stop  offset="5.518350e-03" style="stop-color:#C8B299"/>
			<stop  offset="0.9936" style="stop-color:#998776"/>
		</linearGradient>
		<path class="st0" d="M765.1,923.6H316c-10.7,0-19.3-8.7-19.3-19.3V253.1c0-10.7,8.7-19.3,19.3-19.3h449.2
			c10.7,0,19.3,8.7,19.3,19.3v651.2C784.5,915,775.8,923.6,765.1,923.6z"/>
		
			<linearGradient id="SVGID_2_" gradientUnits="userSpaceOnUse" x1="430.1003" y1="900.2988" x2="639.4467" y2="144.0363" gradientTransform="matrix(1 0 0 -1 0 1080)">
			<stop  offset="5.518350e-03" style="stop-color:#FAFBFC"/>
			<stop  offset="0.9885" style="stop-color:#F9F9FA"/>
		</linearGradient>
		<polygon class="st1" points="324.3,896 324.3,261.4 756.8,261.4 756.8,896 		"/>
		<g>
			<rect x="471.9" y="214.4" class="st2" width="137.4" height="16.9"/>
			
				<linearGradient id="SVGID_3_" gradientUnits="userSpaceOnUse" x1="540.6" y1="848.7826" x2="540.6" y2="817.7402" gradientTransform="matrix(1 0 0 -1 0 1080)">
				<stop  offset="0" style="stop-color:#E6E6E5"/>
				<stop  offset="0.1958" style="stop-color:#D5D4D4"/>
				<stop  offset="0.5147" style="stop-color:#B4B4B4"/>
				<stop  offset="0.7409" style="stop-color:#B4B4B4"/>
				<stop  offset="1" style="stop-color:#D0D1D1"/>
			</linearGradient>
			<rect x="471.9" y="231.3" class="st3" width="137.4" height="31.9"/>
			
				<linearGradient id="SVGID_4_" gradientUnits="userSpaceOnUse" x1="540.6" y1="793.6" x2="540.6" y2="816.7335" gradientTransform="matrix(1 0 0 -1 0 1080)">
				<stop  offset="9.217920e-03" style="stop-color:#B4B4B4"/>
				<stop  offset="0.9917" style="stop-color:#E6E6E5"/>
			</linearGradient>
			<rect x="471.9" y="263.3" class="st4" width="137.4" height="23.1"/>
			
				<linearGradient id="SVGID_5_" gradientUnits="userSpaceOnUse" x1="520.7" y1="887.3" x2="560.1" y2="887.3" gradientTransform="matrix(1 0 0 -1 0 1080)">
				<stop  offset="0" style="stop-color:#E6E6E5"/>
				<stop  offset="0.506" style="stop-color:#AFAFAE"/>
				<stop  offset="1" style="stop-color:#E6E6E5"/>
			</linearGradient>
			<path class="st5" d="M560.1,166.2v53h-39.4v-53h9.1c2.7,2.8,6.5,4.6,10.6,4.6s8-1.8,10.6-4.6H560.1z"/>
			
				<linearGradient id="SVGID_6_" gradientUnits="userSpaceOnUse" x1="520.7192" y1="887.3" x2="526.7615" y2="887.3" gradientTransform="matrix(1 0 0 -1 0 1080)">
				<stop  offset="4.547000e-04" style="stop-color:#989898"/>
				<stop  offset="0.5388" style="stop-color:#E6E6E5"/>
				<stop  offset="0.9908" style="stop-color:#B4B4B4"/>
			</linearGradient>
			<rect x="520.7" y="166.2" class="st6" width="6" height="53"/>
			
				<linearGradient id="SVGID_7_" gradientUnits="userSpaceOnUse" x1="554.1247" y1="887.2" x2="560.167" y2="887.2" gradientTransform="matrix(1 0 0 -1 0 1080)">
				<stop  offset="4.547000e-04" style="stop-color:#989898"/>
				<stop  offset="0.5388" style="stop-color:#E6E6E5"/>
				<stop  offset="0.9908" style="stop-color:#B4B4B4"/>
			</linearGradient>
			<rect x="554.1" y="166.3" class="st7" width="6" height="53"/>
			
				<linearGradient id="SVGID_8_" gradientUnits="userSpaceOnUse" x1="520.202" y1="960.2996" x2="552.4207" y2="902.2403" gradientTransform="matrix(1 0 0 -1 0 1080)">
				<stop  offset="4.547000e-04" style="stop-color:#989898"/>
				<stop  offset="1" style="stop-color:#E6E6E5"/>
			</linearGradient>
			<path class="st8" d="M540.5,133.2c-12.7,0-23,10.3-23,23c0,4.3,1.2,8.3,3.2,11.7c1.6,2.6,3.6,4.9,6,6.7c3.8,2.9,8.6,4.6,13.7,4.6
				c5.1,0,9.8-1.7,13.6-4.5c2.4-1.8,4.4-4,6-6.5l0.1-0.1c2.1-3.5,3.3-7.5,3.3-11.8C563.4,143.5,553.2,133.2,540.5,133.2z
				 M540.5,170.8c-4.2,0-8-1.8-10.6-4.6c-2.5-2.6-4-6.2-4-10.1c0-8.1,6.6-14.7,14.7-14.7s14.7,6.6,14.7,14.7c0,3.9-1.5,7.5-4,10.1
				C548.4,169,544.7,170.8,540.5,170.8z"/>
			
				<linearGradient id="SVGID_9_" gradientUnits="userSpaceOnUse" x1="530.6274" y1="939.8708" x2="549.5991" y2="909.1237" gradientTransform="matrix(1 0 0 -1 0 1080)">
				<stop  offset="0" style="stop-color:#E6E6E5"/>
				<stop  offset="0.9995" style="stop-color:#989898"/>
			</linearGradient>
			<path class="st9" d="M540.5,139c-9.4,0-17.1,7.7-17.1,17.1c0,3.8,1.2,7.3,3.3,10.1c0,0,0,0.1,0.1,0.1c3.1,4.2,8.1,6.9,13.7,6.9
				c5.6,0,10.5-2.7,13.6-6.8l0.1-0.1c0,0,0-0.1,0.1-0.1c2.1-2.8,3.3-6.3,3.3-10.1C557.6,146.7,549.9,139,540.5,139z M551.1,166.2
				c-2.7,2.8-6.5,4.6-10.6,4.6s-8-1.8-10.6-4.6c-2.5-2.6-4-6.2-4-10.1c0-8.1,6.6-14.7,14.7-14.7s14.7,6.6,14.7,14.7
				C555.2,160,553.6,163.6,551.1,166.2z"/>
		</g>
	</g>
</g>
</svg>
