<?xml version="1.0" encoding="utf-8"?>
<!-- Generator: Adobe Illustrator 27.3.1, SVG Export Plug-In . SVG Version: 6.00 Build 0)  -->
<svg version="1.1" id="Layer_1" xmlns="http://www.w3.org/2000/svg" xmlns:xlink="http://www.w3.org/1999/xlink" x="0px" y="0px"
	 viewBox="0 0 40 40" style="enable-background:new 0 0 40 40;" xml:space="preserve">
<style type="text/css">
	.st0{fill:#FFFFFF;}
</style>
<g>
	<path class="st0" d="M13.9,0.5c0.7,0,1.4,0,2.1,0c0.1,0,0.2,0.1,0.2,0.1C17,0.7,17.9,0.8,18.7,1c7.5,2,12,9.7,10.2,17.3
		c-1.5,6.3-7.1,10.8-13.5,10.9c-2.3,0.1-4.4-0.4-6.5-1.3c-0.7-0.3-1.2-0.2-1.7,0.3c-0.2,0.2-0.5,0.4-0.8,0.6c-1.6,1-3.3,1.2-5.1,0.7
		c0-0.1,0-0.1,0-0.1c0-0.1,0.1-0.2,0.1-0.2c1.3-3,1.3-6,0.2-9.1c-0.9-2.4-1.3-4.9-0.8-7.4C1.9,6.6,5.4,2.7,11.3,1
		C12.2,0.7,13.1,0.6,13.9,0.5z M22.6,12.8c-1.1,0-2.1,1-2.1,2.1c0,1.1,1,2.1,2.1,2.1c1.1,0,2.1-1,2.1-2.1
		C24.7,13.8,23.7,12.8,22.6,12.8z M17,14.9c0-1.2-0.9-2.1-2.1-2.1c-1.1,0-2.1,0.9-2.1,2.1c0,1.1,0.9,2.1,2.1,2.1
		C16.1,17,17,16.1,17,14.9z M9.3,14.9c0-1.2-0.9-2.1-2.1-2.1c-1.1,0-2.1,0.9-2.1,2.1c0,1.1,0.9,2.1,2.1,2.1
		C8.4,17,9.3,16.1,9.3,14.9z"/>
	<path class="st0" d="M36.4,39.5c-0.5-0.1-1.1-0.2-1.6-0.5c-0.6-0.3-1.3-0.7-1.8-1.1c-0.6-0.5-1.2-0.6-1.9-0.3
		c-6.6,3-14.3,0.7-18.2-5.5c-0.1-0.1-0.2-0.3-0.3-0.5c5.7,0.5,10.6-1,14.5-5.2c3.9-4.1,5.3-9.1,4.4-14.8c0.1,0.1,0.2,0.1,0.3,0.1
		c4.1,2.3,6.6,5.8,7.4,10.5c0,0.3,0.1,0.6,0.1,0.9c0,0.7,0,1.4,0,2.1c0,0.1-0.1,0.1-0.1,0.2c-0.1,1.7-0.6,3.3-1.1,4.9
		c-1,2.9-0.8,5.7,0.4,8.5c0,0.1,0.1,0.2,0.1,0.3c-0.4,0.1-0.7,0.2-1.1,0.3C37.3,39.5,36.8,39.5,36.4,39.5z"/>
</g>
</svg>
