<?xml version="1.0" encoding="utf-8"?>
<!-- Generator: Adobe Illustrator 24.1.3, SVG Export Plug-In . SVG Version: 6.00 Build 0)  -->
<svg version="1.1" id="Layer_1" xmlns="http://www.w3.org/2000/svg" xmlns:xlink="http://www.w3.org/1999/xlink" x="0px" y="0px"
	 viewBox="0 0 1080 1080" style="enable-background:new 0 0 1080 1080;" xml:space="preserve">
<style type="text/css">
	.st0{fill:#EBEBEB;}
	.st1{fill:#E0E0E0;}
	.st2{fill:#F1F0F0;}
	.st3{fill:#FFFFFF;}
	.st4{fill:#E6E6E6;}
	.st5{fill:#F5F5F5;}
	.st6{fill:#5274B8;}
	.st7{fill:#263238;}
	.st8{opacity:0.5;fill:#FFFFFF;enable-background:new    ;}
	.st9{opacity:0.2;enable-background:new    ;}
	.st10{fill:#F58A7D;}
	.st11{opacity:0.1;fill:#FFFFFF;enable-background:new    ;}
	.st12{opacity:0.6;fill:#FFFFFF;enable-background:new    ;}
	.st13{opacity:0.7;fill:#FFFFFF;enable-background:new    ;}
	.st14{opacity:0.2;fill:#FFFFFF;enable-background:new    ;}
	.st15{opacity:0.3;enable-background:new    ;}
	.st16{fill:#F15A55;}
	.st17{fill:#BA4E3D;}
	.st18{opacity:0.3;fill:#FFFFFF;enable-background:new    ;}
	.st19{fill:#CE7A63;}
	.st20{fill:#CE7963;}
	.st21{fill:#F58B7D;}
	.st22{fill:#FBB574;}
	.st23{fill:#FBB474;}
	.st24{opacity:0.4;fill:#FFFFFF;enable-background:new    ;}
	.st25{fill:#EC883F;}
</style>
<g id="communicate2">
	<g>
		<rect x="168" y="748.3" class="st0" width="729.7" height="0.4"/>
		<rect x="776.2" y="771.8" class="st0" width="48.3" height="0.4"/>
		<rect x="638.7" y="775.8" class="st0" width="12.7" height="0.4"/>
		<rect x="746.7" y="758.2" class="st0" width="28" height="0.4"/>
		<rect x="244.6" y="760.7" class="st0" width="63" height="0.4"/>
		<rect x="320.6" y="760.7" class="st0" width="9.2" height="0.4"/>
		<rect x="359.9" y="766.9" class="st0" width="136.7" height="0.4"/>
		<path class="st0" d="M513.9,683.2H232.1c-4.6,0-8.3-3.7-8.3-8.3V278.8c0-4.6,3.7-8.3,8.3-8.3h281.8c4.6,0,8.3,3.7,8.3,8.3v396.1
			C522.2,679.5,518.5,683.2,513.9,683.2z M232.1,270.8c-4.4,0-8,3.6-8,8v396.1c0,4.4,3.6,8,8,8h281.8c4.4,0,8-3.6,8-8V278.8
			c0-4.4-3.6-8-8-8H232.1z"/>
		<path class="st0" d="M829.5,683.2H547.7c-4.6,0-8.3-3.7-8.3-8.3V278.8c0-4.6,3.7-8.3,8.3-8.3h281.8c4.6,0,8.3,3.7,8.3,8.3v396.1
			C837.9,679.5,834.1,683.2,829.5,683.2z M547.7,270.8c-4.4,0-8,3.6-8,8v396.1c0,4.4,3.6,8,8,8h281.8c4.4,0,8-3.6,8-8V278.8
			c0-4.4-3.6-8-8-8H547.7z"/>
	</g>
	<g>
		<rect x="292.6" y="364.4" class="st1" width="8.2" height="172.9"/>
		<g>
			<rect x="297.4" y="364.3" class="st1" width="156.4" height="172.9"/>
			<rect x="296.5" y="364.3" class="st2" width="162.2" height="172.9"/>
			<rect x="303.1" y="369.8" class="st3" width="148.7" height="159.5"/>
			<rect x="447.5" y="369.8" class="st1" width="4.3" height="159.5"/>
			<rect x="302.7" y="484.5" class="st1" width="145.2" height="4.3"/>
			<rect x="300.8" y="477.3" class="st2" width="151" height="7.2"/>
		</g>
		<g>
			<rect x="567.5" y="473.2" class="st2" width="215.1" height="272.4"/>
			<g>
				<rect x="575.1" y="483.1" class="st1" width="199.9" height="58.3"/>
				<rect x="763.5" y="492.6" class="st0" width="11.4" height="48.8"/>
				<rect x="708.6" y="492.6" class="st0" width="11.4" height="48.8"/>
				
					<rect x="623.3" y="510.7" transform="matrix(0.1698 -0.9855 0.9855 0.1698 28.83 1067.0288)" class="st0" width="48.8" height="11.4"/>
				<rect x="749.5" y="499" class="st0" width="11.4" height="42.4"/>
				<rect x="723.4" y="499" class="st0" width="11.4" height="42.4"/>
				<rect x="657.5" y="499" class="st0" width="11.4" height="42.4"/>
				
					<rect x="673.5" y="513.7" transform="matrix(0.2169 -0.9762 0.9762 0.2169 36.9709 1084.903)" class="st0" width="42.4" height="11.4"/>
				<rect x="739.7" y="490.2" class="st0" width="5.7" height="51.2"/>
				<rect x="672.2" y="490.2" class="st0" width="5.7" height="51.2"/>
			</g>
			<g>
				<rect x="575" y="550.6" class="st1" width="199.9" height="58.3"/>
				<rect x="575" y="560" class="st0" width="11.4" height="48.8"/>
				<rect x="629.9" y="560" class="st0" width="11.4" height="48.8"/>
				
					<rect x="696.5" y="559.4" transform="matrix(0.9855 -0.1698 0.1698 0.9855 -88.9378 127.7076)" class="st0" width="11.4" height="48.8"/>
				<rect x="589.1" y="566.5" class="st0" width="11.4" height="42.4"/>
				<rect x="615.2" y="566.5" class="st0" width="11.4" height="42.4"/>
				<rect x="681.1" y="566.5" class="st0" width="11.4" height="42.4"/>
				
					<rect x="649.6" y="565.7" transform="matrix(0.9762 -0.2169 0.2169 0.9762 -111.6982 156.1044)" class="st0" width="11.4" height="42.4"/>
				<rect x="604.6" y="557.6" class="st0" width="5.7" height="51.2"/>
				<rect x="672.1" y="557.6" class="st0" width="5.7" height="51.2"/>
				<rect x="763.5" y="560.1" class="st0" width="11.4" height="48.8"/>
				<rect x="749.5" y="566.4" class="st0" width="11.4" height="42.4"/>
				<rect x="723.4" y="566.4" class="st0" width="11.4" height="42.4"/>
				<rect x="739.7" y="557.6" class="st0" width="5.7" height="51.2"/>
			</g>
			<g>
				<rect x="575.1" y="618" class="st1" width="199.9" height="58.3"/>
				<g>
					<rect x="648.8" y="627.5" class="st0" width="11.4" height="48.8"/>
					
						<rect x="563.5" y="645.6" transform="matrix(0.1698 -0.9855 0.9855 0.1698 -153.7996 1120.0262)" class="st0" width="48.8" height="11.4"/>
					<rect x="689.6" y="634" class="st0" width="11.4" height="42.4"/>
					<rect x="663.5" y="634" class="st0" width="11.4" height="42.4"/>
					<rect x="597.6" y="634" class="st0" width="11.4" height="42.4"/>
					
						<rect x="613.6" y="648.7" transform="matrix(0.2169 -0.9762 0.9762 0.2169 -141.695 1132.1638)" class="st0" width="42.4" height="11.4"/>
					<rect x="679.8" y="625.1" class="st0" width="5.7" height="51.2"/>
					<rect x="612.3" y="625.1" class="st0" width="5.7" height="51.2"/>
					
						<rect x="694.2" y="645.6" transform="matrix(0.1698 -0.9855 0.9855 0.1698 -45.3033 1248.8452)" class="st0" width="48.8" height="11.4"/>
					<rect x="728.3" y="634" class="st0" width="11.4" height="42.4"/>
					
						<rect x="744.3" y="648.7" transform="matrix(0.2169 -0.9762 0.9762 0.2169 -39.3516 1259.7714)" class="st0" width="42.4" height="11.4"/>
					<rect x="742.9" y="625.1" class="st0" width="5.7" height="51.2"/>
				</g>
			</g>
		</g>
		<g>
			<path class="st4" d="M425.4,578.1H300.6c-13.5,0-24.5,11-24.5,24.5v97.5H450v-97.5C450,589.1,439,578.1,425.4,578.1z"/>
			<path class="st1" d="M486.9,650.4h-22.3c-8,0-14.6,6.5-14.6,14.6v80.6h51.5V665C501.4,656.9,494.9,650.4,486.9,650.4z"/>
			<path class="st0" d="M486.9,650.4h-0.5c-8,0-14.6,6.5-14.6,14.6v80.6h29.6V665C501.4,656.9,494.9,650.4,486.9,650.4z"/>
			<rect x="294.2" y="708.6" class="st4" width="171.4" height="37"/>
			<path class="st5" d="M465.8,674.7H300.6c-8.2,0-14.8,6.6-14.8,14.8v9.2c0,8.2,6.6,14.8,14.8,14.8h165.3c8.2,0,14.8-6.6,14.8-14.8
				v-9.2C480.6,681.3,474,674.7,465.8,674.7z"/>
			<path class="st1" d="M321.3,674.7h-20.5c-8.2,0-14.8,6.6-14.8,14.8v9.2c0,8.2,6.6,14.8,14.8,14.8h20.5c8.2,0,14.8-6.6,14.8-14.8
				v-9.2C336.2,681.3,329.5,674.7,321.3,674.7z"/>
			<path class="st1" d="M298.6,650.4h-22.3c-8,0-14.6,6.5-14.6,14.6v80.6h51.5V665C313.2,656.9,306.7,650.4,298.6,650.4z"/>
			<path class="st2" d="M298.6,650.4h-0.5c-8,0-14.6,6.5-14.6,14.6v80.6h29.6V665C313.2,656.9,306.7,650.4,298.6,650.4z"/>
		</g>
		<g>
			<circle class="st1" cx="669.5" cy="378.8" r="29.7"/>
			<ellipse class="st2" cx="669.6" cy="378.8" rx="25.3" ry="25.3"/>
			<g>
				<polyline class="st2" points="668.4,361.4 668.4,379.1 656.7,372.5 				"/>
				<path class="st1" d="M668.4,380.3c-0.2,0-0.4-0.1-0.6-0.2l-11.7-6.6c-0.6-0.3-0.8-1.1-0.5-1.7s1.1-0.8,1.7-0.5l9.8,5.6v-15.5
					c0-0.7,0.6-1.3,1.3-1.3s1.3,0.6,1.3,1.3v17.7c0,0.4-0.2,0.9-0.6,1.1C668.8,380.3,668.6,380.3,668.4,380.3z"/>
			</g>
		</g>
	</g>
	<ellipse id="_x3C_Path_x3E__359_" class="st5" cx="532.8" cy="794.1" rx="282.9" ry="20.1"/>
	<g>
		<path class="st6" d="M735.2,490.6h-39.3c-7.5,0-13.5,6.1-13.5,13.5v16.3c0,7.5,6.1,13.5,13.5,13.5h16.8l4.5,14.3l4.6-14.3h13.4
			c7.5,0,13.5-6.1,13.5-13.5v-16.3C748.7,496.7,742.6,490.6,735.2,490.6z"/>
		<path class="st3" d="M700.2,511.4c0,1.5-1.2,2.7-2.7,2.7s-2.7-1.2-2.7-2.7s1.2-2.7,2.7-2.7C699,508.6,700.2,509.9,700.2,511.4z
			 M709.5,508.6c-1.5,0-2.7,1.2-2.7,2.7c0,1.5,1.2,2.7,2.7,2.7s2.7-1.2,2.7-2.7C712.2,509.9,711,508.6,709.5,508.6z M721.5,508.6
			c-1.5,0-2.7,1.2-2.7,2.7c0,1.5,1.2,2.7,2.7,2.7s2.7-1.2,2.7-2.7C724.3,509.9,723,508.6,721.5,508.6z M733.6,508.6
			c-1.5,0-2.7,1.2-2.7,2.7c0,1.5,1.2,2.7,2.7,2.7s2.7-1.2,2.7-2.7C736.3,509.9,735.1,508.6,733.6,508.6z"/>
	</g>
	<g>
		<path class="st6" d="M330.7,538.8h-39.3c-7.5,0-13.5,6.1-13.5,13.5v16.3c0,7.5,6.1,13.5,13.5,13.5h16.8l4.5,14.3l4.6-14.3h13.4
			c7.5,0,13.5-6.1,13.5-13.5v-16.3C344.2,544.8,338.2,538.8,330.7,538.8z"/>
		<path class="st3" d="M295.7,559.5c0,1.5-1.2,2.7-2.7,2.7s-2.7-1.2-2.7-2.7s1.2-2.7,2.7-2.7S295.7,558,295.7,559.5z M305,556.8
			c-1.5,0-2.7,1.2-2.7,2.7s1.2,2.7,2.7,2.7s2.7-1.2,2.7-2.7C307.8,558,306.5,556.8,305,556.8z M317.1,556.8c-1.5,0-2.7,1.2-2.7,2.7
			s1.2,2.7,2.7,2.7s2.7-1.2,2.7-2.7C319.8,558,318.6,556.8,317.1,556.8z M329.1,556.8c-1.5,0-2.7,1.2-2.7,2.7s1.2,2.7,2.7,2.7
			s2.7-1.2,2.7-2.7C331.8,558,330.6,556.8,329.1,556.8z"/>
	</g>
	<g>
		<g>
			<path class="st7" d="M770.7,796.2H585.5c-34.6,0-36.8-40.7-8.4-59.9c4.8-3.2,10.4-5.9,16.9-7.6c56.3-14.8,135.5-114.4,191.1-72.7
				c0.1,0,0.1,0.1,0.2,0.1C841,698,802.2,796.2,770.7,796.2z"/>
			<path class="st8" d="M770.7,796.2H585.5c-34.6,0-36.8-40.7-8.4-59.9c4.8-3.2,10.4-5.9,16.9-7.6c56.3-14.8,135.5-114.4,191.1-72.7
				c0.1,0,0.1,0.1,0.2,0.1C841,698,802.2,796.2,770.7,796.2z"/>
			<path class="st9" d="M785.1,656c-4.7-0.3-10.3,1-16.4,6.1c-15.8,13.3,8.2,77.2-29.6,103.8c-21.1,14.8-112.3,21.4-142.7,3.2
				c-22.5-13.4-22.8-21.9-19.3-32.8c4.8-3.2,10.4-5.9,16.9-7.6C650.4,713.9,729.5,614.3,785.1,656z"/>
		</g>
		<g id="_x3C_Group_x3E__9_">
			<g>
				<path class="st10" d="M641.1,643.9l-11-7.8l8.3-8.4c0,0,8.5,4.4,7.7,12.2L641.1,643.9z"/>
				<polygon class="st10" points="625.8,627.5 633.4,622.7 638.4,627.7 630.1,636.1 				"/>
			</g>
			<path class="st7" d="M695.5,623.8c-10.5,3.1-15.6,21.5-24.3,38.9l-25.1-25l-8,7.1c0,0,23,36.6,33.9,36.6
				c13.6,0,27.7-37.7,27.7-37.7L695.5,623.8z"/>
			<path class="st11" d="M699.6,643.7c0,0-2.2,6-5.8,13.2c-3.4,7-8.1,15.1-13.2,20c-2.8,2.8-5.8,4.5-8.7,4.5
				c-10.9,0-33.9-36.6-33.9-36.6l8-7.1l25.2,25c8.6-17.4,13.8-35.8,24.3-38.9L699.6,643.7z"/>
			<path class="st9" d="M693.9,656.8c-3.4,7-8.1,15.1-13.2,20c0.5-16.7,8.7-32.9,8.7-32.9C691.8,648.1,693.2,652.5,693.9,656.8z"/>
			<g>
				<path class="st6" d="M685.5,725.5c0,0-88.8-12.8-93.5,6.7c-5,20.6,66.3,34.5,109,36c42.6,1.5,54.8-8.7,48-61.4h-58.3
					L685.5,725.5z"/>
				<path class="st12" d="M685.5,725.5c0,0-88.8-12.8-93.5,6.7c-5,20.6,66.3,34.5,109,36c42.6,1.5,54.8-8.7,48-61.4h-58.3
					L685.5,725.5z"/>
			</g>
			<polygon class="st10" points="636,766.1 617.4,766.1 608.5,766.1 607.4,756.7 615.7,755.6 635.9,752.9 			"/>
			<path class="st7" d="M609.4,755.5l2.3,10.7c0.1,0.6-0.3,1.2-0.9,1.3l-5.4,1c0,0-7.1,1.8-9.1,0.5c-5.8-3.7-11.4-27.3-9.1-29.1
				c0.9-0.6,2.4,0.3,3.1,1.1c2.4,2.4,7.5,9.3,9.5,11.3c2.4,2.4,6.5,2.4,8.4,2.3C608.9,754.7,609.3,755,609.4,755.5z"/>
			<polygon class="st9" points="636,766.1 617.4,766.1 615.7,755.6 635.9,752.9 			"/>
			<g>
				<polygon class="st10" points="663.2,749.5 680.9,755.4 689.4,758.2 687.4,767.4 679.2,765.9 659.2,762.1 				"/>
				<path class="st7" d="M685.1,767.9l1.2-10.9c0.1-0.6,0.6-1,1.2-1l5.4,0.8c0,0,7.3,0.5,8.8,2.4c4.4,5.4,2.2,29.6-0.6,30.5
					c-1,0.3-2.1-1.1-2.6-2c-1.5-3.1-4.2-11.2-5.5-13.7c-1.5-3-5.4-4.4-7.2-4.9C685.4,769,685,768.5,685.1,767.9z"/>
				<polygon class="st9" points="663.2,749.5 680.9,755.4 679.2,765.9 659.2,762.1 				"/>
				<g>
					<polygon class="st6" points="676.1,767.5 671.1,768 674.1,750.6 679.9,753.6 					"/>
					<polygon class="st12" points="676.1,767.5 671.1,768 674.1,750.6 679.9,753.6 					"/>
				</g>
				<path class="st6" d="M693,773.8c0.1,0.8,0,1.6-0.3,2.3c-0.3,0.4-0.8,0.7-1.3,0.7c-0.3,0-0.6-0.1-0.8-0.4c-0.7-1.3,1-5.2,1.2-5.7
					c0-0.1,0.1-0.2,0.2-0.1c0.1,0,0.2,0.1,0.2,0.2C692.6,771.8,692.8,772.8,693,773.8z M690.9,775.7c0,0.1,0,0.3,0.1,0.4
					c0.1,0.1,0.2,0.2,0.3,0.2c0.4,0,0.7-0.1,0.9-0.4c0.4-1.4,0.4-2.9-0.2-4.2C691.4,772.9,691,774.3,690.9,775.7z"/>
				<path class="st6" d="M692.3,770.8L692.3,770.8c-0.6,1.4-2.8,3.9-4,3.7c-0.4-0.1-0.7-0.4-0.8-0.9c-0.1-0.4,0-0.9,0.2-1.2
					c0.9-1.4,4-1.9,4.2-1.9c0.1,0,0.2,0,0.2,0.1C692.3,770.7,692.3,770.8,692.3,770.8z M688.1,773.5L688.1,773.5
					c0.1,0.5,0.2,0.5,0.3,0.5c0.7,0.1,2.4-1.5,3.1-2.8c-0.9,0.2-2.7,0.7-3.3,1.6C688.1,773,688.1,773.2,688.1,773.5L688.1,773.5z"/>
			</g>
			<path class="st6" d="M619.1,754.2c0,0,82.6-32.1,107.9-26.7c25.3,5.4,25.4,18.6,12.6,30.9c-12.8,12.3-32,7.6-32,7.6
				s15.1-9,14-14.6s-10.6,7.2-10.6,7.2s-49.9,12.2-91.2,9L619.1,754.2z"/>
			<g>
				<path class="st6" d="M600.5,752.5c-0.5-0.6-0.8-1.4-0.8-2.2c0.1-0.5,0.4-1,0.9-1.2c0.3-0.2,0.6-0.2,0.9,0
					c1.3,0.8,1.5,5.1,1.5,5.6c0,0.1,0,0.2-0.1,0.2s-0.2,0-0.3-0.1C601.8,754.2,601.1,753.4,600.5,752.5z M601.5,749.9
					c-0.1-0.1-0.2-0.2-0.3-0.3s-0.2-0.1-0.3,0c-0.3,0.1-0.6,0.4-0.6,0.8c0.3,1.4,1,2.7,2.1,3.6C602.4,752.6,602.1,751.2,601.5,749.9
					z"/>
				<path class="st6" d="M602.5,754.9L602.5,754.9c-0.1-1.4,0.6-4.7,1.8-5.1c0.4-0.1,0.8,0,1.1,0.4c0.3,0.3,0.4,0.7,0.4,1.2
					c-0.1,1.7-2.7,3.6-2.9,3.6c-0.1,0.1-0.2,0.1-0.3,0C602.6,754.9,602.5,754.9,602.5,754.9z M605,750.6L605,750.6
					c-0.3-0.4-0.5-0.3-0.6-0.3c-0.7,0.2-1.4,2.5-1.5,3.9c0.7-0.6,2.1-1.9,2.2-2.9C605.2,751,605.1,750.8,605,750.6L605,750.6z"/>
			</g>
			<path class="st13" d="M619.1,754.2c0,0,82.6-32.1,107.9-26.7c25.3,5.4,25.4,18.6,12.6,30.9c-12.8,12.3-32,7.6-32,7.6
				s15.1-9,14-14.6s-10.6,7.2-10.6,7.2s-49.9,12.2-91.2,9L619.1,754.2z"/>
			<g>
				<polygon class="st6" points="618.1,754 622.7,751.9 625.4,769.3 619,768.2 				"/>
				<polygon class="st12" points="618.1,754 622.7,751.9 625.4,769.3 619,768.2 				"/>
			</g>
			<path class="st7" d="M754.8,626.6c-8.9,49.6-5.7,81.7-5.7,81.7s-41.5-0.6-58.5-1.5c-9.1-60.1,4.9-83,4.9-83s6.2-1.3,13.5-1.9
				c1-0.1,1.9-0.1,2.9-0.2c6.4-0.2,16.9,0.6,24.1,1.4c1.5,0.2,3.1,0.4,4.5,0.6C748.1,624.9,754.8,626.6,754.8,626.6z"/>
			<path class="st11" d="M754.8,626.6c-1.1,6.2-2,12-2.8,17.6c-1.2,8.8-2,16.9-2.5,24.1c-0.2,2.2-0.3,4.3-0.4,6.3
				c-0.4,7.4-0.5,13.7-0.5,18.8c0,9.6,0.6,14.9,0.6,14.9s-41.5-0.6-58.5-1.5c-9.1-60.1,4.9-83,4.9-83s6.2-1.3,13.5-1.8
				c0.9-0.1,1.9-0.1,2.9-0.2c6.4-0.2,16.8,0.6,24.1,1.4c1.5,0.2,3,0.4,4.5,0.6C748.1,624.9,754.8,626.6,754.8,626.6z"/>
			<path class="st9" d="M717.8,681.4c17-2.3,27.5-5.5,31.3-6.8c-0.4,7.4-0.5,13.7-0.5,18.8c-19.8,1.8-27.9-2-27.9-2L717.8,681.4z"/>
			<path class="st9" d="M752,644.2c-1.2,8.8-2,16.9-2.5,24.1c-5.7-11.6-1.5-25.4-1.5-25.4L752,644.2z"/>
			<g>
				<path class="st7" d="M720,701.7h-30.2c-1.2,0-2.2-0.9-2.3-2.1l-4.2-40.1c-0.1-1.2,0.8-2.1,1.9-2.1h30.2c1.2,0,2.2,0.9,2.3,2.1
					l4.2,40.1C722,700.8,721.2,701.7,720,701.7z"/>
				<path class="st12" d="M720,701.7h-30.2c-1.2,0-2.2-0.9-2.3-2.1l-4.2-40.1c-0.1-1.2,0.8-2.1,1.9-2.1h30.2c1.2,0,2.2,0.9,2.3,2.1
					l4.2,40.1C722,700.8,721.2,701.7,720,701.7z"/>
				<path class="st14" d="M718.7,701.7h-28.9c-1.2,0-2.2-0.9-2.3-2.1l-4.2-40.1c-0.1-1.2,0.8-2.1,1.9-2.1h28.9
					c1.2,0,2.2,0.9,2.3,2.1l4.2,40.1C720.8,700.8,719.9,701.7,718.7,701.7z"/>
				<path class="st7" d="M701.1,676.3c-1.8,0-3.1,1.5-3,3.3s1.7,3.3,3.5,3.3s3.1-1.5,3-3.3C702.9,679.6,701.3,678.1,701.1,676.3z"/>
				<path class="st15" d="M707.7,660.6h-15.9c-0.8,0-1.5-0.5-1.9-1.2l-1-2h21l-0.6,2C709.1,660.2,708.5,660.6,707.7,660.6z"/>
			</g>
			<path class="st10" d="M717,680.1l-7-0.6l0.3,9.3l5.9,3.1l13.4-1.2l1.1-6.3C726.3,677.9,717,680.1,717,680.1z"/>
			<path class="st7" d="M754.8,626.6c7.2,2.2,17.3,43.8,15.7,53s-19.3,13.1-41.7,12.6v-10.9l26.1-7.6l-4.4-16.1c0,0-3.6-11.8-2-20.1
				C749.8,630.7,754.8,626.6,754.8,626.6z"/>
			<path class="st11" d="M754.8,626.6c7.2,2.2,17.3,43.8,15.7,53s-19.3,13.1-41.7,12.6v-10.9l26.1-7.6l-4.4-16.1
				c0,0-3.6-11.8-2-20.1C749.8,630.7,754.8,626.6,754.8,626.6z"/>
			<g>
				<path class="st10" d="M732.5,622.7c-3.6,3.8-9.3,7-18.5,6.6c-7-0.3-8-4.7-6.8-7.1c4.3-0.9,6.2-2.7,6.8-5.1
					c0.6-2.5-0.2-5.5-1.5-8.5l11.8-10l2-1.7c0,0.6-0.1,1.2-0.1,1.8c-0.1,2.1-0.1,4.5,0,6.9C726.7,612.2,728.2,619.3,732.5,622.7z"/>
				<path class="st9" d="M726.3,605.7c-2.2,4.5-6.1,9.9-12.3,11.4c0.6-2.5-0.2-5.5-1.5-8.5l11.8-10c0.6,0,1.3,0.1,1.9,0.1
					C726.2,600.8,726.1,603.2,726.3,605.7z"/>
			</g>
			<g>
				<path class="st7" d="M699.1,578.8c-1.7,4-2,12.5,4.1,10.4S702.1,572,699.1,578.8z"/>
				<path class="st10" d="M728.1,587.6c-0.5,10.6-0.3,16.9-5.6,22.4c-8,8.2-21.2,3.4-23.9-7.2c-2.4-9.5-1.1-25.3,9.2-29.6
					C718.1,569,728.7,577,728.1,587.6z"/>
				<path class="st7" d="M712,590.6c0,0.9-0.4,1.6-1,1.6s-1-0.7-1-1.6c0-0.9,0.4-1.6,1-1.6C711.5,589.1,712,589.8,712,590.6z"/>
				<path class="st7" d="M702.2,590.7c0,0.9-0.4,1.6-1,1.6s-1-0.7-1-1.6c0-0.9,0.4-1.6,1-1.6C701.7,589.1,702.2,589.8,702.2,590.7z"
					/>
				<path class="st16" d="M705.3,591.1c0,0-2,4.8-4.1,7.2c1.5,1.3,4.1,0.7,4.1,0.7V591.1z"/>
				<path class="st7" d="M715,587.5c-0.2,0-0.4,0-0.5-0.2c-1.4-1.8-3.3-1.7-3.3-1.7c-0.3,0-0.5-0.2-0.5-0.5s0.2-0.5,0.5-0.5
					c0.1,0,2.4-0.2,4.2,2.1c0.2,0.2,0.1,0.5-0.1,0.7C715.2,587.4,715.1,587.5,715,587.5z"/>
				<path class="st7" d="M698,587.3c-0.1,0-0.2,0-0.3,0c-0.3-0.1-0.4-0.4-0.2-0.7c1.2-2.5,3.5-2.8,3.6-2.9c0.3,0,0.5,0.2,0.6,0.4
					c0,0.3-0.2,0.5-0.4,0.6c-0.1,0-1.9,0.3-2.8,2.3C698.3,587.2,698.1,587.3,698,587.3z"/>
				<path class="st7" d="M711.4,579.1c0,0,2.9-2.1,4.3,0.2c1.3,2.3,1.3,8.3,1.3,8.3l0.6-1.1c0,0,3.8,13.4,9.2,10
					c5.5-3.4,13.5-17,0.7-24c0,0-1.4-3.2-9.8-4.8c-8.5-1.6-18.7,3.6-20.4,9.2c-1.7,5.6,0.7,8.7,0.7,8.7c0.5-2,1.6-3.3,1.6-3.3
					c0.2,1.8,2.1,2.6,2.1,2.6c0-2.2,0.7-3.3,0.7-3.3c0.2,1.2,1.4,2.7,1.4,2.7c0.6-5.8,4.5-6.9,5.8-6.9
					C711.1,577.5,711.4,579.1,711.4,579.1z"/>
				<path class="st10" d="M732.3,596.4c-0.8,2.7-2.8,4.8-4.9,5.9c-3.2,1.6-5.5-1-5.2-4.4c0.2-3,2.2-7.5,5.6-7.7
					C731.2,590,733.3,593.3,732.3,596.4z"/>
				<g>
					<path class="st7" d="M705.7,602.5c1,1,2.5,3,2.5,3c0.2-0.1,0.4-0.2,0.6-0.3c2.8-1.4,3.7-3,3.7-4.3c0-0.7-0.2-1.4-0.4-1.9
						c-0.3-0.6-0.6-0.9-0.6-0.9c-1,1.6-3.6,3.2-5,3.9C706.1,602.3,705.7,602.5,705.7,602.5z"/>
					<path class="st3" d="M706.6,602l0.8,0.9c2.7-1.3,4.3-2.7,4.8-3.9c-0.3-0.6-0.6-0.9-0.6-0.9C710.5,599.7,708,601.2,706.6,602z"
						/>
					<path class="st17" d="M708.8,605.2c2.8-1.4,3.7-3,3.7-4.3c-0.9,0.5-2,1.3-2.8,2.2C709.1,603.8,708.9,604.6,708.8,605.2z"/>
				</g>
			</g>
		</g>
	</g>
	<g>
		<g>
			<path class="st6" d="M451.7,637.1l0.8,8.1c0,0,47.4,7.2,55,14.6C515,667.2,542,784,542,784l-10.9,1.5c0,0-37.7-86.1-39.7-98.6
				c0,0-33.2,1.2-55.8,1.2c-22.6,0-25.4-51.1-25.4-51.1L451.7,637.1L451.7,637.1z"/>
			<path class="st18" d="M542,784l-10.9,1.5c0,0-15.4-35.2-27-63.9c-6.6-16.2-11.9-30.2-12.7-34.7c0,0-23,0.8-43.7,1.1
				c-4.2,0.1-8.3,0.1-12.1,0.1c-22.7,0-25.4-51.1-25.4-51.1h41.5l0.8,8.1c0,0,47.4,7.2,55,14.6C515,667.2,542,784,542,784z"/>
			<path class="st7" d="M550.3,794.5c-7.3,0-8.3-0.1-12.4-0.3c-3.5-0.1-4.4,0.3-7.2,0.3c-2.4-0.1-2.3-2.3-1.5-4.9
				c0.4-1.3,0.9-4.1,1.4-6.2l10.7-0.8c1.5,2.9,4.9,7,9,7.5C554.3,790.7,553.2,794.5,550.3,794.5z"/>
		</g>
		<path class="st9" d="M504.1,721.6c-6.6-16.2-11.9-30.2-12.7-34.7c0,0-23,0.8-43.7,1.1l-2.3-39.7c0,0,29.3,4.2,49,21.2
			C496.9,671.6,501.7,704.1,504.1,721.6z"/>
		<g>
			<path class="st7" d="M415.6,683.9h71.7c3.6,0,6.6,2.9,6.6,6.6v5.2H409v-5.2C409,686.8,412,683.9,415.6,683.9z"/>
			<path class="st14" d="M415.6,683.9h71.7c3.6,0,6.6,2.9,6.6,6.6v5.2H409v-5.2C409,686.8,412,683.9,415.6,683.9z"/>
			<path class="st7" d="M490.9,771.9l-32.7-2.8v-42.9h-11.5v42.9l-32.8,2.9c-2.9,0.3-5.1,2.7-5.1,5.6v4.4h42.5h2.1H496v-4.4
				C496,774.6,493.8,772.2,490.9,771.9z"/>
			<path class="st7" d="M419.4,787.3c0,4.2-3.4,7.5-7.5,7.5s-7.5-3.4-7.5-7.5s3.4-7.5,7.5-7.5S419.4,783.1,419.4,787.3z"/>
			<circle class="st7" cx="492.9" cy="787.3" r="7.5"/>
			<path class="st7" d="M454.8,734.9h-4.6c-3,0-5.4-2.4-5.4-5.4v-36.6h15.5v36.6C460.2,732.5,457.8,734.9,454.8,734.9z"/>
			<path class="st14" d="M454.8,734.9h-4.6c-3,0-5.4-2.4-5.4-5.4v-36.6h15.5v36.6C460.2,732.5,457.8,734.9,454.8,734.9z"/>
			<g>
				<path class="st7" d="M408.5,691.2h86c1.5,0,2.6,1.2,2.6,2.6v0.6c0,1.5-1.2,2.6-2.6,2.6h-86c-1.5,0-2.6-1.2-2.6-2.6v-0.6
					C405.8,692.3,407,691.2,408.5,691.2z"/>
			</g>
			<path class="st14" d="M419.4,787.3c0,4.2-3.4,7.5-7.5,7.5s-7.5-3.4-7.5-7.5s3.4-7.5,7.5-7.5S419.4,783.1,419.4,787.3z"/>
			<circle class="st14" cx="492.9" cy="787.3" r="7.5"/>
		</g>
		<g>
			<path class="st7" d="M501.1,623.5h-26.2c-7.7,0-13.2-6.9-12.4-15.4l1.1-11.4c0.8-8.5,7.7-15.4,15.4-15.4h26.2
				c7.7,0,13.2,6.9,12.4,15.4l-1.1,11.4C515.6,616.6,508.7,623.5,501.1,623.5z"/>
			<path class="st14" d="M501.1,623.5h-26.2c-7.7,0-13.2-6.9-12.4-15.4l1.1-11.4c0.8-8.5,7.7-15.4,15.4-15.4h26.2
				c7.7,0,13.2,6.9,12.4,15.4l-1.1,11.4C515.6,616.6,508.7,623.5,501.1,623.5z"/>
			<path class="st7" d="M498.7,617.9h-15.5c-4.5,0-7.8-4.1-7.3-9.1l0.7-6.7c0.5-5,4.6-9.1,9.1-9.1h15.5c4.5,0,7.8,4.1,7.3,9.1
				l-0.7,6.7C507.3,613.9,503.2,617.9,498.7,617.9z"/>
			<path class="st7" d="M486.4,607.9c0,0-3.5,71-18.8,83.2H484c0,0,14.6-24.2,15.7-83.2H486.4z"/>
		</g>
		<g>
			<path class="st19" d="M499.5,578.4l2.8-1.5c1.1-0.6,2.3-0.6,3.4-0.1l5,2.5c2,1,3.4,2.9,3.8,5.1l0.2,1.4
				c-4.5,2.8-11.5,2.6-11.5,2.6l-2,0.1c-1.8,0.1-3.3-1.1-3.4-2.8l-0.3-3.9C497.5,580.4,498.3,579,499.5,578.4z"/>
			<path class="st9" d="M499.5,578.4l2.8-1.5c1.1-0.6,2.3-0.6,3.4-0.1l5,2.5c2,1,3.4,2.9,3.8,5.1l0.2,1.4
				c-4.5,2.8-11.5,2.6-11.5,2.6l-2,0.1c-1.8,0.1-3.3-1.1-3.4-2.8l-0.3-3.9C497.5,580.4,498.3,579,499.5,578.4z"/>
			<path class="st6" d="M478.8,581.8l-10.2,12.9h-9.7l1.3-18C467.5,578.1,478.8,581.8,478.8,581.8z"/>
			<path class="st9" d="M467.8,594.8h-8.4l5.2-12.9C464.6,581.8,467.6,586.4,467.8,594.8z"/>
			<path class="st6" d="M452.3,642l-42.8-4c1.3-4.5,2.5-9,3.5-13.3c1.2-5.3,2.2-10.3,3-15s1.4-9.1,1.9-13.1c0-0.4,0.1-0.8,0.1-1.1
				c0.1-0.6,0.1-1.2,0.2-1.8c0.4-3.8,0.7-7.2,0.9-9.9c0.4-5.4,0.4-8.5,0.4-8.5c24.7-4.6,44,2.6,44,2.6
				C470,595.7,452.3,642,452.3,642z"/>
			<g>
				<path class="st19" d="M452.2,580.7L452.2,580.7c-2.8,5.9-11,6.5-14.7,1.1l-1.9-2.8l-2.3-3.4c3.8-2.3,5.3-9.5,5.8-15.7l0,0
					c0.2-1.9,0.2-3.8,0.2-5.4l9.6,13.2c-0.7,1.4-1.2,2.9-1.5,4.4c-0.1,0.6-0.2,1.3-0.2,1.9C447.4,576.4,448.7,578.8,452.2,580.7z"/>
				<path class="st9" d="M449,567.7c-0.7,1.4-1.2,2.9-1.5,4.4c-2.5,3.2-6.5,6.7-11.9,6.9l-2.3-3.4c3.8-2.3,5.3-9.5,5.8-15.7l0,0
					c0.2-1.9,0.2-3.8,0.2-5.4L449,567.7z"/>
			</g>
			<g>
				<path class="st7" d="M425.9,545.7c0,0-4.7-1.8-3.3-5.1s3.1-3.2,3.1-3.2s-2.5-4.4-0.2-8.8c2.4-4.4,7.5-2.6,7.5-2.6s0-5,4.8-5.9
					s6.8,3.6,6.8,3.6s3.3-4.2,8.1-3.1c4.8,1.2,5.8,7.8,5.8,7.8s4.4-1.6,6.6,3.2s-0.8,8.4-0.8,8.4s3.1-1.4,4.1,3.5s-4.1,9.2-4.1,9.2
					s2.8,0.3,1.3,4c-1.4,3.6-5.9,3.7-5.9,3.7s1.7,0.9-1.6,3.9c-3.3,3-14-1.3-14-1.3L425.9,545.7z"/>
				<path class="st19" d="M439,537.9c-10.2,0.5-13.2,6.2-13.4,16.7c-0.2,13.2,3.2,22.3,15.7,18.9C458.4,568.8,455.9,537,439,537.9z"
					/>
				<path class="st17" d="M432.1,553.7c0,0-1.3,2.7-2.7,4.4c0,0,0.9,1.3,2.7,1V553.7z"/>
				<g>
					<path class="st7" d="M438.3,552.6c0,0.8,0.5,1.5,1.1,1.5s1-0.7,1-1.5s-0.5-1.5-1.1-1.5C438.7,551,438.3,551.7,438.3,552.6z"/>
					<path class="st7" d="M439.5,551l-1.8-0.7C437.7,550.4,438.6,551.9,439.5,551z"/>
				</g>
				<g>
					<path class="st7" d="M427.9,552.7c0,0.8,0.5,1.5,1.1,1.5s1-0.7,1-1.5s-0.5-1.5-1.1-1.5S427.9,551.9,427.9,552.7z"/>
					<path class="st7" d="M429.1,551.2l-1.8-0.7C427.3,550.5,428.2,552,429.1,551.2z"/>
				</g>
				<path class="st7" d="M442.6,547.3c-0.1,0-0.2,0-0.3-0.1c-1.5-1.6-4.1-1.2-4.1-1.2c-0.2,0-0.5-0.1-0.5-0.4c0-0.2,0.1-0.5,0.3-0.5
					c0.1,0,3.1-0.5,4.9,1.4c0.2,0.2,0.1,0.5,0,0.6C442.8,547.2,442.7,547.3,442.6,547.3z"/>
				<path class="st7" d="M426.6,547c-0.1,0-0.3-0.1-0.3-0.2c-0.1-0.2-0.1-0.5,0.1-0.6c2.3-1.7,4.3-1.1,4.4-1.1
					c0.2,0.1,0.4,0.3,0.3,0.5s-0.3,0.4-0.5,0.3l0,0c-0.1,0-1.7-0.5-3.6,1C426.8,546.9,426.7,547,426.6,547z"/>
				<path class="st7" d="M451,554.5c0,0-5.2-8.1-4.8-14.6c0,0-20.6-7.2-20.6,13.4c0,0-2.9-18.1,14.6-19.4
					c17.5-1.3,18.8,24.3,10.1,32.4C450.3,566.3,454.2,559.6,451,554.5z"/>
				<path class="st19" d="M449.5,556.8c0-1.6,1.5-4.5,4.6-4.3c3.2,0.2,5,6.6-2.8,8.6C450.2,561.3,449.5,560.2,449.5,556.8z"/>
				<path class="st7" d="M434.6,565.1c-0.5,0-0.9-0.1-0.9-0.1c-0.2,0-0.4-0.3-0.4-0.5s0.3-0.4,0.5-0.4s4,0.6,5.4-2.9
					c0.1-0.2,0.3-0.3,0.6-0.2c0.2,0.1,0.3,0.3,0.2,0.6C438.9,564.6,436,565.1,434.6,565.1z"/>
				<path class="st6" d="M454.7,550.8c-2.4-12.7-21.1-23.3-28.2-8.6c0,0,1.4-5.4,6.5-9.3c0,0,19-5.4,22.3,16.2L454.7,550.8z"/>
			</g>
			<path class="st7" d="M444.8,794.5c-7.3,0-8.3-0.1-12.4-0.3c-3.5-0.1-4.4,0.3-7.2,0.3c-2.4-0.1-2.3-2.3-1.5-4.9
				c0.4-1.3,0.9-4.1,1.4-6.2l10.7-0.8c1.5,2.9,4.9,7,9,7.5C448.8,790.7,447.7,794.5,444.8,794.5z"/>
			<path class="st6" d="M410.2,637.1c0,0-14.7,21.7-6.7,39.5s47.9,9.8,47.9,9.8l-26.4,97l12.6,2.1c0,0,44.7-96.1,45.8-112.5
				c1.1-16.4-47.1-26.9-47.1-26.9L410.2,637.1z"/>
			<path class="st18" d="M410.2,637.1c0,0-14.7,21.7-6.7,39.5s47.9,9.8,47.9,9.8l-26.4,97l12.6,2.1c0,0,44.7-96.1,45.8-112.5
				c1.1-16.4-47.1-26.9-47.1-26.9L410.2,637.1z"/>
			<path class="st9" d="M454.7,587.2c0,0-20.4,14.4-36.6,8.2c0.1-0.6,0.1-1.2,0.2-1.8c0.4-3.8,0.7-7.2,0.9-9.9
				c6.8-3.4,16.2-5.8,16.2-5.8S443.8,584.6,454.7,587.2z"/>
			<path class="st20" d="M426.2,575.2c9,4.3,18.3,9.8,28.1,11.8c5.6-0.4,11.9-2.7,17.6-4.2l17-5.1c1.6-0.5,3.3,0.4,3.8,2
				c0.4,1.4-0.2,2.9-1.5,3.6c-5.3,2.9-10.6,5.6-16.2,8.1c-6.8,2.8-13.1,6.1-20.8,6.8c-2.9,0-5.5-0.5-8.2-1.2
				c-9.2-2.6-17.4-6.4-25.7-10.9C413.5,581.9,419,571.7,426.2,575.2L426.2,575.2z"/>
			<path class="st6" d="M421.5,573.6c-7.9,1.9-8.1,15.4-0.9,21.7l17.5-14.8C438.1,580.5,430.8,571.4,421.5,573.6z"/>
			<g>
				<path class="st19" d="M489.4,577.8l9.7-0.2l-4.4,9.8c0,0-8.7-0.3-8.3-4.8L489.4,577.8z"/>
				<polygon class="st19" points="507.4,582.3 500.8,589.5 494.7,587.4 499.1,577.5 				"/>
			</g>
		</g>
	</g>
	<g>
		<path class="st21" d="M637.7,695.9c6.8,14,13.3,28.1,17.7,43.1c2,10.2,2.4,20.6,3.2,30.7c0.5,8.4,0.8,16.8,1,25.2l-7.5,0.8
			c-2.4-11.8-4.6-25-6.7-37c-1-5.4-1.7-10.7-3.1-15.9c-5.2-13.4-12.3-27.2-18.3-40.3C624,702.6,637.7,695.9,637.7,695.9L637.7,695.9
			z"/>
		<path class="st6" d="M648.9,714.3L637,720l-7.4,3.6l-4.5-10.8l-4.7-11.3l4-20.6C636.6,686.3,648.9,714.3,648.9,714.3z"/>
		<path class="st9" d="M637,720.1l-7.4,3.6l-4.5-10.8c0.9-6.1,1.7-11.3,1.7-11.3S635.5,709.3,637,720.1z"/>
		<g>
			<path class="st7" d="M601.3,643.7c0.1,0.9,0.7,1.5,1.3,1.4s0.9-0.9,0.8-1.7c-0.1-0.9-0.7-1.5-1.3-1.4
				C601.6,642,601.2,642.8,601.3,643.7z"/>
			<path class="st16" d="M602,645.2c0,0,2.8,4.7,5.3,6.8c-1.3,1.7-4,1.4-4,1.4L602,645.2z"/>
			<path class="st7" d="M597.4,639.3c-0.1,0-0.2-0.1-0.3-0.2c-0.2-0.2-0.2-0.5,0-0.7c2-2,4.4-1.5,4.5-1.5c0.3,0.1,0.5,0.3,0.4,0.6
				s-0.3,0.5-0.6,0.4l0,0c-0.1,0-1.9-0.4-3.5,1.2C597.7,639.3,597.5,639.4,597.4,639.3z"/>
			<path class="st10" d="M604.1,656.9c-0.1,1.3-0.4,2.5-0.8,3.7c-0.7,2.2-2,4.1-3.5,5.7c-1.6,1.7-3.6,2.9-5.8,3.7
				c-4,1.4-8.6,0.9-12.7-2.1c-6.2-4.6-7.1-11-9.4-21.5c-2.3-10.6,6.9-20.3,17.8-17.7C601,631.3,604.9,646.9,604.1,656.9z"/>
			<path class="st7" d="M576,663.6c4.3,2.8,20.9-5,18.2-18c0,0,6.5-7.1,6.2-15.4c-0.3-8.2-5.8-11.6-11.9-10.1
				c-5.3,1.3-5.3,4.2-5.3,4.2s-25,1.8-20.2,12.1C552.4,647,570.6,660.2,576,663.6z"/>
			<path class="st10" d="M589.8,647.6c0.6,2.8,2.3,5.2,4.1,6.7c2.7,2.2,5,0.3,4.9-3c0-2.9-1.5-7.6-4.6-8.6
				C591.1,641.8,589.1,644.4,589.8,647.6z"/>
			<path class="st9" d="M603.4,660.5c-0.7,2.2-2,4.1-3.5,5.7c-1.6,1.7-3.6,2.9-5.8,3.7c-2.4-1.2-4.3-2.6-4.3-2.6l2.2-5.4
				C592,661.9,598.8,665.2,603.4,660.5z"/>
		</g>
		<path class="st10" d="M579.6,677l-1.9-12.8c0,0,8.3-5.8,17.1-1.9l13.1,15.8L579.6,677z"/>
		<path class="st6" d="M609.4,676.5l-3-4.6c0,0-22.1-8.2-31.8,2.3C574.6,674.2,596.2,685.6,609.4,676.5z"/>
		<path class="st9" d="M609.4,676.5l-3-4.6c0,0-22.1-8.2-31.8,2.3C574.6,674.2,596.2,685.6,609.4,676.5z"/>
		<g>
			<polygon class="st10" points="524.5,800.6 516.2,795.2 519.4,790.4 528,777.5 536.4,782.9 526.8,797.2 			"/>
			<path class="st7" d="M516.7,794.5l11.6-0.1c0.4,0,0.7,0.3,0.8,0.6l2,8.5c0.2,0.8-0.3,1.5-1.1,1.7c-0.1,0-0.2,0-0.3,0
				c-3.8,0-6.5-0.2-11.2-0.2c-2.9,0-11.7,0.4-15.7,0.5c-4,0-4.6-3.9-2.9-4.3c7.3-1.7,12.9-4,15.2-6.1
				C515.6,794.7,516.1,794.5,516.7,794.5z"/>
			<path class="st7" d="M519,787.2l15.3,4.1l82.9-62.9l-42.5-9.3c-6.2-1.4-12.7,1.3-16.1,6.7L519,787.2z"/>
			<path class="st9" d="M519,787.2l15.3,4.1l82.9-62.9l-42.5-9.3c-6.2-1.4-12.7,1.3-16.1,6.7L519,787.2z"/>
		</g>
		<polygon class="st10" points="473.7,800.9 465.1,796 468.1,791 476,777.6 484.7,782.6 475.8,797.4 		"/>
		<path class="st7" d="M465.5,794.3h11.6c0.4,0,0.7,0.3,0.8,0.7l1.9,8.5c0.2,0.8-0.3,1.5-1.1,1.7c-0.1,0-0.2,0-0.3,0
			c-3.8-0.1-6.5-0.3-11.2-0.3c-2.9,0-11.7,0.3-15.7,0.3s-4.5-4-2.9-4.3c7.4-1.6,12.9-3.8,15.3-5.9
			C464.3,794.5,464.9,794.3,465.5,794.3z"/>
		<g>
			<path class="st6" d="M637.1,761.5c-17.5,0-49.4,0.1-57.9,0.1c-1.4-5.1-3.3-23-9-45.1c-1.5-6-3.3-12.3-5.5-18.8
				c-2.3-7-3.2-9.9-6.5-17.1c0,0,7.8-5,17-6.6c25.6-4.4,49.2,6.9,49.2,6.9S634.6,709.3,637.1,761.5z"/>
		</g>
		<path class="st9" d="M570.2,716.5c-1.5-6-3.3-12.3-5.5-18.8l4.1-1.6C568.8,696.1,575.1,710.4,570.2,716.5z"/>
		<path class="st10" d="M544.9,726.4l6.7,3.2l2.6-11.3c0,0-5.4-1.9-9.4,0.9L544.9,726.4z"/>
		<polygon class="st10" points="561.3,733.4 561.6,723.1 554.2,718.3 551.6,729.6 		"/>
		<path class="st21" d="M565.9,698.3c-11.2,6.1-24,11.6-33.7,19.6c-0.2,0.2-0.1,0.3,0.1-0.6c0-0.2,0.1-0.8-0.2-1.6s-0.8-1.3-1-1.3
			c-0.2-0.1-0.1,0.1,0.2,0.3s0.7,0.4,1.1,0.6c4.5,1.7,10.7,2.3,15.8,2.9l0.8,7.5c-1.6,0.5-3.1,0.8-4.6,1.1c-5.9,1-11.9,1.7-18-0.3
			c-5.3-1.6-8.9-7.3-7.2-12.9c3-10.7,30.2-24,40.2-28.9C559.2,684.6,565.9,698.3,565.9,698.3L565.9,698.3z"/>
		<path class="st7" d="M576.5,749.3l-2.6,6.7c0,0-31-38.3-48.2-40.5s-56.9,70.7-56.9,70.7l15.1,4.6l42.5-38.5
			c17.6,30.6,38.5,53,63.4,53c9.2,0,17.8,0,24.3,0c27.2,0,27.5-30.3,22.1-56H576.5z"/>
		<path class="st6" d="M558.3,680.6c-9.7,3.6-21.2,14.4-21.2,14.4s9.6,16.7,10.6,16.1c1-0.6,20.7-6.3,20.7-6.3s4-5.2,0.9-14.1
			C566.2,681.8,558.3,680.6,558.3,680.6z"/>
		<g>
			<path class="st10" d="M656,789.9l10.6,0.5l-5.6,10.3c0,0-9.4-1-8.7-5.9L656,789.9z"/>
			<polygon class="st10" points="675.3,796.4 667.4,803.6 661,800.8 666.6,790.5 			"/>
		</g>
	</g>
	<g>
		<path class="st22" d="M328.1,685.3c7.1,7.1,14.1,15.2,22.6,20.6c0.1,0,0.5,0.3,0.6,0.3c-0.2-0.1-0.6-0.1-0.7-0.1
			c-0.2,0,0.1,0.1,0.5,0c9.7-2.7,18.7-9.1,27.6-13.9c3.3-2,6.8,2.5,4,5.2c-7,6.4-25.7,23.6-35.5,20c-6-2.2-11-6.3-15.8-10.3
			c-4.7-4.1-8.9-8.3-13-12.9C312.8,687.5,322.1,679.1,328.1,685.3L328.1,685.3z"/>
		<path class="st6" d="M340.3,695.4c-1.2,9.3-8.8,18.4-8.8,18.4l-1.5-1l-7.7-5.1c0,0-0.1-0.4-0.4-1.2c-0.2-0.7-0.5-1.7-0.8-2.8
			c-1.8-6.2-4.9-17.8-5.3-22.6C325.3,680.7,329.6,685.2,340.3,695.4z"/>
		<path class="st13" d="M340.3,695.4c-1.2,9.3-8.8,18.4-8.8,18.4l-1.5-1l-7.7-5.1c0,0-0.1-0.4-0.4-1.2c-0.2-0.7-0.5-1.7-0.8-2.8
			c-1.8-6.2-4.9-17.8-5.3-22.6C325.3,680.7,329.6,685.2,340.3,695.4z"/>
		<path class="st9" d="M330,712.8l-7.7-5.1c0,0-0.1-0.4-0.4-1.2c0.2-2.1,0.7-4.5,1.3-7C323.2,699.5,329.7,704,330,712.8z"/>
		<g>
			<path class="st7" d="M320.6,741.2l6.5,11.5c17.6-4.1,73.8-12.7,80.7,6.6c8.6,24-53.5,43.1-87.8,44.3s-64.3-7-42.6-57.1
				L320.6,741.2z"/>
			<path class="st9" d="M320.6,741.2l6.5,11.5c17.6-4.1,73.8-12.7,80.7,6.6c8.6,24-53.5,43.1-87.8,44.3s-64.3-7-42.6-57.1
				L320.6,741.2z"/>
		</g>
		<path class="st7" d="M398,793.2c-0.1,0-0.2,0-0.3,0c-0.1,0-0.1-0.1-0.1-0.2c0.1-0.4,1.2-3.7,2.4-4c0.2-0.1,0.5,0,0.7,0.2
			c0.3,0.3,0.5,0.7,0.4,1.1c-0.2,0.6-0.6,1.2-1.1,1.6C399.4,792.3,398.7,792.8,398,793.2z M398.3,792.5c1.1-0.5,1.9-1.3,2.4-2.4
			c0.1-0.3-0.1-0.6-0.3-0.8c-0.1-0.1-0.2-0.1-0.3-0.1c-0.1,0-0.2,0.1-0.3,0.2C399.2,790.4,398.6,791.4,398.3,792.5z"/>
		<path class="st7" d="M397.9,793.2c-0.1,0-0.2,0-0.2-0.1c-0.1-0.1-1.7-2.1-1.4-3.4c0.1-0.3,0.3-0.6,0.5-0.8s0.6-0.3,0.9-0.1
			C398.5,789.4,398.4,792.1,397.9,793.2L397.9,793.2C398,793.2,397.9,793.2,397.9,793.2z M397,789.3c-0.1,0.1-0.2,0.3-0.3,0.5
			c-0.2,0.9,0.6,2.1,1.1,2.8c0.3-1.1,0.2-3-0.3-3.4C397.4,789.1,397.3,789.1,397,789.3L397,789.3L397,789.3z"/>
		<path class="st7" d="M337.6,798.8c0-0.1,0.1-0.1,0.2-0.1s0.1,0.1,0.2,0.2c0.1,0.4,0.7,3.8-0.1,4.7c-0.2,0.2-0.5,0.2-0.7,0.2
			c-0.4-0.1-0.8-0.4-0.9-0.8c-0.1-0.6-0.1-1.3,0.2-1.9C336.7,800.3,337.1,799.5,337.6,798.8z M337.6,799.5c-0.7,0.9-1.1,2.1-1,3.2
			c0.1,0.3,0.3,0.5,0.6,0.5c0.1,0,0.2,0,0.3-0.1c0.1-0.1,0.1-0.2,0.2-0.3C337.9,801.8,337.9,800.6,337.6,799.5z"/>
		<polygon class="st23" points="360.1,781.4 345.9,786.5 339.2,788.9 340.9,796.3 347.5,794.9 363.5,791.5 		"/>
		<path class="st6" d="M342.7,796.7l-1.2-8.8c-0.1-0.5-0.5-0.8-1-0.7l-4.3,0.7c0,0-5.9,0.6-7.1,2.1c-3.4,4.4-1.3,23.9,1,24.5
			c0.8,0.3,1.7-0.9,2.1-1.7c1.2-2.5,3.2-9.1,4.2-11.1c1.2-2.4,4.3-3.6,5.7-4C342.6,797.5,342.8,797.1,342.7,796.7z"/>
		<path class="st7" d="M337.6,798.7c0.1-0.1,0.1-0.1,0.2,0c0.1,0,2.5,1,2.9,2.3c0.1,0.3,0.1,0.7-0.1,1c-0.1,0.3-0.4,0.5-0.8,0.5
			c-1-0.1-2.2-2.5-2.4-3.6L337.6,798.7C337.6,798.8,337.6,798.8,337.6,798.7z M340.3,801.7c0.1-0.2,0.1-0.4,0-0.6
			c-0.3-0.8-1.6-1.6-2.3-1.9c0.3,1.1,1.3,2.7,1.9,2.8C340,802.1,340.1,802.1,340.3,801.7L340.3,801.7L340.3,801.7z"/>
		<polygon class="st9" points="360.1,781.4 345.9,786.5 347.5,794.9 363.5,791.5 		"/>
		<g>
			<polygon class="st6" points="350,796.2 354,796.5 351.3,782.5 346.7,785 			"/>
			<polygon class="st12" points="350,796.2 354,796.5 351.3,782.5 346.7,785 			"/>
		</g>
		<path class="st9" d="M291,741.8l21.2,23.5c0,0,23.4-0.5,51.8,13.4c0,0,30.5-12.6,33.3-23.1c3.7-13.7-70.1-3-70.1-3L291,741.8z"/>
		<path class="st6" d="M320.4,751.3l-43.2-5c0.8-4.1,1.3-8.4,1.5-13.5c0.2-5.4,0-11.7-0.8-19.3c-0.6-6.1-1.5-13.2-2.9-21.5
			c-1.1-6.6,3.7-12.2,10.1-12.1c1.7,0,3.6,0.1,5.4,0.2c7.3,0.5,13.2,0.9,19.6,2.3c2.1,0.4,4.3,1,6.4,1.5c7.5,1.9,12.1,11.4,11.5,19
			c-0.4,4.3-0.2,7.6-2,17.6C324.8,729,323.3,737.3,320.4,751.3z"/>
		<path class="st13" d="M320.4,751.3l-43.2-5c0.8-4.1,1.3-8.4,1.5-13.5c0.2-5.4,0-11.7-0.8-19.3c-0.6-6.1-1.5-13.2-2.9-21.5
			c-1.1-6.6,3.7-12.2,10.1-12.1c1.7,0,3.6,0.1,5.4,0.2c7.3,0.5,13.2,0.9,19.6,2.3c2.1,0.4,4.3,1,6.4,1.5c7.5,1.9,12.1,11.4,11.5,19
			c-0.4,4.3-0.2,7.6-2,17.6C324.8,729,323.3,737.3,320.4,751.3z"/>
		<path class="st9" d="M278.8,732.8c0.2-5.4,0-11.7-0.8-19.3c5.4-6.4,10.5-11.7,10.5-11.7S297,723.6,278.8,732.8z"/>
		<path class="st22" d="M285.6,699.4c0.5,9.2,0.4,23.6,2.1,32.4l-0.4-1.1c-0.3-0.4-0.1-0.1,0.2,0.2c0.3,0.3,0.8,0.7,1.3,1.1
			c5.9,4.4,12.8,7.7,19.4,11.2l8.3,4.3c1.6,0.8,2.3,2.8,1.4,4.4c-0.7,1.4-2.2,2-3.7,1.7c-3.2-0.8-6.2-1.7-9.3-2.6
			c-8.8-3-17.7-5.7-25.3-11.4c-0.9-0.8-2.8-2.5-3.3-4.4c-3.4-12-3.6-23.5-3.9-35.7C272.7,691.1,285,690.9,285.6,699.4L285.6,699.4z"
			/>
		<path class="st23" d="M328,747.1l-2.6-1.9c-1-0.7-2.3-0.9-3.4-0.5l-5.4,1.8c-2.2,0.7-3.8,2.5-4.5,4.6l-0.4,1.4
			c4.1,3.4,11.2,4.1,11.2,4.1l2,0.4c1.8,0.4,3.4-0.7,3.8-2.4l0.9-3.9C329.8,749.4,329.2,747.9,328,747.1z"/>
		<path class="st6" d="M281.6,680.4c-8.4,3-10.9,10.4-11,25.7c4.4,4,17.7,4.2,17.7,4.2S290.6,687.1,281.6,680.4z"/>
		<g>
			<path class="st7" d="M383.8,755.5v3.5c0,0.9-1.1,1.3-1.9,1.3h-69.5c-0.9,0-2-0.4-2-1.3v-3.5H383.8z"/>
			<path class="st24" d="M383.8,755.5v3.5c0,0.9-1.1,1.3-1.9,1.3h-69.5c-0.9,0-2-0.4-2-1.3v-3.5H383.8z"/>
			<path class="st9" d="M383.8,755.5v3.5c0,0.9-1.1,1.3-1.9,1.3H336c-0.9,0-2-0.4-2-1.3v-3.5H383.8z"/>
			<path class="st7" d="M395.4,719.4l-8.3,37.5c-0.3,1.2-1.5,2.1-2.7,2.1h-45.2c-1.2,0-2-1.1-1.7-2.4l8.3-37.2
				c0.3-1.2,1.5-1.8,2.7-1.8h45.2C394.9,717.6,395.7,718.2,395.4,719.4z"/>
			<path class="st24" d="M395.4,719.4l-8.3,37.5c-0.3,1.2-1.5,2.1-2.7,2.1h-43.7c-1.2,0-2-1.1-1.7-2.4l8.3-37.2
				c0.3-1.2,1.5-1.8,2.7-1.8h43.7C394.9,717.6,395.7,718.2,395.4,719.4z"/>
			<path class="st9" d="M373.2,738.5L373.2,738.5c0,3.2-3.4,5.8-6,5.8c-2.5,0-4-2.6-3.3-5.8c0.7-3.1,3.2-5.7,5.7-5.8
				c-0.7,3.2,0.8,5.8,3.3,5.8C373,738.5,373.2,738.5,373.2,738.5z"/>
		</g>
		<g>
			<path class="st23" d="M380.3,698.5l9.7,0.2l-4.4-9.8c0,0-8.7,0.3-8.3,4.8L380.3,698.5z"/>
			<polygon class="st23" points="398.4,694 391.7,686.8 385.6,688.9 390,698.8 			"/>
		</g>
		<path class="st23" d="M288.5,680c-1-0.1,2,12.1,16.8,15.1c14.7,3,13.6-10.5,12.5-13.9C317.7,681.1,298.3,680.7,288.5,680z"/>
		<path class="st7" d="M292.5,632.3c0,0,8.4-9.4,23.9-4.5c15.5,4.8,14.8,32.4,7,42.4c0,0-17.7-1-36.6,3.4c0,0-7.4-20-3.8-31.8
			C286.7,630.1,292.5,632.3,292.5,632.3z"/>
		<g>
			<path class="st23" d="M295.6,659.8c1,6.5,1.7,18.3-2.8,22c0,0,6.1-0.2,17.9,9.1c4.3-4.8,1.7-6.8,1.7-6.8c-7-2.5-6.6-7.7-5.1-12.5
				L295.6,659.8z"/>
			<path class="st9" d="M300.3,664.6l6.9,7c-0.3,1.1-0.6,2.3-0.7,3.4c-2.7-0.7-6.2-4.1-6.4-7C300,666.6,300.1,665.2,300.3,664.6z"/>
		</g>
		<g>
			<path class="st23" d="M291.7,646.5c0.7,10.4,0.8,14.8,6.1,20.4c7.9,8.4,20.3,5.9,22.7-4.4c2.1-9.2,0.6-24.7-9.6-29.3
				C300.9,628.7,290.9,636.1,291.7,646.5z"/>
			<path class="st7" d="M304.5,649.7c0,0.9,0.5,1.6,1.1,1.6s1-0.7,1-1.5c0-0.9-0.5-1.6-1.1-1.6S304.5,648.9,304.5,649.7z"/>
			<path class="st7" d="M315.3,649.9c0,0.9,0.5,1.6,1.1,1.6s1-0.7,1-1.5c0-0.9-0.5-1.6-1.1-1.6C315.7,648.3,315.3,649,315.3,649.9z"
				/>
			<path class="st7" d="M316.1,648.3l2-0.5C318.1,647.8,317.1,649.4,316.1,648.3z"/>
			<path class="st25" d="M312.1,651.6c0,0,1.5,3.8,3.2,5.7c-1.1,1-3,0.5-3,0.5L312.1,651.6z"/>
			<path class="st7" d="M302.7,644.2c0.1,0,0.3,0,0.4-0.1c1.6-1.4,3.4-0.9,3.4-0.9c0.3,0.1,0.5-0.1,0.6-0.3c0.1-0.3-0.1-0.6-0.4-0.6
				c-0.1,0-2.3-0.7-4.4,1.1c-0.2,0.2-0.2,0.5,0,0.7C302.5,644.1,302.6,644.2,302.7,644.2z"/>
			<path class="st7" d="M319.6,644.3c0.1,0,0.3,0,0.4,0c0.2-0.1,0.3-0.5,0.1-0.7c-1.5-2.5-3.8-2.7-3.9-2.7c-0.3,0-0.5,0.2-0.5,0.5
				s0.2,0.5,0.5,0.6c0.1,0,1.9,0.2,3.1,2.2C319.4,644.2,319.5,644.2,319.6,644.3z"/>
			<path class="st7" d="M305.2,648.2l2-0.5C307.2,647.7,306.2,649.3,305.2,648.2z"/>
			<path class="st7" d="M293.8,652.8c0,0,8-6.3,6.2-16.2c0,0,14.4-5.7,20,8.8c0,0,1.2-12.4-12.3-14.8c-13.5-2.4-29.5,15.9-14.2,29.8
				L293.8,652.8z"/>
			<path class="st23" d="M288.4,654.9c1.2,2.2,3.1,3.5,5,4c2.7,0.7,4-1.9,3.1-4.7c-0.8-2.5-3.2-5.9-5.9-5.4
				C287.9,649.3,287,652.5,288.4,654.9z"/>
			<path class="st7" d="M321.6,651.5c-0.1,0-0.2-0.1-0.3-0.2c-5.2-18.1-22.2-14.4-22.3-14.4c-0.2,0-0.3-0.1-0.4-0.2
				c0-0.2,0.1-0.3,0.2-0.4c0.2,0,17.7-3.9,23,14.8C322,651.3,321.9,651.4,321.6,651.5C321.7,651.5,321.7,651.5,321.6,651.5z"/>
			<g>
				<path class="st7" d="M312.8,660.8c-0.6,1.3-1.2,3.7-1.2,3.7c-0.2,0-0.5,0-0.7-0.1c-3.1-0.3-4.4-1.5-4.9-2.7
					c-0.3-0.7-0.3-1.3-0.3-1.9c0-0.6,0.2-1.1,0.2-1.1c1.5,1.1,4.4,1.7,5.9,1.9C312.3,660.8,312.8,660.8,312.8,660.8z"/>
				<path class="st3" d="M311.7,660.7l-0.4,1.1c-2.9-0.3-4.9-0.9-5.7-1.9c0-0.6,0.2-1.1,0.2-1.1C307.3,660,310.2,660.5,311.7,660.7z
					"/>
				<path class="st16" d="M310.8,664.5c-3.1-0.3-4.4-1.5-4.9-2.7c1,0.2,2.3,0.4,3.4,1C310.1,663.2,310.5,663.9,310.8,664.5z"/>
			</g>
		</g>
		<path class="st7" d="M310.3,709.5c-0.1,0-0.2,0-0.3-0.1c-13.1-14.2-17.1-28.9-17.1-29c0-0.2,0.1-0.4,0.2-0.4
			c0.2-0.1,0.4,0.1,0.4,0.2c0,0.1,3.9,14.3,16.6,28.3c0.9-2.9,4.5-16.8-1-27.4c-0.1-0.2,0-0.4,0.1-0.5c0.2-0.1,0.4,0,0.5,0.1
			c6.3,12.1,0.9,28.3,0.8,28.5C310.6,709.4,310.5,709.4,310.3,709.5C310.4,709.5,310.3,709.5,310.3,709.5z"/>
		<path class="st3" d="M310.8,708.9l1.1,1.4c0.2,0.3,0.2,0.6,0,0.9l-1.1,1.5c-0.3,0.4-0.8,0.4-1.1,0l-1-1.2
			c-0.2-0.2-0.2-0.6-0.1-0.8l1.1-1.7C309.9,708.5,310.5,708.5,310.8,708.9z"/>
		<path class="st13" d="M281.6,680.4c-8.4,3-10.9,10.4-11,25.7c4.4,4,17.7,4.2,17.7,4.2S290.6,687.1,281.6,680.4z"/>
		<polygon class="st23" points="369.9,797.5 384.7,799.9 391.8,801.1 393.9,793.8 387.4,791.8 371.7,787 		"/>
		<path class="st6" d="M392.4,792.6l-3.2,8.2c-0.2,0.5,0.1,1,0.5,1.1l4.1,1.5c0,0,5.4,2.4,7.2,1.6c5.1-2.2,12.7-20.3,11-22
			c-0.6-0.6-1.9,0-2.6,0.5c-2.2,1.6-7.2,6.4-9,7.7c-2.2,1.6-5.5,1.1-7,0.8C393,791.9,392.6,792.2,392.4,792.6z"/>
		<polygon class="st9" points="369.9,797.5 384.7,799.9 387.4,791.8 371.7,787 		"/>
		<path class="st7" d="M384.9,790.3c0,0-60.3-33.9-81.2-33c-20.8,1-23.8,19.3-15.2,30.8c8.6,11.5,24.5,14.3,24.5,14.3
			s-10.8-15.3-9.2-19.6c1.6-4.3,7.7,1.7,7.7,1.7s38,12.3,71.2,15.1L384.9,790.3z"/>
		<g>
			<polygon class="st6" points="385.9,789.3 382.4,787.1 378.1,800.5 383.3,800.5 			"/>
			<polygon class="st12" points="385.9,789.3 382.4,787.1 378.1,800.5 383.3,800.5 			"/>
		</g>
	</g>
</g>
</svg>
