<?xml version="1.0" encoding="utf-8"?>
<!-- Generator: Adobe Illustrator 24.1.3, SVG Export Plug-In . SVG Version: 6.00 Build 0)  -->
<svg version="1.1" id="Layer_1" xmlns="http://www.w3.org/2000/svg" xmlns:xlink="http://www.w3.org/1999/xlink" x="0px" y="0px"
	 viewBox="0 0 720 1600" style="enable-background:new 0 0 720 1600;" xml:space="preserve">
<style type="text/css">
	.st0{fill:#999999;}
</style>
<image style="display:none;overflow:visible;" width="43" height="56" xlink:href="images/mobilapp2_39.png"  transform="matrix(1 0 0 1 339 772)">
</image>
<g>
	<g>
		<path class="st0" d="M349.5,788.5l-0.5,25c-0.1,2.9,1.1,5.5,2.9,7.5c1.9,1.9,4.5,3.2,7.3,3.2c5.8,0.1,10.6-4.5,10.7-10.3l0.5-25
			l-3-0.1l-0.5,25c-0.1,4.1-3.5,7.4-7.6,7.3c-4.1-0.1-7.4-3.5-7.3-7.6l0.5-25c0.1-2.5,2.1-4.5,4.6-4.4c2.5,0.1,4.5,2.1,4.4,4.6
			l-0.5,25c0,0.4-0.2,0.8-0.5,1.1c-0.3,0.3-0.7,0.4-1.1,0.4c-0.8,0-1.5-0.7-1.5-1.5l0.4-20l-3-0.1l-0.4,20c-0.1,2.5,1.9,4.5,4.4,4.6
			c1.2,0,2.3-0.4,3.2-1.3c0.9-0.8,1.4-1.9,1.4-3.2l0.5-25c0.1-4.1-3.2-7.6-7.3-7.6C353,781,349.6,784.3,349.5,788.5z"/>
	</g>
</g>
</svg>
