<?xml version="1.0" encoding="utf-8"?>
<!-- Generator: Adobe Illustrator 24.1.3, SVG Export Plug-In . SVG Version: 6.00 Build 0)  -->
<svg version="1.1" id="Layer_1" xmlns="http://www.w3.org/2000/svg" xmlns:xlink="http://www.w3.org/1999/xlink" x="0px" y="0px"
	 viewBox="0 0 1080 1080" style="enable-background:new 0 0 1080 1080;" xml:space="preserve">
<style type="text/css">
	.st0{fill:#B6C5E5;}
	.st1{fill:#FFFFFF;}
	.st2{fill:#94ACD9;}
	.st3{fill:#D1DDF1;}
	.st4{fill:#F4A946;}
	.st5{fill:#3E5AA8;}
	.st6{fill:#314B9E;}
	.st7{fill:#253F8D;}
	.st8{clip-path:url(#SVGID_2_);}
	.st9{fill:#27397A;}
	.st10{fill:#F4B7A5;}
	.st11{fill:#EB9687;}
	.st12{fill-rule:evenodd;clip-rule:evenodd;fill:#94ACD9;}
	.st13{fill-rule:evenodd;clip-rule:evenodd;fill:#EB9687;}
	.st14{fill-rule:evenodd;clip-rule:evenodd;fill:#F4B7A5;}
	.st15{fill-rule:evenodd;clip-rule:evenodd;fill:#27397A;}
	.st16{fill-rule:evenodd;clip-rule:evenodd;fill:#E37466;}
	.st17{fill-rule:evenodd;clip-rule:evenodd;fill:#FFFFFF;}
	.st18{fill-rule:evenodd;clip-rule:evenodd;fill:#B6C5E5;}
	.st19{fill-rule:evenodd;clip-rule:evenodd;fill:#314B9E;}
	.st20{fill-rule:evenodd;clip-rule:evenodd;fill:#263D85;}
	.st21{fill-rule:evenodd;clip-rule:evenodd;fill:#4A65AF;}
	.st22{fill:#E37466;}
	.st23{fill:#D4484C;}
	.st24{fill:#4A65AF;}
	.st25{fill:none;stroke:#FFFFFF;stroke-miterlimit:10;}
	.st26{fill:#E6E7E7;}
	.st27{fill:#F05C5C;}
	.st28{fill:#FECA8A;}
	.st29{fill:#01A79D;}
	.st30{fill:#36BDB0;}
	.st31{font-family:'font-100-icons';}
	.st32{font-size:40.2836px;}
	.st33{font-size:53.9737px;}
	.st34{font-size:40.4016px;}
	.st35{font-size:42.6492px;}
	.st36{fill:#212E5F;}
	.st37{fill:#DBE2EF;}
	.st38{font-size:23.2228px;}
	.st39{fill:none;stroke:#D4484C;stroke-miterlimit:10;}
	.st40{fill:none;stroke:#3E5AA8;stroke-miterlimit:10;}
	.st41{fill:none;stroke:#B8E2F7;stroke-miterlimit:10;}
	.st42{font-size:16.0254px;}
</style>
<g id="digitalresourse3">
	<g>
		<path class="st0" d="M806.1,443.5c0,0,43.9-92-4-161.6c-37.4-54.3-70.9-13.3-26.8,42.5C805.2,362.3,807.7,385,806.1,443.5z"/>
		<path class="st1" d="M767.7,264.9c11,11.2,19.5,24.7,26.4,38.8c3.5,7,6.4,14.4,9,21.8c2.5,7.4,4.7,15,6.2,22.7s2.8,15.5,3.4,23.3
			c0.4,3.9,0.5,7.8,0.7,11.8c0,3.9,0.2,7.9,0,11.8l-0.2,5.9c-0.1,2-0.3,3.9-0.4,5.9c-0.3,3.9-0.8,7.8-1.3,11.7
			c-0.5,3.9-1.3,7.7-1.9,11.6c-0.7,3.9-1.6,7.7-2.5,11.5c3-15.4,4.7-31,4.9-46.6c0.1-2,0-3.9,0-5.9l-0.1-5.8
			c-0.3-3.9-0.3-7.8-0.8-11.7c-0.7-7.8-1.9-15.5-3.5-23.1c-3.1-15.3-8.1-30.2-14.7-44.3c-3.3-7.1-7-13.9-11.2-20.5
			C777.4,277.1,772.9,270.7,767.7,264.9z"/>
		<g>
			<path class="st2" d="M805.7,443.4c0,0,8.7-58.6-46.4-101.3c-57.1-44.3-61.4,9.7-10.9,42.4C799,417.3,805.7,443.4,805.7,443.4z"/>
			<path class="st1" d="M719.1,331.4c10.9,5.6,21,12.6,30.6,20.2s18.4,16.3,26.4,25.6c7.8,9.5,14.8,19.7,20,30.9
				c2.6,5.6,4.7,11.4,6.4,17.3c1.6,5.9,2.6,12,3.2,18.1c-2-12.1-5.7-23.7-11.2-34.5s-12.3-20.9-20.2-30.1
				c-7.8-9.3-16.5-17.8-25.8-25.7c-4.6-4-9.4-7.7-14.3-11.3C729.3,338.1,724.3,334.6,719.1,331.4z"/>
		</g>
		<g>
			<path class="st0" d="M805.7,443.4c0,0,24.5-53.9,93.9-59.9c72-6.2,46.3,41.5-13.9,41.5C825.5,425.1,805.7,443.4,805.7,443.4z"/>
			<path class="st1" d="M939.3,396.4c-6.1-0.1-12.2,0-18.3,0.4s-12.1,0.9-18.2,1.7c-12.1,1.6-24,4-35.6,7.6
				c-11.6,3.5-22.9,8.2-33.3,14.3c-10.5,6.1-20,13.8-28.2,22.9c3.8-4.8,7.9-9.3,12.5-13.5c4.6-4,9.5-7.8,14.8-11
				c10.4-6.6,21.9-11.4,33.6-15c11.8-3.5,23.9-5.9,36.1-7.1C914.8,395.6,927.1,395.2,939.3,396.4z"/>
		</g>
		<g>
			<path class="st2" d="M805.7,443.4c0,0,1.3-70.1,73.8-109.1c75.3-40.5,69.8,23.2,4.4,51.6S805.7,443.4,805.7,443.4z"/>
			<path class="st1" d="M928.6,329.6c-6.7,2.7-13.3,5.7-19.7,9c-6.4,3.2-12.8,6.7-19,10.4c-12.4,7.4-24.2,15.6-35.1,24.9
				c-11,9.3-21,19.7-29.4,31.3c-8.5,11.6-15.1,24.5-19.7,38.2c1.9-7,4.3-13.8,7.3-20.4c3.2-6.5,6.7-12.9,10.9-18.8
				c8.3-12,18.4-22.6,29.4-32c11.2-9.3,23.1-17.6,35.8-24.7C901.7,340.3,914.9,334.2,928.6,329.6z"/>
		</g>
	</g>
	<g>
		<g>
			<path class="st0" d="M241.2,456.4c0,0-19-41.8-72.9-46.4c-55.9-4.8-35.9,32.2,10.8,32.2S241.2,456.4,241.2,456.4z"/>
			<path class="st1" d="M137.6,420c4.7-0.1,9.5,0,14.2,0.3s9.4,0.7,14.1,1.3c9.4,1.2,18.6,3.1,27.6,5.9c9,2.7,17.7,6.4,25.9,11.1
				c8.1,4.7,15.5,10.7,21.9,17.8c-2.9-3.7-6.1-7.2-9.7-10.4c-3.6-3.1-7.4-6-11.5-8.5c-8.1-5.1-17-8.8-26-11.7
				c-9.1-2.7-18.5-4.6-28-5.5C156.6,419.3,147,419.1,137.6,420z"/>
		</g>
		<g>
			<path class="st0" d="M241.2,456.8c0,0,28.1-56.8-14-118.3c-43.6-63.8-65.7-10.3-25,39.6S241.2,456.8,241.2,456.8z"/>
			<path class="st1" d="M189.8,314.3c4.2,5,8.2,10.1,12,15.5c3.8,5.3,7.5,10.7,10.9,16.2c6.9,11.1,13,22.6,17.8,34.6
				c5,12,8.7,24.5,10.7,37.3s2.1,25.9,0.1,38.9c1.5-6.4,2.4-12.9,2.7-19.4c0.2-6.6,0-13.2-0.9-19.7c-1.6-13.1-5.4-25.8-10.3-38
				c-5.1-12.1-11.3-23.8-18.5-34.7C207,334,199,323.6,189.8,314.3z"/>
		</g>
		<g>
			<path class="st2" d="M241.2,456.4c0,0-1-54.3-57.3-84.6c-58.4-31.4-54.1,18-3.4,40S241.2,456.4,241.2,456.4z"/>
			<path class="st1" d="M145.8,368.2c5.2,2.1,10.3,4.4,15.3,7c5,2.5,9.9,5.2,14.7,8c9.6,5.7,18.8,12.1,27.3,19.3
				c8.5,7.2,16.3,15.3,22.8,24.3c6.6,9,11.8,19,15.3,29.6c-1.4-5.4-3.3-10.7-5.7-15.8c-2.5-5.1-5.2-10-8.4-14.6
				c-6.4-9.3-14.3-17.5-22.8-24.9c-8.7-7.2-17.9-13.7-27.7-19.2C166.7,376.5,156.5,371.7,145.8,368.2z"/>
		</g>
	</g>
	<g>
		<path class="st3" d="M184,817.6c0,0-79.9-92.6-54.5-214.8c32.7-157.3,208.2-122.8,312.2-60.4s261.6,91.7,291.3-62.3
			c25.9-134.4,284.9,32.6,140.4,337.4L184,817.6L184,817.6z"/>
		<path class="st1" d="M336.5,818.3c-22.2,0-54.7-45.2-42.2-93.9c18.8-73.2,125.2-85.1,182.6-9.7c51.7,67.8,119.1,113.5,167.9,44.4
			c44-62.3-16.6-127.5-86.9-118.7s128.8-102,220.4-5.6c69.5,73.2,30,183.5,30,183.5S358.7,818.3,336.5,818.3z"/>
	</g>
	<g>
		<circle class="st4" cx="601.8" cy="312.8" r="66.4"/>
		<path class="st1" d="M441.8,347c0,0,10.9-13,27.1-6.9c0,0,6.2-9.5,18.5-4.3c0,0,6.4-20.5,30.6-22.9c22.4-2.2,33.2,15.6,33.2,15.6
			s12.9-4.7,18.5,8.2c0,0,26-11.4,41.4,10.2L441.8,347L441.8,347z"/>
		<path class="st1" d="M581.9,305.1c0,0,10.9-13,27.1-6.9c0,0,6.2-9.5,18.5-4.3c0,0,6.4-20.5,30.6-22.9
			c22.4-2.2,33.2,15.6,33.2,15.6s12.9-4.7,18.5,8.2c0,0,26-11.4,41.4,10.2L581.9,305.1L581.9,305.1z"/>
	</g>
	<g>
		<path class="st5" d="M802.9,697.9H238.6c-5,0-9-4-9-9v-323c0-5,4-9,9-9h564.3c5,0,9,4,9,9v322.9
			C811.9,693.8,807.9,697.9,802.9,697.9z"/>
		<path class="st1" d="M792.8,668.2h-544c-2.8,0-5.1-2.3-5.1-5.1v-287c0-2.8,2.3-5.1,5.1-5.1h544c2.8,0,5.1,2.3,5.1,5.1v287
			C797.9,665.9,795.6,668.2,792.8,668.2z"/>
		<circle class="st3" cx="520.8" cy="528" r="117.7"/>
		<path class="st5" d="M815.2,743.4H226.3c-6.8,0-12.4-5.5-12.4-12.4v-16.8h613.6V731C827.6,737.9,822,743.4,815.2,743.4z"/>
		<path class="st6" d="M815.2,734.7H226.3c-6.8,0-12.4-5.5-12.4-12.4v8.7c0,6.8,5.5,12.4,12.4,12.4h588.9c6.8,0,12.4-5.5,12.4-12.4
			v-8.7C827.6,729.1,822,734.7,815.2,734.7z"/>
		<path class="st0" d="M594.8,725.9H446.7c-6.5,0-11.7-5.2-11.7-11.7l0,0h171.5l0,0C606.5,720.7,601.3,725.9,594.8,725.9z"/>
		<g>
			<rect x="284.8" y="697.9" class="st6" width="85.1" height="16.4"/>
			<rect x="671.6" y="697.9" class="st6" width="85.1" height="16.4"/>
		</g>
		<path class="st3" d="M538.3,688.4h-35.1c-3,0-5.5-2.5-5.5-5.5l0,0c0-3,2.5-5.5,5.5-5.5h35.1c3,0,5.5,2.5,5.5,5.5l0,0
			C543.8,685.9,541.4,688.4,538.3,688.4z"/>
		<circle class="st7" cx="520.8" cy="364" r="4.3"/>
		<g>
			<g>
				<defs>
					<path id="SVGID_1_" d="M707.6,493.3c0,29.2-79.8,90.6-97.3,111.1c-21.6,25.3-53.7,41.3-89.5,41.3c-65,0-117.7-52.7-117.7-117.7
						s52.7-148.8,117.7-148.8S707.6,428.3,707.6,493.3z"/>
				</defs>
				<clipPath id="SVGID_2_">
					<use xlink:href="#SVGID_1_"  style="overflow:visible;"/>
				</clipPath>
				<g class="st8">
					<path class="st9" d="M575.3,478.5c4.9-27.4-7.5-18.7-8.1-43.2c-0.6-24.6-16.9-34.2-16.9-34.2c-24.2-17.2-46.4-9.2-59-1.2
						c0,0-16.3,9.6-16.9,34.2s-15.5,17.1-10.5,44.5c2.7,14.9-20.1,26.1-18.9,41.2c1.1,14.5,31.3,33.1,71.3,34.9
						c0.6,0.1,1.3,0.1,1.9,0.1c0.5,0,0.9,0,1.4,0s0.9,0,1.4,0c0.7,0,1.3,0,1.9-0.1c40-1.8,70.2-20.4,71.3-34.9
						C595.4,504.6,572.6,493.4,575.3,478.5z"/>
					<g>
						<g>
							<g>
								<path class="st10" d="M638.4,512.1c0,0,9.8-11.6,12.7-14.9s10.5-5.8,14.4-6s10.5-7.2,15.1-7.6s-3.5,11.5-3.5,11.5
									s8.3,0.6,13.3-1.2c5-1.8,10.1-6.4,12.2-6.9c2.1-0.6,1.8,5-7.2,12c-8.9,7.1-18.8,7.6-19.9,7.6c-1.2,0-14.7,2.8-16.9,6
									c-2.3,3.2-7.9,12.4-7.9,12.4L638.4,512.1z"/>
								<path class="st11" d="M665.5,491.2c-1.6,0.1-3.9,0.6-6.2,1.4c7.7,0,17.8,2.5,17.8,2.5s8.1-11.9,3.5-11.5
									S669.4,490.9,665.5,491.2z"/>
								<path class="st10" d="M656.6,515.4c0,0-29.5,64.2-43.7,65.1c-9.5,0.7-31.1-23.7-31.1-23.7l19.3-23c0,0,8.1,9,10.8,10.4
									s26.5-32.1,26.5-32.1L656.6,515.4z"/>
							</g>
							<polygon class="st0" points="562.4,495.7 609.5,536.5 585.3,565.3 534.7,515 							"/>
							<polygon class="st12" points="566.6,526.7 585.3,565.3 567.9,548.1 							"/>
						</g>
						<path class="st13" d="M606.7,539.8l-8.2,33.3c-4.1-3.3-8.1-7.2-11.2-10.3L606.7,539.8L606.7,539.8z"/>
						<path class="st10" d="M468.7,617.8c0,0-54.9-35.7-53.6-49.9c0.9-9.5,28-35.1,28-35.1l14.9,24.9c0,0-8.3,10.6-10.1,13.1
							s26.9,29.6,26.9,29.6L468.7,617.8z"/>
						<path class="st11" d="M435.5,540.5L435.5,540.5l14,28.4c1-1.3,2.3-3,3.6-4.6l3.5-9l0,0l-7.7-12.9L435.5,540.5z"/>
						<path class="st11" d="M461.1,612.6c0.5-0.5,1-1.2,1.5-2c2.5-4.5,3.4-16.2,3.4-16.2L450.6,605
							C454.4,608,458.1,610.6,461.1,612.6z"/>
					</g>
					<g>
						<g>
							<g>
								<path class="st10" d="M557.7,440.9c-4.4-2-7.2-0.2-8.7,1.3l-1.6,11.6c-0.2,1.6-0.6,3.1-1,4.7
									C559.7,461.9,564.4,443.9,557.7,440.9z"/>
								<path class="st10" d="M484.1,440.9c4.4-2,7.2-0.2,8.7,1.3l1.6,11.6c0.2,1.6,0.6,3.1,1,4.7
									C482.1,461.9,477.5,443.9,484.1,440.9z"/>
								<path class="st13" d="M489.3,446.1c0,0-1.6-2.4-3.4-0.4c-1.6,1.7-0.8,7.6,5,8.2c0,0-2.8-2.2-3.1-5.1
									C487.6,447.3,488.7,446.3,489.3,446.1z"/>
								<path class="st13" d="M552.6,446.1c0,0,1.6-2.4,3.4-0.4c1.6,1.7,0.8,7.6-5,8.2c0,0,2.8-2.2,3.1-5.1
									C554.3,447.3,553.2,446.3,552.6,446.1z"/>
							</g>
							<g>
								<g>
									<g>
										<g>
											<path class="st13" d="M520.8,451.1L520.8,451.1c-7,0-12.8,6.7-12.8,14.9v28.4c0,8.2,5.7,14.9,12.8,14.9l0,0
												c7,0,12.8-6.7,12.8-14.9V466C533.5,457.8,527.8,451.1,520.8,451.1z"/>
										</g>
									</g>
								</g>
							</g>
							<path class="st14" d="M492.1,435.3c0-14.4,13-26.3,28.8-26.3l0,0c15.9,0,28.8,11.8,28.8,26.3c0,0,1.5,50.2-28.8,50.2l0,0l0,0
								l0,0l0,0C490.6,485.4,492.1,435.3,492.1,435.3z"/>
							<path class="st15" d="M537.9,444.8c1.3,0,2.4,1.1,2.4,2.4l0,0c-0.1,0-0.3,0-0.4,0c-1,0-1.7,0.4-1.7,1c0,0.5,0.8,1,1.7,1
								c0.1,0,0.3,0,0.4,0v2.8c0,1.3-1.1,2.4-2.4,2.4s-2.4-1.1-2.4-2.4v-4.7C535.5,445.9,536.6,444.8,537.9,444.8z"/>
							<path class="st15" d="M539.6,446c0.8,0,4-1.5,2.1-1.3c-1.9,0.3-3.9,0.1-3.9,0.1s0.3,1.8,1.9,1.9c0,0,1.2,0.1,2-0.6
								C542.3,445.6,540.7,446.3,539.6,446z"/>
							<g>
								<g>
									<path class="st9" d="M516.3,439.8c-0.2,0.1-0.5,0.1-0.7,0c-3.2-0.9-7.2,0.8-9.1,2.2c-0.5,0.4-1.3,0.2-1.6-0.3
										c-0.4-0.5-0.3-1.3,0.3-1.6c1.9-1.4,6.8-3.7,11.1-2.5c0.6,0.2,1,0.8,0.8,1.4C517,439.4,516.7,439.7,516.3,439.8z"/>
								</g>
							</g>
							<g>
								<g>
									<path class="st9" d="M533.7,439.8c0.2,0.1,0.5,0.1,0.7,0c3.2-0.9,7.2,0.8,9.1,2.2c0.5,0.4,1.3,0.2,1.6-0.3
										c0.4-0.5,0.2-1.3-0.3-1.6c-1.9-1.4-6.8-3.7-11.1-2.5c-0.6,0.2-1,0.8-0.8,1.4C533.1,439.4,533.4,439.7,533.7,439.8z"/>
								</g>
							</g>
							<path class="st15" d="M512.2,444.8c-1.3,0-2.4,1.1-2.4,2.4l0,0c0.1,0,0.3,0,0.4,0c1,0,1.7,0.4,1.7,1c0,0.5-0.8,1-1.7,1
								c-0.1,0-0.3,0-0.4,0v2.8c0,1.3,1.1,2.4,2.4,2.4s2.4-1.1,2.4-2.4v-4.7C514.6,445.9,513.5,444.8,512.2,444.8z"/>
							<path class="st16" d="M515.4,465.5c0,5.1,4.1,9.2,9.2,9.2s9.2-4.1,9.2-9.2H515.4z"/>
							<path class="st17" d="M533.3,468.7c0.4-1,0.6-2,0.6-3.1h-18.5c0,1.1,0.2,2.1,0.6,3.1H533.3z"/>
							<path class="st15" d="M510.5,446c-0.8,0-4-1.5-2.1-1.3c1.9,0.3,3.9,0.1,3.9,0.1s-0.3,1.8-1.9,1.9c0,0-1.2,0.1-2-0.6
								C507.7,445.6,509.4,446.3,510.5,446z"/>
						</g>
					</g>
					<path class="st18" d="M470.1,607.3c0.3-11,5.8-95.5,6.7-108.2c0.2-2.5,2-4.6,4.5-5.1c7.5-1.4,14.1-2.6,17.6-3.8
						c4.1-1.5,8.3-2.7,9.3-1.6c0,0,3.2,8.3,12.6,8.3c9.4,0,12.9-8.1,12.9-8.1c1-1.1,4.9-0.1,9,1.4c3.5,1.3,10.1,2.4,17.6,3.8
						c2.5,0.5,4.3,2.6,4.5,5.1c0.8,12.7,6.3,97.2,6.7,108.2c0.3,11,9.6,28.6,8.4,30.8c0,0-21.7,15.4-59.1,14.2
						c-37.5,1.1-59.1-14.2-59.1-14.2C460.5,636,469.7,618.3,470.1,607.3z"/>
					<path class="st17" d="M540.8,489.7c-3.4-1.1-6.3-1.7-7.2-0.8c0,0-3.5,8.1-12.9,8.1c-9.4,0-12.6-8.3-12.6-8.3
						c-0.8-0.9-3.9-0.2-7.2,0.9l20,35.3L540.8,489.7z"/>
					<path class="st19" d="M471,588.8v54.4c9.7,4.4,26.8,9.8,49.7,9.1c37.5,1.1,59.1-14.2,59.1-14.2c1.2-2.1-8.1-19.8-8.4-30.8
						c-0.1-2.6-0.5-9.5-1-18.5H471L471,588.8z"/>
					<path class="st20" d="M571.4,618.6c0.2,6.3,3.3,14.7,5.7,21.2c1.8-1,2.7-1.7,2.7-1.7c1.2-2.1-8.1-19.8-8.4-30.8
						c-0.1-2.6-0.5-9.5-1-18.5H471l0,0V600h99.4C571,609.1,571.4,616,571.4,618.6z"/>
					<path class="st21" d="M533.5,488.6c0.1-0.1,0.1-0.1,0.2-0.1l0.2-0.1c1.6-0.5,5.2,0.7,8.8,1.9c3.5,1.3,10.1,2.4,17.6,3.8
						c2.5,0.5,4.3,2.6,4.5,5.1c0.8,12.7,6.3,97.2,6.7,108.2c0.3,11,13.5,33.7,12.3,35.8c0,0-18.2,13.7-47.1,13.7L533.5,488.6z"/>
					<g>
						<g>
							<polygon class="st0" points="479.1,495.7 432,536.5 456.3,565.3 506.8,515 							"/>
							<polygon class="st12" points="474.9,526.7 456.3,565.3 473.6,548.1 							"/>
						</g>
					</g>
					<path class="st9" d="M541.1,423.6c0,0-6.4,10-25.3,10c-18.9,0-24.7,9.6-22.2,19.5c0,0-8.4,2.1-8.8,0s-3-28-2.2-30.2
						c0.7-2.2,1.2-9,5.8-10.3c4.6-1.4,12.2-8.3,21.5-8.9s12.9-4.3,19.7-1.8c6.8,2.4,23,17.6,24.1,18.7s4.7,12.9,5,14.4s0,10,0,10
						l-8.8-6C549.8,439,539.9,432.7,541.1,423.6z"/>
					<path class="st21" d="M508,488.6c-0.1-0.1-0.1-0.1-0.2-0.1l-0.2-0.1c-1.6-0.5-5.2,0.7-8.8,1.9c-3.5,1.3-10.1,2.4-17.6,3.8
						c-2.5,0.5-4.3,2.6-4.5,5.1c-0.8,12.7-6.3,97.2-6.7,108.2c-0.3,11-13.5,33.7-12.3,35.8c0,0,18.2,13.7,47.1,13.7L508,488.6z"/>
					<g>
						<circle class="st21" cx="520.9" cy="538.1" r="2.3"/>
						<circle class="st21" cx="520.9" cy="550.5" r="2.3"/>
						<circle class="st21" cx="520.9" cy="562.9" r="2.3"/>
					</g>
					<path class="st9" d="M493.5,453.2l1.1,5.5l-15.3,7.6c0,0-8.3-5-7.7-9.9c0.6-4.9,9.5-18.9,12.4-21.9c3-3,3.6-12.4,15.8-16
						c12.2-3.6,11-5.1,19.6-5.1s16.5,0.2,19.7,0s3.6-1.6,7.2,0c3.6,1.6,10.9,9.7,11.3,10.5c0.4,0.8,6.3,15.7,6.3,15.7
						s1.6,10.7,2,11.7s2.6,5.2-2.6,7.4c-5.1,2.2-13.7,3.7-13.7,3.7l-2.6-3.6l2.5-17.1l2.4-18.4l-18.5-1.8c0,0-19.7,0.4-21.3,0.8
						c-1.6,0.4-15.8,8.3-16.8,9.7c-1,1.4-4.5,7.6-4.5,7.6v7.8L493.5,453.2z"/>
					<path class="st10" d="M474.8,600.5c-1.1-0.3-4.6-0.6-4.6-0.6l0.9-6.1c0,0-2.7-0.7-5.2,0.8c-1.9,1.1-7.1,9.8-7.3,17
						c-0.2,7.2,9.3,10.3,12.7,9.6c0,0,1.4,0.1,2-2.3c0.5-2-1.4-2.5-1.4-2.5s1.9,0.2,2.3-2.9c0.3-2.3-1.7-2.7-1.7-2.7s2.3,0.1,2.5-2
						c0.2-1.7,0.3-3-1.2-3.5c0,0,2-0.1,2.2-2.4C476.2,600.6,474.8,600.5,474.8,600.5z"/>
					<path class="st11" d="M474.2,613.6c-0.1,0.1-2.1,2.1-5.3,0.9c-3.3-1.1,1,1.4,3,1.7c0.1,0,0.1,0,0.2,0
						C472.6,616.2,473.7,615.8,474.2,613.6z"/>
					<g>
						<path class="st11" d="M475,608.7c0.1-0.7,0.1-1.3,0.1-1.9c0,0.1-0.3,2-1.4,2.5s-4.5,0.3-5,0c-0.4-0.3-0.3,1,3.8,1.4
							C472.5,610.6,474.8,610.7,475,608.7z"/>
						<path class="st11" d="M473.8,605.2c0,0,2-0.1,2.2-2.4c0.1-0.8-0.1-1.2-0.2-1.6c0,0.1-0.1,2.1-1.9,2.6s-4.3,0-4.3,0
							C469.6,603.7,468.8,604,473.8,605.2z"/>
					</g>
				</g>
			</g>
		</g>
		<path class="st22" d="M525.5,447.4c0,0,1.6,6.8,3.3,9.1s0.2,3.8-3.8,3.7c-4-0.1,1.3-0.9,1.5-3
			C526.6,455.1,524.3,451.9,525.5,447.4z"/>
		<g>
			<g>
				<g>
					<circle class="st23" cx="699.2" cy="624.2" r="18.5"/>
				</g>
			</g>
			<g>
				<circle class="st24" cx="646.9" cy="624.2" r="18.5"/>
			</g>
			<path class="st1" d="M652.5,625.9l-1.4,1.4l4.5,4.5l1.4-1.4c0.2-0.2,0.2-0.5,0-0.7l-3.8-3.8C653,625.7,652.7,625.7,652.5,625.9z
				 M638.7,620.6c0.5,2.5,3.6,5.8,4.9,7.1c1.3,1.3,4.6,4.4,7.1,4.9c1,0.2,3,0.6,4.5-0.4l-4.4-4.4l0,0c-0.4,0.2-1.6,0.5-3.6-1.8
				c-0.1-0.1-0.2-0.2-0.3-0.3c-1.1-1.1-1.1-1.1-1.1-1.1c-0.1-0.1-0.2-0.2-0.3-0.3c-2.3-2-2-3.2-1.8-3.6l0,0l-4.4-4.4
				C638.1,617.6,638.5,619.6,638.7,620.6z M640.9,614.3l-1.4,1.4l4.5,4.5l1.4-1.4c0.2-0.2,0.2-0.5,0-0.7l-3.8-3.8
				C641.3,614.1,641.1,614.1,640.9,614.3z"/>
			<g>
				<circle class="st24" cx="751.6" cy="624.2" r="18.5"/>
			</g>
			<g>
				<g>
					<g>
						<path class="st1" d="M751.6,625.6L751.6,625.6c-1.6,0-2.9-1.3-2.9-2.9v-6c0-1.6,1.3-2.9,2.9-2.9l0,0c1.6,0,2.9,1.3,2.9,2.9v6
							C754.5,624.3,753.2,625.6,751.6,625.6z"/>
					</g>
					<path class="st25" d="M745.8,620.1v1.8c0,3.2,2.6,5.8,5.8,5.8l0,0v6"/>
					<path class="st25" d="M757.4,620.1v1.8c0,3.2-2.6,5.8-5.8,5.8l0,0"/>
				</g>
				<line class="st25" x1="749" y1="633.7" x2="754.3" y2="633.7"/>
			</g>
		</g>
		<g>
			<path class="st1" d="M702.8,629.4H691c-0.7,0-1.3-0.6-1.3-1.3v-7.7c0-0.7,0.6-1.3,1.3-1.3h11.8c0.7,0,1.3,0.6,1.3,1.3v7.7
				C704.1,628.8,703.6,629.4,702.8,629.4z"/>
			<path class="st1" d="M709.5,628l-4-1.2c-0.3-0.1-0.5-0.3-0.5-0.6v-3.8c0-0.3,0.2-0.5,0.5-0.6l4-1.2c0.4-0.1,0.8,0.2,0.8,0.6v6.2
				C710.4,627.8,709.9,628.1,709.5,628z"/>
		</g>
	</g>
	<g>
		<g>
			<g>
				<rect x="415.4" y="743.4" class="st23" width="210.8" height="36.8"/>
				<rect x="415.4" y="748.5" class="st1" width="73.2" height="26.5"/>
			</g>
			<rect x="415.4" y="770.3" class="st26" width="73.2" height="1.9"/>
			<rect x="415.4" y="765.6" class="st26" width="73.2" height="1.9"/>
			<rect x="415.4" y="760.9" class="st26" width="73.2" height="1.9"/>
			<rect x="415.4" y="756.2" class="st26" width="73.2" height="1.9"/>
			<rect x="415.4" y="751.5" class="st26" width="73.2" height="1.9"/>
			<rect x="507.1" y="743.4" class="st27" width="7.6" height="36.8"/>
			<rect x="601.7" y="743.4" class="st27" width="7.6" height="36.8"/>
			<rect x="534.7" y="753.3" class="st27" width="51.8" height="16.8"/>
		</g>
		<g>
			<g>
				<g>
					<rect x="277.5" y="780.3" class="st4" width="210.8" height="36.8"/>
					<rect x="415.1" y="785.5" class="st1" width="73.2" height="26.5"/>
				</g>
				<rect x="415.1" y="807.2" class="st26" width="73.2" height="1.9"/>
				<rect x="415.1" y="802.5" class="st26" width="73.2" height="1.9"/>
				<rect x="415.1" y="797.8" class="st26" width="73.2" height="1.9"/>
				<rect x="415.1" y="793" class="st26" width="73.2" height="1.9"/>
				<rect x="415.1" y="788.3" class="st26" width="73.2" height="1.9"/>
				<rect x="388.9" y="780.3" class="st28" width="7.6" height="36.8"/>
				<rect x="294.4" y="780.3" class="st28" width="7.6" height="36.8"/>
				<rect x="317.2" y="790.2" class="st28" width="51.8" height="16.8"/>
			</g>
			<g>
				<g>
					<rect x="553.2" y="780.3" class="st29" width="210.8" height="36.8"/>
					<rect x="690.8" y="785.5" class="st1" width="73.2" height="26.5"/>
				</g>
				<rect x="690.8" y="807.2" class="st26" width="73.2" height="1.9"/>
				<rect x="690.8" y="802.5" class="st26" width="73.2" height="1.9"/>
				<rect x="690.8" y="797.8" class="st26" width="73.2" height="1.9"/>
				<rect x="690.8" y="793" class="st26" width="73.2" height="1.9"/>
				<rect x="690.8" y="788.3" class="st26" width="73.2" height="1.9"/>
				<rect x="664.6" y="780.3" class="st30" width="7.6" height="36.8"/>
				<rect x="570.1" y="780.3" class="st30" width="7.6" height="36.8"/>
				<rect x="592.9" y="790.2" class="st30" width="51.8" height="16.8"/>
			</g>
		</g>
	</g>
	<g>
		<g>
			<g>
				<path class="st4" d="M182.6,401.3h-70.3c-3.5,0-6.4-2.9-6.4-6.4v-31.7c0-3.5,2.9-6.4,6.4-6.4h70.3c3.5,0,6.4,2.9,6.4,6.4v31.7
					C189,398.5,186.2,401.3,182.6,401.3z"/>
			</g>
			<g>
				<polygon class="st4" points="133,400.9 133,414.6 148.5,399.1 				"/>
			</g>
			<g>
				<g>
					<circle class="st1" cx="147.5" cy="379.1" r="3.9"/>
				</g>
				<g>
					<g>
						<circle class="st1" cx="128" cy="379.1" r="3.9"/>
					</g>
				</g>
				<g>
					<circle class="st1" cx="167" cy="379.1" r="3.9"/>
				</g>
			</g>
		</g>
		<g>
			<path class="st5" d="M838.7,348.2h107.5c2.2,0,4,1.8,4,4v45.7c0,2.2-1.8,4-4,4h-45.8L884,413.5l3.5-11.6h-48.8c-2.2,0-4-1.8-4-4
				v-45.7C834.7,350,836.5,348.2,838.7,348.2z"/>
			<g>
				<rect x="846" y="359.7" class="st1" width="53.1" height="5.9"/>
				<rect x="846" y="371.9" class="st1" width="95.2" height="5.9"/>
			</g>
			<g>
				<rect x="846" y="383.8" class="st1" width="95.2" height="5.9"/>
			</g>
		</g>
		<g>
			<text transform="matrix(1 0 0 1 794.5374 316.916)" class="st23 st31 st32">search</text>
		</g>
		<g>
			<g>
				<text transform="matrix(1 0 0 1 434.4363 305.126)" class="st5 st31 st33">COG</text>
			</g>
		</g>
		<g>
			<g>
				<text transform="matrix(1 0 0 1 140.4827 672.2441)" class="st1 st31 st34">clock</text>
			</g>
		</g>
	</g>
	<g>
		<g>
			<text transform="matrix(1 0 0 1 887.0686 479.5674)" class="st29 st31 st35">GLOBE</text>
		</g>
	</g>
	<g>
		<g>
			<g>
				<path class="st0" d="M888.6,819.5c0,0,13.6-29.9,52.1-33.2c39.9-3.4,25.7,23-7.7,23C899.5,809.3,888.6,819.5,888.6,819.5z"/>
				<path class="st1" d="M962.7,793.4c-3.4-0.1-6.8,0-10.1,0.2c-3.4,0.2-6.7,0.5-10.1,1c-6.7,0.9-13.3,2.2-19.7,4.2
					c-6.4,1.9-12.7,4.6-18.5,8s-11.1,7.7-15.6,12.7c2.1-2.7,4.4-5.2,6.9-7.5c2.6-2.2,5.3-4.3,8.2-6.1c5.8-3.6,12.1-6.3,18.6-8.3
					c6.5-1.9,13.2-3.3,20-3.9C949.1,793,955.9,792.8,962.7,793.4z"/>
			</g>
			<g>
				<path class="st0" d="M888.5,819.7c0,0-20.1-40.6,10-84.6c31.2-45.6,47-7.4,17.9,28.3S888.5,819.7,888.5,819.7z"/>
				<path class="st1" d="M925.3,717.9c-3,3.6-5.9,7.3-8.6,11c-2.7,3.8-5.3,7.6-7.8,11.6c-4.9,7.9-9.3,16.1-12.7,24.8
					c-3.6,8.6-6.2,17.5-7.6,26.7c-1.5,9.2-1.5,18.5-0.1,27.8c-1-4.6-1.7-9.2-1.9-13.9c-0.1-4.7,0-9.4,0.6-14.1
					c1.2-9.3,3.9-18.4,7.3-27.2c3.7-8.7,8.1-17,13.2-24.8C913,732,918.7,724.5,925.3,717.9z"/>
			</g>
			<g>
				<path class="st2" d="M888.6,819.5c0,0,0.7-38.9,41-60.5c41.7-22.5,38.7,12.9,2.4,28.6C895.7,803.3,888.6,819.5,888.6,819.5z"/>
				<path class="st1" d="M956.7,756.4c-3.7,1.5-7.4,3.2-10.9,5c-3.6,1.8-7.1,3.7-10.5,5.8c-6.9,4.1-13.4,8.6-19.5,13.8
					c-6.1,5.1-11.6,10.9-16.3,17.4c-4.7,6.4-8.4,13.6-10.9,21.2c1-3.9,2.4-7.7,4.1-11.3c1.8-3.6,3.7-7.1,6-10.4
					c4.6-6.6,10.2-12.5,16.3-17.8c6.2-5.2,12.8-9.8,19.8-13.7C941.8,762.3,949.1,758.9,956.7,756.4z"/>
			</g>
		</g>
		<g>
			<path class="st0" d="M188.7,825.7c0,0,13.3-83.5-41.1-127.6c-42.5-34.4-59.6,6-11.4,40.1C168.8,761.3,176.1,778.8,188.7,825.7z"
				/>
			<g>
				<path class="st1" d="M116.1,692.6c11.3,6.5,21.2,15.2,30,24.8c4.4,4.8,8.5,9.9,12.2,15.2s7.2,10.9,10.3,16.6
					c3,5.8,5.8,11.7,8.2,17.7l0.9,2.3l0.8,2.3l1.6,4.6l1.4,4.7l0.7,2.3l0.6,2.4l1.2,4.7c0.4,1.6,0.7,3.2,1,4.8
					c0.7,3.2,1.2,6.4,1.8,9.6c0.1,0.8,0.3,1.6,0.4,2.4l0.3,2.4l0.6,4.8c0.3,3.2,0.5,6.5,0.8,9.7c-0.4-3.2-0.6-6.5-1.1-9.7l-0.7-4.8
					l-0.4-2.4c-0.1-0.8-0.3-1.6-0.4-2.4c-0.6-3.2-1.1-6.4-1.9-9.5c-0.4-1.6-0.7-3.2-1.1-4.7l-1.3-4.7l-0.6-2.3l-0.7-2.3l-1.5-4.6
					l-1.6-4.6l-0.8-2.3l-0.9-2.3c-2.3-6-5.2-11.9-8.2-17.6c-6.1-11.5-13.6-22.1-22.2-31.8c-4.3-4.8-8.9-9.4-13.8-13.7
					C126.8,700,121.7,695.9,116.1,692.6z"/>
			</g>
			<g>
				<path class="st2" d="M188.7,825.7c0,0-1.1-39.3-41.9-60.8c-42.4-22.4-39,13.4-2.2,28.9C181.3,809.5,188.7,825.7,188.7,825.7z"/>
				<g>
					<path class="st1" d="M119.3,762.5c7.7,2.5,15.1,6,22.2,9.9c7.1,3.9,13.8,8.5,20.1,13.7c6.2,5.3,11.9,11.1,16.6,17.8
						c2.4,3.3,4.4,6.8,6.2,10.5s3.2,7.5,4.3,11.4c-1.3-3.8-2.8-7.6-4.7-11.2c-1.9-3.6-4-7-6.4-10.2c-4.8-6.5-10.4-12.3-16.6-17.5
						c-6.2-5.2-12.9-9.7-19.9-13.8c-3.5-2-7.1-3.9-10.7-5.7C126.7,765.6,123,764,119.3,762.5z"/>
				</g>
			</g>
			<g>
				<path class="st0" d="M188.7,825.7c0,0,5.5-38.9,48.5-55.7c44.6-17.4,37.2,17.7-1.1,29C197.8,810.4,188.7,825.7,188.7,825.7z"/>
				<g>
					<path class="st1" d="M264.8,770.8c-3.9,1-7.8,2.2-11.6,3.6c-3.8,1.3-7.6,2.8-11.3,4.4c-7.4,3.2-14.6,7-21.3,11.5
						c-6.7,4.4-13,9.6-18.5,15.5c-2.8,2.9-5.2,6.1-7.5,9.5c-2.3,3.3-4.2,6.9-5.9,10.6c1.5-3.7,3.4-7.4,5.5-10.8
						c2.2-3.4,4.6-6.7,7.4-9.7c5.4-6.1,11.8-11.3,18.5-15.8c6.8-4.4,14-8.2,21.5-11.3C249.1,775,256.9,772.4,264.8,770.8z"/>
				</g>
			</g>
			<g>
				<path class="st2" d="M188.7,825.7c0,0-12.3-44.8,26.5-83.2c40.2-39.9,48.7,1.7,12.5,32C191.4,804.8,188.7,825.7,188.7,825.7z"/>
				<g>
					<path class="st1" d="M245.5,730.3c-3.8,2.9-7.4,6.1-10.9,9.3s-6.9,6.6-10.2,10.1c-6.5,7-12.5,14.4-17.7,22.4
						c-2.6,4-5,8.1-7.2,12.4c-2.2,4.2-4,8.7-5.6,13.1c-1.6,4.5-2.8,9.1-3.7,13.8s-1.3,9.5-1.4,14.3c-0.1-4.8,0.2-9.6,1-14.3
						s1.9-9.4,3.5-14c3-9.1,7.5-17.7,12.7-25.8c5.3-8,11.4-15.5,18-22.4C230.5,742.3,237.7,735.9,245.5,730.3z"/>
				</g>
			</g>
		</g>
	</g>
	<g>
		<path class="st5" d="M98.5,838.1H943c5.8,0,10.5-4.7,10.5-10.5l0,0c0-5.8-4.7-10.5-10.5-10.5H98.5c-5.8,0-10.5,4.7-10.5,10.5l0,0
			C87.9,833.3,92.7,838.1,98.5,838.1z"/>
		<path class="st6" d="M943,827.5H98.5c-3.9,0-7.3-2.1-9.1-5.3c-0.9,1.6-1.4,3.4-1.4,5.3l0,0c0,5.8,4.7,10.5,10.5,10.5H943
			c5.8,0,10.5-4.7,10.5-10.5l0,0c0-1.9-0.5-3.7-1.4-5.3C950.3,825.4,946.9,827.5,943,827.5z"/>
	</g>
	<g>
		<g>
			<path class="st9" d="M852.7,460.2c0,0-10.5-13.1-1.1-27.1c0,0,4.5-13.3,24.2-9.9s30.2,14.6,25.6,33.8l-36,11.2L852.7,460.2z"/>
			<path class="st9" d="M894.7,468.8c0,0-2.7,6.1-8.8,6.6s-4.8-9.1-2.7-9.8c2.1-0.7,6-4.4,8.3-3.2
				C893.8,463.6,894.7,468.8,894.7,468.8z"/>
			<g>
				<g>
					<g>
						<g>
							<g>
								<polygon class="st9" points="828.4,629.3 848.8,798.7 862.4,798.7 869.4,622 828.4,622 								"/>
							</g>
						</g>
						<path class="st36" d="M869.4,622h-39.3c-1.1,4.2-1.7,7.3-1.7,7.3s12.4,11.7,40.1,13.8L869.4,622z"/>
						<g>
							<g>
								<g>
									<polygon class="st36" points="848.8,798.7 816.9,809.1 816.9,814 863.4,814 862.4,798.7 									"/>
								</g>
							</g>
							<g>
								<g>
									<path class="st1" d="M839.1,805.2c0.1,0,0.3,0,0.4-0.1c0.6-0.2,0.8-0.8,0.6-1.4l-1.3-3.4c-0.2-0.6-0.8-0.8-1.4-0.6
										c-0.6,0.2-0.8,0.8-0.6,1.4l1.3,3.4C838.3,805,838.7,805.2,839.1,805.2z"/>
								</g>
								<g>
									<path class="st1" d="M843.1,804c0.1,0,0.3,0,0.4-0.1c0.6-0.2,0.8-0.8,0.6-1.4l-1.3-3.4c-0.2-0.6-0.8-0.8-1.4-0.6
										c-0.6,0.2-0.8,0.8-0.6,1.4l1.3,3.4C842.3,803.7,842.7,804,843.1,804z"/>
								</g>
							</g>
						</g>
						<polygon class="st9" points="911.3,629.3 890.9,798.7 877.3,798.7 870.3,622 911.3,622 						"/>
						<path class="st36" d="M910.1,639.7l1.2-10.3V622h-41l0.8,21.3C881.9,643.9,894.8,643.1,910.1,639.7z"/>
						<g>
							<g>
								<g>
									<polygon class="st36" points="890.9,798.7 922.8,809.1 922.8,814 876.2,814 877.3,798.7 									"/>
								</g>
							</g>
							<g>
								<g>
									<path class="st1" d="M900.6,805.2c-0.1,0-0.3,0-0.4-0.1c-0.6-0.2-0.8-0.8-0.6-1.4l1.3-3.4c0.2-0.6,0.8-0.8,1.4-0.6
										c0.6,0.2,0.8,0.8,0.6,1.4l-1.3,3.4C901.4,805,901,805.2,900.6,805.2z"/>
								</g>
								<g>
									<path class="st1" d="M896.5,804c-0.1,0-0.3,0-0.4-0.1c-0.6-0.2-0.8-0.8-0.6-1.4l1.3-3.4c0.2-0.6,0.8-0.8,1.4-0.6
										c0.6,0.2,0.8,0.8,0.6,1.4l-1.3,3.4C897.4,803.7,897,804,896.5,804z"/>
								</g>
							</g>
						</g>
						<g>
							<path class="st9" d="M866.9,521.7c0,0-35.9,21-56,25.5s-35.4-44.3-35.4-44.3l13.7-7c0,0,10.9,15.1,19.6,25
								c0,0,25.4-20.9,36.9-26.6L866.9,521.7z"/>
							<path class="st36" d="M855.4,528c-11.3,6-28.5,14.7-41.3,18.3c23-12,32.2-30,32.2-30S851.4,522.3,855.4,528z"/>
							<path class="st9" d="M882.4,493.7c0,0,14.5,1.2,23.7,2.8L917,624.4c0,0-28.4,11.4-50.3,9.7l-8.3,0.2c0,0-22.5-0.9-35-6.8
								l22.4-133.2l18.7-0.6L882.4,493.7L882.4,493.7z"/>
							<g>
								<circle class="st24" cx="882.7" cy="580.9" r="2.2"/>
								<circle class="st24" cx="882.7" cy="598.5" r="2.2"/>
								<circle class="st24" cx="859.5" cy="580.9" r="2.2"/>
								<circle class="st24" cx="859.5" cy="598.5" r="2.2"/>
							</g>
							<path class="st36" d="M870.8,558.4l25-41.8l-2.3-3.8l5-0.1l-10.2-18.4l0,0c-3.5-0.3-5.9-0.5-5.9-0.5h-18l-6.5,0.2l-8.9,17.7
								l4.5,0.7l-2.9,3.8L870.8,558.4z"/>
							<path class="st37" d="M870.8,558.4L885,494l-6,5.9l-6,1.2l-5.1,0.9l-5.7-8.2L870.8,558.4z"/>
							<path class="st10" d="M865.1,481.7v12.4c0,4.6,3.3,6.8,7.9,6.8l0,0c4.6,0,8.7-2.3,8.7-6.8V480c0-4.6-3.7-8.3-8.3-8.3l0,0
								c-4.6,0-8.3,3.7-8.3,8.3L865.1,481.7L865.1,481.7z"/>
							<path class="st11" d="M875.9,472.6l-9.8,0.9c0,0-0.3,0.1-0.9,0.4v8.7v6.4c14.6-1.9,16.6-10,16.6-10l-4.2-6.5h-1.7V472.6z"/>
							<path class="st10" d="M900.1,455.8c-4.9-2.4-8,4.3-8,4.3s-1.9-8.8-4.4-14.3c0,0-7.1-5.1-17.9-6.3
								c-11.8-1.5-16.9,7.4-17.4,12.1c-1.4,13.5,4.4,31.6,18.2,31.9c2.7,0.1,12.8-2.1,20.4-15.2C901,471.6,905,458.2,900.1,455.8z"
								/>
							<path class="st11" d="M895.7,459.4c0,0,1.2-1.5,3.1-0.2c1.6,1.1-0.1,6.6-4.7,6.8c0,0,2.8-1.3,3.4-3.6
								C898.1,460.1,896.4,459.4,895.7,459.4z"/>
							<g>
								<path class="st9" d="M906.1,496.5c0,0,40.4,32.5,48.7,51.4S911.2,599,911.2,599l-1.3-17c0,0,11.4-16.6,19.4-27.1
									c0,0-14.3-10.6-21.3-18.8L906.1,496.5z"/>
								<path class="st36" d="M932.3,583.7c-6.2,5.1-12.2,9.4-16.2,12.1c-0.8-0.7-1.4-1.6-1.5-3.4c-0.2-3.2,1-10.1,1-10.1
									S924.1,585.5,932.3,583.7z"/>
								<path class="st36" d="M929.3,554.9c0,0-14.3-10.6-21.3-18.8l-0.6-13.3L929.3,554.9z"/>
								<path class="st10" d="M908.7,586c0.8-0.1,3.4-0.1,3.4-0.1l-0.2-4.5c0,0,2-0.3,3.7,0.9c1.3,1,4.4,7.6,4,12.8s-7.5,6.8-9.9,6
									c0,0-1,0-1.3-1.8c-0.2-1.5,1.2-1.7,1.2-1.7s-1.4,0-1.5-2.3c-0.1-1.7,1.4-1.8,1.4-1.8s-1.7-0.1-1.6-1.6c0-1.2,0-2.2,1.1-2.4
									c0,0-1.5-0.3-1.4-1.9S908.7,586,908.7,586z"/>
								<path class="st11" d="M908.3,595.6c0.1,0.1,1.4,1.6,3.7,1.1c2.4-0.6-0.8,0.9-2.3,1c-0.1,0-0.1,0-0.1,0
									C909.2,597.5,908.4,597.2,908.3,595.6z"/>
								<g>
									<path class="st11" d="M908,591.9c0-0.5,0-1,0.1-1.4c0,0.1,0.1,1.4,0.8,1.9c0.8,0.4,3.3,0.5,3.6,0.4
										c0.3-0.2,0.1,0.7-2.9,0.7C909.7,593.5,908,593.4,908,591.9z"/>
									<path class="st11" d="M909.1,589.5c0,0-1.5-0.3-1.4-1.9c0-0.5,0.1-0.9,0.3-1.1c0,0-0.1,1.5,1.2,2s3.1,0.3,3.1,0.3
										C912.3,588.8,912.8,589,909.1,589.5z"/>
								</g>
							</g>
							<path class="st22" d="M868.3,459.8c0,0-1.2,5-2.4,6.7s-0.1,2.8,2.8,2.7s-1-0.7-1.1-2.2S869.3,463.1,868.3,459.8z"/>
							<g>
								<path class="st9" d="M857,456c-0.2,0-0.4-0.1-0.6-0.3c-0.3-0.3-0.3-0.8,0.1-1.1c1.2-1,4.2-2.4,7.2-0.4
									c0.4,0.2,0.5,0.7,0.2,1.1c-0.2,0.4-0.7,0.5-1.1,0.2c-2.9-1.9-5.3,0.2-5.3,0.2C857.3,455.9,857.2,456,857,456z"/>
							</g>
							<g>
								<path class="st9" d="M881,456c0.2,0,0.4-0.1,0.6-0.3c0.3-0.3,0.3-0.8-0.1-1.1c-1.2-1-4.2-2.4-7.2-0.4
									c-0.4,0.2-0.5,0.7-0.2,1.1c0.2,0.4,0.7,0.5,1.1,0.2c2.9-1.9,5.3,0.2,5.3,0.2C880.6,455.9,880.8,456,881,456z"/>
							</g>
							<path class="st22" d="M864.6,473.9c0,0,6.3,4.2,11.2-1.4C875.8,472.5,871.3,474.8,864.6,473.9z"/>
							<polygon class="st9" points="870.5,509.2 867.6,534.5 870.8,558.4 876.2,533.7 875.3,509 873,510.5 							"/>
							<polygon class="st1" points="865.1,491.6 873,501 868,507.9 862.3,493.6 							"/>
							<polygon class="st1" points="873,501 881.7,490.9 885,493.9 878.5,507.9 							"/>
							<polygon class="st24" points="858.1,493.7 852.7,510.5 860,510.5 855,515.2 870.8,558.4 862.3,493.6 							"/>
							<polygon class="st24" points="888.3,494.2 894.7,510.5 887.8,510.5 892,514.5 870.8,558.4 885,493.9 							"/>
							<polygon class="st9" points="872.6,501.9 869,507.3 873,509.4 877,506.8 							"/>
						</g>
					</g>
					<rect x="816.9" y="814" class="st9" width="46.6" height="3"/>
					<rect x="876.2" y="814" class="st9" width="46.6" height="3"/>
				</g>
			</g>
			<path class="st15" d="M860.4,457c-0.9,0-1.7,0.7-1.7,1.7l0,0c0.1,0,0.2,0,0.3,0c0.7,0,1.2,0.3,1.2,0.7c0,0.4-0.5,0.7-1.2,0.7
				c-0.1,0-0.2,0-0.3,0v1.9c0,0.9,0.7,1.7,1.7,1.7s1.7-0.7,1.7-1.7v-3.2C862.1,457.7,861.3,457,860.4,457z"/>
			<path class="st15" d="M877.8,457c-0.9,0-1.7,0.7-1.7,1.7l0,0c0.1,0,0.2,0,0.3,0c0.7,0,1.2,0.3,1.2,0.7c0,0.4-0.5,0.7-1.2,0.7
				c-0.1,0-0.2,0-0.3,0v1.9c0,0.9,0.7,1.7,1.7,1.7s1.7-0.7,1.7-1.7v-3.2C879.5,457.7,878.7,457,877.8,457z"/>
			<path class="st9" d="M858.7,441.8c0,0,2.1,7.6,14.9,8.8c12.8,1.2,18.5,9.6,18.5,9.6v-17.4c0,0-14.8-8.9-17.7-8.6
				c-3,0.3-11.7-1.2-13.5,2.1S858.7,441.8,858.7,441.8z"/>
		</g>
		<path class="st10" d="M777.4,501.9c0,0-12.1-10-12.2-11.7c-0.1-1.8,6.1,1.5,6.1,1.5s-5.6-7.8-4.3-10.4s7.6,7.5,7.6,7.5
			s-4.2-10.7-2.7-12.1c1.5-1.5,6.8,10.1,6.8,10.1s-3.1-9.4-1.1-10.3c2-0.8,6.3,12.2,6.3,12.2s1.2-4.8,3.4-4.8s0,12.9,0,12.9
			L777.4,501.9z"/>
	</g>
	<g>
		<g>
			<path class="st5" d="M111.2,438.8h255.7c3.5,0,6.3,2.8,6.3,6.3v159.5c0,3.5-2.8,6.3-6.3,6.3H111.2c-3.5,0-6.3-2.8-6.3-6.3V445.1
				C104.8,441.6,107.7,438.8,111.2,438.8z"/>
			<path class="st1" d="M114.7,603.8h248.7c1.7,0,3.1-1.4,3.1-3.1v-139c0-1.7-1.4-3.1-3.1-3.1H114.7c-1.7,0-3.1,1.4-3.1,3.1v139
				C111.6,602.4,113,603.8,114.7,603.8z"/>
			<g>
				<circle class="st1" cx="135.3" cy="449.4" r="2.7"/>
				<circle class="st1" cx="124.8" cy="449.4" r="2.7"/>
				<circle class="st1" cx="114.2" cy="449.4" r="2.7"/>
			</g>
			<g>
				<rect x="133.6" y="572.4" class="st0" width="8.5" height="15.6"/>
				<rect x="146.2" y="564.7" class="st0" width="8.5" height="23.3"/>
				<rect x="158.7" y="551.3" class="st0" width="8.5" height="36.7"/>
				<rect x="171.3" y="559" class="st0" width="8.5" height="29"/>
				<rect x="183.9" y="542.8" class="st0" width="8.5" height="45.2"/>
			</g>
			<g>
				<circle class="st5" cx="154.7" cy="500" r="25.2"/>
				<g>
					<circle class="st1" cx="154.7" cy="500" r="22.1"/>
					<text transform="matrix(1 0 0 1 144.3875 507.709)" class="st5 st31 st38">user</text>
				</g>
			</g>
			<g>
				<rect x="189" y="489.1" class="st5" width="71.8" height="4.1"/>
				<rect x="189" y="498.1" class="st5" width="71.8" height="4.1"/>
				<rect x="189" y="507.2" class="st5" width="35.9" height="4.1"/>
			</g>
			<g>
				<rect x="275.7" y="489.1" class="st5" width="71.8" height="4.1"/>
				<rect x="275.7" y="498.1" class="st5" width="71.8" height="4.1"/>
				<rect x="275.7" y="507.2" class="st5" width="71.8" height="4.1"/>
			</g>
			<path class="st39" d="M332.4,588"/>
			<g>
				<polygon class="st0" points="336.7,547.9 314.2,570.4 305.3,561.5 285,581.8 270.6,567.4 264.4,573.5 252.1,561.2 225.2,588 
					337,588 337,547.6 				"/>
				<polyline class="st40" points="225.2,588 252.1,561.2 264.4,573.5 270.6,567.4 285,581.8 305.3,561.5 314.2,570.4 336.7,547.9 
					337,547.6 				"/>
				<polygon class="st5" points="332.8,551.4 328.6,547.3 334.3,545.7 340,544.2 338.5,549.9 337,555.6 				"/>
			</g>
			<polyline class="st41" points="218.8,542.8 218.8,588 347.5,588 			"/>
		</g>
		<g>
			<rect x="627.7" y="354.1" class="st1" width="88.6" height="108.2"/>
			<g>
				<g>
					<g>
						<rect x="640.9" y="341.1" class="st5" width="62.2" height="19.4"/>
						<rect x="644.8" y="344.5" class="st1" width="54.5" height="12.7"/>
						<g>
							<path class="st5" d="M684.5,344.2h-25v-14.3h25V344.2z"/>
						</g>
						<g>
							<polygon class="st5" points="724.1,470.4 619.9,470.4 619.9,346.7 643.5,346.7 643.5,354.1 627.7,354.1 627.7,462.3 
								716.4,462.3 716.4,354.1 700.5,354.1 700.5,346.7 724.1,346.7 							"/>
						</g>
						<g>
							<g>
								<g>
									<polygon class="st29" points="646.6,415 639.1,407.5 642.7,403.9 646.6,407.8 653.3,401 657,404.7 									"/>
								</g>
							</g>
						</g>
						<g>
							<g>
								<rect x="661" y="404.6" class="st29" width="45.2" height="5.1"/>
							</g>
						</g>
						<g>
							<g>
								<rect x="661" y="377.2" class="st23" width="45.2" height="4.7"/>
							</g>
						</g>
						<g>
							<g>
								<rect x="661" y="384.8" class="st23" width="22.6" height="4.7"/>
							</g>
						</g>
						<g>
							<g>
								<g>
									<polygon class="st29" points="646.6,431 639.1,423.4 642.7,419.8 646.6,423.7 653.3,417 657,420.6 									"/>
								</g>
							</g>
						</g>
						<g>
							<g>
								<g>
									<rect x="661" y="420.5" class="st29" width="45.2" height="5.1"/>
								</g>
							</g>
						</g>
						<g>
							<g>
								<g>
									<polygon class="st29" points="646.6,446.9 639.1,439.4 642.7,435.7 646.6,439.6 653.3,432.9 657,436.5 									"/>
								</g>
							</g>
						</g>
						<g>
							<g>
								<rect x="661" y="436.4" class="st29" width="45.2" height="5.1"/>
							</g>
						</g>
					</g>
				</g>
			</g>
			<g>
				<text transform="matrix(1 0 0 1 639.8547 388.7559)" class="st23 st31 st42">user</text>
			</g>
		</g>
		<g>
			<path class="st5" d="M277.3,224.3h145.8c3.5,0,6.3,2.8,6.3,6.3V418c0,3.5-2.8,6.3-6.3,6.3H277.3c-3.5,0-6.3-2.8-6.3-6.3V230.7
				C271,227.2,273.8,224.3,277.3,224.3z"/>
			<path class="st1" d="M280.8,417.2h138.8c1.7,0,3.1-1.4,3.1-3.1V247.2c0-1.7-1.4-3.1-3.1-3.1H280.8c-1.7,0-3.1,1.4-3.1,3.1V414
				C277.7,415.8,279.1,417.2,280.8,417.2z"/>
			<g>
				<circle class="st1" cx="301.4" cy="234.9" r="2.7"/>
				<circle class="st1" cx="290.9" cy="234.9" r="2.7"/>
				<circle class="st1" cx="280.4" cy="234.9" r="2.7"/>
			</g>
			<g>
				<g>
					<circle class="st23" cx="311" cy="276.7" r="18.9"/>
					<g>
						<text transform="matrix(1 0 0 1 300.7566 284.4053)" class="st1 st31 st38">user</text>
					</g>
				</g>
				<g>
					<rect x="337.2" y="265.8" class="st23" width="71.8" height="4.1"/>
					<rect x="337.2" y="274.8" class="st23" width="71.8" height="4.1"/>
					<rect x="337.2" y="283.9" class="st23" width="35.9" height="4.1"/>
				</g>
			</g>
			<g>
				<g>
					<circle class="st4" cx="311" cy="328.2" r="18.9"/>
					<g>
						<text transform="matrix(1 0 0 1 300.7566 335.916)" class="st1 st31 st38">user</text>
					</g>
				</g>
				<g>
					<rect x="337.2" y="317.3" class="st4" width="71.8" height="4.1"/>
					<rect x="337.2" y="326.3" class="st4" width="71.8" height="4.1"/>
					<rect x="337.2" y="335.4" class="st4" width="35.9" height="4.1"/>
				</g>
			</g>
			<g>
				<g>
					<circle class="st29" cx="311" cy="379.8" r="18.9"/>
					<g>
						<text transform="matrix(1 0 0 1 300.7566 387.4268)" class="st1 st31 st38">user</text>
					</g>
				</g>
				<g>
					<rect x="337.2" y="368.8" class="st29" width="71.8" height="4.1"/>
					<rect x="337.2" y="377.9" class="st29" width="71.8" height="4.1"/>
					<rect x="337.2" y="386.9" class="st29" width="35.9" height="4.1"/>
				</g>
			</g>
		</g>
		<g>
			<path class="st0" d="M310.2,705.6h135c0.9,0,1.7-0.8,1.7-1.7v-76.5c0-0.9-0.8-1.7-1.7-1.7h-135c-0.9,0-1.7,0.8-1.7,1.7v76.5
				C308.5,704.9,309.3,705.6,310.2,705.6z"/>
			<circle class="st2" cx="378.4" cy="665.7" r="21.2"/>
			<g>
				<path class="st1" d="M372.9,665.7v-7c0-0.6,0.7-1,1.2-0.7l6,3.5l6,3.5c0.5,0.3,0.5,1.1,0,1.4l-6,3.5l-6,3.5
					c-0.5,0.3-1.2-0.1-1.2-0.7V665.7z"/>
			</g>
		</g>
	</g>
</g>
</svg>
