<?xml version="1.0" encoding="utf-8"?>
<!-- Generator: Adobe Illustrator 24.1.3, SVG Export Plug-In . SVG Version: 6.00 Build 0)  -->
<svg version="1.1" id="Layer_1" xmlns="http://www.w3.org/2000/svg" xmlns:xlink="http://www.w3.org/1999/xlink" x="0px" y="0px"
	 viewBox="0 0 24 24" style="enable-background:new 0 0 24 24;" xml:space="preserve">
<style type="text/css">
	.st0{fill-rule:evenodd;clip-rule:evenodd;fill:#999999;}
</style>
<path class="st0" d="M16.7,6.3c0.4,0.4,0.4,1,0.1,1.4l-9,9.7c-0.7,0.8-2,0.8-2.7,0l-3.8-4.1c-0.4-0.4-0.4-1,0.1-1.4
	c0.4-0.4,1-0.4,1.4,0.1l3.6,3.9l8.9-9.6C15.6,5.9,16.3,5.9,16.7,6.3z M21.7,6.3c0.4,0.4,0.4,1,0.1,1.4l-9,9.7
	c-0.4,0.4-1,0.4-1.4,0.1s-0.4-1-0.1-1.4l9-9.7C20.6,5.9,21.3,5.9,21.7,6.3z"/>
</svg>
