<?xml version="1.0" encoding="utf-8"?>
<!-- Generator: Adobe Illustrator 27.3.1, SVG Export Plug-In . SVG Version: 6.00 Build 0)  -->
<svg version="1.1" id="Layer_1" xmlns="http://www.w3.org/2000/svg" xmlns:xlink="http://www.w3.org/1999/xlink" x="0px" y="0px"
	 viewBox="0 0 40 40" style="enable-background:new 0 0 40 40;" xml:space="preserve">
<style type="text/css">
	.st0{fill:#FFFFFF;}
</style>
<g>
	<path class="st0" d="M9.8,39.5c-0.4-0.1-0.9-0.2-1.3-0.3c-2.8-0.8-4.5-2.9-4.7-5.8c-0.1-3,0.2-6,1.3-8.8c0.7-1.8,1.8-3.4,3.6-4.4
		c1.1-0.6,2.3-0.9,3.5-0.9c0.4,0,0.8,0.2,1.2,0.4c0.6,0.3,1.1,0.7,1.7,1.1c3.3,2,6.5,2,9.8,0c0.5-0.3,0.9-0.6,1.3-0.9
		c0.8-0.6,1.6-0.7,2.6-0.5c2.5,0.4,4.3,1.8,5.5,4c1.1,2,1.6,4.1,1.8,6.3c0.1,1.1,0.2,2.3,0.1,3.4c0,3.4-2.4,5.9-5.8,6.3
		c-0.1,0-0.2,0-0.2,0.1C23.4,39.5,16.6,39.5,9.8,39.5z"/>
	<path class="st0" d="M29.2,9.9c0,5.2-4.2,9.4-9.4,9.4c-5.2,0-9.4-4.2-9.4-9.4c0-5.2,4.2-9.4,9.4-9.4C25,0.5,29.2,4.7,29.2,9.9z"/>
</g>
</svg>
