<?xml version="1.0" encoding="utf-8"?>
<!-- Generator: Adobe Illustrator 24.1.3, SVG Export Plug-In . SVG Version: 6.00 Build 0)  -->
<svg version="1.1" id="Layer_1" xmlns="http://www.w3.org/2000/svg" xmlns:xlink="http://www.w3.org/1999/xlink" x="0px" y="0px"
	 viewBox="0 0 1080 1080" style="enable-background:new 0 0 1080 1080;" xml:space="preserve">
<style type="text/css">
	.st0{fill:#F79369;}
	.st1{fill:#D15D2D;}
	.st2{fill:#FCD4C7;}
	.st3{fill:#C56E29;}
	.st4{fill:#0098A7;}
	.st5{fill:#00743E;}
	.st6{fill:#00B4DF;}
	.st7{fill:#00753F;}
	.st8{fill:#008245;}
	.st9{fill:#BAE4EF;}
	.st10{fill:#C3932C;}
	.st11{fill:#FFFFFF;}
	.st12{fill:#386176;}
	.st13{fill:#FFD05F;}
	.st14{fill:#FFF0CB;}
	.st15{fill:#4C3380;}
	.st16{fill:#D61C7E;}
	.st17{fill:#BBBEBF;}
	.st18{fill:#EE4E9C;}
	.st19{fill:#F9C4DB;}
	.st20{fill:#7754A3;}
	.st21{fill:#B2A0CD;}
	.st22{fill:#E8CFBC;}
	.st23{fill:#B1C1E3;}
	.st24{fill:#EFAF9D;}
	.st25{fill:#FBC5B3;}
	.st26{fill:#E5E6E6;}
	.st27{enable-background:new    ;}
</style>
<g id="awarnessand_policy3">
	<g>
		<g>
			<g>
				<g>
					<polygon class="st0" points="673.4,456.6 673.2,519.6 728,551.2 727.9,562.6 673.2,531 663.2,525.2 663.3,513.8 663.4,450.9 
											"/>
				</g>
				<polygon class="st1" points="683,451.1 673.4,456.6 673.2,519.6 682.8,514 				"/>
				<polygon class="st2" points="682.8,514 673.2,519.6 728,551.2 737.6,545.6 				"/>
				<g>
					<polygon class="st3" points="663.4,450.9 673,445.3 683,451.1 673.4,456.6 					"/>
				</g>
			</g>
			<g>
				<path class="st4" d="M730.6,441.4c0,31.8-25.8,57.6-57.6,57.6s-57.6-25.8-57.6-57.6s25.8-57.6,57.6-57.6
					S730.6,409.6,730.6,441.4z"/>
				<g>
					<path class="st5" d="M730.6,443c0-0.5,0-1.1,0-1.6C730.6,441.9,730.6,442.5,730.6,443z"/>
					<path class="st5" d="M730.4,446.2c0-0.3,0-0.7,0.1-1C730.4,445.6,730.4,445.9,730.4,446.2z"/>
					<path class="st5" d="M730.2,447.8c0-0.3,0.1-0.7,0.1-1C730.3,447.2,730.3,447.5,730.2,447.8z"/>
					<path class="st5" d="M730.5,444.6c0-0.4,0-0.7,0-1.1C730.5,443.9,730.5,444.3,730.5,444.6z"/>
					<path class="st5" d="M729.4,453.1c0.1-0.5,0.2-1,0.3-1.5C729.6,452.1,729.5,452.6,729.4,453.1z"/>
					<path class="st5" d="M730,449.5c0-0.3,0.1-0.7,0.1-1C730.1,448.8,730.1,449.1,730,449.5z"/>
					<path class="st5" d="M728.7,456.1c0.1-0.3,0.2-0.7,0.3-1C728.8,455.5,728.8,455.8,728.7,456.1z"/>
					<path class="st5" d="M729.7,451.4c0.1-0.4,0.2-0.9,0.2-1.3C729.9,450.5,729.8,450.9,729.7,451.4z"/>
					<path class="st5" d="M729.1,454.6c0.1-0.4,0.2-0.7,0.2-1.1C729.2,453.9,729.1,454.3,729.1,454.6z"/>
					<path class="st5" d="M671.2,383.8c0.6,0,1.2,0,1.8,0C672.4,383.8,671.8,383.8,671.2,383.8z"/>
					<path class="st5" d="M669.4,383.9c0.4,0,0.9-0.1,1.3-0.1C670.3,383.9,669.8,383.9,669.4,383.9z"/>
					<path class="st5" d="M712,483.8c-0.4,0.3-0.7,0.7-1.1,1C711.3,484.4,711.6,484.1,712,483.8z"/>
					<path class="st5" d="M665.4,384.3c1.2-0.2,2.4-0.3,3.6-0.4C667.7,384,666.5,384.1,665.4,384.3z"/>
					<path class="st5" d="M713.3,482.5c0.3-0.3,0.6-0.6,0.9-0.9C713.9,481.9,713.6,482.2,713.3,482.5z"/>
					<path class="st5" d="M663.5,384.6c0.6-0.1,1.1-0.2,1.7-0.3C664.6,384.4,664.1,384.5,663.5,384.6z"/>
					<path class="st5" d="M713.1,482.7c-0.3,0.3-0.6,0.6-0.9,0.9C712.5,483.3,712.8,483,713.1,482.7z"/>
					<path class="st5" d="M728.2,457.7c0.1-0.3,0.2-0.6,0.3-1C728.4,457,728.3,457.3,728.2,457.7z"/>
					<path class="st5" d="M719.6,475.2c0.2-0.3,0.5-0.6,0.7-1C720.1,474.5,719.9,474.8,719.6,475.2z"/>
					<path class="st5" d="M718.7,476.4c0.2-0.3,0.5-0.6,0.7-1C719.2,475.8,718.9,476.1,718.7,476.4z"/>
					<path class="st5" d="M721.4,472.6c0.6-0.9,1.1-1.8,1.6-2.7C722.5,470.9,722,471.7,721.4,472.6z"/>
					<path class="st5" d="M715.5,480.3c0.7-0.8,1.4-1.6,2.1-2.4C716.9,478.7,716.2,479.5,715.5,480.3z"/>
					<path class="st5" d="M717.6,477.8c0.3-0.4,0.6-0.7,0.9-1.1C718.2,477.1,717.9,477.4,717.6,477.8z"/>
					<path class="st5" d="M714.4,481.4c0.3-0.3,0.7-0.7,1-1.1C715.1,480.7,714.8,481,714.4,481.4z"/>
					<path class="st5" d="M723.1,469.8c0.2-0.4,0.4-0.8,0.6-1.2C723.5,469,723.3,469.4,723.1,469.8z"/>
					<path class="st5" d="M720.5,473.9c0.2-0.3,0.5-0.7,0.7-1C721,473.2,720.8,473.5,720.5,473.9z"/>
					<path class="st5" d="M727.2,460.9c0.1-0.4,0.3-0.8,0.4-1.2C727.5,460.1,727.3,460.5,727.2,460.9z"/>
					<path class="st5" d="M726.6,462.6c0.2-0.5,0.4-1,0.6-1.5C726.9,461.6,726.7,462.1,726.6,462.6z"/>
					<path class="st5" d="M727.8,459.2c0.1-0.3,0.2-0.7,0.3-1C728,458.5,727.9,458.9,727.8,459.2z"/>
					<path class="st5" d="M724.7,466.8c0.2-0.3,0.3-0.6,0.5-1C725,466.2,724.8,466.5,724.7,466.8z"/>
					<path class="st5" d="M723.9,468.3c0.2-0.3,0.3-0.7,0.5-1C724.3,467.6,724.1,467.9,723.9,468.3z"/>
					<path class="st5" d="M725.3,465.4c0.2-0.3,0.3-0.7,0.5-1C725.6,464.8,725.5,465.1,725.3,465.4z"/>
					<path class="st5" d="M726,464c0.2-0.4,0.3-0.8,0.5-1.2C726.3,463.2,726.1,463.6,726,464z"/>
				</g>
			</g>
			<g>
				<g>
					<polygon class="st1" points="752.2,408.3 751.5,608.2 734.5,618 735.2,418.1 					"/>
				</g>
				<g>
					<polygon class="st0" points="735.2,418.1 734.5,618 717.4,608.2 718.1,408.3 					"/>
				</g>
			</g>
			<g>
				<polygon class="st3" points="752.2,408.3 735.2,418.1 718.1,408.3 735.1,398.4 				"/>
			</g>
			<g>
				<g>
					<polygon class="st2" points="738.1,528.8 747.7,523.2 802.5,554.8 792.9,560.4 					"/>
				</g>
				<polygon class="st1" points="802.6,491.9 793,497.5 803,503.2 802.8,566.2 802.8,577.6 812.4,572 812.4,560.6 812.6,497.7 				
					"/>
				<g>
					<polygon class="st0" points="803,503.2 802.8,566.2 802.8,577.6 792.8,571.8 738.1,540.2 738.1,528.8 792.9,560.4 793,497.5 
											"/>
				</g>
			</g>
			<g>
				<g>
					<polygon class="st2" points="731.6,500.2 722,494.7 703.1,505.9 712.7,511.5 					"/>
				</g>
				<polygon class="st0" points="702.8,517.2 702.6,454.3 693,448.7 693.2,511.7 693.2,523.1 702.8,528.6 				"/>
				<g>
					<polygon class="st3" points="712.5,448.6 702.9,443 693,448.7 702.6,454.3 					"/>
				</g>
				<g>
					<polygon class="st1" points="702.6,454.3 702.8,517.2 702.8,528.6 712.7,522.9 731.6,511.7 731.6,500.2 712.7,511.5 
						712.5,448.6 					"/>
				</g>
			</g>
			<g>
				<polygon class="st3" points="752,406.8 735,416.7 717.9,406.8 734.9,396.9 				"/>
			</g>
			<g>
				<path class="st6" d="M833.1,375.8c0,52.6-42.6,95.2-95.2,95.2c-52.6,0-95.2-42.6-95.2-95.2s42.6-95.2,95.2-95.2
					C790.4,280.6,833.1,323.2,833.1,375.8z"/>
				<g>
					<path class="st7" d="M832.5,386.4c0.1-0.5,0.1-1.1,0.2-1.6C832.6,385.4,832.5,385.9,832.5,386.4z"/>
					<path class="st7" d="M832.7,383.8c0-0.5,0.1-1.1,0.1-1.7C832.8,382.7,832.8,383.2,832.7,383.8z"/>
					<path class="st7" d="M832.9,381.1c0-0.6,0.1-1.2,0.1-1.8C833,379.9,832.9,380.5,832.9,381.1z"/>
					<path class="st7" d="M833,378.5c0-0.9,0-1.8,0-2.7C833.1,376.7,833,377.6,833,378.5z"/>
					<path class="st7" d="M831.1,395.1c0.2-0.8,0.3-1.7,0.5-2.6C831.4,393.4,831.3,394.3,831.1,395.1z"/>
					<path class="st7" d="M831.6,392.2c0.1-0.7,0.3-1.5,0.4-2.2C831.9,390.8,831.8,391.5,831.6,392.2z"/>
					<path class="st7" d="M832.1,389.2c0.1-0.6,0.2-1.1,0.2-1.7C832.3,388,832.2,388.6,832.1,389.2z"/>
					<path class="st7" d="M725.2,281.4c2-0.3,3.9-0.5,5.9-0.6C729.2,281,727.2,281.2,725.2,281.4z"/>
					<path class="st7" d="M734.9,280.6c1,0,1.9,0,2.9,0C736.9,280.6,735.9,280.6,734.9,280.6z"/>
					<path class="st7" d="M731.9,280.8c0.7,0,1.5-0.1,2.2-0.1C733.4,280.7,732.6,280.7,731.9,280.8z"/>
					<path class="st7" d="M829.9,400.2c0.1-0.5,0.3-1.1,0.4-1.6C830.2,399.1,830,399.6,829.9,400.2z"/>
					<path class="st7" d="M722.2,281.9c0.9-0.2,1.9-0.3,2.8-0.4C724.1,281.6,723.1,281.7,722.2,281.9z"/>
					<path class="st7" d="M804.2,444.1c-0.5,0.5-1,1-1.5,1.4C803.2,445,803.7,444.6,804.2,444.1z"/>
					<path class="st7" d="M804.6,443.7c0.5-0.5,1-1,1.5-1.5C805.6,442.7,805.1,443.2,804.6,443.7z"/>
					<path class="st7" d="M802.3,445.8c-0.6,0.5-1.1,1-1.7,1.5C801.2,446.9,801.8,446.3,802.3,445.8z"/>
					<path class="st7" d="M830.5,397.7c0.1-0.6,0.3-1.2,0.4-1.9C830.8,396.4,830.7,397,830.5,397.7z"/>
					<path class="st7" d="M813.4,433.7c0.4-0.5,0.8-1,1.2-1.6C814.2,432.7,813.8,433.2,813.4,433.7z"/>
					<path class="st7" d="M815,431.6c0.4-0.5,0.7-1,1.1-1.6C815.7,430.5,815.4,431.1,815,431.6z"/>
					<path class="st7" d="M820.7,422.7c0.4-0.6,0.7-1.3,1.1-1.9C821.4,421.4,821.1,422.1,820.7,422.7z"/>
					<path class="st7" d="M817.9,427.4c0.9-1.4,1.8-2.9,2.7-4.4C819.7,424.5,818.8,426,817.9,427.4z"/>
					<path class="st7" d="M816.5,429.5c0.4-0.6,0.8-1.1,1.2-1.7C817.2,428.4,816.8,428.9,816.5,429.5z"/>
					<path class="st7" d="M811.7,435.9c0.5-0.6,1-1.2,1.4-1.8C812.6,434.7,812.1,435.3,811.7,435.9z"/>
					<path class="st7" d="M806.4,441.9c0.5-0.6,1.1-1.1,1.6-1.7C807.4,440.8,806.9,441.3,806.4,441.9z"/>
					<path class="st7" d="M808.1,440c1.2-1.3,2.3-2.6,3.4-3.9C810.4,437.4,809.3,438.8,808.1,440z"/>
					<path class="st7" d="M827.4,408.1c0.2-0.7,0.5-1.4,0.7-2C827.9,406.7,827.7,407.4,827.4,408.1z"/>
					<path class="st7" d="M822.1,420.2c0.3-0.5,0.6-1.1,0.9-1.7C822.7,419.1,822.4,419.6,822.1,420.2z"/>
					<path class="st7" d="M828.4,405.2c0.2-0.6,0.4-1.1,0.5-1.7C828.8,404.1,828.6,404.7,828.4,405.2z"/>
					<path class="st7" d="M826.4,410.8c0.3-0.8,0.6-1.6,0.9-2.4C827,409.2,826.7,410,826.4,410.8z"/>
					<path class="st7" d="M829.2,402.7c0.2-0.5,0.3-1.1,0.5-1.6C829.5,401.6,829.3,402.2,829.2,402.7z"/>
					<path class="st7" d="M823.3,417.8c0.3-0.5,0.5-1.1,0.8-1.6C823.8,416.8,823.5,417.3,823.3,417.8z"/>
					<path class="st7" d="M824.4,415.5c0.3-0.6,0.5-1.1,0.8-1.7C824.9,414.4,824.6,415,824.4,415.5z"/>
					<path class="st7" d="M825.4,413.2c0.3-0.7,0.6-1.4,0.8-2.1C826,411.8,825.7,412.5,825.4,413.2z"/>
				</g>
			</g>
			<g>
				<path class="st4" d="M860.5,479.8c0,32.2-26.1,58.2-58.3,58.2S744,511.9,744,479.8c0-32.2,26.1-58.2,58.2-58.2
					C834.4,421.6,860.5,447.7,860.5,479.8z"/>
				<g>
					<path class="st8" d="M860.1,486.4c0-0.3,0.1-0.7,0.1-1C860.2,485.7,860.1,486,860.1,486.4z"/>
					<path class="st8" d="M860.3,484.7c0-0.3,0.1-0.7,0.1-1C860.3,484.1,860.3,484.4,860.3,484.7z"/>
					<path class="st8" d="M860.4,481.5c0-0.5,0-1.1,0-1.6C860.5,480.4,860.5,480.9,860.4,481.5z"/>
					<path class="st8" d="M858.9,493.2c0.1-0.4,0.2-0.8,0.3-1.1C859.1,492.5,859,492.9,858.9,493.2z"/>
					<path class="st8" d="M859.9,488c0.1-0.4,0.1-0.7,0.1-1.1C860,487.3,859.9,487.7,859.9,488z"/>
					<path class="st8" d="M859.3,491.7c0.1-0.5,0.2-1,0.3-1.6C859.5,490.6,859.4,491.2,859.3,491.7z"/>
					<path class="st8" d="M859.6,489.9c0.1-0.5,0.2-0.9,0.2-1.4C859.8,489,859.7,489.5,859.6,489.9z"/>
					<path class="st8" d="M860.4,483.1c0-0.4,0-0.7,0-1.1C860.4,482.4,860.4,482.7,860.4,483.1z"/>
					<path class="st8" d="M798.6,421.7c0.4,0,0.9,0,1.3-0.1C799.5,421.7,799,421.7,798.6,421.7z"/>
					<path class="st8" d="M794.5,422.1c1.2-0.2,2.4-0.3,3.6-0.4C796.9,421.8,795.7,422,794.5,422.1z"/>
					<path class="st8" d="M800.4,421.6c0.6,0,1.2,0,1.8,0C801.6,421.6,801,421.6,800.4,421.6z"/>
					<path class="st8" d="M842.8,521.6c-0.3,0.3-0.6,0.6-0.9,0.9C842.2,522.2,842.5,521.9,842.8,521.6z"/>
					<path class="st8" d="M843,521.4c0.3-0.3,0.6-0.6,0.9-0.9C843.6,520.8,843.3,521.1,843,521.4z"/>
					<path class="st8" d="M792.7,422.4c0.6-0.1,1.1-0.2,1.7-0.2C793.8,422.2,793.2,422.3,792.7,422.4z"/>
					<path class="st8" d="M841.7,522.7c-0.3,0.3-0.7,0.6-1.1,0.9C841,523.3,841.3,523,841.7,522.7z"/>
					<path class="st8" d="M853.8,507c0.2-0.3,0.4-0.7,0.5-1C854.1,506.3,853.9,506.7,853.8,507z"/>
					<path class="st8" d="M852.9,508.6c0.2-0.4,0.4-0.8,0.7-1.2C853.3,507.8,853.1,508.2,852.9,508.6z"/>
					<path class="st8" d="M850.3,512.7c0.2-0.3,0.5-0.7,0.7-1.1C850.8,512,850.6,512.4,850.3,512.7z"/>
					<path class="st8" d="M848.4,515.3c0.2-0.3,0.5-0.6,0.7-1C848.9,514.6,848.7,515,848.4,515.3z"/>
					<path class="st8" d="M851.2,511.4c0.6-0.9,1.1-1.8,1.6-2.7C852.3,509.6,851.7,510.5,851.2,511.4z"/>
					<path class="st8" d="M849.4,514c0.2-0.3,0.5-0.6,0.7-1C849.9,513.4,849.6,513.7,849.4,514z"/>
					<path class="st8" d="M844.1,520.3c0.3-0.3,0.7-0.7,1-1C844.8,519.6,844.5,519.9,844.1,520.3z"/>
					<path class="st8" d="M847.4,516.6c0.3-0.4,0.6-0.7,0.9-1.1C848,515.9,847.7,516.3,847.4,516.6z"/>
					<path class="st8" d="M845.2,519.2c0.7-0.8,1.4-1.6,2.1-2.4C846.6,517.6,845.9,518.4,845.2,519.2z"/>
					<path class="st8" d="M854.5,505.6c0.2-0.3,0.3-0.7,0.5-1C854.8,504.9,854.6,505.2,854.5,505.6z"/>
					<path class="st8" d="M857.6,497.9c0.1-0.3,0.2-0.7,0.3-1C857.8,497.2,857.7,497.5,857.6,497.9z"/>
					<path class="st8" d="M857,499.6c0.2-0.4,0.3-0.8,0.4-1.3C857.3,498.8,857.2,499.2,857,499.6z"/>
					<path class="st8" d="M858.1,496.3c0.1-0.3,0.2-0.7,0.3-1C858.3,495.7,858.2,496,858.1,496.3z"/>
					<path class="st8" d="M855.8,502.7c0.2-0.4,0.4-0.8,0.5-1.3C856.2,501.9,856,502.3,855.8,502.7z"/>
					<path class="st8" d="M855.2,504.2c0.2-0.3,0.3-0.7,0.5-1C855.5,503.5,855.3,503.8,855.2,504.2z"/>
					<path class="st8" d="M856.4,501.3c0.2-0.5,0.4-1,0.6-1.5C856.8,500.3,856.6,500.8,856.4,501.3z"/>
					<path class="st8" d="M858.5,494.8c0.1-0.3,0.2-0.7,0.3-1C858.7,494.1,858.6,494.4,858.5,494.8z"/>
				</g>
			</g>
			<g>
				<path class="st9" d="M746.9,447.3c0,25.6-20.7,46.3-46.3,46.3s-46.3-20.7-46.3-46.3c0-25.6,20.7-46.3,46.3-46.3
					S746.9,421.7,746.9,447.3z"/>
				<g>
					<path class="st8" d="M733.2,480.2c0.1-0.1,0.2-0.2,0.4-0.4C733.4,480,733.3,480.1,733.2,480.2z"/>
					<path class="st8" d="M731.9,481.5c-0.1,0.1-0.2,0.2-0.4,0.3C731.6,481.7,731.8,481.6,731.9,481.5z"/>
					<path class="st8" d="M730.2,483c-0.1,0.1-0.2,0.1-0.3,0.2C730,483.1,730.1,483,730.2,483z"/>
					<path class="st8" d="M746.7,452.2c0-0.1,0-0.3,0-0.4C746.7,452,746.7,452.1,746.7,452.2z"/>
					<path class="st8" d="M746.9,449.8c0-0.1,0-0.2,0-0.3C746.9,449.6,746.9,449.7,746.9,449.8z"/>
					<path class="st8" d="M695.6,401.2c0.1,0,0.2,0,0.3,0C695.8,401.2,695.7,401.2,695.6,401.2z"/>
					<path class="st8" d="M698,401c0.2,0,0.4,0,0.5,0C698.3,401,698.1,401,698,401z"/>
					<path class="st8" d="M688.7,402.5c0.2-0.1,0.5-0.1,0.7-0.2C689.2,402.4,689,402.4,688.7,402.5z"/>
					<path class="st8" d="M746.4,454.5c0-0.1,0-0.2,0-0.3C746.4,454.4,746.4,454.4,746.4,454.5z"/>
					<path class="st8" d="M690.8,402c0.2,0,0.4-0.1,0.6-0.1C691.2,401.9,691,402,690.8,402z"/>
					<path class="st8" d="M693.2,401.5c0.2,0,0.4-0.1,0.7-0.1C693.7,401.5,693.5,401.5,693.2,401.5z"/>
					<path class="st8" d="M738.9,473.3c0.1-0.1,0.2-0.2,0.2-0.4C739.1,473.1,739,473.2,738.9,473.3z"/>
					<path class="st8" d="M740.2,471.3c0-0.1,0.1-0.1,0.1-0.2C740.3,471.2,740.2,471.3,740.2,471.3z"/>
					<path class="st8" d="M737.6,475.2c0.1-0.1,0.2-0.3,0.3-0.4C737.7,475,737.7,475.1,737.6,475.2z"/>
					<path class="st8" d="M736.2,477c0.1-0.1,0.2-0.2,0.2-0.3C736.3,476.8,736.3,476.9,736.2,477z"/>
					<path class="st8" d="M734.8,478.5c0.1-0.1,0.2-0.2,0.2-0.3C735,478.3,734.9,478.4,734.8,478.5z"/>
					<path class="st8" d="M741.2,469.6c0.1-0.1,0.1-0.2,0.2-0.3C741.3,469.4,741.3,469.5,741.2,469.6z"/>
					<path class="st8" d="M746,456.7c0-0.1,0-0.1,0-0.2C746,456.5,746,456.6,746,456.7z"/>
					<path class="st8" d="M742.3,467.6c0.1-0.1,0.1-0.3,0.2-0.4C742.4,467.3,742.3,467.4,742.3,467.6z"/>
					<path class="st8" d="M744.8,461.3c0-0.1,0.1-0.2,0.1-0.4C744.8,461,744.8,461.2,744.8,461.3z"/>
					<path class="st8" d="M745.4,459c0-0.1,0.1-0.3,0.1-0.4C745.5,458.8,745.4,458.9,745.4,459z"/>
					<path class="st8" d="M743.2,465.4c0-0.1,0.1-0.2,0.1-0.3C743.3,465.2,743.3,465.3,743.2,465.4z"/>
					<path class="st8" d="M744.1,463.3c0-0.1,0-0.1,0.1-0.2C744.1,463.2,744.1,463.3,744.1,463.3z"/>
				</g>
			</g>
		</g>
	</g>
	<g>
		<g>
			<g>
				<g>
					<polygon class="st10" points="428.1,566.2 328,509.4 327.6,343.2 427.7,399.9 					"/>
				</g>
				<g>
					<polygon class="st11" points="416.6,416.4 316.5,359.6 330.6,351.4 430.7,408.1 					"/>
				</g>
				<g>
					<polygon class="st12" points="413.9,574.4 410.9,572.6 410.5,406.4 413.5,408.2 					"/>
				</g>
				<g>
					<g>
						<g>
							<polygon class="st13" points="410.9,575.9 310.8,519.1 310.4,352.9 410.5,409.6 							"/>
						</g>
						<polygon class="st14" points="313.5,351.4 411.1,406.8 410.5,406.4 424.6,398.2 327.6,343.2 330.6,341.7 430.7,398.4 
							427.7,399.9 427.6,399.9 413.5,408.1 413.6,408.1 410.5,409.6 310.4,352.9 						"/>
					</g>
				</g>
				<polygon class="st10" points="413.5,408.2 413.5,408.2 427.7,399.9 427.7,399.9 430.7,398.4 431.1,564.6 428.1,566.2 
					428.1,566.1 414,574.3 414,574.4 410.9,575.9 410.5,409.6 				"/>
			</g>
			<g>
				<polygon class="st15" points="410.7,469.5 430.9,457.7 430.9,472.2 410.7,483.7 				"/>
				<polygon class="st16" points="410.8,545.3 431.1,533.6 431.1,548.1 410.9,559.5 				"/>
				<polygon class="st16" points="430.8,448.1 410.6,459.9 410.6,431.3 430.8,419.5 				"/>
			</g>
		</g>
		<g>
			<g>
				<g>
					<polygon class="st4" points="393.3,586 293.2,529.2 292.8,363 392.9,419.8 					"/>
				</g>
				<g>
					<polygon class="st11" points="381.7,436.2 281.7,379.5 295.8,371.2 395.9,428 					"/>
				</g>
				<g>
					<polygon class="st12" points="379.1,594.2 376.1,592.4 375.7,426.2 378.7,428 					"/>
				</g>
				<g>
					<g>
						<g>
							<polygon class="st6" points="376.1,595.7 276,538.9 275.6,372.7 375.7,429.5 							"/>
						</g>
						<polygon class="st9" points="278.7,371.2 376.3,426.6 375.7,426.2 389.8,418 292.8,363 295.8,361.5 395.9,418.2 392.9,419.8 
							392.8,419.7 378.7,428 378.7,428 375.7,429.5 275.6,372.7 						"/>
					</g>
				</g>
				<polygon class="st4" points="378.7,428 378.7,428 392.9,419.7 392.9,419.8 395.9,418.2 396.3,584.5 393.3,586 393.3,586 
					379.2,594.2 379.2,594.2 376.1,595.7 375.7,429.5 				"/>
			</g>
			<polygon class="st17" points="396.2,532.8 376,544.6 375.8,474.3 396,462.5 			"/>
		</g>
		<g>
			<g>
				<g>
					<polygon class="st16" points="360.7,605 260.6,548.3 260.2,382.1 360.3,438.8 					"/>
				</g>
				<g>
					<polygon class="st11" points="349.1,455.3 249.1,398.5 263.2,390.3 363.3,447 					"/>
				</g>
				<g>
					<polygon class="st12" points="346.5,613.3 343.5,611.5 343.1,445.3 346.1,447 					"/>
				</g>
				<g>
					<g>
						<g>
							<polygon class="st18" points="343.5,614.7 243.4,558 243,391.8 343.1,448.5 							"/>
						</g>
						<polygon class="st19" points="246.1,390.3 343.7,445.6 343.1,445.3 357.2,437.1 260.2,382.1 263.2,380.6 363.3,437.3 
							360.3,438.8 360.2,438.8 346.1,447 346.1,447 343.1,448.5 243,391.8 						"/>
					</g>
				</g>
				<polygon class="st16" points="346.1,447.1 346.1,447 360.3,438.8 360.3,438.8 363.3,437.3 363.7,603.5 360.7,605 360.7,605 
					346.6,613.2 346.6,613.2 343.5,614.7 343.1,448.5 				"/>
			</g>
			<g>
				<polygon class="st17" points="343.4,584.2 363.7,572.5 363.7,586.9 343.5,598.4 				"/>
				<polygon class="st15" points="363.4,487 343.2,498.8 343.1,470.2 363.4,458.4 				"/>
			</g>
		</g>
		<g>
			<g>
				<g>
					<polygon class="st15" points="330.1,624.1 230,567.4 229.6,401.1 329.7,457.9 					"/>
				</g>
				<g>
					<polygon class="st11" points="318.6,474.3 218.5,417.6 232.7,409.3 332.7,466.1 					"/>
				</g>
				<g>
					<polygon class="st12" points="315.9,632.3 312.9,630.6 312.5,464.3 315.5,466.1 					"/>
				</g>
				<g>
					<g>
						<g>
							<polygon class="st15" points="312.9,633.8 212.9,577.1 212.5,410.8 312.5,467.6 							"/>
						</g>
						<g>
							<polygon class="st20" points="312.9,633.8 212.9,577.1 212.5,410.8 312.5,467.6 							"/>
						</g>
						<polygon class="st21" points="215.5,409.3 313.1,464.7 312.5,464.3 326.6,456.1 229.6,401.1 232.7,399.6 332.7,456.4 
							329.7,457.9 329.7,457.9 315.6,466.1 315.6,466.1 312.5,467.6 212.5,410.8 						"/>
					</g>
				</g>
				<polygon class="st15" points="315.5,466.1 315.5,466.1 329.7,457.9 329.7,457.9 332.7,456.4 333.2,622.6 330.1,624.1 
					330.1,624.1 316,632.3 316,632.3 312.9,633.8 312.5,467.6 				"/>
			</g>
			<g>
				<polygon class="st17" points="312.7,527.5 332.9,515.7 332.9,530.2 312.7,541.6 				"/>
				<polygon class="st4" points="312.9,603.3 333.1,591.5 333.1,606 312.9,617.5 				"/>
				<polygon class="st4" points="332.9,506.1 312.6,517.9 312.6,489.2 332.8,477.5 				"/>
			</g>
		</g>
	</g>
	<g>
		<g>
			<g>
				<g>
					<g>
						<g>
							<g>
								<polygon class="st18" points="577.2,739.6 396.4,637.1 523,567.1 703.8,669.6 								"/>
							</g>
							<g>
								<polygon class="st16" points="703.8,669.6 703.8,672.5 577.1,742.5 577.2,739.6 								"/>
							</g>
						</g>
					</g>
					<g>
						<g>
							<g>
								<polygon class="st18" points="577.1,742.5 396.3,640 396.4,617.7 577.2,720.3 								"/>
							</g>
							<g>
								<polygon class="st19" points="577.2,720.3 396.4,617.7 523,547.7 703.8,650.2 								"/>
							</g>
							<g>
								<polygon class="st16" points="703.8,650.2 703.8,653.1 577.1,723.2 577.2,720.3 								"/>
							</g>
						</g>
					</g>
					<polygon class="st16" points="577.2,720.3 579.9,718.8 579.9,741 577.1,742.5 					"/>
					<polygon class="st11" points="699.6,655.4 699.6,669.6 579.9,735.8 579.9,721.6 					"/>
				</g>
				<path class="st17" d="M695.8,667.3c0,0-1.6,0.9-4.4,2.6c-2.8,1.6-6.9,4-11.7,6.7c-4.9,2.8-10.5,6-16.6,9.4s-12.6,7-19.1,10.7
					c-6.5,3.6-13.1,7.2-19.2,10.5c-6.1,3.4-11.9,6.4-16.8,9.1c-4.9,2.6-9.1,4.8-11.9,6.3c-2.9,1.5-4.5,2.4-4.5,2.4s1.6-0.9,4.4-2.6
					c2.8-1.6,6.9-4,11.7-6.7c4.9-2.8,10.5-6,16.6-9.4s12.6-7,19.1-10.7c6.5-3.6,13.1-7.2,19.2-10.5c6.2-3.3,11.9-6.4,16.8-9.1
					c4.9-2.6,9.1-4.8,11.9-6.3C694.1,668.2,695.8,667.3,695.8,667.3z"/>
				<path class="st22" d="M682.4,669.6c0,0-1,0.6-2.9,1.7c-1.8,1.1-4.4,2.7-7.6,4.5c-3.2,1.8-6.8,4-10.8,6.2s-8.2,4.6-12.5,7
					c-4.3,2.3-8.6,4.7-12.6,6.8c-4,2.2-7.8,4.1-11,5.9c-3.2,1.7-5.9,3.1-7.8,4.1c-1.9,1-3,1.5-3,1.5s1-0.6,2.9-1.7
					c1.8-1.1,4.4-2.7,7.6-4.5c3.2-1.8,6.8-4,10.8-6.2s8.2-4.6,12.5-7c4.3-2.3,8.6-4.7,12.6-6.8c4-2.2,7.8-4.1,11-5.9
					c3.2-1.7,5.9-3.1,7.8-4.1C681.3,670.2,682.4,669.6,682.4,669.6z"/>
			</g>
			<g>
				<polygon class="st11" points="558.7,709.8 536.8,697.3 536.8,719.7 558.7,732.1 				"/>
				<polygon class="st16" points="524.1,712.5 532.4,717.2 532.4,694.8 524.1,690.2 				"/>
				<polygon class="st16" points="409.3,647.4 417.5,652 417.5,629.7 409.3,625 				"/>
			</g>
		</g>
		<g>
			<g>
				<g>
					<g>
						<g>
							<g>
								<polygon class="st13" points="594.3,721.8 413.4,619.3 540.1,549.3 720.9,651.8 								"/>
							</g>
							<g>
								<polygon class="st10" points="720.9,651.8 720.8,654.7 594.2,724.7 594.3,721.8 								"/>
							</g>
						</g>
					</g>
					<g>
						<g>
							<g>
								<polygon class="st13" points="594.2,724.7 413.4,622.2 413.4,599.9 594.3,702.4 								"/>
							</g>
							<g>
								<polygon class="st14" points="594.3,702.4 413.4,599.9 540.1,529.9 720.9,632.4 								"/>
							</g>
							<g>
								<polygon class="st10" points="720.9,632.4 720.8,635.3 594.2,705.3 594.3,702.4 								"/>
							</g>
						</g>
					</g>
					<polygon class="st10" points="594.3,702.4 597,700.9 597,723.2 594.2,724.7 					"/>
					<polygon class="st11" points="716.6,637.6 716.6,651.8 597,718 597,703.8 					"/>
				</g>
				<path class="st17" d="M712.8,649.5c0,0-1.6,0.9-4.4,2.6c-2.8,1.6-6.9,4-11.7,6.7c-4.9,2.8-10.5,6-16.6,9.4s-12.6,7-19.1,10.7
					c-6.5,3.6-13.1,7.2-19.2,10.5c-6.1,3.4-11.9,6.4-16.8,9.1c-4.9,2.6-9.1,4.8-11.9,6.3c-2.9,1.5-4.5,2.4-4.5,2.4s1.6-0.9,4.4-2.6
					c2.8-1.6,6.9-4,11.7-6.7c4.9-2.8,10.5-6,16.6-9.4s12.6-7,19.1-10.7c6.5-3.6,13.1-7.2,19.2-10.5c6.2-3.3,11.9-6.4,16.8-9.1
					c4.9-2.6,9.1-4.8,11.9-6.3C711.2,650.3,712.8,649.5,712.8,649.5z"/>
				<path class="st17" d="M699.5,651.8c0,0-1,0.6-2.9,1.7c-1.8,1.1-4.4,2.7-7.6,4.5c-3.2,1.8-6.8,4-10.8,6.2s-8.2,4.6-12.5,7
					c-4.3,2.3-8.6,4.7-12.6,6.8c-4,2.2-7.8,4.1-11,5.9c-3.2,1.7-5.9,3.1-7.8,4.1c-1.9,1-3,1.5-3,1.5s1-0.6,2.9-1.7
					c1.8-1.1,4.4-2.7,7.6-4.5c3.2-1.8,6.8-4,10.8-6.2s8.2-4.6,12.5-7c4.3-2.3,8.6-4.7,12.6-6.8c4-2.2,7.8-4.1,11-5.9
					c3.2-1.7,5.9-3.1,7.8-4.1C698.4,652.4,699.5,651.8,699.5,651.8z"/>
			</g>
			<g>
				<polygon class="st10" points="561.4,706.2 569.6,710.8 569.6,688.5 561.4,683.9 				"/>
				<polygon class="st10" points="426.3,629.5 434.6,634.2 434.6,611.9 426.3,607.2 				"/>
			</g>
		</g>
		<g>
			<g>
				<g>
					<g>
						<g>
							<g>
								<polygon class="st6" points="568.3,694.7 387.5,592.2 514.1,522.2 695,624.7 								"/>
							</g>
							<g>
								<polygon class="st4" points="695,624.7 694.9,627.6 568.2,697.6 568.3,694.7 								"/>
							</g>
						</g>
					</g>
					<g>
						<g>
							<g>
								<polygon class="st6" points="568.2,697.6 387.4,595.1 387.5,572.8 568.3,675.3 								"/>
							</g>
							<g>
								<polygon class="st9" points="568.3,675.3 387.5,572.8 514.1,502.8 695,605.3 								"/>
								<polygon class="st11" points="423.7,573 514,523 560.4,547.8 470.1,597.8 								"/>
							</g>
							<g>
								<polygon class="st4" points="695,605.3 694.9,608.2 568.2,678.2 568.3,675.3 								"/>
							</g>
						</g>
					</g>
					<polygon class="st4" points="568.3,675.3 571,673.8 571,696.1 568.2,697.6 					"/>
					<polygon class="st11" points="690.7,610.5 690.7,624.7 571,690.9 571,676.7 					"/>
				</g>
				<path class="st17" d="M686.9,622.4c0,0-1.6,0.9-4.4,2.6c-2.8,1.6-6.9,4-11.7,6.7c-4.9,2.8-10.5,6-16.6,9.4s-12.6,7-19.1,10.7
					c-6.5,3.6-13.1,7.2-19.2,10.5c-6.1,3.4-11.9,6.4-16.8,9.1c-4.9,2.6-9.1,4.8-11.9,6.3c-2.9,1.5-4.5,2.4-4.5,2.4s1.6-0.9,4.4-2.6
					c2.8-1.6,6.9-4,11.7-6.7c4.9-2.8,10.5-6,16.6-9.4s12.6-7,19.1-10.7c6.5-3.6,13.1-7.2,19.2-10.5c6.2-3.3,11.9-6.4,16.8-9.1
					c4.9-2.6,9.1-4.8,11.9-6.3C685.2,623.2,686.9,622.4,686.9,622.4z"/>
				<path class="st17" d="M673.5,624.7c0,0-1,0.6-2.9,1.7c-1.8,1.1-4.4,2.7-7.6,4.5c-3.2,1.8-6.8,4-10.8,6.2s-8.2,4.6-12.5,7
					c-4.3,2.3-8.6,4.7-12.6,6.8c-4,2.2-7.8,4.1-11,5.9c-3.2,1.7-5.9,3.1-7.8,4.1c-1.9,1-3,1.5-3,1.5s1-0.6,2.9-1.7
					c1.8-1.1,4.4-2.7,7.6-4.5c3.2-1.8,6.8-4,10.8-6.2s8.2-4.6,12.5-7c4.3-2.3,8.6-4.7,12.6-6.8c4-2.2,7.8-4.1,11-5.9
					c3.2-1.7,5.9-3.1,7.8-4.1C672.4,625.2,673.5,624.7,673.5,624.7z"/>
			</g>
			<g>
				<polygon class="st4" points="549.8,664.9 527.9,652.4 527.9,674.7 549.8,687.2 				"/>
				<polygon class="st11" points="515.3,667.6 523.5,672.2 523.5,649.9 515.3,645.3 				"/>
				<polygon class="st4" points="400.4,602.4 408.6,607.1 408.6,584.8 400.4,580.1 				"/>
			</g>
		</g>
	</g>
	<path class="st23" d="M288.5,483.2l-57.2-33c-6.6-3.8-12-0.8-12,6.8l-0.1,28.9c0,7.6,5.3,16.9,11.9,20.7l57.2,33
		c6.6,3.8,12,0.8,12-6.8l0.1-28.9C300.5,496.3,295.2,487,288.5,483.2z"/>
	<path class="st11" d="M285.6,481.6L231.4,449c-6.3-3.8-12.1-0.8-13,6.7l-3.4,28.5c-0.9,7.5,3.5,16.6,9.7,20.4l54.2,32.7
		c6.3,3.8,12.1,0.8,13-6.7l3.4-28.5C296.2,494.6,291.8,485.4,285.6,481.6z"/>
	<g>
		<g>
			<g>
				<path class="st2" d="M402.2,694.2c0,0,4.3,2.4,3.1,15.4c-1,11.4-8.7,6.9-10.4,1c-1.7-5.9-4-4.1-3.4-14.3
					C391.5,696.4,394.8,685.9,402.2,694.2z"/>
				<path class="st13" d="M384.7,631.4c3.3-7.8,15-5.4,15.3,3.1c0.4,9.7-2.6,14.1-1.2,24.5c2,15.4,5.2,34.8,5.2,34.8l-14.4,2.9
					c0,0-3.2-7.5-7.7-38.1C380.2,646.9,381.9,638,384.7,631.4z"/>
			</g>
			<g>
				<polygon class="st24" points="350.9,815.5 350.9,807.8 362.2,807.8 362,817.9 359,822.3 350.2,819.7 				"/>
				<polygon class="st24" points="378.4,803.2 378.4,795.5 389.8,795.5 389.6,805.6 386.6,810 377.7,807.4 				"/>
				<path class="st15" d="M351,698.7c0,0-0.1,85.3-3.3,110.8c0,0,10.1,7.5,19.2,0c0,0-2.1-31.4,0-43.1c2.1-11.7,1.1-44.7,4.3-48.5
					c3.2-3.7,4.8-4.3,5.9,5.3s-0.3,48.2-2.1,76.2c0,0,9.6,4.8,18.6-0.5c0,0,0.5-23.7,2.1-31.2c2.3-10.7,4.3-51.4,2.7-77.5L351,698.7
					z"/>
				<path class="st15" d="M350.9,815.5c0,0,3.2,5.6,11.2,2.4c0,0-0.4,4.2,2,6.8s11.4,11.4,5.8,15.4s-10.4-2.2-14.2-6.2
					c-3.8-4-6.1-2.9-7.9-5.4C345.9,825.9,345.1,814.7,350.9,815.5z"/>
				<path class="st15" d="M378.2,804.9c0,0-4,0.3-4.2,4.8s0.2,6.8,4.2,7.5s22,5.8,26.6,3.6s-1.1-9-5.3-10.2
					c-4.2-1.2-8.8-3.9-9.9-5.1C389.6,805.5,383.1,807.8,378.2,804.9z"/>
			</g>
			<path class="st6" d="M399.2,695c0,0-3.8-35.2,0-54.3c3.8-19.2-13.3-24.7-28.9-16.3C345.1,638,351,648.6,351,700.6
				c0,0,7.5,9.1,24.9,5.6C396.5,702,399.2,695,399.2,695z"/>
			<path class="st2" d="M395.9,688.8c0,0,3.2,3.7,15.7,0c11-3.3,5.1-9.9-1.1-10.4c-6.1-0.5-4.8-3.1-14.6-0.5
				C395.9,677.8,386.3,683.2,395.9,688.8z"/>
			<path class="st13" d="M358.7,632.7c0,0-10.3,3.6-10.7,21.6c-0.4,18-3.8,39,19.7,38.6c23.6-0.4,29.6-2.4,29.6-2.4v-13.6
				c0,0-24,0.8-30.4-0.8c-0.6-5.2-1.1-10.5-1.6-15.8C365.1,656,368.3,626,358.7,632.7z"/>
		</g>
		<g>
			<g>
				<path class="st0" d="M373.4,615.7v9c0,0,1.8,13.2,9,13.6c7.2,0.4,6.9-6.6,1.2-12.8v-8.8L373.4,615.7z"/>
				<path class="st2" d="M395,598.1c0,0-0.2,9.1-1.6,16.8c-1.3,7.7-10.4,12.6-17.6,4.8s-8.4-19.8-8.4-19.8l7.4-7.8L395,598.1z"/>
			</g>
			<path class="st15" d="M377.5,600.4c0,0,24.5,2.5,25.6-6.5c1.1-9.1-5.9-11.9-5.9-11.9s1.6,7.6-4.4,6s-20.5-8.5-23.7,0.5
				c0,0-5.7-1.3-5.5,6.4c0.3,7.7,8.7,29.2-4.5,24.1c0,0,2.3,6.4,14.2,5.6c0,0,0.5-4.8,0.3-12c0,0-6.1-3.7-2.9-5.6
				c3.2-1.9,3.7,3.5,3.7,3.5l2.9,1.2L377.5,600.4z"/>
		</g>
	</g>
	<g>
		<g>
			<path class="st2" d="M498.3,407.5c0.5-0.4,0.9-1,1.5-1.3l-0.5-2.6c-0.8-2.1,1.7-5.1,2.7-6.7c0.7-1.2,1.9-2.5,0.8-3.8
				s-2.6-0.2-3.8,0.5c-0.7,0.4-1.3,0.9-2.2,0.8c-1.1-0.2-1.9-1.3-2.3-2.2c-0.5-1-0.4-2.3-0.5-3.3c-0.1-0.8-0.1-2.3-0.7-2.9
				c-0.8-0.8-2.6-0.7-3.4-0.2c-3.1,1.8-4.8,5.7-4.9,9.1c-0.1,2.5,0.9,4.6,1.9,6.9c0.8,1.8,1.4,3.5,2.9,4.8c1,0.9,0.9,2.7,2,3.5
				s3.1-0.2,4.1-0.8C496.7,408.6,497.6,408.1,498.3,407.5z"/>
			<path class="st15" d="M536.1,425.5c-4.6,0.3-9.6,1.9-14.2,0.5c-3.8-1.1-6.6-4.5-9.4-7.1c-2.9-2.7-5.6-5.6-7.5-9.1
				c-1-1.8-1.8-4-3.4-5.4c-1.5-1.2-2.7,0.6-4.1,1.3c-2.5,1.3-5.7,3.8-8.2,5c-0.9,0.5,2.6,7.4,4.5,10.6c1.2,2,2,4.2,3.4,6
				c1.5,2,3.3,3.7,5.1,5.4c2.9,2.8,5.8,5.6,9.1,8c3.3,2.5,20.6,1.9,25.9,7.7c2.9,3.2,13.8-10.1,13.6-16.2
				C550.5,425,541.5,425.2,536.1,425.5z"/>
			<g>
				<polygon class="st2" points="582.8,619.8 582.8,612.1 571.4,612.1 571.6,622.2 574.6,626.6 583.5,624 				"/>
				<polygon class="st2" points="555.2,607.5 555.2,599.8 543.8,599.8 544,609.9 547.1,614.3 555.9,611.7 				"/>
				<path class="st15" d="M585.9,503.6c0,0-3.2,84.7,0,110.3c0,0-10.1,7.5-19.2,0c0,0,2.1-31.4,0-43.1c-2.1-11.7-1.1-44.7-4.3-48.5
					c-3.2-3.7-4.8-4.3-5.9,5.3c-1.1,9.6,0.3,48.2,2.1,76.2c0,0-9.6,4.8-18.6-0.5c0,0-0.5-23.7-2.1-31.2c-2.3-10.7-4.3-51.4-2.7-77.5
					L585.9,503.6z"/>
				<path class="st15" d="M582.8,619.8c0,0-3.2,5.6-11.2,2.4c0,0,0.4,4.2-2,6.8s-11.4,11.4-5.8,15.4c5.6,4,10.4-2.2,14.2-6.2
					s6.1-2.9,7.9-5.4C587.8,630.2,588.6,619,582.8,619.8z"/>
				<path class="st15" d="M555.4,609.2c0,0,4,0.3,4.2,4.8s-0.2,6.8-4.2,7.5s-22,5.8-26.6,3.6s1.1-9,5.3-10.2s8.8-3.9,9.9-5.1
					C544,609.8,550.5,612.1,555.4,609.2z"/>
			</g>
			<path class="st20" d="M533.4,497.5c0,0,5.9-37,2.2-56.2c-3.8-19.2,13.3-24.7,28.9-16.3c25.1,13.6,22.8,28,22.8,79.9
				c0,0-10.9,5-28.5,1.9C540,503.6,533.4,497.5,533.4,497.5z"/>
			<path class="st2" d="M621.9,431.4c-0.3-0.6-0.5-1.3-0.9-1.8l1.5-2.3c1.6-1.6,0.3-5.4,0-7.2c-0.2-1.3-0.8-3,0.6-3.8
				c1.5-0.8,2.5,0.8,3.3,1.9c0.5,0.7,0.9,1.3,1.8,1.5c1.1,0.2,2.2-0.5,3-1.2c0.8-0.8,1.2-2,1.7-2.9c0.4-0.8,0.9-2.1,1.8-2.4
				c1-0.4,2.6,0.3,3.3,1.1c2.3,2.8,2.3,7,1.1,10.3c-0.9,2.4-2.5,3.9-4.3,5.7c-1.4,1.4-2.6,2.7-4.5,3.4c-1.3,0.5-1.8,2.2-3.1,2.6
				c-1.3,0.3-2.8-1.4-3.5-2.3C623,433.1,622.4,432.2,621.9,431.4z"/>
			<path class="st15" d="M580.1,434.2c4.2,2,8.2,5.3,13,5.7c3.9,0.3,7.8-1.7,11.3-3.1c3.7-1.5,7.2-3.1,10.3-5.7
				c1.6-1.3,3.1-3.1,5.1-3.8c1.8-0.6,2.3,1.5,3.3,2.7c1.8,2.1,3.9,5.6,5.8,7.7c0.7,0.8-5.1,5.9-8.1,8.2c-1.9,1.4-3.4,3.1-5.4,4.4
				c-2.1,1.3-4.5,2.2-6.8,3.1c-3.7,1.5-7.5,3.1-11.4,4.1c-4,1-29.7,0.2-25.5-17.2C573.6,433.3,575.3,431.9,580.1,434.2z"/>
		</g>
		<g>
			<g>
				<path class="st25" d="M562.6,415.5v9c0,0-1.8,13.2-9,13.6s-6.9-6.6-1.2-12.8v-8.8L562.6,415.5z"/>
				<path class="st2" d="M541.1,397.9c0,0-1.6,8.6,1.6,16.8c2.9,7.2,10.4,12.6,17.6,4.8c7.2-7.8,8.4-19.8,8.4-19.8l-7.4-7.8
					L541.1,397.9z"/>
			</g>
			<path class="st15" d="M554.7,396.2c0,0-14.4,5.4-20,0s4.4-14.2,15.2-14.6s13.2,5.6,13.2,5.6s6.6-2.2,7.4,6.8
				c0.8,9,3.7,21.1-7.9,24.3l-0.5-7.1c0,0,6.6-3.8,4.4-7.4c-2.2-3.6-5.2,2.4-5.2,2.4h-4L554.7,396.2z"/>
		</g>
	</g>
	<g>
		<g>
			<path class="st18" d="M465,539.9c-1-3.4,3.8-8.5,1.2-10.9c-14.4,10.6-10.8,31-10.7,44.3c-5,6.9-15.1,13.7-18.2,15.6
				c-0.6,0.4-0.8,1.1-0.6,1.7c0.8,2.5,1.9,3.8,3.8,6.1c7.3-4.5,15.6-6.2,23.9-16.8c0.3-0.4,0.9-0.6,1-1.1
				C467,570.1,466.7,545.8,465,539.9z"/>
			<g>
				<path class="st15" d="M436.6,662.8c0,0,3.2,2.8,1.5,8.6s-25.1,7.2-27,2.8c-3-6.8,10.8-8.2,17.8-13.4
					C432,658.4,436.6,662.8,436.6,662.8z"/>
				<path class="st2" d="M427.5,649.3c2.9,0.1,5.8,0.4,8.6,0.1c-0.1,9.7,1.5,10.9,0.3,14.5c-2.7,8-19.8,5.8-16.5,3.4
					C424.7,663.9,426.9,657,427.5,649.3z"/>
				<path class="st15" d="M456.2,670.6c0,0,3.9,1.7,4.1,7.7c0.1,6-21.7,14.4-25,10.8c-4.9-5.6,7.8-11.1,12.9-18.1
					C450.6,667.8,456.2,670.6,456.2,670.6z"/>
				<path class="st2" d="M449.4,660.1c2.9,0.1,5.8,0.4,8.6,0.1c-0.1,9.7,1.5,10.9,0.3,14.5c-2.7,8-18.3,9.1-15.7,6.1
					C445.5,677.3,448.8,667.8,449.4,660.1z"/>
				<path class="st16" d="M497.6,580.3c0,0,8.6,14.4-11.1,26.8c-19.8,12.4-22.6,9.3-23.9,20c-0.8,6.4-0.4,39.4-0.4,39.4
					s-5,6.2-15.2,0.1c0,0,0.2-32.6,0.9-47.4c0.6-14.8,20.3-19.1,21.4-24c0.9-4-26.4,12.7-27.9,19.1c-1.5,6.4-2,42.6-2,42.6
					s-9.4,5.6-13.5-2.4c-1.2-2.4-0.5-20.6-1.2-34.6c-0.6-14.2,4.8-22,15.5-30.8c10.6-8.8,25.7-15.3,25.7-15.3L497.6,580.3z"/>
			</g>
			<path class="st11" d="M481.2,528c0,0,16.5-2.4,16.2,16s-6.1,22.1,3,38.9c0,0-16.8,6.1-33.5,1.8c-4.9-1.3-8.3-5.8-8.1-10.9
				c0.1-3.4,0-7.1-0.5-9.6c-1.3-5.6-8-11.2-2.1-19.4c5.9-8.3,7-15.8,13.9-18.3C477,523.9,481.2,528,481.2,528z"/>
			<g>
				<path class="st15" d="M424.6,593.2v-1.5h2.4c9.1-5.3,18.3-10.5,27.4-15.8c0.1-0.1,0.3-0.1,0.5,0c13,7.5,26,15.1,39,22.6h2.5v1.5
					l0,0c0,0,0,0.1-0.1,0.1c-9.8,5.8-19.6,11.5-29.6,17.2c-0.1,0.1-0.3,0.1-0.5,0C452.3,609.3,438.5,601.3,424.6,593.2
					C424.6,593.3,424.6,593.2,424.6,593.2z"/>
				<path class="st21" d="M466.2,615.9c-13.9-8-27.7-16-41.5-24c-0.1-0.1-0.1-0.2,0-0.3c9.8-5.8,19.9-11.4,29.7-17.2
					c0.1-0.1,0.3-0.1,0.5,0c13.8,8,27.6,16,41.5,24c0.1,0.1,0.1,0.2,0,0.3c-9.8,5.8-19.6,11.5-29.6,17.2
					C466.5,615.9,466.3,615.9,466.2,615.9z"/>
				<path class="st15" d="M470,593.4c-3-1.7-5.9-3.4-8.9-5.2c-0.1-0.1-0.1-0.2,0-0.3c1.7-1,5.5-3.2,7.2-4.2c0.1-0.1,0.3-0.1,0.4,0
					c3,1.7,6,3.5,8.9,5.2c0.1,0.1,0.1,0.2,0,0.3c-1.7,1-5.5,3.2-7.2,4.2C470.3,593.4,470.1,593.5,470,593.4z"/>
				<g>
					<path class="st15" d="M454.6,588.7c0.7,0.4,1,0.6,1.7,1c0.1,0,0.1,0.1,0,0.1c-0.7,0.4-1.1,0.6-1.9,1.1c-0.1,0-0.2,0-0.2,0
						c-0.7-0.4-1-0.6-1.7-1c-0.1,0-0.1-0.1,0-0.1c0.7-0.4,1.1-0.6,1.9-1.1C454.4,588.7,454.5,588.7,454.6,588.7z"/>
					<path class="st15" d="M456.7,589.9c0.7,0.4,1,0.6,1.7,1c0.1,0,0.1,0.1,0,0.1c-0.7,0.4-1.1,0.6-1.9,1.1c-0.1,0-0.2,0-0.2,0
						c-0.7-0.4-1-0.6-1.7-1c-0.1,0-0.1-0.1,0-0.1c0.7-0.4,1.1-0.6,1.9-1.1C456.5,589.9,456.6,589.9,456.7,589.9z"/>
					<path class="st15" d="M452.5,587.5c0.7,0.4,1,0.6,1.7,1c0.1,0,0.1,0.1,0,0.1c-0.7,0.4-1.1,0.6-1.9,1.1c-0.1,0-0.2,0-0.2,0
						c-0.7-0.4-1-0.6-1.7-1c-0.1,0-0.1-0.1,0-0.1c0.7-0.4,1.1-0.6,1.9-1.1C452.3,587.5,452.4,587.5,452.5,587.5z"/>
					<path class="st15" d="M458.8,591.1c0.7,0.4,1,0.6,1.7,1c0.1,0,0.1,0.1,0,0.1c-0.7,0.4-1.1,0.6-1.9,1.1c-0.1,0-0.2,0-0.2,0
						c-0.7-0.4-1-0.6-1.7-1c-0.1,0-0.1-0.1,0-0.1c0.7-0.4,1.1-0.6,1.9-1.1C458.6,591.1,458.7,591.1,458.8,591.1z"/>
					<path class="st15" d="M460.9,592.4c0.7,0.4,1,0.6,1.7,1c0.1,0,0.1,0.1,0,0.1c-0.7,0.4-1.1,0.6-1.8,1.1c-0.1,0-0.2,0-0.2,0
						c-0.7-0.4-1-0.6-1.7-1c-0.1,0-0.1-0.1,0-0.1c0.7-0.4,1.1-0.6,1.9-1.1C460.7,592.3,460.8,592.3,460.9,592.4z"/>
					<path class="st15" d="M445.1,591.2c-0.7-0.4-1-0.6-1.7-1c-0.1,0-0.1-0.1,0-0.1c0.7-0.4,1.1-0.6,1.9-1.1c0.1,0,0.2,0,0.2,0
						c0.7,0.4,1,0.6,1.7,1c0.1,0,0.1,0.1,0,0.1c-0.7,0.4-1.1,0.6-1.9,1.1C445.3,591.3,445.2,591.3,445.1,591.2z"/>
					<path class="st15" d="M443,590c-0.7-0.4-1-0.6-1.7-1c-0.1,0-0.1-0.1,0-0.1c0.7-0.4,1.1-0.6,1.9-1.1c0.1,0,0.2,0,0.2,0
						c0.7,0.4,1,0.6,1.7,1c0.1,0,0.1,0.1,0,0.1c-0.7,0.4-1.1,0.6-1.9,1.1C443.1,590,443,590.1,443,590z"/>
					<path class="st15" d="M450.1,586.3c0.1,0,0.2,0,0.2,0c0.7,0.4,1,0.6,1.7,1c0.1,0,0.1,0.1,0,0.1c-0.7,0.4-1.1,0.6-1.9,1.1
						c-0.1,0-0.2,0-0.2,0c-0.7-0.4-1-0.6-1.7-1c-0.1,0-0.1-0.1,0-0.1C449,586.9,449.4,586.7,450.1,586.3z"/>
					<path class="st15" d="M463,593.6c0.7,0.4,1,0.6,1.7,1c0.1,0,0.1,0.1,0,0.1c-0.7,0.4-1.1,0.6-1.8,1.1c-0.1,0-0.2,0-0.2,0
						c-0.7-0.4-1-0.6-1.7-1c-0.1,0-0.1-0.1,0-0.1c0.7-0.4,1.1-0.6,1.8-1.1C462.8,593.5,462.9,593.5,463,593.6z"/>
					<path class="st15" d="M446.5,587c0.1,0,0.2,0,0.2,0c0.7,0.4,1,0.6,1.7,1c0.1,0,0.1,0.1,0,0.1c-0.7,0.4-1.1,0.6-1.9,1.1
						c-0.1,0-0.2,0-0.2,0c-0.7-0.4-1-0.6-1.7-1c-0.1,0-0.1-0.1,0-0.1C445.4,587.6,445.8,587.4,446.5,587z"/>
					<path class="st15" d="M462.7,604.2c-0.7-0.4-1-0.6-1.7-1c-0.1,0-0.1-0.1,0-0.1c0.7-0.4,1.1-0.7,1.8-1.1c0.1,0,0.2,0,0.2,0
						c0.7,0.4,1,0.6,1.7,1c0.1,0,0.1,0.1,0,0.1c-0.7,0.4-1.1,0.7-1.8,1.1C462.9,604.2,462.8,604.2,462.7,604.2z"/>
					<path class="st15" d="M469.4,607.9c-0.1,0-0.2,0-0.2,0c-2-1.1-3.9-2.3-5.9-3.4c-0.1,0-0.1-0.1,0-0.1c0.7-0.4,1.1-0.7,1.8-1.1
						c0.1,0,0.2,0,0.2,0c2,1.1,3.9,2.3,5.9,3.4c0.1,0,0.1,0.1,0,0.1C470.5,607.3,470.1,607.5,469.4,607.9z"/>
					<path class="st15" d="M447.2,592.5c-0.7-0.4-1-0.6-1.7-1c-0.1,0-0.1-0.1,0-0.1c0.7-0.4,1.1-0.6,1.9-1.1c0.1,0,0.2,0,0.2,0
						c0.7,0.4,1,0.6,1.7,1c0.1,0,0.1,0.1,0,0.1c-0.7,0.4-1.1,0.6-1.9,1.1C447.4,592.5,447.3,592.5,447.2,592.5z"/>
					<path class="st15" d="M458.5,601.7c-0.7-0.4-1-0.6-1.7-1c-0.1,0-0.1-0.1,0-0.1c0.7-0.4,1.1-0.7,1.8-1.1c0.1,0,0.2,0,0.2,0
						c0.7,0.4,1,0.6,1.7,1c0.1,0,0.1,0.1,0,0.1c-0.7,0.4-1.1,0.7-1.8,1.1C458.6,601.8,458.5,601.8,458.5,601.7z"/>
					<path class="st15" d="M471.8,606.5c-0.1,0-0.2,0-0.2,0c-1.1-0.6-1.6-0.9-2.6-1.5c-0.1,0-0.1-0.1,0-0.1c0.9-0.5,1.3-0.8,2.2-1.3
						c-1.1-0.6-2.1-1.2-3.2-1.9c-0.1,0-0.1-0.1,0-0.1c0.7-0.4,1.1-0.6,1.8-1.1c0.1,0,0.2,0,0.2,0c2,1.2,4,2.3,6,3.5
						c0.1,0,0.1,0.1,0,0.1C474.6,604.9,473.2,605.7,471.8,606.5z"/>
					<path class="st15" d="M460.6,603c-0.7-0.4-1-0.6-1.7-1c-0.1,0-0.1-0.1,0-0.1c0.7-0.4,1.1-0.7,1.8-1.1c0.1,0,0.2,0,0.2,0
						c0.7,0.4,1,0.6,1.7,1c0.1,0,0.1,0.1,0,0.1c-0.7,0.4-1.1,0.7-1.8,1.1C460.8,603,460.6,603,460.6,603z"/>
					<path class="st15" d="M476.6,601.5c0.7,0.4,1,0.6,1.7,1c0.1,0,0.1,0.1,0,0.1c-0.7,0.4-1.1,0.6-1.8,1.1c-0.1,0-0.2,0-0.2,0
						c-0.7-0.4-1-0.6-1.7-1c-0.1,0-0.1-0.1,0-0.1c0.7-0.4,1.1-0.6,1.8-1.1C476.5,601.5,476.6,601.5,476.6,601.5z"/>
					<path class="st15" d="M469.3,597.2c0.7,0.4,1,0.6,1.7,1c0.1,0,0.1,0.1,0,0.1c-0.7,0.4-1.1,0.6-1.8,1.1c-0.1,0-0.2,0-0.2,0
						c-0.7-0.4-1-0.6-1.7-1c-0.1,0-0.1-0.1,0-0.1c0.7-0.4,1.1-0.6,1.8-1.1C469.1,597.2,469.2,597.2,469.3,597.2z"/>
					<path class="st15" d="M465.1,594.8c0.7,0.4,1,0.6,1.7,1c0.1,0,0.1,0.1,0,0.1c-0.7,0.4-1.1,0.6-1.8,1.1c-0.1,0-0.2,0-0.2,0
						c-0.7-0.4-1-0.6-1.7-1c-0.1,0-0.1-0.1,0-0.1c0.7-0.4,1.1-0.6,1.8-1.1C464.9,594.8,465,594.8,465.1,594.8z"/>
					<path class="st15" d="M467.2,596c0.7,0.4,1,0.6,1.7,1c0.1,0,0.1,0.1,0,0.1c-0.7,0.4-1.1,0.6-1.8,1.1c-0.1,0-0.2,0-0.2,0
						c-0.7-0.4-1-0.6-1.7-1c-0.1,0-0.1-0.1,0-0.1c0.7-0.4,1.1-0.6,1.8-1.1C467,596,467.1,596,467.2,596z"/>
					<path class="st15" d="M471.5,598.5c1.6,0.9,3.1,1.8,4.7,2.7c0.1,0,0.1,0.1,0,0.1c-0.7,0.4-1.1,0.6-1.8,1.1c-0.1,0-0.2,0-0.2,0
						c-1.6-0.9-3.1-1.8-4.7-2.7c-0.1,0-0.1-0.1,0-0.1c0.7-0.4,1.1-0.6,1.8-1.1C471.3,598.5,471.4,598.5,471.5,598.5z"/>
					<path class="st15" d="M451,589.4c0.7,0.4,1,0.6,1.7,1c0.1,0,0.1,0.1,0,0.1c-0.7,0.4-1.1,0.6-1.9,1.1c-0.1,0-0.2,0-0.2,0
						c-0.7-0.4-1-0.6-1.7-1c-0.1,0-0.1-0.1,0-0.1c0.7-0.4,1.1-0.6,1.9-1.1H451z"/>
					<path class="st15" d="M457.3,593.1c0.7,0.4,1,0.6,1.7,1c0.1,0,0.1,0.1,0,0.1c-0.7,0.4-1.1,0.6-1.8,1.1c-0.1,0-0.2,0-0.2,0
						c-0.7-0.4-1-0.6-1.7-1c-0.1,0-0.1-0.1,0-0.1c0.7-0.4,1.1-0.6,1.9-1.1C457.2,593,457.3,593,457.3,593.1z"/>
					<path class="st15" d="M449.3,593.7c-0.7-0.4-1-0.6-1.7-1c-0.1,0-0.1-0.1,0-0.1c0.7-0.4,1.1-0.6,1.9-1.1c0.1,0,0.2,0,0.2,0
						c0.7,0.4,1,0.6,1.7,1c0.1,0,0.1,0.1,0,0.1c-0.7,0.4-1.1,0.6-1.9,1.1C449.5,593.7,449.4,593.7,449.3,593.7z"/>
					<path class="st15" d="M453.1,590.6c0.7,0.4,1,0.6,1.7,1c0.1,0,0.1,0.1,0,0.1c-0.7,0.4-1.1,0.6-1.9,1.1c-0.1,0-0.2,0-0.2,0
						c-0.7-0.4-1-0.6-1.7-1c-0.1,0-0.1-0.1,0-0.1c0.7-0.4,1.1-0.6,1.9-1.1C453,590.6,453.1,590.6,453.1,590.6z"/>
					<path class="st15" d="M459.4,594.3c0.7,0.4,1,0.6,1.7,1c0.1,0,0.1,0.1,0,0.1c-0.7,0.4-1.1,0.6-1.8,1.1c-0.1,0-0.2,0-0.2,0
						c-0.7-0.4-1-0.6-1.7-1c-0.1,0-0.1-0.1,0-0.1c0.7-0.4,1.1-0.6,1.8-1.1C459.3,594.3,459.4,594.3,459.4,594.3z"/>
					<path class="st15" d="M463.6,596.7c0.7,0.4,1,0.6,1.7,1c0.1,0,0.1,0.1,0,0.1c-0.7,0.4-1.1,0.6-1.8,1.1c-0.1,0-0.2,0-0.2,0
						c-0.7-0.4-1-0.6-1.7-1c-0.1,0-0.1-0.1,0-0.1c0.7-0.4,1.1-0.6,1.8-1.1C463.5,596.7,463.6,596.7,463.6,596.7z"/>
					<path class="st15" d="M461.5,595.5c0.7,0.4,1,0.6,1.7,1c0.1,0,0.1,0.1,0,0.1c-0.7,0.4-1.1,0.6-1.8,1.1c-0.1,0-0.2,0-0.2,0
						c-0.7-0.4-1-0.6-1.7-1c-0.1,0-0.1-0.1,0-0.1c0.7-0.4,1.1-0.6,1.8-1.1C461.4,595.5,461.5,595.5,461.5,595.5z"/>
					<path class="st15" d="M439.4,588.4c-0.7,0.4-1.1,0.7-1.9,1.1c-0.1,0-0.2,0-0.2,0c-0.7-0.4-1-0.6-1.7-1c-0.1,0-0.1-0.1,0-0.1
						c0.7-0.4,1.1-0.7,1.9-1.1c0.1,0,0.2,0,0.2,0C438.4,587.7,438.7,587.9,439.4,588.4C439.4,588.3,439.4,588.4,439.4,588.4z"/>
					<path class="st15" d="M466.3,603.5c-0.7-0.4-1-0.6-1.7-1c-0.1,0-0.1-0.1,0-0.1c0.7-0.4,1.1-0.7,1.8-1.1c0.1,0,0.2,0,0.2,0
						c0.7,0.4,1,0.6,1.7,1c0.1,0,0.1,0.1,0,0.1c-0.7,0.4-1.1,0.7-1.8,1.1C466.4,603.5,466.3,603.5,466.3,603.5z"/>
					<path class="st15" d="M468.8,602.5c0.7,0.4,1,0.6,1.7,1c0.1,0,0.1,0.1,0,0.1c-0.7,0.4-1.1,0.7-1.8,1.1c-0.1,0-0.2,0-0.2,0
						c-0.7-0.4-1-0.6-1.7-1c-0.1,0-0.1-0.1,0-0.1c0.7-0.4,1.1-0.7,1.8-1.1C468.6,602.5,468.7,602.5,468.8,602.5z"/>
					<path class="st15" d="M456.3,600.5c-0.7-0.4-1-0.6-1.7-1c-0.1,0-0.1-0.1,0-0.1c0.7-0.4,1.1-0.7,1.9-1.1c0.1,0,0.2,0,0.2,0
						c0.7,0.4,1,0.6,1.7,1c0.1,0,0.1,0.1,0,0.1c-0.7,0.4-1.1,0.7-1.8,1.1C456.5,600.6,456.4,600.6,456.3,600.5z"/>
					<path class="st15" d="M455.2,591.9c0.7,0.4,1,0.6,1.7,1c0.1,0,0.1,0.1,0,0.1c-0.7,0.4-1.1,0.6-1.9,1.1c-0.1,0-0.2,0-0.2,0
						c-0.7-0.4-1-0.6-1.7-1c-0.1,0-0.1-0.1,0-0.1c0.7-0.4,1.1-0.6,1.9-1.1C455.1,591.8,455.2,591.8,455.2,591.9z"/>
					<path class="st15" d="M455.7,597.3c-0.7-0.4-1-0.6-1.7-1c-0.1,0-0.1-0.1,0-0.1c0.7-0.4,1.1-0.7,1.9-1.1c0.1,0,0.2,0,0.2,0
						c0.7,0.4,1,0.6,1.7,1c0.1,0,0.1,0.1,0,0.1c-0.7,0.4-1.1,0.6-1.8,1.1C455.8,597.4,455.7,597.4,455.7,597.3z"/>
					<path class="st15" d="M465.7,598c0.7,0.4,1,0.6,1.7,1c0.1,0,0.1,0.1,0,0.1c-0.7,0.4-1.1,0.6-1.8,1.1c-0.1,0-0.2,0-0.2,0
						c-0.7-0.4-1-0.6-1.7-1c-0.1,0-0.1-0.1,0-0.1c0.7-0.4,1.1-0.6,1.8-1.1C465.6,597.9,465.7,597.9,465.7,598z"/>
					<path class="st15" d="M457.8,598.6c-0.7-0.4-1-0.6-1.7-1c-0.1,0-0.1-0.1,0-0.1c0.7-0.4,1.1-0.7,1.8-1.1c0.1,0,0.2,0,0.2,0
						c0.7,0.4,1,0.6,1.7,1c0.1,0,0.1,0.1,0,0.1c-0.7,0.4-1.1,0.7-1.8,1.1H457.8z"/>
					<path class="st15" d="M451.4,594.9c-0.7-0.4-1-0.6-1.7-1c-0.1,0-0.1-0.1,0-0.1c0.7-0.4,1.1-0.6,1.9-1.1c0.1,0,0.2,0,0.2,0
						c0.7,0.4,1,0.6,1.7,1c0.1,0,0.1,0.1,0,0.1c-0.7,0.4-1.1,0.6-1.9,1.1C451.6,594.9,451.5,594.9,451.4,594.9z"/>
					<path class="st15" d="M453.6,596.1c-0.7-0.4-1-0.6-1.7-1c-0.1,0-0.1-0.1,0-0.1c0.7-0.4,1.1-0.6,1.9-1.1c0.1,0,0.2,0,0.2,0
						c0.7,0.4,1,0.6,1.7,1c0.1,0,0.1,0.1,0,0.1c-0.7,0.4-1.1,0.6-1.9,1.1C453.7,596.2,453.6,596.2,453.6,596.1z"/>
					<path class="st15" d="M467.9,599.2c0.7,0.4,1,0.6,1.7,1c0.1,0,0.1,0.1,0,0.1c-0.7,0.4-1.1,0.6-1.8,1.1c-0.1,0-0.2,0-0.2,0
						c-0.7-0.4-1-0.6-1.7-1c-0.1,0-0.1-0.1,0-0.1c0.7-0.4,1.1-0.6,1.8-1.1C467.7,599.2,467.8,599.1,467.9,599.2z"/>
					<path class="st15" d="M464.1,602.2c-0.7-0.4-1-0.6-1.7-1c-0.1,0-0.1-0.1,0-0.1c0.7-0.4,1.1-0.7,1.8-1.1c0.1,0,0.2,0,0.2,0
						c0.7,0.4,1,0.6,1.7,1c0.1,0,0.1,0.1,0,0.1c-0.7,0.4-1.1,0.7-1.8,1.1C464.3,602.3,464.2,602.3,464.1,602.2z"/>
					<path class="st15" d="M459.9,599.8c-0.7-0.4-1-0.6-1.7-1c-0.1,0-0.1-0.1,0-0.1c0.7-0.4,1.1-0.7,1.8-1.1c0.1,0,0.2,0,0.2,0
						c0.7,0.4,1,0.6,1.7,1c0.1,0,0.1,0.1,0,0.1c-0.7,0.4-1.1,0.7-1.8,1.1C460.1,599.8,460,599.8,459.9,599.8z"/>
					<path class="st15" d="M462,601c-0.7-0.4-1-0.6-1.7-1c-0.1,0-0.1-0.1,0-0.1c0.7-0.4,1.1-0.7,1.8-1.1c0.1,0,0.2,0,0.2,0
						c0.7,0.4,1,0.6,1.7,1c0.1,0,0.1,0.1,0,0.1c-0.7,0.4-1.1,0.7-1.8,1.1C462.2,601,462.1,601.1,462,601z"/>
					<path class="st15" d="M448.5,590.4c-0.7-0.4-1-0.6-1.7-1c-0.1,0-0.1-0.1,0-0.1c0.7-0.4,1.1-0.6,1.9-1.1c0.1,0,0.2,0,0.2,0
						c0.7,0.4,1,0.6,1.7,1c0.1,0,0.1,0.1,0,0.1c-0.7,0.4-1.1,0.6-1.9,1.1C448.6,590.4,448.5,590.4,448.5,590.4z"/>
					<path class="st15" d="M462.6,604.6c0.1,0,0.2,0,0.2,0c0.7,0.4,1,0.6,1.7,1c0.1,0,0.1,0.1,0,0.1c-0.7,0.4-1.1,0.7-1.9,1.1
						c-0.1,0-0.2,0-0.2,0c-0.7-0.4-1-0.6-1.7-1c-0.1,0-0.1-0.1,0-0.1C461.5,605.3,461.9,605.1,462.6,604.6z"/>
					<path class="st15" d="M458.4,602.2c0.1,0,0.2,0,0.2,0c0.7,0.4,1,0.6,1.7,1c0.1,0,0.1,0.1,0,0.1c-0.7,0.4-1.1,0.7-1.9,1.1
						c-0.1,0-0.2,0-0.2,0c-0.7-0.4-1-0.6-1.7-1c-0.1,0-0.1-0.1,0-0.1C457.3,602.8,457.6,602.6,458.4,602.2z"/>
					<path class="st15" d="M460.5,603.4c0.1,0,0.2,0,0.2,0c0.7,0.4,1,0.6,1.7,1c0.1,0,0.1,0.1,0,0.1c-0.7,0.4-1.1,0.7-1.9,1.1
						c-0.1,0-0.2,0-0.2,0c-0.7-0.4-1-0.6-1.7-1c-0.1,0-0.1-0.1,0-0.1C459.4,604.1,459.8,603.8,460.5,603.4z"/>
					<path class="st15" d="M454.1,599.7c0.1,0,0.2,0,0.2,0c0.7,0.4,1,0.6,1.7,1c0.1,0,0.1,0.1,0,0.1c-0.7,0.4-1.1,0.7-1.9,1.1
						c-0.1,0-0.2,0-0.2,0c-0.7-0.4-1-0.6-1.7-1c-0.1,0-0.1-0.1,0-0.1C453,600.4,453.4,600.2,454.1,599.7z"/>
					<path class="st15" d="M456.2,601c0.1,0,0.2,0,0.2,0c0.7,0.4,1,0.6,1.7,1c0.1,0,0.1,0.1,0,0.1c-0.7,0.4-1.1,0.7-1.9,1.1
						c-0.1,0-0.2,0-0.2,0c-0.7-0.4-1-0.6-1.7-1c-0.1,0-0.1-0.1,0-0.1C455.1,601.6,455.5,601.4,456.2,601z"/>
					<path class="st15" d="M466.9,607.1c0.1,0,0.2,0,0.2,0c0.7,0.4,1,0.6,1.7,1c0.1,0,0.1,0.1,0,0.1c-0.7,0.4-1.1,0.7-1.9,1.1
						c-0.1,0-0.2,0-0.2,0c-0.7-0.4-1-0.6-1.7-1c-0.1,0-0.1-0.1,0-0.1C465.8,607.8,466.2,607.5,466.9,607.1z"/>
					<path class="st15" d="M469.6,608c0.7-0.4,1.1-0.7,1.8-1.1c0.1,0,0.2,0,0.2,0c0.7,0.4,1,0.6,1.7,1c0.1,0,0.1,0.1,0,0.1
						c-0.7,0.4-1.1,0.6-1.9,1.1c-0.1,0-0.2,0-0.2,0c-0.7-0.4-1-0.6-1.7-1C469.5,608.1,469.5,608.1,469.6,608z"/>
					<path class="st15" d="M469,608.3c0.1,0,0.2,0,0.2,0c0.7,0.4,1,0.6,1.7,1c0.1,0,0.1,0.1,0,0.1c-0.7,0.4-1.1,0.7-1.9,1.1
						c-0.1,0-0.2,0-0.2,0c-0.7-0.4-1-0.6-1.7-1c-0.1,0-0.1-0.1,0-0.1C467.9,609,468.3,608.8,469,608.3z"/>
					<path class="st15" d="M452,598.5c0.1,0,0.2,0,0.2,0c0.7,0.4,1,0.6,1.7,1c0.1,0,0.1,0.1,0,0.1c-0.7,0.4-1.1,0.7-1.9,1.1
						c-0.1,0-0.2,0-0.2,0c-0.7-0.4-1-0.6-1.7-1c-0.1,0-0.1-0.1,0-0.1C450.9,599.2,451.3,598.9,452,598.5z"/>
					<path class="st15" d="M464.8,605.9c0.1,0,0.2,0,0.2,0c0.7,0.4,1,0.6,1.7,1c0.1,0,0.1,0.1,0,0.1c-0.7,0.4-1.1,0.7-1.9,1.1
						c-0.1,0-0.2,0-0.2,0c-0.7-0.4-1-0.6-1.7-1c-0.1,0-0.1-0.1,0-0.1C463.6,606.5,464,606.3,464.8,605.9z"/>
					<path class="st15" d="M439.3,591.2c0.1,0,0.2,0,0.2,0c0.7,0.4,1,0.6,1.7,1c0.1,0,0.1,0.1,0,0.1c-0.8,0.4-1.1,0.7-1.9,1.1
						c-0.1,0-0.2,0-0.2,0c-0.7-0.4-1-0.6-1.7-1c-0.1,0-0.1-0.1,0-0.1C438.2,591.8,438.5,591.6,439.3,591.2z"/>
					<path class="st15" d="M437.2,589.9c0.1,0,0.2,0,0.2,0c0.7,0.4,1,0.6,1.7,1c0.1,0,0.1,0.1,0,0.1c-0.8,0.4-1.1,0.7-1.9,1.1
						c-0.1,0-0.2,0-0.2,0c-0.7-0.4-1-0.6-1.7-1c-0.1,0-0.1-0.1,0-0.1C436,590.6,436.4,590.4,437.2,589.9z"/>
					<path class="st15" d="M449.9,597.3c0.1,0,0.2,0,0.2,0c0.7,0.4,1,0.6,1.7,1c0.1,0,0.1,0.1,0,0.1c-0.7,0.4-1.1,0.7-1.9,1.1
						c-0.1,0-0.2,0-0.2,0c-0.7-0.4-1-0.6-1.7-1c-0.1,0-0.1-0.1,0-0.1C448.8,597.9,449.1,597.7,449.9,597.3z"/>
					<path class="st15" d="M472,606.6c0.7-0.4,1.1-0.6,1.8-1.1c0.1,0,0.2,0,0.2,0c0.7,0.4,1,0.6,1.7,1c0.1,0,0.1,0.1,0,0.1
						c-0.7,0.4-1.1,0.6-1.8,1.1c-0.1,0-0.2,0-0.2,0C473,607.3,472.7,607.1,472,606.6C471.9,606.7,471.9,606.7,472,606.6z"/>
					<path class="st15" d="M435,588.7c0.1,0,0.2,0,0.2,0c0.7,0.4,1,0.6,1.7,1c0.1,0,0.1,0.1,0,0.1c-0.8,0.4-1.1,0.7-1.9,1.1
						c-0.1,0-0.2,0-0.2,0c-0.7-0.4-1-0.6-1.7-1c-0.1,0-0.1-0.1,0-0.1C433.9,589.4,434.3,589.1,435,588.7z"/>
					<path class="st15" d="M445.7,594.8c0.1,0,0.2,0,0.2,0c0.7,0.4,1,0.6,1.7,1c0.1,0,0.1,0.1,0,0.1c-0.7,0.4-1.1,0.7-1.9,1.1
						c-0.1,0-0.2,0-0.2,0c-0.7-0.4-1-0.6-1.7-1c-0.1,0-0.1-0.1,0-0.1C444.5,595.5,444.9,595.3,445.7,594.8z"/>
					<path class="st15" d="M441.4,592.4c0.1,0,0.2,0,0.2,0c0.7,0.4,1,0.6,1.7,1c0.1,0,0.1,0.1,0,0.1c-0.8,0.4-1.1,0.7-1.9,1.1
						c-0.1,0-0.2,0-0.2,0c-0.7-0.4-1-0.6-1.7-1c-0.1,0-0.1-0.1,0-0.1C440.3,593,440.7,592.8,441.4,592.4z"/>
					<path class="st15" d="M447.8,596.1c0.1,0,0.2,0,0.2,0c0.7,0.4,1,0.6,1.7,1c0.1,0,0.1,0.1,0,0.1c-0.7,0.4-1.1,0.7-1.9,1.1
						c-0.1,0-0.2,0-0.2,0c-0.7-0.4-1-0.6-1.7-1c-0.1,0-0.1-0.1,0-0.1C446.7,596.7,447,596.5,447.8,596.1z"/>
					<path class="st15" d="M443.5,593.6c0.1,0,0.2,0,0.2,0c0.7,0.4,1,0.6,1.7,1c0.1,0,0.1,0.1,0,0.1c-0.7,0.4-1.1,0.7-1.9,1.1
						c-0.1,0-0.2,0-0.2,0c-0.7-0.4-1-0.6-1.7-1c-0.1,0-0.1-0.1,0-0.1C442.4,594.3,442.8,594,443.5,593.6z"/>
					<path class="st15" d="M476.7,603.9c0.7-0.4,1.1-0.6,1.8-1.1c0.1,0,0.2,0,0.2,0c0.7,0.4,1,0.6,1.7,1c0.1,0,0.1,0.1,0,0.1
						c-0.7,0.4-1.1,0.6-1.8,1.1c-0.1,0-0.2,0-0.2,0C477.7,604.6,477.4,604.4,476.7,603.9C476.6,604,476.6,603.9,476.7,603.9z"/>
					<path class="st15" d="M439.4,590.7c-0.7-0.4-1-0.6-1.7-1c-0.1,0-0.1-0.1,0-0.1c0.8-0.4,1.1-0.7,1.9-1.1c0.1,0,0.2,0,0.2,0
						c0.7,0.4,1,0.6,1.7,1c0.1,0,0.1,0.1,0,0.1c-0.7,0.4-1.1,0.7-1.9,1.1C439.6,590.8,439.4,590.8,439.4,590.7z"/>
					<path class="st15" d="M443.6,593.2c-0.7-0.4-1-0.6-1.7-1c-0.1,0-0.1-0.1,0-0.1c0.8-0.4,1.1-0.7,1.9-1.1c0.1,0,0.2,0,0.2,0
						c0.7,0.4,1,0.6,1.7,1c0.1,0,0.1,0.1,0,0.1c-0.7,0.4-1.1,0.7-1.9,1.1C443.8,593.2,443.7,593.2,443.6,593.2z"/>
					<path class="st15" d="M441.5,592c-0.7-0.4-1-0.6-1.7-1c-0.1,0-0.1-0.1,0-0.1c0.8-0.4,1.1-0.7,1.9-1.1c0.1,0,0.2,0,0.2,0
						c0.7,0.4,1,0.6,1.7,1c0.1,0,0.1,0.1,0,0.1c-0.7,0.4-1.1,0.6-1.9,1.1C441.7,592,441.6,592,441.5,592z"/>
					<path class="st15" d="M442.9,587.7c-0.7,0.4-1.1,0.6-1.9,1.1c-0.1,0-0.2,0-0.2,0c-1-0.5-1.9-1.1-2.9-1.6c-0.1,0-0.1-0.1,0-0.1
						c0.7-0.4,1.1-0.6,1.9-1.1c0.1,0,0.2,0,0.2,0C441,586.5,441.9,587.1,442.9,587.7C443,587.6,443,587.7,442.9,587.7z"/>
					<path class="st15" d="M446.3,586.8c-0.7,0.4-1.1,0.6-1.9,1.1c-0.1,0-0.2,0-0.2,0c-1.3-0.7-2.5-1.5-3.8-2.2
						c-0.1,0-0.1-0.1,0-0.1c0.7-0.4,1.1-0.6,1.9-1.1c0.1,0,0.2,0,0.2,0C443.8,585.2,445,586,446.3,586.8
						C446.4,586.7,446.4,586.8,446.3,586.8z"/>
					<path class="st15" d="M450,596.9c-0.7-0.4-1-0.6-1.7-1c-0.1,0-0.1-0.1,0-0.1c0.7-0.4,1.1-0.7,1.9-1.1c0.1,0,0.2,0,0.2,0
						c0.7,0.4,1,0.6,1.7,1c0.1,0,0.1,0.1,0,0.1c-0.7,0.4-1.1,0.7-1.9,1.1H450z"/>
					<path class="st15" d="M445.7,594.4c-0.7-0.4-1-0.6-1.7-1c-0.1,0-0.1-0.1,0-0.1c0.7-0.4,1.1-0.7,1.9-1.1c0.1,0,0.2,0,0.2,0
						c0.7,0.4,1,0.6,1.7,1c0.1,0,0.1,0.1,0,0.1c-0.7,0.4-1.1,0.7-1.9,1.1C445.9,594.4,445.8,594.4,445.7,594.4z"/>
					<path class="st15" d="M474.3,605.2c0.7-0.4,1.1-0.6,1.8-1.1c0.1,0,0.2,0,0.2,0c0.7,0.4,1,0.6,1.7,1c0.1,0,0.1,0.1,0,0.1
						c-0.7,0.4-1.1,0.6-1.8,1.1c-0.1,0-0.2,0-0.2,0C475.3,605.9,475,605.7,474.3,605.2C474.3,605.3,474.3,605.3,474.3,605.2z"/>
					<path class="st15" d="M452.1,598.1c-0.7-0.4-1-0.6-1.7-1c-0.1,0-0.1-0.1,0-0.1c0.7-0.4,1.1-0.7,1.9-1.1c0.1,0,0.2,0,0.2,0
						c0.7,0.4,1,0.6,1.7,1c0.1,0,0.1,0.1,0,0.1c-0.7,0.4-1.1,0.7-1.9,1.1C452.3,598.1,452.2,598.1,452.1,598.1z"/>
					<path class="st15" d="M447.9,595.6c-0.7-0.4-1-0.6-1.7-1c-0.1,0-0.1-0.1,0-0.1c0.7-0.4,1.1-0.7,1.9-1.1c0.1,0,0.2,0,0.2,0
						c0.7,0.4,1,0.6,1.7,1c0.1,0,0.1,0.1,0,0.1c-0.7,0.4-1.1,0.7-1.9,1.1C448,595.7,447.9,595.7,447.9,595.6z"/>
					<path class="st15" d="M449.9,586.1c-0.7,0.4-1.1,0.6-1.9,1.1c-0.1,0-0.2,0-0.2,0c-1.7-1-3.3-1.9-5-2.9c-0.1,0-0.1-0.1,0-0.1
						c0.7-0.4,1.1-0.6,1.9-1.1c0.1,0,0.2,0,0.2,0C446.6,584.1,448.2,585,449.9,586.1C450,586,450,586.1,449.9,586.1z"/>
					<path class="st15" d="M479.1,602.5c0.7-0.4,1.1-0.6,1.8-1.1c0.1,0,0.2,0,0.2,0c0.7,0.4,1,0.6,1.7,1c0.1,0,0.1,0.1,0,0.1
						c-0.7,0.4-1.1,0.6-1.8,1.1c-0.1,0-0.2,0-0.2,0C480.1,603.2,479.8,603,479.1,602.5C479,602.6,479,602.5,479.1,602.5z"/>
					<path class="st15" d="M447.2,583.9c-0.1,0-0.2,0-0.2,0c-0.7-0.4-1-0.6-1.7-1c-0.1,0-0.1-0.1,0-0.1c0.7-0.4,1.1-0.6,1.9-1.1
						c0.1,0,0.2,0,0.2,0c0.7,0.4,1,0.6,1.7,1c0.1,0,0.1,0.1,0,0.1C448.3,583.3,447.9,583.5,447.2,583.9z"/>
					<path class="st15" d="M476.7,601.1c-0.1,0-0.2,0-0.2,0c-0.7-0.4-1-0.6-1.7-1c-0.1,0-0.1-0.1,0-0.1c0.7-0.4,1.1-0.6,1.8-1.1
						c0.1,0,0.2,0,0.2,0c0.7,0.4,1,0.6,1.7,1c0.1,0,0.1,0.1,0,0.1C477.8,600.4,477.4,600.6,476.7,601.1z"/>
					<path class="st15" d="M454.2,599.3c-0.7-0.4-1-0.6-1.7-1c-0.1,0-0.1-0.1,0-0.1c0.7-0.4,1.1-0.7,1.9-1.1c0.1,0,0.2,0,0.2,0
						c0.7,0.4,1,0.6,1.7,1c0.1,0,0.1,0.1,0,0.1c-0.7,0.4-1.1,0.7-1.9,1.1C454.4,599.3,454.3,599.3,454.2,599.3z"/>
					<path class="st15" d="M478.9,602.3c-0.1,0-0.2,0-0.2,0c-0.7-0.4-1-0.6-1.7-1c-0.1,0-0.1-0.1,0-0.1c0.7-0.4,1.1-0.6,1.8-1.1
						c0.1,0,0.2,0,0.2,0c0.7,0.4,1,0.6,1.7,1c0.1,0,0.1,0.1,0,0.1C480,601.7,479.6,601.9,478.9,602.3z"/>
					<path class="st15" d="M470.3,597.4c-0.1,0-0.2,0-0.2,0c-6.8-4-13.7-8-20.5-11.9c-0.1,0-0.1-0.1,0-0.1c0.8-0.4,1.1-0.6,1.9-1.1
						c0.1,0,0.2,0,0.2,0c6.8,4,13.7,7.9,20.5,11.9c0.1,0,0.1,0.1,0,0.1C471.4,596.7,471,596.9,470.3,597.4z"/>
					<path class="st15" d="M474.6,599.8c-0.1,0-0.2,0-0.2,0c-0.7-0.4-1-0.6-1.7-1c-0.1,0-0.1-0.1,0-0.1c0.7-0.4,1.1-0.7,1.8-1.1
						c0.1,0,0.2,0,0.2,0c0.7,0.4,1,0.6,1.7,1c0.1,0,0.1,0.1,0,0.1C475.7,599.2,475.3,599.4,474.6,599.8z"/>
					<path class="st15" d="M449.3,585.2c-0.1,0-0.2,0-0.2,0c-0.7-0.4-1-0.6-1.7-1c-0.1,0-0.1-0.1,0-0.1c0.7-0.4,1.1-0.6,1.9-1.1
						c0.1,0,0.2,0,0.2,0c0.7,0.4,1,0.6,1.7,1c0.1,0,0.1,0.1,0,0.1C450.4,584.5,450,584.7,449.3,585.2z"/>
					<path class="st15" d="M472.4,598.6c-0.1,0-0.2,0-0.2,0c-0.7-0.4-1-0.6-1.7-1c-0.1,0-0.1-0.1,0-0.1c0.7-0.4,1.1-0.6,1.8-1.1
						c0.1,0,0.2,0,0.2,0c0.7,0.4,1,0.6,1.7,1c0.1,0,0.1,0.1,0,0.1C473.5,597.9,473.2,598.2,472.4,598.6z"/>
				</g>
			</g>
			<path class="st2" d="M476.4,588.9c-0.8-1.2-1.6-0.6-2.6,0.1c-1,0.7-2.2,1.5-3.5,1.5c-1.1,0-2.1-0.6-3.2-0.9
				c-0.9-0.2-1.8,0.1-1.8,0.1c-1.4,1.7-0.4,2.2-0.4,2.2s-3.7,1.7-4.3,1.8c-1,0.1-1.1,1.4-0.4,1.8c-0.1,0-0.3,0.1-0.4,0.1
				c-1.2,0.1-1.1,2,0.1,1.9c0.3,0,0.6-0.1,0.9-0.2c-0.6,0.5-0.4,1.8,0.6,1.6c0.1,0,0.2,0,0.3,0c0.1,0,0.2,0,0.4-0.1
				c0.1,0,0.1,0,0.2,0c0.1,0.5,0.5,1,1.2,0.9c2.7-0.5,7-0.7,8.6-3.7c1.6-0.7,3.1-1.6,4.4-2.9C477.8,591.8,477.3,590.3,476.4,588.9z"
				/>
			<path class="st18" d="M497.2,537.2c-0.2-0.9-0.6-1.8-0.9-2.6c-1.6-3.6-6.9-3.1-7.8,0.7c-2.5,10.1-0.8,24.9-0.7,35.3
				c-5.9,8.2-16.7,17.9-16.7,17.9c0.9,3.2,2,4.6,4.1,7.2c7.3-4.5,13.1-7.9,21.5-18.4c0.3-0.4,0.9-0.6,1-1.1
				C499.2,567.3,498.8,543.1,497.2,537.2z"/>
			<path class="st20" d="M464.7,580.4c1,0.6,1.8,1.8,1.8,2.8v32.7c0,1-0.8,1.3-1.8,0.8l-39.5-22.8c-1-0.6-1.8-1.8-1.8-2.8v-32.7
				c0-1,0.8-1.3,1.8-0.8L464.7,580.4z"/>
		</g>
		<g>
			<path class="st15" d="M473.5,519c0-4.1,0-8.2-0.9-12.2c-0.4-1.9-1-3.7-2.3-5.2c-1.2-1.4-3.2-2.4-5.1-1.9
				c-2.1,0.5-3.5,2.5-4.1,4.6c-0.5,2.1-0.4,4.3-0.7,6.4c-0.4,3.8-2,7.3-3,10.9c-0.9,3.2-1.2,7,1.1,9.4c2.1,2.2,5.4,2.2,8.4,2.2
				c2.2-0.1,4.8-0.3,6.1-2c1.4-1.8,1-4.5,2.3-6.4L473.5,519z"/>
			<g>
				<path class="st25" d="M472.8,523.8v8c0,0-6.4,3.5-1.3,5.9s10.7-1.6,10.9-5.6c0.3-4,0-10.9,0-10.9L472.8,523.8z"/>
				<path class="st2" d="M463.7,500.1c0,0-1.9,13.6,0,20c2.6,8.7,15.2,10.7,20.8,2.7c5.6-8,7.1-10.3,7.1-10.3l-3.4-5.7
					c0,0,1.3-14.4-10.7-14.6C465.6,491.8,463.7,500.1,463.7,500.1z"/>
			</g>
			<path class="st15" d="M480.2,506.9c-3.3,0.9-6.3,2.7-11.3,3.3c-4.1,0.5-7.9,1.6-8.3-0.6c-1.6-10.6,3.6-18.6,14.5-19.8
				c6-0.7,12.2,0.4,15.5,6c5,8.6,4.7,20.2,6.4,29.7c0.3,1.6,0.6,3.3,0.1,4.8c-0.6,2-2.4,3.5-4.3,4.4c-2.3,1.1-4.9,1.5-7.3,0.7
				c-2.4-0.7-4.5-2.8-4.8-5.2c-0.3-2,0.5-4.1,1.5-5.9c2.2-3.7,5.6-6.6,6.9-10.7c0.5-1.6,0.5-3.6-0.9-4.5s-3.4-0.1-4.2,1.4
				c-0.4,0.7-0.6,1.5-0.8,2.3c-0.2,1,0.3,2.2-0.8,2.8C481.6,516.1,480.3,509.6,480.2,506.9z"/>
		</g>
	</g>
	<g>
		<path class="st2" d="M476.3,694.8c0,0,0.8-3.8-7.4-9.9c-7.3-5.4-8.6,1.5-6.1,5.6c2.6,4.1,0.3,4.5,6.6,9.5
			C469.4,700,477.4,703.5,476.3,694.8z"/>
		<g>
			<g>
				<path class="st15" d="M519.4,861.4c0.1,2.4,1.3,4.5,2.9,6.3c2.7,3.1,6.3,5.3,10.1,6.8l0.5,0.2c5.5,2.1,10.6-4,7.5-9
					c-0.1-0.1-0.1-0.2-0.2-0.3c-3.5-5.5-10.2-7-14.5-7.4C523.7,857.8,519.3,859.2,519.4,861.4z"/>
				<path class="st15" d="M492.1,874.2c0,0.4,0.2,0.8,0.4,1.2c0.9,1.5,2.4,2.5,3.9,3.3c3.5,1.9,7.7,2.8,12,3.1h0.5
					c6.1,0.3,10.2-6.2,5.9-9.6c-0.1-0.1-0.1-0.1-0.2-0.2c-4.8-3.7-12.1-3.2-16.6-2.4C496,870,491.9,871.7,492.1,874.2z"/>
				<path class="st2" d="M500.2,825.6l2.7,47.6c0.1,1.3,0.9,2.5,2.2,3c1.6,0.6,4.1,1.2,7,0.2c1.7-0.5,2.9-2.1,2.9-3.9v-46.9
					L500.2,825.6L500.2,825.6z"/>
				<path class="st2" d="M524.3,825.6l4,39.6c0.2,1.5,1.2,2.8,2.7,3.3c1.8,0.6,4.3,1.2,6.7,0.7c1.7-0.3,2.9-1.8,2.9-3.4v-39.5
					L524.3,825.6z"/>
			</g>
			<path class="st6" d="M534.8,751.8l-31.9-2.1c0,0-3.7-1.3-4.9,11.3c-1.3,12.6-4.1,62.7-4.1,68.6c0,0,21.8,13,50.3,2.1
				c0,0,0-59.4,0-66.9C544.3,757.2,534.8,751.8,534.8,751.8z"/>
		</g>
		<g>
			<path class="st16" d="M519.2,693.8c0,0-16.7,4.2-19,21.5c-2.2,17.3,2,31.9-4.4,46.3c0,0,23.5,10.6,50.3-3.4
				c0,0,3.3-52.2-3.4-58.3S519.2,693.8,519.2,693.8z"/>
			<path class="st18" d="M505.3,705c-3.1,6.6-7.2,14.1-10.9,17.5c0,0-12.9-21.7-16.2-29.6l-9.1,8.6c0,0,13.4,37.8,24.1,39.7
				c9.3,1.7,29.6-9.9,22.8-35.5C514.6,700.8,507.5,700.3,505.3,705z"/>
		</g>
		<g>
			<path class="st2" d="M506.8,669.8c0,0-3.4,8.1,0,16.1c2.4,5.8,16.8,9,16.8,9l9.1-23.1l-8.1-8.6L506.8,669.8z"/>
			<path class="st15" d="M507.5,672.8c-1.9-1.7-2.9-4.1-3-6.6c-0.7-12.5,16.1-14.4,24.9-11.7c4.8,1.5,8.6,5.1,9,10.1
				c0.3,3.4-0.4,7.5,0.8,10.7c1.3,3.5,5,6.7,7.7,9.2c3.2,3,6.5,6,8.9,9.7c5.7,8.8,2.6,18-6.7,22c-3.4,1.5-5.4,4.1-7.1,7.3
				c-2.2,4.2-6.6,6.3-11.2,4.5c-5.6-2.2-5.4-7.6-7-12.4c-1.6-4.8-5-5.3-8-8.9c-5.1-6.1-8.7-21.7,0.8-26c8.2-3.7,3.7-8.3,1.3-6.9
				c-2.3,1.4-3.2,4.3-3.8,2.5C512.8,672.5,511.1,676,507.5,672.8z"/>
		</g>
	</g>
	<g>
		<g>
			<path class="st2" d="M206.9,481.2c0,0-2.8-4,4-15.2c5.9-9.8,10.8-2.4,9.8,3.7s1.8,5.4-3.2,14.3
				C217.5,483.9,209.9,491.9,206.9,481.2z"/>
			<path class="st4" d="M182.5,535.9c-3.4,7.8,6,14.9,12.4,9.4c5.4-4.7,11-11.9,14.6-23.3c9.3-29.5,9.8-37.6,9.8-37.6l-14.2-3.7
				c0,0-5.7,18.9-10.6,33.6C191,524.3,186.4,526.9,182.5,535.9z"/>
		</g>
		<g>
			<polygon class="st2" points="229.9,721.5 229.9,711.2 217.6,710 217.6,721.5 220.3,726.5 			"/>
			<polygon class="st2" points="199,702.3 199,697 187,697 187.5,710.3 190.7,714 196.8,711.2 199,707.9 			"/>
			<path class="st15" d="M217.6,721.5c0,0,2.7,4.8,12.3,0c0,0,6.9,5.3,15.4,6.9c8.5,1.6,4.3,7.7-4.5,7.2s-13.3,0.3-21-1.1
				C212,733.2,216.1,726.5,217.6,721.5z"/>
			<path class="st15" d="M187.5,710.3c0,0,6.1,4.3,11.5-4.8v-3.2c0,0,13.8-3,11.2,4.5s-7.1,4-11.1,9.1s-12.6,7.2-13.4,1.5
				C184.8,711.6,187.5,710.3,187.5,710.3z"/>
			<path class="st10" d="M229.1,607.2c0,0,6.4,40.5,4.8,53.8c-1.6,13.3-2.3,53.3-2.3,53.3s-6.3,6.9-16.9,0c0,0,1.1-47.4,1.6-54.9
				s-4.8-27.7-7.5-32.5s-5.3,1.1-5.3,5.3c0,4.3,0.5,22.9,0,32s-2.7,35.2-2.7,35.2s-8.4,9.3-15.3,6.1c0,0,1.5-55.7-1.2-67.4
				s-4.8-28.8-2.7-39.4C181.7,598.7,226.4,608.8,229.1,607.2z"/>
		</g>
		<path class="st6" d="M180.1,602.2c0,0,3.8-35.2,0-54.3c-3.8-19.2,13.3-24.7,28.9-16.3c25.1,13.6,21.5,24.3,21.5,76.2
			c0,0-10.6,12-27.2,5.6C186.8,607,180.1,602.2,180.1,602.2z"/>
		<g>
			<path class="st2" d="M279.9,531.7c0,0,1-4.8,13.8-7.5c11.2-2.3,9.1,6.3,4,9.6s-2.7,5-12.6,7.4
				C285.1,541.3,274.1,541.2,279.9,531.7z"/>
			<path class="st4" d="M223.2,551.2c-8,2.8-6.9,14.5,1.5,15.5c7.1,0.8,16.2-0.1,27-5.2c28-13.3,34.3-18.5,34.3-18.5l-7-12.9
				c0,0-17.7,8.7-31.8,15.1C237.5,549.5,232.4,547.9,223.2,551.2z"/>
		</g>
		<g>
			<path class="st0" d="M209.9,528.3v9.2c0,0-10.6,4-12.4-3.4v-14l12.4,4.4V528.3z"/>
			<path class="st2" d="M219.8,501.6c0,0-1.4,8,0.6,15.7c2.3,8.4-8.9,13.6-16.1,11.1c-7.2-2.5-14.4-10-12.8-19.3
				C193.2,499.7,207.9,488,219.8,501.6z"/>
			<path class="st15" d="M188.8,505.6c0.4,12.4,0.8,20.8,13.5,23.8c16.8,3.9,19.3-4.8,19.3-10.5c0-3.3-1.9-5.5-1.9-5.5
				c-1.7,1.6-2.9,2-4.4,0.7l-1.5-7.5c0,0,2,0.9,7.6-4.4s1.5-14.8-10.8-14s-14.6,7.3-14.6,7.3S188.4,493.2,188.8,505.6z M209.1,507.5
				c1.5-2.3,1.7,0.7,2.8,4.3c-0.8,0.4-1.4,0.7-1.4,0.7S206.9,510.7,209.1,507.5z"/>
		</g>
	</g>
	<g>
		<path class="st17" d="M307.7,524.8l55.9-31.5c0.7-0.4,1.4-0.5,2-0.3c0.1,0,0.1,0,0.2,0.1c0.1,0,0.1,0,0.2,0.1c0.1,0,0.1,0,0.2,0.1
			c0.1,0,0.1,0,0.2,0.1c0.1,0,0.1,0,0.2,0.1c0.1,0,0.1,0,0.2,0.1c0.1,0,0.1,0,0.2,0.1c0.1,0,0.1,0,0.2,0.1c0.1,0,0.1,0,0.2,0.1
			c0.1,0,0.1,0,0.2,0.1c0.1,0,0.1,0,0.2,0.1c0.1,0,0.1,0,0.2,0.1c0.1,0,0.1,0,0.2,0.1c0.1,0,0.1,0,0.2,0.1c0.1,0,0.1,0,0.2,0.1
			c0.1,0,0.1,0,0.2,0.1c0.1,0,0.1,0,0.2,0.1c0.1,0,0.1,0,0.2,0.1c0.1,0,0.1,0,0.2,0.1c0.1,0,0.1,0,0.2,0.1c0.1,0,0.1,0,0.2,0.1
			c0.1,0,0.1,0,0.2,0.1c0.1,0,0.1,0,0.2,0.1c0.1,0,0.1,0,0.2,0.1c0.1,0,0.1,0,0.2,0.1c0.1,0,0.1,0,0.2,0.1c0.1,0,0.1,0,0.2,0.1
			c0.1,0,0.1,0,0.2,0.1c0.1,0,0.1,0,0.2,0.1c0.1,0,0.1,0,0.2,0.1c1.3,0.4,2.2,2.1,2.2,4.8v50.9c0,3.8-1.8,7.9-4,9.2l-8,4.7v15.6
			l-0.2-0.2v0.1l-0.2-0.2v0.1l-0.2-0.2v0.1l-0.2-0.2v0.1l-0.2-0.2v0.1l-0.2-0.2v0.1l-0.2-0.2v0.1l-0.2-0.2v0.1l-0.2-0.2v0.1
			l-0.2-0.2v0.1l-0.2-0.2v0.1l-0.2-0.2v0.1l-0.2-0.2v0.1l-0.2-0.2v0.1l-0.2-0.2v0.1l-0.2-0.2v0.1l-0.2-0.2v0.1l-0.2-0.2v0.1
			l-0.2-0.2v0.1l-0.2-0.2v0.1l-0.2-0.2v0.1l-0.2-0.2v0.1l-0.2-0.2v0.1l-0.2-0.2v0.1l-0.2-0.2v0.1l-0.2-0.2v0.1l-0.2-0.2v0.1
			l-0.2-0.2v0.1l-0.2-0.2v0.1l-0.2-0.2v0.1l-0.2-0.2v0.1l-6.6-5.9l-36.6,19.2c-0.7,0.4-1.4,0.5-2,0.3c-0.1,0-0.1,0-0.2-0.1
			c-0.1,0-0.1,0-0.2-0.1c-4-1.6-6.4-1.5-6.4-6.7V534C303.7,530.2,305.5,526.1,307.7,524.8z"/>
		<g>
			<path class="st26" d="M312.5,526.9l57.3-31.5c2.2-1.3,4,0.7,4,4.5v50.9c0,3.8-1.8,7.9-4,9.2l-8,4.7v15.6l-10.4-9.4l-38.9,20.6
				c-2.2,1.3-4-0.7-4-4.5v-50.9C308.5,532.3,310.3,528.2,312.5,526.9z"/>
			<g>
				<path class="st15" d="M357.5,534.4c0,2.9,1.4,4.5,3.1,3.5s3.1-4.2,3.1-7.1c0-2.9-1.4-4.5-3.1-3.5
					C358.9,528.3,357.5,531.5,357.5,534.4z"/>
				<path class="st15" d="M339.3,545.3c0,2.9,1.4,4.5,3.1,3.5s3.1-4.2,3.1-7.1c0-2.9-1.4-4.5-3.1-3.5
					C340.7,539.1,339.3,542.3,339.3,545.3z"/>
				<path class="st15" d="M321,556.1c0,2.9,1.4,4.5,3.1,3.5s3.1-4.2,3.1-7.1c0-2.9-1.4-4.5-3.1-3.5S321,553.2,321,556.1z"/>
			</g>
		</g>
	</g>
	<g>
		<path class="st17" d="M620.1,318.3l-55.9-31.5c-0.7-0.4-1.4-0.5-2-0.3c-0.1,0-0.1,0-0.2,0.1c-0.1,0-0.1,0-0.2,0.1
			c-0.1,0-0.1,0-0.2,0.1c-0.1,0-0.1,0-0.2,0.1c-0.1,0-0.1,0-0.2,0.1c-0.1,0-0.1,0-0.2,0.1c-0.1,0-0.1,0-0.2,0.1
			c-0.1,0-0.1,0-0.2,0.1c-0.1,0-0.1,0-0.2,0.1c-0.1,0-0.1,0-0.2,0.1c-0.1,0-0.1,0-0.2,0.1c-0.1,0-0.1,0-0.2,0.1
			c-0.1,0-0.1,0-0.2,0.1c-0.1,0-0.1,0-0.2,0.1c-0.1,0-0.1,0-0.2,0.1c-0.1,0-0.1,0-0.2,0.1c-0.1,0-0.1,0-0.2,0.1
			c-0.1,0-0.1,0-0.2,0.1c-0.1,0-0.1,0-0.2,0.1c-0.1,0-0.1,0-0.2,0.1c-0.1,0-0.1,0-0.2,0.1c-0.1,0-0.1,0-0.2,0.1
			c-0.1,0-0.1,0-0.2,0.1c-0.1,0-0.1,0-0.2,0.1c-0.1,0-0.1,0-0.2,0.1c-0.1,0-0.1,0-0.2,0.1c-0.1,0-0.1,0-0.2,0.1
			c-0.1,0-0.1,0-0.2,0.1c-0.1,0-0.1,0-0.2,0.1c-0.1,0-0.1,0-0.2,0.1c-1.3,0.4-2.2,2.1-2.2,4.8v50.9c0,3.8,1.8,7.9,4,9.2l8,4.7v15.6
			l0.2-0.2v0.1l0.2-0.2v0.1l0.2-0.2v0.1l0.2-0.2v0.1l0.2-0.2v0.1l0.2-0.2v0.1l0.2-0.2v0.1l0.2-0.2v0.1l0.2-0.2v0.1l0.2-0.2v0.1
			l0.2-0.2v0.1l0.2-0.2v0.1l0.2-0.2v0.1l0.2-0.2v0.1l0.2-0.2v0.1l0.2-0.2v0.1l0.2-0.2v0.1l0.2-0.2v0.1l0.2-0.2v0.1l0.2-0.2v0.1
			l0.2-0.2v0.1l0.2-0.2v0.1l0.2-0.2v0.1l0.2-0.2v0.1l0.2-0.2v0.1l0.2-0.2v0.1l0.2-0.2v0.1l0.2-0.2v0.1l0.2-0.2v0.1l0.2-0.2v0.1
			l0.2-0.2v0.1l6.6-5.9l36.6,19.2c0.7,0.4,1.4,0.5,2,0.3c0.1,0,0.1,0,0.2-0.1c0.1,0,0.1,0,0.2-0.1c4-1.6,6.4-1.5,6.4-6.7v-50.9
			C624.1,323.7,622.3,319.6,620.1,318.3z"/>
		<g>
			<path class="st26" d="M615.2,320.3l-57.3-31.5c-2.2-1.3-4,0.7-4,4.5v50.9c0,3.8,1.8,7.9,4,9.2l8,4.7v15.6l10.4-9.4l38.9,20.6
				c2.2,1.3,4-0.7,4-4.5v-50.9C619.2,325.8,617.4,321.6,615.2,320.3z"/>
			<g>
				<path class="st15" d="M570.2,327.9c0,2.9-1.4,4.5-3.1,3.5c-1.7-1-3.1-4.2-3.1-7.1s1.4-4.5,3.1-3.5S570.2,325,570.2,327.9z"/>
				<path class="st15" d="M588.5,338.7c0,2.9-1.4,4.5-3.1,3.5c-1.7-1-3.1-4.2-3.1-7.1s1.4-4.5,3.1-3.5S588.5,335.8,588.5,338.7z"/>
				<path class="st15" d="M606.7,349.6c0,2.9-1.4,4.5-3.1,3.5c-1.7-1-3.1-4.2-3.1-7.1s1.4-4.5,3.1-3.5
					C605.4,343.4,606.7,346.6,606.7,349.6z"/>
			</g>
		</g>
	</g>
	<g>
		<g>
			<path class="st1" d="M606.1,766.6L606.1,766.6v-5.9h9l156.7-91.1c1.3-0.7,3.2-0.8,4.3-0.2l100.6,58.1h9.1v5.9l0,0
				c0,0.5-0.3,1-1,1.5l-164.7,95.7c-1.3,0.7-3.2,0.8-4.3,0.2l-109-62.9C606.3,767.5,606,767,606.1,766.6z"/>
			<path class="st0" d="M607.1,759.4c-1.3,0.7-1.4,1.9-0.3,2.5l109,62.9c1.1,0.6,3.1,0.6,4.3-0.2l164.7-95.7
				c1.3-0.7,1.4-1.9,0.3-2.5l-109-62.9c-1.1-0.6-3.1-0.6-4.3,0.2L607.1,759.4z"/>
			<polygon class="st11" points="612.5,760.6 717.9,821.5 867.8,734.3 762.4,673.5 			"/>
			<path class="st15" d="M797.9,692.4c-1.2,0.7-1.3,1.7-0.3,2.3l33.5,19.3c1,0.6,2.8,0.5,4-0.2l10.2-5.9c1.2-0.7,1.3-1.7,0.3-2.3
				l-33.5-19.3c-1-0.6-2.8-0.5-4,0.2L797.9,692.4z"/>
			<polygon class="st11" points="810.7,686.8 812,687.5 811.4,688.7 809.4,689.1 808.1,688.3 808.7,687.2 			"/>
			<polygon class="st11" points="843.4,705.6 844.7,706.4 844,707.5 842,707.9 840.7,707.2 841.4,706 			"/>
			<path class="st20" d="M780.6,692.8l55.6,32.2c5.7-5.6,6.4-12.5,1.4-15.3l0,0c-5.5-3.2-4.8-10.7,1.5-16.8
				c5.7-5.5,6.3-12.3,1.4-15.2c-4.9-2.8-13.5-0.7-19.2,4.9c-6.3,6.1-15.8,8.6-21.3,5.4C795,685,786.3,687.2,780.6,692.8z
				 M825.3,684.8c3.1-3,7.8-4.2,10.5-2.7c2.7,1.6,2.4,5.3-0.8,8.3c-3.1,3-7.8,4.2-10.5,2.7C821.8,691.5,822.2,687.8,825.3,684.8z"/>
		</g>
		<g>
			<g class="st27">
				<g>
					<path class="st18" d="M732.9,723.2c3.6,2.1,3.6,5.5,0,7.6l-12.6,7.3c-3.6,2.1-9.5,2.1-13.1,0l-12.7-7.3c-3.6-2.1-3.6-5.5,0-7.6
						l12.6-7.3c3.6-2.1,9.5-2.1,13.1,0L732.9,723.2z M716.8,736l12.6-7.3c1.6-0.9,1.6-2.5,0-3.4l-12.7-7.3c-1.6-0.9-4.3-0.9-5.9,0
						l-12.6,7.3c-1.6,0.9-1.6,2.5,0,3.4l12.7,7.3C712.5,737,715.1,737,716.8,736"/>
				</g>
				<g>
					<path class="st15" d="M819.9,745.4c1,0.6,1,1.5,0,2.1s-2.6,0.6-3.6,0l-48.6-28.1c-1-0.6-1-1.5,0-2.1s2.6-0.6,3.6,0L819.9,745.4
						z"/>
				</g>
				<g>
					<path class="st15" d="M810.2,751.1c1,0.6,1,1.5,0,2.1s-2.6,0.6-3.6,0L758,725.1c-1-0.6-1-1.5,0-2.1s2.6-0.6,3.6,0L810.2,751.1z
						"/>
				</g>
				<g>
					<path class="st18" d="M699.1,742.9c3.6,2.1,3.7,5.5,0,7.6l-12.6,7.3c-3.6,2.1-9.5,2.1-13.1,0l-12.7-7.3c-3.6-2.1-3.6-5.5,0-7.6
						l12.6-7.3c3.6-2.1,9.5-2.1,13.1,0L699.1,742.9z M682.9,755.7l12.6-7.3c1.6-0.9,1.6-2.5,0-3.4l-12.7-7.3c-1.6-0.9-4.3-0.9-5.9,0
						l-12.6,7.3c-1.6,0.9-1.6,2.5,0,3.4l12.7,7.3C678.6,756.6,681.3,756.6,682.9,755.7"/>
				</g>
				<g>
					<path class="st15" d="M795.7,759.5c1,0.6,1,1.5,0,2.1s-2.6,0.6-3.6,0l-37.6-21.7c-1-0.6-1-1.5,0-2.1s2.6-0.6,3.6,0L795.7,759.5
						z"/>
				</g>
				<g>
					<path class="st15" d="M786,765.1c1,0.6,1,1.5,0,2.1s-2.6,0.6-3.6,0l-48.6-28.1c-1-0.6-1-1.5,0-2.1s2.6-0.6,3.6,0L786,765.1z"/>
				</g>
				<g>
					<path class="st15" d="M776.3,770.8c1,0.6,1,1.5,0,2.1s-2.6,0.6-3.6,0l-48.6-28.1c-1-0.6-1-1.5,0-2.1s2.6-0.6,3.6,0L776.3,770.8
						z"/>
				</g>
				<g>
					<path class="st15" d="M761.9,779.1c1,0.6,1,1.5,0,2.1s-2.6,0.6-3.6,0l-37.6-21.7c-1-0.6-1-1.5,0-2.1s2.6-0.6,3.6,0L761.9,779.1
						z"/>
				</g>
				<g>
					<path class="st15" d="M752.1,784.8c1,0.6,1,1.5,0,2.1s-2.6,0.6-3.6,0L700,758.8c-1-0.6-1-1.5,0-2.1s2.6-0.6,3.6,0L752.1,784.8z
						"/>
				</g>
				<g>
					<path class="st15" d="M742.4,790.5c1,0.6,1,1.5,0,2.1s-2.6,0.6-3.6,0l-48.6-28.1c-1-0.6-1-1.5,0-2.1s2.6-0.6,3.6,0L742.4,790.5
						z"/>
				</g>
			</g>
			<g>
				<path class="st6" d="M725.8,727.6c0.4,0.2,0.7,0.5,0.7,0.9c0.2,0.9-1,1.6-2.5,1.6l-17.2,0.1c-0.7,0-1.3-0.2-1.7-0.4
					c-0.4-0.3-0.7-0.6-0.7-1v-5.3c0-0.9,1.3-1.6,2.8-1.5c0.6,0,1.1,0.2,1.5,0.4c0.5,0.3,0.8,0.7,0.8,1.1v3.7l14.4-0.1
					C724.6,727.1,725.3,727.3,725.8,727.6z"/>
			</g>
			<g class="st27">
				<g>
					<path class="st18" d="M766.8,703.5c3.6,2.1,3.6,5.5,0,7.6l-12.6,7.3c-3.6,2.1-9.5,2.1-13.1,0l-12.7-7.3c-3.6-2.1-3.6-5.5,0-7.6
						l12.6-7.3c3.6-2.1,9.5-2.1,13.1,0L766.8,703.5z M750.6,716.3l12.6-7.3c1.6-0.9,1.6-2.5,0-3.4l-12.7-7.3c-1.6-0.9-4.3-0.9-5.9,0
						l-12.6,7.3c-1.6,0.9-1.6,2.5,0,3.4l12.7,7.3C746.4,717.3,749,717.3,750.6,716.3"/>
				</g>
				<g>
					<path class="st6" d="M759.6,707.9c0.4,0.2,0.7,0.5,0.7,0.9c0.2,0.9-1,1.6-2.5,1.6l-17.2,0.1c-0.7,0-1.3-0.2-1.7-0.4
						c-0.4-0.3-0.7-0.6-0.7-1v-5.3c0-0.9,1.3-1.6,2.8-1.5c0.6,0,1.1,0.2,1.5,0.4c0.5,0.3,0.8,0.7,0.8,1.1v3.7l14.4-0.1
						C758.4,707.5,759.1,707.6,759.6,707.9z"/>
				</g>
			</g>
			<g>
				<path class="st15" d="M829.6,739.8c1,0.6,1,1.5,0,2.1s-2.6,0.6-3.6,0l-37.6-21.7c-1-0.6-1-1.5,0-2.1s2.6-0.6,3.6,0L829.6,739.8z
					"/>
			</g>
			<g>
				<path class="st6" d="M691.9,747.3c0.4,0.2,0.7,0.5,0.7,0.9c0.2,0.9-1,1.6-2.5,1.6l-17.2,0.1c-0.7,0-1.3-0.2-1.7-0.4
					c-0.4-0.3-0.7-0.6-0.7-1v-5.3c0-0.9,1.3-1.6,2.8-1.5c0.6,0,1.1,0.2,1.5,0.4c0.5,0.3,0.8,0.7,0.8,1.1v3.7l14.4-0.1
					C690.7,746.8,691.4,747,691.9,747.3z"/>
			</g>
		</g>
	</g>
	<g>
		<g>
			<path class="st17" d="M391.6,273.2c0.1-0.1,0.2-0.1,0.4-0.2c1.7-10.7,9.1-22.4,18.1-27.6c2.6-1.5,5-2.3,7.2-2.5
				c1.3-4.4,3.2-9,5.8-13.4c5.2-9,12.1-16,19-20s13.8-4.9,19-1.9l9.4,5.5c2.3,1.3,4.1,3.3,5.4,5.8c2.5-0.4,4.8,0,6.6,1.1l9.4,5.5
				l0,0c3.3,1.9,5.4,6,5.4,11.9c0,11.2-7.5,24.7-17,31.2l-79.2,45.7c-4.6,2.6-8.6,2.7-11.5,0.7c0.2,0.1,0.3,0.2,0.5,0.3l-9.4-5.5
				c-2.8-1.6-4.5-5-4.5-9.9C376.2,290,383.1,278.1,391.6,273.2z"/>
			<path class="st26" d="M451.5,215c-6.9,4-13.7,10.9-19,20c-2.6,4.5-4.5,9-5.8,13.4c-2.2,0.2-4.7,1-7.2,2.5
				c-9,5.2-16.4,16.8-18.1,27.6c-0.1,0.1-0.2,0.1-0.4,0.2c-8.5,4.9-15.4,16.9-15.4,26.6c0,9.8,7,13.7,15.5,8.8l79.2-45.7
				c9.6-6.4,17.1-20,17-31.2c0-11.7-8.3-16.5-18.6-10.6c-0.2,0.1-0.3,0.2-0.5,0.3c-0.7-6.3-3.2-11.4-7.7-13.9
				C465.3,210.1,458.4,211,451.5,215z"/>
		</g>
		<g>
			<path class="st17" d="M680.7,219c-0.1,0-0.2-0.1-0.2-0.1c-1.1-6.8-5.8-14.2-11.5-17.4c-1.6-0.9-3.2-1.4-4.6-1.6
				c-0.8-2.8-2-5.7-3.7-8.5c-3.3-5.7-7.7-10.1-12-12.7c-4.3-2.5-8.7-3.1-12-1.2l-6,3.5c-1.5,0.8-2.6,2.1-3.4,3.6
				c-1.6-0.2-3,0-4.2,0.7l-6,3.5l0,0c-2.1,1.2-3.4,3.8-3.4,7.5c0,7.1,4.7,15.6,10.8,19.7l50.1,28.9c2.9,1.7,5.5,1.7,7.3,0.5
				c-0.1,0.1-0.2,0.2-0.3,0.2l6-3.5c1.8-1,2.8-3.2,2.9-6.3C690.4,229.7,686.1,222.1,680.7,219z"/>
			<path class="st26" d="M642.8,182.2c4.3,2.5,8.7,6.9,12,12.7c1.6,2.8,2.9,5.7,3.7,8.5c1.4,0.1,3,0.6,4.6,1.6
				c5.7,3.3,10.4,10.7,11.5,17.4c0.1,0,0.2,0.1,0.2,0.1c5.4,3.1,9.8,10.7,9.7,16.9c0,6.2-4.4,8.7-9.8,5.6l-50.2-29
				c-6-4.1-10.8-12.6-10.8-19.7c0-7.4,5.3-10.4,11.8-6.7c0.1,0.1,0.2,0.1,0.3,0.2c0.4-4,2.1-7.2,4.9-8.8
				C634.1,179.1,638.4,179.7,642.8,182.2z"/>
		</g>
	</g>
</g>
</svg>
