<svg id="Layer_1" data-name="Layer 1" xmlns="http://www.w3.org/2000/svg" xmlns:xlink="http://www.w3.org/1999/xlink" viewBox="0 0 876.9289 1710.00124"><defs><clipPath id="clip-path" transform="translate(186.39698 125.25795)"><rect x="1.68085" y="1.25532" width="717.50646" height="1599.14574" rx="69.62498" style="fill:none"/></clipPath></defs><polygon points="191.677 1707.959 876.929 1710.001 876.929 1459.846 191.677 1457.804 191.677 1707.959" style="fill:none"/><g style="clip-path:url(#clip-path)"><path d="M-70.67793,261.14573c-55.46238-18.1413-103.76974-63.82234-113.98512-120.86858S-159.00843,18.612-102.04417,5.84924C-75.10968-.18541-45.96006,4.85005-20.25428-5.15348c48.47812-18.86591,64.5719-81.70629,109.29775-108.1667,43.09352-25.49437,102.533-7.70975,135.021,30.22408C256.55275-45.162,266.31318,7.41481,264.67387,57.16722c-2.40837,73.09491-33.17066,152.113-99.771,183.45715-56.12283,26.41328-175.10278,34.58581-235.58085,20.52136" transform="translate(186.39698 125.25795)" style="fill:#a8ceee"/></g></svg>