<?xml version="1.0" encoding="utf-8"?>
<!-- Generator: Adobe Illustrator 24.1.3, SVG Export Plug-In . SVG Version: 6.00 Build 0)  -->
<svg version="1.1" id="Layer_1" xmlns="http://www.w3.org/2000/svg" xmlns:xlink="http://www.w3.org/1999/xlink" x="0px" y="0px"
	 viewBox="0 0 1080 1080" style="enable-background:new 0 0 1080 1080;" xml:space="preserve">
<style type="text/css">
	.st0{fill:#010101;}
	.st1{fill:#F1AC2F;}
	.st2{fill:#71BBDB;}
	.st3{fill:#F2C87F;}
	.st4{clip-path:url(#SVGID_2_);}
	.st5{fill:#FFFFFF;}
	.st6{clip-path:url(#SVGID_4_);}
</style>
<g id="communicate1">
	<g>
		<g>
			<path class="st0" d="M864.6,637.7c-0.3,0-0.5,0-0.8-0.1c-1.5-0.3-2.7-1.2-3.4-2.8c-0.8-1.9-0.5-4.3,0.7-5.8
				c0.9-1.8,3.2-3.6,5.6-4.7c-0.5-0.6-1.1-1.1-1.8-1.4c-1.7-0.7-4.6-0.8-6.9,0.3c-1.2,0.6-2,1.3-2.3,2.3c-0.1,0.3-0.4,0.5-0.7,0.4
				s-0.5-0.4-0.4-0.7c0.4-1.3,1.4-2.3,2.9-3c2.3-1.1,5.6-1.2,7.9-0.3c1,0.4,1.9,1.1,2.5,2.1c0.4-0.1,0.8-0.3,1.3-0.3
				c2.5-0.8,4.7-0.8,6.3,0.2c1.8,1,3.1,3.1,3.8,6.2c0.1,0.3-0.1,0.6-0.4,0.7c-0.3,0.1-0.6-0.1-0.7-0.4c-0.6-2.7-1.7-4.5-3.2-5.4
				c-1.4-0.8-3.2-0.8-5.5-0.1c-0.3,0.1-0.6,0.1-0.9,0.2c1.2,2.5,1.4,5.8,0.6,8.5C868.2,636.2,866.5,637.7,864.6,637.7z M867.3,625.4
				c-2.3,1-4.4,2.7-5.2,4.3c-0.9,1.3-1.2,3.2-0.6,4.7c0.3,0.8,1,1.8,2.5,2.1c2.5,0.5,3.6-2.2,3.9-3.3
				C868.6,630.7,868.4,627.5,867.3,625.4z"/>
		</g>
		<g>
			<path class="st0" d="M376.8,671.7c-2.9,0-5.6-1.1-7.6-3.3c-0.9-1-1.6-2.4-2-3.9c-1.5-0.1-3-0.7-4.3-1.5c-2.2-1.6-3.8-4.1-4.2-7
				c-0.4-3.6,0.8-5.8,2.7-8.7c0.2-0.3,0.5-0.3,0.8-0.2c0.3,0.2,0.3,0.5,0.2,0.8c-1.8,2.8-2.9,4.7-2.5,7.9c0.4,2.5,1.7,4.8,3.7,6.2
				c1,0.7,2.1,1.1,3.3,1.3c-0.2-1.4-0.2-2.9,0.1-4.2c0.6-2.5,2.1-4.3,4.3-5.3c1.4-0.6,2.8-0.4,3.8,0.4c1.2,1,1.7,2.7,1.4,4.5
				c-0.6,2.5-3.4,4.9-6.5,5.6c-0.5,0.1-1.1,0.2-1.6,0.2c0.4,1.2,0.9,2.2,1.7,3c1.9,2,4.5,3,7.3,2.9c2.9-0.1,5.6-1.5,7.4-3.8
				c0.2-0.3,0.6-0.3,0.8-0.1c0.3,0.2,0.3,0.6,0.1,0.8c-2,2.5-5,4.1-8.2,4.2C377.1,671.7,376.9,671.7,376.8,671.7z M372.9,654.6
				c-0.4,0-0.8,0.1-1.2,0.3c-2.4,1-3.3,3-3.6,4.5c-0.3,1.3-0.3,2.7,0,4c0.5,0,1.1-0.1,1.6-0.2c2.6-0.6,5.1-2.7,5.6-4.7
				c0.3-1.4-0.1-2.7-0.9-3.4C373.9,654.8,373.4,654.6,372.9,654.6z"/>
		</g>
		<g>
			<path class="st0" d="M381.5,335c-0.3,0-0.6-0.3-0.6-0.6c0-5,1.9-10,5.1-13.1c2.2-2.2,5-3.3,8-3.4c2.4-3.7,7.3-6,11.7-5.3
				c2.6,0.4,4.8,1.8,7,3.2c4,2.5,7.5,4.7,11.9,0c0.2-0.2,0.6-0.2,0.8,0c0.2,0.2,0.2,0.6,0,0.8c-5.1,5.4-9.3,2.8-13.4,0.2
				c-2.1-1.3-4.2-2.6-6.5-3c-3.6-0.6-7.9,1.2-10.1,4.2c4.7,0.5,7.1,3.4,7.8,6.2c0.6,2.6-0.1,5.1-1.8,6c-1,0.5-3,1-6-2
				c-2.7-2.7-3.4-6-2-9.1c-2.5,0.2-4.7,1.2-6.5,3c-2.9,2.9-4.7,7.6-4.7,12.3C382.1,334.7,381.9,335,381.5,335L381.5,335z
				 M394.7,319.1c0,0,0,0.1-0.1,0.1c-1.4,2.8-0.9,5.7,1.6,8.1c1.8,1.8,3.5,2.4,4.6,1.8c1.2-0.7,1.7-2.7,1.2-4.7
				C401.7,323.2,400.3,319.4,394.7,319.1z"/>
		</g>
		<g>
			<path class="st1" d="M864.5,499.7c-4.1,0-7.3-2.5-8.2-6.5c-0.8-3.6,0.4-5.9,1.5-7.3c1.6-2,4.2-3.1,6.9-3.1c3.8,0,6.9,2.2,8.5,5.8
				c0.7,1.7,0.6,3.7-0.3,5.6c-1,2.3-2.9,4.1-4.9,4.9C866.8,499.4,865.7,499.7,864.5,499.7z M864.7,483.9c-2.3,0-4.6,1-5.9,2.7
				c-1.4,1.7-1.8,3.9-1.3,6.3c0.7,3.4,3.5,5.5,7,5.5c1,0,2.1-0.2,3.1-0.6c1.7-0.6,3.4-2.2,4.2-4.2c0.7-1.7,0.8-3.4,0.3-4.7
				C870.8,485.8,868,483.9,864.7,483.9z"/>
		</g>
		<g>
			<path class="st2" d="M276.4,660.2c-4.1,0-7.3-2.5-8.2-6.5c-0.8-3.6,0.4-5.9,1.5-7.3c1.6-2,4.2-3.1,6.9-3.1c3.8,0,6.9,2.2,8.5,5.8
				c0.7,1.7,0.6,3.7-0.3,5.7c-1,2.3-2.9,4.1-4.9,4.9C278.8,660,277.6,660.2,276.4,660.2z M276.6,644.5c-2.3,0-4.6,1-5.9,2.7
				c-1.4,1.7-1.8,3.9-1.3,6.3c0.7,3.4,3.5,5.5,7,5.5c1,0,2.1-0.2,3.1-0.6c1.7-0.6,3.4-2.2,4.2-4.2c0.7-1.7,0.8-3.4,0.3-4.7
				C282.7,646.4,279.9,644.5,276.6,644.5z"/>
		</g>
		<g>
			<path class="st2" d="M851.6,579.1c-2.2,0-4.2-1.1-5.5-2.9l-11.8-17.3c-1-1.5-1.3-3.2-1-4.9s1.3-3.2,2.8-4.2l17.3-11.8
				c1.1-0.7,2.4-1.1,3.7-1.1c2.2,0,4.2,1.1,5.5,2.9l11.8,17.3c2,3,1.3,7.1-1.8,9.2l-17.3,11.8C854.2,578.7,852.9,579.1,851.6,579.1z
				 M857.1,538c-1.1,0-2.1,0.3-3,0.9l-17.3,11.8c-1.2,0.8-2,2-2.3,3.5c-0.3,1.4,0,2.9,0.8,4.1l11.8,17.3c1,1.5,2.7,2.4,4.5,2.4
				c1.1,0,2.1-0.3,3-0.9l17.3-11.8c2.5-1.7,3.1-5.1,1.4-7.5l-11.8-17.3C860.6,538.8,858.9,538,857.1,538z"/>
		</g>
		<g>
			<path class="st1" d="M334.9,731.7c-2.4,0-4.2-1.9-4.6-5l-3.4-24.1c-0.3-2,0.1-3.7,1.1-4.8c1.3-1.5,3.6-1.9,6.2-0.8l22.5,9.1
				c2.2,0.9,3.6,2.4,3.8,4.1c0.2,1.8-0.7,3.5-2.5,5l-19.1,15C337.6,731.1,336.2,731.7,334.9,731.7z M331.4,697.5c-1,0-1.9,0.4-2.5,1
				c-0.8,0.9-1,2.3-0.8,3.9l3.4,24.1c0.4,2.5,1.6,4,3.4,4c1,0,2.1-0.5,3.2-1.3l19.1-15c1.5-1.2,2.3-2.6,2.1-3.9
				c-0.2-1.3-1.3-2.4-3.1-3.2l-22.5-9.1C332.9,697.7,332.1,697.5,331.4,697.5z"/>
		</g>
		<g>
			<path class="st3" d="M517.6,329.5c-1.1,0-2.2-0.3-3.4-1L493,316.8c-2.1-1.2-3.3-2.8-3.3-4.5c0-1.8,1.1-3.4,3.1-4.7l20.8-12.6
				c1.2-0.7,2.4-1.1,3.5-1.1c2.7,0,4.5,2.2,4.5,5.5l0.5,24.3c0,1.9-0.5,3.5-1.5,4.5C519.9,329.1,518.8,329.5,517.6,329.5z
				 M517.1,295.1c-0.9,0-1.9,0.3-2.9,0.9l-20.8,12.6c-1.7,1-2.6,2.3-2.6,3.6c0,1.3,1,2.6,2.7,3.5l21.3,11.7c2,1.1,3.9,1.1,5-0.1
				c0.8-0.8,1.2-2.1,1.1-3.7l-0.5-24.3C520.4,296.8,519.1,295.1,517.1,295.1z"/>
		</g>
	</g>
	<g>
		<g>
			<path class="st0" d="M601.2,762.2L601.2,762.2c-48.6,0-90.8-3.7-118.8-10.3c-31.8-7.5-53.1-20.6-63-38.9
				c-8.4-15.4-8.8-34.4-1.2-56.3c0.3-0.8,0.6-1.7,0.9-2.6c6-17.4,17.1-49.7,70.2-114.1c38.6-46.8,88.1-72.6,139.4-72.6
				c18.9,0,37.8,3.5,56,10.4C730,495,768,522.5,794.4,557.5c22.2,29.5,36.1,63.9,39,97c3.2,35.8-7,65.2-26.5,76.9
				C771.3,752.7,678,762.2,601.2,762.2z M628.8,468.7c-51,0-100.2,25.6-138.5,72.2c-52.9,64.2-64,96.4-70,113.7
				c-0.3,0.9-0.6,1.8-0.9,2.6c-7.6,21.6-7.2,40.2,1.1,55.3c9.8,17.9,30.8,30.8,62.3,38.3c27.9,6.6,70,10.2,118.5,10.2l0,0
				c76.5,0,169.6-9.5,205-30.6c19.1-11.4,29.1-40.5,26-75.8c-5.1-57.2-46.8-137.5-147.9-175.7C666.3,472.1,647.6,468.7,628.8,468.7z
				"/>
		</g>
		<g>
			<g>
				<g>
					<defs>
						<path id="SVGID_1_" d="M218,465.8c-5.9,25.8-13.6,97.7,12.8,125.4c26.4,27.6,46.3,31.5,91.4,32.3s67.6,3.4,100.8,1.3
							c33.2-2.1,85-3.3,90.6-78.2c10-135.4-91.7-197.8-173.3-190.6C258.6,363.2,229.2,417.1,218,465.8z"/>
					</defs>
					<clipPath id="SVGID_2_">
						<use xlink:href="#SVGID_1_"  style="overflow:visible;"/>
					</clipPath>
					<g class="st4">
						<g>
							<path class="st5" d="M370.4,420.3c2.3,3.8,4.2,10.6,5.3,18.1c0.7,5.2,2.1,5.7,7.2,8.1c5.1,2.3,6.3,6.8,3.5,9.4
								c-3.9,3.6-3.9,1.6-4.5,5.7c-0.4,2.7,0.4,4.9-3.3,3.7c-1.4-0.5-4.4-2.2-4.8-1.9c-1.3,1-0.9,4.7,4,7.5c1.8,1,3.2,0.9,1.7,9
								c-1.4,7-9.9,8.1-18.3,6.5c-8.5-1.6-6.7,4.8-10,13.9s-3.8,14.2,0.8,18c4.6,3.8,8.3,22.2,7.8,26.6c-0.5,4.5-16.4,13.7-30-1.3
								c-7.3-10.2-15.6-29.8-15.6-29.8s8.6-12,8.4-23.6s-5.1-55.5,11-67.9C349.7,409.8,368.8,417.2,370.4,420.3z"/>
							<path class="st0" d="M346.4,552.4c-4.3,0-10.8-1.5-17.1-8.4c-7.3-10.2-15.6-29.8-15.7-30s-0.1-0.4,0.1-0.6
								c0.1-0.1,8.5-11.9,8.3-23.2c0-1.6-0.1-3.9-0.3-6.5c-0.8-16.5-2.6-51,11.5-61.9c7.6-5.9,15.5-7.1,20.8-7.1
								c8.6,0,15.8,3.1,16.9,5.3c2.3,3.7,4.2,10.4,5.4,18.3c0.7,4.8,1.8,5.3,6.6,7.5l0.3,0.1c3,1.4,4.9,3.5,5.2,5.9
								c0.3,1.7-0.3,3.3-1.6,4.5c-1.4,1.3-2.3,1.9-2.9,2.3c-1,0.7-1,0.7-1.3,3.1c-0.1,0.5-0.1,1-0.1,1.4c-0.1,1.9-0.3,4-3.9,2.8
								c-0.6-0.2-1.4-0.6-2.3-1c-0.7-0.3-1.7-0.8-2.2-0.9c-0.2,0.2-0.3,0.7-0.3,1.2c0.1,1.4,1.3,3.5,4.3,5.2
								c0.2,0.1,0.3,0.2,0.5,0.2c1.9,1,2.9,1.9,1.5,9.3c-1,4.9-5.4,7.7-12.5,7.7c-2,0-4.2-0.2-6.5-0.7c-0.8-0.2-1.6-0.2-2.2-0.2
								c-3.5,0-4.1,2.1-5.3,7c-0.5,2-1,4.2-1.9,6.7c-3.6,9.7-3.4,14,0.6,17.4c4.8,4,8.5,22.4,8,27.1
								C360,547.9,354,552.4,346.4,552.4z M314.8,513.8c1.1,2.5,8.7,20.1,15.4,29.4c6,6.6,12.1,8,16.2,8c7.1,0,12.5-4.2,12.8-6.4
								c0.5-4.3-3.2-22.5-7.6-26.1c-5.1-4.2-4.2-9.8-1-18.7c0.9-2.4,1.4-4.6,1.9-6.6c1.1-4.6,1.9-7.9,6.4-7.9c0.7,0,1.5,0.1,2.4,0.3
								c2.2,0.4,4.3,0.6,6.3,0.6c4.6,0,10.3-1.2,11.4-6.7c1.3-6.9,0.5-7.4-0.9-8.1c-0.2-0.1-0.3-0.2-0.5-0.3c-2.9-1.7-4.7-4-4.9-6.2
								c-0.1-1,0.2-1.8,0.8-2.3c0.5-0.4,1.4,0,3.3,0.9c0.8,0.4,1.6,0.8,2.1,0.9c0.6,0.2,1.1,0.3,1.5,0.3c0.7,0,0.8-0.3,0.9-2
								c0-0.5,0.1-1,0.1-1.5c0.4-2.7,0.5-3,1.9-3.9c0.6-0.4,1.5-1,2.8-2.2c1-0.9,1.4-2.1,1.2-3.4c-0.3-1.9-2-3.8-4.6-5l-0.3-0.1
								c-4.9-2.2-6.5-3-7.3-8.4c-1.1-7.7-3-14.2-5.2-17.8c-0.7-1.4-7-4.7-15.9-4.7c-5.1,0-12.8,1.2-20.1,6.8
								c-13.6,10.5-11.9,44.5-11,60.9c0.1,2.7,0.3,4.9,0.3,6.6C323.3,501,316.1,511.9,314.8,513.8z"/>
						</g>
						<path class="st0" d="M322.2,623.5c3,1.3,31,2.8,31,2.8s12.3-39.3,7.2-84.4c-10.2,8.9-21.7,6.8-33.2-2.6
							C334.5,561.4,331.1,606.9,322.2,623.5z"/>
						<path class="st0" d="M365.4,449c0.6,2,2,3.3,3.2,3c1.1-0.4,1.5-2.3,0.9-4.2c-0.6-2-2-3.3-3.2-3
							C365.2,445.1,364.7,447,365.4,449z"/>
						<g>
							<path class="st0" d="M367.3,445.7c-0.1,0-0.1,0-0.2,0c-0.3-0.1-0.5-0.4-0.4-0.7l1.1-3.6c0.1-0.3,0.4-0.5,0.7-0.4
								c0.3,0.1,0.5,0.4,0.4,0.7l-1.1,3.6C367.8,445.6,367.5,445.7,367.3,445.7z"/>
						</g>
						<path class="st2" d="M339,565.7c-3.3-24.2-14.1-40.2-23.7-55.1c-1.5-2.3-2.8-2-3.5-1.8c-4.6,0.9-9.7,3.1-8.4,5.9
							c0.3,0.6,0.7,1.2,1.2,1.9c-2,0.4-4.4,0.9-7.2,1.5c-10.6,2.3-17.2,6.5-23.8,13.1c-6.6,6.6-40.3,47.5-49.6,57.9
							c12.3,23.8,33.5,27.3,33.5,27.3s19.3-19.4,31.4-34.3c-0.4,3-1.9,30.6-6.2,41.5c7.5,4.4,28.4,4.1,40,3.7
							c1.9,1.7,9.3,0.2,9.3,0.2S342.4,590.8,339,565.7z"/>
						<path class="st0" d="M303.2,426.9c-5.6,2.1-11.8,7.2-15.1,29c-1.6,10.6-5.5,21.9-4.8,32.7c0.7,10.1,9.4,12.8,18.3,14.6
							c7.8,1.6,38.3,8.8,40.2-4.3c2.2-15.3-21.9-23-18.4-37.2c0.7-2.9,3.6-6.5,6.6-7.1c3.8-0.9,4.9,2.4,7.9,4.4
							c3.6,2.4,5.8,1,7.9-2.6c2.1-3.5,1.3-9,1-12.9c-0.4-5.1-1-6.9,3.4-8.4c6-2,11.1-6,5.3-12.8c7.7,9.1,11.5,7.7,17.7,3.7
							s6.5-7.7,4.1-14.5c-2.4-6.9-9.7-17.4-22.6-15.8s-11.6,5.1-27.1,8.3C312.1,407.1,302.2,411.7,303.2,426.9z"/>
						<g>
							<path class="st0" d="M360.9,438.8c-0.1,0-0.1,0-0.2,0c-0.3-0.1-0.5-0.4-0.4-0.8c0.4-1.2,2.8-7.1,8.2-8.2
								c0.3-0.1,0.6,0.1,0.7,0.5c0.1,0.3-0.1,0.6-0.5,0.7c-4.9,1-7,6.4-7.4,7.4C361.3,438.6,361.1,438.8,360.9,438.8z"/>
						</g>
						<g>
							<path class="st5" d="M322.4,626.6L322.4,626.6c-0.4,0-0.6-0.3-0.6-0.6c0-0.5,0.1-1.9,0.3-3.9c0.9-11.8,3.4-43.2,2.5-50.4
								c-0.9-7.5,1.1-9.4,4.2-12.2c0.4-0.4,0.8-0.7,1.2-1.1c-1.5-1-5.5-3.5-8.5-5.3c-3.1-1.9-3.8-4.5-5.7-11.5
								c-0.6-2.1-1.2-4.4-2-7.3c-2.5-8.8-6.1-13.1-8.5-16c-0.6-0.7-1.1-1.3-1.5-1.9c-0.2-0.3-0.1-0.6,0.1-0.8
								c0.3-0.2,0.6-0.1,0.8,0.1c0.4,0.6,0.9,1.2,1.5,1.8c2.4,3,6.1,7.4,8.7,16.4c0.8,2.9,1.5,5.4,2,7.3c1.8,6.6,2.4,9.1,5.2,10.8
								c3.8,2.3,9.1,5.7,9.2,5.7c0.1,0.1,0.2,0.3,0.3,0.4c0,0.2,0,0.4-0.2,0.5c-0.6,0.6-1.2,1.2-1.8,1.7c-3,2.8-4.7,4.3-3.8,11.2
								c0.9,7.3-1.5,38.8-2.5,50.6c-0.2,2-0.3,3.4-0.3,3.9C323,626.4,322.7,626.6,322.4,626.6z"/>
						</g>
						<path class="st2" d="M404.5,549.7l-4.5,13.2c0,0-10.6-19.3-17.4-27.8c-6.4-7.9-15.5-12.9-22.7-15.6
							c-4.9-8.1-11.8-9.3-11.8-9.3s-0.5,1.9,0.5,4.3c1,2.4,12,21.4,9.4,51.6c-2.5,30.2-11.3,60.2-11.3,60.2h6.6c0,0,0.1-0.2,0.1-0.5
							c5,0.6,15.1,1.7,15.4-0.6c0.4-3,6.2-26.8,9.6-34.2c10.2,18.9,19.7,22.8,33.4,17c9.8-4.1,17.9-37,18.9-50
							C430.8,557.8,404.5,549.7,404.5,549.7z"/>
						<g>
							<path class="st5" d="M353.2,626.8c-0.1,0-0.1,0-0.2,0c-0.3-0.1-0.5-0.4-0.4-0.7c0.1-0.4,13.2-43.2,15.1-51.4
								c1.9-8.4,1.9-9.4,0.6-11.9c-1.6-3.1-3-5.8-3-5.8c-0.1-0.3,0-0.6,0.2-0.8c1.4-0.9,5-3.7,4.4-6.1c-1.4-5.3-6.5-23-10.3-29.7
								l-0.1-0.2c-0.2-0.3-0.1-0.6,0.2-0.8c0.3-0.2,0.6-0.1,0.8,0.2l0.1,0.2c3.8,6.8,9.1,24.6,10.4,30c0.8,3.1-3.1,6.2-4.5,7.1
								c0.5,0.9,1.5,3,2.7,5.4c1.5,2.9,1.4,4.3-0.5,12.7c-1.9,8.2-15,51.1-15.1,51.5C353.7,626.7,353.5,626.8,353.2,626.8z"/>
						</g>
						<g>
							<path class="st0" d="M378.3,591.6c-0.1,0-0.2,0-0.2-0.1c-0.3-0.1-0.4-0.5-0.3-0.8c9.6-20.9,6-28.4,3.9-32.9
								c-0.4-0.8-0.7-1.5-0.9-2.1c-0.1-0.3,0.1-0.6,0.4-0.7c0.3-0.1,0.6,0.1,0.7,0.4c0.2,0.6,0.5,1.2,0.9,2
								c2.2,4.7,5.9,12.5-3.9,33.9C378.7,591.4,378.5,591.6,378.3,591.6z"/>
						</g>
						<g>
							<path class="st0" d="M403.4,571.5c-0.2,0-0.4-0.1-0.5-0.3c0,0-2.4-5-4.5-10c-0.1-0.3,0-0.6,0.3-0.8c0.3-0.1,0.6,0,0.8,0.3
								c2.1,5,4.4,9.9,4.5,10c0.1,0.3,0,0.6-0.3,0.8C403.6,571.4,403.5,571.5,403.4,571.5z"/>
						</g>
						<g>
							<path class="st5" d="M406.2,544.7c2.4-7.5,5.9-27.7,6.7-35.2c0.8-7.5-3.7-18,1.6-24.7c5.3-6.7,8.6-10,10-13.4
								c1.4-3.3,4.8-3.8,6.5-0.5c1.8,3.3-1,9.2-4.9,13.4c9.7-6.2,10.5-4,13.6-8.8c3-4.8,8.9-17.1,12.8-16.7c3.2-4.3,6.9-1.9,7.5,4
								c1.9-0.2,3.7,4.3,2.4,11c4.6,2.7,4.1,12.6-2.4,20.1s-19,12-21.7,18c-2.7,6.1-7.2,41.6-7.2,41.6L406.2,544.7z"/>
							<path class="st0" d="M431,554c-0.1,0-0.1,0-0.2,0l-24.9-8.8c-0.3-0.1-0.5-0.4-0.4-0.7c2.4-7.5,5.9-27.9,6.7-35.1
								c0.3-2.5-0.1-5.4-0.4-8.4c-0.7-5.9-1.4-12,2.2-16.6c1.6-2.1,3-3.8,4.3-5.3c2.8-3.4,4.7-5.7,5.7-7.9c0.8-2,2.3-3.1,4-3.1
								c1.5,0,2.8,0.9,3.6,2.6c1.6,3,0,7.5-2.8,11.3c2.5-1.4,4.3-2.2,5.5-2.8c2.3-1,3.2-1.4,4.8-4c0.6-1,1.4-2.4,2.3-3.9
								c4-7.1,7.6-12.9,10.7-13.1c1.4-1.8,2.8-2.2,3.7-2.2c2.3,0,4.1,2.4,4.6,6.2c0.4,0.1,0.8,0.3,1.3,0.9c1.2,1.4,2.2,5,1.2,10.4
								c1.5,1,2.5,2.8,2.8,5c0.8,4.9-1.3,11-5.4,15.7c-3.1,3.5-7.3,6.3-11.5,9c-4.5,3-8.7,5.7-10.1,8.8c-2.6,5.9-7.1,41.1-7.1,41.4
								c0,0.2-0.1,0.3-0.3,0.4C431.2,554,431.1,554,431,554z M406.9,544.3l23.7,8.3c0.7-5.2,4.6-35.4,7.1-41.1
								c1.5-3.4,5.9-6.3,10.6-9.3c4.1-2.7,8.2-5.4,11.2-8.8c3.9-4.4,5.9-10.2,5.2-14.8c-0.3-2.1-1.2-3.6-2.6-4.4
								c-0.2-0.1-0.3-0.4-0.3-0.6c0.9-4.9,0.2-8.5-0.9-9.8c-0.2-0.2-0.5-0.5-0.8-0.5s-0.7-0.2-0.7-0.5c-0.4-3.4-1.8-5.7-3.5-5.7
								c-1,0-2,0.7-2.9,2c-0.1,0.2-0.3,0.3-0.5,0.2l0,0c-2.8,0-7,7.5-9.9,12.5c-0.9,1.5-1.7,2.9-2.3,4c-1.8,2.9-2.9,3.4-5.4,4.4
								c-1.8,0.8-4.3,1.9-8.4,4.5c-0.3,0.2-0.6,0.1-0.8-0.1c-0.2-0.2-0.2-0.6,0-0.8c3.6-3.8,6.5-9.5,4.8-12.7c-0.7-1.3-1.6-2-2.6-2
								c-1.2,0-2.2,0.9-2.9,2.4c-1,2.4-2.9,4.7-5.8,8.2c-1.3,1.5-2.7,3.3-4.3,5.3c-3.3,4.2-2.6,10-1.9,15.7c0.4,3.1,0.7,6.1,0.4,8.7
								C412.7,516.6,409.3,536.3,406.9,544.3z"/>
						</g>
						<g>
							<path class="st0" d="M431.8,495.2c-0.3,0-0.5-0.2-0.6-0.5c-0.8-3.4-3.8-8.9-5.5-10c-0.3-0.2-0.3-0.5-0.2-0.8
								c0.2-0.3,0.5-0.3,0.8-0.2c2.1,1.4,5.2,7.3,6,10.7C432.4,494.7,432.2,495,431.8,495.2C431.9,495.2,431.9,495.2,431.8,495.2z"
								/>
						</g>
						<g>
							<path class="st0" d="M451.3,492c-0.2,0-0.4-0.1-0.5-0.3c-0.6-1.2-7.7-9.7-10.3-10.5c-0.3-0.1-0.5-0.4-0.4-0.7
								c0.1-0.3,0.4-0.5,0.7-0.4c3.1,1,10.4,9.8,11,11.1c0.1,0.3,0,0.6-0.3,0.8C451.5,492,451.4,492,451.3,492z"/>
						</g>
						<g>
							<path class="st0" d="M449.8,492.8c-0.2,0-0.4-0.1-0.5-0.3c-0.1-0.3,0-0.6,0.3-0.8c1.8-0.9,5.9-6.1,7-12
								c0.6-3,1.5-4.9,2.9-5.8c1.3-0.8,2.7-0.5,3.6-0.2c0.3,0.1,0.5,0.4,0.4,0.7c-0.1,0.3-0.4,0.5-0.7,0.4c-1.2-0.3-2-0.3-2.7,0.1
								c-1.1,0.7-1.8,2.3-2.3,5c-1.1,6.1-5.4,11.8-7.7,12.9C450,492.8,449.9,492.8,449.8,492.8z"/>
						</g>
						<g>
							<path class="st0" d="M447.8,487.6c-0.2,0-0.3-0.1-0.4-0.2c-0.2-0.2-0.2-0.6,0.1-0.8c3.5-3,4.9-7.4,6.2-14
								c1.2-6.1,3.5-9.4,6.9-10c0.3-0.1,0.6,0.2,0.7,0.5s-0.2,0.6-0.5,0.7c-2.8,0.5-4.8,3.6-5.9,9.1c-1.3,6.8-2.8,11.4-6.6,14.7
								C448,487.5,447.9,487.6,447.8,487.6z"/>
						</g>
						<g>
							<path class="st0" d="M444.1,483.4c-0.1,0-0.2,0-0.3-0.1c-0.3-0.2-0.3-0.6-0.1-0.8c1.7-2.5,3.9-9.5,5.6-15.1
								c1.3-4.2,2.4-7.9,3.2-9.4c0.2-0.3,0.5-0.4,0.8-0.2c0.3,0.2,0.4,0.5,0.2,0.8c-0.8,1.4-1.9,5.2-3.2,9.1c-1.9,6-4,12.9-5.8,15.5
								C444.5,483.3,444.3,483.4,444.1,483.4z"/>
						</g>
						<g>
							<path class="st0" d="M287.7,583.9c-0.1,0-0.3,0-0.4-0.1c-0.2-0.2-0.3-0.6-0.1-0.8c3.6-4.2,10.8-11.8,10.9-11.9
								c0.2-0.2,0.6-0.2,0.8,0c0.2,0.2,0.2,0.6,0,0.8c-0.1,0.1-7.3,7.7-10.8,11.9C288.1,583.8,287.9,583.9,287.7,583.9z"/>
						</g>
						<path class="st0" d="M405.1,542.8c-2.3,4.4-3.7,11.6-3.2,12.2c0.5,0.6,17.9,2.1,29.8,10.6c2.7,1.3,3.6-11.3,3.2-12.7
							C433.7,549,406.6,541.2,405.1,542.8z"/>
						<g>
							<path class="st5" d="M338.8,565.2c-0.1,0-0.3,0-0.4-0.1c-0.1,0-5.4-4.7-7.9-6.4c-0.3-0.2-0.3-0.5-0.2-0.8
								c0.2-0.3,0.5-0.3,0.8-0.2c2.6,1.7,7.8,6.3,8,6.4c0.2,0.2,0.3,0.6,0.1,0.8C339.1,565.1,338.9,565.2,338.8,565.2z"/>
						</g>
						<g>
							<path class="st5" d="M358.1,562.8c-0.2,0-0.3-0.1-0.4-0.2c-0.2-0.2-0.2-0.6,0-0.8c2.2-2.2,5.1-4,7-5.1
								c0.5-0.3,0.9-0.5,1.2-0.7c0.3-0.2,0.6-0.1,0.8,0.2c0.2,0.3,0.1,0.6-0.2,0.8c-0.3,0.2-0.7,0.5-1.2,0.7
								c-1.8,1.1-4.6,2.8-6.8,4.9C358.4,562.8,358.3,562.8,358.1,562.8z"/>
						</g>
						<path class="st1" d="M341.1,479.3c-0.6-5.8-5.2-11.7-10.6-8.3c-4.7,3-6.2,11.1-1.8,15c1.8,1.6,4.8,2.4,7.3,1.9
							C340.1,487.1,341.5,483.2,341.1,479.3z"/>
					</g>
				</g>
			</g>
			<g>
				<path class="st0" d="M396.8,626.2L396.8,626.2c-11.5,0-22.7-0.4-35.7-0.9c-11.2-0.4-23.8-0.9-38.9-1.2c-44-0.8-64.6-4-91.8-32.5
					c-25.4-26.7-19.7-96.3-12.9-125.9c15.4-67.4,56.7-104.5,122.7-110.3c4.2-0.4,8.6-0.6,12.9-0.6c43.7,0,87.5,19.1,117.3,51.2
					c22.9,24.6,49,69,43.8,140.6c-5.4,73.4-55.4,76.5-88.4,78.6l-2.7,0.2C414.2,625.9,405.8,626.2,396.8,626.2z M353,356
					c-4.3,0-8.6,0.2-12.8,0.6c-65.4,5.8-106.4,42.6-121.7,109.4c-6.7,29.4-12.5,98.5,12.6,124.8c26.9,28.2,47.3,31.3,91,32.1
					c15.1,0.3,27.7,0.8,38.9,1.2c13,0.5,24.2,0.9,35.6,0.9l0,0c9.1,0,17.4-0.3,26.2-0.8l2.7-0.2c32.6-2,82-5.1,87.3-77.5
					c4.2-56.3-10.9-104.6-43.5-139.7C439.9,375,396.4,356,353,356z"/>
			</g>
		</g>
		<g>
			<path class="st2" d="M413.1,384.2c8-2.1,33.4-6.9,46.7-9.7c13.3-2.8,27.9-4.7,29.8-3.8c1.9,0.9-19.2,27.5-29.1,38.1
				c-3.3,2.3-7.8-1.9-7.8-1.9c-9.3,9.7-19.9,13.3-21.6,13.7c-1.7,0.3-2.6-10.4-2.8-16.8c-0.2-6.4,1-7.7-4.3-10.2
				C407.5,385.6,413.1,384.2,413.1,384.2z"/>
			<g>
				<path class="st0" d="M431.1,421.2c-0.3,0-0.5-0.2-0.6-0.4c-0.1-0.3,0.1-0.6,0.4-0.7c0.9-0.3,4-5.4,6.3-9.2
					c2.5-4,4.8-7.8,6.2-9.2c2.6-2.6,26.8-19.2,37.1-26.1l-50.3,20c-0.3,0.1-0.6,0-0.8-0.3c-0.1-0.3,0-0.6,0.3-0.8l55.4-22
					c0.3-0.1,0.6,0,0.8,0.3c0.1,0.3,0,0.6-0.3,0.8c-1.7,0.9-38.6,26.2-41.4,29c-1.3,1.3-3.7,5.2-6,9c-4,6.5-5.9,9.4-7,9.7
					C431.2,421.2,431.1,421.2,431.1,421.2z"/>
			</g>
			<g>
				<path class="st0" d="M453.8,408.2c-0.1,0-0.2,0-0.3-0.1l-0.3-0.2c-3.5-2.6-8-5.8-9-5.3c-0.3,0.1-0.6,0-0.8-0.3
					c-0.1-0.3,0-0.6,0.3-0.8c1.6-0.8,4.8,1.4,10.2,5.4l0.3,0.2c0.3,0.2,0.3,0.6,0.1,0.8C454.1,408.1,453.9,408.2,453.8,408.2z"/>
			</g>
		</g>
		<g>
			<path class="st1" d="M498.9,502.9c-6.7,0.6-10.4,4.7-9.8,16.5c0.7,11.8-2,23.9,2.7,28.5s16.4,4.6,27.3,4.7
				c10.9,0.2,25-0.1,29.1-0.2c9.8-0.1,13.3-1.8,14.7-9.5c0.8-4.5-1.1-30.1-1.2-32.7c-0.2-6.7-4.5-7.5-14-8
				C538.7,501.8,505.2,502.4,498.9,502.9z"/>
			<g>
				<path class="st0" d="M525.7,534.1L525.7,534.1c-4.8-0.1-8.6-4-11.4-7.4c-5.2-6.3-16.8-19.3-19.6-21.7c-0.2-0.2-0.3-0.6-0.1-0.8
					c0.2-0.2,0.6-0.3,0.8-0.1c2.9,2.4,14.6,15.5,19.8,21.9c2.6,3.2,6.2,6.9,10.4,7c3,0,6.1-1.8,9.3-5.5c8.8-10.1,21.9-22.9,22-23.1
					c0.2-0.2,0.6-0.2,0.8,0s0.2,0.6,0,0.8c-0.1,0.1-13.2,12.9-21.9,23C532.4,532.2,529,534.1,525.7,534.1z"/>
			</g>
			<g>
				<path class="st0" d="M491.8,548.5c-0.2,0-0.4-0.1-0.5-0.3c-0.1-0.3,0-0.6,0.3-0.8c1.5-0.8,9.3-8.1,15-13.5c4.7-4.4,7.4-7,8-7.4
					c0.3-0.2,0.6-0.1,0.8,0.2s0.1,0.6-0.2,0.8c-0.6,0.3-4.1,3.7-7.9,7.2c-7.7,7.3-13.7,12.9-15.3,13.7
					C492,548.5,491.9,548.5,491.8,548.5z"/>
			</g>
			<g>
				<path class="st0" d="M558.2,550.4c-0.2,0-0.4-0.1-0.5-0.3c-0.4-0.6-4.8-5.4-9-10c-5.6-6.1-11.4-12.3-12.2-13.7
					c-0.2-0.3-0.1-0.6,0.2-0.8s0.6-0.1,0.8,0.2c0.8,1.3,6.8,7.8,12.1,13.5c5.4,5.8,8.7,9.5,9.1,10.2c0.2,0.3,0.1,0.6-0.2,0.8
					C558.5,550.4,558.3,550.4,558.2,550.4z"/>
			</g>
		</g>
		<g>
			<g>
				<g>
					<defs>
						<path id="SVGID_3_" d="M658.1,290.7c-41,8.7-105.3,26.5-102.3,104.8s33.1,118.7,83.3,134.3c50.3,15.7,173.6,31.7,199.8-20.3
							c26.2-52.1,17.6-126.4,4-157.3C829.5,321.3,796.7,261.5,658.1,290.7z"/>
					</defs>
					<clipPath id="SVGID_4_">
						<use xlink:href="#SVGID_3_"  style="overflow:visible;"/>
					</clipPath>
					<g class="st6">
						<path class="st0" d="M769.2,354.5c-3.2-13.7-33-31.3-45.7-26.4s3.5,10.6,3.5,10.6c-19.6-3.5-29-1.2-30.9,3.7
							c-2,4.9,6.3,6.9,6.3,6.9c-13.3,0.4-28.2,10.8-26,18s11,4.6,11,4.6c-12.5,10.1-10.5,20.3,2.6,19.1
							c-13.8,10.3-15.7,29.3-10.4,36.2c5.3,6.9,10.4-3.5,10.4-3.5c-5.5,15.3,2.7,25.3,10.5,12.5c-1.8,17.4,13.7,19.8,18.6,11.2
							c4.7,16.6,15.9,14.1,17.8,5.9c6.1,7.6,18,5.1,20.4-3.1c6.7,7.8,12.5,0.7,11.9-5.4c6.9,8,17.6,9,19.8-5.6
							c9.8,7.2,14.7,7,12-10.3c16.4,6,25-12.2,6.2-27.9c12.5,3.3,11.2-9.6-6.8-17.3c12.6-0.3,14.2-8.9,7.9-15.3
							C802,362,791.4,349.7,769.2,354.5z"/>
						<g>
							<path class="st5" d="M706.9,388c-1.9,11.5,1.5,14.9,4.9,23s-1.4,16.6,7.7,26.7c8.4,9.4,21.2,8.8,21.2,8.8l3.6,14.7l31.3-8.1
								l-6.8-29.4c0,0,6.4-3.5,4.5-16.1c-1.9-12.5-2.1-43.6-32.5-38.9C710.3,373.3,709.7,378.9,706.9,388z"/>
							<path class="st0" d="M744.3,461.7c-0.1,0-0.2,0-0.3-0.1s-0.2-0.2-0.3-0.4l-3.5-14.2c-2.2,0-13.5-0.5-21.2-9
								c-5.8-6.5-6.1-12.5-6.3-17.8c-0.1-3.2-0.3-6.2-1.5-9.1c-0.7-1.6-1.3-2.9-1.9-4.3c-2.5-5.4-4.6-9.6-3-19l0.3-1
								c2.7-8.9,4.3-14.3,34-18.8c2.1-0.3,4.1-0.5,6-0.5c22.4,0,25.1,22.2,26.7,35.5c0.2,1.6,0.4,3.1,0.6,4.4
								c1.7,11.2-3,15.4-4.4,16.4l6.7,29c0.1,0.3-0.1,0.6-0.4,0.7l-31.3,8.1C744.4,461.7,744.4,461.7,744.3,461.7z M740.7,445.9
								c0.3,0,0.5,0.2,0.6,0.4l3.5,14.1l30.1-7.8l-6.7-28.9c-0.1-0.3,0.1-0.5,0.3-0.6c0.1,0,6-3.5,4.2-15.4
								c-0.2-1.3-0.4-2.8-0.6-4.4c-1.6-12.9-4.2-34.5-25.5-34.5c-1.8,0-3.8,0.2-5.8,0.5c-29,4.5-30.5,9.6-33.1,18l-0.3,0.9
								c-1.5,9,0.4,12.9,2.9,18.2c0.6,1.3,1.3,2.7,2,4.3c1.3,3.1,1.4,6.2,1.6,9.5c0.2,5.3,0.5,10.9,6,17c7.4,8.2,18.2,8.6,20.3,8.6
								C740.9,445.9,740.7,445.9,740.7,445.9z"/>
						</g>
						<path class="st0" d="M780.5,396.8c-1.1-6.4-2.4-12.5-5.7-18.2c-2-3.5-3.9-7.1-7.3-9.5c-9.7-6.6-22.8-6.2-33.8-3.9
							c-8.8,1.8-18.5,4.9-25.3,11c-2.3,2-11.4,11.1-5.5,13.8c3.5,1.5,7.3-1.7,9.9-3.9c0.1,0.3,0.3,0.7,0.6,1.1
							c1.8,2.6,6.2,2.9,9.1,2.3c7.6-1.2,15-6.2,20.6-11.7c-1.2,1.8-2.6,4.1-2.1,6.5c1.2,2.6,3.8,2.9,6.2,2.9c5-0.3,9.7-4.4,13.2-7.6
							c-2.9,5.6-6.2,11.2-6.5,17.6c-0.3,2.9,0,6.2,1.2,8.8c1.5,3.5,4.7,3.5,7.6,1.5c-1.5,4.7-2.3,9.1-0.3,13.8
							c1.2,2.8,5.1,7.5,10.5,6.6c4.3-0.8,5.1-10.9,6.7-14.4C782.5,406.8,781.7,404,780.5,396.8z"/>
						<g>
							<path class="st5" d="M701,392.1c-2.6,0-5.2-0.9-5.9-3.6c-0.4-1.6-0.2-3.4,0.2-4.7c0.7-2.4,2.9-5.8,4.9-7.6
								c0.2-0.2,0.6-0.2,0.8,0s0.2,0.6,0,0.8c-1.8,1.6-3.9,4.9-4.6,7.1c-0.3,1.1-0.5,2.7-0.2,4c0.9,3.3,5.6,2.7,6.5,2.6
								c2.8-0.4,4.9-1.1,6.5-2c0.3-0.2,0.6-0.1,0.8,0.2c0.2,0.3,0.1,0.6-0.2,0.8c-1.8,1-4,1.7-6.9,2.1
								C702.3,392,701.7,392.1,701,392.1z"/>
						</g>
						<g>
							<path class="st0" d="M732.1,426.6C732,426.6,732,426.6,732.1,426.6c-3.9-0.2-6.3-1.1-7.4-2.7c-1.4-2-0.5-4.7,0.4-7.2
								c0.2-0.5,0.3-1,0.5-1.5c1.3-4.3-1.7-9.6-5-12.6c-2.6-2.4-6-2.8-8.1-2.2c-1.2,0.3-2.1,1-2.3,1.9c-0.1,0.3-0.4,0.5-0.7,0.4
								s-0.5-0.4-0.4-0.7c0.4-1.3,1.5-2.2,3.1-2.7c2.5-0.7,6.3-0.2,9.2,2.5c3.7,3.4,6.8,9,5.3,13.8c-0.1,0.5-0.3,1-0.5,1.5
								c-0.8,2.3-1.5,4.6-0.5,6.2c0.9,1.3,3.1,2,6.5,2.2c0.3,0,0.6,0.3,0.6,0.6C732.6,426.4,732.4,426.6,732.1,426.6z"/>
						</g>
						<g>
							<path class="st0" d="M730.3,400.6c-0.1,0-0.3,0-0.4-0.1c-0.3-0.2-0.3-0.6-0.1-0.8c2.1-2.6,8-8,18.8-1.8
								c0.3,0.2,0.4,0.5,0.2,0.8s-0.5,0.4-0.8,0.2c-9.7-5.5-15-1.4-17.3,1.5C730.6,400.6,730.4,400.6,730.3,400.6z"/>
						</g>
						<path class="st0" d="M744.1,409.7c1,1.8,0.9,3.8-0.1,4.3c-1,0.6-2.7-0.5-3.7-2.3s-0.9-3.8,0.1-4.3
							C741.4,406.9,743.1,407.9,744.1,409.7z"/>
						<g>
							<path class="st0" d="M741.1,408.3c-0.1,0-0.2,0-0.3-0.1l-3.3-1.8c-0.3-0.2-0.4-0.5-0.2-0.8s0.5-0.4,0.8-0.2l3.3,1.8
								c0.3,0.2,0.4,0.5,0.2,0.8C741.5,408.2,741.3,408.3,741.1,408.3z"/>
						</g>
						<path class="st0" d="M721.9,411.6c1,1.8,0.9,3.8-0.1,4.3c-1,0.6-2.7-0.5-3.7-2.3s-0.9-3.8,0.1-4.3
							C719.3,408.8,720.9,409.8,721.9,411.6z"/>
						<g>
							<path class="st0" d="M718.9,410.2c-0.1,0-0.2,0-0.3-0.1l-3.3-1.8c-0.3-0.2-0.4-0.5-0.2-0.8s0.5-0.4,0.8-0.2l3.3,1.8
								c0.3,0.2,0.4,0.5,0.2,0.8C719.3,410.1,719.1,410.2,718.9,410.2z"/>
						</g>
						<g>
							<path class="st0" d="M736,436.6c-2.8,0-5.6-2.6-7.8-7.3c-0.1-0.2-0.1-0.4,0.1-0.6c0.1-0.2,0.3-0.3,0.5-0.2
								c0.6,0.1,1.2,0.1,1.8,0.1c2.3,0,5-0.9,12-5.5c0.2-0.1,0.4-0.1,0.6,0c0.2,0.1,0.3,0.3,0.3,0.6
								C742.8,431.6,739.9,436.6,736,436.6z M729.8,429.7c1.9,3.7,4.1,5.7,6.2,5.7c3,0,5.4-4.1,6.3-10.7
								C734.9,429.5,732.4,429.9,729.8,429.7z"/>
						</g>
						<g>
							<path class="st0" d="M734.4,436.2c-0.1,0-0.1,0-0.2,0c-0.3-0.1-0.5-0.4-0.4-0.7c1-3.8,5.3-6.6,8-6.5c0.3,0,0.6,0.3,0.5,0.6
								c0,0.3-0.3,0.6-0.6,0.5c-2.4-0.2-5.9,2.4-6.8,5.6C734.9,436,734.6,436.2,734.4,436.2z"/>
						</g>
						<path class="st1" d="M663.7,536c5.6-5.4,32.2-40.7,42.6-53.3c10.4-12.6,22.3-12.9,38.6-13.1c-4-16-2.9-16.4-2.1-16.2
							c0.8,0.2,16,3.5,31.1-7c4-1.1,3.9,15,7.7,17.1s29.3-3.2,41.9,9.4c12.6,12.6,21.4,42.4,21.4,42.4c-6.9,11-53.4,45.6-111.9,29.7
							c-1.1-4.9-9.1-12.6-11.5-22.3c-9.9,12.9-16.9,22.5-16.9,22.5S673.1,543,663.7,536z"/>
						<g>
							<path class="st0" d="M757.1,474.5c-6.4,0-10.9-2.6-12.6-4.4c-0.2-0.2-0.2-0.6,0-0.8c0.2-0.2,0.6-0.2,0.8,0
								c3.3,3.4,16.8,9.6,35.1-6.6c0.2-0.2,0.6-0.2,0.8,0s0.2,0.6,0,0.8C771.7,472,763.4,474.5,757.1,474.5z"/>
						</g>
						<g>
							<path class="st0" d="M753.7,474.4c-0.3,0-0.5-0.2-0.6-0.4c-0.2-0.7-5.2-17.2-5.7-19.5c-0.1-0.3,0.1-0.6,0.4-0.7
								c0.3-0.1,0.6,0.1,0.7,0.4c0.5,2.3,5.7,19.2,5.7,19.4c0.1,0.3-0.1,0.6-0.4,0.7C753.8,474.4,753.8,474.4,753.7,474.4z"/>
						</g>
						<g>
							<path class="st0" d="M760.6,474.3c-0.3,0-0.5-0.2-0.6-0.4l-6.2-19.7c-0.1-0.3,0.1-0.6,0.4-0.7c0.3-0.1,0.6,0.1,0.7,0.4
								l6.2,19.7c0.1,0.3-0.1,0.6-0.4,0.7C760.7,474.2,760.7,474.3,760.6,474.3z"/>
						</g>
						<g>
							<path class="st0" d="M767.8,472.1c-0.2,0-0.5-0.2-0.6-0.4l-6.2-18.8c-0.1-0.3,0.1-0.6,0.4-0.7c0.3-0.1,0.6,0.1,0.7,0.4
								l6.2,18.8c0.1,0.3-0.1,0.6-0.4,0.7C768,472.1,767.9,472.1,767.8,472.1z"/>
						</g>
						<g>
							<path class="st0" d="M774.4,468.7c-0.3,0-0.5-0.2-0.6-0.4l-5.2-17.6c-0.1-0.3,0.1-0.6,0.4-0.7c0.3-0.1,0.6,0.1,0.7,0.4
								L775,468c0.1,0.3-0.1,0.6-0.4,0.7C774.5,468.7,774.5,468.7,774.4,468.7z"/>
						</g>
						<g>
							<path class="st0" d="M740.9,447.2c-0.1,0-0.1,0-0.2,0c-0.3,0-0.6-0.3-0.6-0.6c0-0.3,0.2-0.6,0.6-0.6
								c4.2,0.1,15.4-3.5,22.5-12.3c0.2-0.3,0.6-0.3,0.8-0.1c0.3,0.2,0.3,0.6,0.1,0.8C756.9,443.4,745.4,447.2,740.9,447.2z"/>
						</g>
						<g>
							<path class="st0" d="M723.7,529.1c-0.2,0-0.4-0.1-0.5-0.4c-3.9-8.8-4.2-17.7-4.2-20.2c0-0.3,0.3-0.6,0.6-0.6s0.6,0.3,0.6,0.6
								c0,1.7,0.2,10.8,4.1,19.7c0.1,0.3,0,0.6-0.3,0.8C723.8,529.1,723.8,529.1,723.7,529.1z"/>
						</g>
						<g>
							<path class="st0" d="M809.3,540.3c-0.3,0-0.5-0.2-0.6-0.4s-5.3-18.1-7.5-24.9c-0.1-0.3,0.1-0.6,0.4-0.7
								c0.3-0.1,0.6,0.1,0.7,0.4c2.2,6.8,7.4,24.7,7.5,24.9c0.1,0.3-0.1,0.6-0.4,0.7H809.3z"/>
						</g>
						<g>
							<path class="st5" d="M770.8,428.8c-1.8,0-3.9-0.6-6.2-1.8c-0.3-0.2-0.4-0.5-0.2-0.8s0.5-0.4,0.8-0.2c2.7,1.4,5.1,1.9,6.9,1.5
								c4.4-1,6.2-8.7,6.2-12.5c0-0.3,0.2-0.5,0.4-0.6s0.5,0,0.7,0.2c2,2.6,4.3,3.8,7.4,3.8c3-0.2,5.9-3.5,6.2-6.1
								c0-0.3,0.4-0.5,0.7-0.5s0.5,0.3,0.5,0.7c-0.4,3.1-3.7,6.9-7.3,7.1l0,0c-2.9,0-5.4-1-7.4-3.1c-0.4,4.8-2.7,11.2-7,12.2
								C771.8,428.8,771.3,428.8,770.8,428.8z"/>
						</g>
					</g>
				</g>
			</g>
			<g>
				<path class="st0" d="M744.2,545.7L744.2,545.7c-41.5,0-82.6-8.2-105.3-15.3c-53.6-16.7-80.9-60.8-83.7-134.9
					c-1.3-34.4,10.4-61,34.9-79c20.2-14.9,45.7-21.7,67.9-26.4c24.6-5.2,47.3-7.8,67.4-7.8c36.2,0,65.2,8.5,86.1,25.4
					c17.2,13.9,26.2,31,32,44.3c7.4,17,12.4,44.2,12.9,70.9c0.5,23.3-2.1,57.3-17,86.9C824.5,539.4,779.4,545.7,744.2,545.7z
					 M725.4,283.5c-20,0-42.6,2.6-67.1,7.8c-51.9,10.9-104.6,31.9-101.9,104.2c2.8,73.5,29.9,117.3,82.9,133.8
					c24.3,7.6,66.2,15.2,104.9,15.2l0,0c34.9,0,79.5-6.1,94.2-35.3c14.8-29.3,17.3-63.1,16.8-86.3c-0.5-26.6-5.4-53.6-12.8-70.5
					C834.2,333.6,812.2,283.5,725.4,283.5z"/>
			</g>
		</g>
		<g>
			<g>
				<path class="st5" d="M607.8,343.1h-46.1c-8,0-14.1,6.9-13.6,15.2l1.2,21.2c0.5,7.7,6.9,13.8,14.4,13.6l33.3-0.5
					c1.7,5.2,3,10.2,6.3,10c2.4-0.2,3.4-5.3,4.1-10.1c7-0.4,12.7-6.4,13-13.7l0.7-20.7C621.5,349.9,615.5,343.1,607.8,343.1z"/>
				<path class="st0" d="M603.1,403.2c-3.3,0-4.6-4.1-6.2-8.8c-0.1-0.4-0.2-0.7-0.4-1.1l-33.1,0.5c-7.8,0-14.3-6.2-14.8-14.2
					l-1.2-21.2c-0.3-4.3,1.2-8.4,4-11.4c2.7-2.8,6.3-4.4,10.2-4.4h46.1c3.7,0,7.2,1.5,9.9,4.2c2.8,2.9,4.4,7,4.2,11.3l-0.7,20.7
					c-0.3,7.4-6,13.6-13.1,14.3c-0.7,5.2-1.8,9.9-4.5,10.2C603.3,403.2,603.2,403.2,603.1,403.2z M597,392.1c0.3,0,0.5,0.2,0.6,0.4
					c0.2,0.5,0.3,1,0.5,1.5c1.5,4.4,2.7,8.2,5.2,8c2.2-0.2,3.2-7.1,3.5-9.6c0-0.3,0.3-0.5,0.5-0.5c6.7-0.4,12.2-6.2,12.5-13.2
					l0.7-20.7c0.1-3.9-1.3-7.7-3.9-10.4c-2.4-2.5-5.6-3.9-9-3.9h-46.1c-3.6,0-6.9,1.4-9.3,4c-2.6,2.8-4,6.6-3.7,10.6l1.2,21.2
					c0.4,7.2,6.5,13.1,13.6,13.1h0.2L597,392.1L597,392.1z"/>
			</g>
			<path class="st2" d="M570.6,368.8c0,2.6-2,4.6-4.5,4.6s-4.5-2.1-4.5-4.6c0-2.6,2-4.6,4.5-4.6
				C568.5,364.2,570.6,366.2,570.6,368.8z"/>
			<path class="st2" d="M588.4,368.8c0,2.6-2,4.6-4.5,4.6s-4.5-2.1-4.5-4.6c0-2.6,2-4.6,4.5-4.6
				C586.4,364.2,588.4,366.2,588.4,368.8z"/>
			<path class="st2" d="M606.3,368.8c0,2.6-2,4.6-4.5,4.6s-4.5-2.1-4.5-4.6c0-2.6,2-4.6,4.5-4.6
				C604.2,364.2,606.3,366.2,606.3,368.8z"/>
		</g>
		<g>
			<g>
				<path class="st0" d="M755.9,741.1h-45.7c-0.3,0-0.6-0.3-0.6-0.6s0.3-0.6,0.6-0.6h45.7c0.3,0,0.6,0.3,0.6,0.6
					S756.2,741.1,755.9,741.1z"/>
			</g>
			<path class="st0" d="M620.7,574.6c-13.6-6.5-16.1-21.2,3.7-26.8c-13.9-17.1,0.2-26.9,9.6-28.9c9.4-1.9,28.1,2.9,46.1,18.3
				c18,15.5,25.8,16.3,31.3,28.4c5.4,12.1,2.9,21.5-2.6,33.8c-5.4,12.3-6.1,16.1,4.5,26c10.5,9.9,19.1,19.8,11.8,38.4
				c-7.3,18.7-95,11.8-99.2-1c-4.1-12.8,5.7-59.5,5.7-59.5L620.7,574.6z"/>
			<path class="st0" d="M610.7,651c-2.1-9.1,0.3-30,18.5-40.3c13.2-7.6,20.2,3,20.2,3l2.1,34.9C651.5,648.6,615.2,651.1,610.7,651z"
				/>
			<g>
				<path class="st5" d="M508.7,598.5c-1.6-2.2-4-5.3-6.2-3.7s1.3,14.5,11.3,12.9C511.2,603.9,508.7,598.5,508.7,598.5z"/>
				<path class="st0" d="M512.1,608.5L512.1,608.5c-5.6,0-9.1-4.6-10.3-8.5c-0.7-2-1-4.7,0.3-5.6c0.5-0.4,1.1-0.6,1.6-0.6
					c2,0,3.8,2.1,5.4,4.4c0.1,0.1,2.6,5.5,5.1,9.3c0.1,0.2,0.1,0.4,0,0.6c-0.1,0.2-0.2,0.3-0.4,0.3
					C513.2,608.4,512.7,608.5,512.1,608.5z M503.7,595c-0.3,0-0.7,0.1-1,0.3c-0.4,0.3-0.6,2,0.1,4.3c1.2,3.7,4.2,7.7,9.2,7.7l0,0
					c0.2,0,0.4,0,0.7,0c-2.4-3.7-4.6-8.5-4.6-8.5C507.3,597.7,505.4,595,503.7,595z"/>
			</g>
			<g>
				<path class="st5" d="M536.9,599.9c-5.4-1.8-8.9-6.1-7.2-9.6c1.8-3.5,7.5,1.1,11.5,4.3s7.8,3.8,7.8,3.8S543.1,601.5,536.9,599.9z
					"/>
				<path class="st0" d="M540.7,601c-1.4,0-2.7-0.2-3.9-0.5c-3.6-1.2-6.5-3.5-7.6-6.1c-0.6-1.5-0.6-3,0.1-4.3c0.5-1,1.4-1.6,2.5-1.6
					c2.7,0,6.6,3.1,9.8,5.6c3.9,3.1,7.6,3.8,7.6,3.8c0.2,0,0.4,0.2,0.5,0.5c0,0.3-0.1,0.5-0.3,0.6C549.1,599.1,545.4,601,540.7,601z
					 M531.7,589.7c-0.7,0-1.2,0.3-1.5,0.9c-0.5,1-0.5,2.2,0,3.4c0.9,2.3,3.6,4.3,6.9,5.4c1.1,0.3,2.3,0.4,3.6,0.4
					c2.7,0,5-0.7,6.5-1.2c-1.5-0.5-3.9-1.5-6.4-3.5C537.9,592.8,534,589.7,531.7,589.7z"/>
			</g>
			<g>
				<path class="st5" d="M542.6,648.9c-0.4-9.4-1.5-28.1-3-34c-1.5-6-10.8-4.3-11.5-4.5c-0.6-0.2-12.3,4.2-18-7.4
					c-5.7-11.6-1.1-15.9,2.1-14.8c1.1-3.8,4.3-2.7,6.1-0.8c1.6-3.3,6.2,0.2,7.3,4.5s2.2,8.1,11.2,7c8.9-1.1,19.9-3.7,24.2,9.2
					s7.8,33,7.8,33S567.1,653.8,542.6,648.9z"/>
				<path class="st0" d="M552.8,650.6c-3.1,0-6.6-0.4-10.3-1.1c-0.3-0.1-0.5-0.3-0.5-0.5c-0.3-6.3-1.3-27.5-3-33.9
					c-0.7-2.7-3.4-4.1-8-4.1c-0.8,0-1.4,0-1.9,0.1c-0.6,0-0.9,0-1.1,0c-0.1,0-0.4,0.1-0.7,0.1c-1,0.2-2.7,0.5-4.7,0.5
					c-5.9,0-10.4-2.9-13.1-8.4c-4-8.1-2.8-12.1-1.8-13.8c0.9-1.5,2.5-2.2,4-2c0.8-2.1,2.3-2.4,3.1-2.4c1.1,0,2.2,0.5,3.3,1.4
					c0.5-0.6,1.2-1,2-1c2.3,0,5.1,2.9,6,6.2c0.9,3.6,1.8,6.8,7.7,6.8c0.8,0,1.8-0.1,2.8-0.2c0.7-0.1,1.3-0.2,2-0.3
					c2.6-0.4,5.3-0.7,8-0.7c4.9,0,11.7,1.1,14.9,10.6c4.3,12.8,7.8,32.9,7.8,33.1c0,0.1,0,0.1,0,0.2
					C569.3,641.3,567.9,650.6,552.8,650.6z M543.1,648.4c3.5,0.7,6.8,1,9.7,1c13.4,0,15.2-7.5,15.4-8.4c-0.3-1.5-3.7-20.6-7.8-32.8
					c-2.9-8.7-8.9-9.8-13.8-9.8c-2.6,0-5.3,0.4-7.8,0.7c-0.7,0.1-1.3,0.2-2,0.3c-1.1,0.1-2.1,0.2-2.9,0.2c-6.9,0-7.9-4.1-8.9-7.7
					c-0.8-3-3.3-5.4-4.9-5.4c-0.6,0-1,0.3-1.4,1c-0.1,0.2-0.3,0.3-0.4,0.3c-0.2,0-0.4,0-0.5-0.2c-0.9-1-2-1.6-2.9-1.6
					c-1,0-1.7,0.7-2.1,2.1c0,0.2-0.2,0.3-0.3,0.4c-0.1,0.1-0.3,0.1-0.5,0c-1.2-0.4-2.4,0.1-3.2,1.3c-0.7,1.2-2,4.8,1.8,12.7
					c2.5,5.1,6.6,7.8,12.1,7.8c1.9,0,3.5-0.3,4.5-0.5c0.5-0.1,0.7-0.1,0.9-0.1c0.1,0,0.2,0,0.3,0c0.2,0,0.5,0,0.8,0
					c0.5,0,1.2-0.1,2-0.1c5.2,0,8.3,1.7,9.1,5C541.8,621.1,542.8,641.5,543.1,648.4z"/>
			</g>
			<g>
				<path class="st0" d="M514.6,609.2c-0.1,0-0.3,0-0.4-0.1c-3.6-2.8-6-7-7.1-12.4c-0.1-0.3,0.1-0.6,0.5-0.7
					c0.3-0.1,0.6,0.1,0.7,0.5c1.1,5.1,3.3,9.1,6.7,11.7c0.3,0.2,0.3,0.6,0.1,0.8C515,609.1,514.8,609.2,514.6,609.2z"/>
			</g>
			<g>
				<path class="st0" d="M529.7,607.1L529.7,607.1c-3.3-0.1-6-1.5-8.1-4.2c-4-5-4.4-13.1-3.9-15.7c0.1-0.3,0.4-0.5,0.7-0.5
					c0.3,0.1,0.5,0.4,0.5,0.7c-0.4,2.3,0,10,3.7,14.7c1.9,2.3,4.3,3.6,7.2,3.7c0.3,0,0.6,0.3,0.6,0.6
					C530.3,606.8,530,607.1,529.7,607.1z"/>
			</g>
			<g>
				<path class="st0" d="M523.5,611.4C523.5,611.4,523.4,611.4,523.5,611.4c-3.1-0.3-5.7-1.7-7.7-4.3c-4.7-6.1-4.7-16.6-4.2-19.1
					c0.1-0.3,0.4-0.5,0.7-0.5c0.3,0.1,0.5,0.4,0.5,0.7c-0.4,2.3-0.4,12.4,4,18.2c1.8,2.3,4.1,3.6,6.8,3.8c0.3,0,0.6,0.3,0.5,0.6
					C524,611.1,523.8,611.4,523.5,611.4z"/>
			</g>
			<path class="st0" d="M634,659.4c5.3,2.4,20.6,7.8,48.3,0.8c-1,19.1-2.9,59.5-2.9,59.5s-23.1,13.1-38.6,7.7
				C636.5,720,634,659.4,634,659.4z"/>
			<g>
				<path class="st5" d="M638.7,644.3c4.6-0.6,9.6-2.4,9.1-10.1s-1.8-17.7-1.8-17.7c-12-0.2-23.8-6.4-29.2-18.7s1.8-18.7,5.7-31.4
					c4-12.8,11.5-23.3,28.2-22.2s25.7,9.1,25.7,9.1c-2.9,15-5.7,36.2,0.5,37.5s7.8-9.7,7.8-9.7c9.4-4.6,19.3,1,15.5,9.2
					c-4.6,10-15.6,4.9-15.6,4.9c-2.2,5.7-11.6,12.1-11.6,12.1c1.4,11.8,2.9,31.3,11.8,32.4c-3.7,18.7-5.6,25.4-5.6,25.4
					s-32,7.8-43.7-3.7C636,657.7,638.7,644.3,638.7,644.3z"/>
				<path class="st0" d="M657.3,668.5c-10.4,0-17.9-2.2-22.2-6.4c-0.1-0.1-0.2-0.3-0.2-0.5c0.5-4,3-16.9,3.1-17.4
					c0-0.2,0.2-0.4,0.5-0.5c4.5-0.6,9.1-2.2,8.6-9.4c-0.4-6.6-1.4-15-1.7-17.2c-13-0.4-24.2-7.6-29.2-19c-4-9-1.4-14.9,1.9-22.3
					c1.3-2.9,2.7-5.9,3.8-9.5c5.1-16.2,14.5-23.5,28.8-22.6c16.8,1.1,25.7,8.9,26,9.2c0.2,0.1,0.2,0.3,0.2,0.5
					c-4.3,22.5-4.3,35.9,0,36.8c0.3,0.1,0.6,0.1,0.9,0.1c4.8,0,6.2-9.2,6.3-9.3c0-0.2,0.1-0.4,0.3-0.4c2.3-1.1,4.8-1.7,7.1-1.7
					c3.9,0,7.2,1.6,8.9,4.2c1.4,2.2,1.5,4.9,0.2,7.6c-2.5,5.4-6.8,6.6-10,6.6c-2.6,0-4.8-0.7-5.8-1.1c-2.4,5.2-9.7,10.5-11.3,11.6
					c0.1,0.9,0.2,1.8,0.3,2.8c1.3,11.7,3.2,27.8,10.9,28.8c0.2,0,0.3,0.1,0.4,0.2c0.1,0.1,0.1,0.3,0.1,0.5
					c-3.6,18.5-5.6,25.4-5.6,25.5c-0.1,0.2-0.2,0.4-0.4,0.4C679.3,665.9,668.5,668.5,657.3,668.5z M636.2,661.4
					c4.1,3.9,11.3,5.9,21.2,5.9s19.5-2.1,21.4-2.5c0.4-1.6,2.2-8.7,5.4-24.5c-8.1-1.8-10-17.9-11.3-29.7c-0.1-1.1-0.2-2.2-0.4-3.2
					c0-0.2,0.1-0.4,0.3-0.6c0.1-0.1,9.3-6.3,11.4-11.8c0.1-0.2,0.2-0.3,0.3-0.3c0.2-0.1,0.3-0.1,0.5,0c0,0,2.7,1.2,5.9,1.2
					c4.1,0,7.1-2,8.9-5.9c1.1-2.4,1-4.6-0.1-6.4c-1.5-2.3-4.4-3.6-7.9-3.6c-2.1,0-4.3,0.5-6.3,1.5c-0.3,1.8-2,10-7.4,10
					c-0.4,0-0.7,0-1.1-0.1c-5.2-1.1-5.6-13.8-1-37.8c-1.6-1.3-10.3-7.7-25.1-8.7c-13.9-0.9-22.7,6-27.6,21.8
					c-1.1,3.7-2.6,6.8-3.8,9.7c-3.2,7.1-5.7,12.8-1.9,21.3c4.9,11.1,15.9,18.1,28.6,18.3c0.3,0,0.5,0.2,0.6,0.5
					c0,0.1,1.3,10.2,1.8,17.7c0.5,8-4.9,9.9-9.2,10.6C638.8,647,636.7,657.6,636.2,661.4z"/>
			</g>
			<g>
				<path class="st0" d="M634.9,590.8c-0.1,0-0.2,0-0.3-0.1c-3.4-1.9-5.1-3.8-5.4-5.7c-0.3-2.4,1.6-4.4,3.5-6.3
					c0.4-0.4,0.7-0.7,1.1-1.1c3.1-3.3,2.8-9.3,1.2-13.5c-0.7-1.8-1.9-2.9-3.5-3.2c-2.1-0.4-4.4,0.7-5.5,1.9c-0.2,0.2-0.6,0.3-0.8,0
					c-0.2-0.2-0.3-0.6,0-0.8c1.3-1.5,4-2.7,6.6-2.2c1.4,0.3,3.3,1.2,4.4,3.9c1.8,4.7,2.1,11.1-1.4,14.8c-0.4,0.4-0.7,0.8-1.1,1.1
					c-1.7,1.7-3.4,3.5-3.2,5.3c0.2,1.5,1.8,3.2,4.8,4.9c0.3,0.2,0.4,0.5,0.2,0.8C635.3,590.7,635.1,590.8,634.9,590.8z"/>
			</g>
			<g>
				<path class="st0" d="M663.7,570.9c-0.2,0-0.4-0.1-0.5-0.3c-6.2-9.2-12.8-8-16.2-6.4c-0.3,0.1-0.6,0-0.8-0.3
					c-0.1-0.3,0-0.6,0.3-0.8c3-1.4,10.7-3.5,17.6,6.8c0.2,0.3,0.1,0.6-0.2,0.8C664,570.9,663.8,570.9,663.7,570.9z"/>
			</g>
			<path class="st0" d="M654.3,579.3c-0.6,2-2,3.3-3.2,3c-1.1-0.4-1.5-2.3-0.9-4.2c0.6-2,2-3.3,3.2-3
				C654.5,575.4,654.9,577.3,654.3,579.3z"/>
			<g>
				<path class="st0" d="M653.6,576.4c-0.3,0-0.5-0.2-0.6-0.4l-1.1-3.6c-0.1-0.3,0.1-0.6,0.4-0.7c0.3-0.1,0.6,0.1,0.7,0.4l1.1,3.6
					c0.1,0.3-0.1,0.6-0.4,0.7C653.7,576.3,653.7,576.4,653.6,576.4z"/>
			</g>
			<path class="st0" d="M631,574.9c-0.6,2-2,3.3-3.2,3c-1.1-0.4-1.5-2.3-0.9-4.2c0.6-2,2-3.3,3.2-3C631.2,571,631.7,572.9,631,574.9
				z"/>
			<g>
				<path class="st0" d="M630.4,572c-0.3,0-0.5-0.2-0.6-0.4l-1.1-3.6c-0.1-0.3,0.1-0.6,0.4-0.7c0.3-0.1,0.6,0.1,0.7,0.4l1.1,3.6
					c0.1,0.3-0.1,0.6-0.4,0.7C630.5,572,630.5,572,630.4,572z"/>
			</g>
			<g>
				<path class="st0" d="M634.7,602.6c-1.2,0-2.3-0.4-3.1-1.3c-1.4-1.5-2.1-4.3-1.9-8.2c0-0.2,0.2-0.4,0.4-0.5s0.5,0,0.6,0.1
					c0.8,0.8,3.3,1.7,7.5,1.7c2.6,0,5.5-0.4,8.3-1.1c0.3-0.1,0.5,0,0.6,0.3c0.1,0.2,0.1,0.5-0.1,0.7
					C642.5,599.6,637.9,602.6,634.7,602.6z M630.9,594.2c0,3,0.5,5.2,1.6,6.3c2.2,2.3,7.2-0.1,12.5-5.7
					C639.3,596,633.6,595.6,630.9,594.2z"/>
			</g>
			<g>
				<path class="st0" d="M632.2,601.5c-0.1,0-0.2,0-0.3-0.1c-0.3-0.2-0.4-0.5-0.2-0.8c1.4-2.4,7-3.9,10.3-2.8
					c0.3,0.1,0.5,0.4,0.4,0.7s-0.4,0.5-0.7,0.4c-3-1-7.9,0.5-8.9,2.2C632.6,601.4,632.4,601.5,632.2,601.5z"/>
			</g>
			<g>
				<path class="st0" d="M645.8,617.2c-0.3,0-0.7-0.2-0.7-0.6c0-0.3,0.3-0.6,0.6-0.6c0,0,0,0,0.1,0c6,0,15.5-3.4,22-6.8
					c0.3-0.2,0.6,0,0.8,0.2c0.2,0.3,0,0.6-0.2,0.8C661.8,613.7,652,617.2,645.8,617.2z"/>
			</g>
			<path class="st2" d="M542.1,646.2c2.7,1,15.9,1,26.6-5.1c1.8,9.7,8.3,38.7,8.3,38.7c9.1-9.9,21.7-21.5,27.4-26.5
				c5.7-4.9,14.5-9.7,23.1-9.4s13.1-0.2,13.1-0.2s-6.9,12.1-3.3,45.8c3.5,33.6,4.6,38.1,4.6,38.1l-11.8-1.1c0,0,2.4-7.5-4.8-16.1
				s-9.2-14-10.2-20.4c-7.7,7.8-28.1,29.5-45.1,29.7c-17.1,0.2-23.1-15.1-25.5-34.3C542.1,666.3,542.1,646.2,542.1,646.2z"/>
			<g>
				<path class="st5" d="M673.5,719.5c-4.8,1.4-25.4,7.5-34.8,6.9c-9.4-0.6-19.1-5.3-26.8-3.3c-7.7,1.9-20.8,11.6-19.8,15.4
					c0.7,2.9,4.2,1.4,4.2,1.4c1.3,2.7,3.8,1.3,3.8,1.3c1.3,2.7,7.2,1.1,10.7-1.9s7.8-4.6,13.2-2.7c5.4,1.9,13.9,4.6,23.8,5.1
					c9.9,0.5,33.2-0.6,33.2-0.6S684.5,727.1,673.5,719.5z"/>
				<path class="st0" d="M603,743c-1.7,0-2.6-0.6-3.1-1.2c-0.3,0.1-0.8,0.2-1.3,0.2c-0.8,0-1.8-0.3-2.6-1.5c-0.4,0.1-1,0.3-1.7,0.3
					c-1.5,0-2.5-0.8-2.8-2.2c-1.1-4.6,12.9-14.3,20.3-16.1c1.3-0.3,2.7-0.5,4.2-0.5c3.7,0,7.6,0.9,11.8,1.9c3.6,0.8,7.3,1.7,11,1.9
					c8.3,0.6,25.4-4.1,34.6-6.9c0.2-0.1,0.4,0,0.5,0.1c11.2,7.8,7.8,21.9,7.7,22.1c-0.1,0.3-0.3,0.4-0.5,0.4s-15.8,0.7-26.7,0.7l0,0
					c-2.6,0-4.8,0-6.5-0.1c-9.6-0.5-17.8-3-23.9-5.1c-4.6-1.6-8.7-0.8-12.7,2.6C608.9,741.6,605.5,743,603,743z M600.2,740.5
					c0.1,0,0.1,0,0.2,0c0.2,0,0.3,0.2,0.4,0.3c0.4,0.9,1.5,1.1,2.3,1.1c2.3,0,5.3-1.3,7.5-3.2c4.2-3.7,8.8-4.6,13.8-2.8
					c6,2.1,14.1,4.6,23.6,5.1c1.7,0.1,3.8,0.1,6.4,0.1c9.9,0,23.6-0.6,26.2-0.7c0.5-2.3,2.1-13.6-7.1-20.2
					c-9.3,2.8-26.3,7.4-34.7,6.8c-3.7-0.3-7.5-1.1-11.2-2c-4.1-0.9-8-1.8-11.5-1.8c-1.4,0-2.7,0.1-3.9,0.4
					c-7.7,1.9-20.2,11.4-19.4,14.7c0.2,0.9,0.8,1.3,1.7,1.3s1.7-0.4,1.7-0.4c0.3-0.1,0.6,0,0.8,0.3c0.4,0.9,1,1.3,1.8,1.3
					c0.7,0,1.2-0.3,1.2-0.3C600,740.5,600.1,740.5,600.2,740.5z"/>
			</g>
			<g>
				<path class="st2" d="M745.7,708.2c-7-18.8-13.1-39.2-18.8-48.5c-5.7-9.2-12.6-17.9-25.4-19.1c-9.2-0.6-17.5-1-17.5-1
					c-3,8-12.8,46.6-7.7,78.9c-2.2,0-3.8,1.3-3.8,1.3c5.1,4.1,8,11.6,6.7,21.7c22.2,1.8,45.6-1.8,53.3-3.7S752.7,727,745.7,708.2z
					 M700.8,714.1l1.1-13.4l3.7,12.4L700.8,714.1z"/>
			</g>
			<g>
				<path class="st0" d="M533.6,599.5c-0.3,0-0.6-0.2-0.6-0.6c0-0.3,0.2-0.6,0.5-0.6c1.1-0.1,2.4-0.2,3.8-0.3
					c4.8-0.5,10.8-1,14.4-0.1c0.3,0.1,0.5,0.4,0.4,0.7s-0.4,0.5-0.7,0.4c-3.4-0.9-9.3-0.3-14,0.1C536,599.3,534.7,599.4,533.6,599.5
					L533.6,599.5z"/>
			</g>
			<g>
				<path class="st0" d="M615.6,693.3c-0.3,0-0.5-0.2-0.6-0.5c-1.1-5.3,0.1-12.2,1.8-16.6c0.1-0.3,0.5-0.5,0.8-0.3
					c0.3,0.1,0.5,0.5,0.3,0.8c-1.2,3.2-2.9,10.1-1.7,15.9C616.3,692.9,616.1,693.2,615.6,693.3C615.7,693.3,615.7,693.3,615.6,693.3
					z"/>
			</g>
			<g>
				<path class="st0" d="M672.9,720c-0.3,0-0.5-0.2-0.6-0.4c-0.1-0.3,0.1-0.6,0.4-0.7c5.2-1.4,37.5-7.7,48.9-8.7
					c0.3,0,0.6,0.2,0.6,0.5s-0.2,0.6-0.5,0.6c-11.3,1-43.5,7.3-48.7,8.6C673,720,673,720,672.9,720z"/>
			</g>
			<g>
				<path class="st0" d="M702.7,703.4c-0.2,0-0.5-0.2-0.6-0.4c-1.2-3.6-4-15-5.4-20.4l-0.4-1.6c-0.1-0.3,0.1-0.6,0.4-0.7
					c0.3-0.1,0.6,0.1,0.7,0.4l0.4,1.6c1.4,5.5,4.2,16.8,5.3,20.4C703.2,703,703,703.3,702.7,703.4
					C702.8,703.4,702.7,703.4,702.7,703.4z"/>
			</g>
			<g>
				<path class="st0" d="M600.2,741.6C600.1,741.6,600.1,741.6,600.2,741.6c-0.4,0-0.6-0.3-0.6-0.6c0.2-2.1,8.8-9.3,16.5-11.5
					c0.3-0.1,0.6,0.1,0.7,0.4c0.1,0.3-0.1,0.6-0.4,0.7c-7.8,2.2-15.6,9.1-15.7,10.5C600.7,741.4,600.5,741.6,600.2,741.6z"/>
			</g>
			<g>
				<path class="st0" d="M596.3,740.4c-0.3,0-0.6-0.3-0.6-0.6c0-3.1,6.4-9.5,16.5-12.7c0.3-0.1,0.6,0.1,0.7,0.4
					c0.1,0.3-0.1,0.6-0.4,0.7c-10.4,3.2-15.7,9.6-15.7,11.6C596.9,740.1,596.7,740.4,596.3,740.4z"/>
			</g>
			<g>
				<path class="st1" d="M637.9,739.3h-50.3l-20.3-59.2c-1.8-5.2-7.7-9.4-13.1-9.4h-86c-5.5,0-8.5,4.2-6.7,9.4l20.9,61
					c2.3,5.9,2.6,10.8,8.5,10.8H638c3.5,0,6.3-2.8,6.3-6.3C644.2,742.1,641.4,739.3,637.9,739.3z"/>
				<g>
					<path class="st0" d="M583.2,741h-100c-0.3,0-0.6-0.3-0.6-0.6s0.3-0.6,0.6-0.6h100c0.3,0,0.6,0.3,0.6,0.6
						C583.7,740.7,583.5,741,583.2,741z"/>
				</g>
				<g>
					<path class="st0" d="M523.1,719.9c-4.3,0-9.1-4.3-10.7-9.6c-0.9-3-0.6-5.9,0.9-7.8c1-1.4,2.6-2.2,4.5-2.2
						c4.3,0,9.1,4.3,10.7,9.6c0.9,3,0.6,5.9-0.9,7.8C526.6,719.1,525,719.9,523.1,719.9z M517.8,701.5c-1.5,0-2.7,0.6-3.5,1.7
						c-1.2,1.6-1.5,4.1-0.7,6.7c1.4,4.8,5.7,8.8,9.5,8.8c1.5,0,2.7-0.6,3.5-1.7c1.2-1.6,1.5-4.1,0.7-6.7
						C526,705.4,521.7,701.5,517.8,701.5z"/>
				</g>
			</g>
		</g>
	</g>
</g>
</svg>
