<?xml version="1.0" encoding="utf-8"?>
<!-- Generator: Adobe Illustrator 27.3.1, SVG Export Plug-In . SVG Version: 6.00 Build 0)  -->
<svg version="1.1" id="Layer_1" xmlns="http://www.w3.org/2000/svg" xmlns:xlink="http://www.w3.org/1999/xlink" x="0px" y="0px"
	 viewBox="0 0 187.8 187.8" style="enable-background:new 0 0 187.8 187.8;" xml:space="preserve">
<style type="text/css">
	.st0{fill:url(#SVGID_1_);}
	.st1{fill:#FFFFFF;}
	.st2{fill:url(#SVGID_00000079447855301268305880000005401735338736616883_);}
	.st3{fill:url(#SVGID_00000048495644458235961160000015082692662271192192_);}
	.st4{fill:url(#SVGID_00000174573225116346424300000003899985070981534094_);}
	
		.st5{clip-path:url(#XMLID_00000165929726969970561140000013710206761892130967_);fill:url(#SVGID_00000059309044381784905130000016706903138811433375_);}
	.st6{fill:url(#SVGID_00000033346496072166706750000008498368531910035588_);}
	.st7{fill:url(#SVGID_00000018218675104670795190000002323738511544523403_);}
	.st8{fill:url(#SVGID_00000170959057055165745330000017215058694093399226_);}
	.st9{fill:url(#SVGID_00000145054206095616605130000005236534069486886566_);}
	.st10{fill:url(#SVGID_00000113332990959844736660000010572280375452193434_);}
	.st11{fill:#DA8421;}
	.st12{fill:url(#SVGID_00000127045590542023641420000012180934833724054683_);}
</style>
<g>
	<radialGradient id="SVGID_1_" cx="90.0573" cy="50.6394" r="143.4856" gradientUnits="userSpaceOnUse">
		<stop  offset="0" style="stop-color:#FFED74"/>
		<stop  offset="0.4348" style="stop-color:#FAC558"/>
		<stop  offset="0.788" style="stop-color:#F7AB47"/>
		<stop  offset="1" style="stop-color:#F6A240"/>
	</radialGradient>
	<circle class="st0" cx="94.6" cy="94.9" r="90.1"/>
	
		<radialGradient id="SVGID_00000047046068417639911150000003273527033320688831_" cx="95.9523" cy="91.6876" r="53.6931" gradientUnits="userSpaceOnUse">
		<stop  offset="0" style="stop-color:#361D19"/>
		<stop  offset="0.2983" style="stop-color:#3B2018"/>
		<stop  offset="0.6277" style="stop-color:#482916"/>
		<stop  offset="0.971" style="stop-color:#5E3813"/>
		<stop  offset="1" style="stop-color:#603913"/>
	</radialGradient>
	
		<ellipse style="fill:url(#SVGID_00000047046068417639911150000003273527033320688831_);" cx="97.4" cy="109.5" rx="27.9" ry="36.2"/>
	
		<radialGradient id="SVGID_00000149365475071822788640000007889097310863290035_" cx="119.2563" cy="37.8082" r="32.5404" gradientUnits="userSpaceOnUse">
		<stop  offset="0" style="stop-color:#3F3E3F"/>
		<stop  offset="0.2605" style="stop-color:#333132"/>
		<stop  offset="0.6483" style="stop-color:#272425"/>
		<stop  offset="1" style="stop-color:#231F20"/>
	</radialGradient>
	
		<ellipse style="fill:url(#SVGID_00000149365475071822788640000007889097310863290035_);" cx="134.9" cy="49.1" rx="14.1" ry="19.4"/>
	<g>
		<path class="st11" d="M147.1,25c-1.8,0-3.5-1-4.2-2.8c-1.8-4.3-4.9-7-8.1-7c-3,0-6.1,2.5-7.9,6.5c-1,2.3-3.7,3.3-6,2.3
			c-2.3-1-3.3-3.7-2.3-6c3.3-7.3,9.5-11.9,16.1-11.9c6.9,0,13.2,4.8,16.4,12.5c1,2.3-0.1,5-2.4,5.9C148.3,24.9,147.7,25,147.1,25z"
			/>
	</g>
	<g>
		<path class="st11" d="M70.2,25c-1.8,0-3.5-1-4.2-2.8c-1.8-4.3-4.9-7-8-7c-3,0-6.1,2.5-7.9,6.5c-1,2.3-3.7,3.3-6,2.3
			c-2.3-1-3.3-3.7-2.3-6C45.1,10.8,51.3,6.2,58,6.2c6.9,0,13.2,4.8,16.4,12.5c1,2.3-0.1,5-2.4,5.9C71.4,24.9,70.8,25,70.2,25z"/>
	</g>
	
		<radialGradient id="SVGID_00000076590470311015410410000007704037677064681380_" cx="42.4833" cy="37.8082" r="32.5404" gradientUnits="userSpaceOnUse">
		<stop  offset="0" style="stop-color:#3F3E3F"/>
		<stop  offset="0.2605" style="stop-color:#333132"/>
		<stop  offset="0.6483" style="stop-color:#272425"/>
		<stop  offset="1" style="stop-color:#231F20"/>
	</radialGradient>
	
		<ellipse style="fill:url(#SVGID_00000076590470311015410410000007704037677064681380_);" cx="58.1" cy="49.1" rx="14.1" ry="19.4"/>
</g>
</svg>
