<?xml version="1.0" encoding="utf-8"?>
<!-- Generator: Adobe Illustrator 24.1.3, SVG Export Plug-In . SVG Version: 6.00 Build 0)  -->
<svg version="1.1" id="Layer_1" xmlns="http://www.w3.org/2000/svg" xmlns:xlink="http://www.w3.org/1999/xlink" x="0px" y="0px"
	 viewBox="0 0 512 512" style="enable-background:new 0 0 512 512;" xml:space="preserve">
<style type="text/css">
	.st0{fill:#FFFFFF;}
</style>
<g id="Layer_5">
	<path class="st0" d="M444.3,115.1l-82.7-82.7c-9.5-9.5-22.2-14.8-35.7-14.8H170.9c-27.9,0-50.6,22.7-50.6,50.6v17h-17
		c-27.8,0-50.5,22.6-50.5,50.5v308.4c0,27.8,22.6,50.5,50.5,50.5h237.8c27.8,0,50.5-22.6,50.5-50.5v-17h16.9
		c27.9,0,50.5-22.7,50.5-50.5V150.8C459.1,137.6,453.7,124.5,444.3,115.1L444.3,115.1z M409.8,121.4h-33.1
		c-11.9,0-21.6-9.7-21.6-21.6V66.8L409.8,121.4z M362.9,443.9c0,12-9.7,21.7-21.7,21.7H103.4c-11.9,0-21.7-9.7-21.7-21.7V135.6
		c0-12,9.7-21.7,21.7-21.7h17v262.5c0,27.8,22.7,50.5,50.5,50.5h192L362.9,443.9z M430.3,376.4c0,12-9.7,21.7-21.7,21.7H170.9
		c-12,0-21.7-9.7-21.7-21.7V68.2c0-12,9.7-21.8,21.7-21.8h154.9c0.2,0,0.4,0.1,0.6,0.1v53.3c0,27.8,22.6,50.4,50.4,50.4h53.3
		c0,0.2,0.1,0.4,0.1,0.6L430.3,376.4L430.3,376.4z"/>
	<path class="st0" d="M211.6,220.4h62.2c8,0,14.4-6.4,14.4-14.4s-6.4-14.4-14.4-14.4h-62.2c-8,0-14.4,6.4-14.4,14.4
		S203.7,220.4,211.6,220.4L211.6,220.4z"/>
	<path class="st0" d="M367.8,259.8H211.6c-8,0-14.4,6.4-14.4,14.4s6.4,14.4,14.4,14.4h156.2c8,0,14.4-6.4,14.4-14.4
		S375.7,259.8,367.8,259.8z"/>
	<path class="st0" d="M335,328H211.6c-8,0-14.4,6.4-14.4,14.4s6.4,14.4,14.4,14.4H335c8,0,14.4-6.4,14.4-14.4S342.9,328,335,328z"/>
</g>
</svg>
