<?xml version="1.0" encoding="utf-8"?>
<!-- Generator: Adobe Illustrator 24.1.3, SVG Export Plug-In . SVG Version: 6.00 Build 0)  -->
<svg version="1.1" id="Capa_1" xmlns="http://www.w3.org/2000/svg" xmlns:xlink="http://www.w3.org/1999/xlink" x="0px" y="0px"
	 viewBox="0 0 488.7 488.7" style="enable-background:new 0 0 488.7 488.7;" xml:space="preserve">
<style type="text/css">
	.st0{fill:#FFFFFF;}
</style>
<g>
	<g>
		<path class="st0" d="M483.6,222c-5-10.4-13.4-18.7-23.8-23.8L73.5,11.3C48.1-1,17.5,9.6,5.1,35.1c-6.3,13-6.8,28-1.5,41.4
			l67.2,167.9L3.7,412.3c-10.5,26.3,2.4,56.2,28.7,66.6c6,2.4,12.3,3.6,18.7,3.6c7.8,0,15.4-1.8,22.4-5.1l386.3-187
			C485.3,278.1,495.9,247.5,483.6,222z M58.7,446.6c-8.5,4.1-18.7,0.6-22.8-7.9c-2.1-4.3-2.3-9.3-0.5-13.8l65.4-163.5h340.7
			L58.7,446.6z M100.8,227.3L35.4,63.8c-2.7-6.5-1-14,4.2-18.8c5.1-4.9,12.7-6.1,19.1-2.9l382.8,185.2L100.8,227.3L100.8,227.3z"/>
	</g>
</g>
</svg>
