<?xml version="1.0" encoding="utf-8"?>
<!-- Generator: Adobe Illustrator 24.1.3, SVG Export Plug-In . SVG Version: 6.00 Build 0)  -->
<svg version="1.1" id="Layer_1" xmlns="http://www.w3.org/2000/svg" xmlns:xlink="http://www.w3.org/1999/xlink" x="0px" y="0px"
	 viewBox="0 0 1080 1080" style="enable-background:new 0 0 1080 1080;" xml:space="preserve">
<style type="text/css">
	.st0{fill:#7CCED5;}
	.st1{opacity:0.2;}
	.st2{fill:#6C184E;}
	.st3{fill:#6F4E43;}
	.st4{fill:#FCB541;}
	.st5{fill:#FFFFFF;}
	.st6{opacity:0.3;}
	.st7{opacity:0.55;}
	.st8{fill:#4EBAEA;}
	.st9{opacity:0.45;}
	.st10{fill:#EF3F31;}
	.st11{fill:#7D6C6A;}
	.st12{fill:#D4DBE2;}
	.st13{fill:#FAA72C;}
</style>
<g id="Layer_5">
	<g>
		<g>
			<polygon class="st0" points="1093.3,1113.6 -23.1,1113.6 -4.8,-6.1 1111.6,-6.1 			"/>
		</g>
		<g>
			<g class="st1">
				<path class="st2" d="M964.1,792.1c0,12-187.5,21.7-418.8,21.7s-418.8-9.7-418.8-21.7c0-2.7,9.4-5.3,26.6-7.6h784.3
					C954.6,786.8,964.1,789.4,964.1,792.1z"/>
			</g>
			<g>
				<g>
					<rect x="239" y="688.8" class="st3" width="561.2" height="68"/>
					<path class="st2" d="M800.9,757.4H238.4v-69.3H801L800.9,757.4L800.9,757.4z M239.7,756.1h559.9v-66.7H239.7V756.1z"/>
				</g>
				<g>
					<path class="st4" d="M911.2,499.9v250.8c0,2.1-0.9,4.1-2.3,5.5c-1.4,1.4-3.4,2.3-5.5,2.3H791.7c-2.2,0-4.2-0.9-5.5-2.3
						c-1.4-1.4-2.3-3.3-2.3-5.5v-13.2c0-1,0-2-0.1-3c-0.3-4.7-1.5-9.3-3.3-13.5c-0.1-0.3-0.2-0.6-0.4-0.8c-1.2-2.6-2.6-5.1-4.3-7.4
						c-7.1-9.8-18.3-16.4-31.2-16.8c-8.6-0.3-16.6,2.1-23.3,6.4c-6.7,4.3-12.1,10.5-15.3,17.9c-0.1,0.3-0.2,0.5-0.3,0.8
						c-0.9,2.1-1.6,4.2-2.1,6.4c0,0,0,0,0,0.1c-0.1,0.5-0.2,1.1-0.3,1.7c-0.1,0.7-0.2,1.4-0.3,2.1c-0.2,1.1-0.2,2.1-0.3,3.2
						c0,0.7-0.1,1.4-0.1,2.1v14.2c0,4.3-3.5,7.8-7.8,7.8H448.1c-4.3,0-7.8-3.5-7.8-7.8v-13.2c0-1.7-0.1-3.5-0.3-5.2
						c-2.4-19.7-18.6-35.7-38.8-36.4c-21.7-0.8-39.8,15.5-41.9,36.4c-0.1,1.4-0.2,2.8-0.2,4.2v12.4c0,4.2-3.2,8.8-7.2,9.6h-10.4
						c-4.3,0-7.8-3.5-7.8-7.8v-13.2c0-0.7,0-1.4-0.1-2.1c0-0.5-0.1-1-0.1-1.5c0-0.2,0-0.5-0.1-0.7c-0.1-0.6-0.1-1.1-0.2-1.7
						c0-0.1,0-0.1,0-0.2c-0.1-0.7-0.2-1.3-0.3-2c-3.6-18.4-19.1-32.8-38.4-33.5c-23.1-0.8-42.1,17.7-42.1,40.6V749
						c0,4.9-4.5,8.6-9.4,7.6L144.6,740c-5.5-0.9-9.6-5.7-9.6-11.4V501.1c0-16.8,13.6-30.4,30.3-30.4H882
						C898.2,470.8,911.2,483.8,911.2,499.9z"/>
					<path class="st2" d="M903.4,759.2H791.7c-2.3,0-4.5-0.9-6-2.5c-1.6-1.6-2.4-3.7-2.4-5.9v-13.2c0-1.1,0-2.1-0.1-3
						c-0.3-4.6-1.4-9.1-3.2-13.3c-0.1-0.3-0.2-0.6-0.4-0.8c-1.2-2.6-2.6-5-4.2-7.3c-7.3-10.1-18.5-16.2-30.7-16.6
						c-8.2-0.3-16.1,1.9-23,6.3c-6.7,4.3-11.9,10.4-15.1,17.6c-0.1,0.3-0.2,0.5-0.3,0.8c-0.9,2-1.5,4.1-2,6.3v0.2
						c-0.1,0.5-0.2,1.1-0.3,1.6c-0.1,0.7-0.2,1.4-0.3,2.1c-0.1,1-0.2,2-0.3,3.2c0,0.7-0.1,1.4-0.1,2v14.2c0,4.7-3.8,8.5-8.5,8.5
						H448.1c-4.7,0-8.5-3.8-8.5-8.5v-13.2c0-1.7-0.1-3.4-0.3-5.1c-2.4-19.8-18.8-35.2-38.2-35.9c-21-0.8-39.1,15-41.3,35.9
						c-0.1,1.4-0.2,2.7-0.2,4.1v12.4c0,4.7-3.6,9.5-7.7,10.2h-10.6c-4.7,0-8.5-3.8-8.5-8.5v-13.2c0-0.7,0-1.4-0.1-2
						c0-0.5-0.1-1-0.1-1.5c0-0.2,0-0.4-0.1-0.6c-0.1-0.6-0.1-1-0.2-1.5l-0.1-0.4c-0.1-0.6-0.2-1.3-0.3-1.9
						c-3.7-18.8-19.2-32.4-37.8-33c-11-0.4-21.3,3.6-29.2,11.2c-7.9,7.6-12.2,17.8-12.2,28.8V749c0,2.6-1.1,4.9-3.1,6.5
						s-4.6,2.2-7.1,1.7l-98.3-16.6c-5.9-1-10.2-6-10.2-12V501.1c0-17.1,13.9-31,31-31h716.7c16.4,0,29.8,13.4,29.8,29.8v250.8
						c0,2.3-0.9,4.4-2.5,5.9C907.8,758.3,905.7,759.2,903.4,759.2z M743.2,695.3c0.5,0,1,0,1.5,0c12.6,0.4,24.1,6.7,31.7,17.1
						c1.7,2.3,3.1,4.9,4.3,7.5c0.1,0.3,0.3,0.6,0.4,0.9c1.9,4.3,3,8.9,3.3,13.7c0.1,0.9,0.1,1.9,0.1,3.1v13.2c0,1.9,0.7,3.7,2.1,5
						c1.3,1.4,3.2,2.1,5.1,2.1h111.7c1.9,0,3.8-0.8,5.1-2.1s2.1-3.1,2.1-5V499.9c0-15.7-12.8-28.5-28.5-28.5H165.3
						c-16.4,0-29.7,13.3-29.7,29.7v227.5c0,5.3,3.8,9.8,9.1,10.7l98.3,16.6c2.1,0.4,4.3-0.1,6-1.4c1.7-1.4,2.6-3.4,2.6-5.5v-12.4
						c0-11.3,4.5-21.9,12.6-29.7c8.1-7.9,18.9-12,30.2-11.6c19.2,0.7,35.2,14.7,39,34.1c0.1,0.7,0.3,1.4,0.3,2l0.1,0.4
						c0.1,0.5,0.1,1,0.2,1.5c0,0.3,0.1,0.5,0.1,0.7c0,0.5,0.1,1,0.1,1.5c0,0.7,0.1,1.4,0.1,2.1v13.2c0,3.9,3.2,7.1,7.2,7.1h10.4
						c3.4-0.6,6.5-4.9,6.5-8.9v-12.4c0-1.4,0.1-2.9,0.2-4.3c2.2-21.5,20.9-37.8,42.6-37c20,0.7,37,16.6,39.5,37
						c0.2,1.7,0.3,3.5,0.3,5.2v13.2c0,3.9,3.2,7.1,7.1,7.1h246.6c3.9,0,7.2-3.2,7.2-7.1v-14.2c0-0.7,0-1.4,0.1-2.1
						c0.1-1.2,0.2-2.3,0.3-3.3c0.1-0.7,0.2-1.4,0.3-2.1c0.1-0.5,0.2-1.1,0.3-1.6v-0.1c0.5-2.3,1.2-4.5,2.1-6.6
						c0.1-0.3,0.2-0.6,0.3-0.8c3.3-7.5,8.7-13.7,15.6-18.2C727.6,697.5,735.3,695.3,743.2,695.3z"/>
				</g>
				<g>
					<path class="st5" d="M911.2,679.2v37.5H780.5c-0.1-0.3-0.2-0.6-0.4-0.8c-1.2-2.6-2.6-5.1-4.3-7.4c-7.1-9.8-18.3-16.4-31.2-16.8
						c-8.6-0.3-16.6,2.1-23.3,6.4c-6.7,4.3-12.1,10.5-15.3,17.9c-0.1,0.3-0.2,0.5-0.3,0.8H512.5c-4.6,0-9-2.2-11.8-5.9l-23.4-31.6
						l-9.2-12.4c-2.8-3.7-7.1-5.9-11.7-5.9H135v-37.5h340.3c4.6,0,9,2.2,11.7,5.9l23.4,31.6l9.2,12.4c2.8,3.7,7.1,5.9,11.8,5.9
						h379.8V679.2z"/>
				</g>
				<g class="st6">
					<path class="st2" d="M250.1,728.2h3c-0.6,2.7-0.9,5.5-0.9,8.4V749c0,4.9-4.5,8.6-9.4,7.6L144.6,740c-5.6-0.9-9.6-5.7-9.6-11.4
						v-14.5h11.2l96.7,16.3C245.7,731,248.4,730,250.1,728.2z"/>
				</g>
				<g class="st6">
					<path class="st3" d="M341.4,732.4h17.8c-0.1,1.4-0.2,2.8-0.2,4.2V749c0,4.2-3.2,8.8-7.2,9.6h-10.4c-4.3,0-7.8-3.5-7.8-7.8
						v-13.2c0-0.7,0-1.4-0.1-2.1c0-0.5-0.1-1-0.1-1.5c0-0.2,0-0.5-0.1-0.7c-0.1-0.6-0.1-1.1-0.2-1.7c0-0.1,0-0.1,0-0.2
						c-0.1-0.7-0.2-1.3-0.3-2c-0.1-0.4-0.2-0.9-0.3-1.3h1.9C335.7,730.7,338.4,732.4,341.4,732.4z"/>
					<path class="st2" d="M341.4,759.2c-4.7,0-8.5-3.8-8.5-8.5v-13.2c0-0.7,0-1.4-0.1-2c0-0.5-0.1-1-0.1-1.5c0-0.2,0-0.4-0.1-0.6
						c-0.1-0.6-0.1-1.2-0.2-1.7v-0.2c-0.1-0.7-0.2-1.3-0.3-1.9c-0.1-0.4-0.2-0.9-0.3-1.3l-0.2-0.8h3.1l0.2,0.4
						c1.2,2.4,3.7,3.9,6.4,3.9h18.5l-0.1,0.7c-0.1,1.4-0.2,2.7-0.2,4.1V749c0,4.7-3.6,9.5-7.7,10.2L341.4,759.2z M333.3,728.8
						c0,0.2,0.1,0.4,0.1,0.5c0.1,0.7,0.2,1.3,0.3,2v0.2c0.1,0.6,0.1,1.1,0.2,1.7c0,0.3,0.1,0.5,0.1,0.7c0,0.5,0.1,1,0.1,1.5
						c0,0.7,0.1,1.4,0.1,2.1v13.2c0,3.9,3.2,7.1,7.2,7.1h10.4c3.4-0.6,6.5-4.9,6.5-8.9v-12.4c0-1.2,0-2.4,0.1-3.5h-17.1
						c-3,0-5.8-1.6-7.3-4.2L333.3,728.8L333.3,728.8z"/>
				</g>
				<g class="st6">
					<path class="st2" d="M703.6,727.5L703.6,727.5c-0.1,0.6-0.2,1.2-0.4,1.7c-0.1,0.7-0.2,1.4-0.3,2.1c-0.1,1.1-0.2,2.1-0.3,3.2
						c0,0.7-0.1,1.4-0.1,2.1v14.2c0,4.3-3.5,7.8-7.8,7.8H448.1c-4.3,0-7.8-3.5-7.8-7.8v-13.2c0-1.7-0.1-3.5-0.3-5.2h254.8
						c3.3,0,6.1-2,7.3-4.9L703.6,727.5L703.6,727.5z"/>
				</g>
				<g class="st6">
					<path class="st2" d="M911.2,730v22c0,1.8-0.9,3.4-2.3,4.6c-1.4,1.2-3.4,2-5.6,2H791.7c-2.2,0-4.2-0.8-5.6-2
						c-1.4-1.2-2.3-2.8-2.3-4.6v-11.1c0-0.9,0-1.7-0.1-2.6c-0.2-2-0.5-4-1.1-5.9h1.8c0.4,0.8,1,1.6,1.7,2.2c1.4,1.2,3.4,2,5.6,2
						h111.7c2.2,0,4.2-0.8,5.6-2C910.3,733.4,911.2,731.8,911.2,730z"/>
				</g>
				<g class="st7">
					<path class="st5" d="M911.2,499.9v11.8c0-16.1-13-29.1-29.1-29.1H165.3c-16.7,0-30.3,13.6-30.3,30.3v-11.8
						c0-16.8,13.6-30.3,30.3-30.3H882C898.2,470.8,911.2,483.8,911.2,499.9z"/>
				</g>
				<g>
					<path class="st8" d="M892.4,677.1h18.8V499.9h-23.4c-5.5,0-10,4.5-10,10v152.6C877.8,670.6,884.3,677.1,892.4,677.1z"/>
				</g>
				<g class="st6">
					<path class="st2" d="M904,677.1h-11.6c-8,0-14.6-6.5-14.6-14.6V509.9c0-5.5,4.5-10,10-10h11.6c-5.5,0-10,4.5-10,10v152.6
						C889.4,670.6,895.9,677.1,904,677.1z"/>
				</g>
				<g>
					<path class="st8" d="M665.7,588.5h64.9c6.5,0,11.8-5.3,11.8-11.8v-64.9c0-6.5-5.3-11.8-11.8-11.8h-64.9
						c-6.5,0-11.8,5.3-11.8,11.8v64.9C653.9,583.2,659.2,588.5,665.7,588.5z"/>
				</g>
				<g>
					<path class="st8" d="M556.5,588.5h64.9c6.5,0,11.8-5.3,11.8-11.8v-64.9c0-6.5-5.3-11.8-11.8-11.8h-64.9
						c-6.5,0-11.8,5.3-11.8,11.8v64.9C544.6,583.2,549.9,588.5,556.5,588.5z"/>
				</g>
				<g>
					<path class="st8" d="M447.2,588.5h64.9c6.5,0,11.8-5.3,11.8-11.8v-64.9c0-6.5-5.3-11.8-11.8-11.8h-64.9
						c-6.5,0-11.8,5.3-11.8,11.8v64.9C435.4,583.2,440.7,588.5,447.2,588.5z"/>
				</g>
				<g>
					<path class="st8" d="M338,588.5h64.9c6.5,0,11.8-5.3,11.8-11.8v-64.9c0-6.5-5.3-11.8-11.8-11.8H338c-6.5,0-11.8,5.3-11.8,11.8
						v64.9C326.2,583.2,331.5,588.5,338,588.5z"/>
				</g>
				<g>
					<path class="st8" d="M305.5,511.7v64.9c0,4-1.9,7.5-4.9,9.6c-1.9,1.4-4.4,2.2-6.9,2.2h-64.9c-6.5,0-11.8-5.3-11.8-11.8v-64.9
						c0-5.8,4.2-10.6,9.7-11.6c0.7-0.1,1.4-0.2,2.2-0.2h64.9C300.2,499.9,305.5,505.2,305.5,511.7z"/>
				</g>
				<g class="st9">
					<path class="st5" d="M289.6,588.5h-29.1L217,527.4v-15.7c0-5.8,4.2-10.6,9.7-11.6L289.6,588.5z"/>
				</g>
				<g class="st9">
					<path class="st5" d="M305.5,564.8v11.9c0,4-1.9,7.5-4.9,9.6L239,499.9h20.2L305.5,564.8z"/>
				</g>
				<g class="st9">
					<path class="st5" d="M398.8,588.5h-29.1l-43.5-61.1v-15.7c0-5.8,4.2-10.6,9.7-11.6L398.8,588.5z"/>
				</g>
				<g class="st9">
					<path class="st5" d="M414.8,564.8v11.9c0,4-1.9,7.5-4.9,9.6l-61.6-86.4h20.2L414.8,564.8z"/>
				</g>
				<g class="st9">
					<path class="st5" d="M508.1,588.5H479l-43.5-61.1v-15.7c0-5.8,4.2-10.6,9.7-11.6L508.1,588.5z"/>
				</g>
				<g class="st9">
					<path class="st5" d="M524,564.8v11.9c0,4-1.9,7.5-4.9,9.6l-61.6-86.4h20.2L524,564.8z"/>
				</g>
				<g class="st9">
					<path class="st5" d="M617.3,588.5h-29.1l-43.5-61.1v-15.7c0-5.8,4.2-10.6,9.7-11.6L617.3,588.5z"/>
				</g>
				<g class="st9">
					<path class="st5" d="M633.2,564.8v11.9c0,4-1.9,7.5-4.9,9.6l-61.6-86.4H587L633.2,564.8z"/>
				</g>
				<g class="st9">
					<path class="st5" d="M726.6,588.5h-29.1L654,527.4v-15.7c0-5.8,4.2-10.6,9.7-11.6L726.6,588.5z"/>
				</g>
				<g class="st9">
					<path class="st5" d="M742.5,564.8v11.9c0,4-1.9,7.5-4.9,9.6L676,499.9h20.2L742.5,564.8z"/>
				</g>
				<g class="st6">
					<g>
						<path class="st2" d="M742.3,510h-65.1c-6.5,0-11.8,5.3-11.8,11.8v64.9c0,0.6,0,1.2,0.1,1.7c-6.4-0.1-11.7-5.4-11.7-11.8v-64.9
							c0-6.5,5.3-11.8,11.8-11.8h64.9C736.6,499.9,741.5,504.3,742.3,510z"/>
					</g>
					<g>
						<path class="st2" d="M633.1,510H568c-6.5,0-11.8,5.3-11.8,11.8v64.9c0,0.6,0,1.2,0.1,1.7c-6.4-0.1-11.7-5.4-11.7-11.8v-64.9
							c0-6.5,5.3-11.8,11.8-11.8h64.9C627.4,499.9,632.3,504.3,633.1,510z"/>
					</g>
					<g>
						<path class="st2" d="M523.9,510h-65.1c-6.5,0-11.8,5.3-11.8,11.8v64.9c0,0.6,0,1.2,0.1,1.7c-6.4-0.1-11.7-5.4-11.7-11.8v-64.9
							c0-6.5,5.3-11.8,11.8-11.8h64.9C518.1,499.9,523.1,504.3,523.9,510z"/>
					</g>
					<g>
						<path class="st2" d="M414.6,510h-65.1c-6.5,0-11.8,5.3-11.8,11.8v64.9c0,0.6,0,1.2,0.1,1.7c-6.4-0.1-11.7-5.4-11.7-11.8v-64.9
							c0-6.5,5.3-11.8,11.8-11.8h64.9C408.9,499.9,413.8,504.3,414.6,510z"/>
					</g>
					<g>
						<path class="st2" d="M305.4,510h-65.1c-6.5,0-11.8,5.3-11.8,11.8v64.9c0,0.6,0,1.2,0.1,1.7c-6.4-0.1-11.7-5.4-11.7-11.8v-64.9
							c0-6.5,5.3-11.8,11.8-11.8h64.9C299.6,499.9,304.6,504.3,305.4,510z"/>
					</g>
				</g>
				<g class="st7">
					<g>
						<path class="st5" d="M751.9,521.7v64.9c0,6.5-5.3,11.8-11.8,11.8h-64.9c-6,0-10.9-4.4-11.7-10.2c0.8,0.1,1.5,0.2,2.3,0.2h64.9
							c6.5,0,11.8-5.3,11.8-11.8v-64.9c0-0.5,0-1.1-0.1-1.6C747.8,511.2,751.9,516,751.9,521.7z"/>
					</g>
					<g>
						<path class="st5" d="M642.6,521.7v64.9c0,6.5-5.3,11.8-11.8,11.8h-64.9c-6,0-10.9-4.4-11.7-10.2c0.8,0.1,1.5,0.2,2.3,0.2h64.9
							c6.5,0,11.8-5.3,11.8-11.8v-64.9c0-0.5,0-1.1-0.1-1.6C638.6,511.2,642.6,516,642.6,521.7z"/>
					</g>
					<g>
						<path class="st5" d="M533.4,521.7v64.9c0,6.5-5.3,11.8-11.8,11.8h-64.9c-6,0-10.9-4.4-11.7-10.2c0.8,0.1,1.5,0.2,2.3,0.2h64.9
							c6.5,0,11.8-5.3,11.8-11.8v-64.9c0-0.5,0-1.1-0.1-1.6C529.3,511.2,533.4,516,533.4,521.7z"/>
					</g>
					<g>
						<path class="st5" d="M424.2,521.7v64.9c0,6.5-5.3,11.8-11.8,11.8h-64.9c-6,0-10.9-4.4-11.7-10.2c0.8,0.1,1.5,0.2,2.3,0.2H403
							c6.5,0,11.8-5.3,11.8-11.8v-64.9c0-0.5,0-1.1-0.1-1.6C420.1,511.2,424.2,516,424.2,521.7z"/>
					</g>
					<g>
						<path class="st5" d="M314.9,521.7v64.9c0,6.5-5.3,11.8-11.8,11.8h-64.9c-6,0-10.9-4.4-11.7-10.2c0.8,0.1,1.5,0.2,2.3,0.2h64.9
							c6.5,0,11.8-5.3,11.8-11.8v-64.9c0-0.5,0-1.1-0.1-1.6C310.8,511.2,314.9,516,314.9,521.7z"/>
					</g>
				</g>
				<g>
					<path class="st8" d="M166,511.7v64.9c0,1.1-0.2,2.3-0.5,3.3c-1,3.6-3.8,6.5-7.3,7.8c-1.3,0.5-2.7,0.7-4.1,0.7H135v-88.6h19.1
						C160.7,499.9,166,505.2,166,511.7z"/>
				</g>
				<g class="st7">
					<path class="st5" d="M174.7,519.9v64.9c0,6.5-5.3,11.8-11.8,11.8H152c-4.6,0-8.3-3.7-8.3-8.3v-1.9H154
						c6.5,0,11.8-5.3,11.8-11.8v-64.9c0-0.5,0-0.9-0.1-1.3C171,509.7,174.7,514.4,174.7,519.9z"/>
				</g>
				<g class="st9">
					<path class="st5" d="M165.5,580c-1,3.6-3.8,6.5-7.3,7.8l-6.2-1.5l-17-23.8v-25.2L165.5,580z"/>
				</g>
				<g class="st9">
					<polygon class="st5" points="166,544.9 166,563 135,519.6 135,503.1 136.1,503.1 					"/>
				</g>
				<g>
					<path class="st2" d="M911.2,681.7h-18.8c-10.5,0-19.1-8.6-19.1-19.1V509.9c0-8,6.5-14.6,14.6-14.6h23.4c2.5,0,4.6,2,4.6,4.6
						v177.2C915.7,679.6,913.7,681.7,911.2,681.7z M887.8,504.4c-3,0-5.5,2.5-5.5,5.5v152.6c0,5.5,4.5,10,10,10h14.3V504.4H887.8z"
						/>
				</g>
				<g>
					<path class="st10" d="M146.5,619.1H135v98.3h11.5c5,0,9.1-4.1,9.1-9.1v-80.1C155.6,623.2,151.6,619.1,146.5,619.1z"/>
				</g>
				<g class="st6">
					<path class="st2" d="M155.6,692.7v15.7c0,5-4.1,9.1-9.1,9.1H135v-15.7h11.5C151.6,701.8,155.6,697.7,155.6,692.7z"/>
				</g>
				<g class="st7">
					<path class="st5" d="M865.2,510.7v207.7c0,8.9-7.2,16.1-16.1,16.1h-8.3c8.9,0,16.1-7.2,16.1-16.1V510.7c0-6-4.8-10.8-10.8-10.8
						h8.3C860.4,499.9,865.2,504.7,865.2,510.7z"/>
				</g>
				<g class="st7">
					<path class="st5" d="M155.6,628.2v11.4c0-5-4.1-9.1-9.1-9.1H135v-11.4h11.5C151.6,619.1,155.6,623.2,155.6,628.2z"/>
				</g>
				<g>
					<path class="st8" d="M856.9,510.7V621h-88.6V510.7c0-3.2,1.4-6.1,3.6-8c1.9-1.7,4.4-2.8,7.2-2.8h67.1
						C852.1,499.9,856.9,504.7,856.9,510.7z"/>
				</g>
				<g>
					<path class="st2" d="M146.5,722H135c-2.5,0-4.6-2-4.6-4.6v-98.3c0-2.5,2-4.6,4.6-4.6h11.5c7.5,0,13.7,6.1,13.7,13.7v80.1
						C160.2,715.9,154.1,722,146.5,722z M139.6,712.9h7c2.5,0,4.6-2,4.6-4.6v-80.1c0-2.5-2-4.6-4.6-4.6h-7V712.9z"/>
				</g>
				<g>
					<path class="st2" d="M155.6,693.3H135c-2.5,0-4.6-2-4.6-4.6v-32.3c0-2.5,2-4.6,4.6-4.6h20.6c2.5,0,4.6,2,4.6,4.6v32.3
						C160.2,691.3,158.1,693.3,155.6,693.3z M139.6,684.2h11.5V661h-11.5V684.2z"/>
				</g>
				<g class="st9">
					<path class="st5" d="M840.1,621h-35l-36.8-63.8v-46.5c0-3.2,1.4-6.1,3.6-8L840.1,621z"/>
				</g>
				<g class="st9">
					<polygon class="st5" points="856.9,574.2 856.9,613.2 791.5,499.9 814,499.9 					"/>
				</g>
				<g>
					<path class="st2" d="M840.8,739h-28.9c-8.2,0-15.3-5.7-17.3-13.8c-3.1-13-11.1-24.1-22.4-31.4c-5.3-3.4-8.5-9.1-8.5-15.2v-168
						c0-8.5,6.9-15.3,15.3-15.3h67.1c8.5,0,15.3,6.9,15.3,15.3v207.7C861.4,729.8,852.2,739,840.8,739z M779,504.4
						c-3.4,0-6.2,2.8-6.2,6.2v168c0,3,1.6,5.8,4.3,7.5c13.3,8.5,22.7,21.6,26.4,36.9c1,4,4.4,6.9,8.4,6.9h28.9
						c6.4,0,11.6-5.2,11.6-11.6V510.7c0-3.4-2.8-6.2-6.2-6.2H779V504.4z"/>
				</g>
				<g>
					<path class="st2" d="M730.6,593h-64.9c-9,0-16.4-7.4-16.4-16.4v-64.9c0-9,7.4-16.4,16.4-16.4h64.9c9,0,16.4,7.4,16.4,16.4v64.9
						C747,585.7,739.7,593,730.6,593z M665.7,504.4c-4,0-7.3,3.3-7.3,7.3v64.9c0,4,3.3,7.3,7.3,7.3h64.9c4,0,7.3-3.3,7.3-7.3v-64.9
						c0-4-3.3-7.3-7.3-7.3H665.7z"/>
				</g>
				<g>
					<path class="st2" d="M621.4,593h-64.9c-9,0-16.4-7.4-16.4-16.4v-64.9c0-9,7.4-16.4,16.4-16.4h64.9c9,0,16.4,7.4,16.4,16.4v64.9
						C637.8,585.7,630.4,593,621.4,593z M556.5,504.4c-4,0-7.3,3.3-7.3,7.3v64.9c0,4,3.3,7.3,7.3,7.3h64.9c4,0,7.3-3.3,7.3-7.3
						v-64.9c0-4-3.3-7.3-7.3-7.3H556.5z"/>
				</g>
				<g>
					<path class="st2" d="M512.2,593h-64.9c-9,0-16.4-7.4-16.4-16.4v-64.9c0-9,7.4-16.4,16.4-16.4h64.9c9,0,16.4,7.4,16.4,16.4v64.9
						C528.6,585.7,521.2,593,512.2,593z M447.2,504.4c-4,0-7.3,3.3-7.3,7.3v64.9c0,4,3.3,7.3,7.3,7.3h64.9c4,0,7.3-3.3,7.3-7.3
						v-64.9c0-4-3.3-7.3-7.3-7.3H447.2z"/>
				</g>
				<g>
					<path class="st2" d="M402.9,593H338c-9,0-16.4-7.4-16.4-16.4v-64.9c0-9,7.4-16.4,16.4-16.4h64.9c9,0,16.4,7.4,16.4,16.4v64.9
						C419.3,585.7,412,593,402.9,593z M338,504.4c-4,0-7.3,3.3-7.3,7.3v64.9c0,4,3.3,7.3,7.3,7.3h64.9c4,0,7.3-3.3,7.3-7.3v-64.9
						c0-4-3.3-7.3-7.3-7.3H338z"/>
				</g>
				<g>
					<path class="st2" d="M293.7,593h-64.9c-9,0-16.4-7.4-16.4-16.4v-64.9c0-9,7.4-16.4,16.4-16.4h64.9c9,0,16.4,7.4,16.4,16.4v64.9
						C310.1,585.7,302.7,593,293.7,593z M228.8,504.4c-4,0-7.3,3.3-7.3,7.3v64.9c0,4,3.3,7.3,7.3,7.3h64.9c4,0,7.3-3.3,7.3-7.3
						v-64.9c0-4-3.3-7.3-7.3-7.3H228.8z"/>
				</g>
				<g>
					<path class="st2" d="M154.1,593.1H135c-2.5,0-4.6-2-4.6-4.6c0-2.5,2-4.6,4.6-4.6h19.1c4,0,7.3-3.3,7.3-7.3v-64.9
						c0-4-3.3-7.3-7.3-7.3H135c-2.5,0-4.6-2-4.6-4.6c0-2.5,2-4.6,4.6-4.6h19.1c9,0,16.4,7.4,16.4,16.4v64.9
						C170.5,585.7,163.2,593.1,154.1,593.1z"/>
				</g>
				<g>
					<path class="st2" d="M856.9,625.5h-88.6c-2.5,0-4.6-2-4.6-4.6c0-2.5,2-4.6,4.6-4.6h88.6c2.5,0,4.6,2,4.6,4.6
						C861.4,623.5,859.4,625.5,856.9,625.5z"/>
				</g>
				<g>
					<path class="st2" d="M789.1,659.7h-4.6c-2,0-3.6-1.6-3.6-3.6v-17.3c0-2,1.6-3.6,3.6-3.6h4.6c2,0,3.6,1.6,3.6,3.6V656
						C792.7,658,791.1,659.7,789.1,659.7z"/>
				</g>
				<g>
					<path class="st2" d="M350.7,763.4c-0.5,0-1,0-1.5-0.1h-7.8c-6.9,0-12.6-5.6-12.6-12.6v-13.2c0-19.6-15.5-36.1-34.6-36.8
						c-9.8-0.4-19.1,3.2-26.2,10s-11,16-11,25.8v12.4c0,3.8-1.7,7.3-4.6,9.8c-2.9,2.4-6.7,3.3-10.4,2.6l-98.2-16.6
						c-7.9-1.3-13.6-8.1-13.6-16.1V501.1c0-19.4,15.8-35.1,35.1-35.1H882c18.7,0,33.9,15.2,33.9,33.9v250.8
						c0,6.9-5.6,12.6-12.6,12.6H791.7c-6.9,0-12.6-5.6-12.6-12.6v-13.2c0-19.6-15.5-36.2-34.6-36.8c-9.8-0.4-19.2,3.2-26.2,10.1
						c-7.1,6.8-11,16-11,25.8v14.2c0,6.9-5.6,12.6-12.6,12.6H448.1c-6.9,0-12.6-5.6-12.6-12.6v-13.2c0-1.5-0.1-3.1-0.3-4.5
						c-2.2-17.8-16.9-31.7-34.3-32.3c-18.9-0.7-35.1,13.5-37,32.2c-0.1,1.2-0.2,2.5-0.2,3.7v12.4c0,6.6-5,13.1-10.9,14.3
						c-0.1,0-0.1,0-0.2,0C352,763.4,351.4,763.4,350.7,763.4z M743.2,691.1c0.5,0,1.1,0,1.6,0c24.2,0.9,43.8,21.7,43.8,46.4v13.2
						c0,1.7,1.4,3,3,3h111.7c1.7,0,3-1.4,3-3V499.9c0-13.4-10.9-24.3-24.4-24.3H165.3c-14.1,0-25.6,11.5-25.6,25.6v227.5
						c0,3.3,2.4,6.1,5.6,6.7l98.3,16.6c0.1,0,0.1,0,0.2,0c1.2,0.3,2.1-0.3,2.5-0.6s1.1-1.1,1.1-2.3v-12.4c0-12.4,4.9-24,13.9-32.7
						c9-8.6,20.7-13.2,33.2-12.7c24.1,0.9,43.8,21.7,43.8,46.4v13.2c0,1.7,1.4,3,3,3h8.1c0.1,0,0.1,0,0.2,0h1.5c1.4-0.6,3-2.8,3-4.8
						v-12.4c0-1.6,0.1-3.1,0.2-4.7c2.4-23.7,23-41.6,46.9-40.7c22,0.8,40.7,18.3,43.4,40.6c0.2,1.9,0.4,3.8,0.4,5.7v13.2
						c0,1.7,1.4,3,3,3h246.7c1.7,0,3-1.4,3-3v-14.2c0-12.4,4.9-24,13.9-32.7C720.2,695.6,731.4,691.1,743.2,691.1z"/>
				</g>
				<g>
					<path class="st4" d="M920.3,710.5h-24.2c-3.4,0-6.1,2.8-6.1,6.1v41.9h14.9c12.9,0,23.3-10.5,23.3-23.3v-16.8
						C928.2,714,924.6,710.5,920.3,710.5z"/>
					<path class="st2" d="M904.8,759.2h-15.5v-42.6c0-3.7,3.1-6.8,6.8-6.8h24.2c4.7,0,8.5,3.8,8.5,8.5v16.8
						C928.8,748.4,918.1,759.2,904.8,759.2z M890.6,757.9h14.2c12.5,0,22.7-10.2,22.7-22.7v-16.8c0-4-3.2-7.2-7.2-7.2h-24.2
						c-3,0-5.5,2.5-5.5,5.5V757.9z"/>
				</g>
				<g class="st6">
					<path class="st2" d="M904.8,736.3h-14.9v24.9h14.9c12.9,0,23.3-10.5,23.3-23.3V721c0-1-0.2-2-0.6-3
						C925.3,728.5,916,736.3,904.8,736.3z"/>
				</g>
				<g class="st7">
					<path class="st5" d="M928.2,718.4v11.5c0-4.4-3.5-7.9-7.9-7.9h-24.2c-3.4,0-6.2,2.7-6.2,6.1v-11.5c0-3.4,2.7-6.1,6.2-6.1h24.2
						C924.6,710.5,928.2,714,928.2,718.4z"/>
				</g>
				<g>
					<path class="st2" d="M904.8,763.3h-14.9c-2.6,0-4.8-2.1-4.8-4.8v-41.9c0-6,4.9-10.9,10.9-10.9h24.2c7,0,12.7,5.7,12.7,12.7
						v16.8C933,750.7,920.3,763.3,904.8,763.3z M894.7,753.8h10.1c10.2,0,18.6-8.3,18.6-18.6v-16.8c0-1.7-1.4-3.1-3.1-3.1h-24.2
						c-0.8,0-1.4,0.6-1.4,1.4L894.7,753.8L894.7,753.8z"/>
				</g>
				<g>
					<path class="st4" d="M959.6,513.5V547c0,8.2-6.6,14.8-14.8,14.8c-3.9,0-7-3.1-7-7v-38.2h-80.9v-9.8c0-3.8,3.1-6.9,6.9-6.9H946
						C953.5,499.9,959.6,506,959.6,513.5z"/>
					<path class="st2" d="M944.7,562.5c-4.2,0-7.7-3.4-7.7-7.7v-37.5h-80.9v-10.5c0-4.2,3.4-7.6,7.6-7.6H946
						c7.9,0,14.3,6.4,14.3,14.3V547C960.2,555.5,953.3,562.5,944.7,562.5z M857.5,516h80.9v38.8c0,3.5,2.8,6.3,6.3,6.3
						c7.8,0,14.2-6.4,14.2-14.2v-33.5c0-7.1-5.8-13-13-13h-82.2c-3.5,0-6.3,2.8-6.3,6.3L857.5,516L857.5,516z"/>
				</g>
				<g class="st7">
					<path class="st5" d="M959.6,513.5v7.3c0-7.5-6.1-13.6-13.6-13.6h-82.2c-3.8,0-6.9,3.1-6.9,6.9v-7.3c0-3.8,3.1-6.9,6.9-6.9H946
						C953.5,499.9,959.6,506,959.6,513.5z"/>
				</g>
				<g class="st6">
					<path class="st2" d="M959.6,529.1V547c0,8.2-6.6,14.8-14.8,14.8c-3.9,0-7-3.1-7-7v-17.9c0,3.9,3.1,7,7,7
						C952.9,543.9,959.6,537.3,959.6,529.1z"/>
				</g>
				<g>
					<path class="st2" d="M944.7,566.4c-6.4,0-11.6-5.2-11.6-11.6v-33.6h-76.3c-2.5,0-4.6-2-4.6-4.6v-9.8c0-6.3,5.2-11.5,11.5-11.5
						H946c10,0,18.2,8.1,18.2,18.2V547C964.1,557.7,955.4,566.4,944.7,566.4z M861.4,512.1h76.3c2.5,0,4.6,2,4.6,4.6v38.2
						c0,1.4,1.1,2.5,2.5,2.5c5.7,0,10.3-4.6,10.3-10.3v-33.5c0-5-4.1-9.1-9.1-9.1h-82.2c-1.3,0-2.4,1.1-2.4,2.4L861.4,512.1
						L861.4,512.1z"/>
				</g>
				<g>
					<g>
						<path class="st11" d="M782.3,740.1c2.7,21.6-12.6,41.4-34.2,44.1c-21.6,2.7-41.4-12.6-44.1-34.2c-0.7-5.2-0.3-10.2,1-15l0,0
							c4-15.1,16.8-27.1,33.3-29.1c19-2.4,36.5,9.1,42.4,26.7C781.4,734.9,782,737.4,782.3,740.1z"/>
					</g>
					<g>
						<path class="st2" d="M743.1,789.2c-22,0-41.1-16.4-43.9-38.7c-3-24.2,14.2-46.4,38.4-49.4s46.4,14.2,49.4,38.4
							s-14.2,46.4-38.4,49.4C746.8,789.1,745,789.2,743.1,789.2z M743.2,710.3c-1.5,0-2.9,0.1-4.4,0.3c-19,2.4-32.5,19.8-30.1,38.8
							s19.8,32.5,38.8,30.1c9.2-1.2,17.4-5.8,23.1-13.1c5.7-7.3,8.2-16.4,7-25.6c-1.2-9.2-5.8-17.4-13.1-23.1
							C758.3,712.8,750.9,710.3,743.2,710.3z"/>
					</g>
					<g>
						<ellipse class="st12" cx="743.2" cy="745" rx="20.6" ry="20.6"/>
						<path class="st2" d="M743.1,766.2c-10.5,0-19.7-7.9-21.1-18.6c-0.7-5.6,0.8-11.2,4.3-15.7s8.5-7.3,14.1-8s11.2,0.8,15.7,4.3
							s7.3,8.5,8,14.1c1.5,11.6-6.8,22.3-18.4,23.7C744.9,766.2,744,766.2,743.1,766.2z M743.2,725.1c-0.8,0-1.7,0.1-2.5,0.2
							c-5.3,0.7-10,3.3-13.3,7.5s-4.7,9.4-4,14.7c1.4,10.9,11.4,18.7,22.3,17.3c10.9-1.4,18.7-11.4,17.3-22.3l0,0
							c-0.7-5.3-3.3-10-7.5-13.3C751.9,726.5,747.6,725.1,743.2,725.1z"/>
					</g>
					<g class="st6">
						<path class="st2" d="M763.6,742.5c-4.2-6.2-11.7-10-19.7-8.9c-11.3,1.4-19.2,11.7-17.9,22.9c-1.7-2.6-2.9-5.6-3.3-8.9
							c-1.4-11.3,6.6-21.6,17.8-23c11.3-1.4,21.6,6.6,23,17.8C763.6,742.4,763.6,742.5,763.6,742.5z"/>
					</g>
					<g>
						<circle class="st2" cx="743.2" cy="745" r="5.7"/>
					</g>
					<g>
						<ellipse class="st2" cx="743.2" cy="733.5" rx="2.5" ry="2.5"/>
					</g>
					<g>
						<ellipse class="st2" cx="743.2" cy="756.4" rx="2.5" ry="2.5"/>
					</g>
					<g>
						<path class="st2" d="M734.2,737c1.3,0.5,1.8,2,1.3,3.2c-0.5,1.3-2,1.8-3.2,1.3c-1.3-0.5-1.8-2-1.3-3.2S732.9,736.5,734.2,737z
							"/>
					</g>
					<g>
						<path class="st2" d="M754,748.5c1.3,0.5,1.8,2,1.3,3.2c-0.5,1.3-2,1.8-3.2,1.3c-1.3-0.5-1.8-2-1.3-3.2
							C751.3,748.5,752.8,747.9,754,748.5z"/>
					</g>
					<g>
						<path class="st2" d="M731.8,748.8c1.1-0.8,2.6-0.6,3.4,0.5c0.8,1.1,0.6,2.6-0.5,3.4c-1.1,0.8-2.6,0.6-3.4-0.5
							C730.5,751.1,730.7,749.6,731.8,748.8z"/>
					</g>
					<g>
						<path class="st2" d="M751.6,737.3c1.1-0.8,2.6-0.6,3.4,0.5c0.8,1.1,0.6,2.6-0.5,3.4c-1.1,0.8-2.6,0.6-3.4-0.5
							C750.3,739.7,750.5,738.1,751.6,737.3z"/>
					</g>
					<g class="st7">
						<path class="st5" d="M745.7,772c-11.3,1.4-21.6-6.6-23-17.8c-0.3-2-0.2-4,0.1-5.9c1.7,10.9,11.8,18.5,22.9,17.2
							c9.3-1.2,16.3-8.3,17.7-17.1c0,0.2,0.1,0.5,0.1,0.7C765,760.3,757,770.6,745.7,772z"/>
					</g>
					<g>
						<path class="st2" d="M743.1,768.9c-11.9,0-22.2-8.8-23.7-20.9c-0.8-6.3,0.9-12.6,4.8-17.6c3.9-5,9.6-8.3,15.9-9
							c6.3-0.8,12.6,0.9,17.6,4.8c5,3.9,8.3,9.6,9,15.9c0.8,6.3-0.9,12.6-4.8,17.6c-3.9,5-9.6,8.3-15.9,9
							C745.1,768.8,744.1,768.9,743.1,768.9z M743.2,727.7c-0.7,0-1.5,0-2.2,0.1c-4.6,0.6-8.7,2.9-11.5,6.5s-4.1,8.2-3.5,12.8
							c1.2,9.5,9.9,16.2,19.3,15c9.5-1.2,16.2-9.8,15-19.3l0,0c-0.6-4.6-2.9-8.7-6.5-11.5C750.7,729,747,727.7,743.2,727.7z"/>
					</g>
					<g class="st6">
						<path class="st2" d="M780.6,732.5c-7-5.9-14.4-3.4-18.9,3c-2.2-17.7-40.8-12.9-38.6,4.9c-3.8-6.5-11-8.7-18.1-5.3l0,0
							c4-15.1,16.8-27.1,33.3-29.1C757.2,703.4,774.8,715,780.6,732.5z"/>
					</g>
				</g>
				<g>
					<g>
						<path class="st11" d="M438,740.1c2.7,21.6-12.6,41.4-34.2,44.1c-21.6,2.7-41.4-12.6-44.1-34.2c-0.7-5.2-0.3-10.2,1-15l0,0
							c4-15.1,16.8-27.1,33.3-29.1c19-2.4,36.5,9.1,42.4,26.7C437.1,734.9,437.7,737.4,438,740.1z"/>
					</g>
					<g>
						<path class="st2" d="M398.8,789.2c-22,0-41.1-16.4-43.9-38.7c-3-24.2,14.2-46.4,38.4-49.4c24.2-3,46.4,14.2,49.4,38.4
							s-14.2,46.4-38.4,49.4C402.5,789.1,400.7,789.2,398.8,789.2z M398.9,710.3c-1.5,0-2.9,0.1-4.4,0.3
							c-19,2.4-32.5,19.8-30.1,38.8s19.8,32.5,38.8,30.1c9.2-1.2,17.4-5.8,23.1-13.1s8.2-16.4,7-25.6c-1.2-9.2-5.8-17.4-13.1-23.1
							C414,712.8,406.6,710.3,398.9,710.3z"/>
					</g>
					<g>
						
							<ellipse transform="matrix(6.889815e-02 -0.9976 0.9976 6.889815e-02 -371.916 1091.6034)" class="st12" cx="398.8" cy="745" rx="20.6" ry="20.6"/>
						<path class="st2" d="M398.8,766.2c-10.5,0-19.7-7.9-21.1-18.6c-1.5-11.6,6.8-22.3,18.4-23.7c5.6-0.7,11.2,0.8,15.7,4.3
							s7.3,8.5,8,14.1c1.5,11.6-6.8,22.3-18.4,23.7C400.6,766.2,399.7,766.2,398.8,766.2z M398.9,725.1c-0.8,0-1.7,0.1-2.5,0.2
							c-10.9,1.4-18.7,11.4-17.3,22.3c1.4,10.9,11.4,18.7,22.3,17.3s18.7-11.4,17.3-22.3C417.4,732.4,408.7,725.1,398.9,725.1z"/>
					</g>
					<g class="st6">
						<path class="st2" d="M419.3,742.5c-4.2-6.2-11.7-10-19.7-8.9c-11.3,1.4-19.2,11.7-17.9,22.9c-1.7-2.6-2.9-5.6-3.3-8.9
							c-1.4-11.3,6.6-21.6,17.8-23c11.3-1.4,21.6,6.6,23,17.8C419.3,742.4,419.3,742.5,419.3,742.5z"/>
					</g>
					<g>
						<ellipse class="st2" cx="398.9" cy="745" rx="5.7" ry="5.7"/>
					</g>
					<g>
						<ellipse class="st2" cx="398.8" cy="733.5" rx="2.5" ry="2.5"/>
					</g>
					<g>
						<ellipse class="st2" cx="398.8" cy="756.4" rx="2.5" ry="2.5"/>
					</g>
					<g>
						<path class="st2" d="M389.9,737c1.3,0.5,1.8,2,1.3,3.2c-0.5,1.3-2,1.8-3.2,1.3c-1.3-0.5-1.8-2-1.3-3.2
							C387.2,737.1,388.6,736.5,389.9,737z"/>
					</g>
					<g>
						<ellipse class="st2" cx="408.7" cy="750.7" rx="2.5" ry="2.5"/>
					</g>
					<g>
						<ellipse class="st2" cx="388.9" cy="750.7" rx="2.5" ry="2.5"/>
					</g>
					<g>
						<path class="st2" d="M407.3,737.3c1.1-0.8,2.6-0.6,3.4,0.5s0.6,2.6-0.5,3.4c-1.1,0.8-2.6,0.6-3.4-0.5
							C406,739.7,406.2,738.1,407.3,737.3z"/>
					</g>
					<g class="st7">
						<path class="st5" d="M401.4,772c-11.3,1.4-21.6-6.6-23-17.8c-0.3-2-0.2-4,0.1-5.9c1.7,10.9,11.8,18.5,22.9,17.2
							c9.3-1.2,16.3-8.3,17.7-17.1c0,0.2,0.1,0.5,0.1,0.7C420.7,760.3,412.7,770.6,401.4,772z"/>
					</g>
					<g>
						<path class="st2" d="M398.8,768.9c-11.9,0-22.2-8.8-23.7-20.9c-1.6-13.1,7.6-25,20.7-26.7c6.3-0.8,12.6,0.9,17.6,4.8
							c5,3.9,8.3,9.6,9,15.9c1.6,13.1-7.6,25-20.7,26.7C400.8,768.8,399.8,768.9,398.8,768.9z M398.9,727.7c-0.7,0-1.4,0-2.2,0.1
							c-9.5,1.2-16.2,9.8-15,19.3s9.8,16.2,19.3,15s16.2-9.8,15-19.3C414.9,734.1,407.4,727.7,398.9,727.7z"/>
					</g>
					<g class="st6">
						<path class="st2" d="M436.3,732.5c-7-5.9-14.4-3.4-18.9,3c-2.2-17.7-40.8-12.9-38.6,4.9c-3.8-6.5-11-8.7-18.1-5.3l0,0
							c4-15.1,16.8-27.1,33.3-29.1C412.9,703.4,430.5,715,436.3,732.5z"/>
					</g>
				</g>
				<g>
					<path class="st13" d="M393.4,442.1h-139c-8.5,0-15.3,6.9-15.3,15.3v13.3h169.7v-13.3C408.8,449,401.9,442.1,393.4,442.1z"/>
				</g>
				<g class="st7">
					<path class="st5" d="M408.8,457.5v9.5c0-8.5-6.9-15.3-15.3-15.3H254.3c-8.5,0-15.3,6.9-15.3,15.3v-9.5
						c0-8.5,6.9-15.3,15.3-15.3h139.1C401.9,442.1,408.8,449,408.8,457.5z"/>
				</g>
				<g>
					<path class="st2" d="M408.8,475.5H239c-2.6,0-4.8-2.1-4.8-4.8v-13.3c0-11.1,9-20.1,20.1-20.1h139.1c11.1,0,20.1,9,20.1,20.1
						v13.3C413.5,473.4,411.4,475.5,408.8,475.5z M243.8,466H404v-8.5c0-5.8-4.7-10.5-10.5-10.5H254.4c-5.8,0-10.5,4.7-10.5,10.5
						L243.8,466L243.8,466z"/>
				</g>
				<g>
					<path class="st13" d="M767.7,442.1H628.6c-8.5,0-15.3,6.9-15.3,15.3v13.3H783v-13.3C783,449,776.1,442.1,767.7,442.1z"/>
				</g>
				<g class="st7">
					<path class="st5" d="M783,457.5v9.5c0-8.5-6.9-15.3-15.3-15.3H628.6c-8.5,0-15.3,6.9-15.3,15.3v-9.5c0-8.5,6.9-15.3,15.3-15.3
						h139.1C776.1,442.1,783,449,783,457.5z"/>
				</g>
				<g>
					<path class="st2" d="M783,475.5H613.2c-2.6,0-4.8-2.1-4.8-4.8v-13.3c0-11.1,9-20.1,20.1-20.1h139.1c11.1,0,20.1,9,20.1,20.1
						v13.3C787.8,473.4,785.6,475.5,783,475.5z M618,466h160.2v-8.5c0-5.8-4.7-10.5-10.5-10.5H628.6c-5.8,0-10.5,4.7-10.5,10.5
						L618,466L618,466z"/>
				</g>
				<g class="st6">
					<path class="st2" d="M780.1,521.2c0-3.2,1.4-6.1,3.6-8c1.9-1.7,4.4-2.8,7.2-2.8H858c0.1,0,0.2,0,0.3,0
						c-0.2-5.8-4.9-10.5-10.8-10.5h-67.1c-2.8,0-5.3,1-7.2,2.8c-2.2,1.9-3.6,4.8-3.6,8V621h10.5V521.2z"/>
				</g>
				<g>
					<g>
						<path class="st11" d="M333.2,740.1c2.7,21.6-12.6,41.4-34.2,44.1c-21.6,2.7-41.4-12.6-44.1-34.2c-0.7-5.2-0.3-10.2,1-15l0,0
							c4-15.1,16.8-27.1,33.3-29.1c19-2.4,36.5,9.1,42.4,26.7C332.3,734.9,332.9,737.4,333.2,740.1z"/>
					</g>
					<g>
						<path class="st2" d="M294,789.2c-22,0-41.1-16.4-43.9-38.7c-3-24.2,14.2-46.4,38.4-49.4c11.7-1.5,23.3,1.7,32.7,9
							c9.3,7.2,15.3,17.7,16.8,29.4s-1.7,23.3-9,32.7c-7.2,9.3-17.7,15.3-29.4,16.8C297.7,789.1,295.8,789.2,294,789.2z
							 M294.1,710.3c-1.5,0-2.9,0.1-4.4,0.3c-19,2.4-32.5,19.8-30.1,38.8s19.8,32.5,38.8,30.1c9.2-1.2,17.4-5.8,23.1-13.1
							s8.2-16.4,7-25.6c-1.2-9.2-5.8-17.4-13.1-23.1C309.2,712.8,301.8,710.3,294.1,710.3z"/>
					</g>
					<g>
						
							<ellipse transform="matrix(0.1713 -0.9852 0.9852 0.1713 -490.3539 907.0931)" class="st12" cx="294" cy="745" rx="20.6" ry="20.6"/>
						<path class="st2" d="M294,766.2c-10.5,0-19.7-7.9-21.1-18.6c-0.7-5.6,0.8-11.2,4.3-15.7s8.5-7.3,14.1-8s11.2,0.8,15.7,4.3
							s7.3,8.5,8,14.1s-0.8,11.2-4.3,15.7s-8.5,7.3-14.1,8C295.8,766.2,294.9,766.2,294,766.2z M294.1,725.1c-0.8,0-1.7,0.1-2.5,0.2
							c-5.3,0.7-10,3.3-13.3,7.5s-4.7,9.4-4,14.7c1.4,10.9,11.4,18.7,22.3,17.3c5.3-0.7,10-3.3,13.3-7.6c3.3-4.2,4.7-9.4,4-14.7l0,0
							C312.6,732.4,303.9,725.1,294.1,725.1z"/>
					</g>
					<g class="st6">
						<path class="st2" d="M314.5,742.5c-4.2-6.2-11.7-10-19.7-8.9c-11.3,1.4-19.2,11.7-17.9,22.9c-1.7-2.6-2.9-5.6-3.3-8.9
							c-1.4-11.3,6.6-21.6,17.8-23c11.3-1.4,21.6,6.6,23,17.8C314.5,742.4,314.5,742.5,314.5,742.5z"/>
					</g>
					<g>
						<circle class="st2" cx="294" cy="745" r="5.7"/>
					</g>
					<g>
						<ellipse class="st2" cx="294" cy="733.5" rx="2.5" ry="2.5"/>
					</g>
					<g>
						<ellipse class="st2" cx="294" cy="756.4" rx="2.5" ry="2.5"/>
					</g>
					<g>
						<path class="st2" d="M285.1,737c1.3,0.5,1.8,2,1.3,3.2s-2,1.8-3.2,1.3c-1.3-0.5-1.8-2-1.3-3.2S283.8,736.5,285.1,737z"/>
					</g>
					<g>
						<path class="st2" d="M304.9,748.5c1.3,0.5,1.8,2,1.3,3.2s-2,1.8-3.2,1.3c-1.3-0.5-1.8-2-1.3-3.2S303.7,747.9,304.9,748.5z"/>
					</g>
					<g>
						<path class="st2" d="M282.6,748.8c1.1-0.8,2.6-0.6,3.4,0.5s0.6,2.6-0.5,3.4c-1.1,0.8-2.6,0.6-3.4-0.5
							C281.4,751.1,281.6,749.6,282.6,748.8z"/>
					</g>
					<g>
						<path class="st2" d="M302.5,737.3c1.1-0.8,2.6-0.6,3.4,0.5s0.6,2.6-0.5,3.4c-1.1,0.8-2.6,0.6-3.4-0.5
							C301.2,739.7,301.4,738.1,302.5,737.3z"/>
					</g>
					<g class="st7">
						<path class="st5" d="M296.6,772c-11.3,1.4-21.6-6.6-23-17.8c-0.3-2-0.2-4,0.1-5.9c1.7,10.9,11.8,18.5,22.9,17.2
							c9.3-1.2,16.3-8.3,17.7-17.1c0,0.2,0.1,0.5,0.1,0.7C315.9,760.3,307.9,770.6,296.6,772z"/>
					</g>
					<g>
						<path class="st2" d="M294,768.9c-11.9,0-22.2-8.8-23.7-20.9c-0.8-6.3,0.9-12.6,4.8-17.6s9.6-8.3,15.9-9
							c6.3-0.8,12.6,0.9,17.6,4.8c5,3.9,8.3,9.6,9,15.9c1.6,13.1-7.6,25-20.7,26.7C296,768.8,295,768.9,294,768.9z M294.1,727.7
							c-0.7,0-1.5,0-2.2,0.1c-4.6,0.6-8.7,2.9-11.5,6.5s-4.1,8.2-3.5,12.8c1.2,9.5,9.9,16.2,19.3,15c9.5-1.2,16.2-9.8,15-19.3l0,0
							c-0.6-4.6-2.9-8.7-6.5-11.5C301.6,729,297.9,727.7,294.1,727.7z"/>
					</g>
					<g class="st6">
						<path class="st2" d="M331.5,732.5c-7-5.9-14.4-3.4-18.9,3c-2.2-17.7-40.8-12.9-38.6,4.9c-3.8-6.5-11-8.7-18.1-5.3l0,0
							c4-15.1,16.8-27.1,33.3-29.1C308.1,703.4,325.7,715,331.5,732.5z"/>
					</g>
				</g>
			</g>
			<g>
				<path class="st2" d="M941.8,786c-16.5,2.4-33,2.9-49.6,3.2c-16.5,0.3-33,0.2-49.6,0l-24.8-0.1H793h-49.6H545.2H346.9h-99.1H223
					l-12.4,0.1l-12.4,0.2c-8.3,0.1-16.5-0.1-24.8-0.4c-8.3-0.5-16.5-1.2-24.8-2.9c-0.8-0.2-1.4-1-1.2-1.8c0.1-0.6,0.6-1.1,1.2-1.2
					c8.3-1.7,16.5-2.4,24.8-2.9c8.3-0.4,16.5-0.5,24.8-0.4l12.4,0.2l12.4,0.1h24.8h99.1h198.3h198.3h49.6h24.8l24.8-0.1
					c16.5-0.2,33-0.4,49.6,0c16.5,0.3,33,0.9,49.6,3.2c0.8,0.1,1.4,0.9,1.3,1.7C943,785.4,942.5,785.9,941.8,786z"/>
			</g>
		</g>
	</g>
</g>
</svg>
