<?xml version="1.0" encoding="utf-8"?>
<!-- Generator: Adobe Illustrator 24.1.3, SVG Export Plug-In . SVG Version: 6.00 Build 0)  -->
<svg version="1.1" id="Layer_1" xmlns="http://www.w3.org/2000/svg" xmlns:xlink="http://www.w3.org/1999/xlink" x="0px" y="0px"
	 viewBox="0 0 1080 1080" style="enable-background:new 0 0 1080 1080;" xml:space="preserve">
<style type="text/css">
	.st0{fill:#F4F4F4;}
	.st1{fill:#C4C4C4;}
	.st2{fill:#ED5151;}
	.st3{fill:#6D6E6E;}
	.st4{opacity:0.6;fill:#6D6E6E;enable-background:new    ;}
	.st5{fill:#FFFFFF;}
</style>
<g id="calander3">
	<g>
		<g>
			<g>
				<path class="st0" d="M809.2,281H262.3c-16.8,0-30.4,13.6-30.4,30.4v416.9c0,16.8,13.6,30.4,30.4,30.4h546.9
					c16.8,0,30.4-13.6,30.4-30.4V311.4C839.6,294.6,826,281,809.2,281z"/>
				<g>
					<path class="st0" d="M262.3,281L262.3,281c-0.4,0-0.7,0-1.1,0.1C261.6,281,261.9,281,262.3,281z"/>
					<path class="st0" d="M812.3,281.1c15.3,1.6,27,14.5,26.7,30.2l-8.2,403.9c-0.3,15.8-13.8,28.6-30.1,28.6H270.8
						c-16.3,0-29.7-12.8-30.1-28.6l-8.2-403.9c-0.3-15.7,11.4-28.6,26.7-30.2c-15.3,1.6-27.3,14.5-27.3,30.3v416.9
						c0,16.8,13.6,30.4,30.4,30.4h546.9c16.8,0,30.4-13.6,30.4-30.4V311.4C839.6,295.6,827.6,282.7,812.3,281.1z"/>
				</g>
				<g>
					<g>
						<circle class="st1" cx="300.4" cy="432.4" r="21.2"/>
						<circle class="st1" cx="378.8" cy="432.4" r="21.2"/>
						<circle class="st1" cx="457.3" cy="432.4" r="21.2"/>
						<circle class="st1" cx="535.7" cy="432.4" r="21.2"/>
						<circle class="st1" cx="614.2" cy="432.4" r="21.2"/>
						<circle class="st1" cx="692.7" cy="432.4" r="21.2"/>
						<circle class="st1" cx="771.1" cy="432.4" r="21.2"/>
					</g>
					<g>
						<ellipse class="st1" cx="300.4" cy="516.6" rx="21.2" ry="21.2"/>
						<ellipse class="st1" cx="378.8" cy="516.6" rx="21.2" ry="21.2"/>
						<ellipse class="st1" cx="457.3" cy="516.6" rx="21.2" ry="21.2"/>
						<ellipse class="st1" cx="535.7" cy="516.6" rx="21.2" ry="21.2"/>
						<ellipse class="st1" cx="614.2" cy="516.6" rx="21.2" ry="21.2"/>
						<ellipse class="st2" cx="692.7" cy="516.6" rx="21.2" ry="21.2"/>
						<ellipse class="st1" cx="771.1" cy="516.6" rx="21.2" ry="21.2"/>
					</g>
					<g>
						<circle class="st1" cx="300.4" cy="600.7" r="21.2"/>
						<circle class="st1" cx="378.8" cy="600.7" r="21.2"/>
						<circle class="st1" cx="457.3" cy="600.7" r="21.2"/>
						<circle class="st1" cx="535.7" cy="600.7" r="21.2"/>
						<circle class="st1" cx="614.2" cy="600.7" r="21.2"/>
						<circle class="st1" cx="692.7" cy="600.7" r="21.2"/>
						<circle class="st1" cx="771.1" cy="600.7" r="21.2"/>
					</g>
					<g>
						<ellipse class="st1" cx="300.4" cy="684.8" rx="21.2" ry="21.2"/>
						<ellipse class="st1" cx="378.8" cy="684.8" rx="21.2" ry="21.2"/>
						<ellipse class="st1" cx="457.3" cy="684.8" rx="21.2" ry="21.2"/>
						<ellipse class="st1" cx="535.7" cy="684.8" rx="21.2" ry="21.2"/>
						<ellipse class="st1" cx="614.2" cy="684.8" rx="21.2" ry="21.2"/>
						<ellipse class="st1" cx="692.7" cy="684.8" rx="21.2" ry="21.2"/>
						<ellipse class="st1" cx="771.1" cy="684.8" rx="21.2" ry="21.2"/>
					</g>
				</g>
				<path class="st2" d="M809.2,281H262.3c-16.8,0-30.4,13.6-30.4,30.4v57h607.7v-57C839.6,294.6,826,281,809.2,281z"/>
			</g>
			<g>
				<g>
					<path class="st2" d="M277.5,281v25c0,5.7,4.7,10.4,10.4,10.4c5.7,0,10.4-4.7,10.4-10.4v-25H277.5z"/>
				</g>
				<g>
					<path class="st3" d="M283.9,316.4L283.9,316.4c-5.7,0-10.4-4.7-10.4-10.4v-35.7c0-5.7,4.7-10.4,10.4-10.4l0,0
						c5.7,0,10.4,4.7,10.4,10.4V306C294.2,311.8,289.5,316.4,283.9,316.4z"/>
					<path class="st4" d="M283.9,260.1c-0.8,0-1.6,0.1-2.4,0.3c1.6,0.4,3,1.1,4.2,2.1c0.1,0.1,0.3,0.2,0.4,0.4
						c0.3,0.2,0.5,0.5,0.7,0.8c0.2,0.2,0.4,0.4,0.5,0.6c0.2,0.3,0.4,0.5,0.5,0.8c0.2,0.3,0.3,0.6,0.5,0.9c0.1,0.2,0.2,0.5,0.3,0.8
						c0.1,0.4,0.3,0.8,0.4,1.2c0.1,0.2,0.1,0.4,0.2,0.6c0.1,0.6,0.2,1.3,0.2,1.9v35.7c0,0.7-0.1,1.3-0.2,1.9c0,0.2-0.1,0.4-0.2,0.6
						c-0.1,0.4-0.2,0.8-0.4,1.2c-0.1,0.3-0.2,0.5-0.3,0.8c-0.1,0.3-0.3,0.6-0.5,0.9s-0.3,0.5-0.5,0.8c-0.2,0.2-0.3,0.4-0.5,0.6
						c-0.2,0.3-0.5,0.5-0.7,0.8c-0.1,0.1-0.3,0.2-0.4,0.4c-1.2,1-2.6,1.7-4.2,2.1c0.8,0.2,1.6,0.3,2.4,0.3c5.7,0,10.4-4.7,10.4-10.4
						v-35.7C294.2,264.7,289.5,260.1,283.9,260.1z"/>
				</g>
			</g>
			<g>
				<g>
					<path class="st2" d="M339.7,281v25c0,5.7,4.7,10.4,10.4,10.4c5.7,0,10.4-4.7,10.4-10.4v-25H339.7z"/>
				</g>
				<g>
					<path class="st3" d="M346.1,316.4L346.1,316.4c-5.7,0-10.4-4.7-10.4-10.4v-35.7c0-5.7,4.7-10.4,10.4-10.4l0,0
						c5.7,0,10.4,4.7,10.4,10.4V306C356.4,311.8,351.8,316.4,346.1,316.4z"/>
					<path class="st4" d="M346.1,260.1c-0.8,0-1.6,0.1-2.4,0.3c1.6,0.4,3,1.1,4.2,2.1c0.1,0.1,0.3,0.2,0.4,0.4
						c0.3,0.2,0.5,0.5,0.7,0.8c0.2,0.2,0.4,0.4,0.5,0.6c0.2,0.3,0.4,0.5,0.5,0.8c0.2,0.3,0.3,0.6,0.5,0.9c0.1,0.2,0.2,0.5,0.3,0.8
						c0.1,0.4,0.3,0.8,0.4,1.2c0.1,0.2,0.1,0.4,0.2,0.6c0.1,0.6,0.2,1.3,0.2,1.9v35.7c0,0.7-0.1,1.3-0.2,1.9c0,0.2-0.1,0.4-0.2,0.6
						c-0.1,0.4-0.2,0.8-0.4,1.2c-0.1,0.3-0.2,0.5-0.3,0.8c-0.1,0.3-0.3,0.6-0.5,0.9s-0.3,0.5-0.5,0.8c-0.2,0.2-0.3,0.4-0.5,0.6
						c-0.2,0.3-0.5,0.5-0.7,0.8c-0.1,0.1-0.3,0.2-0.4,0.4c-1.2,1-2.6,1.7-4.2,2.1c0.8,0.2,1.6,0.3,2.4,0.3c5.7,0,10.4-4.7,10.4-10.4
						v-35.7C356.4,264.7,351.8,260.1,346.1,260.1z"/>
				</g>
			</g>
			<g>
				<g>
					<path class="st2" d="M401.9,281v25c0,5.7,4.7,10.4,10.4,10.4c5.7,0,10.4-4.7,10.4-10.4v-25H401.9z"/>
				</g>
				<g>
					<path class="st3" d="M408.3,316.4L408.3,316.4c-5.7,0-10.4-4.7-10.4-10.4v-35.7c0-5.7,4.7-10.4,10.4-10.4l0,0
						c5.7,0,10.4,4.7,10.4,10.4V306C418.6,311.8,414,316.4,408.3,316.4z"/>
					<path class="st4" d="M408.3,260.1c-0.8,0-1.6,0.1-2.4,0.3c1.6,0.4,3,1.1,4.2,2.1c0.1,0.1,0.3,0.2,0.4,0.4
						c0.3,0.2,0.5,0.5,0.7,0.8c0.2,0.2,0.4,0.4,0.5,0.6c0.2,0.3,0.4,0.5,0.5,0.8c0.2,0.3,0.3,0.6,0.5,0.9c0.1,0.2,0.2,0.5,0.3,0.8
						c0.1,0.4,0.3,0.8,0.4,1.2c0.1,0.2,0.1,0.4,0.2,0.6c0.1,0.6,0.2,1.3,0.2,1.9v35.7c0,0.7-0.1,1.3-0.2,1.9c0,0.2-0.1,0.4-0.2,0.6
						c-0.1,0.4-0.2,0.8-0.4,1.2c-0.1,0.3-0.2,0.5-0.3,0.8c-0.1,0.3-0.3,0.6-0.5,0.9s-0.3,0.5-0.5,0.8c-0.2,0.2-0.3,0.4-0.5,0.6
						c-0.2,0.3-0.5,0.5-0.7,0.8c-0.1,0.1-0.3,0.2-0.4,0.4c-1.2,1-2.6,1.7-4.2,2.1c0.8,0.2,1.6,0.3,2.4,0.3c5.7,0,10.4-4.7,10.4-10.4
						v-35.7C418.6,264.7,414,260.1,408.3,260.1z"/>
				</g>
			</g>
			<g>
				<g>
					<path class="st2" d="M464.1,281v25c0,5.7,4.7,10.4,10.4,10.4c5.7,0,10.4-4.7,10.4-10.4v-25H464.1z"/>
				</g>
				<g>
					<path class="st3" d="M470.5,316.4L470.5,316.4c-5.7,0-10.4-4.7-10.4-10.4v-35.7c0-5.7,4.7-10.4,10.4-10.4l0,0
						c5.7,0,10.4,4.7,10.4,10.4V306C480.8,311.8,476.2,316.4,470.5,316.4z"/>
					<path class="st4" d="M470.5,260.1c-0.8,0-1.6,0.1-2.4,0.3c1.6,0.4,3,1.1,4.2,2.1c0.1,0.1,0.3,0.2,0.4,0.4
						c0.3,0.2,0.5,0.5,0.7,0.8c0.2,0.2,0.4,0.4,0.5,0.6c0.2,0.3,0.4,0.5,0.5,0.8c0.2,0.3,0.3,0.6,0.5,0.9c0.1,0.2,0.2,0.5,0.3,0.8
						c0.1,0.4,0.3,0.8,0.4,1.2c0.1,0.2,0.1,0.4,0.2,0.6c0.1,0.6,0.2,1.3,0.2,1.9v35.7c0,0.7-0.1,1.3-0.2,1.9c0,0.2-0.1,0.4-0.2,0.6
						c-0.1,0.4-0.2,0.8-0.4,1.2c-0.1,0.3-0.2,0.5-0.3,0.8c-0.1,0.3-0.3,0.6-0.5,0.9s-0.3,0.5-0.5,0.8c-0.2,0.2-0.3,0.4-0.5,0.6
						c-0.2,0.3-0.5,0.5-0.7,0.8c-0.1,0.1-0.3,0.2-0.4,0.4c-1.2,1-2.6,1.7-4.2,2.1c0.8,0.2,1.6,0.3,2.4,0.3c5.7,0,10.4-4.7,10.4-10.4
						v-35.7C480.8,264.7,476.2,260.1,470.5,260.1z"/>
				</g>
			</g>
			<g>
				<g>
					<path class="st2" d="M526.3,281v25c0,5.7,4.7,10.4,10.4,10.4s10.4-4.7,10.4-10.4v-25H526.3z"/>
				</g>
				<g>
					<path class="st3" d="M532.7,316.4L532.7,316.4c-5.7,0-10.4-4.7-10.4-10.4v-35.7c0-5.7,4.7-10.4,10.4-10.4l0,0
						c5.7,0,10.4,4.7,10.4,10.4V306C543,311.8,538.4,316.4,532.7,316.4z"/>
					<path class="st4" d="M532.7,260.1c-0.8,0-1.6,0.1-2.4,0.3c1.6,0.4,3,1.1,4.2,2.1c0.1,0.1,0.3,0.2,0.4,0.4
						c0.3,0.2,0.5,0.5,0.7,0.8c0.2,0.2,0.4,0.4,0.5,0.6c0.2,0.3,0.4,0.5,0.5,0.8c0.2,0.3,0.3,0.6,0.5,0.9c0.1,0.2,0.2,0.5,0.3,0.8
						c0.1,0.4,0.3,0.8,0.4,1.2c0.1,0.2,0.1,0.4,0.2,0.6c0.1,0.6,0.2,1.3,0.2,1.9v35.7c0,0.7-0.1,1.3-0.2,1.9c0,0.2-0.1,0.4-0.2,0.6
						c-0.1,0.4-0.2,0.8-0.4,1.2c-0.1,0.3-0.2,0.5-0.3,0.8s-0.3,0.6-0.5,0.9s-0.3,0.5-0.5,0.8c-0.2,0.2-0.3,0.4-0.5,0.6
						c-0.2,0.3-0.5,0.5-0.7,0.8c-0.1,0.1-0.3,0.2-0.4,0.4c-1.2,1-2.6,1.7-4.2,2.1c0.8,0.2,1.6,0.3,2.4,0.3c5.7,0,10.4-4.7,10.4-10.4
						v-35.7C543,264.7,538.4,260.1,532.7,260.1z"/>
				</g>
			</g>
			<g>
				<g>
					<path class="st2" d="M588.5,281v25c0,5.7,4.7,10.4,10.4,10.4s10.4-4.7,10.4-10.4v-25H588.5z"/>
				</g>
				<g>
					<path class="st3" d="M594.9,316.4L594.9,316.4c-5.7,0-10.4-4.7-10.4-10.4v-35.7c0-5.7,4.7-10.4,10.4-10.4l0,0
						c5.7,0,10.4,4.7,10.4,10.4V306C605.2,311.8,600.6,316.4,594.9,316.4z"/>
					<path class="st4" d="M594.9,260.1c-0.8,0-1.6,0.1-2.4,0.3c1.6,0.4,3,1.1,4.2,2.1c0.1,0.1,0.3,0.2,0.4,0.4
						c0.3,0.2,0.5,0.5,0.7,0.8c0.2,0.2,0.4,0.4,0.5,0.6c0.2,0.3,0.4,0.5,0.5,0.8c0.2,0.3,0.3,0.6,0.5,0.9c0.1,0.2,0.2,0.5,0.3,0.8
						c0.1,0.4,0.3,0.8,0.4,1.2c0.1,0.2,0.1,0.4,0.2,0.6c0.1,0.6,0.2,1.3,0.2,1.9v35.7c0,0.7-0.1,1.3-0.2,1.9c0,0.2-0.1,0.4-0.2,0.6
						c-0.1,0.4-0.2,0.8-0.4,1.2c-0.1,0.3-0.2,0.5-0.3,0.8s-0.3,0.6-0.5,0.9s-0.3,0.5-0.5,0.8c-0.2,0.2-0.3,0.4-0.5,0.6
						c-0.2,0.3-0.5,0.5-0.7,0.8c-0.1,0.1-0.3,0.2-0.4,0.4c-1.2,1-2.6,1.7-4.2,2.1c0.8,0.2,1.6,0.3,2.4,0.3c5.7,0,10.4-4.7,10.4-10.4
						v-35.7C605.2,264.7,600.6,260.1,594.9,260.1z"/>
				</g>
			</g>
			<g>
				<g>
					<path class="st2" d="M650.7,281v25c0,5.7,4.7,10.4,10.4,10.4s10.4-4.7,10.4-10.4v-25H650.7z"/>
				</g>
				<g>
					<path class="st3" d="M657.1,316.4L657.1,316.4c-5.7,0-10.4-4.7-10.4-10.4v-35.7c0-5.7,4.7-10.4,10.4-10.4l0,0
						c5.7,0,10.4,4.7,10.4,10.4V306C667.4,311.8,662.8,316.4,657.1,316.4z"/>
					<path class="st4" d="M657.1,260.1c-0.8,0-1.6,0.1-2.4,0.3c1.6,0.4,3,1.1,4.2,2.1c0.1,0.1,0.3,0.2,0.4,0.4
						c0.3,0.2,0.5,0.5,0.7,0.8c0.2,0.2,0.4,0.4,0.5,0.6c0.2,0.3,0.4,0.5,0.5,0.8c0.2,0.3,0.3,0.6,0.5,0.9c0.1,0.2,0.2,0.5,0.3,0.8
						c0.1,0.4,0.3,0.8,0.4,1.2c0.1,0.2,0.1,0.4,0.2,0.6c0.1,0.6,0.2,1.3,0.2,1.9v35.7c0,0.7-0.1,1.3-0.2,1.9c0,0.2-0.1,0.4-0.2,0.6
						c-0.1,0.4-0.2,0.8-0.4,1.2c-0.1,0.3-0.2,0.5-0.3,0.8s-0.3,0.6-0.5,0.9s-0.3,0.5-0.5,0.8c-0.2,0.2-0.3,0.4-0.5,0.6
						c-0.2,0.3-0.5,0.5-0.7,0.8c-0.1,0.1-0.3,0.2-0.4,0.4c-1.2,1-2.6,1.7-4.2,2.1c0.8,0.2,1.6,0.3,2.4,0.3c5.7,0,10.4-4.7,10.4-10.4
						v-35.7C667.4,264.7,662.8,260.1,657.1,260.1z"/>
				</g>
			</g>
			<g>
				<g>
					<path class="st2" d="M712.9,281v25c0,5.7,4.7,10.4,10.4,10.4s10.4-4.7,10.4-10.4v-25H712.9z"/>
				</g>
				<g>
					<path class="st3" d="M719.3,316.4L719.3,316.4c-5.7,0-10.4-4.7-10.4-10.4v-35.7c0-5.7,4.7-10.4,10.4-10.4l0,0
						c5.7,0,10.4,4.7,10.4,10.4V306C729.6,311.8,725,316.4,719.3,316.4z"/>
					<path class="st4" d="M719.3,260.1c-0.8,0-1.6,0.1-2.4,0.3c1.6,0.4,3,1.1,4.2,2.1c0.1,0.1,0.3,0.2,0.4,0.4
						c0.3,0.2,0.5,0.5,0.7,0.8c0.2,0.2,0.4,0.4,0.5,0.6c0.2,0.3,0.4,0.5,0.5,0.8c0.2,0.3,0.3,0.6,0.5,0.9c0.1,0.2,0.2,0.5,0.3,0.8
						c0.1,0.4,0.3,0.8,0.4,1.2c0.1,0.2,0.1,0.4,0.2,0.6c0.1,0.6,0.2,1.3,0.2,1.9v35.7c0,0.7-0.1,1.3-0.2,1.9c0,0.2-0.1,0.4-0.2,0.6
						c-0.1,0.4-0.2,0.8-0.4,1.2c-0.1,0.3-0.2,0.5-0.3,0.8s-0.3,0.6-0.5,0.9s-0.3,0.5-0.5,0.8c-0.2,0.2-0.3,0.4-0.5,0.6
						c-0.2,0.3-0.5,0.5-0.7,0.8c-0.1,0.1-0.3,0.2-0.4,0.4c-1.2,1-2.6,1.7-4.2,2.1c0.8,0.2,1.6,0.3,2.4,0.3c5.7,0,10.4-4.7,10.4-10.4
						v-35.7C729.6,264.7,725,260.1,719.3,260.1z"/>
				</g>
			</g>
			<g>
				<g>
					<path class="st2" d="M775.1,281v25c0,5.7,4.7,10.4,10.4,10.4s10.4-4.7,10.4-10.4v-25H775.1z"/>
				</g>
				<g>
					<path class="st3" d="M781.5,316.4L781.5,316.4c-5.7,0-10.4-4.7-10.4-10.4v-35.7c0-5.7,4.7-10.4,10.4-10.4l0,0
						c5.7,0,10.4,4.7,10.4,10.4V306C791.8,311.8,787.2,316.4,781.5,316.4z"/>
					<path class="st4" d="M781.5,260.1c-0.8,0-1.6,0.1-2.4,0.3c1.6,0.4,3,1.1,4.2,2.1c0.1,0.1,0.3,0.2,0.4,0.4
						c0.3,0.2,0.5,0.5,0.7,0.8c0.2,0.2,0.4,0.4,0.5,0.6c0.2,0.3,0.4,0.5,0.5,0.8c0.2,0.3,0.3,0.6,0.5,0.9c0.1,0.2,0.2,0.5,0.3,0.8
						c0.1,0.4,0.3,0.8,0.4,1.2c0.1,0.2,0.1,0.4,0.2,0.6c0.1,0.6,0.2,1.3,0.2,1.9v35.7c0,0.7-0.1,1.3-0.2,1.9c0,0.2-0.1,0.4-0.2,0.6
						c-0.1,0.4-0.2,0.8-0.4,1.2c-0.1,0.3-0.2,0.5-0.3,0.8s-0.3,0.6-0.5,0.9s-0.3,0.5-0.5,0.8c-0.2,0.2-0.3,0.4-0.5,0.6
						c-0.2,0.3-0.5,0.5-0.7,0.8c-0.1,0.1-0.3,0.2-0.4,0.4c-1.2,1-2.6,1.7-4.2,2.1c0.8,0.2,1.6,0.3,2.4,0.3c5.7,0,10.4-4.7,10.4-10.4
						v-35.7C791.8,264.7,787.2,260.1,781.5,260.1z"/>
				</g>
			</g>
		</g>
		<g>
			<path class="st5" d="M448.7,347.9v4.2c0,5.1-2.5,8-7.4,8s-7.4-2.9-7.4-8v-16.5c0-5.1,2.5-8,7.4-8s7.4,2.9,7.4,8v3.1H444v-3.4
				c0-2.3-1-3.1-2.6-3.1s-2.6,0.9-2.6,3.1v17.1c0,2.3,1,3.1,2.6,3.1s2.6-0.8,2.6-3.1v-4.5L448.7,347.9L448.7,347.9z"/>
			<path class="st5" d="M477,359.7h-5l-0.9-5.8H465l-0.9,5.8h-4.6l5.1-31.7h7.3L477,359.7z M465.6,349.6h4.8l-2.4-16.1L465.6,349.6z
				"/>
			<path class="st5" d="M488.4,328h5v27.2h8.2v4.5h-13.2V328z"/>
			<path class="st5" d="M517.8,341.3h6.8v4.5h-6.8v9.3h8.6v4.5h-13.6V328h13.6v4.5h-8.6V341.3z"/>
			<path class="st5" d="M543,336.7v23h-4.5V328h6.3l5.1,19v-19h4.4v31.7h-5.1L543,336.7z"/>
			<path class="st5" d="M567,328h7.9c5,0,7.4,2.8,7.4,7.8v16.1c0,5.1-2.4,7.8-7.4,7.8H567V328z M572,332.5v22.7h2.8
				c1.6,0,2.5-0.8,2.5-3.1v-16.5c0-2.3-1-3.1-2.5-3.1H572z"/>
			<path class="st5" d="M610.7,359.7h-5l-0.9-5.8h-6.1l-0.9,5.8h-4.6l5.1-31.7h7.3L610.7,359.7z M599.3,349.6h4.8l-2.4-16.1
				L599.3,349.6z"/>
			<path class="st5" d="M632.5,359.7c-0.3-0.8-0.5-1.3-0.5-3.9v-5c0-2.9-1-4-3.3-4H627v12.9h-5V328h7.5c5.2,0,7.4,2.4,7.4,7.3v2.5
				c0,3.3-1,5.4-3.3,6.4c2.5,1,3.3,3.4,3.3,6.8v4.9c0,1.5,0,2.7,0.5,3.9L632.5,359.7L632.5,359.7z M627.1,332.5v9.8h2
				c1.9,0,3-0.8,3-3.4v-3.1c0-2.3-0.8-3.3-2.5-3.3H627.1z"/>
		</g>
	</g>
</g>
</svg>
