<?xml version="1.0" encoding="utf-8"?>
<!-- Generator: Adobe Illustrator 24.1.3, SVG Export Plug-In . SVG Version: 6.00 Build 0)  -->
<svg version="1.1" id="Layer_1" xmlns="http://www.w3.org/2000/svg" xmlns:xlink="http://www.w3.org/1999/xlink" x="0px" y="0px"
	 viewBox="0 0 1080 1080" style="enable-background:new 0 0 1080 1080;" xml:space="preserve">
<style type="text/css">
	.st0{fill:#DEF2F4;}
	.st1{fill:#FFFFFF;}
	.st2{fill:#57555F;}
	.st3{clip-path:url(#SVGID_2_);fill:#96D2EC;}
	.st4{clip-path:url(#SVGID_4_);fill:#96D2EC;}
	.st5{clip-path:url(#SVGID_6_);fill:#436F7B;}
	.st6{clip-path:url(#SVGID_8_);}
	.st7{fill:#C7C737;}
	.st8{fill:#2E2016;}
	.st9{clip-path:url(#SVGID_10_);}
	.st10{clip-path:url(#SVGID_12_);}
	.st11{fill:#FCB12F;}
	.st12{clip-path:url(#SVGID_14_);}
	.st13{clip-path:url(#SVGID_16_);}
	.st14{fill:#F58031;}
	.st15{clip-path:url(#SVGID_18_);}
	.st16{clip-path:url(#SVGID_20_);}
	.st17{fill:#CD4D49;}
</style>
<g id="Layer_4">
	<rect y="-9.3" class="st0" width="1087.6" height="1087.6"/>
	<g>
		<rect x="-19.3" y="890" class="st1" width="1111" height="111.6"/>
		<rect x="-19.3" y="901.2" class="st2" width="1111" height="177.9"/>
		<g>
			<rect x="71.1" y="966.8" class="st1" width="171.8" height="13.9"/>
			<rect x="450.3" y="966.8" class="st1" width="171.8" height="13.9"/>
			<rect x="829.5" y="966.8" class="st1" width="171.8" height="13.9"/>
		</g>
	</g>
	<g>
		<g>
			<defs>
				<rect id="SVGID_1_" x="1.1" y="294.3" width="1084" height="722.7"/>
			</defs>
			<clipPath id="SVGID_2_">
				<use xlink:href="#SVGID_1_"  style="overflow:visible;"/>
			</clipPath>
			<path class="st3" d="M1010.2,584.7c-91.5,0-58.7,288.9-403.4,316.7h603.3C1102.1,841.2,1101.7,584.7,1010.2,584.7z"/>
		</g>
		<g>
			<defs>
				<rect id="SVGID_3_" x="1.1" y="294.3" width="1084" height="722.7"/>
			</defs>
			<clipPath id="SVGID_4_">
				<use xlink:href="#SVGID_3_"  style="overflow:visible;"/>
			</clipPath>
			<path class="st4" d="M101.5,687.1c-61.9,0-39.7,195.5-272.9,214.3h408.2C163.6,860.6,163.4,687.1,101.5,687.1z"/>
		</g>
		<g>
			<defs>
				<rect id="SVGID_5_" x="1.1" y="294.3" width="1084" height="722.7"/>
			</defs>
			<clipPath id="SVGID_6_">
				<use xlink:href="#SVGID_5_"  style="overflow:visible;"/>
			</clipPath>
			<path class="st5" d="M-228.3,901.4H1413c0,0-101.5-167.9-241.3-167.9S968.2,868.1,627,868.1c-493.8,0-377.8-91.9-543.1-62.1
				c-49.9,9-46.1-59.6-108.4-59.6C-176.3,746.4-228.3,901.4-228.3,901.4z"/>
		</g>
		<g>
			<defs>
				<rect id="SVGID_7_" x="1.1" y="294.3" width="1084" height="722.7"/>
			</defs>
			<clipPath id="SVGID_8_">
				<use xlink:href="#SVGID_7_"  style="overflow:visible;"/>
			</clipPath>
			<g class="st6">
				<path class="st7" d="M135.9,901.4H-74.4c0-78.6,68.8-108.7,92.1-97.6c19.5,9.3,32.5,51.5,32.5,51.5s15.5-21.1,26-12.7
					c10.5,8.4-1.7,29.5,19.2,24.4C116.4,861.8,140.2,865.9,135.9,901.4z"/>
				<g>
					<path class="st8" d="M55.5,900.6c-0.1,0-0.1,0-0.2,0c-0.2-0.1-0.3-0.3-0.2-0.6c0.1-0.2,9.2-23,13.7-49.6c0-0.2,0.3-0.4,0.5-0.3
						c0.2,0,0.4,0.3,0.3,0.5c-4.5,26.7-13.7,49.5-13.8,49.8C55.8,900.5,55.7,900.6,55.5,900.6z"/>
					<path class="st8" d="M62.7,879c-0.1,0-0.3-0.1-0.4-0.2c-0.1-0.1-5.5-8.1-7.3-20c0-0.2,0.1-0.4,0.4-0.5c0.2,0,0.4,0.1,0.5,0.4
						c1.8,11.7,7.1,19.6,7.2,19.7c0.1,0.2,0.1,0.5-0.1,0.6C62.9,879,62.8,879,62.7,879z"/>
				</g>
			</g>
		</g>
		<g>
			<defs>
				<rect id="SVGID_9_" x="1.1" y="294.3" width="1084" height="722.7"/>
			</defs>
			<clipPath id="SVGID_10_">
				<use xlink:href="#SVGID_9_"  style="overflow:visible;"/>
			</clipPath>
			<g class="st9">
				<path class="st7" d="M1174.4,901.4H872.8c13.6-44.7,98.6-23.3,112.2-25.2c13.6-1.9,14.9-22.2,25.2-25.7s16.8,15,29,7.9
					s9.8-17.4,26.8-28.7C1085.5,816.6,1168.4,805.7,1174.4,901.4z"/>
				<g>
					<path class="st8" d="M1079.5,901c-0.2,0-0.4-0.1-0.4-0.3c-0.1-0.2-6.5-23-8.7-64.1c0-0.2,0.2-0.4,0.4-0.4
						c0.2,0,0.4,0.2,0.4,0.4c2.1,41,8.6,63.7,8.7,63.9S1079.8,901,1079.5,901C1079.6,901,1079.6,901,1079.5,901z"/>
					<path class="st8" d="M1075.4,880.6c-0.1,0-0.1,0-0.2,0c-0.1-0.1-14.9-5.9-21.8-24.2c-0.1-0.2,0-0.5,0.2-0.5
						c0.2-0.1,0.5,0,0.5,0.2c6.8,17.9,21.2,23.6,21.3,23.7c0.2,0.1,0.3,0.3,0.2,0.5C1075.7,880.5,1075.5,880.6,1075.4,880.6z"/>
					<path class="st8" d="M1073.4,866.8c-0.1,0-0.3-0.1-0.3-0.2c-0.1-0.2-0.1-0.5,0.1-0.6s16.1-12.8,15.9-30.9
						c0-0.2,0.2-0.4,0.4-0.4l0,0c0.2,0,0.4,0.2,0.4,0.4c0.3,18.6-16,31.5-16.2,31.6C1073.6,866.8,1073.5,866.8,1073.4,866.8z"/>
					<path class="st8" d="M1025.6,901c-0.1,0-0.3-0.1-0.4-0.2c-0.1-0.1-5.9-10-10.2-32.1c0-0.2,0.1-0.5,0.3-0.5s0.5,0.1,0.5,0.3
						c4.3,21.9,10.1,31.8,10.1,31.9c0.1,0.2,0.1,0.5-0.1,0.6C1025.8,900.9,1025.7,901,1025.6,901z"/>
				</g>
			</g>
		</g>
	</g>
	<g>
		<g>
			<defs>
				<rect id="SVGID_11_" x="-5.7" y="105.6" width="1093.3" height="728.9"/>
			</defs>
			<clipPath id="SVGID_12_">
				<use xlink:href="#SVGID_11_"  style="overflow:visible;"/>
			</clipPath>
			<g class="st10">
				<path class="st1" d="M414.5,281.9c0,18.5-181.5,13.9-208.5,25.2S73,299.4,65,298c-8-1.5-103.7,20.8-96-16.1
					c4.7-39.3,37.9-60.6,56.9-61s28.4,16.4,41.5,10.6c13.1-5.8,16-48.1,66-54.3s71.4,60.1,81.6,65.6c10.2,5.5,15.1-11.1,27.8-5.3
					c15.4,7.2,5.5,27.8,25.1,24.6C316.6,254.3,353.5,267.6,414.5,281.9z"/>
				<path class="st1" d="M1322.7,330.5c0,18.5-181.5,13.9-208.5,25.2s-133-7.7-141-9.1c-8-1.5-103.7,20.8-96-16.1
					c4.7-39.3,37.9-60.6,56.9-61s28.4,16.4,41.5,10.6s16-48.1,66-54.3s71.4,60.1,81.6,65.6s15.1-11.1,27.8-5.3
					c15.4,7.2,5.5,27.8,25.1,24.6C1224.8,302.8,1261.7,316.2,1322.7,330.5z"/>
				<path class="st1" d="M728.6,208.8c-2,20.5-101,24.9-113.5,11c-5-5.5-69.8,8.2-64.1-11c8.1-24.1,26.6-32.5,53.4-25.4
					c16.9,4.5,0.5-14.1,22.3-33.9c14-12.8,40.3-10.3,49.5,18.8c2.6,8.3,7.8,9.7,15.5,4.5C710.1,160.2,731.4,180.6,728.6,208.8z"/>
			</g>
		</g>
	</g>
	<g>
		<path class="st11" d="M975.1,900.7H111.3v-294c0-40,32.5-72.5,72.5-72.5h549.1c37.4,0,68.7,28.5,72.2,65.7l10.6,112.2l80.2,4.2
			c44.4,2.3,79.3,39,79.3,83.6L975.1,900.7L975.1,900.7z"/>
		<path class="st8" d="M959.4,895.6c-0.2,0-0.4-0.2-0.4-0.4c0-49-39.8-88.8-88.8-88.8s-88.8,39.8-88.8,88.8c0,0.2-0.2,0.4-0.4,0.4
			s-0.4-0.2-0.4-0.4c0-49.4,40.2-89.7,89.7-89.7c49.4,0,89.7,40.2,89.7,89.7C959.8,895.4,959.6,895.6,959.4,895.6z"/>
		<path class="st8" d="M870.1,833.8L870.1,833.8c-33.9,0-61.4,27.5-61.4,61.4v5.6h122.7v-5.6C931.5,861.3,904,833.8,870.1,833.8z"/>
		<g>
			<circle class="st8" cx="870.1" cy="897.9" r="54.4"/>
			<path class="st2" d="M924.5,898.3c-0.2,0-0.4-0.2-0.4-0.4c0-29.8-24.2-54-54-54s-54,24.2-54,54c0,0.2-0.2,0.4-0.4,0.4
				s-0.4-0.2-0.4-0.4c0-30.2,24.6-54.8,54.8-54.8s54.8,24.6,54.8,54.8C924.9,898.1,924.7,898.3,924.5,898.3z"/>
			<circle class="st1" cx="870.1" cy="897.9" r="32.6"/>
			<path class="st2" d="M870.1,916.5c-10.3,0-18.7-8.4-18.7-18.7s8.4-18.7,18.7-18.7s18.7,8.4,18.7,18.7
				C888.8,908.2,880.4,916.5,870.1,916.5z"/>
			<circle class="st8" cx="870.1" cy="872.3" r="2.8"/>
			<circle class="st8" cx="844.6" cy="897.9" r="2.8"/>
			<circle class="st8" cx="870.1" cy="923.4" r="2.8"/>
			<circle class="st8" cx="895.7" cy="897.9" r="2.8"/>
		</g>
		<path class="st8" d="M227.4,895.6L227.4,895.6c-0.3,0-0.4-0.2-0.4-0.4l1.9-22.8c1.5-18.3,9.8-35.2,23.3-47.6
			c13.5-12.4,31-19.3,49.4-19.3h40.6c18.3,0,35.9,6.8,49.4,19.3c13.5,12.4,21.8,29.3,23.3,47.6l1.7,20.9c0,0.2-0.1,0.4-0.4,0.4
			c-0.2,0-0.4-0.1-0.4-0.4l-1.7-20.9c-1.5-18.1-9.7-34.8-23-47.1s-30.7-19-48.8-19h-40.6c-18.1,0-35.5,6.8-48.8,19
			c-13.3,12.3-21.5,29-23,47.1l-1.9,22.8C227.8,895.4,227.7,895.6,227.4,895.6z"/>
		<path class="st8" d="M342.2,833.8h-40.6c-23.2,0-42.5,17.8-44.5,40.9l-2.2,26h133.9l-2.2-26C384.7,851.6,365.4,833.8,342.2,833.8z
			"/>
		<g>
			<path class="st0" d="M227.7,699.9h-61.4c-7.7,0-13.9-6.2-13.9-13.9v-89.2c0-7.7,6.2-13.9,13.9-13.9h61.4
				c7.7,0,13.9,6.2,13.9,13.9V686C241.7,693.7,235.4,699.9,227.7,699.9z"/>
			<path class="st0" d="M337.2,699.9h-61.4c-7.7,0-13.9-6.2-13.9-13.9v-89.2c0-7.7,6.2-13.9,13.9-13.9h61.4
				c7.7,0,13.9,6.2,13.9,13.9V686C351.2,693.7,344.9,699.9,337.2,699.9z"/>
			<path class="st0" d="M446.8,699.9h-61.4c-7.7,0-13.9-6.2-13.9-13.9v-89.2c0-7.7,6.2-13.9,13.9-13.9h61.4
				c7.7,0,13.9,6.2,13.9,13.9V686C460.7,693.7,454.5,699.9,446.8,699.9z"/>
			<path class="st8" d="M227.7,700.4h-61.4c-7.9,0-14.4-6.4-14.4-14.4v-89.2c0-7.9,6.4-14.4,14.4-14.4h61.4
				c7.9,0,14.4,6.4,14.4,14.4V686C242.1,693.9,235.6,700.4,227.7,700.4z M166.4,583.2c-7.5,0-13.5,6.1-13.5,13.5V686
				c0,7.5,6.1,13.5,13.5,13.5h61.4c7.5,0,13.5-6.1,13.5-13.5v-89.2c0-7.5-6.1-13.5-13.5-13.5L166.4,583.2L166.4,583.2z"/>
			<path class="st8" d="M446.8,700.4h-61.4c-7.9,0-14.4-6.4-14.4-14.4v-89.2c0-7.9,6.4-14.4,14.4-14.4h61.4
				c7.9,0,14.4,6.4,14.4,14.4V686C461.1,693.9,454.7,700.4,446.8,700.4z M385.4,583.2c-7.5,0-13.5,6.1-13.5,13.5V686
				c0,7.5,6.1,13.5,13.5,13.5h61.4c7.5,0,13.5-6.1,13.5-13.5v-89.2c0-7.5-6.1-13.5-13.5-13.5L385.4,583.2L385.4,583.2z"/>
			<path class="st0" d="M556.3,699.9h-61.4c-7.7,0-13.9-6.2-13.9-13.9v-89.2c0-7.7,6.2-13.9,13.9-13.9h61.4
				c7.7,0,13.9,6.2,13.9,13.9V686C570.2,693.7,564,699.9,556.3,699.9z"/>
			<g>
				<g>
					<defs>
						<path id="SVGID_13_" d="M337.2,699.9h-61.4c-7.7,0-13.9-6.2-13.9-13.9v-89.2c0-7.7,6.2-13.9,13.9-13.9h61.4
							c7.7,0,13.9,6.2,13.9,13.9V686C351.2,693.7,344.9,699.9,337.2,699.9z"/>
					</defs>
					<clipPath id="SVGID_14_">
						<use xlink:href="#SVGID_13_"  style="overflow:visible;"/>
					</clipPath>
					<g class="st12">
						
							<rect x="203.8" y="612.8" transform="matrix(0.7071 -0.7071 0.7071 0.7071 -349.9777 391.5615)" class="st1" width="187.7" height="10.9"/>
						
							<rect x="224.2" y="628.5" transform="matrix(0.7071 -0.7071 0.7071 0.7071 -358.4067 411.8977)" class="st1" width="187.7" height="20.2"/>
					</g>
				</g>
			</g>
			<g>
				<g>
					<defs>
						<path id="SVGID_15_" d="M556.3,699.9h-61.4c-7.7,0-13.9-6.2-13.9-13.9v-89.2c0-7.7,6.2-13.9,13.9-13.9h61.4
							c7.7,0,13.9,6.2,13.9,13.9V686C570.2,693.7,564,699.9,556.3,699.9z"/>
					</defs>
					<clipPath id="SVGID_16_">
						<use xlink:href="#SVGID_15_"  style="overflow:visible;"/>
					</clipPath>
					<g class="st13">
						
							<rect x="420" y="612.8" transform="matrix(0.7071 -0.7071 0.7071 0.7071 -286.6776 544.4405)" class="st1" width="187.7" height="10.9"/>
						
							<rect x="440.3" y="628.4" transform="matrix(0.7071 -0.7071 0.7071 0.7071 -295.0775 564.6994)" class="st1" width="187.7" height="20.2"/>
					</g>
				</g>
			</g>
			<path class="st8" d="M337.2,700.4h-61.4c-7.9,0-14.4-6.4-14.4-14.4v-89.2c0-7.9,6.4-14.4,14.4-14.4h61.4
				c7.9,0,14.4,6.4,14.4,14.4V686C351.6,693.9,345.1,700.4,337.2,700.4z M275.9,583.2c-7.5,0-13.5,6.1-13.5,13.5V686
				c0,7.5,6.1,13.5,13.5,13.5h61.4c7.5,0,13.5-6.1,13.5-13.5v-89.2c0-7.5-6.1-13.5-13.5-13.5L275.9,583.2L275.9,583.2z"/>
			<path class="st8" d="M556.3,700.4h-61.4c-7.9,0-14.4-6.4-14.4-14.4v-89.2c0-7.9,6.4-14.4,14.4-14.4h61.4
				c7.9,0,14.4,6.4,14.4,14.4V686C570.6,693.9,564.2,700.4,556.3,700.4z M494.9,583.2c-7.5,0-13.5,6.1-13.5,13.5V686
				c0,7.5,6.1,13.5,13.5,13.5h61.4c7.5,0,13.5-6.1,13.5-13.5v-89.2c0-7.5-6.1-13.5-13.5-13.5L494.9,583.2L494.9,583.2z"/>
		</g>
		<path class="st0" d="M787.1,699.9h20.4l-9.3-99.4c-0.6-6.2-2-12.2-4.2-17.7h-6.9c-7.7,0-13.9,6.2-13.9,13.9V686
			C773.1,693.7,779.4,699.9,787.1,699.9z"/>
		<path class="st8" d="M807.5,700.4h-20.4c-7.9,0-14.4-6.4-14.4-14.4v-89.2c0-7.9,6.4-14.4,14.4-14.4h6.9c0.2,0,0.4,0.2,0.4,0.4
			s-0.2,0.4-0.4,0.4h-6.9c-7.5,0-13.5,6.1-13.5,13.5V686c0,7.5,6.1,13.5,13.5,13.5h20.4c0.2,0,0.4,0.2,0.4,0.4
			C807.9,700.2,807.7,700.4,807.5,700.4z"/>
		<path class="st8" d="M782.5,556.9h-645c-0.2,0-0.4-0.2-0.4-0.4s0.2-0.4,0.4-0.4h645.1c0.2,0,0.4,0.2,0.4,0.4
			S782.8,556.9,782.5,556.9z"/>
		<rect x="111.3" y="726.9" class="st8" width="486.1" height="13.9"/>
		<rect x="111.3" y="759.2" class="st8" width="486.1" height="13.9"/>
		<rect x="105.8" y="871.5" class="st8" width="51.6" height="29.3"/>
		<rect x="959.4" y="871.5" class="st8" width="26.5" height="29.3"/>
		<g>
			<path class="st0" d="M738.3,766.9h-33.5c-7.7,0-13.9-6.2-13.9-13.9V596.8c0-7.7,6.2-13.9,13.9-13.9h33.5
				c7.7,0,13.9,6.2,13.9,13.9V753C752.2,760.6,746,766.9,738.3,766.9z"/>
			<rect x="706.2" y="783.7" class="st14" width="30.7" height="8.4"/>
			<rect x="622.5" y="783.7" class="st14" width="30.7" height="8.4"/>
			<path class="st0" d="M654.6,766.9h-33.5c-7.7,0-13.9-6.2-13.9-13.9V596.8c0-7.7,6.2-13.9,13.9-13.9h33.5
				c7.7,0,13.9,6.2,13.9,13.9V753C668.6,760.6,662.3,766.9,654.6,766.9z"/>
			<path class="st8" d="M762,901.2H597.4c-0.2,0-0.4-0.2-0.4-0.4v-318c0-4.8,3.9-8.8,8.8-8.8h147.8c4.8,0,8.8,3.9,8.8,8.8v317.9
				C762.4,901,762.2,901.2,762,901.2z M597.8,900.3h163.7V582.8c0-4.4-3.6-8-8-8H605.8c-4.4,0-8,3.6-8,8V900.3z"/>
			<path class="st8" d="M679.7,901.2c-0.2,0-0.4-0.2-0.4-0.4V574.4c0-0.2,0.2-0.4,0.4-0.4s0.4,0.2,0.4,0.4v326.3
				C680.1,901,679.9,901.2,679.7,901.2z"/>
			<rect x="597.4" y="888.2" class="st8" width="164.5" height="12.5"/>
			<g>
				<g>
					<defs>
						<path id="SVGID_17_" d="M738.3,766.9h-33.5c-7.7,0-13.9-6.2-13.9-13.9V596.8c0-7.7,6.2-13.9,13.9-13.9h33.5
							c7.7,0,13.9,6.2,13.9,13.9V753C752.2,760.6,746,766.9,738.3,766.9z"/>
					</defs>
					<clipPath id="SVGID_18_">
						<use xlink:href="#SVGID_17_"  style="overflow:visible;"/>
					</clipPath>
					<g class="st15">
						
							<rect x="534.4" y="641.4" transform="matrix(0.7071 -0.7071 0.7071 0.7071 -261.4625 657.0514)" class="st1" width="256.1" height="5.4"/>
						
							<rect x="583.2" y="687.5" transform="matrix(0.7071 -0.7071 0.7071 0.7071 -281.6859 705.8874)" class="st1" width="256.1" height="10.9"/>
						
							<rect x="551.7" y="653.3" transform="matrix(0.7071 -0.7071 0.7071 0.7071 -268.6261 674.3535)" class="st1" width="256.1" height="16.2"/>
					</g>
				</g>
			</g>
			<g>
				<g>
					<defs>
						<path id="SVGID_19_" d="M654.6,766.9h-33.5c-7.7,0-13.9-6.2-13.9-13.9V596.8c0-7.7,6.2-13.9,13.9-13.9h33.5
							c7.7,0,13.9,6.2,13.9,13.9V753C668.6,760.6,662.3,766.9,654.6,766.9z"/>
					</defs>
					<clipPath id="SVGID_20_">
						<use xlink:href="#SVGID_19_"  style="overflow:visible;"/>
					</clipPath>
					<g class="st16">
						
							<rect x="534.4" y="641.4" transform="matrix(0.7071 -0.7071 0.7071 0.7071 -261.4625 657.0514)" class="st1" width="256.1" height="5.4"/>
						
							<rect x="583.2" y="687.5" transform="matrix(0.7071 -0.7071 0.7071 0.7071 -281.6859 705.8874)" class="st1" width="256.1" height="10.9"/>
						
							<rect x="551.7" y="653.3" transform="matrix(0.7071 -0.7071 0.7071 0.7071 -268.6261 674.3535)" class="st1" width="256.1" height="16.2"/>
					</g>
				</g>
			</g>
		</g>
		<path class="st8" d="M940.5,747.6H819.7c-0.2,0-0.4-0.2-0.4-0.4l-4-35.1c0-0.2,0.1-0.4,0.4-0.5c0.2,0,0.4,0.1,0.5,0.4l4,34.8
			h120.4c0.2,0,0.4,0.2,0.4,0.4C940.9,747.4,940.7,747.6,940.5,747.6z"/>
		<path class="st8" d="M111.3,857.3h8.4c3.1,0,5.6-2.5,5.6-5.6v-41.8c0-3.1-2.5-5.6-5.6-5.6h-8.4V857.3z"/>
		<path class="st17" d="M116.9,851.8h-11.2c-1.5,0-2.8-1.2-2.8-2.8v-36.3c0-1.5,1.2-2.8,2.8-2.8h11.2c1.5,0,2.8,1.2,2.8,2.8V849
			C119.7,850.5,118.5,851.8,116.9,851.8z"/>
		<g>
			<path class="st1" d="M975.1,799.8c0-7-0.9-13.8-2.5-20.3l0,0h-30.4c-5.9,0-10.7,4.8-10.7,10.7l0,0c0,13.9,11.2,25.1,25.1,25.1
				h18.5L975.1,799.8L975.1,799.8z"/>
			<path class="st8" d="M975.1,815.7h-18.5c-14.1,0-25.5-11.4-25.5-25.5c0-6.1,5-11.1,11.1-11.1h30.4c0.2,0,0.4,0.2,0.4,0.4
				s-0.2,0.4-0.4,0.4h-30.4c-5.7,0-10.3,4.6-10.3,10.3c0,13.6,11.1,24.7,24.7,24.7h18.5c0.2,0,0.4,0.2,0.4,0.4
				S975.3,815.7,975.1,815.7z"/>
		</g>
		<g>
			<path class="st8" d="M864.6,629.5h1.7c10,0,18.1-8.1,18.1-18.1V586H873c-4.6,0-8.4,3.7-8.4,8.4V629.5z"/>
			<path class="st8" d="M882.9,608.9c-0.7,0-1.2-0.6-1.2-1.2v-24.9c0-3.9-3.2-7.1-7.1-7.1h-82.7c-0.7,0-1.2-0.6-1.2-1.2
				c0-0.7,0.6-1.2,1.2-1.2h82.7c5.3,0,9.6,4.3,9.6,9.6v24.9C884.2,608.4,883.6,608.9,882.9,608.9z"/>
			<path class="st8" d="M830,590.4h-30.2c-0.7,0-1.2-0.6-1.2-1.2c0-0.7,0.6-1.2,1.2-1.2h29.7l16.2-14.4c0.5-0.5,1.3-0.4,1.7,0.1
				c0.5,0.5,0.4,1.3-0.1,1.7l-16.6,14.8C830.5,590.3,830.3,590.4,830,590.4z"/>
			<circle class="st8" cx="799.5" cy="589.2" r="2.1"/>
			<circle class="st8" cx="791.9" cy="574.4" r="2.1"/>
		</g>
		<g>
			<circle class="st8" cx="321.8" cy="897.9" r="54.4"/>
			<path class="st2" d="M376.2,898.3c-0.2,0-0.4-0.2-0.4-0.4c0-29.8-24.2-54-54-54s-54,24.2-54,54c0,0.2-0.2,0.4-0.4,0.4
				c-0.2,0-0.4-0.2-0.4-0.4c0-30.2,24.6-54.8,54.8-54.8c30.2,0,54.8,24.6,54.8,54.8C376.6,898.1,376.4,898.3,376.2,898.3z"/>
			<circle class="st1" cx="321.8" cy="897.9" r="32.6"/>
			<path class="st2" d="M321.8,916.5c-10.3,0-18.7-8.4-18.7-18.7s8.4-18.7,18.7-18.7c10.3,0,18.7,8.4,18.7,18.7
				C340.5,908.2,332.1,916.5,321.8,916.5z"/>
			<circle class="st8" cx="321.8" cy="872.3" r="2.8"/>
			<circle class="st8" cx="296.3" cy="897.9" r="2.8"/>
			<circle class="st8" cx="321.8" cy="923.4" r="2.8"/>
			<circle class="st8" cx="347.4" cy="897.9" r="2.8"/>
		</g>
	</g>
	<path class="st7" d="M-61.8,1078h207c-26-38.7-55.1-34.5-58.7-28.9s-10.3-13.4-17.2-17c-6.9-3.6-4.3,19.4-15,11.6
		s-11-44.3-43.2-33.6s-14.5,44.1-27.3,42.3C-28.9,1050.6-73.7,1042.8-61.8,1078z"/>
	<g>
		<path class="st7" d="M959.8,1075.4h167.5C1083.9,961.8,974.4,1005.7,959.8,1075.4z"/>
		<path class="st8" d="M1043.5,1075.8c-0.1,0-0.3-0.1-0.4-0.2c-0.2-0.3-19.6-31.2-28.4-62.4c-0.1-0.2,0.1-0.5,0.3-0.5
			c0.2-0.1,0.5,0.1,0.5,0.3c7.7,27.4,23.7,54.6,27.5,60.8c-0.1-8.1-0.6-45.9,1.1-68.1c0-0.2,0.2-0.4,0.5-0.4c0.2,0,0.4,0.2,0.4,0.5
			c-1.9,24.9-1.1,69.2-1.1,69.6C1043.9,1075.6,1043.8,1075.8,1043.5,1075.8C1043.6,1075.8,1043.6,1075.8,1043.5,1075.8z"/>
		<path class="st8" d="M1043.5,1075.8L1043.5,1075.8c-0.5,0-50.4-3.3-71.2-28.1c-0.2-0.2-0.1-0.4,0.1-0.6c0.2-0.2,0.5-0.1,0.6,0.1
			c18.1,21.6,58.7,26.7,68.4,27.6c-7.8-4.1-37.2-20.9-52.5-46.3c-0.1-0.2-0.1-0.5,0.1-0.6c0.2-0.1,0.5-0.1,0.6,0.1
			c17.5,29.1,53.7,46.8,54,47c0.2,0.1,0.3,0.3,0.2,0.5C1043.9,1075.6,1043.7,1075.8,1043.5,1075.8z"/>
		<path class="st8" d="M1043.5,1075.8c-0.1,0-0.2,0-0.3-0.1c-0.1-0.1-0.2-0.4-0.1-0.5c0.2-0.3,19.5-31.2,24.5-64.9
			c0-0.2,0.2-0.4,0.5-0.4c0.2,0,0.4,0.2,0.4,0.5c-4.3,29.4-19.5,56.7-23.6,63.6c6.7-4.7,33.1-24.3,44.4-53.1
			c0.1-0.2,0.3-0.3,0.6-0.2c0.2,0.1,0.3,0.3,0.2,0.6c-13,33.2-46,54.3-46.3,54.5C1043.7,1075.8,1043.6,1075.8,1043.5,1075.8z"/>
		<path class="st8" d="M1043.5,1075.8c-0.2,0-0.4-0.2-0.4-0.4c0-0.2,0.1-0.4,0.4-0.5c0.3,0,31.2-4,65.1-30.5
			c0.2-0.1,0.5-0.1,0.6,0.1s0.1,0.5-0.1,0.6C1075,1071.8,1043.9,1075.7,1043.5,1075.8C1043.6,1075.8,1043.5,1075.8,1043.5,1075.8z"
			/>
	</g>
</g>
</svg>
