<?xml version="1.0" encoding="utf-8"?>
<!-- Generator: Adobe Illustrator 27.3.1, SVG Export Plug-In . SVG Version: 6.00 Build 0)  -->
<svg version="1.1" id="Layer_1" xmlns="http://www.w3.org/2000/svg" xmlns:xlink="http://www.w3.org/1999/xlink" x="0px" y="0px"
	 viewBox="0 0 1024 1024" style="enable-background:new 0 0 1024 1024;" xml:space="preserve">
<style type="text/css">
	.st0{fill:#FFFFFF;}
	.st1{fill-rule:evenodd;clip-rule:evenodd;fill:url(#SVGID_1_);}
	.st2{fill-rule:evenodd;clip-rule:evenodd;fill:url(#SVGID_00000026142214352010509190000004317061852913306283_);}
	.st3{fill-rule:evenodd;clip-rule:evenodd;fill:url(#SVGID_00000068673739025170553180000006261588670695134889_);}
	.st4{fill-rule:evenodd;clip-rule:evenodd;fill:url(#SVGID_00000137099234808571237830000017729443331651994504_);}
	.st5{fill-rule:evenodd;clip-rule:evenodd;fill:url(#SVGID_00000165194423114978879880000008987319430976320162_);}
	.st6{fill-rule:evenodd;clip-rule:evenodd;fill:#441668;}
	.st7{fill:#441668;}
	.st8{enable-background:new    ;}
</style>
<g>
	<path class="st0" d="M972.5,493.4c0,255.9-207.5,463.4-463.4,463.4S45.7,749.3,45.7,493.4S253.1,30,509,30
		C765,30,972.5,237.4,972.5,493.4"/>
	<g>
		<g>
			
				<linearGradient id="SVGID_1_" gradientUnits="userSpaceOnUse" x1="446.2969" y1="1210.5461" x2="446.2969" y2="963.5206" gradientTransform="matrix(1 0 0 1 0 -474)">
				<stop  offset="0" style="stop-color:#FB9517"/>
				<stop  offset="0.4946" style="stop-color:#FFC902"/>
				<stop  offset="1" style="stop-color:#FFE702"/>
			</linearGradient>
			<path class="st1" d="M474.3,494.1c5.8,1.9-15.4-27.2-21.9-37c-12.6,4.3-24,9.7-35.1,16.6C437.1,479.3,455,487.9,474.3,494.1"/>
			
				<linearGradient id="SVGID_00000047060345568496164530000010410912569562248075_" gradientUnits="userSpaceOnUse" x1="418.479" y1="1210.5461" x2="418.479" y2="963.5206" gradientTransform="matrix(1 0 0 1 0 -474)">
				<stop  offset="0" style="stop-color:#FB9517"/>
				<stop  offset="0.4946" style="stop-color:#FFC902"/>
				<stop  offset="1" style="stop-color:#FFE702"/>
			</linearGradient>
			<path style="fill-rule:evenodd;clip-rule:evenodd;fill:url(#SVGID_00000047060345568496164530000010410912569562248075_);" d="
				M380.3,733.6c27.4-14.1,48-32.3,59-52.9c14.8-27.6,24-43,40.3-54.7c7.4-13.1,29.5-48.2,21.4-72.8c-4.9-15.1-42.5-38.5-106.1-63.2
				c-37.1,32-60.7,85.3-60.7,132.4C334.3,669.4,355.6,706.7,380.3,733.6"/>
			
				<linearGradient id="SVGID_00000057130120060721522090000006152657108132471461_" gradientUnits="userSpaceOnUse" x1="616.2647" y1="1210.5461" x2="616.2647" y2="963.5206" gradientTransform="matrix(1 0 0 1 0 -474)">
				<stop  offset="0" style="stop-color:#FB9517"/>
				<stop  offset="0.4946" style="stop-color:#FFC902"/>
				<stop  offset="1" style="stop-color:#FFE702"/>
			</linearGradient>
			<path style="fill-rule:evenodd;clip-rule:evenodd;fill:url(#SVGID_00000057130120060721522090000006152657108132471461_);" d="
				M627.4,493.8c-21.2,8.3-40.6,12.4-54.7,59.9c2.5,15,5.2,24.8-0.6,33.4c5,29.7-8.8,41-14.3,54.7c-3.3,23.9-13.7,48.3-7.4,54.7
				c9.9,10,13.9,17.9,35,30.8c12,7.3,22.5,11.3,41.1,17.8c32.5-30.4,56.6-71.2,57.6-122.5C684.8,571.1,663.5,525.8,627.4,493.8"/>
			
				<linearGradient id="SVGID_00000035500606985996028600000005955857718156746136_" gradientUnits="userSpaceOnUse" x1="564.0974" y1="1210.5461" x2="564.0974" y2="963.5206" gradientTransform="matrix(1 0 0 1 0 -474)">
				<stop  offset="0" style="stop-color:#FB9517"/>
				<stop  offset="0.4946" style="stop-color:#FFC902"/>
				<stop  offset="1" style="stop-color:#FFE702"/>
			</linearGradient>
			<path style="fill-rule:evenodd;clip-rule:evenodd;fill:url(#SVGID_00000035500606985996028600000005955857718156746136_);" d="
				M549.4,452.3c-6.6,23.8-0.5,58.1,7.4,60.3c8,2.2,18.3-13.9,24.8-49.3C571.4,458.7,560.6,455,549.4,452.3"/>
			
				<linearGradient id="SVGID_00000152242443944208399900000008263969667635381401_" gradientUnits="userSpaceOnUse" x1="509.7" y1="1210.5461" x2="509.7" y2="963.5206" gradientTransform="matrix(1 0 0 1 0 -474)">
				<stop  offset="0" style="stop-color:#FB9517"/>
				<stop  offset="0.4946" style="stop-color:#FFC902"/>
				<stop  offset="1" style="stop-color:#FFE702"/>
			</linearGradient>
			<path style="fill-rule:evenodd;clip-rule:evenodd;fill:url(#SVGID_00000152242443944208399900000008263969667635381401_);" d="
				M514.7,465.3c4.5,0,7.1-11.8,8.9-16.9l0.1-0.1c-9.3-0.8-18.7-0.8-28-0.1C500.3,456.1,510.4,466.3,514.7,465.3"/>
		</g>
		<g>
			<path class="st6" d="M594.4,471.8c-1.2,12.3,3.2,14.6,14.6,9.9C604.4,478.2,599.5,474.9,594.4,471.8"/>
			<path class="st7" d="M404.9,183.1c3.3,6,8.5,10.2,14.2,12.2c5.8,2,12.3,1.9,18.3-0.9c0.6-0.3,1.3-0.6,1.9-0.9
				c3.5-2,6.2-5,7.9-8.5c0.5-1,0.9-2,1.2-3c1.5-4.8,1.3-10.1-0.9-15c-0.2-0.5-0.5-1-0.7-1.4c-2.3-4.1-5.8-7-9.8-8.4
				s-8.5-1.3-12.6,0.6c-0.4,0.2-0.9,0.4-1.3,0.7c-2.4,1.4-4.2,3.7-5,6.3s-0.7,5.5,0.5,8.1c0.1,0.3,0.3,0.5,0.4,0.8
				c1.3,2.3,3.2,3.8,5.4,4.6s4.7,0.7,7-0.3c0.2-0.1,0.5-0.2,0.7-0.4l-0.5-1l-0.3-0.5l-0.8-1.5c-0.2,0.1-0.3,0.2-0.5,0.2
				c-1.4,0.7-3,0.7-4.4,0.2s-2.7-1.5-3.5-3c-0.1-0.2-0.2-0.4-0.3-0.5c-0.8-1.8-0.9-3.8-0.3-5.6c0.5-1.8,1.7-3.3,3.3-4.2
				c0.3-0.2,0.7-0.4,1-0.5c3.3-1.5,6.9-1.6,10.1-0.5s6.1,3.5,7.9,6.8c0.2,0.4,0.4,0.8,0.6,1.2c1.8,4,2,8.5,0.8,12.5
				c-0.3,0.8-0.6,1.6-0.9,2.4c-1.4,3-3.6,5.5-6.5,7.1c-0.5,0.3-1.1,0.6-1.6,0.8c-5.2,2.4-10.7,2.5-15.7,0.8
				c-5-1.8-9.4-5.4-12.4-10.6c-0.3-0.6-0.7-1.2-0.9-1.9c-2.9-6.2-3.1-13.2-1.2-19.4s5.9-11.6,11.6-14.7c0.7-0.4,1.5-0.8,2.2-1.1
				c7-3.2,14.6-3.4,21.4-1S454,151,458,158c0.5,0.8,0.9,1.7,1.3,2.5c2.3,5,3.3,10.3,3.3,15.5c0,4.6-0.9,9.2-2.6,13.5
				c-0.5,1-0.9,2.1-1.3,3.2c-0.5,1.2-0.9,2.4-1.2,3.6c-3.3,11.5-1.8,23.1,3.4,32.8c3.1,5.9,7.7,11.2,13.3,15.4
				c-10.4-2.1-20.6-3-30.6-2.8c-5.9,0.1-11.5,0.2-16.9,0.5c-2-0.5-3.8-1.3-5.5-2.4l0,0c-3.4-2.3-5.9-5.8-6.8-10.1
				c-0.1-0.5-0.2-0.9-0.2-1.4c-0.5-3.6,0.6-7.3,2.7-10.2c2.2-3,5.4-5.2,9.2-6c0.4-0.1,0.8-0.2,1.2-0.2c3.3-0.4,6.5,0.3,8.9,2l0,0
				c2.4,1.6,4.2,4.2,4.9,7.3c0.1,0.3,0.1,0.7,0.2,1c0.3,2.3-0.4,4.5-1.7,6.4c-1.4,1.9-3.4,3.3-5.8,3.8l-0.3,0.1
				c-0.2,0-0.3,0.1-0.5,0.1c-2.1,0.3-4-0.2-5.5-1.2l0,0c-1.5-1-2.6-2.6-3-4.5c0-0.2-0.1-0.4-0.1-0.6c-0.1-0.9,0.2-1.8,0.7-2.6
				c0.6-0.8,1.4-1.3,2.4-1.6c0.1,0,0.2,0,0.3-0.1c0.8-0.1,1.6,0.1,2.2,0.5s1,1,1.1,1.7l0,0c0,0.1,0,0.2,0,0.2l1-0.1l0.7-0.1l1.7-0.2
				c0-0.2-0.1-0.4-0.1-0.5c-0.4-1.6-1.3-3-2.6-3.9c-1.3-0.9-2.9-1.3-4.6-1c-0.2,0-0.4,0.1-0.6,0.1l0,0c-1.8,0.4-3.4,1.5-4.4,2.9
				c-1.1,1.4-1.6,3.2-1.3,5.1c0,0.3,0.1,0.6,0.2,0.9c0.6,2.8,2.3,5.1,4.5,6.6l0,0c2.2,1.5,5,2.2,8,1.8l0,0c0.2,0,0.4-0.1,0.6-0.1
				c0.1,0,0.3,0,0.4-0.1c3.2-0.7,6-2.6,7.8-5.1c1.9-2.5,2.8-5.7,2.4-8.9l0,0c-0.1-0.5-0.1-0.9-0.2-1.3c-0.9-4-3.2-7.3-6.4-9.4l0,0
				c-3.1-2.1-7.1-3.1-11.3-2.5c-0.5,0.1-1,0.2-1.4,0.2c-4.6,1-8.6,3.7-11.3,7.4c-2.7,3.6-4,8.1-3.4,12.7c0.1,0.6,0.2,1.1,0.3,1.7
				l0,0c1.1,5.2,4.1,9.4,8.2,12.2l0,0l0.2,0.1c-23.1,2.5-42.2,10.7-61.1,39.4c-3.8,5.7-7.1,11.8-9.9,17.9
				c-6.2,7.6-14.3,12.6-23,14.8c-9.9,2.5-20.6,1.2-30.1-4.3c-1-0.6-2-1.2-3-1.8c-7.7-5.2-12.6-13.4-14.5-22.4s-0.6-18.8,4.2-27.2
				c0.5-0.9,1-1.7,1.6-2.5c4.8-7,11.6-11.6,18.9-13.5c7.3-1.8,15.2-0.9,22.3,3.1c0.7,0.4,1.5,0.9,2.2,1.4c5,3.4,8.2,8.7,9.4,14.6
				c1,4.9,0.6,10.2-1.4,15c-0.4,0.9-0.8,1.8-1.3,2.7c-0.3,0.6-0.7,1.1-1,1.6c-3.1,4.6-7.5,7.6-12.3,8.7c-4.7,1.2-9.9,0.6-14.4-2
				c-0.5-0.3-1-0.6-1.4-0.9c-2.3-1.6-3.8-4-4.4-6.7s-0.2-5.7,1.3-8.3c0.2-0.3,0.3-0.5,0.5-0.8c1.4-2.1,3.5-3.5,5.6-4l0,0
				c2.2-0.5,4.5-0.3,6.6,0.9c0.2,0.1,0.4,0.3,0.7,0.4l0.8-1.2l0.2-0.3l1-1.4c-0.3-0.2-0.6-0.4-0.9-0.6c-2.9-1.7-6.1-2-9.1-1.3
				s-5.7,2.6-7.7,5.4c-0.2,0.3-0.4,0.7-0.6,1c-1.9,3.3-2.4,7.2-1.7,10.7c0.7,3.6,2.7,6.8,5.8,8.9c0.6,0.4,1.1,0.7,1.7,1
				c5.4,3.1,11.4,3.8,17,2.4s10.7-4.9,14.3-10.2c0.4-0.6,0.8-1.2,1.2-1.9c0.5-1,1-1.9,1.5-2.9c2.4-5.5,2.9-11.6,1.7-17.3
				c-1.4-6.7-5.1-12.8-10.9-16.7c-0.8-0.6-1.6-1.1-2.4-1.5c-7.9-4.5-16.7-5.5-24.9-3.5c-8.2,2-15.7,7.1-21,14.9
				c-0.6,0.9-1.2,1.8-1.7,2.7c-5.3,9.2-6.7,19.9-4.6,29.7c2,9.8,7.5,18.8,15.9,24.6c1.1,0.7,2.1,1.4,3.2,2
				c10.3,5.9,21.9,7.3,32.7,4.6c6.8-1.7,13.2-5,18.8-9.8c-1.9,5.5-3.4,10.9-4.1,16.1l3.3,0.8c4.2-21,24-55,41-64.5
				c-6.2,7.5-9.9,17-9.9,27.5c0,11.9,4.8,22.7,12.7,30.6s18.6,12.7,30.6,12.7c11.9,0,22.7-4.8,30.6-12.7
				c7.8-7.8,12.7-18.6,12.7-30.6c0-11.9-4.8-22.7-12.7-30.6c-4.5-4.5-10.1-8.1-16.3-10.3c15.2-1.4,31.4-0.4,47.8,3.9
				c14.2,3.7,28.6,9.9,42.5,19.1l6.4-2c-0.8-0.6-1.6-1.1-2.4-1.7C515.9,258.8,504,253,492,249c-1.3-0.4-2.6-0.8-3.8-1.2h-0.1
				c-2.8-1.1-5.5-2.4-8-3.9c-6.9-4.2-12.3-10-15.9-16.6c-4.8-9-6.1-19.7-3.1-30.3c0.3-1.1,0.7-2.3,1.1-3.3c0.1-0.3,0.2-0.5,0.3-0.8
				l0,0c0.3-0.7,0.7-1.5,0.9-2.2c3.6-7.3,9.7-13,17-16.5c4.7-2.3,9.9-3.6,15.2-3.8l0,0h0.2c4-0.2,8.1,0.3,12.1,1.4
				c1,0.3,1.9,0.6,2.8,0.9c8,3,14.1,8.5,17.6,15.2s4.5,14.6,2.3,22.4l0,0c-0.2,0.8-0.5,1.7-0.8,2.4c-2.1,5.7-6.5,10.1-11.9,12.7
				c-5.4,2.6-11.8,3.3-17.9,1.6c-0.7-0.2-1.3-0.4-1.8-0.6c-1.4-0.5-2.8-1.2-4-2c-3.2-2-5.8-4.7-7.4-7.9c-2.3-4.3-2.9-9.4-1.5-14.5
				c0.2-0.6,0.3-1.1,0.5-1.6c1-2.6,3-4.7,5.5-5.9s5.5-1.6,8.3-0.7l0,0c0.3,0.1,0.6,0.2,0.8,0.3c2.4,0.9,4.2,2.5,5.3,4.5
				c1,2,1.3,4.3,0.7,6.6l0,0c-0.1,0.3-0.2,0.5-0.2,0.7l1.6,0.6l1.6,0.6c0.1-0.3,0.2-0.7,0.3-1c0.9-3.2,0.5-6.4-1-9.2
				c-1.4-2.7-3.9-4.9-7.1-6.1c-0.4-0.1-0.8-0.3-1.1-0.4l0,0c-3.7-1-7.5-0.6-10.8,1s-6,4.3-7.3,7.8c-0.2,0.7-0.4,1.3-0.6,1.8
				c-1.7,6-0.9,12,1.8,17.1c1.9,3.6,4.8,6.7,8.5,9.1c1.5,0.9,3.1,1.7,4.9,2.4c0.7,0.3,1.4,0.5,2.1,0.7c6.9,2,14.2,1.1,20.3-1.8
				c6.2-3,11.2-8.1,13.6-14.6c0.3-0.9,0.6-1.8,0.9-2.7c2.5-8.7,1.4-17.5-2.6-25c-3.9-7.4-10.7-13.5-19.5-16.8c-1-0.4-2.1-0.7-3.1-1
				c-1.3-0.4-2.7-0.7-4.1-0.9c2.9-1.6,5.4-3.8,7.4-6.3c3.4-4.4,5-10.1,4.3-16c-0.1-0.6-0.2-1.2-0.3-1.9c-1-5.1-4.1-9.4-8.2-12.3
				c-4.1-2.9-9.3-4.3-14.6-3.7c-0.6,0.1-1.1,0.2-1.6,0.3l0,0c-4.7,0.9-8.5,3.4-11.1,6.8c-2.6,3.4-3.9,7.7-3.3,12.3
				c0.1,0.4,0.1,0.9,0.2,1.4c0.7,3.5,2.8,6.5,5.7,8.5c2.8,2,6.4,3,10,2.6h0.1c0.3,0,0.7-0.1,1.1-0.2c3.3-0.7,6-2.4,7.7-4.8
				c1.8-2.4,2.7-5.4,2.3-8.6c0-0.3-0.1-0.6-0.2-1c-0.4-2-1.6-3.7-3.2-4.8s-3.6-1.7-5.7-1.4c-0.2,0-0.4,0.1-0.6,0.1l0,0
				c-1.8,0.4-3.4,1.4-4.4,2.7c-1,1.4-1.5,3.1-1.3,4.9l0,0c0,0.2,0,0.3,0.1,0.6l1-0.2l0.7-0.1l1.7-0.3c0-0.1,0-0.2,0-0.3l0,0
				c-0.1-0.9,0.1-1.8,0.6-2.4c0.5-0.7,1.3-1.2,2.3-1.4l0,0c0.1,0,0.3,0,0.3-0.1l0,0c1.2-0.1,2.4,0.2,3.3,0.8s1.6,1.6,1.8,2.6
				c0,0.2,0.1,0.4,0.1,0.7l0,0c0.3,2.3-0.4,4.4-1.6,6.1c-1.3,1.7-3.3,3-5.6,3.5c-0.2,0-0.5,0.1-0.8,0.1c-0.2,0-0.4,0-0.5,0.1
				c-2.6,0.2-5.2-0.6-7.2-2c-2.2-1.5-3.8-3.7-4.3-6.4c-0.1-0.3-0.1-0.7-0.2-1.2c-0.4-3.6,0.6-7.1,2.6-9.8c2.1-2.7,5.2-4.8,9-5.5l0,0
				c0.4-0.1,0.9-0.2,1.3-0.2c4.4-0.5,8.8,0.7,12.2,3.1l0,0c3.4,2.4,6,5.9,6.8,10.1c0.1,0.5,0.2,1,0.2,1.6c0.6,5-0.8,9.8-3.6,13.5
				c-2.8,3.8-7.1,6.5-12.3,7.6c-0.5,0.1-1,0.2-1.5,0.3c-5.8,0.3-11.4,1.7-16.5,4.2c-4.9,2.4-9.3,5.6-12.9,9.7
				c0.2-1.6,0.3-3.2,0.3-4.9c0-5.7-1.1-11.5-3.6-17c-0.4-1-0.9-1.9-1.4-2.8c-4.4-7.9-11.1-13.4-18.7-16c-7.6-2.7-16.1-2.5-24,1.2
				c-0.8,0.4-1.6,0.8-2.4,1.2c-6.5,3.6-11.1,9.8-13.2,16.8s-1.8,14.8,1.4,21.8C404.2,181.7,404.6,182.4,404.9,183.1 M445.2,261.1
				c6.9,6.9,11.1,16.4,11.1,26.9s-4.3,20-11.1,26.9S428.9,326,418.4,326s-20-4.3-26.9-11.1c-6.9-6.9-11.1-16.4-11.1-26.9
				s4.3-20,11.1-26.9c6.9-6.9,17.1-11.1,26.9-11.1C428.9,250,438.4,254.3,445.2,261.1"/>
			<path class="st7" d="M761.8,538.6c-9.1,0-16.5,7.4-16.5,16.5s7.4,16.5,16.5,16.5s16.5-7.4,16.5-16.5S770.9,538.6,761.8,538.6"/>
			<path class="st7" d="M402,288.3c0,9.1,7.4,16.5,16.5,16.5s16.5-7.4,16.5-16.5s-7.4-16.5-16.5-16.5S402,279.2,402,288.3"/>
			<path class="st7" d="M790.2,372.8c9.1,0,16.5-7.4,16.5-16.5s-7.4-16.5-16.5-16.5s-16.5,7.4-16.5,16.5S781.1,372.8,790.2,372.8"/>
			<path class="st7" d="M242.6,669.7c9.1,0,16.5-7.4,16.5-16.5s-7.4-16.5-16.5-16.5s-16.5,7.4-16.5,16.5
				C226.2,662.3,233.5,669.7,242.6,669.7"/>
			<path class="st7" d="M344.2,325.1l-1.7-0.4l-1.7-0.4c-0.8,3-0.9,6.3-0.3,9.4c0.6,3,1.8,6,3.6,8.6c0.3,0.4,0.7,0.9,1,1.3
				c3.1,3.7,7.3,6,11.6,6.6c4.3,0.6,8.9-0.4,12.7-3.1c0.4-0.3,0.8-0.6,1.2-0.9c3.1-2.6,4.9-6.4,5.4-10.4c0.4-3.9-0.6-8.1-3-11.5
				c-0.2-0.3-0.5-0.7-0.8-1c-2.4-2.9-5.6-4.6-9-5.1s-6.9,0.3-9.8,2.4c-0.3,0.2-0.6,0.4-0.9,0.7c-1.8,1.5-2.9,3.5-3.5,5.6
				c-0.1,0.5-0.2,1.1-0.3,1.7c-0.3,2.8,0.4,5.7,2.1,8.1c0.2,0.2,0.3,0.5,0.6,0.7c1.7,2,4,3.3,6.3,3.6c2.4,0.3,4.9-0.2,7-1.7
				c0.2-0.2,0.4-0.3,0.6-0.5l0,0c1.3-1.1,2-2.6,2.2-4.2s-0.2-3.3-1.2-4.6c-0.1-0.1-0.2-0.3-0.3-0.4c-1-1.2-2.3-1.9-3.7-2.1
				c-1.4-0.2-2.9,0.1-4.1,1c-0.1,0.1-0.3,0.2-0.4,0.3l1.1,1.3l1.1,1.3c0.1-0.1,0.1-0.1,0.2-0.1c0.5-0.3,1.1-0.5,1.6-0.4
				c0.6,0.1,1.1,0.4,1.6,0.9c0,0,0.1,0.1,0.1,0.2c0.5,0.7,0.7,1.5,0.6,2.3c-0.1,0.7-0.4,1.4-1,1.9l0,0c-0.2,0.1-0.3,0.2-0.4,0.3
				c-1.3,1-2.9,1.3-4.5,1.1c-1.6-0.2-3-1-4.2-2.4c-0.1-0.1-0.2-0.3-0.4-0.5c-1.2-1.7-1.7-3.7-1.5-5.7l0,0c0-0.3,0.1-0.6,0.1-0.9
				c0.3-1.6,1.2-3,2.4-4.1c0.2-0.2,0.4-0.3,0.7-0.5c2.2-1.6,4.8-2.2,7.3-1.8c2.5,0.4,5,1.7,6.8,3.9c0.2,0.2,0.4,0.5,0.6,0.8
				c1.9,2.7,2.7,6,2.4,9.2c-0.3,3.1-1.7,6-4.1,8.1c-0.3,0.3-0.6,0.5-1,0.7c-3.1,2.2-6.7,3-10.2,2.5s-6.9-2.4-9.4-5.4
				c-0.3-0.3-0.6-0.7-0.8-1.1c-1.6-2.2-2.6-4.7-3.1-7.2c-0.5-2.6-0.4-5.3,0.2-7.8L344.2,325.1z"/>
			<path class="st7" d="M637.2,209.7c9.1,0,16.5-7.4,16.5-16.5s-7.4-16.5-16.5-16.5s-16.5,7.4-16.5,16.5
				C620.8,202.4,628.1,209.7,637.2,209.7"/>
			<path class="st7" d="M584.2,337.1c-8.6-20.7-21.5-39.3-37.2-54.3l-5.8,2.2c16.2,15.8,28.2,36,36.3,58.7L584.2,337.1z"/>
			<path class="st7" d="M883.5,481.9L883.5,481.9c-0.1-0.5-0.2-0.9-0.3-1.3c-1.2-4.4-3.9-8-7.5-10.4s-7.9-3.4-12.2-2.6
				c-0.6,0.1-1.1,0.2-1.6,0.3c-4.9,1.3-8.8,4.4-11.2,8.4c-1.1,1.8-1.9,3.7-2.3,5.8c-9-20.2-22.1-37.6-40.4-48.6l0,0
				c-5-2.5-10.6-3.9-16.4-4c-5.5-0.1-11.1,0.9-16.4,3.2c-0.9,0.4-1.8,0.8-2.7,1.3c-7.6,4.1-13.1,10.5-15.8,17.7
				c-2.7,7.3-2.6,15.5,0.7,23.1c0.3,0.8,0.7,1.6,1.1,2.4c3.4,6.3,9.2,10.9,15.9,13c6.7,2.2,14.2,2,21-0.9c0.7-0.3,1.4-0.6,2-1
				c5.8-3.1,10-8,12-13.5c2.1-5.6,2-11.8-0.5-17.7c-0.3-0.6-0.5-1.2-0.9-1.8c-1.9-3.5-4.9-6.2-8.4-7.9c-0.8-0.4-1.7-0.7-2.5-1
				c-4.6-1.5-9.8-1.4-14.5,0.7c-0.5,0.2-0.9,0.4-1.4,0.7c-4,2.1-6.9,5.5-8.3,9.3c-1.4,3.8-1.4,8.2,0.4,12.2c0.2,0.4,0.4,0.8,0.6,1.2
				c1.3,2.4,3.5,4.1,6,4.9s5.3,0.8,7.8-0.4c0.2-0.1,0.5-0.2,0.8-0.4c2.2-1.2,3.8-3,4.6-5.1l0,0c0.8-2.1,0.8-4.5-0.2-6.8
				c-0.1-0.2-0.2-0.4-0.3-0.7l-1.5,0.8l-1.5,0.8c0.1,0.1,0.1,0.3,0.2,0.4c0.6,1.4,0.6,2.8,0.1,4.2l0,0c-0.5,1.3-1.5,2.5-2.9,3.3
				c-0.2,0.1-0.3,0.2-0.5,0.2c-1.7,0.8-3.7,0.8-5.4,0.2c-1.7-0.6-3.1-1.7-4-3.2c-0.2-0.3-0.3-0.7-0.5-1c-1.4-3.2-1.4-6.6-0.3-9.6
				c1.1-3,3.4-5.7,6.7-7.5c0.4-0.2,0.7-0.4,1.2-0.6c3.9-1.7,8.2-1.8,12-0.5c0.6,0.2,1.2,0.4,1.8,0.7c3,1.4,5.6,3.6,7.1,6.6
				c0.3,0.5,0.5,1,0.8,1.6c2.2,5,2.2,10.3,0.5,15.1c-1.8,4.8-5.4,9-10.4,11.7c-0.6,0.3-1.2,0.6-1.8,0.9c-6,2.6-12.7,2.7-18.6,0.8
				c-5.9-1.9-11-5.9-13.9-11.4c-0.4-0.7-0.7-1.4-1-2.1c-3-6.8-3-14.1-0.6-20.5c2.4-6.5,7.3-12.2,14.2-15.9c0.8-0.4,1.6-0.8,2.4-1.2
				c4.8-2.1,9.9-3,14.9-2.9c5.2,0.1,10.2,1.4,14.8,3.6h0.1c27.2,17.1,42.7,50.1,49.9,84.1c-5.5-7.7-14.7-12.5-24.3-11.4
				c-12.7,1.4-22.2,12.6-20.3,25.5c1.7,10.9,11.4,20,22.7,18.7c8.2-0.9,15.6-7.6,15.5-16.1c0-8.5-7.2-16.2-16-15.3
				c-5.5,0.6-11.3,5.3-10.4,11.4c1,6.6,9.7,10.3,14,4.2c-0.9-0.7-1.9-1.3-2.8-2c-2.5,3.5-7.1,1-7.7-2.7c-0.6-4,3.8-7,7.3-7.4
				c6.6-0.7,12,5.3,12.1,11.6c0.1,6.8-5.9,12.1-12.4,12.8c-9.5,1.1-17.5-6.7-18.9-15.8c-1.7-10.9,6.5-20.3,17.2-21.5
				c10.4-1.2,19.3,5.3,23.6,14.3c1.4,2.9,2.3,6,3,9.1c1.8,12.7,2.5,25.2,2.3,36.8c-1.2,65-36.6,120.4-83.5,153.1
				c-1.5,5.4-2.5,7.7-5.3,13.2c50.1-33.6,92-91.8,92.2-166.7c0.5-26-2.9-55.9-12.9-82.3c0-0.2-0.1-0.4-0.1-0.6
				c-0.8-4.3,0-8.4,2-11.7c2-3.3,5.2-5.7,9.1-6.8c0.4-0.1,0.9-0.2,1.3-0.3c3.4-0.6,6.8,0.2,9.7,2.1s5.1,4.8,6,8.3
				c0.1,0.4,0.2,0.7,0.2,1.1c0.6,3.1,0,6.1-1.5,8.4c-1.4,2.4-3.7,4.1-6.6,4.9c-0.3,0.1-0.6,0.2-0.9,0.2c-2.1,0.4-4.2-0.2-6-1.3
				c-1.8-1.2-3.2-3-3.8-5.2v-0.1l0,0c-0.1-0.3-0.1-0.5-0.2-0.7c-0.3-1.9,0-3.8,0.9-5.2c0.9-1.4,2.3-2.5,4-3c0.2-0.1,0.4-0.1,0.6-0.1
				l0,0c0.8-0.1,1.7,0.1,2.4,0.5c0.7,0.5,1.3,1.2,1.5,2.1c0,0.1,0,0.2,0.1,0.3c0.1,0.7,0,1.5-0.3,2s-0.8,0.9-1.5,1.1
				c-0.1,0-0.2,0-0.2,0l0.3,1.7l0.3,1.7c0.2,0,0.4-0.1,0.5-0.1c1.6-0.4,2.8-1.4,3.6-2.7c0.8-1.3,1.1-2.8,0.8-4.4
				c0-0.2-0.1-0.4-0.1-0.5c-0.5-1.7-1.6-3.2-3-4.1s-3.2-1.4-4.9-1c-0.3,0.1-0.6,0.1-0.8,0.2c-2.7,0.7-4.8,2.4-6.1,4.6
				s-1.9,4.9-1.3,7.6l0,0c0,0.3,0.1,0.5,0.2,0.8v0.2l0,0c0.8,3.1,2.7,5.6,5.2,7.2c2.5,1.7,5.5,2.4,8.6,1.8c0.4-0.1,0.8-0.2,1.2-0.3
				c3.8-1,6.8-3.4,8.7-6.5C883.5,489.7,884.2,485.8,883.5,481.9"/>
			<path class="st7" d="M560,171.1c0.8,0.3,1.6,0.5,2.4,0.8c4.2,1.1,8.5,1.4,12.6,0.9c-10.9,8.7-19.2,19.5-24.5,31.6
				c-4.3,9.9-6.4,18.6-5.7,31.6h-0.9c0.1,2,0.4,3.9,0.9,5.8s1.3,3.7,2.2,5.6c2.9,5.4,7.8,9.2,13.5,11c5.6,1.8,12,1.7,17.8-0.8
				c0.6-0.3,1.2-0.5,1.7-0.8c4.9-2.6,8.4-6.8,10.2-11.5c1.7-4.7,1.7-10-0.5-15c-0.2-0.5-0.5-1-0.7-1.5c-2-3.7-5.4-6.4-9.3-7.6
				c-3.9-1.3-8.3-1.2-12.3,0.6c-0.4,0.2-0.8,0.4-1.2,0.6c-3.4,1.8-5.9,4.7-7.1,7.9c-0.6,1.7-0.9,3.5-0.9,5.4c0.1,1.7,0.5,3.4,1.2,5
				c0.1,0.3,0.3,0.7,0.5,1.1c1.1,2.1,3,3.5,5.1,4.2s4.6,0.7,6.7-0.3l0,0c0.2-0.1,0.5-0.2,0.7-0.3c1.9-1,3.3-2.6,3.9-4.4
				c0.7-1.8,0.7-3.9-0.2-5.9c-0.1-0.2-0.2-0.4-0.3-0.6l-1.5,0.8l-1.5,0.8c0.1,0.1,0.1,0.2,0.2,0.3l0,0c0.5,1.1,0.5,2.2,0.1,3.3
				c-0.4,1-1.2,2-2.3,2.6c-0.1,0.1-0.3,0.1-0.4,0.2l0,0c-1.4,0.6-2.9,0.6-4.3,0.2c-1.3-0.4-2.5-1.3-3.2-2.6
				c-0.1-0.3-0.3-0.5-0.4-0.8c-0.5-1.2-0.8-2.5-0.9-3.7c-0.1-1.4,0.2-2.8,0.6-4.1c0.9-2.5,2.8-4.7,5.4-6.1c0.3-0.2,0.6-0.3,1-0.5
				c3.2-1.4,6.7-1.4,9.8-0.4s5.8,3.1,7.3,6c0.2,0.4,0.4,0.8,0.6,1.3c1.8,4.1,1.8,8.5,0.4,12.4c-1.4,3.9-4.4,7.4-8.6,9.6
				c-0.5,0.2-1,0.5-1.5,0.7c-5,2.2-10.5,2.3-15.3,0.7s-9-4.8-11.5-9.4c-0.8-1.6-1.5-3.2-2-4.9c-0.4-1.7-0.7-3.3-0.8-5v-0.1h-0.9
				c-0.8-14.6,2.9-22.8,6.4-30.5c4.1-9,9.7-15.6,16.2-22.3c10.8-11.4,25.2-18.3,42.2-22.9c-1.6,1.2-3,2.5-4.4,3.8
				c-7.8,7.8-12.7,18.6-12.7,30.6s4.8,22.7,12.7,30.6c7.8,7.8,18.6,12.7,30.6,12.7c11.9,0,22.7-4.8,30.6-12.7
				c7.8-7.8,12.7-18.6,12.7-30.6s-4.8-22.7-12.7-30.6c-1.2-1.2-2.5-2.4-3.9-3.5c15.9,4.9,29.3,14.2,39.3,25.8
				c15.1,20.1,24,44.9,14,71.7c-2.9,7.7-8.9,16.5-17.8,24.1c1.7-3.1,2.9-6.4,3.5-10c0.1-0.8,0.3-1.6,0.3-2.5
				c0.7-7.3-1.3-14.1-5.1-19.4c-3.9-5.3-9.7-9.1-16.7-10.3c-0.7-0.1-1.4-0.2-2.2-0.3c-6.1-0.6-12,1.4-16.7,5.1s-8.1,9.1-9.2,15.3
				c-0.1,0.6-0.2,1.2-0.3,1.9c-0.5,5.6,1,10.8,3.9,14.8c3,4.1,7.4,7,12.8,7.9c0.5,0.1,1.1,0.2,1.7,0.2c3.2,0.3,6.4-0.4,9.2-2
				c0.8-0.5,1.6-1,2.4-1.6c3.2-2.6,5.6-6.3,6.3-10.6c0.1-0.4,0.1-0.8,0.2-1.3c0.4-3.9-0.7-7.5-2.7-10.3c-2.1-2.8-5.2-4.9-8.9-5.5
				c-0.3-0.1-0.7-0.1-1.2-0.2c-2.3-0.2-4.6,0.5-6.4,2c-1.8,1.4-3.1,3.4-3.5,5.8c0,0.2-0.1,0.4-0.1,0.7c-0.2,2.1,0.4,4.2,1.5,5.7
				c1.2,1.6,2.9,2.7,5,3.1c0.2,0,0.4,0.1,0.7,0.1l0.1-0.6l0.1-1.1l0.2-1.7c-0.1,0-0.2,0-0.4-0.1c-1.2-0.2-2.1-0.8-2.8-1.7
				c-0.7-0.9-1-2.1-0.9-3.4c0-0.1,0-0.2,0.1-0.4c0.3-1.5,1.1-2.8,2.2-3.7c1.1-0.9,2.5-1.4,3.9-1.2c0.3,0,0.6,0.1,0.9,0.1
				c2.8,0.5,5.1,2,6.7,4.1c1.6,2.1,2.4,4.9,2.1,7.9c0,0.3-0.1,0.7-0.2,1c-0.6,3.4-2.5,6.4-5.1,8.4c-0.6,0.5-1.2,0.9-1.8,1.2
				c-2.2,1.2-4.7,1.8-7.2,1.6l0,0c-0.4,0-0.9-0.1-1.4-0.2c-4.4-0.8-8.1-3.2-10.6-6.5c-2.5-3.4-3.7-7.8-3.3-12.5c0-0.5,0.1-1,0.2-1.6
				c0.9-5.4,3.9-10,7.9-13.2s9-4.9,14.2-4.4c0.6,0.1,1.3,0.1,1.9,0.3c6.1,1.1,11.1,4.3,14.5,8.9c3.4,4.6,5.1,10.6,4.5,17
				c-0.1,0.7-0.2,1.4-0.3,2.2c-0.8,4.3-2.5,8.2-4.8,11.7c-2.4,3.5-5.6,6.4-9.2,8.6c-4.5,2.4-9.4,4.6-14.8,6.3l6.2,6.6
				c22-4.5,45.2-5.4,67.6-2.4c15.1,2.1,29.9,5.9,43.7,11.6c-11.3,0.4-21.4,5.2-28.9,12.6c-7.8,7.8-12.7,18.6-12.7,30.6
				c0,11.9,4.8,22.7,12.7,30.6c7.8,7.8,18.6,12.7,30.6,12.7c11.9,0,22.7-4.8,30.6-12.7c7.8-7.8,12.7-18.6,12.7-30.6
				c0-6.3-1.4-12.3-3.8-17.7c6.2,5.9,12.7,14.2,19.4,23.1c5.6,7.3,12.8,18,18.3,30c9.9,21.5,7.8,51.2-21.6,47.8v-0.1h-0.2
				c-0.3,0-0.6-0.1-0.8-0.1c-6.4-0.8-12.1-3.4-16.1-7.4c-4.1-4.1-6.5-9.6-5.9-15.9v-0.1c0.4-4.1,2.5-7.9,5.7-10.6s7.3-4.4,11.7-4.3
				l0,0c0.4,0,0.9,0,1.3,0.1c3.8,0.4,7.1,2,9.4,4.5c2.3,2.5,3.6,5.7,3.6,9.4c0,0.4,0,0.8-0.1,1.2c-0.2,1.8-1.1,3.5-2.5,4.7
				s-3.3,2-5.3,1.9c-0.2,0-0.4,0-0.6,0c-1.7-0.2-3.1-0.9-4.1-2s-1.6-2.5-1.6-4.1c0-0.2,0-0.3,0-0.5l-1.7-0.2l-1.7-0.2
				c0,0.3,0,0.5,0,0.8c0,2.5,0.9,4.8,2.5,6.5c0.3,0.3,0.6,0.6,1,0.9c1.5,1.2,3.3,2,5.4,2.2c0.3,0,0.6,0,0.9,0c2.9,0,5.6-1,7.6-2.8
				c2.1-1.8,3.5-4.3,3.7-7c0-0.5,0.1-1,0.1-1.4c0.1-4.6-1.6-8.7-4.5-11.8c-2.9-3.1-6.9-5.1-11.6-5.6c-0.5,0-1.1-0.1-1.6-0.1
				c-5.3-0.1-10.3,1.9-14,5.1c-3.8,3.3-6.4,7.8-6.9,12.9l0,0v0.1c-0.7,7.4,2.1,13.9,6.9,18.7c4.7,4.7,11.5,7.7,18.9,8.5l0,0
				c34.5,3.5,38.4-27.5,27.1-53c-10.7-24.3-29.4-47.4-42.9-58.5c-4.3-3.6-8.9-6.9-13.6-9.9c-1.8-1.3-3.6-2.5-5.6-3.5
				c0.8-0.1,1.7-0.2,2.5-0.4c4.4-1.1,8.4-3.7,11.1-7.9c0.3-0.4,0.5-0.8,0.8-1.3c2-3.7,2.3-8.1,1.2-12.1s-3.7-7.6-7.3-10
				c-0.4-0.2-0.8-0.5-1.1-0.7l0,0c-3.4-1.8-7.2-2.3-10.6-1.5c-3.4,0.8-6.5,2.9-8.6,6.1c-0.2,0.3-0.4,0.7-0.6,1l0,0
				c-1.4,2.6-1.6,5.7-0.8,8.5c0.8,2.7,2.5,5.3,5,6.9l0.1,0.1c0.3,0.2,0.5,0.3,0.8,0.5l0,0c2.4,1.3,5.1,1.6,7.5,1s4.6-2.1,6.1-4.3
				c0.1-0.2,0.3-0.5,0.4-0.7l0,0c0.8-1.5,0.9-3.3,0.5-4.9s-1.5-3-2.9-4c-0.1-0.1-0.3-0.2-0.5-0.3c-1.4-0.8-3-0.9-4.4-0.6
				s-2.7,1.2-3.6,2.5c-0.1,0.2-0.2,0.3-0.3,0.4l1.5,0.8l1.5,0.8c0-0.1,0.1-0.1,0.1-0.2l0,0c0.3-0.5,0.9-0.9,1.4-1
				c0.6-0.1,1.3-0.1,1.9,0.3c0,0,0.1,0.1,0.2,0.1c0.7,0.5,1.2,1.2,1.5,2c0.2,0.8,0.2,1.6-0.2,2.3l0,0c-0.1,0.2-0.2,0.3-0.3,0.5
				c-1,1.5-2.4,2.4-3.9,2.8c-1.6,0.4-3.4,0.2-5-0.7l0,0c-0.2-0.1-0.4-0.2-0.6-0.3c-0.1-0.1-0.3-0.2-0.4-0.3
				c-1.6-1.2-2.7-2.9-3.2-4.7c-0.6-2-0.4-4.1,0.6-5.9l0,0c0.1-0.3,0.3-0.5,0.5-0.8c1.5-2.4,3.9-4,6.4-4.6c2.6-0.6,5.5-0.3,8.2,1.1
				l0,0c0.3,0.2,0.6,0.3,0.9,0.5c2.9,1.9,5,4.8,5.9,8s0.7,6.6-0.9,9.5c-0.2,0.3-0.4,0.7-0.6,1.1c-2.1,3.3-5.4,5.5-8.9,6.4
				c-3.6,0.9-7.6,0.4-11.3-1.6c-0.4-0.2-0.8-0.5-1.3-0.7l-0.2,0.3c-12.2-5.8-25.1-10.2-38.5-13.1c6.7-1.1,12.7-3.3,17.7-6.3
				c6.6-3.9,11.5-9.2,14.6-15.1c3.1-6,4.3-12.7,3.2-19.5c-1.3-8-5.6-16-13.5-22.9c-5.6-4.9-13-7.2-20.3-6.9s-14.6,3.2-20.2,8.6
				c-0.6,0.6-1.1,1.1-1.6,1.7c-4.6,5.2-6.8,11.4-6.8,17.6c0,6.2,2.4,12.3,7,17.1c0.5,0.5,1,1,1.5,1.4c1.8,1.6,3.8,2.7,6,3.5
				c2.5,0.9,5.3,1.3,8,1.2c5-0.2,10-2.2,13.8-5.9l0,0c0.4-0.4,0.8-0.8,1.1-1.2l0,0c3.1-3.6,4.7-7.9,4.7-12.1c0-4.3-1.6-8.5-4.8-11.8
				c-0.3-0.3-0.7-0.7-1-1l0,0c-2.1-1.9-4.9-2.7-7.6-2.6c-2.7,0.1-5.4,1.2-7.5,3.2c-0.2,0.2-0.4,0.4-0.6,0.6
				c-1.7,1.9-2.6,4.3-2.6,6.6c0,2.4,0.9,4.7,2.7,6.5c0.2,0.2,0.3,0.3,0.5,0.5l0.1,0.1l1.2-1.3l1.1-1.3c-0.1-0.1-0.3-0.3-0.4-0.4
				c-1.1-1.1-1.7-2.6-1.7-4.1s0.6-3,1.7-4.3l0,0c0.1-0.1,0.3-0.3,0.4-0.4c1.4-1.4,3.3-2.1,5.2-2.2s3.7,0.5,5.1,1.7l0,0
				c0.3,0.3,0.6,0.5,0.8,0.8c2.6,2.6,3.8,6,3.8,9.4s-1.3,6.9-3.8,9.8l0,0c-0.3,0.3-0.6,0.6-0.9,1l0,0c-3.2,3.1-7.4,4.8-11.6,4.9
				c-2.2,0.1-4.4-0.2-6.5-1c-1.8-0.7-3.5-1.6-5-2.9c-0.5-0.4-0.9-0.8-1.3-1.3c-4-4.1-6-9.3-6-14.7c0-5.3,2-10.8,5.9-15.3
				c0.5-0.5,1-1,1.4-1.5c5-4.8,11.5-7.4,18-7.7s12.9,1.7,17.9,6c7.3,6.4,11.2,13.7,12.4,20.8c1,6-0.1,12-2.9,17.3
				c-2.8,5.4-7.3,10.2-13.3,13.7c-8.9,5.3-21.2,7.9-35.7,6l-0.5-0.1v0.1c-14.8-1.7-29.1-2.2-42.8-1.3c13.3-9.1,22-20.7,26.8-33.3
				c4.9-13.1,5.5-27.3,2.5-40.9c-3-13.6-9.6-26.8-19.1-37.9c-14.9-17.4-37-29.8-63.6-31.2c-0.4,0-0.9,0-1.3-0.1
				c-1.7-0.2-3.3-0.3-5-0.3c-1.8,0-3.6,0.1-5.3,0.3c-3,0.2-6,0.4-9,0.8c-15.1,2.4-28.5,7.4-39.7,14.3c-2.4,1.1-5,1.9-7.6,2.4l0,0
				c-4.1,0.7-8.4,0.6-12.6-0.6c-0.7-0.2-1.4-0.4-2.1-0.7c-6.1-2.2-10.7-6.3-13.5-11.3c-2.7-5-3.5-11-1.9-16.9
				c0.2-0.6,0.4-1.2,0.6-1.9c1.8-4.8,5.5-8.7,10-10.9c4.6-2.3,10.1-3,15.3-1.5c0.5,0.1,1,0.3,1.6,0.5c4.4,1.6,7.9,4.6,9.9,8.3
				s2.6,8,1.4,12.3c-0.1,0.4-0.3,0.9-0.4,1.4c-0.9,2.6-2.8,4.7-5.1,6.2c-0.4,0.3-0.9,0.5-1.3,0.8c-2.9,1.5-6.4,1.9-9.8,1
				c-0.3-0.1-0.7-0.2-1-0.3c-2.8-1-5-2.9-6.3-5.3c-1.3-2.3-1.6-5.1-0.9-7.8c0.1-0.3,0.2-0.6,0.3-0.9c0.5-1.3,1.5-2.4,2.8-3
				s2.8-0.8,4.3-0.4c0.1,0,0.3,0.1,0.4,0.1c1.2,0.4,2.1,1.2,2.7,2.2c0.5,1,0.7,2.1,0.4,3.3c0,0.1-0.1,0.2-0.1,0.4l1.6,0.6l1.6,0.6
				c0.1-0.2,0.1-0.4,0.2-0.6c0.6-2,0.3-4.1-0.7-5.8c-0.9-1.7-2.5-3.1-4.5-3.8c-0.2-0.1-0.4-0.1-0.7-0.2c-2.3-0.6-4.7-0.3-6.7,0.7
				s-3.7,2.7-4.5,4.9c-0.1,0.4-0.2,0.7-0.4,1.1c-1,3.6-0.5,7.3,1.2,10.4c1.7,3.1,4.5,5.6,8.1,6.9c0.4,0.1,0.8,0.3,1.3,0.4
				c4.2,1.2,8.6,0.6,12.2-1.2c0.7-0.3,1.4-0.7,2-1.2c2.8-1.9,5-4.5,6.1-7.7c0.2-0.5,0.4-1.1,0.5-1.6c1.4-5.2,0.7-10.5-1.7-14.9
				s-6.5-8-11.7-9.9c-0.6-0.2-1.2-0.4-1.8-0.6c-6.1-1.7-12.4-0.9-17.8,1.7c-5.4,2.6-9.7,7.1-11.8,12.9c-0.2,0.7-0.5,1.4-0.7,2.1
				c-1.9,6.8-0.9,13.7,2.2,19.5C547.8,163.9,553.1,168.6,560,171.1 M817,330.1c6.9,6.9,11.1,16.4,11.1,26.9s-4.3,20-11.1,26.9
				c-6.9,6.9-16.4,11.1-26.9,11.1s-20-4.3-26.9-11.1c-6.9-6.9-11.1-16.4-11.1-26.9s4.3-20,11.1-26.9c6.9-6.9,16.4-11.1,26.9-11.1
				C800.6,318.9,810.1,323.2,817,330.1 M632.8,156.7c3-0.1,6-0.1,9.1,0c8.7,1,16.5,5,22.4,10.9c6.9,6.9,11.1,16.4,11.1,26.9
				s-4.3,20-11.1,26.9c-6.9,6.9-16.4,11.1-26.9,11.1s-20-4.3-26.9-11.1c-6.9-6.9-11.1-16.4-11.1-26.9s4.3-20,11.1-26.9
				C616.4,161.7,624.2,157.8,632.8,156.7"/>
			<path class="st7" d="M771.6,694.2c-0.2-1.3-1-7.8,3-14.3c2.1-3.5,5.5-6.1,9.8-7.3l0,0c0.5-0.1,0.9-0.2,1.4-0.3
				c3.6-0.7,7.3,0.3,10.3,2.3c3.1,2,5.4,5.1,6.4,8.9c0.1,0.4,0.2,0.8,0.3,1.1c0.6,3.3,0,6.5-1.6,9c-1.5,2.5-4,4.4-7.1,5.2l0,0
				c-0.4,0.1-0.7,0.2-1,0.2c-2.3,0.4-4.6-0.2-6.5-1.4c-1.9-1.3-3.4-3.2-4-5.5V692c-0.1-0.3-0.1-0.5-0.2-0.7c-0.4-2.1,0-4,1-5.6
				c0.9-1.6,2.5-2.7,4.4-3.2l0,0c0.2-0.1,0.4-0.1,0.6-0.1l0,0c0.9-0.2,1.8,0.1,2.6,0.6s1.4,1.3,1.7,2.3c0,0.1,0.1,0.2,0.1,0.3
				c0.1,0.8,0,1.6-0.4,2.2c-0.4,0.6-0.9,1-1.7,1.2l0,0c-0.1,0-0.2,0-0.2,0.1l0.3,1.7l0.3,1.7c0.2,0,0.4-0.1,0.5-0.1
				c1.6-0.4,2.9-1.5,3.7-2.8s1.1-2.9,0.8-4.6c0-0.2-0.1-0.4-0.1-0.6c-0.5-1.8-1.6-3.3-3.1-4.3s-3.3-1.4-5.1-1.1l0,0
				c-0.3,0.1-0.6,0.1-0.9,0.2l0,0c-2.8,0.7-5,2.5-6.4,4.8s-1.9,5.1-1.4,8c0,0.3,0.1,0.6,0.2,0.8v0.2c0.8,3.2,2.9,5.9,5.5,7.6
				c2.6,1.7,5.8,2.5,9,1.9c0.5-0.1,0.9-0.2,1.3-0.3c4-1.1,7.1-3.5,9.1-6.8s2.8-7.3,2-11.4c-0.1-0.5-0.2-1-0.3-1.4
				c-1.2-4.6-4.1-8.4-7.9-10.9c-3.7-2.5-8.3-3.6-12.9-2.8l0,0c-0.6,0.1-1.1,0.2-1.6,0.4l0,0c-5.1,1.4-9.3,4.6-11.8,8.8
				c-1.5,2.5-2.5,5.4-2.8,8.4c-4.9-11-13.3-20.5-24.8-26.6c-1.3-0.7-2.6-1.3-3.9-1.9c-8.2-3.5-16.7-4.7-24.8-3.8
				c-6.5-0.6-12.2-3.3-16.5-7.4c-4.5-4.4-7.2-10.3-7.4-17c0-0.7,0-1.4,0-2.1c0.2-3.7,1.4-7.3,3.4-10.3c2.4-1.9,4.7-4.3,6.9-6.9
				c3.5-2.3,7.7-3.7,12.2-3.9c0.6,0,1.2,0,1.8,0c5.2,0.3,9.7,2.3,13,5.5s5.3,7.5,5.4,12.5c0,0.5,0,1,0,1.6c-0.2,3.6-1.9,6.9-4.5,9.4
				s-6.1,4.1-10,4.2h-0.3c-0.3,0-0.6,0-0.9,0c-3.3-0.2-6.2-1.5-8.3-3.5l0,0c-2.1-2-3.4-4.8-3.5-7.9c0-0.3,0-0.7,0-1
				c0.1-1.6,0.8-3,2-4.1s2.7-1.8,4.4-1.9l0,0c0.2,0,0.3,0,0.5,0c1.4,0.1,2.7,0.6,3.6,1.5l0,0c0.9,0.9,1.4,2,1.5,3.4
				c0,0.1,0,0.3,0,0.4l1.7,0.1l1.7,0.1c0-0.2,0-0.5,0-0.7l0,0c-0.1-2.3-1-4.3-2.5-5.7c-1.5-1.5-3.5-2.4-5.8-2.5c-0.2,0-0.5,0-0.8,0
				c-2.6,0.1-4.9,1.1-6.7,2.8s-2.9,4-3,6.5c0,0.4,0,0.8,0,1.3c0.1,4.1,1.8,7.7,4.5,10.3l0,0c2.7,2.6,6.4,4.3,10.5,4.5
				c0.3,0,0.6,0,1,0h0.4c4.7-0.1,9-2.1,12.2-5.1s5.3-7.2,5.6-11.7c0-0.6,0-1.2,0-1.8l0,0c-0.2-5.8-2.6-11-6.5-14.8
				s-9.2-6.2-15.2-6.5c-0.7,0-1.4,0-2.1,0c-2.7,0.1-5.2,0.6-7.7,1.4c2-3.1,3.8-6.3,5.3-9.7l0,0c2.7-6.1,4.3-12.4,4.3-18.1
				c-0.1-6-2-11.2-6.6-14.9c-2.5-2-5.7-3.5-9.9-4.4l0,0H699l0,0c-3.8-0.7-7.6,0.5-10.6,2.8c-2.9,2.3-5.2,5.8-6,9.6l0,0v0.1l0,0
				c-0.1,0.4-0.1,0.8-0.2,1.2c-0.4,3.5,0.5,6.9,2.3,9.5c1.9,2.6,4.7,4.5,8.1,5.2c0.3,0.1,0.7,0.1,1.1,0.2c0.3,0,0.5,0,0.8,0.1
				c2.4,0.1,4.8-0.8,6.7-2.2c2.1-1.6,3.7-4,4.2-6.7c0.1-0.3,0.1-0.6,0.1-0.8c0.3-2.5-0.4-4.8-1.7-6.7s-3.3-3.2-5.7-3.7
				c-0.2,0-0.5-0.1-0.8-0.1c-1.6-0.2-3.1,0.3-4.4,1.3c-1.2,0.9-2.1,2.3-2.4,3.9c0,0.2-0.1,0.3-0.1,0.5c-0.2,1.5,0.2,2.9,1,4
				s1.9,1.9,3.3,2.2h0.1l0,0c0.1,0,0.3,0,0.4,0.1l0.2-1.7l0.2-1.7c-0.1,0-0.1,0-0.2,0c-0.5-0.1-0.9-0.4-1.2-0.8
				c-0.3-0.4-0.4-1-0.4-1.6c0-0.1,0-0.1,0-0.2c0.1-0.7,0.6-1.3,1.1-1.8c0.5-0.4,1.2-0.6,1.9-0.6c0.1,0,0.3,0,0.5,0.1l0,0
				c1.5,0.3,2.7,1.1,3.5,2.3s1.2,2.7,1,4.3c0,0.2-0.1,0.4-0.1,0.6c-0.4,1.9-1.4,3.5-2.9,4.6c-1.3,1-2.9,1.5-4.5,1.5
				c-0.2,0-0.3,0-0.5,0c-0.3,0-0.5-0.1-0.8-0.1c-2.5-0.5-4.5-1.9-5.9-3.8c-1.4-1.9-2-4.4-1.7-7.1c0-0.3,0.1-0.6,0.1-0.9v-0.1l0,0
				c0.6-3,2.4-5.7,4.7-7.6c2.3-1.8,5-2.7,7.8-2.2h0.1l0,0c3.5,0.7,6.3,2,8.4,3.7c3.7,3,5.2,7.3,5.3,12.3c0.1,5.2-1.5,11-4,16.7l0,0
				c-2.3,5.2-5.4,10.2-8.9,14.4c-1.2,0.8-2.3,1.7-3.4,2.7c-4.7,4.4-7.7,10.4-8.1,17c0,0.8,0,1.6,0,2.4l0,0
				c0.2,7.6,3.4,14.4,8.5,19.4c2.9,2.9,6.5,5.1,10.5,6.6c-0.5,0.2-1,0.3-1.5,0.5c-10.8,3.6-20.1,11.2-25.8,22.1
				c-0.6,1.2-1.2,2.3-1.7,3.5c-3.7,8.7-3.5,18.4-0.2,27c0.7,1.8,1.5,3.5,2.4,5.1c0.6,2.3,2.4,6.7,0.3,12.5c-1.2,3.3-3.6,6.1-7,7.8
				c-0.3,0.2-0.7,0.3-1.1,0.5c-2.9,1.2-6.2,1-9.1-0.1c-2.9-1.2-5.5-3.4-7-6.4l0,0c-0.1-0.3-0.3-0.6-0.4-0.9
				c-1.1-2.7-1.1-5.5-0.2-7.9c0.9-2.4,2.6-4.4,5-5.6c0.3-0.1,0.5-0.3,0.8-0.4c1.8-0.7,3.8-0.6,5.6,0.1c1.7,0.7,3.3,2,4.2,3.7
				l0.1,0.3l0,0c0.1,0.2,0.2,0.4,0.3,0.6l0,0c0.7,1.6,0.7,3.4,0.2,4.8l0,0c-0.5,1.4-1.6,2.7-3.1,3.4c-0.2,0.1-0.3,0.2-0.5,0.2
				c-0.7,0.3-1.5,0.2-2.2,0c-0.7-0.3-1.3-0.8-1.7-1.6l0,0c0-0.1-0.1-0.1-0.1-0.2l0,0c-0.3-0.6-0.3-1.3-0.1-1.8l0,0
				c0.2-0.5,0.6-1,1.1-1.2l0,0c0.1,0,0.1-0.1,0.2-0.1l-0.7-1.6l-0.1-0.2l-0.6-1.4c-0.2,0.1-0.3,0.1-0.4,0.2l0,0
				c-1.4,0.7-2.3,1.8-2.8,3.2c-0.5,1.3-0.5,2.8,0.1,4.3l0,0c0.1,0.2,0.1,0.3,0.2,0.5c0.8,1.5,2.1,2.7,3.5,3.3c1.5,0.6,3.2,0.7,4.8,0
				c0.3-0.1,0.5-0.2,0.7-0.3c2.3-1.2,4-3.1,4.8-5.4l0,0c0.8-2.3,0.8-4.8-0.2-7.3l0,0c-0.1-0.2-0.2-0.5-0.4-0.8l0,0l0,0
				c-1.3-2.7-3.6-4.6-6.2-5.7c-2.6-1-5.6-1.2-8.2-0.1c-0.4,0.2-0.7,0.3-1.1,0.5c-3.3,1.6-5.6,4.4-6.7,7.6l0,0
				c-1.1,3.2-1.1,6.8,0.3,10.3c0.2,0.4,0.3,0.8,0.5,1.2l0,0c1.9,3.8,5.1,6.6,8.8,8.1s7.9,1.7,11.7,0.1c0.4-0.2,0.9-0.4,1.4-0.6l0,0
				c4.2-2.1,7.2-5.6,8.7-9.8l0,0c0.8-2.2,1.1-4.6,1-7c3.1,3.6,6.9,6.7,11.3,9c0.9,0.5,1.8,0.9,2.7,1.3c8,3.4,16.4,3.6,23.8,1.2
				c7.4-2.5,13.8-7.7,17.7-15.1c0.4-0.8,0.8-1.6,1.1-2.4c2-4.7,1.9-9.9,0.1-14.5c-1.7-4.6-5.1-8.6-9.8-11.1c-0.5-0.3-1-0.5-1.4-0.7
				c-4.3-1.8-8.8-2-12.8-0.6c-4,1.3-7.5,4.2-9.6,8.2c-0.2,0.4-0.4,0.9-0.6,1.3l2.4,1l2.4,1c0.1-0.3,0.3-0.6,0.4-0.9
				c1.5-2.8,3.8-4.7,6.6-5.7c2.8-0.9,6-0.8,9.1,0.5c0.4,0.2,0.7,0.3,1.1,0.5c3.5,1.8,6,4.8,7.3,8.3c1.3,3.4,1.4,7.2,0,10.6
				c-0.3,0.7-0.6,1.4-1,2c-3.2,6.2-8.5,10.5-14.7,12.6s-13.3,1.9-20.1-1c-0.8-0.3-1.6-0.7-2.3-1.1c-5.6-2.9-10.1-7.4-13.2-12.5
				c-1-1.7-1.9-3.6-2.6-5.5c-2.8-7.4-3-15.7,0.1-23.1c0.5-1.1,1-2.1,1.5-3.1c5-9.6,13.2-16.3,22.8-19.5s20.5-2.9,31,1.6
				c1.2,0.5,2.4,1.1,3.6,1.7c11.3,5.9,19.3,15.6,23.5,26.7c4.4,11.6,4.7,24.7,0.6,36.8c-5,14.6-15.2,25.2-27.7,34
				c-36.5,25.6-84.4,20.1-119.3,5.5c2,1.8,3.8,3.6,5.6,5.4c4.1,4.3,7.5,8.6,10.3,12.9c8,1.6,15.8,2.8,23.6,3.3l0.1,0.6h0.1
				c3.1-0.5,6.4-0.3,9.5,0.5c3,0.8,5.9,2.3,8.4,4.4l0,0c0.4,0.4,0.8,0.7,1.2,1.1l0,0c3.4,3.4,5.3,7.7,5.5,12c0.3,4.3-1.1,8.5-4.1,12
				c-0.3,0.4-0.7,0.7-1,1.1l0,0c-2.7,2.7-6.4,4.1-10.2,4.2c-3.8,0.1-7.7-1.2-10.8-3.8l0,0c-0.3-0.2-0.6-0.5-0.9-0.8
				c-2.5-2.5-3.8-5.6-4-8.7c-0.2-3.1,0.8-6.2,2.9-8.7c0.2-0.2,0.4-0.5,0.7-0.8c1.3-1.3,2.9-2.1,4.7-2.4c0.6-0.1,1.1-0.2,1.7-0.2
				c2.4,0,4.9,0.8,6.8,2.4c0.2,0.1,0.4,0.3,0.6,0.5l0,0c1.5,1.6,2.4,3.5,2.5,5.4s-0.5,3.8-1.8,5.4l0,0c-0.1,0.1-0.2,0.3-0.5,0.5
				c-0.7,0.7-1.6,1-2.6,1.1c-1,0-2-0.3-2.8-1l0,0l-0.2-0.2l0,0c-0.6-0.6-1-1.4-1-2.1c0-0.7,0.2-1.5,0.7-2.1c0,0,0.1-0.1,0.2-0.2
				l-1.2-1.2l-0.9-0.9l-0.4-0.4c-0.1,0.1-0.2,0.2-0.4,0.4l0,0c-1.1,1.3-1.6,2.9-1.5,4.5s0.8,3.2,2,4.4l0,0c0.1,0.1,0.2,0.2,0.4,0.4
				l0,0c1.5,1.3,3.3,1.9,5.2,1.8c1.9,0,3.7-0.7,5-2.1c0.2-0.2,0.4-0.4,0.6-0.7l0,0c1.9-2.3,2.8-5.1,2.7-7.9
				c-0.2-2.8-1.4-5.5-3.5-7.7l0,0c-0.2-0.2-0.5-0.5-0.8-0.7c-2.6-2.2-5.9-3.3-9.2-3.2c-0.8,0-1.6,0.1-2.3,0.2
				c-2.4,0.5-4.7,1.6-6.5,3.4c-0.3,0.3-0.6,0.6-0.9,1c-2.8,3.2-4,7.2-3.8,11.2c0.2,3.9,1.9,7.8,5,10.9c0.3,0.3,0.7,0.6,1.1,1
				c3.8,3.2,8.5,4.7,13.2,4.7c4.7-0.1,9.3-1.8,12.6-5.2l0,0c0.4-0.4,0.8-0.8,1.2-1.3c3.6-4.2,5.2-9.4,4.9-14.5s-2.5-10.2-6.6-14.2
				l0,0c-0.5-0.5-0.9-0.9-1.4-1.3l0,0c-1.2-1-2.4-1.9-3.7-2.6c12.4-0.5,25-2.8,38.3-7.1c22.3-7.2,40.2-21.1,50.7-38
				c2.9-4.7,5.2-9.5,7-14.6C774.7,718.1,774.9,705.7,771.6,694.2"/>
			<path class="st7" d="M847.4,599.2c-0.9,2.5-2.7,4.6-4.9,5.8s-4.8,1.7-7.2,1.1c-2.3-0.6-4.3-1.7-5.8-3.2c-1.5-1.4-2.7-3.2-3.3-5.3
				c0-0.1-0.1-0.3-0.1-0.4h-0.2c-4.8-53.8-45.2-104.7-101.6-120c-34.7-9.5-74.2-6.7-109.8,6.2c-5.2,2.2-14.5,4.6-18,3
				c-5.2-2.3-5.4-8.6-4.7-13.8c8.5-39.2,9.1-77.8-0.7-114.6l-7.1,7.7c4,16.6,6,32.6,6,49c-0.3-0.5-0.7-1-1-1.4
				c-2.7-3.4-6.7-5.7-11.3-6.3c-0.5-0.1-1-0.1-1.5-0.1c-4-0.2-7.9,1.3-10.9,3.9s-5.1,6.3-5.6,10.4c-0.1,0.4-0.1,0.9-0.1,1.3
				c-0.2,3.7,1,7.1,3.1,9.8c2.1,2.6,5.2,4.4,8.8,4.9c0.4,0,0.8,0.1,1.1,0.1c2.9,0.1,5.6-0.9,7.7-2.8c2.1-1.8,3.5-4.4,3.9-7.3v-0.1
				c0-0.3,0-0.5,0.1-0.8c0.1-2.6-0.7-5-2.2-6.9s-3.7-3.1-6.2-3.5c-0.3,0-0.5-0.1-0.8-0.1c-1.7-0.1-3.2,0.5-4.4,1.6
				c-1.2,1-2,2.5-2.2,4.2c0,0.2,0,0.3,0,0.5c-0.1,1.5,0.4,3,1.3,4c0.9,1.1,2.2,1.9,3.7,2.1l0,0c0.1,0,0.3,0,0.5,0l0.1-1.7l0,0
				l0.1-1.7c0,0-0.1,0-0.2,0l0,0c-0.6-0.1-1.1-0.4-1.4-0.8c-0.4-0.4-0.6-1-0.5-1.7l0,0c0-0.1,0-0.2,0-0.2c0.1-0.8,0.5-1.5,1.1-2
				s1.3-0.8,2-0.7l0,0c0.2,0,0.4,0,0.5,0c1.6,0.2,3,1,4,2.2s1.5,2.8,1.4,4.6c0,0.2,0,0.4,0,0.6v0.2c-0.3,2-1.3,3.7-2.7,5
				s-3.3,2-5.2,1.9c-0.3,0-0.6,0-0.9-0.1c-2.7-0.3-4.9-1.7-6.5-3.6c-1.6-2-2.5-4.6-2.3-7.4l0,0c0-0.3,0-0.7,0.1-1
				c0.4-3.3,2.1-6.2,4.4-8.2c2.3-2,5.3-3.2,8.4-3.1c0.4,0,0.8,0.1,1.2,0.1c3.7,0.5,6.9,2.3,9,5c2.2,2.7,3.4,6.3,3.2,10.3
				c0,0.5-0.1,0.9-0.1,1.4h0.2c-0.8,12.2-2.6,24.7-5.5,38c-2.3,10.4-4.9,29.5-9.7,38.3c-3.3,6.1-8.7,13.3-15.9,13.9
				c3.5,6.2,6.5,13,8.9,20.7c4.1-11.5,9.6-22.9,17.4-32c5.8-6.6,22.5-14.8,31.4-17.7c23.8-8.7,49.5-12.6,74.1-11.3v0.1
				c3.8,0.4,7.5,1.4,11,3c3.4,1.6,6.6,3.8,9.4,6.6c5.4,5.3,8.2,12.7,8.4,20.2s-2.2,15.3-7.4,21.4c-0.5,0.6-1.1,1.2-1.6,1.8
				c-4.9,5-11,7.7-17.2,8.1c-6.2,0.4-12.4-1.5-17.5-5.8l0,0c-0.5-0.4-1-0.9-1.6-1.4c-3.5-3.5-5.3-8.2-5.5-13
				c-0.1-4.9,1.5-9.9,4.8-13.9l0,0c0.3-0.4,0.7-0.8,1.1-1.2c3.2-3.2,7.1-5,11.1-5.2c0.7,0,1.4,0,2.2,0c3.2,0.2,6.4,1.4,9.1,3.7
				c0.4,0.3,0.7,0.6,1,0.9c1.6,1.6,2.4,3.7,2.5,5.9s-0.7,4.5-2.2,6.4l0,0c-0.1,0.2-0.3,0.3-0.5,0.5c-1.4,1.4-3.2,2.2-5,2.4
				c-1.8,0.1-3.5-0.4-5-1.7l0,0c-0.1-0.1-0.3-0.3-0.4-0.4l-1.2,1.2l-1.2,1.2c0.2,0.2,0.4,0.4,0.7,0.6l0,0c2.2,1.8,4.8,2.6,7.5,2.5
				c2.6-0.2,5.2-1.3,7.2-3.4c0.2-0.2,0.4-0.5,0.7-0.7l0,0c2.1-2.5,3.1-5.6,3-8.7s-1.3-6.1-3.5-8.3c-0.4-0.4-0.8-0.8-1.2-1.1
				c-3.2-2.7-7-4.2-10.9-4.5c-1-0.1-1.9-0.1-2.9,0c-4.8,0.3-9.6,2.4-13.4,6.3c-0.4,0.4-0.9,0.9-1.2,1.4l0,0
				c-3.9,4.6-5.7,10.5-5.6,16.2c0.2,5.7,2.3,11.3,6.5,15.4c0.6,0.5,1.1,1.1,1.8,1.6l0,0c5.8,4.9,12.9,7,19.9,6.6
				c7-0.5,14-3.5,19.5-9.1c0.6-0.6,1.2-1.3,1.8-2c5.7-6.8,8.4-15.4,8.2-23.7c-0.2-8.4-3.4-16.6-9.5-22.6c-2.3-2.3-4.8-4.2-7.4-5.7
				c5.8,0.9,11.5,2.1,17.1,3.6c21.8,6,41.5,17,57,33.6c-16.4-7.6-36-4.2-48.8,8.6c-16.8,16.8-16.8,44.4,0,61.1
				c16.8,16.8,44.4,16.8,61.1,0c8-7.8,13.6-19.7,13.2-32.6c9.4,16.9,21,36.1,15.5,76.8c-2.1,8.2-7,15.8-14,20.6
				c-6.2,4.2-14.1,6.2-23.2,4.4c-0.8-0.2-1.5-0.3-2.3-0.6c-6.7-1.9-12-6-15.3-11.2s-4.6-11.5-3.3-18c0.1-0.6,0.3-1.3,0.5-2
				c1.3-4.7,4.6-8.6,8.8-11c4.2-2.5,9.4-3.5,14.4-2.4c0.5,0.1,1,0.2,1.5,0.4c4.3,1.2,7.8,3.9,9.9,7.2c2,3.1,2.9,6.9,2.3,10.8
				c0,0.3-0.1,0.5-0.1,0.8l0,0c-0.1,0.4-0.2,0.9-0.3,1.3c-0.6,2.1-2.1,3.9-4,5s-4.3,1.6-6.6,1.1c-0.2,0-0.4-0.1-0.7-0.2l0,0
				c-2-0.6-3.5-1.7-4.4-3.2s-1.3-3.3-1-5.2c0-0.1,0.1-0.3,0.2-0.6l-1.4-0.4l-0.2-0.1l-1.7-0.5c-0.1,0.2-0.1,0.5-0.2,0.9
				c-0.6,2.8,0,5.5,1.4,7.7s3.6,3.9,6.4,4.7l0,0c0.3,0.1,0.6,0.2,1,0.2c3.2,0.6,6.4,0,9-1.5c2.7-1.6,4.7-4,5.6-7.1
				c0.2-0.5,0.3-1.1,0.4-1.6l0,0c0.1-0.4,0.1-0.8,0.2-1.2c0.6-4.7-0.4-9.2-2.8-12.9c-2.6-4.1-6.7-7.2-11.9-8.7
				c-0.5-0.2-1.1-0.3-1.8-0.4c-5.9-1.2-11.9,0-16.8,2.8c-4.9,2.9-8.8,7.5-10.4,13.1c-0.2,0.7-0.4,1.5-0.6,2.3
				c-1.5,7.4,0,14.7,3.8,20.6c3.8,5.9,9.8,10.5,17.3,12.7c0.8,0.2,1.7,0.4,2.6,0.6c10.2,2,19-0.2,25.9-4.9
				c7.9-5.4,13.3-14.1,15.6-23.3l-0.2-0.1c1.6-8.4,2.3-16.9,2-25.3c0.2,0.3,0.5,0.5,0.8,0.8c2,1.9,4.5,3.3,7.4,4
				c3.3,0.8,6.8,0.2,9.8-1.4c2.9-1.7,5.3-4.4,6.4-7.7c0.1-0.4,0.2-0.7,0.3-1c0.8-3.1,0.4-6.1-0.9-8.7c-1.3-2.6-3.6-4.6-6.5-5.6
				c-0.3-0.1-0.6-0.2-0.9-0.3c-1.9-0.5-3.9-0.1-5.5,0.8c-1.6,0.9-3,2.5-3.6,4.3c-0.1,0.2-0.1,0.4-0.2,0.6c-0.4,1.7-0.2,3.5,0.5,5
				c0.3,0.7,0.8,1.3,1.4,1.8c0.7,0.6,1.5,1.1,2.4,1.4c0.2,0.1,0.4,0.1,0.5,0.2l0.4-1.7l0.4-1.7c-0.1,0-0.2,0-0.3-0.1
				c-0.8-0.3-1.4-0.8-1.8-1.5c-0.4-0.7-0.5-1.6-0.3-2.5c0-0.1,0.1-0.2,0.1-0.3c0.4-1.1,1.1-1.9,2-2.4s2-0.7,3-0.5
				c0.2,0.1,0.5,0.1,0.7,0.2c2,0.7,3.6,2.1,4.5,3.9c0.9,1.8,1.2,4,0.6,6.2C847.6,598.7,847.5,599,847.4,599.2 M788.6,582
				c-14.8,14.8-39,14.8-53.7,0c-14.8-14.8-14.8-39,0-53.7c13-13,34.9-14.7,49.7-3.5c7.6,6.5,15.1,20,15.1,30.4
				C799.8,565.6,795.5,575.1,788.6,582"/>
			<path class="st7" d="M542,806.9c-9.1,0-16.5,7.4-16.5,16.5s7.4,16.5,16.5,16.5s16.5-7.4,16.5-16.5
				C558.4,814.3,551.1,806.9,542,806.9"/>
			<path class="st7" d="M605.5,763.1c-0.5-0.5-1.1-0.9-1.6-1.4c0.1-0.1-67.8-45.1-63.1-83.5c0.5-12.4,6.1-27.7,8.3-40.4
				c2.7-15.3,2.5-30.1,2.5-45.6c4.6,7.4,4.1,20.1,4.8,27.6c1.7-2.9,3.4-5.9,4.7-9c4.6-10.7,4-19.7,2.2-30.8
				c-5.7-23.3-15.5-41.2-25.9-57.9c1.1-1.6,23.3,28,29.4,50.5c0.9-6.3-1.5-16.3-2.4-21.9c-9.2-48.2-50.5-71-70.7-94.9
				c-5.4-8.7-10.2-17.6-14.1-26.6c-1.8-5.5-0.6-18.2,0.7-21c5.1-11.7,18.7-17.6,30.4-11.9l0,0c9.8,4.8,15.7,16.6,11.2,27
				c-3.5,7.9-12.7,12.8-20.8,8.8l0,0c-6.2-3-10.1-10.6-7.2-17.2c2.7-6.1,11.5-9.4,14.3-2.4c0.1,0.2,0.1,0.3,0.2,0.5
				c0.8,2.5-0.2,5.1-2.7,6.1c-0.1,0.1-0.3,0.1-0.4,0.1l0.5,1.7l0.5,1.7c0.2-0.1,0.5-0.2,0.7-0.2c4.2-1.7,6-6.2,4.6-10.4
				c-0.1-0.2-0.2-0.5-0.3-0.7c-1-2.3-2.7-4.1-4.8-5.1l0,0c-6.3-3.1-13.4,1.7-15.9,7.5c-3.7,8.4,0.9,17.9,8.8,21.8l0,0
				c9.9,4.8,21.2-0.8,25.5-10.5c5.3-12.1-1.4-25.9-12.8-31.5l0,0c-13.5-6.6-29.1,0.1-35.1,13.6c-1.4,3.1-2.2,6.6-2.4,10.1
				c-2.2-6.3-3.9-12.7-5.2-19.1c-8.7-45,8.9-81.6,46.9-106c25.3-16.3,56.5-23.4,86.8-17.8c29.2,5.4,55.7,22.3,72.9,46.3
				c20,27.9,25.5,65.8,19.4,99.4v0.1l0,0c-0.2,1-0.4,2.1-0.7,3.1c-0.2,1-0.5,2-0.9,3.1c-0.4,1.3-0.9,2.5-1.3,3.7
				c-4.3,10.7-12,18.7-21.1,23.2s-19.9,5.6-30.3,2.3c-1.1-0.3-2.2-0.7-3.3-1.2c-8.6-3.5-15.2-10.4-18.9-18.8s-4.6-18.2-1.7-27.5l0,0
				c0.3-0.9,0.6-1.9,1-2.8c3.2-7.9,8.9-13.8,15.6-17.2c6.8-3.4,14.7-4.1,22.4-1.7c0.8,0.3,1.6,0.6,2.4,0.9
				c5.6,2.3,9.9,6.8,12.3,12.2c2,4.6,2.8,9.8,1.8,14.9c-0.2,1-0.4,2-0.7,3c-0.2,0.6-0.4,1.2-0.7,1.8c-2.1,5.1-5.7,9-10.1,11.2
				c-4.4,2.2-9.5,2.7-14.5,1.1c-0.5-0.2-1.1-0.4-1.6-0.6c-2.6-1-4.6-3.1-5.7-5.7c-1.1-2.5-1.4-5.5-0.5-8.4c0.1-0.3,0.2-0.6,0.3-0.8
				c1-2.4,2.6-4.1,4.6-5.1s4.3-1.2,6.6-0.5c0.3,0.1,0.5,0.2,0.7,0.3l0.6-1.5l0.1-0.2l0.7-1.6c-0.3-0.1-0.7-0.3-1-0.4
				c-3.2-1-6.4-0.7-9.2,0.7c-2.8,1.4-5.1,3.8-6.3,6.9c-0.2,0.4-0.3,0.7-0.4,1.1c-1.2,3.7-0.8,7.5,0.7,10.8s4.1,6.1,7.6,7.5
				c0.6,0.3,1.2,0.5,1.8,0.7c5.9,1.9,11.9,1.3,17.1-1.3c5.1-2.6,9.4-7,11.8-13c0.3-0.7,0.5-1.4,0.7-2.1c0.3-1.1,0.6-2.1,0.8-3.2
				c1.1-5.9,0.3-11.9-2-17.2c-2.8-6.2-7.7-11.4-14.2-14c-0.9-0.4-1.8-0.7-2.7-1c-8.6-2.7-17.5-1.9-25,1.9
				c-7.5,3.7-13.8,10.3-17.3,19c-0.4,1-0.8,2-1.1,3l0,0c-3.2,10.1-2.3,20.8,1.8,30s11.4,16.8,20.8,20.6c1.2,0.5,2.4,0.9,3.5,1.3
				c11.4,3.6,23,2.4,32.9-2.5s18.2-13.6,22.8-25.1c0.5-1.3,1-2.7,1.4-4c0.3-1.1,0.6-2.2,0.9-3.3c0.3-1.1,0.5-2.2,0.7-3.3l0,0
				c1.5-8.4,2.5-16.9,2.8-25.4c0.8,3.3,1.7,6.4,2.5,9.4c2.5,8.5,5.2,15.7,7.8,19.9l-0.5,0.2c0.2,0.6,0.5,1.2,0.7,1.9
				c3.5,9.4,5.6,17.3,5.3,23.5s-3,10.7-9.3,13.3c-2,0.8-4.3,0.6-6.4-0.4c-2.2-1.1-4-3-5-5.3c-0.1-0.2-0.2-0.5-0.3-0.7
				c-0.7-2-0.5-4.1,0.2-5.8c0.7-1.7,2.1-3.1,3.9-3.8c0.2-0.1,0.4-0.2,0.6-0.2c1.1-0.3,2.2-0.3,3.3,0c0.3,0.1,0.5,0.2,0.8,0.3
				c1.3,0.6,2.4,1.7,2.9,3.1c0.1,0.2,0.1,0.3,0.2,0.4l0,0c0.4,1.2,0.3,2.4-0.1,3.4c-0.4,1-1.2,1.8-2.3,2.3c-0.1,0-0.2,0.1-0.4,0.1
				c-0.4,0.1-0.9,0.1-1.4-0.1s-0.8-0.6-1-1.1l0,0l-0.1-0.1c-0.1-0.4-0.1-0.8,0-1.1c0.1-0.3,0.4-0.5,0.7-0.7l0,0h0.1l-0.5-1.7l-0.3-1
				l-0.2-0.7c-0.1,0-0.3,0.1-0.4,0.1l0,0c-1.2,0.5-2.1,1.4-2.5,2.5c-0.5,1.1-0.5,2.3-0.1,3.6c0.1,0.2,0.1,0.3,0.1,0.4l0,0
				c0.5,1.3,1.6,2.3,2.7,2.9c1.2,0.6,2.6,0.7,4,0.3c0.2-0.1,0.4-0.1,0.6-0.2c1.9-0.8,3.4-2.3,4.2-4.1c0.8-1.8,0.9-3.9,0.2-5.9l0,0
				c-0.1-0.2-0.2-0.5-0.3-0.7c-0.9-2.2-2.6-3.9-4.6-4.9c-0.3-0.2-0.7-0.3-1.1-0.4c-1.8-0.6-3.7-0.7-5.5-0.1
				c-0.3,0.1-0.6,0.2-0.9,0.3c-2.7,1.1-4.7,3.2-5.8,5.7s-1.3,5.4-0.3,8.2c0.1,0.3,0.2,0.7,0.4,1c1.3,3.1,3.8,5.7,6.7,7.1
				s6.2,1.7,9.2,0.5c7.7-3.2,11.1-8.7,11.5-16.3c0.3-5.4-1.1-11.9-3.6-19.3c4.4,3.9,9.6,6.3,15,7c6.7,0.9,13.5-0.7,19.4-4.9
				c0.6-0.5,1.2-0.9,1.8-1.4c4.7-4,7.4-9.8,8-15.9c0.6-6-1-12.4-4.7-17.6c-0.4-0.6-0.8-1.1-1.2-1.5c-3.7-4.3-8.6-6.9-13.7-7.6
				c-5.1-0.7-10.4,0.5-14.8,3.8c-0.5,0.4-0.9,0.7-1.4,1.1c-0.8,0.7-1.4,1.4-2.1,2.1c-2,2.5-3.2,5.6-3.5,8.8
				c-0.4,4.2,0.7,8.5,3.3,12.1c0.3,0.4,0.6,0.7,0.8,1.1c2.6,3,6,4.8,9.5,5.3s7.2-0.4,10.3-2.6c0.3-0.3,0.7-0.5,0.9-0.7
				c1.8-1.6,2.9-3.8,3.1-6.1c0.2-2.3-0.4-4.7-1.8-6.6c-0.2-0.2-0.3-0.4-0.5-0.6c-1.4-1.7-3.3-2.7-5.3-2.9c-2-0.3-4,0.2-5.8,1.5
				c-0.2,0.1-0.4,0.3-0.5,0.4l1.1,1.3l1.1,1.3c0.1-0.1,0.2-0.2,0.3-0.2c1-0.7,2.1-1,3.3-0.8c1.1,0.2,2.3,0.8,3.1,1.8
				c0.1,0.1,0.2,0.3,0.3,0.4c0.9,1.3,1.3,2.8,1.2,4.3c-0.1,1.4-0.8,2.8-1.9,3.7c-0.3,0.2-0.5,0.4-0.7,0.6c-2.4,1.7-5.1,2.3-7.8,2
				c-2.7-0.4-5.3-1.8-7.3-4.1c-0.3-0.3-0.5-0.6-0.7-0.8c-2.1-2.9-2.9-6.4-2.6-9.7c0.2-2.4,1.1-4.8,2.5-6.7c0.5-0.7,1.1-1.4,1.8-2
				c0.4-0.3,0.8-0.6,1.1-0.9c3.7-2.7,8.1-3.7,12.3-3.1c4.3,0.6,8.4,2.8,11.5,6.4c0.4,0.4,0.7,0.9,1.1,1.3c3.3,4.5,4.6,10,4.1,15.2
				s-2.8,10.1-6.8,13.6c-0.5,0.5-1.1,0.9-1.6,1.2c-5.1,3.7-11.1,5.1-16.9,4.3c-5.8-0.8-11.4-3.8-15.7-8.8c-0.5-0.6-1-1.2-1.4-1.8
				c-2.6-3.6-5.5-11.1-8.2-20.3c-2.4-8.3-4.7-18-6.3-27.6c-0.9-10.3-2.9-20.5-6.3-30.3c0.3,0.3,0.6,0.5,0.9,0.7
				c8.7,7.2,21.4,9.3,31.4,3.2c10.9-6.6,14.8-20.8,7.6-31.6c-6.1-9.2-18.7-13.3-28.5-7.4c-19.7,12-1.9,37.7,13.7,28.2
				c4.7-2.9,8-9.6,4.6-14.7c-3.6-5.5-12.5-5.4-14.3,1.5l0,0c0,0.2-0.1,0.4-0.1,0.6l3.4,0.6l0.1-0.3c1-3.9,6-3.5,8-0.5
				c2.2,3.4-0.5,8-3.5,9.8c-11.7,7.2-25.7-12.7-10.1-22.3c8.2-5,18.7-1.3,23.8,6.3c6.1,9.2,2.7,21.1-6.5,26.7
				c-8.7,5.3-19.8,3.4-27.4-2.9c-2.9-2.4-5.7-5.4-7.3-8.8c-2.7-5.9-6-11.8-9.8-17.4c-17.6-25.7-44.7-44.4-75.5-50.1
				c-28.3-4.7-58.6-1.8-83.3,8.4c-8,3.3-15.5,7.6-22.5,12.6c0.7-1.7,1.1-3.6,1.2-5.4c0.3-4.3-1.1-8.7-4.1-12.3
				c-0.3-0.4-0.7-0.8-1-1.1l0,0c-2.9-2.9-6.7-4.3-10.7-4.4l0,0c-3.9-0.1-8,1.2-11.1,3.9l0,0c-0.4,0.3-0.7,0.6-0.9,0.9l0,0
				c-2.6,2.6-4.1,6-4.3,9.3c-0.2,3.4,0.9,6.8,3.2,9.5c0.3,0.3,0.5,0.6,0.8,0.8l0,0c2,2,4.7,3.1,7.5,3.1c2.7,0.1,5.5-0.9,7.8-2.7l0,0
				c0.2-0.2,0.4-0.4,0.7-0.6c1.9-1.9,2.9-4.2,3-6.6s-0.6-4.8-2.3-6.8c-0.2-0.2-0.4-0.4-0.5-0.6l0,0c-1.2-1.2-2.8-1.8-4.4-1.8
				s-3.2,0.5-4.5,1.6c-0.1,0.1-0.3,0.2-0.4,0.3c-1.1,1.1-1.7,2.5-1.8,3.9s0.4,2.8,1.3,4c0.1,0.1,0.2,0.3,0.3,0.3l0.9-0.9l0.3-0.3
				l1.2-1.2l-0.1-0.1l0,0c-0.4-0.4-0.6-1-0.5-1.5c0-0.6,0.3-1.1,0.8-1.6c0,0,0.1-0.1,0.2-0.2c0.6-0.5,1.4-0.8,2.2-0.8
				c0.7,0,1.5,0.3,2,0.8l0,0c0.2,0.2,0.3,0.3,0.4,0.4c1.1,1.2,1.5,2.8,1.4,4.3s-0.8,3.1-2,4.3c-0.1,0.1-0.3,0.3-0.5,0.4
				c-0.1,0.1-0.2,0.2-0.3,0.3c-1.5,1.2-3.3,1.7-5.1,1.7c-1.9,0-3.8-0.7-5.1-2.1l0,0c-0.2-0.2-0.4-0.4-0.6-0.6c-1.7-2-2.5-4.6-2.4-7
				c0.1-2.5,1.2-5,3.3-7l0,0c0.3-0.3,0.5-0.5,0.7-0.7l0,0c2.5-2.1,5.7-3.2,8.8-3.1c3.1,0.1,6.1,1.2,8.3,3.4c0.3,0.3,0.6,0.6,0.8,0.9
				c2.4,2.8,3.5,6.3,3.3,9.8s-1.7,7-4.5,9.8l0,0c-0.4,0.4-0.7,0.7-1,0.9l0.5,0.6c-19.2,16.3-33.1,38.6-39.6,62.4
				c-1-4.1-2.8-7.9-5.4-11c-4-4.8-9.8-8-16.5-8.7l0,0c-0.7-0.1-1.4-0.1-2.1-0.1c-5.8-0.2-11.3,2.1-15.5,6c-4.2,3.8-7.1,9.2-7.7,15.2
				c-0.1,0.6-0.1,1.2-0.1,1.8l0,0c-0.1,5.3,1.6,10.2,4.7,13.9c3.1,3.7,7.5,6.2,12.7,6.7l0,0c0.5,0,1.1,0.1,1.6,0.1
				c4,0.1,7.8-1.5,10.8-4.1c2.9-2.6,4.9-6.3,5.3-10.5v-0.1c0-0.4,0.1-0.7,0.1-1.1c0.1-3.7-1.1-7.1-3.3-9.6c-2.2-2.6-5.2-4.3-8.8-4.7
				c-0.3,0-0.7-0.1-1.1-0.1c-2.2-0.1-4.4,0.8-6,2.3s-2.7,3.5-3,5.8c0,0.2,0,0.5,0,0.7c0,2.1,0.6,4,1.8,5.4c1.2,1.5,3,2.4,5,2.6
				c0.2,0,0.4,0,0.6,0v-1.7l0,0v-1.7c-0.1,0-0.2,0-0.4,0c-1.1-0.1-2-0.6-2.7-1.4s-1.1-1.9-1-3.1c0-0.1,0-0.3,0-0.4
				c0.2-1.4,0.8-2.7,1.8-3.6s2.2-1.4,3.6-1.4c0.3,0,0.6,0,0.8,0.1c2.7,0.3,4.9,1.6,6.5,3.5s2.5,4.5,2.5,7.3c0,0.3,0,0.6-0.1,1v0.1
				c-0.4,3.2-2,6.1-4.2,8.1c-2.3,2.1-5.2,3.3-8.3,3.2c-0.4,0-0.9,0-1.3-0.1c-4.2-0.4-7.8-2.5-10.4-5.5s-4-7.1-3.9-11.5
				c0-0.5,0-1,0.1-1.6c0.5-5.1,3-9.7,6.6-12.9c3.6-3.3,8.2-5.2,13.1-5.1c0.6,0,1.2,0.1,1.8,0.1c5.8,0.6,10.7,3.4,14.2,7.5
				s5.5,9.7,5.3,15.8c0,0.7-0.1,1.4-0.1,2.1l0.7,0.1c-3.2,17.1-2.5,34.6,0.4,50.5c-32.8-33.4-74.4-56.8-118-62.9l0,0l-0.8-0.2
				c-46.3-14.4-68.5-42.1-71.9-73.7c-1.5-13.9,0.5-28.2,5.3-41.7s12.6-26.2,22.5-37c0.6-0.6,1.2-1.2,1.8-1.8l0.8,1.4
				c0.4-0.2,0.7-0.4,1-0.5c3-1.3,6.2-1.5,9-0.6c2.7,0.9,5.1,2.8,6.6,5.5c0.2,0.3,0.3,0.6,0.4,0.9c1,2.4,1,5,0.1,7.5
				c-0.9,2.4-2.7,4.6-5.1,5.9c-0.3,0.1-0.5,0.3-0.7,0.4c-2.2,1-4.4,1-6.4,0.4s-3.7-2-4.7-3.9c-0.1-0.2-0.2-0.4-0.3-0.6
				c-0.6-1.4-0.6-3.1-0.1-4.5c0.5-1.3,1.4-2.5,2.6-3.3c0.2-0.1,0.3-0.2,0.5-0.3s0.3-0.2,0.4-0.2c1.3-0.6,2.7-0.6,3.9-0.2
				c1.2,0.4,2.2,1.2,2.8,2.4c0.1,0.1,0.1,0.3,0.2,0.4c0.2,0.5,0.2,1.1,0,1.6c-0.2,0.6-0.6,1-1.1,1.3l0,0l-0.2,0.1
				c-0.4,0.2-0.9,0.2-1.3,0.1c-0.4-0.1-0.7-0.4-0.9-0.8c0,0,0-0.1-0.1-0.1l-1.6,0.7l-1.6,0.7c0.1,0.1,0.1,0.3,0.2,0.4
				c0.6,1.2,1.7,2,2.9,2.4c1.2,0.4,2.5,0.3,3.8-0.2l0,0c0.1,0,0.2-0.1,0.4-0.2l0,0c1.3-0.7,2.3-1.9,2.8-3.2s0.5-2.9-0.1-4.2
				c-0.1-0.2-0.2-0.4-0.3-0.6c-1.1-2-2.8-3.4-4.8-4s-4.2-0.6-6.3,0.4c-0.3,0.1-0.5,0.2-0.7,0.3l-0.1,0.1c-2.2,1.2-3.8,3.2-4.6,5.4
				c-0.8,2.3-0.9,4.8,0.1,7.1c0.1,0.3,0.3,0.6,0.4,0.9c1.5,2.8,3.9,4.7,6.7,5.6c2.8,0.9,5.9,0.8,8.9-0.5c0.3-0.2,0.7-0.3,1-0.5
				c3.2-1.7,5.5-4.6,6.7-7.8s1.2-6.8-0.2-10c-0.2-0.4-0.4-0.8-0.6-1.1c-1.9-3.6-5-6-8.6-7.2c-2.7-0.9-5.6-1-8.5-0.3
				c16.7-16,38.8-28.3,63.6-26.5l0,0h0.1c6.2,0.2,12.5,1.9,18.2,4.7c5.5,2.8,10.5,6.8,14.5,11.8c0.7,0.9,1.3,1.8,1.9,2.7
				c5.3,8,7.3,17,6.1,25.5c-1.2,8.4-5.5,16.3-12.7,21.9c-0.8,0.6-1.5,1.2-2.4,1.7c-6.4,4.3-14.3,5.6-21.8,4.2s-14.7-5.4-19.7-11.8
				c-0.5-0.7-1-1.3-1.4-2c-3.9-5.9-5.4-12.6-4.5-18.8s4-12,9.3-16.2c0.6-0.4,1.1-0.9,1.7-1.3c3.2-2.2,7.1-3.1,10.9-3
				c1.1,0,2.2,0.1,3.2,0.3c4.9,0.9,9.5,3.5,12.8,7.6c0.3,0.4,0.7,0.9,0.9,1.3c2.5,3.8,3.5,8.1,2.9,12.1s-2.6,7.7-6,10.4
				c-0.4,0.3-0.7,0.6-1.1,0.8c-1.9,1.3-4.2,1.6-6.4,1.2c-2.2-0.4-4.4-1.6-5.9-3.5c-0.2-0.2-0.3-0.4-0.4-0.6
				c-1.1-1.7-1.6-3.7-1.3-5.5s1.2-3.4,2.7-4.6c0.2-0.1,0.3-0.3,0.5-0.4l-1-1.5l-0.7-1.1l-0.3-0.4c-0.3,0.2-0.5,0.3-0.7,0.5
				c-2.3,1.8-3.6,4.2-4,6.9c-0.4,2.6,0.2,5.4,1.9,7.9c0.2,0.3,0.4,0.6,0.6,0.8c2,2.6,4.9,4.2,8,4.8s6.3,0,9-1.7
				c0.5-0.3,0.9-0.6,1.3-1c4.1-3.3,6.6-7.8,7.3-12.7c0.7-4.8-0.4-10-3.4-14.5c-0.3-0.5-0.7-1-1.1-1.5c-3.8-4.8-9.2-7.9-14.9-8.9
				c-1.3-0.2-2.6-0.4-3.9-0.4c-4.5-0.1-8.9,1.1-12.8,3.6c-0.7,0.5-1.3,0.9-2,1.4c-6,4.7-9.6,11.3-10.6,18.4c-1,7,0.6,14.6,5,21.2
				c0.5,0.8,1,1.5,1.6,2.2c5.5,7.1,13.5,11.5,21.8,13c8.4,1.5,17.1,0.1,24.3-4.7c0.9-0.6,1.8-1.2,2.6-1.9c7.9-6.2,12.7-14.9,14-24.2
				s-0.8-19.1-6.6-27.9c-0.7-1-1.4-2-2.1-2.9c-4.3-5.5-9.7-9.8-15.7-12.8c-0.6-0.3-1.2-0.6-1.9-0.9c-2.8-1.3-5.8-2.3-8.8-3
				c-2.9-0.7-5.9-1.1-9-1.2l0,0c-29.5-2.2-54.5,12-72.7,31.6c-10.5,11.2-18.5,24.6-23.6,38.8s-7.2,29.3-5.6,44.1
				c0.7,6.1,2,12,3.9,17.7c-8.3-7.4-17.3-12-26-14c-8.4-2-16.6-1.6-23.9,0.8c-7.3,2.5-13.6,7-18.1,13.4c-5.3,7.5-8.1,17.4-7.1,29.4
				c0.7,8.5,4.9,16.2,11.2,21.8c6.2,5.5,14.5,9,23.4,9l0,0c0.9,0,1.8,0,2.7-0.1c7.9-0.6,14.7-4,19.6-9.1c4.9-5.1,7.8-12,7.8-19.6
				l0,0c0-0.8,0-1.6-0.1-2.4c-0.2-2.9-1-5.6-2.3-8.1c-1.3-2.6-3.2-5-5.4-7c-4.3-3.8-10.1-6.2-16.2-6.2l0,0c-0.6,0-1.2,0-1.9,0.1
				c-5.5,0.4-10.2,2.8-13.6,6.3c-3.4,3.6-5.5,8.4-5.5,13.7c0,0.6,0,1.2,0.1,1.7c0.3,3.3,1.9,6.3,4.3,8.4c2.4,2.1,5.6,3.4,9,3.4l0,0
				c0.3,0,0.7,0,1,0c3.1-0.2,5.7-1.6,7.7-3.6c1.9-2,3.1-4.7,3.1-7.7c0-0.3,0-0.6,0-0.9l-2.6,0.2l-2.6,0.2c0,0.2,0,0.3,0,0.5
				c0,1.6-0.6,3.1-1.6,4.1c-1.1,1.1-2.6,1.8-4.3,2c-0.2,0-0.4,0-0.6,0l0,0c-2.1,0-4-0.8-5.5-2.1c-1.4-1.3-2.4-3-2.6-4.9
				c0-0.5-0.1-0.9-0.1-1.3c0-3.9,1.5-7.4,4-10.1s6.1-4.4,10.3-4.7c0.5,0,0.9-0.1,1.5-0.1l0,0c4.8,0,9.3,1.9,12.7,4.9
				c1.6,1.4,3,3.2,4,5c1.1,2,1.8,4.2,2,6.6c0,0.7,0.1,1.3,0.1,2l0,0c0,6.2-2.4,11.8-6.4,16s-9.7,7-16.2,7.5
				c-0.7,0.1-1.5,0.1-2.3,0.1l0,0c-7.5,0-14.6-2.9-20-7.7c-5.3-4.7-8.9-11.2-9.4-18.3c-0.9-10.6,1.6-19.4,6.2-26
				c3.8-5.4,9.2-9.4,15.4-11.5c6.3-2.1,13.5-2.4,21-0.7c11.1,2.6,22.8,9.9,32.9,22.6l0.5,0.6l0.3-0.2c9.4,16.1,25.2,30,48.2,40.1
				c-20.5-0.4-41.2,3.2-61.4,11.5c-13.1,5.4-25.9,12.8-38.3,22.5c-4.5,3.6-8.9,7.3-13.1,11.4l-0.4-0.4c-0.4,0.5-0.9,1-1.4,1.5
				c-4.1,4.2-9.4,6.6-14.6,6.9c-5.2,0.4-10.5-1.2-14.9-4.8c-0.4-0.4-0.9-0.8-1.3-1.2l0,0c-3.4-3.3-5.2-7.9-5.3-12.5
				c-0.1-4.7,1.4-9.5,4.6-13.4c0.3-0.4,0.7-0.7,1-1.1l0,0c3-3.1,6.8-4.8,10.7-5.1c3.8-0.3,7.7,0.9,10.8,3.5c0.3,0.3,0.6,0.6,1,0.9
				c2.1,2.1,3.3,5,3.4,8c0.1,3-0.9,6.1-2.9,8.5l-0.1,0.1c-0.2,0.2-0.4,0.4-0.6,0.6l0,0c-1.9,2-4.3,3-6.7,3.2s-4.8-0.6-6.8-2.2
				c-0.2-0.2-0.4-0.3-0.6-0.6c-0.9-0.9-1.4-2.1-1.4-3.4s0.4-2.6,1.3-3.7c0.1-0.1,0.2-0.2,0.3-0.3c0.8-0.8,1.8-1.3,2.8-1.3
				c1-0.1,2,0.2,2.8,0.9l0,0c0.1,0.1,0.2,0.2,0.3,0.2l0.9-0.9l0.3-0.3l1.2-1.2c-0.2-0.2-0.3-0.3-0.5-0.4l0,0
				c-1.5-1.3-3.4-1.8-5.3-1.7c-1.8,0.1-3.6,0.9-5.1,2.4c-0.1,0.1-0.3,0.3-0.5,0.5c-1.4,1.7-2.1,3.9-2.1,6c0.1,2.1,0.9,4.2,2.5,5.8
				c0.2,0.2,0.5,0.5,0.8,0.7c2.7,2.3,6,3.2,9.3,3c3.2-0.2,6.4-1.7,9-4.3l0,0c0.2-0.2,0.4-0.4,0.6-0.7l0.2-0.3
				c2.6-3.1,3.8-7,3.7-10.9c-0.1-3.8-1.6-7.6-4.4-10.4c-0.4-0.4-0.8-0.7-1.2-1.1c-3.9-3.2-8.6-4.7-13.3-4.3
				c-4.7,0.3-9.3,2.4-12.9,6.1c-0.4,0.4-0.8,0.8-1.2,1.3c-3.8,4.5-5.5,10.2-5.4,15.7c0.2,5.6,2.3,11,6.4,14.9l0,0
				c0.5,0.5,1,0.9,1.5,1.4c5.1,4.2,11.2,6.1,17.3,5.6c2.1-0.1,4.1-0.6,6.1-1.2c-2.7,2.6-5.1,5.5-7,8.8c-7.5,9.9-13.9,20.8-18.7,32.4
				c-1.7,2.7-3.7,5.2-5.8,7.4c-4.2,4.2-9.3,6.9-15.6,5.9l0,0c-0.1,0-0.2,0-0.4-0.1l0,0c-1.8-0.4-3.3-1.3-4.3-2.7
				c-1-1.4-1.4-3.3-1.1-5.7c0-0.3,0.1-0.4,0.1-0.5c0.3-1.3,0.9-2.4,1.8-3.2c0.8-0.7,1.8-1.2,3-1.2l0,0c0.1,0,0.2,0,0.4,0
				c1,0.1,1.9,0.5,2.5,1.1c0.3,0.3,0.5,0.6,0.7,1s0.3,0.9,0.3,1.4c0,0.1,0,0.2,0,0.3l0,0c0,0.3-0.2,0.6-0.5,0.9s-0.7,0.4-1,0.4l0,0
				h-0.1l0,0c-0.3,0-0.5-0.1-0.7-0.3c-0.1-0.2-0.2-0.4-0.2-0.6v-0.1l-1.7-0.1h-0.6l-1.1-0.1c0,0.1,0,0.2,0,0.4c0,1.2,0.5,2.2,1.2,3
				s1.8,1.3,2.9,1.3c0.1,0,0.2,0,0.4,0l0,0c1.3,0,2.5-0.5,3.3-1.3c0.9-0.8,1.5-2,1.6-3.2c0-0.2,0-0.4,0-0.6c0-1-0.2-1.9-0.6-2.7
				c-0.3-0.8-0.8-1.5-1.4-2.1c-1.2-1.2-2.9-2-4.8-2.2c-0.2,0-0.4,0-0.6,0l0,0c-2.1,0-3.9,0.8-5.3,2.1c-1.4,1.3-2.5,3.1-2.9,5.1
				c-0.1,0.3-0.1,0.6-0.1,0.7c-0.5,3.3,0.2,6,1.7,8.2c1.5,2.1,3.8,3.6,6.5,4.1c0.2,0,0.3,0.1,0.5,0.1l0,0c7.4,1.1,13.3-1.8,18.1-6.5
				c-1.7,5.1-3,10.4-4,15.7l0,0c-2.8,15.5-1.9,27.1,0.9,36.1c2.9,9.1,7.7,15.5,12.6,20.7c7.4,7.7,17,12.6,26.8,13.5
				c9.2,0.9,18.6-1.7,26.5-8.6c4.5-3.9,7-9.4,7.5-15.2s-1-11.8-4.7-16.7c-0.4-0.5-0.8-1-1.2-1.5c-3.6-4.1-8.3-6.5-13.1-7.2
				c-4.9-0.6-9.9,0.6-14.1,3.7c-0.4,0.3-0.9,0.7-1.3,1c-1.1,0.9-2,2-2.7,3.2c-1.4,2.2-2.3,4.8-2.5,7.4c-0.3,4,0.7,8.1,3.2,11.6
				c0.3,0.3,0.5,0.7,0.8,1c2.5,2.8,5.7,4.5,9.1,5c3.4,0.4,6.9-0.4,9.8-2.6c0.3-0.2,0.6-0.5,0.9-0.7c1.7-1.5,2.7-3.6,2.9-5.8
				s-0.4-4.5-1.8-6.4c-0.1-0.2-0.3-0.4-0.5-0.6c-1.4-1.6-3.2-2.5-5.1-2.8c-1.9-0.2-3.9,0.2-5.6,1.5c-0.2,0.1-0.3,0.3-0.5,0.4
				l1.1,1.3l1.1,1.3c0.1-0.1,0.2-0.2,0.3-0.2c0.9-0.7,2-0.9,3-0.8c1.1,0.1,2.1,0.7,2.9,1.6c0.1,0.1,0.2,0.2,0.3,0.3
				c0.9,1.2,1.2,2.6,1.1,4c-0.1,1.4-0.7,2.6-1.7,3.5c-0.2,0.2-0.4,0.4-0.7,0.6c-2.2,1.6-4.8,2.3-7.3,1.9c-2.5-0.3-5-1.6-6.9-3.8
				c-0.2-0.2-0.4-0.5-0.6-0.8c-2-2.7-2.8-6-2.6-9.2c0.2-1.9,0.8-3.8,1.7-5.5c0.6-1,1.4-2,2.3-2.7c0.3-0.3,0.7-0.6,1.1-0.9
				c3.5-2.6,7.6-3.6,11.6-3.1s7.9,2.5,11,6c0.3,0.4,0.7,0.8,1,1.2c3.1,4.2,4.4,9.4,4,14.4c-0.4,4.9-2.6,9.6-6.3,12.9
				c-7.1,6.2-15.6,8.5-23.9,7.8c-9-0.9-17.9-5.4-24.6-12.5c-4.6-4.9-9.2-10.9-11.8-19.3c-2.6-8.4-3.5-19.1-1-33.6l0.2-0.9l-1.7-0.3
				l0,0l0,0l0,0l1.7,0.3c3.1-14.5,9.1-29.7,17-40.6c-1,9.9,1.6,19.6,6.7,27.5c6,9.3,15.5,16.3,27.2,18.8s23.3,0.1,32.6-5.9
				s16.3-15.5,18.9-27.2c2.5-11.7,0.1-23.3-5.9-32.6c-6-9.3-15.5-16.3-27.2-18.9c-7.4-1.6-14.7-1.2-21.5,0.8c2.8-2.6,5.7-5,8.7-7.4
				c12-9.4,24.4-16.6,37-21.8c1-0.4,2.1-0.8,3.1-1.2c-3.8,4.5-6.1,10.3-6.1,16.6c0,0.8,0,1.5,0.1,2.1c0.5,5.9,3.4,11.1,7.8,14.9
				c4.3,3.8,10,6.1,16.1,6.1c0.7,0,1.3,0,1.8-0.1c5.4-0.5,10.1-2.8,13.4-6.3c3.4-3.5,5.3-8.2,5.3-13.5c0-0.6,0-1.1-0.1-1.6
				c-0.3-4.1-2.4-7.7-5.4-10.3c-3-2.6-6.9-4.2-11.1-4.2c-0.2,0-0.3,0-0.4,0c-0.3,0-0.6,0-0.8,0c-3.7,0.3-7,1.9-9.3,4.4
				s-3.7,5.7-3.7,9.4c0,0.4,0,0.8,0,1.1c0.2,2.3,1.3,4.3,3,5.7c1.6,1.4,3.8,2.3,6.1,2.3c0.3,0,0.5,0,0.7,0c2.1-0.2,3.9-1.1,5.2-2.5
				c1.3-1.4,2.1-3.2,2.1-5.3c0-0.3,0-0.5,0-0.6l-1.7,0.1l-1.7,0.2c0,0.2,0,0.3,0,0.4c0,1.1-0.4,2.1-1.1,2.9s-1.8,1.3-3,1.4
				c-0.2,0-0.3,0-0.4,0c-1.4,0-2.8-0.5-3.8-1.4s-1.7-2.1-1.8-3.4c0-0.3,0-0.6,0-0.9c0-2.7,1-5.2,2.7-7s4.2-3.1,7.1-3.3
				c0.3,0,0.5,0,0.7,0h0.3c3.3,0,6.4,1.3,8.8,3.3c2.3,2,3.9,4.9,4.2,8c0,0.5,0.1,1,0.1,1.4c0,4.3-1.6,8.2-4.4,11.1
				s-6.7,4.8-11.2,5.2c-0.6,0-1.1,0.1-1.6,0.1c-5.2,0-10.1-2-13.8-5.2s-6.2-7.7-6.6-12.6c-0.1-0.7-0.1-1.3-0.1-1.9
				c0-5.9,2.2-11.2,6-15.2c1.9-2,4.2-3.7,6.9-4.9c2.8-0.8,5.6-1.6,8.4-2.2l0,0c0.8-0.1,1.5-0.1,2.1-0.1v-0.4
				c25.7-5.5,51.8-3.5,76.6,4.2c-0.3,0-0.5,0-0.8,0c-8.3,0.1-16.7,2.1-24.4,6.2c-1.3,0.7-2.5,1.4-3.6,2.1l0,0
				c-10.2,6.4-17.1,15.8-20,26.2c-3,10.4-2.1,21.7,3.3,32c0.6,1.1,1.2,2.1,1.8,3.2c4.8,7.5,12.4,12.6,20.9,14.6
				c8.5,2.1,17.8,1.2,25.9-3.1c0.8-0.4,1.6-0.9,2.4-1.4c6.9-4.4,11.6-10.8,13.6-17.8c2-7.1,1.4-14.8-2.3-21.7
				c-0.4-0.7-0.8-1.4-1.2-2.2c-2.5-4-6.5-6.6-11-7.7l-0.3-0.1c-4.3-1-9.1-0.5-13.3,1.7c-0.4,0.2-0.9,0.5-1.3,0.7
				c-3.6,2.3-6.1,5.7-7.2,9.4c-1.1,3.7-0.7,7.8,1.2,11.5c0.2,0.4,0.4,0.8,0.7,1.1l1.5-0.9l1.5-0.9c-0.2-0.3-0.4-0.6-0.5-0.9
				l-0.1-0.1c-1.5-2.8-1.7-6-0.9-8.8c0.8-2.9,2.8-5.6,5.7-7.4c0.3-0.2,0.7-0.4,1-0.6c2.9-1.5,6.1-2,9.2-1.7c0.7,0.1,1.3,0.2,2,0.4
				c3.6,0.9,6.8,3,8.8,6.2c0.4,0.6,0.8,1.3,1.1,1.9c3.2,6.2,3.8,12.9,2,19.2c-1.8,6.2-6,11.9-12.1,15.8c-0.7,0.4-1.4,0.9-2.2,1.3
				c-7.4,3.9-15.8,4.7-23.5,2.8c-7.6-1.9-14.5-6.4-18.7-13.1c-0.6-1-1.2-1.9-1.7-2.9c-5-9.4-5.8-19.9-3.1-29.4
				c2.8-9.5,9.1-18.2,18.6-24.2l0,0c1.1-0.7,2.2-1.3,3.3-1.9c7.2-3.8,15.1-5.7,22.9-5.8c6-0.1,11.9,0.9,17.4,2.8
				c36.5,17.2,85.7,70.2,109.5,110.9c3.2,5.4,10.1,16,12.3,18.6c7.1,8.1,25.6,22,36.5,39.6c-23-28.4-52.5-40.4-55.1-41.2
				c-16-7-33.8-13.8-51.1-18.6c-9-3.5-17.6-6.5-25.7-8.9c-5.2-2.5-9.2-6.3-11.6-11c-2.7-5.2-3.5-11.3-1.7-17.4
				c0.2-0.6,0.4-1.3,0.6-1.9c1.9-5,5.7-8.8,10.5-11.1c4.8-2.3,10.4-2.9,15.7-1.3c0.5,0.2,1.1,0.3,1.6,0.5c4.5,1.7,8,4.8,10,8.7
				c2,3.8,2.5,8.3,1.3,12.7l0,0c-0.1,0.4-0.3,0.9-0.5,1.4c-1.2,3.2-3.7,5.6-6.7,7.1c-3.1,1.5-6.7,1.9-10.1,0.9l-0.2-0.1
				c-0.3-0.1-0.5-0.2-0.8-0.3c-2.9-1.1-5.1-3.1-6.4-5.5s-1.6-5.2-0.8-8c0.1-0.3,0.2-0.6,0.3-0.9c0.5-1.4,1.6-2.4,2.9-3
				s2.9-0.8,4.4-0.4c0.1,0,0.3,0.1,0.4,0.1c1.2,0.5,2.2,1.3,2.7,2.3s0.7,2.2,0.3,3.4c0,0.1-0.1,0.2-0.1,0.4l1.6,0.6l1.6,0.6
				c0.1-0.2,0.1-0.4,0.2-0.6c0.6-2.1,0.3-4.2-0.6-6s-2.5-3.2-4.6-4c-0.2-0.1-0.4-0.2-0.7-0.2c-2.4-0.7-4.8-0.4-6.9,0.6
				s-3.8,2.7-4.7,5c-0.1,0.4-0.3,0.7-0.4,1.1c-1.1,3.7-0.6,7.5,1.1,10.6c1.7,3.2,4.5,5.7,8.2,7.1c0.3,0.1,0.6,0.2,0.9,0.3l0.4,0.1
				c4.3,1.2,8.8,0.7,12.5-1c3.8-1.8,6.9-5,8.5-9c0.2-0.5,0.4-1.1,0.5-1.7c1.5-5.3,0.9-10.7-1.5-15.3c-2.4-4.5-6.5-8.3-11.9-10.3
				c-0.6-0.2-1.2-0.4-1.9-0.6c-6.2-1.8-12.7-1.1-18.2,1.5s-10,7.2-12.2,13c-0.3,0.7-0.5,1.4-0.7,2.2c-2,7-1.2,14,2,20
				c1.3,2.4,2.9,4.7,4.9,6.7c-26.9-6.8-49.1-7.7-67.5-4.8c-12.5-0.4-23.6-3.3-31.7-7.7c-8.1-4.4-13.2-10.2-14-16.4
				c-0.1-0.6-0.1-1.2-0.1-1.7c0.1-3,1.4-5.7,3.6-7.8c2.2-2.1,5.1-3.5,8.3-3.6c0.3,0,0.7,0,1,0c2.7,0.1,5.2,1.2,6.9,2.8
				c1.7,1.7,2.8,3.9,2.9,6.5c0,0.3,0,0.6,0,0.8c-0.1,1.6-0.7,3-1.7,4.2c-0.2,0.2-0.4,0.4-0.6,0.6c-1.3,1.3-3.2,2.1-5.1,2.2l0,0
				c-0.2,0-0.4,0-0.6,0c-1.7-0.1-3.2-0.7-4.2-1.7c-1.1-1-1.7-2.4-1.8-4c0-0.2,0-0.3,0-0.5c0-0.7,0.4-1.3,0.9-1.8s1.2-0.8,2-0.9
				c0.1,0,0.2,0,0.2,0c0.6,0,1.2,0.3,1.6,0.6c0.4,0.4,0.6,0.8,0.6,1.4c0,0.1,0,0.1,0,0.2l1.7,0.1l1.7,0.1c0-0.2,0-0.3,0-0.5l0,0
				c-0.1-1.5-0.7-2.8-1.7-3.8c-1-0.9-2.3-1.5-3.8-1.6l0,0c-0.2,0-0.3,0-0.5,0c-1.7,0.1-3.2,0.8-4.3,1.9s-1.9,2.6-1.9,4.2
				c0,0.3,0,0.5,0,0.8l0,0c0.1,2.5,1.2,4.7,2.9,6.3c1.7,1.6,4,2.6,6.5,2.7c0.3,0,0.6,0,0.9,0l0,0c2.9-0.1,5.5-1.3,7.4-3.2
				c0.4-0.4,0.8-0.8,1.1-1.3c1.3-1.7,2.1-3.7,2.2-5.9c0-0.4,0-0.7,0-1.1c-0.2-3.5-1.7-6.6-4-8.9c-2.4-2.2-5.6-3.7-9.2-3.8
				c-0.4,0-0.8,0-1.2,0c-4.1,0.2-7.9,1.9-10.6,4.6c-2.8,2.7-4.5,6.3-4.6,10.2c0,0.8,0,1.5,0.1,2.2c0.9,7.4,6.7,14.1,15.8,19.1
				c6,3.3,13.5,5.8,21.9,7.1c-13.4,3.6-24.4,9.2-33.4,15.9c-12.9,9.6-20.9,22.1-24.5,35.1c-3.6,13.1-2.6,26.7,2.7,38.4
				c6.7,14.9,20.9,25.4,40.9,28.6l0,0c3.5,0.8,7.1,1.2,10.6,1.2c0.5,0.1,1.1,0.1,1.6,0.2c5,0.9,9.1,3.4,11.9,7
				c2.8,3.5,4.2,8,3.7,12.8c0,0.5-0.1,1-0.2,1.5c-0.7,3.9-3.1,7.4-6.3,9.7c-3.2,2.4-7.4,3.6-11.6,3.2l0,0c-0.4,0-0.9-0.1-1.3-0.2
				c-3.6-0.7-6.6-2.5-8.6-5.1c-2-2.5-3-5.8-2.7-9.3c0-0.4,0.1-0.7,0.2-1.1c0.4-2.5,1.9-4.6,4-6.1c1.9-1.4,4.3-2.2,6.8-2.1
				c0.2,0,0.4,0,0.5,0c0.3,0,0.6,0.1,0.8,0.1c2.3,0.4,4.1,1.6,5.4,3.2c1.2,1.6,1.9,3.6,1.7,5.8l0,0c0,0.2,0,0.4-0.1,0.7l0,0
				c-0.2,1-0.8,1.9-1.6,2.5c-0.9,0.6-2,1-3.1,0.8l0,0c-0.1,0-0.2,0-0.3,0l0,0c-0.9-0.2-1.7-0.6-2.2-1.3c-0.5-0.6-0.7-1.4-0.7-2.3
				l0,0c0-0.1,0-0.2,0-0.3l-1.7-0.3l-0.7-0.1l-1-0.2c0,0.2-0.1,0.4-0.1,0.6c-0.2,1.8,0.3,3.4,1.4,4.7c1,1.3,2.5,2.2,4.3,2.5l0,0
				c0.1,0,0.3,0.1,0.6,0.1c2,0.2,3.9-0.4,5.4-1.5s2.7-2.8,3-4.7l0,0c0-0.3,0.1-0.6,0.1-1c0.3-3.1-0.6-6-2.4-8.3
				c-1.8-2.2-4.4-3.9-7.5-4.4c-0.4-0.1-0.7-0.1-1.1-0.2h-0.1c-3.5-0.3-6.9,0.7-9.6,2.7s-4.7,4.9-5.3,8.3c-0.1,0.5-0.2,0.9-0.2,1.4
				c-0.4,4.4,0.9,8.5,3.4,11.7s6.3,5.5,10.8,6.3c0.5,0.1,1,0.2,1.5,0.2c5.1,0.5,10.1-1,14-3.8s6.8-7,7.7-11.9
				c0.1-0.6,0.2-1.2,0.3-1.8c0.6-5.7-1.1-11.1-4.4-15.3c-1.9-2.4-4.4-4.5-7.3-6c2.2-0.5,4.4-1.1,6.6-1.9c8-3,15.1-8.4,20.5-16.1
				c5.9-8.3,7.9-18.7,6.4-28.6c-1.5-9.9-6.5-19.4-14.7-26.2c-0.9-0.7-1.7-1.4-2.6-2c-7.7-5.4-16.5-7.6-24.8-6.6
				c-8.4,0.9-16.3,5-22.1,11.9c-0.6,0.8-1.2,1.5-1.7,2.3c-4,5.7-5.4,12.7-4.4,19.5c1,6.7,4.4,13.2,10,17.8c0.6,0.5,1.2,0.9,1.7,1.3
				c2.8,2,5.8,3.3,8.8,4c2.7,0.6,5.4,0.8,8.1,0.5c5.7-0.6,11.1-3.4,15.1-8.2c0.4-0.5,0.8-1,1.2-1.5c2.1-3,2.9-6.8,2.3-10.4
				c-0.5-3.6-2.4-7-5.3-9.5c-0.3-0.3-0.6-0.5-0.9-0.7c-2.8-2-6-2.8-9.1-2.4c-3.1,0.3-6,1.8-8.1,4.4c-0.2,0.3-0.5,0.6-0.6,0.8l1.4,1
				l1.4,1c0.2-0.2,0.3-0.4,0.5-0.6c1.5-1.8,3.6-2.9,5.8-3.1c2.2-0.3,4.6,0.3,6.7,1.8c0.3,0.2,0.5,0.4,0.7,0.5
				c2.3,1.9,3.7,4.5,4.1,7.3c0.4,2.7-0.1,5.6-1.7,7.8c-0.3,0.5-0.7,0.9-1,1.3c-3.4,4-7.9,6.4-12.8,6.9c-2.4,0.3-4.9,0.1-7.3-0.5
				c-2.5-0.6-5-1.8-7.3-3.4c-0.5-0.4-1.1-0.8-1.5-1.2c-4.9-4.1-7.9-9.8-8.8-15.7s0.3-12,3.8-16.9c0.5-0.7,1-1.4,1.6-2
				c5.2-6.2,12.3-9.9,19.8-10.7s15.5,1.1,22.5,6c0.8,0.6,1.6,1.2,2.3,1.8c7.5,6.2,12.1,15,13.5,24.1s-0.4,18.5-5.8,26
				c-5,7.1-11.6,12-18.9,14.8c-7.6,2.9-16,3.4-24.2,1.5l0,0h-0.2c-22.9-4.4-38.3-16.2-40.8-43.2c-0.6-6.2,0-12.7,1.7-19
				c3.3-11.9,10.7-23.4,22.6-32.3c15.3-11.4,35.2-19.1,63.4-17.8c-0.4,0.2-0.7,0.4-1.1,0.6c-4.6,2.7-8.1,7.1-9.6,12.6
				c-0.2,0.6-0.3,1.2-0.4,1.8c-0.9,4.9,0.2,9.8,2.9,13.9c2.6,4,6.7,7.2,11.7,8.6c0.5,0.1,1,0.3,1.5,0.4c4.5,0.9,8.8,0,12.3-2
				c3.5-2.1,6.2-5.5,7.4-9.7l0,0c0.1-0.5,0.2-0.9,0.3-1.3c0.7-3.4-0.2-6.8-2-9.7c-1.8-2.8-4.7-5-8.1-6l0,0l-0.4-0.1
				c-0.2-0.1-0.4-0.1-0.7-0.1c-3.1-0.6-6.2,0-8.6,1.4c-2.5,1.5-4.4,3.8-5.2,6.8c-0.1,0.3-0.2,0.6-0.2,0.9c-0.4,1.9,0.1,3.9,1.1,5.5
				s2.6,2.8,4.5,3.4c0.2,0.1,0.4,0.1,0.6,0.1c1.8,0.3,3.5,0,4.9-0.8s2.5-2.2,3-3.9c0.1-0.2,0.1-0.4,0.1-0.5l-1.7-0.3l-0.7-0.1
				l-1-0.2c0,0.1,0,0.2-0.1,0.3c-0.2,0.8-0.7,1.5-1.4,1.9s-1.6,0.6-2.5,0.4c-0.1,0-0.2,0-0.3-0.1c-1.1-0.3-2-1-2.6-1.9
				s-0.8-1.9-0.6-2.9c0-0.3,0.1-0.5,0.2-0.7c0.6-2.1,1.9-3.7,3.6-4.8c1.8-1,3.9-1.4,6.2-1c0.2,0,0.4,0.1,0.5,0.1l0.3,0.1
				c2.6,0.7,4.7,2.4,6.1,4.5s2,4.6,1.5,7.1c-0.1,0.4-0.2,0.8-0.2,1.1l0,0c-0.9,3.4-3,6-5.8,7.7s-6.3,2.3-9.9,1.6
				c-0.4-0.1-0.9-0.2-1.3-0.3c-4.1-1.1-7.5-3.8-9.7-7.1s-3.1-7.4-2.4-11.3c0.1-0.5,0.2-1,0.3-1.5c1.3-4.6,4.2-8.3,8-10.6
				c3.9-2.3,8.6-3.2,13.6-2.2c0.6,0.1,1.2,0.2,1.7,0.4v-0.2c16.2,2.4,34.9,7.5,56.5,16.1c24.5,10,67.7,28.6,86,48
				c38.6,40.8,20,77.1,10.3,95.2c4.8-14.6,16.6-45.9,0.1-68.8c-0.1,8.4-2.2,16.9-4.9,24.6c-4.7,13.3-11.3,24.6-18.2,36.7l-0.8,1.3
				c-11.7,25.1-18.1,46.1-17.2,64.2c2,41.7,49,57.9,24.2,108.8c0.9-1.6,7.9-16,8.8-18.1c19.5-47.2-30.3-69.4-4.4-123.3
				c-9.3,59.1,27.4,89,58.5,102.2l-1,0.1c28.7,10.4,45.3,24.1,52.7,37.5c13.3,24.2,2.3,54-39.9,62.5c5.7-4.1,10.5-9.7,13.7-16.5
				c5.1-10.8,5.3-22.6,1.6-33.1c-3.7-10.4-11.4-19.4-22.2-24.5s-22.6-5.3-33.1-1.6s-18,11.8-23.1,22.6s-5.3,22.6-1.6,33
				c3.2,8.9,9.3,16.8,17.8,22.1c-37.9-4.6-92.7-15-110.2-60.3l0.3-0.1l-0.2-0.4c-1.3-3.6-2-7.4-2.2-11.3c-0.1-3.9,0.4-7.8,1.6-11.7
				c0.3-0.9,0.6-1.8,0.9-2.6c3-7.3,8.2-12.8,14.4-15.9c6.2-3.1,13.6-3.8,20.7-1.6c0.8,0.2,1.5,0.5,2.2,0.8
				c5.2,2.1,9.1,6.3,11.4,11.3s2.8,11,1,16.5c-0.2,0.6-0.4,1.1-0.6,1.7c-1.9,4.7-5.3,8.3-9.3,10.3s-8.8,2.5-13.4,1l0,0
				c-0.5-0.2-1-0.3-1.4-0.5c-2.4-1-4.2-2.9-5.2-5.2c-0.9-2.1-1.2-4.5-0.7-6.8c0.1-0.3,0.1-0.6,0.2-0.9l0,0c0.1-0.3,0.2-0.5,0.3-0.8
				c0.9-2.2,2.4-3.8,4.3-4.7c1.5-0.8,3.3-1,5.1-0.7c0.3,0.1,0.7,0.1,1,0.2c0.2,0.1,0.4,0.1,0.7,0.2l0.7-1.6l0.7-1.6
				c-0.3-0.1-0.6-0.2-0.9-0.3c-3-0.9-6-0.6-8.6,0.7s-4.7,3.5-5.9,6.5l0,0c-0.1,0.3-0.3,0.7-0.4,1l0,0c-0.5,1.5-0.7,3.1-0.6,4.6
				c0,1.9,0.5,3.8,1.3,5.5c1.4,3.1,3.9,5.7,7.1,7c0.6,0.2,1.1,0.4,1.7,0.6c5.5,1.7,11.1,1.2,16-1.2c4.8-2.4,8.8-6.6,11-12.1
				c0.3-0.6,0.5-1.3,0.7-1.9c2-6.4,1.4-13.2-1.1-19c-2.6-5.8-7.2-10.6-13.2-13.1c-0.8-0.3-1.7-0.6-2.5-0.9c-8-2.5-16.3-1.7-23.3,1.8
				s-12.8,9.6-16.1,17.7c-0.4,0.9-0.7,1.9-1,2.8c-1.3,4.2-1.9,8.6-1.8,12.8s0.9,8.4,2.3,12.2l-0.1,0.1c17.9,52.3,86.9,66,131.8,66.1
				c4.2,0.4,8.3,0.3,12.4-0.4c30.8-2.3,64.8-14.3,75.4-37.9C637.7,802.2,631.3,785.6,605.5,763.1 M228.8,401.7
				c10.3,2.2,18.6,8.4,23.9,16.6c5.3,8.2,7.4,18.4,5.2,28.6c-2.2,10.3-8.4,18.6-16.6,23.9c-8.2,5.3-18.4,7.4-28.6,5.2
				c-10.3-2.2-18.6-8.4-23.9-16.6c-5.3-8.2-7.4-18.4-5.2-28.6c0.9-4.2,2.5-8.1,4.6-11.5c2.3-3,4.7-5.9,7.2-8.7
				c1.5-1.4,3.1-2.6,4.8-3.7C208.4,401.6,218.5,399.5,228.8,401.7 M550.4,859.8c-3.7,0.3-7.5,0.4-11.3,0.4c-4-0.5-8.1-1.6-11.9-3.4
				c-9.5-4.5-16.3-12.4-19.5-21.5c-3.3-9.2-3.1-19.6,1.4-29.1c4.5-9.5,12.4-16.3,21.5-19.5c9.2-3.3,19.6-3.1,29.1,1.4
				s16.3,12.4,19.6,21.5s3.1,19.6-1.4,29.1s-12.4,16.3-21.5,19.5C554.4,858.9,552.4,859.5,550.4,859.8"/>
			<path class="st7" d="M579.5,721.7c-6.2-3.8-12.2-7.9-17.6-12.7c-3.9-3.4-7.2-6.9-10.6-10.8c5.7,21,41.1,46,65.2,55.8
				c3.1,1.3,6,2.3,8.6,3c39.4,10.9,81.4,7.7,121-8.6c5.9-5.1,10.4-11.9,13-17.5c-0.7,0.3-1.5,0.7-2.3,1
				c-37.6,15.9-80.9,20.5-121.2,12.5c-0.7-0.1-1.5-0.3-2.2-0.5c-8.8-2.1-20.1-6.8-28.2-10C596.5,730.5,587.5,726.6,579.5,721.7"/>
			<path class="st7" d="M327.1,746.6c-52.2,1.7-107.3-22.7-121.2-72.3c0.9,1.5,1.9,3,2.9,4.3c6.7,8.8,16.8,15,28.7,16.5
				c11.8,1.5,23.2-1.9,32-8.6c8.8-6.7,15-16.8,16.5-28.7c1.5-11.8-1.9-23.2-8.6-32s-16.8-15-28.7-16.5c-11.8-1.5-23.2,1.9-32,8.6
				c-1.5,1.2-3,2.5-4.4,3.9c4.4-10.5,6.4-19.5,6.7-27.1c1.1-4.7,3.1-10.2,6.1-14.8c3.7-5.7,9.1-10,16.3-9.5l0,0
				c0.4,0,0.7,0.1,1.1,0.1c3.2,0.5,6.1,2.3,8,4.9c2,2.7,3.1,6.1,2.8,9.6l0,0c0,0.4-0.1,0.7-0.1,1c-0.5,3-1.9,5.5-4,7.2
				c-2,1.7-4.7,2.6-7.5,2.3c-0.3,0-0.6-0.1-0.9-0.1c-2-0.3-3.8-1.5-5-3.1c-0.4-0.5-0.7-1-1-1.6c-0.6-1.3-0.9-2.8-0.8-4.3l0,0
				c0-0.2,0-0.5,0.1-0.6c0.3-1.8,1.2-3.4,2.5-4.4c1.2-1,2.9-1.6,4.6-1.4l0,0c0.2,0,0.4,0,0.6,0.1c0.8,0.1,1.5,0.6,1.9,1.2
				c0.5,0.7,0.8,1.5,0.7,2.4l0,0c0,0.1,0,0.2,0,0.3c-0.1,0.7-0.5,1.3-0.9,1.7c-0.5,0.4-1,0.6-1.7,0.5c-0.1,0-0.2,0-0.2,0l-0.3,1.7
				l-0.3,1.7c0.2,0,0.4,0.1,0.5,0.1c1.6,0.1,3-0.4,4.2-1.3c1.1-0.9,1.9-2.2,2.2-3.8l0,0c0-0.2,0.1-0.4,0.1-0.5
				c0.1-1.7-0.4-3.4-1.4-4.7s-2.5-2.3-4.2-2.6c-0.3,0-0.6-0.1-0.8-0.1c-2.7-0.2-5.2,0.6-7.1,2.2c-1.9,1.6-3.3,3.9-3.7,6.6
				c0,0.3-0.1,0.6-0.1,0.9c-0.2,2.2,0.3,4.3,1.2,6.2c0.4,0.7,0.8,1.5,1.3,2.1c1.7,2.3,4.3,4,7.2,4.4c0.4,0.1,0.8,0.1,1.2,0.1
				c3.8,0.3,7.3-0.9,10-3.1c2.7-2.2,4.6-5.5,5.2-9.3c0.1-0.5,0.1-0.9,0.2-1.3c0.3-4.4-1-8.6-3.5-11.9c-2.5-3.3-6.1-5.7-10.3-6.3
				c-0.4-0.1-0.9-0.1-1.3-0.1c-8.7-0.7-15.1,4.4-19.5,11c-1.5,2.2-2.7,4.7-3.7,7.1c-2.8-17-15.2-25.6-25.2-29.6l0.1-0.4
				c-0.9-0.4-1.9-0.7-2.8-1c-1.7-0.5-3.5-0.9-5.2-1.1c-4.2-1-6.5-0.8-4.8-0.3c-4.8,0-9.4,1-13.5,3c-7,3.3-12.6,9.1-15.6,16.8
				c-0.3,0.8-0.6,1.7-0.8,2.5c-2,6.8-1,14.1,2.2,20.3s8.6,11.3,15.5,14c0.7,0.3,1.4,0.5,2.1,0.7c6.3,1.9,12.6,1.3,17.9-1.2
				c5.3-2.5,9.7-6.9,11.9-12.8c0.2-0.6,0.5-1.3,0.6-1.9c1.4-4.7,0.7-9.7-1.5-13.9s-5.9-7.8-10.7-9.6l-0.4-0.1
				c-0.4-0.1-0.7-0.3-1.1-0.3c-4.3-1.3-8.7-0.9-12.3,0.8c-3.7,1.7-6.7,4.8-8.3,8.9c-0.2,0.4-0.3,0.9-0.4,1.3
				c-0.8,2.6-0.4,5.3,0.8,7.6s3.2,4.2,5.8,5.2l0,0c0.3,0.1,0.6,0.2,0.8,0.3l0,0c2.4,0.7,4.8,0.5,6.8-0.5s3.7-2.7,4.6-4.9
				c0.1-0.2,0.2-0.5,0.2-0.7l-1.7-0.5l-0.6-0.2l-1-0.3c0,0.2-0.1,0.3-0.1,0.4c-0.5,1.4-1.6,2.4-2.8,3c-1.3,0.6-2.8,0.7-4.3,0.3
				c-0.2-0.1-0.4-0.1-0.5-0.2c-1.7-0.7-3.1-2-3.9-3.6c-0.8-1.6-1.1-3.4-0.6-5c0.1-0.4,0.2-0.7,0.4-1c1.2-3.2,3.6-5.6,6.5-7
				s6.4-1.7,9.9-0.6c0.3,0.1,0.7,0.2,1,0.3l0.2,0.1c3.9,1.5,7,4.4,8.8,8c1.8,3.5,2.4,7.6,1.2,11.4c-0.2,0.6-0.4,1.1-0.6,1.6
				c-1.9,5-5.6,8.8-10.2,10.9c-4.6,2.1-10,2.6-15.5,1c-0.6-0.2-1.3-0.4-1.9-0.6c-6.1-2.3-10.9-6.9-13.7-12.3
				c-2.8-5.4-3.7-11.8-1.9-17.7c0.2-0.8,0.5-1.5,0.7-2.2c2.7-6.9,7.7-12,13.8-14.9c5.6-2.6,12.1-3.4,18.7-1.9
				c14.2,4.9,40.3,14.6,15.9,75.6c-0.6,2.2-1.1,4.5-1.6,6.9c-1.2-3.3-3-6-5.1-8.2c-3.5-3.5-8-5.5-12.9-5.8c-1.5-0.1-3,0-4.5,0.2
				c-0.2,0-0.3,0-0.4,0.1c-3.7,0.6-6.7,3-8.7,6.2c-1.9,3.1-2.8,7-2.3,10.8c0,0.2,0.1,0.4,0.1,0.5c0.1,0.4,0.1,0.8,0.2,1.2
				c0.9,3.4,2.8,6.3,5.5,8.1s5.9,2.6,9.3,2.1c0.4-0.1,0.7-0.1,1.1-0.2c2.6-0.7,4.8-2.4,6.3-4.6c0.2-0.2,0.3-0.5,0.4-0.7
				c1.1-2.1,1.6-4.5,1.2-7c0-0.3-0.1-0.6-0.2-0.8c-0.6-2.4-2-4.4-3.9-5.7s-4.2-1.9-6.6-1.5c-0.3,0-0.5,0.1-0.8,0.2
				c-1.5,0.4-2.8,1.4-3.7,2.7c-0.8,1.3-1.2,2.9-0.9,4.5c0,0.2,0.1,0.3,0.1,0.5l0,0c0.3,1.4,1.2,2.6,2.3,3.4c1.1,0.8,2.5,1.1,4,0.9
				c0.1,0,0.3-0.1,0.4-0.1l-0.3-1.3l-0.1-0.4l-0.4-1.7c-0.1,0-0.1,0-0.2,0c-0.5,0.1-1,0-1.4-0.3s-0.7-0.8-0.9-1.3l0,0
				c0-0.1,0-0.2,0-0.2c-0.1-0.7,0.1-1.5,0.4-2.1c0.4-0.6,0.9-1,1.5-1.2c0.2,0,0.3-0.1,0.5-0.1c1.5-0.2,3,0.1,4.1,0.9
				c1.2,0.8,2.1,2.1,2.5,3.7l0,0c0,0.2,0.1,0.4,0.1,0.6c0.3,1.7,0,3.4-0.8,4.8c-0.1,0.2-0.2,0.3-0.3,0.5c-1,1.5-2.4,2.7-4.2,3.1
				c-0.3,0.1-0.5,0.1-0.8,0.2c-2.5,0.4-4.9-0.2-6.8-1.5c-1.9-1.3-3.4-3.4-4.1-6c-0.1-0.3-0.1-0.6-0.2-0.9l0,0c0-0.2-0.1-0.3-0.1-0.4
				c-0.4-3,0.3-6.1,1.9-8.5c1.5-2.4,3.7-4.2,6.3-4.6h0.3l0,0c1.3-0.2,2.6-0.2,3.8-0.1c4.1,0.3,7.8,1.8,10.7,4.8s5.1,7.3,5.8,13.1
				c0.1,0.6,0.1,1.2,0.2,1.8c-0.1,1-0.1,2-0.1,3c0,0.4-0.1,0.8-0.1,1.3c-1.3,17.2,1.2,33.7,9,46.9c20.6,34.9,63.7,61,116.7,63.6
				L327.1,746.6z M206.4,642.8c2.2-8.4,7.1-15.6,13.6-20.6c7.7-5.9,17.7-8.9,28.1-7.6c20.8,2.7,35.5,21.8,32.8,42.6
				c-1.4,10.4-6.8,19.3-14.5,25.2s-17.7,8.9-28.1,7.6c-10.4-1.4-19.3-6.8-25.2-14.5c-5.1-6.6-8-14.9-7.9-23.7
				C205.4,648.8,205.9,645.8,206.4,642.8"/>
			<path class="st7" d="M440.9,700.9c-4.1,42.7,38.4,46.9,39.5,79.1c0.2,14.7-15.3,37.6-42.7,47.6l9.3,6.3
				c23-8.8,40.2-24.5,47.2-50.2c8.7-37.5-28.6-60.7-30.5-95.2c-1.4-25.4,10.3-46.7,12.6-55.5C457.8,650.6,442.7,682.1,440.9,700.9"
				/>
			<path class="st7" d="M368.3,739.5c-8.6,2.9-17.8,4.9-27.2,6.1l-1.8,18.1c17.2-0.5,35.2-3.5,53.7-9.3
				c18.2-6.9,23.1-10.7,43.7-23.7c-6.4-10.3-4.7-26-1.1-37.1C413.9,714.2,399.9,726.9,368.3,739.5"/>
			<path class="st7" d="M393.5,831.4c-7.2-1.2-13.6-2.9-19.3-4.9c-2.3-1.1-4.7-2.4-6.9-4c-2.8-2-5.3-4.3-6.8-6.8
				c-0.3-0.5-0.6-1-0.8-1.5c-2.1-4.3-2.5-8.9-1.4-13s3.7-7.7,7.7-10c0.4-0.2,0.8-0.5,1.3-0.7c3.4-1.7,7.3-1.8,10.9-0.7
				s6.9,3.6,8.9,7c0.2,0.3,0.4,0.7,0.6,1.1c1.5,3.1,1.8,6.5,1,9.4s-2.7,5.5-5.5,7.2c-0.3,0.2-0.6,0.3-0.9,0.5
				c-1.6,0.8-3.3,1-5.1,0.8c-0.6-0.1-1.2-0.2-1.8-0.4c-2.3-0.7-4.3-2.3-5.6-4.4c-0.1-0.2-0.3-0.5-0.4-0.7l0,0c-1-2-1.1-4-0.6-5.9
				c0.5-1.8,1.7-3.4,3.4-4.5c0.2-0.1,0.4-0.2,0.6-0.3l0,0c0.9-0.4,1.9-0.5,2.8-0.2s1.8,0.9,2.3,1.8c0,0.1,0.1,0.2,0.1,0.3
				c0.4,0.8,0.5,1.6,0.3,2.3s-0.6,1.3-1.3,1.7c-0.1,0-0.2,0.1-0.2,0.1l0.8,1.6l0.8,1.6c0.2-0.1,0.3-0.2,0.5-0.3
				c1.5-0.9,2.5-2.2,2.9-3.8c0.4-1.5,0.3-3.2-0.5-4.8c-0.1-0.2-0.2-0.3-0.3-0.5c-1-1.6-2.5-2.8-4.3-3.4c-1.7-0.6-3.7-0.5-5.4,0.3
				l0,0c-0.3,0.1-0.6,0.3-0.8,0.4c-2.6,1.5-4.3,3.9-5,6.5s-0.5,5.6,0.9,8.3c0.2,0.3,0.3,0.6,0.5,0.9c1.7,2.9,4.5,5,7.6,6
				c1,0.3,2,0.5,3,0.6c2.2,0.2,4.4-0.2,6.4-1.2c0.4-0.2,0.8-0.4,1.2-0.6c3.6-2.2,6.1-5.5,7.1-9.3s0.7-8-1.2-11.9
				c-0.2-0.4-0.5-0.9-0.7-1.3c-2.5-4.2-6.5-7.2-10.9-8.6c-4.4-1.4-9.3-1.2-13.5,0.9c-0.5,0.3-1,0.5-1.5,0.8
				c-4.7,2.8-7.9,7.1-9.2,12.1c-1.3,4.9-0.9,10.4,1.6,15.4c0.3,0.6,0.6,1.1,0.9,1.7c0.3,0.5,0.6,0.9,0.9,1.4
				c-28.5-18.6-28.7-53-17.8-95.7h-0.1c0.3-1.1,0.6-2.2,0.8-3.3c1.5-7.8,0-15.3-3.9-21.6c-2.7-4.4-6.6-8.2-11.5-10.9
				c-0.7-0.4-1.3-0.8-2-1.2c-8.7-5.3-19.7-12.1-18.9-23.3c0.2-3.2,1.3-6.2,3.1-8.5c1.6-2,3.9-3.5,6.7-4c0.3-0.1,0.6-0.1,0.9-0.1l0,0
				c2.6-0.2,5,0.5,6.8,1.8c1.8,1.4,3.1,3.4,3.5,5.8c0,0.2,0.1,0.5,0.1,0.8c0.1,1.7-0.4,3.4-1.5,4.8c-1,1.2-2.3,2.1-3.9,2.5
				c-0.2,0.1-0.4,0.1-0.7,0.1c-0.2,0-0.4,0-0.6,0.1c-1.6,0.1-3-0.3-4.2-1.1c-1.1-0.8-1.9-2-2.1-3.5c0-0.1,0-0.3-0.1-0.5
				c-0.1-0.6,0.2-1.3,0.6-1.8s1-0.9,1.7-1c0.1,0,0.1,0,0.2,0l0,0c0.6,0,1.1,0.1,1.5,0.4c0.4,0.3,0.6,0.7,0.7,1.2v0.2l1.1-0.1
				l0.7-0.1l1.7-0.1c0-0.1,0-0.3-0.1-0.4c-0.2-1.4-1-2.6-2.1-3.4c-1.1-0.8-2.4-1.2-3.9-1.1c-0.1,0-0.3,0-0.5,0.1
				c-1.6,0.3-2.9,1.1-3.9,2.3s-1.5,2.7-1.3,4.3c0,0.2,0.1,0.5,0.1,0.7c0.4,2.4,1.7,4.4,3.5,5.7s4.1,2,6.5,1.8c0.3,0,0.5-0.1,0.8-0.1
				c0.4-0.1,0.7-0.1,1.1-0.2c2.3-0.6,4.2-2,5.6-3.7c1.6-2,2.5-4.6,2.3-7.3c0-0.3-0.1-0.7-0.1-1c-0.6-3.3-2.4-6.1-4.9-8
				s-5.7-2.8-9.2-2.5l0,0c-0.4,0-0.8,0.1-1.2,0.1c-3.7,0.6-6.7,2.6-8.8,5.2c-2.3,2.9-3.6,6.6-3.9,10.4c-0.6,9,4.7,15.3,11.2,20.2
				c-7.2-1-14.5,0.6-20.6,4c-6.6,3.7-11.9,9.5-14.3,16.5c-0.4,1.1-0.7,2.3-0.9,3.4c-1.1,5.9,0,11.7,3,16.5
				c2.9,4.8,7.7,8.5,13.7,10.5c1.3,0.4,2.6,0.8,3.9,1c5.3,1,10.7,0,15.2-2.5s8.1-6.5,9.8-11.4l0.1-0.2c0.2-0.7,0.4-1.4,0.5-2.1
				c0.8-4.1,0-8.1-2.1-11.4c-2-3.3-5.3-5.9-9.4-7.3c-0.9-0.3-1.8-0.5-2.7-0.7c-2.8-0.5-5.8,0-8.2,1.4s-4.4,3.5-5.3,6.2
				c-0.1,0.4-0.3,0.9-0.3,1.3c-0.4,2.3,0,4.5,1.2,6.3c1.1,1.8,2.9,3.2,5.2,4c0.5,0.2,1,0.3,1.5,0.4l0.3-1.6v-0.1l0.3-1.7
				c-0.3-0.1-0.7-0.2-1-0.3c-1.5-0.5-2.6-1.4-3.3-2.5c-0.7-1.1-1-2.5-0.7-3.9c0-0.3,0.1-0.5,0.2-0.8c0.6-1.8,2-3.3,3.7-4.2
				c1.7-1,3.8-1.4,5.9-1c0.8,0.1,1.5,0.3,2.2,0.6c3.3,1.1,5.9,3.2,7.6,5.8c1.6,2.6,2.2,5.7,1.6,8.9c-0.1,0.6-0.3,1.2-0.5,1.8
				l-0.1,0.3c-1.4,3.9-4.4,7.1-8.1,9.1c-3.8,2.1-8.4,3-12.9,2.1c-1.2-0.2-2.4-0.5-3.5-0.9c-5.2-1.7-9.3-5-11.8-9.1s-3.5-9-2.5-14
				c0.2-1,0.4-1.9,0.8-2.9c2.1-6.2,6.8-11.4,12.6-14.6c5.9-3.3,13-4.6,19.9-3.3c1.6,0.3,3.2,0.7,4.7,1.2c2,0.7,4,1.5,5.7,2.5
				c1,0.6,2,1.3,2.9,1.8c3.1,2.2,5.6,4.9,7.5,8c3.4,5.5,4.8,12.2,3.4,19.1c-0.2,1.3-0.6,2.6-1,3.9l0.2,0.1
				c-6.3,25.1-9.4,49.9-3.1,70.3c-5.7-6.7-10.8-11.5-15.6-14.5c-8.5-5.4-15.8-5.2-23.3,0.4c-0.1,0-0.2,0.1-0.3,0.2l0,0
				c-2.9,2.3-4.4,5.9-4.5,9.7c-0.1,3.7,1,7.5,3.2,10.6c0.1,0.2,0.2,0.3,0.3,0.4c0.2,0.3,0.5,0.6,0.8,0.9l0,0
				c2.4,2.6,5.5,4.1,8.7,4.4c3.2,0.3,6.5-0.6,9.2-2.7l0,0c0.3-0.2,0.6-0.5,0.8-0.7c1.1-1.1,2-2.4,2.5-3.8c0.4-1,0.6-2.1,0.7-3.3
				c0.1-2.6-0.7-5.3-2.4-7.5c-0.2-0.2-0.4-0.4-0.6-0.7c-1.7-1.8-3.9-2.9-6.2-3.1c-2.3-0.2-4.6,0.4-6.5,2c-0.2,0.2-0.4,0.3-0.6,0.5
				c-1.2,1.1-1.8,2.6-1.9,4.1s0.4,3.1,1.4,4.4c0.1,0.1,0.2,0.3,0.3,0.4c1,1.1,2.3,1.7,3.6,1.8c1.4,0.1,2.7-0.3,3.9-1.2l0,0
				c0.1-0.1,0.2-0.2,0.3-0.3l-0.7-0.8l-0.5-0.5l-1.2-1.3l-0.1,0.1c-0.4,0.3-0.9,0.5-1.4,0.4c-0.5,0-1-0.3-1.4-0.7
				c0,0-0.1-0.1-0.1-0.2c-0.5-0.6-0.7-1.3-0.6-2c0-0.7,0.3-1.3,0.8-1.8c0.1-0.1,0.2-0.2,0.4-0.3c1.2-1,2.6-1.4,4-1.2
				c1.4,0.1,2.8,0.8,4,2c0.1,0.1,0.2,0.3,0.4,0.4c1.2,1.5,1.7,3.4,1.6,5.2c0,0.7-0.2,1.4-0.4,2.1c-0.3,1-0.9,1.9-1.7,2.6
				c-0.2,0.2-0.4,0.4-0.6,0.5c-2,1.6-4.3,2.2-6.7,2c-2.4-0.2-4.7-1.3-6.5-3.3l0,0c-0.2-0.2-0.4-0.4-0.6-0.7
				c-0.1-0.1-0.2-0.3-0.3-0.3c-1.8-2.4-2.7-5.5-2.6-8.4c0.1-2.8,1.2-5.4,3.2-7.1l0,0l0.2-0.2c6.2-4.6,12.3-4.7,19.4-0.2
				c6.4,4.1,13.6,11.7,22.2,23.1c8.8,16.1,25.4,28.3,53.8,34c13,2.2,25.6,2.1,37.5-0.2l-8.4-7.1C413,833,403.6,833,393.5,831.4"/>
			<path class="st7" d="M219.8,455.8c9.1,0,16.5-7.4,16.5-16.5s-7.4-16.5-16.5-16.5s-16.5,7.4-16.5,16.5S210.7,455.8,219.8,455.8"/>
			<path class="st7" d="M581.4,362c14.7-18.3,31.4-31.7,49.2-41.2c0.8-0.2,1.7-0.4,2.6-0.6c12.2-2.2,25.5,2.6,31.7,13.7
				c6.6,11.9,3,27.1-9.4,33.4c-10.3,5.2-24.2,2.7-30.1-7.8c-11.4-20.4,16.6-33.7,25.2-18.4c2.2,4,2.4,10.9-2.3,13.3
				c-4.3,2.2-10.7-0.8-8.8-6.3c-1.1-0.4-2.2-0.8-3.3-1.1c-1.6,4.7,1,9.5,5.6,11.1l0,0c2.7,0.9,5.6,0.7,8.1-0.6
				c6.5-3.3,7-12.3,3.8-18.1c-10.8-19.2-44.9-2.7-31.2,21.7c6.8,12.2,22.7,15.3,34.7,9.2c14.1-7.2,18.4-24.6,10.8-38.2
				c-5.7-10.2-16.6-15.8-28-16.1c6.6-3,13.4-5.4,20.3-7.5l-6.2-6.4c-13,3.8-25.2,9.1-36.6,15.8c4.7-8.1,5-18.6-0.7-26.3
				c-6.7-9.2-19.7-11.6-28.8-4.4c-7.7,6.1-10.5,17.7-4.4,26c12.1,16.5,34.3-0.6,24.2-14.4c-3-4.1-9.3-6.4-13.6-3
				c-3.1,2.4-4.1,7-1.7,10.3c1.1,1.6,2.8,2.5,4.7,2.7c0.1-1.2,0.2-2.3,0.3-3.5c-0.9-0.1-1.7-0.6-2.3-1.3c-1.3-1.7-0.5-4.2,1-5.5
				c2.7-2.2,6.9-0.1,8.6,2.3c7.4,10.1-9.3,23-18.6,10.3c-4.9-6.8-2.5-16.2,3.8-21.2c7.5-6,18.2-3.9,23.8,3.7
				c5.3,7.2,4.4,17.1-0.5,24.2c-1.9,2.7-4.2,5.6-7.1,7.2c-15.9,11.1-30,25.3-41.9,42.4c0.4-1.8,0.8-3.6,1-5.4
				c2.4-18.4-5.9-37.7-23-46.1c-18.6-9.2-41.4-2.3-50,17c-7.3,16.3-2.1,37.2,14.6,45.5c33.3,16.4,52.7-29.8,26.7-42.6
				c-7.7-3.8-19.4-2.6-23.3,6.1c-2.7,6-0.7,13.6,5.4,16.7c2.5,1.2,5.4,1.5,8.2,0.6l0,0c0.3-0.1,0.6-0.2,0.9-0.3
				c-0.4-1.1-0.9-2.2-1.3-3.2c-0.2,0.1-0.4,0.2-0.6,0.2l0,0c-1.9,0.6-3.9,0.4-5.6-0.4c-4.4-2.2-5.7-7.8-3.8-12.1
				c3-6.8,12.7-7.3,18.6-4.4c22,10.9,5.5,50.7-23.6,36.4c-14.9-7.4-19.4-26.3-12.9-40.9c7.8-17.5,28.5-23.6,45.3-15.3
				c15.8,7.8,23.3,25.7,21.1,42.6c-0.8,6-4.3,16.7-5.9,18.8c-11.9,20.2-21.3,44-27.7,71.2c-1.9,6.8-4.7,17.5-9.4,19.4
				c7.9,7.9,15.2,15,21.7,22.1c-2.4-17.1-1.3-26.3,2-40.9C552.9,414.9,563.6,384,581.4,362"/>
		</g>
	</g>
</g>
<g class="st8">
	<path class="st7" d="M130,988.7c-5.7,0-11.1-0.8-16.3-2.3c-5.2-1.5-9.4-3.5-12.5-5.9l5.6-12.3c3,2.2,6.6,3.9,10.8,5.3
		c4.1,1.4,8.3,2.1,12.6,2.1c3.2,0,5.8-0.3,7.8-1c2-0.6,3.5-1.5,4.4-2.7c0.9-1.1,1.4-2.5,1.4-3.9c0-1.9-0.7-3.4-2.2-4.5
		c-1.5-1.1-3.4-2-5.9-2.7c-2.4-0.7-5.1-1.4-8-2c-2.9-0.6-5.9-1.4-8.8-2.4c-2.9-0.9-5.6-2.2-8-3.6c-2.4-1.5-4.4-3.4-5.9-5.9
		s-2.3-5.5-2.3-9.3c0-4,1.1-7.7,3.3-11.1c2.2-3.3,5.5-6,9.9-8c4.4-2,10-3,16.6-3c4.4,0,8.8,0.5,13.1,1.6c4.3,1,8.1,2.6,11.4,4.7
		l-5.1,12.4c-3.3-1.9-6.6-3.3-9.9-4.2c-3.3-0.9-6.5-1.4-9.7-1.4c-3.2,0-5.8,0.4-7.8,1.1c-2,0.7-3.5,1.7-4.3,2.9
		c-0.9,1.2-1.3,2.5-1.3,4.1c0,1.8,0.7,3.3,2.2,4.4c1.5,1.1,3.4,2,5.9,2.7c2.4,0.7,5.1,1.3,8,2c2.9,0.7,5.9,1.5,8.8,2.3
		c2.9,0.9,5.6,2.1,8,3.5c2.4,1.5,4.4,3.4,5.9,5.9c1.5,2.4,2.3,5.5,2.3,9.2c0,4-1.1,7.6-3.3,10.9c-2.2,3.3-5.5,6-10,8
		C142.3,987.7,136.8,988.7,130,988.7z"/>
	<path class="st7" d="M184.9,987.5v-57.4h-22.6v-13.3h61.7v13.3h-22.6v57.4H184.9z"/>
	<path class="st7" d="M266.1,988.7c-5.6,0-10.8-0.9-15.5-2.7c-4.8-1.8-8.9-4.4-12.3-7.7c-3.5-3.3-6.2-7.2-8.1-11.6
		s-2.9-9.3-2.9-14.6c0-5.3,1-10.1,2.9-14.6c1.9-4.4,4.6-8.3,8.1-11.6c3.5-3.3,7.6-5.9,12.3-7.7c4.7-1.8,9.8-2.7,15.4-2.7
		c5.6,0,10.7,0.9,15.4,2.7c4.7,1.8,8.8,4.4,12.2,7.7c3.5,3.3,6.2,7.2,8.1,11.6c2,4.4,2.9,9.3,2.9,14.6c0,5.3-1,10.1-2.9,14.6
		c-2,4.5-4.7,8.4-8.1,11.6c-3.5,3.3-7.5,5.8-12.2,7.6C276.7,987.8,271.6,988.7,266.1,988.7z M266,974.8c3.2,0,6.1-0.5,8.7-1.6
		c2.7-1.1,5-2.6,7-4.6s3.6-4.4,4.7-7.2c1.1-2.8,1.7-5.8,1.7-9.2c0-3.4-0.6-6.4-1.7-9.2c-1.1-2.8-2.7-5.2-4.6-7.2c-2-2-4.3-3.6-7-4.6
		c-2.7-1.1-5.6-1.6-8.8-1.6c-3.2,0-6.1,0.5-8.7,1.6c-2.7,1.1-5,2.6-7,4.6c-2,2-3.6,4.4-4.7,7.2c-1.1,2.8-1.7,5.8-1.7,9.2
		c0,3.3,0.6,6.4,1.7,9.1c1.1,2.8,2.7,5.2,4.6,7.2c2,2,4.3,3.6,7,4.6C259.9,974.2,262.8,974.8,266,974.8z"/>
	<path class="st7" d="M351.2,988.7c-5.6,0-10.7-0.9-15.4-2.7c-4.7-1.8-8.8-4.3-12.2-7.6c-3.5-3.3-6.2-7.2-8.1-11.6
		c-1.9-4.4-2.9-9.3-2.9-14.7c0-5.3,1-10.2,2.9-14.7s4.6-8.3,8.1-11.6c3.5-3.3,7.6-5.8,12.3-7.6c4.7-1.8,9.9-2.7,15.6-2.7
		c6.3,0,11.9,1,16.9,3.1c5,2.1,9.2,5.1,12.7,9.1l-10.5,9.7c-2.6-2.7-5.4-4.7-8.4-6c-3-1.3-6.3-2-9.9-2c-3.4,0-6.6,0.5-9.4,1.6
		c-2.8,1.1-5.3,2.6-7.3,4.6c-2.1,2-3.6,4.4-4.8,7.2c-1.1,2.8-1.7,5.8-1.7,9.2c0,3.3,0.6,6.3,1.7,9.1c1.1,2.8,2.7,5.2,4.8,7.2
		c2.1,2.1,4.5,3.6,7.3,4.7c2.8,1.1,5.9,1.6,9.2,1.6c3.2,0,6.4-0.5,9.4-1.6c3.1-1,6-2.8,8.9-5.3l9.3,11.8c-3.8,2.9-8.3,5.1-13.4,6.7
		C361.3,987.9,356.2,988.7,351.2,988.7z M364.8,977.6V951h15v28.7L364.8,977.6z"/>
	<path class="st7" d="M429.3,988.7c-5.6,0-10.8-0.9-15.5-2.7c-4.8-1.8-8.9-4.4-12.3-7.7c-3.5-3.3-6.2-7.2-8.1-11.6
		s-2.9-9.3-2.9-14.6c0-5.3,1-10.1,2.9-14.6c1.9-4.4,4.6-8.3,8.1-11.6c3.5-3.3,7.6-5.9,12.3-7.7c4.7-1.8,9.8-2.7,15.4-2.7
		c5.6,0,10.7,0.9,15.4,2.7c4.7,1.8,8.8,4.4,12.2,7.7c3.5,3.3,6.2,7.2,8.1,11.6c2,4.4,2.9,9.3,2.9,14.6c0,5.3-1,10.1-2.9,14.6
		c-2,4.5-4.7,8.4-8.1,11.6c-3.5,3.3-7.5,5.8-12.2,7.6C439.9,987.8,434.8,988.7,429.3,988.7z M429.2,974.8c3.2,0,6.1-0.5,8.7-1.6
		c2.7-1.1,5-2.6,7-4.6s3.6-4.4,4.7-7.2c1.1-2.8,1.7-5.8,1.7-9.2c0-3.4-0.6-6.4-1.7-9.2c-1.1-2.8-2.7-5.2-4.6-7.2c-2-2-4.3-3.6-7-4.6
		c-2.7-1.1-5.6-1.6-8.8-1.6c-3.2,0-6.1,0.5-8.7,1.6c-2.7,1.1-5,2.6-7,4.6c-2,2-3.6,4.4-4.7,7.2c-1.1,2.8-1.7,5.8-1.7,9.2
		c0,3.3,0.6,6.4,1.7,9.1c1.1,2.8,2.7,5.2,4.6,7.2c2,2,4.3,3.6,7,4.6C423.1,974.2,426,974.8,429.2,974.8z"/>
	<path class="st7" d="M525.8,987.5l-23.1-70.7h17l20.1,62.7h-8.5l21-62.7h15.2l20.2,62.7h-8.2l20.6-62.7h15.7l-23.1,70.7H575
		l-17.9-55h4.6l-18.4,55H525.8z"/>
	<path class="st7" d="M658.4,988.7c-5.6,0-10.8-0.9-15.5-2.7c-4.8-1.8-8.9-4.4-12.3-7.7c-3.5-3.3-6.2-7.2-8.1-11.6
		c-1.9-4.4-2.9-9.3-2.9-14.6c0-5.3,1-10.1,2.9-14.6c1.9-4.4,4.6-8.3,8.1-11.6c3.5-3.3,7.6-5.9,12.3-7.7c4.7-1.8,9.8-2.7,15.4-2.7
		c5.6,0,10.7,0.9,15.4,2.7c4.7,1.8,8.8,4.4,12.2,7.7c3.5,3.3,6.2,7.2,8.1,11.6c2,4.4,2.9,9.3,2.9,14.6c0,5.3-1,10.1-2.9,14.6
		c-2,4.5-4.7,8.4-8.1,11.6c-3.5,3.3-7.5,5.8-12.2,7.6C669,987.8,663.9,988.7,658.4,988.7z M658.3,974.8c3.2,0,6.1-0.5,8.7-1.6
		c2.7-1.1,5-2.6,7-4.6s3.6-4.4,4.7-7.2c1.1-2.8,1.7-5.8,1.7-9.2c0-3.4-0.6-6.4-1.7-9.2c-1.1-2.8-2.7-5.2-4.6-7.2c-2-2-4.3-3.6-7-4.6
		c-2.7-1.1-5.6-1.6-8.8-1.6c-3.2,0-6.1,0.5-8.7,1.6c-2.7,1.1-5,2.6-7,4.6c-2,2-3.6,4.4-4.7,7.2c-1.1,2.8-1.7,5.8-1.7,9.2
		c0,3.3,0.6,6.4,1.7,9.1c1.1,2.8,2.7,5.2,4.6,7.2c2,2,4.3,3.6,7,4.6C652.2,974.2,655.1,974.8,658.3,974.8z"/>
	<path class="st7" d="M709.3,987.5v-70.7H740c6.3,0,11.8,1,16.4,3.1c4.6,2.1,8.1,5,10.6,8.8c2.5,3.8,3.7,8.4,3.7,13.7
		c0,5.3-1.2,9.8-3.7,13.6c-2.5,3.8-6,6.7-10.6,8.7c-4.6,2-10,3-16.4,3h-21.5l7.3-7.2v26.9H709.3z M725.7,962.4l-7.3-7.7h20.6
		c5.1,0,8.8-1.1,11.3-3.3c2.5-2.2,3.7-5.2,3.7-9c0-3.9-1.2-6.9-3.7-9.1c-2.5-2.2-6.3-3.2-11.3-3.2h-20.6l7.3-7.8V962.4z
		 M754.3,987.5l-17.7-25.7h17.5l17.9,25.7H754.3z"/>
	<path class="st7" d="M783.6,987.5v-70.7H800v57.4h35.5v13.3H783.6z"/>
	<path class="st7" d="M844.7,987.5v-70.7h32.1c7.7,0,14.5,1.5,20.3,4.4c5.9,2.9,10.4,7,13.7,12.3c3.3,5.3,5,11.5,5,18.7
		c0,7.1-1.7,13.4-5,18.6c-3.3,5.3-7.9,9.4-13.7,12.3c-5.9,2.9-12.6,4.4-20.3,4.4H844.7z M861,974.1h15c4.7,0,8.8-0.9,12.3-2.7
		s6.2-4.3,8.1-7.6c1.9-3.3,2.9-7.2,2.9-11.6c0-4.5-1-8.4-2.9-11.7c-1.9-3.3-4.6-5.8-8.1-7.6c-3.5-1.8-7.6-2.7-12.3-2.7h-15V974.1z"
		/>
</g>
</svg>
