<?xml version="1.0" encoding="utf-8"?>
<!-- Generator: Adobe Illustrator 27.3.1, SVG Export Plug-In . SVG Version: 6.00 Build 0)  -->
<svg version="1.1" id="Layer_1" xmlns="http://www.w3.org/2000/svg" xmlns:xlink="http://www.w3.org/1999/xlink" x="0px" y="0px"
	 viewBox="0 0 40 40" style="enable-background:new 0 0 40 40;" xml:space="preserve">
<style type="text/css">
	.st0{fill:#FFFFFF;}
</style>
<g>
	<path class="st0" d="M39.5,5.6c0,6.3,0,12.7,0,19c0,0-0.1,0.1-0.1,0.1c-0.5,2.2-2,3.4-4.2,3.4c-8,0-16,0-24,0
		c-2.5,0-4.2-1.7-4.2-4.2c0-5.9,0-11.7,0-17.6c0-0.5,0.1-1,0.2-1.5c0.6-1.7,2.1-2.7,4-2.7c7.8,0,15.6,0,23.4,0c0.3,0,0.6,0,0.9,0
		c1.7,0.1,3.1,1.1,3.7,2.8C39.4,5.1,39.4,5.4,39.5,5.6z M36.2,17.7c0-0.2,0-0.2,0-0.3c0-3.7,0-7.4,0-11.1c0-0.7-0.3-0.9-1-0.9
		c-8,0-15.9,0-23.9,0c-0.8,0-1.1,0.3-1.1,1.1c0,4.9,0,9.8,0,14.6c0,0.1,0,0.2,0,0.4c0.1-0.1,0.2-0.2,0.3-0.3c1.3-1.3,2.7-2.7,4-4
		c1.3-1.3,3-1.3,4.3,0c0.6,0.6,1.2,1.2,1.8,1.8c0.1-0.1,0.2-0.3,0.3-0.4c1.9-2.3,3.8-4.5,5.6-6.8c1.3-1.5,3.3-1.5,4.6,0
		c1.4,1.6,2.7,3.2,4.1,4.8C35.6,17,35.9,17.3,36.2,17.7z"/>
	<path class="st0" d="M4.5,13.7c0,0.1,0,0.3,0,0.4c0,3.4,0,6.8,0,10.2c0,2.4,1.1,4.3,3.2,5.5c0.9,0.5,2,0.7,3,0.7
		c6.9,0,13.8,0,20.8,0c0.9,0,1.7,0,2.6,0c0,0.1,0,0.2-0.1,0.3c-0.5,1.5-0.9,2.9-1.4,4.4c-0.6,1.9-2.5,3-4.4,2.5
		c-4.5-1.2-9.1-2.4-13.6-3.6c-3.8-1-7.5-2-11.3-3c-2.3-0.6-3.4-2.6-2.7-4.9C1.9,22.1,3.1,18,4.4,14C4.4,13.9,4.4,13.8,4.5,13.7
		C4.5,13.7,4.5,13.7,4.5,13.7z"/>
	<path class="st0" d="M15.1,7c1.8,0,3.2,1.5,3.2,3.2c0,1.8-1.5,3.3-3.3,3.3c-1.8,0-3.2-1.5-3.2-3.3C11.9,8.4,13.3,7,15.1,7z"/>
</g>
</svg>
